<svg viewBox="0 0 687 182" xmlns="http://www.w3.org/2000/svg" style="height: 100px; width: 180px; fill: rgb(28, 84, 96);"><path d="M642.3 34.5L572.5 121.3V34.7H538.4V157.4L518.5 181.9H563.8L686.2 34.5H642.3Z"></path><path d="M282.6 96.4C282.6 101.8 281.6 106.4 279.5 110.7C277.6 114.7 274.9 117.7 271.5 119.8C268 122 264.1 123 259.6 123C255.9 123 252.5 122.1 249.2 120.4C246.1 118.7 243.7 116.3 242 113.1C240.2 109.8 239.2 105.7 239.2 100.8V34H203.2V106.4C203.2 116.7 205.7 125.9 210.6 133.7C215.5 141.4 222 147.4 230.1 151.6C238 155.7 246.7 157.8 255.8 157.8C264.9 157.8 273.1 155.7 280.3 151.6C281.1 151.1 281.9 150.7 282.6 150.2V156H318.6V34H282.6V96.4Z"></path><path d="M434.9 40.5C425.6 35 415.2 32.2 403.9 32.2H403.8C394.8 32.4 386.5 34.5 379.1 38.4C377.8 39.1 376.6 39.8 375.4 40.6V0H339.4V156H375.4V149.6C376.6 150.4 377.8 151.1 379.1 151.8C386.6 155.8 395 157.9 404 157.9C415.4 157.9 426 155 435.3 149.3C444.5 143.7 451.9 135.9 457.1 126.3C462.3 116.7 465 106.2 465 95.1C465 83.8 462.3 73.2 457 63.5C451.6 53.7 444.2 46 434.9 40.5ZM388.3 70.2C392.5 67.6 397.1 66.4 402.1 66.4C407.2 66.4 411.8 67.6 416.1 70.2C420.5 72.8 423.8 76.2 426.3 80.6C428.8 85 430 89.7 430 95C430 100.2 428.8 104.8 426.3 109.2C423.8 113.7 420.4 117.1 416.1 119.7C411.9 122.3 407.3 123.5 402.1 123.5C397.1 123.5 392.6 122.2 388.3 119.6C383.9 116.9 380.5 113.5 377.9 109C375.3 104.6 374.1 100 374.1 94.8C374.1 89.7 375.3 85 377.9 80.6C380.6 76.4 384 72.9 388.3 70.2Z"></path><path d="M517.8 0H482V156H517.8V0Z"></path><path d="M180.5 66.2999C180.2 65.5999 179.9 64.9999 179.5 64.3999C169.1 44.3999 148.5 31.9999 125.8 31.9999C125.7 31.9999 125.5 31.9999 125.4 31.9999C120.9 20.8999 112.5 11.6999 101.8 6.19988C101.3 5.89988 100.7 5.69988 100.2 5.39988C99.7 5.19988 99.1 4.89988 98.6 4.69988C92.2 1.89988 85.4 0.499875 78.5 0.499875C64.9 0.399875 51.7 5.89988 42 15.5999C32.3 25.3999 27 38.3999 27.1 52.2999L27.7 117.8L0 152.4L124.8 153.2H125.2C145.9 153.2 165.1 142.8 176.4 125.5C187.6 108.4 189.4 86.9999 181.3 68.3999C181.1 67.5999 180.8 66.9999 180.5 66.2999ZM148 106.8C142.9 114.5 134.4 119.2 125.2 119.2L70.4 118.9L104.5 76.1999C107.1 72.8999 110.4 70.2999 114.2 68.5999C116.6 67.4999 119.2 66.6999 121.8 66.2999C123.2 66.0999 124.5 65.9999 125.8 65.9999C135.9 65.9999 144.7 71.2999 149.3 80.0999C149.5 80.3999 149.6 80.6999 149.8 80.9999C149.9 81.2999 150.1 81.5999 150.2 81.8999C153.8 90.0999 153 99.1999 148 106.8ZM61.1 51.9999C61.1 47.2999 62.9 42.8999 66.1 39.5999C69.4 36.2999 73.8 34.3999 78.3 34.3999C80.5 34.3999 82.8 34.8999 84.9 35.7999C85.1 35.8999 85.3 35.9999 85.5 36.0999C85.7 36.1999 85.9 36.2999 86.1 36.3999C88.7 37.6999 90.8 39.5999 92.3 41.8999C86.9 45.3999 82 49.7999 77.9 54.9999L61.4 75.6999L61.1 51.9999Z"></path></svg>