<?xml version="1.0" encoding="UTF-8" standalone="no"?>
<svg
   xmlns:dc="http://purl.org/dc/elements/1.1/"
   xmlns:cc="http://creativecommons.org/ns#"
   xmlns:rdf="http://www.w3.org/1999/02/22-rdf-syntax-ns#"
   xmlns:svg="http://www.w3.org/2000/svg"
   xmlns="http://www.w3.org/2000/svg"
   xmlns:sodipodi="http://sodipodi.sourceforge.net/DTD/sodipodi-0.dtd"
   xmlns:inkscape="http://www.inkscape.org/namespaces/inkscape"
   version="1.1"
   id="svg2"
   xml:space="preserve"
   width="113.38667"
   height="22.173332"
   viewBox="0 0 113.38667 22.173332"
   sodipodi:docname="digi.eps"><metadata
     id="metadata8"><rdf:RDF><cc:Work
         rdf:about=""><dc:format>image/svg+xml</dc:format><dc:type
           rdf:resource="http://purl.org/dc/dcmitype/StillImage" /></cc:Work></rdf:RDF></metadata><defs
     id="defs6" /><sodipodi:namedview
     pagecolor="#ffffff"
     bordercolor="#666666"
     borderopacity="1"
     objecttolerance="10"
     gridtolerance="10"
     guidetolerance="10"
     inkscape:pageopacity="0"
     inkscape:pageshadow="2"
     inkscape:window-width="640"
     inkscape:window-height="480"
     id="namedview4" /><g
     id="g10"
     inkscape:groupmode="layer"
     inkscape:label="ink_ext_XXXXXX"
     transform="matrix(1.3333333,0,0,-1.3333333,0,22.173333)"><g
       id="g12"
       transform="scale(0.1)"><path
         d="m 774.418,166.316 h 70.32 c 3.297,0 5.457,-2.203 5.477,-5.515 L 850.398,5.58984 C 850.398,2.19141 848.184,0 844.953,0 h -70.238 c -3.231,0 -5.41,2.19141 -5.488,5.58984 L 769.035,160.801 c 0,3.312 2.184,5.515 5.383,5.515"
         style="fill:#1d78c7;fill-opacity:1;fill-rule:nonzero;stroke:none"
         id="path14" /><path
         d="M 733.074,0 H 514.266 c -44.852,0 -81.227,37.2188 -81.235,83.1563 -0.093,45.9257 36.121,83.1597 80.981,83.1597 H 672.16 c 5.055,0 6.43,-4.882 4.629,-7.933 l -5.863,-10.375 c -0.797,-1.473 -2.617,-2.531 -4.281,-2.481 h -91.887 c -2.231,0 -4.445,-0.168 -6.66,-0.347 l 0.011,-0.075 c -5.695,-0.625 -11.183,-2.054 -16.304,-4.203 -4.621,-1.98 -8.992,-4.511 -13.063,-7.531 l -0.027,-0.094 -0.902,-0.687 -0.188,-0.141 -0.895,-0.73 -0.175,-0.192 -0.848,-0.695 -0.266,-0.223 -0.761,-0.703 -0.297,-0.242 -0.742,-0.73 -0.293,-0.2 -0.703,-0.711 -0.317,-0.328 -0.699,-0.679 -0.297,-0.348 -0.559,-0.656 -0.437,-0.403 -0.637,-0.675 -0.285,-0.309 -0.601,-0.785 -0.309,-0.36 c -0.676,-0.773 -1.289,-1.597 -1.957,-2.414 l -0.348,-0.55 -0.394,-0.508 -0.422,-0.668 -0.414,-0.559 -0.41,-0.586 -0.426,-0.601 -0.317,-0.656 -0.414,-0.571 -0.316,-0.648 -0.449,-0.594 -0.348,-0.645 -0.348,-0.582 -0.382,-0.699 -0.223,-0.605 -0.465,-0.696 -0.332,-0.554 -0.305,-0.774 -0.254,-0.539 -0.339,-0.812 -0.243,-0.551 -0.414,-0.785 -0.156,-0.563 -0.394,-0.886 -0.137,-0.446 -0.402,-1.05 -0.118,-0.348 -0.484,-1.41 -0.129,-0.383 -0.309,-0.992 -0.187,-0.582 -0.246,-0.848 -0.199,-0.6367 -0.141,-0.8047 -0.187,-0.6758 -0.141,-0.7851 -0.231,-0.6641 -0.14,-0.7773 -0.102,-0.6641 -0.191,-0.8594 -0.11,-0.6367 -0.187,-0.8477 -0.043,-0.6875 -0.094,-0.7812 -0.117,-0.7422 -0.074,-0.8125 -0.086,-0.6797 -0.082,-0.8906 -0.031,-0.6563 v -0.8671 l -0.11,-0.668 v -1.0274 l -0.043,-0.5 v -1.5546 l 0.043,-1.5782 0.055,-0.5078 v -1.039 l 0.055,-0.5625 0.031,-0.9922 v -0.5938 l 0.113,-0.8906 0.055,-0.7109 0.148,-0.7813 0.043,-0.7187 0.094,-0.8243 0.043,-0.6718 0.234,-0.8555 0.082,-0.582 0.172,-0.8594 0.102,-0.711 0.203,-0.7382 0.168,-0.6563 0.141,-0.8711 0.21,-0.6015 0.231,-0.9024 0.086,-0.5195 0.328,-0.9063 0.117,-0.5625 0.426,-1.1953 0.02,-0.1836 0.519,-1.3828 0.063,-0.2578 0.457,-1.1758 0.125,-0.3711 0.359,-0.9531 0.258,-0.625 0.367,-0.75 0.266,-0.5508 0.382,-0.7617 0.176,-0.5078 0.371,-0.8281 0.289,-0.5586 0.391,-0.7227 0.359,-0.582 0.328,-0.6758 0.34,-0.5937 0.36,-0.6993 0.371,-0.5195 0.402,-0.7187 0.371,-0.5391 0.383,-0.668 0.348,-0.5429 0.55,-0.625 0.309,-0.625 0.527,-0.7071 0.223,-0.4258 0.754,-0.9296 0.219,-0.2344 0.871,-1.0781 0.23,-0.3165 0.668,-0.7968 0.223,-0.3282 0.723,-0.7617 0.367,-0.4453 0.586,-0.625 0.484,-0.5195 0.434,-0.4766 0.625,-0.5703 0.332,-0.4258 0.625,-0.5156 0.484,-0.5312 0.551,-0.4883 0.519,-0.4766 0.496,-0.4844 0.563,-0.457 0.562,-0.4531 0.528,-0.4024 0.625,-0.4687 0.508,-0.4649 0.558,-0.4453 0.481,-0.4023 0.675,-0.4531 0.395,-0.2969 c 1.32,-0.9024 2.594,-1.7813 3.973,-2.6172 l 0.336,-0.1797 0.804,-0.4219 0.434,-0.3203 0.711,-0.3672 0.519,-0.332 0.75,-0.3594 0.532,-0.2422 0.769,-0.3945 0.488,-0.2305 0.86,-0.4023 0.457,-0.1992 0.812,-0.3516 0.446,-0.1719 0.91,-0.4023 0.402,-0.125 0.91,-0.3594 0.446,-0.1601 0.941,-0.3164 0.426,-0.1485 0.941,-0.2851 0.383,-0.1485 1.035,-0.3203 c 1.664,-0.4765 3.41,-0.8984 5.199,-1.2265 l 0.254,-0.0625 1.071,-0.2032 0.433,-0.0508 1.028,-0.1093 0.382,-0.1055 0.953,-0.1016 c 2.372,-0.289 4.786,-0.4375 7.168,-0.4375 h 93.051 l -0.054,66.9688 c 0,3.3242 2.066,5.5898 5.382,5.5898 h 70.227 c 3.273,0 5.453,-2.2656 5.453,-5.6132 L 749.242,5.58984 C 749.242,2.19141 747.125,0 743.84,0 h -10.766"
         style="fill:#1d78c7;fill-opacity:1;fill-rule:nonzero;stroke:none"
         id="path16" /><path
         d="m 337.156,166.316 h 70.227 c 3.305,0 5.476,-2.203 5.422,-5.515 L 413.039,5.58984 C 413.039,2.19141 410.855,0 407.605,0 h -70.218 c -3.305,0 -5.465,2.19141 -5.422,5.58984 L 331.754,160.801 c 0,3.312 2.16,5.515 5.402,5.515"
         style="fill:#1d78c7;fill-opacity:1;fill-rule:nonzero;stroke:none"
         id="path18" /><path
         d="M 81.3711,20.7734 H 171.57 c 2.309,0 4.535,0.1485 6.801,0.3711 6.586,0.7852 12.973,2.6485 18.774,5.4102 3.742,1.7578 7.222,3.9101 10.496,6.375 l 0.086,0.0859 0.867,0.7188 0.254,0.1289 0.793,0.6875 0.308,0.2226 0.719,0.6563 0.34,0.2969 0.742,0.625 0.316,0.2968 0.711,0.7071 0.286,0.2851 0.718,0.6407 0.309,0.3359 0.687,0.6445 0.297,0.4024 0.668,0.6797 0.317,0.3164 0.656,0.75 0.285,0.2695 0.648,0.793 0.125,0.1875 c 0.743,0.8789 1.485,1.7382 2.079,2.6679 l 0.336,0.4453 0.464,0.5625 0.414,0.5938 0.457,0.6016 0.379,0.625 0.332,0.6054 0.43,0.5391 0.34,0.6445 0.363,0.6055 0.399,0.5937 0.363,0.6993 0.336,0.5937 0.32,0.6758 0.36,0.582 0.371,0.668 0.265,0.6367 0.391,0.6758 0.328,0.6367 0.254,0.668 0.309,0.6445 0.304,0.8281 0.223,0.5469 0.359,0.8398 0.192,0.5586 0.453,0.9532 0.031,0.4062 0.531,1.3828 0.16,0.3946 0.305,1.0078 0.141,0.539 0.246,0.8789 0.168,0.5782 0.23,0.8711 0.149,0.6015 0.16,0.8711 0.125,0.6563 0.191,0.7851 0.141,0.6641 0.144,0.7539 0.118,0.6875 0.129,0.8555 0.125,0.6718 0.117,0.8243 0.05,0.664 0.047,0.8711 0.102,0.6367 0.109,0.8985 0.051,0.625 0.063,1.0156 0.054,0.5391 0.032,1.039 0.042,0.5078 -0.074,1.5782 0.055,1.5546 -0.055,0.5 -0.054,1.0274 v 0.5625 l -0.063,0.9726 -0.051,0.6797 -0.074,0.8672 -0.137,0.6563 -0.054,0.8359 -0.075,0.7422 -0.085,0.7812 -0.149,0.6875 -0.105,0.8477 -0.137,0.6914 -0.192,0.8047 -0.167,0.6133 -0.098,0.8672 -0.156,0.625 -0.149,0.8906 -0.148,0.5273 -0.254,0.8907 -0.153,0.5937 -0.253,0.941 -0.106,0.465 -0.371,1.016 -0.145,0.383 -0.48,1.41 -0.156,0.316 -0.371,1.039 -0.223,0.539 -0.367,0.86 -0.141,0.433 -0.383,0.879 -0.23,0.571 -0.414,0.804 -0.235,0.582 -0.371,0.731 -0.293,0.613 -0.351,0.691 -0.348,0.551 -0.359,0.739 -0.32,0.5 -0.442,0.742 -0.269,0.539 -0.391,0.648 -0.371,0.571 -0.442,0.71 -0.328,0.485 -0.55,0.773 -0.286,0.434 -0.562,0.773 -0.234,0.403 -0.583,0.687 -0.39,0.586 -0.848,1.004 -0.328,0.434 -0.531,0.691 -0.613,0.621 -0.274,0.402 -0.637,0.657 -0.359,0.425 -0.477,0.528 -0.531,0.551 -0.453,0.425 -0.594,0.571 -0.507,0.531 -0.458,0.453 -0.488,0.434 -0.582,0.574 -0.527,0.41 -0.625,0.52 -0.434,0.425 -0.562,0.465 -0.668,0.434 -0.453,0.422 -0.606,0.449 -0.558,0.453 -0.618,0.434 -0.718,0.5 -0.328,0.324 -0.668,0.402 -1.43,0.902 -0.328,0.2 -0.688,0.488 -0.488,0.254 -0.773,0.422 -0.571,0.308 -0.707,0.403 -0.457,0.297 -0.805,0.402 -0.5,0.234 -0.718,0.336 -1.282,0.66 -0.562,0.243 -0.731,0.285 -0.656,0.265 -0.636,0.297 -0.645,0.242 -0.762,0.266 -0.508,0.203 -0.859,0.293 -0.551,0.184 -0.785,0.293 -0.422,0.097 -0.996,0.297 -0.199,0.106 c -1.344,0.328 -2.617,0.679 -3.973,0.965 l -1.054,0.199 -0.321,0.011 -1.047,0.254 -0.371,0.043 -1.007,0.137 -0.446,0.063 -1.035,0.128 c -2.258,0.254 -4.512,0.422 -6.855,0.422 H 81.2109 L 81.3945,20.7188 Z M 75.5586,0 H 5.69922 C 2.44922,0 0.234375,2.21094 0.203125,5.58984 L 0,160.766 c 0,3.347 2.20703,5.55 5.55078,5.55 H 232.227 c 44.785,0 81.171,-37.234 81.234,-83.1597 C 313.523,37.2188 277.246,0 232.41,0 H 75.5586"
         style="fill:#1d78c7;fill-opacity:1;fill-rule:nonzero;stroke:none"
         id="path20" /></g></g></svg>
