<?xml version="1.0" encoding="UTF-8"?>
<svg width="300px" height="277px" viewBox="0 0 300 277" version="1.1" xmlns="http://www.w3.org/2000/svg" xmlns:xlink="http://www.w3.org/1999/xlink">
    <title>iram-logo-full-black</title>
    <defs>
        <polygon id="path-1" points="0 0 21.2933224 0 21.2933224 21.2935659 0 21.2935659"></polygon>
        <polygon id="path-3" points="7.50788715e-15 276.936477 300 276.936477 300 0 7.50788715e-15 0"></polygon>
    </defs>
    <g id="Symbols" stroke="none" stroke-width="1" fill="none" fill-rule="evenodd">
        <g id="iram-logo-full-black" transform="translate(0.000000, 0.000000)">
            <polygon id="Fill-1" fill="#000000" points="5.58366215 198.375105 15.2574661 198.375105 15.2574661 145.168019 5.58366215 145.168019"></polygon>
            <g id="Group-52">
                <path d="M28.0231387,161.767696 C28.0231387,155.501832 27.913072,150.116078 27.5830836,145.167945 L36.0466831,145.167945 L36.4867382,155.611898 L36.8168324,155.611898 C39.2347013,148.465924 45.1729052,143.957847 51.6563626,143.957847 C52.6464337,143.957847 53.416583,144.070347 54.2965874,144.290375 L54.2965874,153.30653 C53.1965555,153.19403 52.2063786,153.084069 50.8886474,153.084069 C44.0727675,153.084069 39.2347013,158.249795 37.914536,165.395663 C37.6969427,166.823355 37.586876,168.363548 37.586876,170.013808 L37.586876,198.375031 L27.913072,198.375031 L28.0231387,161.767696 Z" id="Fill-2" fill="#000000"></path>
                <path d="M94.5366316,166.826086 C94.5366316,165.50592 94.4265649,163.968162 94.0990106,162.647996 C92.6688845,156.602266 87.3930916,151.546501 80.1371565,151.546501 C70.13093,151.546501 64.1950544,160.342734 64.1950544,171.994246 C64.1950544,182.875715 69.5832423,191.779475 79.9146948,191.779475 C86.4030205,191.779475 92.3387902,187.383792 94.0990106,180.237818 C94.4265649,178.917759 94.5366316,177.597593 94.5366316,176.059835 L94.5366316,166.826086 Z M104.210436,144.972661 L104.210436,184.635935 C104.210436,189.361606 104.320396,194.749794 104.650491,198.377762 L95.9667577,198.377762 L95.5267026,189.141579 L95.3066751,189.141579 C92.3387902,195.079782 85.9629654,199.585426 77.2767983,199.585426 C64.4175161,199.585426 54.4137238,188.703958 54.4137238,172.541828 C54.3037629,154.734413 65.4052589,143.960577 78.2669752,143.960577 C86.5105472,143.960577 92.0088018,147.808572 94.3190382,151.986556 L94.5366316,151.986556 L94.5366316,144.972661 L104.210436,144.972661 Z" id="Fill-4" fill="#000000"></path>
                <path d="M115.171131,159.570362 C115.171131,153.964581 114.951103,149.569004 114.731076,145.168453 L123.194675,145.168453 L123.63473,153.744554 L123.964825,153.744554 C126.932709,148.688894 131.880842,143.960789 140.784497,143.960789 C147.928037,143.960789 153.423751,148.3588 155.734094,154.624664 L155.954121,154.624664 C157.601841,151.546818 159.799682,149.346543 161.999958,147.698823 C165.185436,145.280954 168.59581,143.960789 173.65147,143.960789 C180.79501,143.960789 191.241291,148.576393 191.241291,167.043891 L191.241291,198.377973 L181.785081,198.377973 L181.785081,168.256529 C181.785081,157.922643 177.93952,151.874372 170.24353,151.874372 C164.637748,151.874372 160.457331,155.944829 158.701979,160.560539 C158.261923,161.990665 157.931829,163.750886 157.931829,165.396171 L157.931829,198.377973 L148.478053,198.377973 L148.478053,166.496309 C148.478053,157.922643 144.740124,151.874372 137.374123,151.874372 C131.440787,151.874372 126.932709,156.712438 125.394951,161.55061 C124.844935,162.978302 124.624907,164.626022 124.624907,166.276282 L124.624907,198.377973 L115.171131,198.377973 L115.171131,159.570362 Z" id="Fill-6" fill="#000000"></path>
                <g id="Group-10" transform="translate(0.000000, 113.302410)">
                    <mask id="mask-2" fill="white">
                        <use xlink:href="#path-1"></use>
                    </mask>
                    <g id="Clip-9"></g>
                    <path d="M21.2933224,10.6444017 C21.2933224,16.5239739 16.5260588,21.2935659 10.6464866,21.2935659 C4.76691438,21.2935659 -0.000349250082,16.5239739 -0.000349250082,10.6468358 C-0.000349250082,4.76726363 4.76448021,0 10.6464866,0 C16.5260588,0 21.2933224,4.76726363 21.2933224,10.6444017 Z" id="Fill-8" fill="#ED2626" mask="url(#mask-2)"></path>
                </g>
                <path d="M24.9882402,105.740606 C24.3892233,106.334649 24.6459751,107.559458 25.5578353,108.46899 C26.4746697,109.375982 27.6994791,109.635062 28.2983901,109.036151 L28.3008243,109.033611 C97.2886164,40.3563339 183.431149,27.0448257 228.145214,71.5560079 C272.859279,116.069624 258.939017,202.204749 189.943922,270.882026 C189.34988,271.47374 189.60896,272.693575 190.515952,273.603107 C191.43522,274.519836 192.65749,274.769179 193.256507,274.175137 C236.767775,230.854474 269.585853,181.114065 284.699174,134.845097 C300.000667,88.0162701 295.822683,49.6878727 272.954635,26.9225882 C250.079283,4.14989531 211.579753,0.0011218336 164.540741,15.2293779 C118.066456,30.2767648 68.5019429,62.4224832 24.9906743,105.740606 L24.9882402,105.740606 Z" id="Fill-11" fill="#2679C2"></path>
                <mask id="mask-4" fill="white">
                    <use xlink:href="#path-3"></use>
                </mask>
                <g id="Clip-14"></g>
                <polygon id="Fill-13" fill="#000000" mask="url(#mask-4)" points="5.4908463 230.134532 7.36346174 230.134532 7.36346174 215.783952 5.4908463 215.783952"></polygon>
                <path d="M10.1098691,222.618469 C10.1098691,221.533042 10.0878558,220.682248 10.02425,219.829019 L11.6842462,219.829019 L11.7918787,221.511029 L11.8333654,221.511029 C12.3443288,220.552708 13.5373883,219.596821 15.2413053,219.596821 C16.6691032,219.596821 18.8815495,220.447509 18.8815495,223.980227 L18.8815495,230.13359 L17.0089341,230.13359 L17.0089341,224.19528 C17.0089341,222.532956 16.3903381,221.127171 14.6228152,221.127171 C13.4102824,221.127171 12.4519614,222.002413 12.1121304,223.043813 C12.0265113,223.278552 11.9824846,223.620817 11.9824846,223.916621 L11.9824846,230.13359 L10.1098691,230.13359 L10.1098691,222.618469 Z" id="Fill-15" fill="#000000" mask="url(#mask-4)"></path>
                <path d="M21.2460996,228.239649 C21.8205631,228.57948 22.8008975,228.963338 23.737311,228.963338 C25.0793838,228.963338 25.7174532,228.303255 25.7174532,227.430447 C25.7174532,226.535626 25.1845822,226.046676 23.8228244,225.535818 C21.9477748,224.853722 21.0749671,223.853809 21.0749671,222.619263 C21.0749671,220.959267 22.439159,219.595075 24.6320262,219.595075 C25.6759665,219.595075 26.5902609,219.8713 27.1428168,220.233144 L26.6978934,221.575322 C26.2920225,221.340584 25.5464264,220.978846 24.5879996,220.978846 C23.4805593,220.978846 22.8865167,221.619349 22.8865167,222.384524 C22.8865167,223.257332 23.4805593,223.641084 24.8227379,224.152047 C26.5902609,224.81213 27.5265686,225.706951 27.5265686,227.259315 C27.5265686,229.090443 26.1013107,230.369016 23.6932843,230.369016 C22.5662649,230.369016 21.5223247,230.070778 20.798742,229.645328 L21.2460996,228.239649 Z" id="Fill-16" fill="#000000" mask="url(#mask-4)"></path>
                <path d="M31.7643056,217.36035 L31.7643056,219.829548 L34.4461229,219.829548 L34.4461229,221.254806 L31.7643056,221.254806 L31.7643056,226.814127 C31.7643056,228.090265 32.1261498,228.813954 33.1699842,228.813954 C33.6809477,228.813954 33.9791861,228.772361 34.255517,228.686742 L34.3410304,230.112106 C33.9791861,230.241646 33.4047226,230.368752 32.6810341,230.368752 C31.8083323,230.368752 31.1042229,230.070513 30.6568653,229.581563 C30.1459019,229.006994 29.9331768,228.090265 29.9331768,226.877732 L29.9331768,221.254806 L28.3367864,221.254806 L28.3367864,219.829548 L29.9331768,219.829548 L29.9331768,217.934814 L31.7643056,217.36035 Z" id="Fill-17" fill="#000000" mask="url(#mask-4)"></path>
                <path d="M36.130556,230.134638 L38.0031715,230.134638 L38.0031715,219.830067 L36.130556,219.830067 L36.130556,230.134638 Z M37.0229429,217.935332 C36.3212677,217.935332 35.8518968,217.380448 35.8518968,216.720365 C35.8518968,216.060283 36.3432811,215.52974 37.0669696,215.52974 C37.7905523,215.52974 38.2599232,216.060283 38.2599232,216.720365 C38.2599232,217.380448 37.7905523,217.935332 37.0449562,217.935332 L37.0229429,217.935332 Z" id="Fill-18" fill="#000000" mask="url(#mask-4)"></path>
                <path d="M42.9428271,217.36035 L42.9428271,219.829548 L45.6246444,219.829548 L45.6246444,221.254806 L42.9428271,221.254806 L42.9428271,226.814127 C42.9428271,228.090265 43.3046713,228.813954 44.3485057,228.813954 C44.8594692,228.813954 45.1577076,228.772361 45.4340385,228.686742 L45.5195518,230.112106 C45.1577076,230.241646 44.5832441,230.368752 43.8595556,230.368752 C42.9868537,230.368752 42.2827444,230.070513 41.8353868,229.581563 C41.3244233,229.006994 41.1116983,228.090265 41.1116983,226.877732 L41.1116983,221.254806 L39.5153079,221.254806 L39.5153079,219.829548 L41.1116983,219.829548 L41.1116983,217.934814 L42.9428271,217.36035 Z" id="Fill-19" fill="#000000" mask="url(#mask-4)"></path>
                <path d="M55.9306968,227.324339 C55.9306968,228.387752 55.9527101,229.3266 56.0162101,230.135802 L54.3538856,230.135802 L54.2486872,228.453792 L54.2072005,228.453792 C53.7377238,229.282573 52.6302835,230.368 50.7991547,230.368 C49.180751,230.368 47.2445297,229.453706 47.2445297,225.855054 L47.2445297,219.831231 L49.117251,219.831231 L49.117251,225.515223 C49.117251,227.473458 49.7357412,228.815637 51.4177507,228.815637 C52.6743102,228.815637 53.5471179,227.940395 53.8869488,227.0896 C53.9920413,226.835389 54.0579755,226.493123 54.0579755,226.131279 L54.0579755,219.831231 L55.9306968,219.831231 L55.9306968,227.324339 Z" id="Fill-20" fill="#000000" mask="url(#mask-4)"></path>
                <path d="M60.8712414,217.36035 L60.8712414,219.829548 L63.5530587,219.829548 L63.5530587,221.254806 L60.8712414,221.254806 L60.8712414,226.814127 C60.8712414,228.090265 61.2330856,228.813954 62.27692,228.813954 C62.7878835,228.813954 63.0861219,228.772361 63.3624528,228.686742 L63.4479661,230.112106 C63.0861219,230.241646 62.5116584,230.368752 61.7879699,230.368752 C60.915268,230.368752 60.2111587,230.070513 59.7638011,229.581563 C59.2528377,229.006994 59.0401126,228.090265 59.0401126,226.877732 L59.0401126,221.254806 L57.4437222,221.254806 L57.4437222,219.829548 L59.0401126,219.829548 L59.0401126,217.934814 L60.8712414,217.36035 Z" id="Fill-21" fill="#000000" mask="url(#mask-4)"></path>
                <path d="M76.3500579,224.024201 C76.3500579,223.767555 76.3280446,223.46921 76.2644388,223.214999 C75.9882137,222.043953 74.9662868,221.063618 73.5606081,221.063618 C71.6243868,221.063618 70.4753541,222.767641 70.4753541,225.024114 C70.4753541,227.131468 71.5168601,228.857398 73.5190156,228.857398 C74.7756809,228.857398 75.9247137,228.00671 76.2644388,226.620505 C76.3280446,226.366293 76.3500579,226.109541 76.3500579,225.811303 L76.3500579,224.024201 Z M78.2226734,215.017782 L78.2226734,227.473733 C78.2226734,228.388027 78.2446867,229.431968 78.3082926,230.133537 L76.626283,230.133537 L76.5432038,228.346435 L76.4991771,228.346435 C75.9247137,229.495468 74.6900617,230.368275 73.0080522,230.368275 C70.5169466,230.368275 68.5782911,228.260922 68.5782911,225.131641 C68.5587119,221.682108 70.7076583,219.594334 73.1987639,219.594334 C74.7951542,219.594334 75.8611078,220.340036 76.3084654,221.149237 L76.3500579,221.149237 L76.3500579,215.017782 L78.2226734,215.017782 Z" id="Fill-22" fill="#000000" mask="url(#mask-4)"></path>
                <path d="M87.4439868,223.96014 C87.4660002,222.789094 86.9550367,220.916478 84.867262,220.916478 C82.9505141,220.916478 82.1413122,222.661988 81.992193,223.96014 L87.4439868,223.96014 Z M81.9726139,225.302318 C82.0142064,227.835016 83.6105967,228.878957 85.4857522,228.878957 C86.8254967,228.878957 87.6567119,228.644218 88.338702,228.367993 L88.6785329,229.685724 C88.0184503,229.983963 86.8695233,230.348241 85.2290005,230.348241 C82.0778122,230.348241 80.1636043,228.240887 80.1636043,225.153199 C80.1636043,222.023918 82.0142064,219.574299 85.0163812,219.574299 C88.3802945,219.574299 89.2531022,222.532448 89.2531022,224.427076 C89.2531022,224.810934 89.2310889,225.109172 89.1894964,225.321897 L81.9726139,225.302318 Z" id="Fill-23" fill="#000000" mask="url(#mask-4)"></path>
                <path d="M7.36321832,243.805482 L9.2578471,243.805482 C11.2380951,243.805482 12.4946545,242.720055 12.4946545,241.079638 C12.4946545,239.22893 11.1525817,238.419728 9.19434709,238.419728 C8.29952604,238.419728 7.68347006,238.502913 7.36321832,238.588426 L7.36321832,243.805482 Z M5.51007622,237.290274 C6.44892394,237.099563 7.81057593,236.970023 9.06724122,236.970023 C11.0473834,236.970023 12.3455353,237.35388 13.2403564,238.163082 C13.9420315,238.781572 14.3673758,239.759473 14.3673758,240.888926 C14.3673758,242.761542 13.1547372,244.018207 11.6635452,244.52917 L11.6635452,244.59267 C12.7489721,244.976528 13.4090547,245.998455 13.7733332,247.489647 C14.2402699,249.489474 14.5801009,250.873245 14.8563259,251.428129 L12.942118,251.428129 C12.7073796,251.022364 12.3871278,249.787712 12.0057044,247.998176 C11.577926,246.020362 10.7907375,245.274766 9.1087279,245.21116 L7.36321832,245.21116 L7.36321832,251.428129 L5.51007622,251.428129 L5.51007622,237.290274 Z" id="Fill-24" fill="#000000" mask="url(#mask-4)"></path>
                <path d="M22.1604363,246.168561 C20.1166883,246.126968 17.7966095,246.486378 17.7966095,248.48864 C17.7966095,249.723186 18.6058113,250.278176 19.542119,250.278176 C20.9038769,250.278176 21.7765787,249.424947 22.0748171,248.55214 C22.138423,248.361534 22.1604363,248.148809 22.1604363,247.955663 L22.1604363,246.168561 Z M23.9915651,248.958011 C23.9915651,249.852726 24.0330518,250.725534 24.1406843,251.427209 L22.4586747,251.427209 L22.2875422,250.129057 L22.2240422,250.129057 C21.6714862,250.938259 20.5420326,251.661841 19.0727481,251.661841 C16.9874076,251.661841 15.921454,250.192557 15.921454,248.701259 C15.921454,246.210153 18.1364404,244.848395 22.1188438,244.870409 L22.1188438,244.657684 C22.1188438,243.804561 21.8842113,242.252092 19.7768574,242.271671 C18.796523,242.271671 17.7966095,242.547896 17.0704868,243.03928 L16.6451425,241.782721 C17.498371,241.249744 18.7549305,240.8879 20.0530825,240.8879 C23.2238499,240.8879 23.9915651,243.03928 23.9915651,245.105147 L23.9915651,248.958011 Z" id="Fill-25" fill="#000000" mask="url(#mask-4)"></path>
                <path d="M33.5946723,245.317301 C33.5946723,245.060655 33.572659,244.762311 33.5090532,244.508099 C33.2328281,243.337053 32.2109012,242.356718 30.8052225,242.356718 C28.8690012,242.356718 27.7199685,244.060741 27.7199685,246.317214 C27.7199685,248.424568 28.7614745,250.150499 30.76363,250.150499 C32.0202953,250.150499 33.1693281,249.29981 33.5090532,247.913605 C33.572659,247.659393 33.5946723,247.402641 33.5946723,247.104403 L33.5946723,245.317301 Z M35.4672878,236.310882 L35.4672878,248.766833 C35.4672878,249.681128 35.4893011,250.725068 35.552907,251.426637 L33.8708974,251.426637 L33.7878182,249.639535 L33.7437916,249.639535 C33.1693281,250.788568 31.9346761,251.661376 30.2527724,251.661376 C27.761561,251.661376 25.8229055,249.554022 25.8229055,246.424741 C25.8033263,242.975209 27.9522727,240.887434 30.4433783,240.887434 C32.0398745,240.887434 33.1057222,241.633136 33.5530798,242.442338 L33.5946723,242.442338 L33.5946723,236.310882 L35.4672878,236.310882 Z" id="Fill-26" fill="#000000" mask="url(#mask-4)"></path>
                <path d="M38.1523965,251.428204 L40.025012,251.428204 L40.025012,241.123633 L38.1523965,241.123633 L38.1523965,251.428204 Z M39.0471117,239.228898 C38.3431082,239.228898 37.8761714,238.674014 37.8761714,238.013931 C37.8761714,237.353849 38.3651216,236.820872 39.0887042,236.820872 C39.8123927,236.820872 40.2817637,237.353849 40.2817637,238.013931 C40.2817637,238.674014 39.8123927,239.228898 39.0666909,239.228898 L39.0471117,239.228898 Z" id="Fill-27" fill="#000000" mask="url(#mask-4)"></path>
                <path d="M46.9666008,250.256639 C48.756137,250.256639 50.0958815,248.574629 50.0958815,246.232643 C50.0958815,244.487133 49.2230738,242.29416 47.0081933,242.29416 C44.8152202,242.29416 43.8593334,244.337908 43.8593334,246.296143 C43.8593334,248.552616 45.135472,250.256639 46.9445874,250.256639 L46.9666008,250.256639 Z M46.9029949,251.662318 C44.1355584,251.662318 41.9622704,249.61857 41.9622704,246.359749 C41.9622704,242.91265 44.2407568,240.888482 47.0741274,240.888482 C50.0322756,240.888482 52.034537,243.039756 52.034537,246.169037 C52.034537,249.999993 49.372193,251.662318 46.9250082,251.662318 L46.9029949,251.662318 Z" id="Fill-28" fill="#000000" mask="url(#mask-4)"></path>
                <path d="M59.40147,246.168561 C57.357722,246.126968 55.0376432,246.486378 55.0376432,248.48864 C55.0376432,249.723186 55.846845,250.278176 56.7831527,250.278176 C58.1449106,250.278176 59.0176124,249.424947 59.3158508,248.55214 C59.3794567,248.361534 59.40147,248.148809 59.40147,247.955663 L59.40147,246.168561 Z M61.2325988,248.958011 C61.2325988,249.852726 61.2740855,250.725534 61.381718,251.427209 L59.6997084,251.427209 L59.5285759,250.129057 L59.4650759,250.129057 C58.9125199,250.938259 57.7830663,251.661841 56.3137818,251.661841 C54.2284413,251.661841 53.1624877,250.192557 53.1624877,248.701259 C53.1624877,246.210153 55.3774741,244.848395 59.3598775,244.870409 L59.3598775,244.657684 C59.3598775,243.804561 59.125245,242.252092 57.0178911,242.271671 C56.0375567,242.271671 55.0376432,242.547896 54.3115205,243.03928 L53.8861762,241.782721 C54.7394048,241.249744 55.9959642,240.8879 57.2941162,240.8879 C60.4648836,240.8879 61.2325988,243.03928 61.2325988,245.105147 L61.2325988,248.958011 Z" id="Fill-29" fill="#000000" mask="url(#mask-4)"></path>
                <path d="M63.5538524,249.532749 C64.1283159,249.87258 65.1086503,250.256438 66.0450638,250.256438 C67.3871367,250.256438 68.0253118,249.596355 68.0253118,248.723547 C68.0253118,247.828726 67.492335,247.339776 66.1305772,246.828919 C64.2555276,246.146823 63.3827199,245.146909 63.3827199,243.912363 C63.3827199,242.252367 64.7469119,240.888175 66.9397791,240.888175 C67.9837193,240.888175 68.8980137,241.1644 69.4505696,241.526244 L69.0056462,242.868423 C68.5997753,242.633684 67.8541793,242.271946 66.8957524,242.271946 C65.7883121,242.271946 65.1942695,242.912449 65.1942695,243.677625 C65.1942695,244.550432 65.7883121,244.934184 67.1304908,245.445147 C68.8980137,246.10523 69.8343214,247.000051 69.8343214,248.552415 C69.8343214,250.383544 68.4090636,251.662116 66.0010372,251.662116 C64.8740177,251.662116 63.8300775,251.363878 63.1064948,250.938428 L63.5538524,249.532749 Z" id="Fill-30" fill="#000000" mask="url(#mask-4)"></path>
                <path d="M74.0723018,238.653218 L74.0723018,241.122416 L76.7541191,241.122416 L76.7541191,242.547674 L74.0723018,242.547674 L74.0723018,248.106994 C74.0723018,249.383133 74.4341461,250.106821 75.4779805,250.106821 C75.9889439,250.106821 76.2871823,250.065229 76.5635132,249.979609 L76.6490266,251.404973 C76.2871823,251.534513 75.7127189,251.661619 74.9890304,251.661619 C74.1163285,251.661619 73.4122192,251.363381 72.9648616,250.87443 C72.4538981,250.299861 72.2411731,249.383133 72.2411731,248.1706 L72.2411731,242.547674 L70.6447827,242.547674 L70.6447827,241.122416 L72.2411731,241.122416 L72.2411731,239.227681 L74.0723018,238.653218 Z" id="Fill-31" fill="#000000" mask="url(#mask-4)"></path>
                <path d="M78.4586289,244.33794 C78.4586289,243.125407 78.4366155,242.081467 78.3730097,241.123146 L80.0134267,241.123146 L80.0990459,243.144881 L80.1626518,243.144881 C80.6294827,241.761215 81.7810555,240.888408 83.0351808,240.888408 C83.2283267,240.888408 83.3774459,240.910421 83.5485784,240.952013 L83.5485784,242.697523 C83.3334192,242.677944 83.1427075,242.65593 82.8884957,242.65593 C81.5658963,242.65593 80.6294827,243.655844 80.375271,245.039615 C80.3312443,245.318274 80.311771,245.614079 80.311771,245.93433 L80.311771,251.427611 L78.4366155,251.427611 L78.4586289,244.33794 Z" id="Fill-32" fill="#000000" mask="url(#mask-4)"></path>
                <path d="M89.1073909,250.256639 C90.8969271,250.256639 92.2366716,248.574629 92.2366716,246.232643 C92.2366716,244.487133 91.3638639,242.29416 89.1489834,242.29416 C86.9560104,242.29416 86.0001235,244.337908 86.0001235,246.296143 C86.0001235,248.552616 87.2762621,250.256639 89.0853775,250.256639 L89.1073909,250.256639 Z M89.043785,251.662318 C86.2763485,251.662318 84.1030605,249.61857 84.1030605,246.359749 C84.1030605,242.91265 86.3815469,240.888482 89.2149176,240.888482 C92.1730658,240.888482 94.1753271,243.039756 94.1753271,246.169037 C94.1753271,249.999993 91.5129831,251.662318 89.0657984,251.662318 L89.043785,251.662318 Z" id="Fill-33" fill="#000000" mask="url(#mask-4)"></path>
                <path d="M96.1132523,243.91158 C96.1132523,242.826153 96.0912389,241.975358 96.0276331,241.12213 L97.6876293,241.12213 L97.7952618,242.804139 L97.8367485,242.804139 C98.347712,241.845818 99.5407714,240.889932 101.244688,240.889932 C102.672486,240.889932 104.884933,241.74062 104.884933,245.273338 L104.884933,251.426701 L103.012317,251.426701 L103.012317,245.488391 C103.012317,243.826066 102.393721,242.420282 100.626198,242.420282 C99.4136656,242.420282 98.4552387,243.295524 98.1155136,244.336924 C98.0298944,244.571662 97.9858677,244.913927 97.9858677,245.209732 L97.9858677,251.426701 L96.1132523,251.426701 L96.1132523,243.91158 Z" id="Fill-34" fill="#000000" mask="url(#mask-4)"></path>
                <path d="M111.762693,250.256639 C113.55223,250.256639 114.891974,248.574629 114.891974,246.232643 C114.891974,244.487133 114.019166,242.29416 111.804286,242.29416 C109.611313,242.29416 108.655426,244.337908 108.655426,246.296143 C108.655426,248.552616 109.931565,250.256639 111.74068,250.256639 L111.762693,250.256639 Z M111.699088,251.662318 C108.931651,251.662318 106.758363,249.61857 106.758363,246.359749 C106.758363,242.91265 109.036849,240.888482 111.87022,240.888482 C114.828368,240.888482 116.83063,243.039756 116.83063,246.169037 C116.83063,249.999993 114.168286,251.662318 111.721101,251.662318 L111.699088,251.662318 Z" id="Fill-35" fill="#000000" mask="url(#mask-4)"></path>
                <path d="M118.768555,243.91158 C118.768555,242.826153 118.726962,241.975358 118.682936,241.12213 L120.323353,241.12213 L120.408972,242.78456 L120.472472,242.78456 C121.047041,241.804226 122.005362,240.889932 123.728858,240.889932 C125.11263,240.889932 126.178477,241.74062 126.625941,242.953259 L126.667427,242.953259 C126.987679,242.356782 127.413129,241.931332 127.838474,241.613514 C128.456964,241.144143 129.117046,240.889932 130.094947,240.889932 C131.478718,240.889932 133.502887,241.782213 133.502887,245.358851 L133.502887,251.426701 L131.671864,251.426701 L131.671864,245.593589 C131.671864,243.593762 130.926162,242.420282 129.434864,242.420282 C128.349437,242.420282 127.540235,243.209905 127.200404,244.104726 C127.114891,244.380951 127.051285,244.720782 127.051285,245.041033 L127.051285,251.426701 L125.220156,251.426701 L125.220156,245.253758 C125.220156,243.593762 124.496574,242.420282 123.068776,242.420282 C121.919743,242.420282 121.047041,243.35913 120.748803,244.295437 C120.64117,244.571662 120.599684,244.891914 120.599684,245.209732 L120.599684,251.426701 L118.768555,251.426701 L118.768555,243.91158 Z" id="Fill-36" fill="#000000" mask="url(#mask-4)"></path>
                <path d="M136.100429,251.428204 L137.973044,251.428204 L137.973044,241.123633 L136.100429,241.123633 L136.100429,251.428204 Z M136.99525,239.228898 C136.293575,239.228898 135.824204,238.674014 135.824204,238.013931 C135.824204,237.353849 136.313154,236.820872 137.036842,236.820872 C137.760425,236.820872 138.229796,237.353849 138.229796,238.013931 C138.229796,238.674014 137.760425,239.228898 137.014829,239.228898 L136.99525,239.228898 Z" id="Fill-37" fill="#000000" mask="url(#mask-4)"></path>
                <path d="M147.193416,245.25325 C147.215429,244.082204 146.704466,242.209589 144.616691,242.209589 C142.699943,242.209589 141.890741,243.955098 141.741622,245.25325 L147.193416,245.25325 Z M141.722043,246.595429 C141.763635,249.128127 143.360132,250.172067 145.235181,250.172067 C146.57736,250.172067 147.406141,249.937329 148.088131,249.661104 L148.427962,250.981269 C147.767879,251.277073 146.618952,251.641352 144.978429,251.641352 C141.827241,251.641352 139.913033,249.533998 139.913033,246.44631 C139.913033,243.317029 141.763635,240.86741 144.76581,240.86741 C148.129723,240.86741 149.002531,243.825558 149.002531,245.720187 C149.002531,246.104045 148.982952,246.402283 148.938925,246.615008 L141.722043,246.595429 Z" id="Fill-38" fill="#000000" mask="url(#mask-4)"></path>
                <path d="M17.6044267,266.41825 C17.4969,264.418423 17.3696883,261.990817 17.3696883,260.223294 L17.3282016,260.223294 C16.8172381,261.883291 16.2426688,263.692406 15.516652,265.672654 L12.9838481,272.635219 L11.5781694,272.635219 L9.23607718,265.802194 C8.55652119,263.755906 8.00153106,261.927317 7.59809429,260.223294 L7.55417345,260.223294 C7.51258094,262.010396 7.40505425,264.396409 7.27784255,266.567369 L6.89409079,272.720732 L5.12656788,272.720732 L6.12891561,258.370152 L8.49291534,258.370152 L10.9401001,265.31081 C11.5365769,267.078333 12.0035137,268.655144 12.3873713,270.144007 L12.4313979,270.144007 C12.8127155,268.696736 13.323679,267.122359 13.9641825,265.31081 L16.5189997,258.370152 L18.8805653,258.370152 L19.7753863,272.720732 L17.9442576,272.720732 L17.6044267,266.41825 Z" id="Fill-39" fill="#000000" mask="url(#mask-4)"></path>
                <path d="M22.4156111,272.719335 L24.2882266,272.719335 L24.2882266,262.414764 L22.4156111,262.414764 L22.4156111,272.719335 Z M23.3104322,260.520136 C22.6063228,260.520136 22.1393861,259.96758 22.1393861,259.307497 C22.1393861,258.647414 22.6283362,258.114438 23.3520247,258.114438 C24.0756074,258.114438 24.5449783,258.647414 24.5449783,259.307497 C24.5449783,259.96758 24.0756074,260.520136 23.3300113,260.520136 L23.3104322,260.520136 Z" id="Fill-40" fill="#000000" mask="url(#mask-4)"></path>
                <polygon id="Fill-41" fill="#000000" mask="url(#mask-4)" points="26.9725839 272.719335 28.8451993 272.719335 28.8451993 257.60358 26.9725839 257.60358"></polygon>
                <polygon id="Fill-42" fill="#000000" mask="url(#mask-4)" points="31.5295566 272.719335 33.4021721 272.719335 33.4021721 257.60358 31.5295566 257.60358"></polygon>
                <path d="M36.0840952,272.719335 L37.9567106,272.719335 L37.9567106,262.414764 L36.0840952,262.414764 L36.0840952,272.719335 Z M36.9789162,260.520136 C36.2772411,260.520136 35.8078701,259.96758 35.8078701,259.307497 C35.8078701,258.647414 36.2968202,258.114438 37.0229429,258.114438 C37.7465256,258.114438 38.2134624,258.647414 38.2134624,259.307497 C38.2134624,259.96758 37.7465256,260.520136 37.0009296,260.520136 L36.9789162,260.520136 Z" id="Fill-43" fill="#000000" mask="url(#mask-4)"></path>
                <path d="M40.6413537,265.20468 C40.6413537,264.119253 40.5997612,263.268459 40.5557345,262.41523 L42.1961515,262.41523 L42.2817707,264.077661 L42.3453766,264.077661 C42.9198401,263.097326 43.8781611,262.183032 45.6016574,262.183032 C46.9854285,262.183032 48.0512763,263.03372 48.4987397,264.246359 L48.5402264,264.246359 C48.8604781,263.649882 49.2859282,263.224432 49.7112725,262.906614 C50.3297626,262.437243 50.9898453,262.183032 51.9677455,262.183032 C53.3515167,262.183032 55.3756855,263.075313 55.3756855,266.651951 L55.3756855,272.719801 L53.5446626,272.719801 L53.5446626,266.88669 C53.5446626,264.886862 52.7989607,263.713382 51.3076629,263.713382 C50.2222359,263.713382 49.4130341,264.503005 49.0732032,265.397826 C48.9876898,265.674051 48.924084,266.013882 48.924084,266.334134 L48.924084,272.719801 L47.0929552,272.719801 L47.0929552,266.546859 C47.0929552,264.886862 46.3693725,263.713382 44.9416805,263.713382 C43.7926478,263.713382 42.9198401,264.652124 42.6216016,265.588538 C42.5139691,265.864763 42.4724824,266.185014 42.4724824,266.502832 L42.4724824,272.719801 L40.6413537,272.719801 L40.6413537,265.20468 Z" id="Fill-44" fill="#000000" mask="url(#mask-4)"></path>
                <path d="M64.9571287,258.114967 L62.3608247,261.158628 L61.0406594,261.158628 L62.9133807,258.114967 L64.9571287,258.114967 Z M64.5097711,266.546816 C64.5317844,265.37577 64.0208209,263.500721 61.9329405,263.500721 C60.0162983,263.500721 59.2070965,265.248664 59.0604114,266.546816 L64.5097711,266.546816 Z M59.0383981,267.886561 C59.0824248,270.421693 60.676381,271.465633 62.5515364,271.465633 C63.8937151,271.465633 64.7223903,271.230895 65.4044863,270.952236 L65.7443172,272.272401 C65.0842345,272.570639 63.9352018,272.934918 62.2947847,272.934918 C59.1435965,272.934918 57.2292827,270.82513 57.2292827,267.737442 C57.2292827,264.608161 59.0824248,262.160976 62.0821655,262.160976 C65.4460788,262.160976 66.3188865,265.119124 66.3188865,267.013753 C66.3188865,267.397611 66.2993073,267.695849 66.2552806,267.908574 L59.0383981,267.886561 Z" id="Fill-45" fill="#000000" mask="url(#mask-4)"></path>
                <path d="M70.4721896,259.946307 L70.4721896,262.415505 L73.1540069,262.415505 L73.1540069,263.840763 L70.4721896,263.840763 L70.4721896,269.400084 C70.4721896,270.676222 70.8340339,271.399911 71.8778683,271.399911 C72.3888318,271.399911 72.6870702,271.358318 72.9634011,271.272699 L73.0489144,272.698063 C72.6870702,272.827603 72.1126067,272.954709 71.3889182,272.954709 C70.5162163,272.954709 69.812107,272.65647 69.3647494,272.16752 C68.8537859,271.592951 68.6410609,270.676222 68.6410609,269.463689 L68.6410609,263.840763 L67.0446705,263.840763 L67.0446705,262.415505 L68.6410609,262.415505 L68.6410609,260.520771 L70.4721896,259.946307 Z" id="Fill-46" fill="#000000" mask="url(#mask-4)"></path>
                <path d="M74.8585273,265.630807 C74.8585273,264.418275 74.8365139,263.374334 74.7729081,262.416013 L76.4133251,262.416013 L76.4989443,264.437748 L76.5625502,264.437748 C77.0294869,263.054083 78.1809539,262.181275 79.4350792,262.181275 C79.6282251,262.181275 79.7773443,262.203288 79.9484768,262.244881 L79.9484768,263.99039 C79.7333176,263.970811 79.5426059,263.948798 79.2883941,263.948798 C77.9657947,263.948798 77.0294869,264.948711 76.7751694,266.332483 C76.7311427,266.611142 76.7116694,266.906946 76.7116694,267.227198 L76.7116694,272.720478 L74.8365139,272.720478 L74.8585273,265.630807 Z" id="Fill-47" fill="#000000" mask="url(#mask-4)"></path>
                <path d="M81.4583484,272.719335 L83.3309638,272.719335 L83.3309638,262.414764 L81.4583484,262.414764 L81.4583484,272.719335 Z M82.3506294,260.520136 C81.6489543,260.520136 81.1795833,259.96758 81.1795833,259.307497 C81.1795833,258.647414 81.6709676,258.114438 82.3946561,258.114438 C83.1182388,258.114438 83.5851756,258.647414 83.5851756,259.307497 C83.5851756,259.96758 83.1182388,260.520136 82.3726428,260.520136 L82.3506294,260.520136 Z" id="Fill-48" fill="#000000" mask="url(#mask-4)"></path>
                <path d="M93.0397246,266.588896 C93.0397246,266.312671 93.0177112,266.033905 92.9541054,265.801707 C92.655867,264.652674 91.6779667,263.67234 90.2722881,263.67234 C88.3336326,263.67234 87.1650207,265.310323 87.1650207,267.632836 C87.1650207,269.696163 88.1429209,271.463686 90.2086822,271.463686 C91.4213208,271.463686 92.4652611,270.720524 92.8906053,269.419938 C92.9761187,269.16562 93.0397246,268.803776 93.0397246,268.525117 L93.0397246,266.588896 Z M93.0397246,271.145868 L92.998132,271.145868 C92.4432477,272.145782 91.294215,272.954984 89.6342187,272.954984 C87.2261923,272.954984 85.2679577,270.889222 85.2679577,267.737928 C85.2679577,263.885065 87.7590633,262.181042 89.9324572,262.181042 C91.5288475,262.181042 92.5923669,262.968231 93.1032246,263.970578 L93.1472512,263.970578 L93.2108571,262.41578 L94.9979592,262.41578 C94.9343533,263.266469 94.91234,264.16129 94.91234,265.246717 L94.91234,276.937387 L93.0397246,276.937387 L93.0397246,271.145868 Z" id="Fill-49" fill="#000000" mask="url(#mask-4)"></path>
                <path d="M106.198494,269.910306 C106.198494,270.97372 106.220507,271.912568 106.284007,272.721769 L104.624117,272.721769 L104.516484,271.03976 L104.474998,271.03976 C104.005521,271.868541 102.898081,272.953968 101.066952,272.953968 C99.4485482,272.953968 97.5123269,272.039673 97.5123269,268.441022 L97.5123269,262.417199 L99.3850482,262.417199 L99.3850482,268.101191 C99.3850482,270.059425 100.003538,271.401604 101.685548,271.401604 C102.942107,271.401604 103.814915,270.526362 104.15464,269.675568 C104.259839,269.421356 104.325773,269.079091 104.325773,268.717247 L104.325773,262.417199 L106.198494,262.417199 L106.198494,269.910306 Z" id="Fill-50" fill="#000000" mask="url(#mask-4)"></path>
                <path d="M115.418548,266.546351 C115.440561,265.375304 114.929598,263.502689 112.841823,263.502689 C110.925075,263.502689 110.115873,265.248199 109.966754,266.546351 L115.418548,266.546351 Z M109.947175,267.888529 C109.988768,270.421227 111.585158,271.465168 113.460313,271.465168 C114.800058,271.465168 115.631273,271.230429 116.313263,270.954204 L116.653094,272.274369 C115.993011,272.570174 114.844085,272.934452 113.203562,272.934452 C110.052373,272.934452 108.138165,270.827098 108.138165,267.73941 C108.138165,264.610129 109.988768,262.16051 112.990942,262.16051 C116.354856,262.16051 117.227663,265.118659 117.227663,267.013287 C117.227663,267.397145 117.20565,267.695383 117.164058,267.908108 L109.947175,267.888529 Z" id="Fill-51" fill="#000000" mask="url(#mask-4)"></path>
            </g>
        </g>
    </g>
</svg>