<svg width="180" height="82" viewBox="0 0 180 82" fill="none" xmlns="http://www.w3.org/2000/svg">
<path d="M11.3 0C9.2 0 7.5 1.7 7.5 3.8C7.5 5.9 9.2 7.6 11.3 7.6C13.4 7.6 15.1 5.9 15.1 3.8C15.1 1.7 13.4 0 11.3 0Z" fill="#25EE32"/>
<path d="M72 22.4H58.7C58.8 20.6 59.5 19 60.7 17.9C61.9 16.6 63.7 15.9 65.7 15.9C67.6 15.9 69.4 16.6 70.5 18C71.6 19.3 71.9 21 72 22.4ZM78.1 27.5V25.7C78.1 24.3 78.1 22.8 77.8 21.3C77.5 19.4 76.8 17.6 75.8 16.1C74.7 14.4 73.3 13.1 71.7 12.2C70.1 11.3 68.2 10.8 66.3 10.7C62.3 10.5 58.5 12.1 56.2 14.9C53.4 18.2 52.8 22.4 52.8 25.3C52.8 28.6 53.5 31.4 54.9 33.8C56.4 36.4 58.9 38.4 61.8 39.3C63.2 39.7 64.6 39.9 66 39.9C67.6 39.9 69.1 39.7 70.6 39.2C73.7 38.2 76.1 36.1 77.3 33.3L77.6 32.6L73 29.5L72.5 30.5C71.8 32 70.5 33.3 69 33.9C67.5 34.5 65.7 34.7 64 34.3C62.3 34 60.8 33 59.9 31.6C59.2 30.5 58.8 29.2 58.7 27.6H77.3L78.1 27.5Z" fill="black"/>
<path d="M0 16.9H9.4V39.1H15V11.4H0V16.9Z" fill="black"/>
<path d="M85.6 39.1H91.2V16.9H100.6V11.4H85.6V39.1Z" fill="black"/>
<path d="M171 11.4H170.4C170.2 11.4 170.3 11.4 169.8 11.4H169.5C167.2 11.4 165 11.9 163.2 12.8V11.3H157.6V39.1H163.2V20.8C163.2 19.8 163.5 18.9 164.2 18.2C164.4 18 164.6 17.8 164.9 17.6C165.9 16.9 167.3 16.5 168.9 16.5C172.5 16.5 174.3 18.6 174.3 22.8V39.1H179.9V22.1C180 15.9 176.6 11.8 171 11.4Z" fill="black"/>
<path d="M115.3 0H102.1V5.5H109.7V33.6H105.5V39.1H119.6V33.6H115.3V0Z" fill="black"/>
<path d="M141.4 33C141.2 33.2 141.1 33.3 140.9 33.5L140.7 33.6C139.9 34.1 138.8 34.5 137.6 34.7C137.2 34.7 136.8 34.8 136.4 34.8C135.9 34.8 135.4 34.8 135 34.8C133.3 34.6 131.4 33.9 131.4 31.5V30.4C131.4 29.6 131.4 27.2 137.6 27.2H142.4V30.7C142.4 31.5 142.1 32.2 141.5 32.8L141.4 33ZM148 20.4C148 14.5 143.9 10.8 137.2 10.8C131.3 10.8 127.8 13.8 126.5 16.5L126.2 17.1L130.1 20L130.5 19.3C131.9 16.9 133.9 15.8 136.8 15.8C140.4 15.8 142.3 17.5 142.3 20.8V22.6H137.5C129.5 22.6 125.5 25.4 125.5 31C125.5 36.3 129.3 39.7 135.3 39.7C135.4 39.7 135.4 39.7 135.6 39.7H135.8C135.9 39.7 136 39.7 136.1 39.7C138.7 39.7 141.1 39.1 143 37.9V39.1H151.6V33.6H148V20.4Z" fill="black"/>
<path d="M42.3 11.4L29.9 22.4V0H24.3V39.1H29.9V29.8L33.8 26.4L43.1 38.8L43.4 39.1H50.4L38 22.7L50.7 11.4H42.3Z" fill="black"/>
<path d="M9.5 52.7H10.7L12.8 56.1L14.8 52.7H16V59.9H14.9V54.7L12.8 58.1H12.7L10.6 54.7V59.9H9.5V52.7Z" fill="black"/>
<path d="M17.5 52.7H22.4V53.8H18.6V55.7H22V56.8H18.6V58.7H22.4V59.9H17.5V52.7Z" fill="black"/>
<path d="M23.5 52.7H24.8L26.8 56.1L28.8 52.7H30.1V59.9H28.9V54.7L26.8 58.1L24.7 54.7V59.9H23.5V52.7Z" fill="black"/>
<path d="M34.5 56.8H32.6V58.8H34.5C35.3 58.8 35.8 58.5 35.8 57.8C35.9 57.1 35.4 56.8 34.5 56.8ZM35.5 54.7C35.5 54.1 35.1 53.8 34.3 53.8H32.6V55.7H34.2C35 55.7 35.5 55.4 35.5 54.7ZM31.5 52.7H34.5C35.3 52.7 35.9 52.9 36.2 53.3C36.5 53.6 36.6 54 36.6 54.5C36.6 55.4 36.1 55.8 35.6 56.1C36.4 56.4 36.9 56.9 36.9 57.8C36.9 59.1 35.9 59.8 34.4 59.8H31.3V52.7H31.5Z" fill="black"/>
<path d="M38.1 52.7H43V53.8H39.3V55.7H42.6V56.8H39.3V58.7H43.1V59.9H38.1V52.7Z" fill="black"/>
<path d="M47.1 56.2C47.9 56.2 48.5 55.7 48.5 55C48.5 54.2 48 53.8 47.1 53.8H45.4V56.2H47.1ZM44.2 52.7H47.2C48 52.7 48.7 53 49.1 53.4C49.5 53.8 49.7 54.3 49.7 54.9C49.7 56.1 49 56.8 48.1 57.1L49.9 59.8H48.5L46.9 57.3H45.4V59.8H44.2V52.7Z" fill="black"/>
<path d="M58.8 56.3C58.8 54.9 57.9 53.7 56.5 53.7C55.1 53.7 54.3 54.8 54.3 56.2C54.3 57.6 55.2 58.7 56.6 58.7C57.8 58.8 58.8 57.7 58.8 56.3ZM53 56.3C53 54.3 54.4 52.6 56.5 52.6C58.5 52.6 60 54.3 60 56.3C60 58.3 58.6 60 56.5 60C54.5 60 53 58.3 53 56.3Z" fill="black"/>
<path d="M61.1 52.7H66.1V53.8H62.3V55.8H65.7V56.9H62.3V59.9H61.1V52.7Z" fill="black"/>
<path d="M72.6 56.8H70.7V58.8H72.6C73.4 58.8 73.9 58.5 73.9 57.8C74 57.1 73.6 56.8 72.6 56.8ZM73.6 54.7C73.6 54.1 73.2 53.8 72.4 53.8H70.7V55.7H72.3C73.1 55.7 73.6 55.4 73.6 54.7ZM69.6 52.7H72.6C73.4 52.7 74 52.9 74.3 53.3C74.6 53.6 74.7 54 74.7 54.5C74.7 55.4 74.2 55.8 73.7 56.1C74.5 56.4 75 56.9 75 57.8C75 59.1 74 59.8 72.5 59.8H69.4V52.7H69.6Z" fill="black"/>
<path d="M80.3 57L79.1 54.1L78 57H80.3ZM78.6 52.6H79.7L82.6 59.8H81.4L80.7 58.1H77.6L76.9 59.8H75.7L78.6 52.6Z" fill="black"/>
<path d="M82.9 58.8L83.6 57.9C84.2 58.5 84.9 58.8 85.7 58.8C86.4 58.8 86.9 58.4 86.9 57.9C86.9 57.4 86.6 57.1 85.4 56.8C84 56.4 83.2 56 83.2 54.7C83.2 53.5 84.2 52.6 85.5 52.6C86.5 52.6 87.2 52.9 87.9 53.5L87.3 54.5C86.7 54 86.1 53.8 85.5 53.8C84.8 53.8 84.4 54.2 84.4 54.6C84.4 55.2 84.7 55.4 86 55.7C87.4 56.1 88.1 56.6 88.1 57.8C88.1 59.1 87.1 59.9 85.7 59.9C84.6 60 83.7 59.6 82.9 58.8Z" fill="black"/>
<path d="M93.5 58.5L92.3 57.4L93.1 56.5L94.3 57.6C94.5 57.2 94.6 56.8 94.6 56.2C94.6 54.8 93.7 53.6 92.3 53.6C91 53.6 90.1 54.7 90.1 56.1C90.1 57.5 91 58.6 92.4 58.6C92.8 58.8 93.2 58.7 93.5 58.5ZM95.1 60.1L94.3 59.3C93.7 59.7 93.1 60 92.3 60C90.3 60 88.8 58.3 88.8 56.3C88.8 54.3 90.2 52.6 92.3 52.6C94.3 52.6 95.8 54.3 95.8 56.3C95.8 57.1 95.6 57.9 95.1 58.5L95.9 59.2L95.1 60.1Z" fill="black"/>
<path d="M96.8 56.8V52.7H98V56.8C98 58.1 98.6 58.8 99.7 58.8C100.7 58.8 101.4 58.1 101.4 56.8V52.7H102.6V56.8C102.6 58.9 101.5 60 99.7 60C97.9 60 96.8 58.9 96.8 56.8Z" fill="black"/>
<path d="M103.8 52.7H108.8V53.8H105V55.7H108.4V56.8H105V58.7H108.8V59.9H103.8V52.7Z" fill="black"/>
<path d="M115.4 56.2C116.2 56.2 116.8 55.7 116.8 55C116.8 54.2 116.3 53.8 115.4 53.8H113.7V56.2H115.4ZM112.5 52.7H115.5C116.3 52.7 117 53 117.4 53.4C117.8 53.8 118 54.3 118 54.9C118 56.1 117.3 56.8 116.4 57.1L118.2 59.8H116.8L115.2 57.3H113.7V59.8H112.5V52.7Z" fill="black"/>
<path d="M119.1 52.7H124V53.8H120.3V55.7H123.6V56.8H120.3V58.7H124.1V59.9H119.1V52.7Z" fill="black"/>
<path d="M124.7 58.8L125.4 57.9C126 58.5 126.7 58.8 127.5 58.8C128.2 58.8 128.7 58.4 128.7 57.9C128.7 57.4 128.4 57.1 127.2 56.8C125.8 56.4 125 56 125 54.7C125 53.5 126 52.6 127.3 52.6C128.3 52.6 129 52.9 129.7 53.5L129.1 54.5C128.5 54 127.9 53.8 127.3 53.8C126.6 53.8 126.2 54.2 126.2 54.6C126.2 55.2 126.5 55.4 127.8 55.7C129.2 56.1 129.9 56.6 129.9 57.8C129.9 59.1 128.9 59.9 127.5 59.9C126.5 60 125.5 59.6 124.7 58.8Z" fill="black"/>
<path d="M131 52.7H135.9V53.8H132.1V55.7H135.5V56.8H132.1V58.7H136V59.9H131V52.7Z" fill="black"/>
<path d="M141.1 57L139.9 54.1L138.8 57H141.1ZM139.4 52.6H140.5L143.4 59.8H142.2L141.5 58.1H138.4L137.7 59.8H136.5L139.4 52.6Z" fill="black"/>
<path d="M147.2 56.2C148 56.2 148.6 55.7 148.6 55C148.6 54.2 148.1 53.8 147.2 53.8H145.5V56.2H147.2ZM144.3 52.7H147.3C148.1 52.7 148.8 53 149.2 53.4C149.6 53.8 149.8 54.3 149.8 54.9C149.8 56.1 149.1 56.8 148.2 57.1L150 59.8H148.6L147 57.3H145.5V59.8H144.3V52.7Z" fill="black"/>
<path d="M150.6 56.3C150.6 54.2 152 52.6 154 52.6C155.2 52.6 156 53.1 156.6 53.7L155.8 54.6C155.3 54.1 154.7 53.7 153.9 53.7C152.6 53.7 151.7 54.8 151.7 56.2C151.7 57.6 152.6 58.7 153.9 58.7C154.7 58.7 155.2 58.4 155.8 57.8L156.6 58.6C155.9 59.4 155.1 59.9 153.9 59.9C152 60 150.6 58.4 150.6 56.3Z" fill="black"/>
<path d="M157.8 52.7H159V55.7H162.1V52.7H163.3V59.9H162.1V56.8H159V59.9H157.8V52.7Z" fill="black"/>
<path d="M12.5 65.8C12.5 65.3 12.2 65 11.7 65C11.2 65 10.9 65.4 10.9 65.9C10.9 66.3 11 66.5 11.4 67C12.1 66.6 12.5 66.3 12.5 65.8ZM12.5 69.7L11.1 68C10.5 68.3 10.2 68.7 10.2 69.2C10.2 69.8 10.7 70.2 11.3 70.2C11.7 70.3 12.2 70.1 12.5 69.7ZM13.2 70.4C12.6 71 12 71.3 11.2 71.3C10 71.3 9 70.5 9 69.3C9 68.4 9.5 67.7 10.4 67.3C10 66.8 9.8 66.3 9.8 65.8C9.8 64.8 10.5 64 11.7 64C12.8 64 13.5 64.8 13.5 65.7C13.5 66.6 12.9 67.2 12 67.6L13.1 68.8C13.4 68.4 13.6 67.9 13.8 67.4L14.7 67.9C14.4 68.5 14.1 69 13.8 69.5L14.9 70.6L14 71.3L13.2 70.4Z" fill="black"/>
<path d="M19.6 65.2H17.5V64.1H22.9V65.2H20.8V71.2H19.6V65.2Z" fill="black"/>
<path d="M23.9 64.1H28.8V65.2H25V67.1H28.4V68.2H25V70.1H28.9V71.2H23.9V64.1Z" fill="black"/>
<path d="M29.7 67.7C29.7 65.6 31.1 64 33.1 64C34.3 64 35.1 64.5 35.7 65.1L35 66C34.5 65.5 33.9 65.1 33.1 65.1C31.8 65.1 30.9 66.2 30.9 67.6C30.9 69 31.8 70.1 33.1 70.1C33.9 70.1 34.4 69.8 35 69.2L35.8 70C35.1 70.8 34.3 71.3 33.1 71.3C31.1 71.4 29.7 69.7 29.7 67.7Z" fill="black"/>
<path d="M36.9 64.1H38.1V67.1H41.2V64.1H42.4V71.2H41.2V68.2H38.1V71.2H36.9V64.1Z" fill="black"/>
<path d="M44 64.1H45.1L48.7 69V64.1H49.8V71.2H48.8L45.2 66.1V71.2H44V64.1Z" fill="black"/>
<path d="M56.9 67.7C56.9 66.3 56 65.1 54.6 65.1C53.2 65.1 52.4 66.2 52.4 67.6C52.4 69 53.3 70.1 54.7 70.1C56 70.2 56.9 69.1 56.9 67.7ZM51.1 67.7C51.1 65.7 52.5 64 54.6 64C56.6 64 58.1 65.7 58.1 67.7C58.1 69.7 56.7 71.4 54.6 71.4C52.6 71.4 51.1 69.7 51.1 67.7Z" fill="black"/>
<path d="M59.4 64.1H60.6V70.1H64.1V71.2H59.4V64.1Z" fill="black"/>
<path d="M70.3 67.7C70.3 66.3 69.4 65.1 68 65.1C66.7 65.1 65.8 66.2 65.8 67.6C65.8 69 66.7 70.1 68.1 70.1C69.3 70.2 70.3 69.1 70.3 67.7ZM64.5 67.7C64.5 65.7 65.9 64 68 64C70 64 71.5 65.7 71.5 67.7C71.5 69.7 70.1 71.4 68 71.4C65.9 71.4 64.5 69.7 64.5 67.7Z" fill="black"/>
<path d="M72.5 67.7C72.5 65.7 73.9 64 75.9 64C77.1 64 77.8 64.3 78.5 65L77.8 66C77.3 65.5 76.8 65.2 75.9 65.2C74.7 65.2 73.7 66.4 73.7 67.7C73.7 69.2 74.6 70.3 76 70.3C76.6 70.3 77.2 70.1 77.6 69.8V68.5H75.9V67.4H78.7V70.4C78 71 77.1 71.5 75.9 71.5C73.9 71.4 72.5 69.8 72.5 67.7Z" fill="black"/>
<path d="M82 68.4L79.4 64.1H80.8L82.6 67.2L84.5 64.1H85.9L83.2 68.4V71.2H82V68.4Z" fill="black"/>
<path d="M93.2 68.4L92 65.5L90.9 68.4H93.2ZM91.5 64H92.6L95.5 71.2H94.3L93.6 69.5H90.5L89.8 71.2H88.6L91.5 64Z" fill="black"/>
<path d="M96.4 64.1H97.6V70.1H101.1V71.2H96.4V64.1Z" fill="black"/>
<path d="M102 64.1H103.2V70.1H106.7V71.2H102V64.1Z" fill="black"/>
<path d="M108.9 64.1H107.7V71.3H108.9V64.1Z" fill="black"/>
<path d="M114.4 68.4L113.2 65.5L112.1 68.4H114.4ZM112.7 64H113.8L116.7 71.2H115.5L114.8 69.5H111.7L111 71.2H109.8L112.7 64Z" fill="black"/>
<path d="M117.6 64.1H118.6L122.2 69V64.1H123.4V71.2H122.4L118.7 66.1V71.2H117.6V64.1Z" fill="black"/>
<path d="M124.5 67.7C124.5 65.6 125.9 64 127.9 64C129.1 64 129.9 64.5 130.5 65.1L129.7 66C129.2 65.5 128.6 65.1 127.8 65.1C126.5 65.1 125.6 66.2 125.6 67.6C125.6 69 126.5 70.1 127.8 70.1C128.6 70.1 129.1 69.8 129.7 69.2L130.5 70C129.8 70.8 129 71.3 127.8 71.3C125.9 71.4 124.5 69.7 124.5 67.7Z" fill="black"/>
<path d="M131.5 64.1H136.5V65.2H132.7V67.1H136V68.2H132.7V70.1H136.5V71.2H131.5V64.1Z" fill="black"/>
<path d="M39 78H9.29999V81.8H39V78Z" fill="#FEDB00"/>
</svg>
