<svg width="601" height="161" viewBox="0 0 601 161" fill="none" xmlns="http://www.w3.org/2000/svg">
<path d="M24.8 24.3V72.6H34.5C43.7 72.6 49.3 68.6 49.3 56V40.5C49.3 29.3 45.5 24.3 36.7 24.3H24.8ZM51.7 159.1C50.4 155.1 49.5 152.6 49.5 139.8V115.1C49.5 100.5 44.5 95.1 33.3 95.1H24.8V159.1H0V1.8H37.3C62.9 1.8 73.9 13.7 73.9 38V50.4C73.9 66.6 68.7 77.1 57.7 82.3C70.1 87.5 74.1 99.4 74.1 115.8V140.1C74.1 147.7 74.3 153.4 76.8 159.2H51.7V159.1ZM117.6 122.9C117.6 134.1 122.5 138.4 130.4 138.4C138.3 138.4 143.2 134.1 143.2 122.9V37.9C143.2 26.7 138.2 22.4 130.4 22.4C122.6 22.4 117.6 26.7 117.6 37.9V122.9ZM92.9 39.5C92.9 14.3 106.2 0 130.4 0C154.7 0 167.9 14.4 167.9 39.5V121.3C167.9 146.5 154.6 160.8 130.4 160.8C106.1 160.8 92.9 146.4 92.9 121.3V39.5V39.5ZM188.4 1.8H213.1V159.1H188.4V1.8Z" fill="#F49600"/>
<path d="M260.3 88.3V136.6H274.5C282.8 136.6 287.3 132.8 287.3 121.1V107.4C287.3 92.8 282.6 88.3 271.3 88.3H260.3ZM260.3 24.3V65.9H270C279.2 65.9 284.8 61.9 284.8 49.3V40.5C284.8 29.3 281 24.3 272.2 24.3H260.3ZM309.5 38V43.6C309.5 59.8 304.6 70.1 293.5 75.3C306.8 80.5 311.9 92.4 311.9 109V121.8C311.9 146.1 299.1 159.1 274.4 159.1H235.5V1.8H272.8C298.5 1.8 309.5 13.7 309.5 38ZM354.9 109.2H378.7L366.8 29.7L354.9 109.2ZM411.3 159.1H386.4L382.1 130.6H351.8L347.5 159.1H324.8L350 1.8H386.1L411.3 159.1ZM498.7 100.4V121.3C498.7 146.5 486.1 160.8 461.9 160.8C437.6 160.8 425 146.4 425 121.3V39.5C425 14.3 437.6 0 461.9 0C486.2 0 498.7 14.4 498.7 39.5V54.8H475.3V37.9C475.3 26.7 470.3 22.4 462.5 22.4C454.6 22.4 449.7 26.7 449.7 37.9V122.9C449.7 134.1 454.6 138.2 462.5 138.2C470.4 138.2 475.3 134.2 475.3 122.9V100.4H498.7ZM550.6 96.4L543 110.8V159.1H518.3V1.8H543V70.3L575.4 1.8H600.1L565.7 71.9L600.1 159.1H574.7L550.6 96.4Z" fill="#282748"/>
</svg>
