<svg width="486" height="496" viewBox="0 0 486 496" fill="none" xmlns="http://www.w3.org/2000/svg">
<path d="M344.898 414.011C244.571 416.352 237.4 426.938 258.909 435.229C280.419 443.519 235.399 447.911 268.083 451.372C309.676 455.777 323.966 450.897 333.768 446.016C341.973 441.932 347.033 437.847 362.326 439.207C371.643 440.035 477.316 437.109 450.751 427.461C436.413 422.255 420.078 422.579 411.546 422.904C404.268 423.181 402.669 423.458 412.838 420.301C434.926 413.443 344.898 414.011 344.898 414.011Z" fill="#D7F0D0"/>
<path d="M275.218 208.83L272.672 187.769L272 179.101L279.127 178C279.127 178 278.845 184.198 279.779 187.695C280.7 191.145 279.901 208.368 279.844 208.828C280.367 209.228 280.736 209.755 280.902 210.338C281.068 210.921 281.022 211.533 280.772 212.093C280.522 212.654 280.078 213.136 279.5 213.477C278.922 213.817 278.236 214 277.534 214C276.832 214 276.146 213.818 275.568 213.478C274.989 213.138 274.545 212.656 274.294 212.096C274.043 211.536 273.997 210.923 274.162 210.34C274.327 209.757 274.696 209.231 275.218 208.83V208.83Z" fill="#A0616A"/>
<path d="M213.017 359.991C115.811 319.207 112.21 272.511 134.088 207.224C155.966 141.937 72.5228 151.078 56.9262 105.864C42.254 63.3286 114.868 69.2182 157.211 87.2922C199.553 105.366 245.125 127.672 227.607 76.0058C210.089 24.3388 323.295 -35.5108 300.096 26.2688C275.338 92.2023 303.086 146.207 340.87 149.865C355.442 151.275 374.956 131.473 395.143 111.67C427.304 80.122 461.172 48.5742 479.476 102.801C511.902 198.867 414.762 227.265 378.706 294.758C342.65 362.251 213.017 359.991 213.017 359.991Z" fill="#D7F0D0"/>
<path d="M82 95L73 90.0153L81.1789 86L82 95" fill="#C2EADC"/>
<path d="M193 139L185 134.569L192.27 131L193 139" fill="#C2EADC"/>
<path d="M131 125L122 119.461L130.179 115L131 125" fill="#C2EADC"/>
<path d="M160 114L150 109.015L159.088 105L159.56 109.655L158.92 111.33L159.708 111.114L160 114" fill="#C2EADC"/>
<path d="M277 24L268 18.4612L276.179 14L277 24Z" fill="#C2EADC"/>
<path d="M257 93L247 86.9078L256.087 82L257 93Z" fill="#C2EADC"/>
<path d="M276 64L265 59.0152L274.996 55L276 64Z" fill="#C2EADC"/>
<path d="M445 97L434 93.123L443.997 90L445 97" fill="#C2EADC"/>
<path d="M136 245L126 239.462L135.088 235L136 245" fill="#C2EADC"/>
<path d="M250 43L252.454 34L258 39.9295L250 43Z" fill="#DEDBF1"/>
<path d="M110 96L112.147 88L117 93.2707L110 96" fill="#DEDBF1"/>
<path d="M94 126L97.0671 119L104 123.612L94 126" fill="#DEDBF1"/>
<path d="M209 138L211.76 131L218 135.612L209 138" fill="#DEDBF1"/>
<path d="M164 153L166.147 147L171 150.953L164 153Z" fill="#DEDBF1"/>
<path d="M264 87L266.147 82L271 85.2941L264 87" fill="#DEDBF1"/>
<path d="M457 128L459.147 121L464 125.612L457 128" fill="#DEDBF1"/>
<path d="M418.168 124H414L415.196 116L419 123.417L418.168 124" fill="#DEDBF1"/>
<path d="M132 222L135.068 215L142 219.612L132 222" fill="#DEDBF1"/>
<path d="M140.422 268C140.406 267.67 140.141 267.388 139.511 267.043C139.004 266.954 138.506 266.911 138.019 266.911C136.947 266.911 135.931 267.119 135 267.495L136.289 263L141 267.789L140.422 268" fill="#DEDBF1"/>
<path d="M156 112L156.614 110.248L158.454 105L164 109.612L156.756 111.774L156 112Z" fill="#DEDBF1"/>
<path d="M290 25L287 20L293 21.6259L290 25" fill="#EAE1CE"/>
<path d="M244.5 72L242 68L247 69.3009L244.5 72Z" fill="#EAE1CE"/>
<path d="M234.5 121L232 116L237 117.626L234.5 121" fill="#EAE1CE"/>
<path d="M136 97L135 93L137 94.3009L136 97Z" fill="#EAE1CE"/>
<path d="M77 101L74 96L80 97.6261L77 101Z" fill="#EAE1CE"/>
<path d="M136 141L135 138L137 138.976L136 141Z" fill="#EAE1CE"/>
<path d="M170 126L169 121L171 122.626L170 126Z" fill="#EAE1CE"/>
<path d="M211.5 158L209 154L214 155.301L211.5 158Z" fill="#EAE1CE"/>
<path d="M436.5 105L434 101L439 102.301L436.5 105" fill="#EAE1CE"/>
<path d="M51.8803 353.252L51.7688 365.356C48.3892 363.109 43.5768 364.673 41.6735 368.636C39.7701 372.599 41.1202 378.244 44.5056 380.478C42.3904 383.263 38.7587 383.258 35.5759 383.319C32.3931 383.381 28.6297 384.176 27.3122 387.572C26.2544 390.299 27.3787 393.647 29.2797 395.655C31.1808 397.664 33.6937 398.637 36.1277 399.558C30.8378 401.666 27.2728 408.543 28.1083 415.028C28.9438 421.513 34.0846 426.867 39.6725 427.072C34.4637 429.685 31.7276 437.58 33.9003 443.726C36.0905 449.923 41.9212 453.09 47.3917 455.044C61.3134 460.037 76.3987 460.813 90.7593 457.275C96.2446 455.917 101.722 453.874 106.259 450.018C110.797 446.162 114.311 440.261 114.725 433.702C112.105 440.958 116.58 449.68 122.735 452.866C128.889 456.053 136.007 455.019 142.527 453.111C151.197 450.572 160.395 445.663 163.793 435.971C165.476 431.174 165.489 425.826 165.477 420.635L165.454 410.571C165.445 406.508 165.426 402.372 164.39 398.493C163.354 394.613 161.126 390.958 157.889 389.503C160.168 386.469 162.507 383.311 163.526 379.446C164.545 375.581 163.872 370.79 161.035 368.479C157.424 365.537 152.221 367.732 148.263 365.492C144.453 363.336 142.995 357.857 139.864 354.519C138.591 353.108 136.935 352.099 135.098 351.616C133.261 351.132 131.323 351.194 129.521 351.796C125.989 353.063 123.131 356.625 122.265 360.836C121.507 364.525 122.204 368.403 121.973 372.189C121.741 375.975 120.041 380.202 116.857 380.872C113.014 381.681 109.96 376.795 109.311 372.276C108.663 367.757 109.307 362.939 107.811 358.704C106.045 353.706 101.172 350.496 96.6195 351.333C92.0669 352.17 88.2774 356.971 87.9166 362.36C87.6216 366.767 89.142 372.055 86.3955 375.076C83.4928 378.269 78.4847 375.408 76.5409 371.325C74.5972 367.243 74.3237 362.307 72.4454 358.182C70.5379 353.994 66.9588 350.905 62.9836 350.016C60.9501 349.602 58.8451 349.707 56.8629 350.321C54.8808 350.936 53.0853 352.039 51.6421 353.531" fill="white"/>
<path d="M137.392 358.18L126.112 358.25C124.398 358.302 122.714 357.791 121.318 356.795C120.113 355.858 119.578 354.615 119.85 353.384L122.307 342.283C122.77 340.189 125.381 338.654 128.515 338.635L134.745 338.596C137.879 338.577 140.509 340.079 140.998 342.167L143.593 353.236C143.88 354.464 143.361 355.713 142.168 356.665C140.784 357.678 139.106 358.21 137.392 358.18V358.18Z" fill="#3F3D56"/>
<path d="M132.126 187.1C125.268 187.148 119.785 198.897 119.812 203.528L119.864 211.913L144.695 211.758L144.643 203.374C144.612 198.743 138.984 187.063 132.126 187.1Z" fill="#3F3D56"/>
<path d="M31.7038 261.233C31.3434 261.068 31.0281 260.819 30.7845 260.506C30.541 260.194 30.3765 259.827 30.3049 259.437C30.2334 259.048 30.2569 258.646 30.3735 258.268C30.4901 257.889 30.6963 257.544 30.9747 257.262C31.2014 257.031 31.4716 256.848 31.7697 256.722C32.0678 256.596 32.3879 256.531 32.7114 256.53L160.946 255.732C161.269 255.73 161.59 255.792 161.889 255.914C162.189 256.035 162.461 256.215 162.691 256.442C162.921 256.669 163.104 256.939 163.23 257.237C163.356 257.535 163.421 257.855 163.423 258.178C163.427 258.831 163.171 259.458 162.712 259.923C162.254 260.387 161.63 260.651 160.977 260.656L160.977 260.656L32.7421 261.454C32.384 261.457 32.0296 261.382 31.7038 261.233V261.233Z" fill="#3F3D56"/>
<path d="M150.658 219.815L114.003 220.043L114.773 343.802L151.429 343.574L150.658 219.815Z" fill="#E6E6E6"/>
<path d="M95.8933 39.4361C89.0356 39.4841 83.5528 51.2332 83.5795 55.8643L83.6317 64.2486L108.463 64.0941L108.411 55.7098C108.38 51.0787 102.751 39.3988 95.8933 39.4361Z" fill="#3F3D56"/>
<path d="M103.885 357.051L92.6054 357.121C90.8912 357.173 89.2072 356.662 87.8109 355.666C86.6062 354.729 86.0709 353.486 86.3436 352.255L88.8003 341.154C89.2633 339.06 91.8745 337.525 95.0086 337.506L101.238 337.467C104.372 337.448 107.002 338.95 107.491 341.038L110.086 352.107C110.374 353.335 109.854 354.584 108.661 355.536C107.277 356.549 105.6 357.081 103.885 357.051V357.051Z" fill="#3F3D56"/>
<path d="M68.7931 358.169L57.5136 358.239C55.7994 358.29 54.1155 357.779 52.7191 356.784C51.5144 355.847 50.9792 354.604 51.2518 353.373L53.7085 342.272C54.1715 340.178 56.7828 338.643 59.9168 338.624L66.146 338.585C69.28 338.565 71.9101 340.068 72.3992 342.156L74.9939 353.225C75.2818 354.453 74.7621 355.702 73.5692 356.654C72.1853 357.667 70.5079 358.199 68.7931 358.169V358.169Z" fill="#3F3D56"/>
<path d="M114.557 93.203L77.9014 93.4312L79.4583 343.594L116.114 343.366L114.557 93.203Z" fill="#E6E6E6"/>
<path d="M97.309 213.912L97.3285 204.896L99.6933 204.888L99.6743 213.875L99.0166 344.853L96.6513 344.867" fill="#3F3D56"/>
<path d="M138.41 225.196L138.429 216.181L140.794 216.172L140.775 225.16L140.117 356.137L137.752 356.152" fill="#3F3D56"/>
<path d="M121.28 116.239L71.6138 116.548C70.8603 111.298 72.5019 86.9108 77.0872 81.5483L78.4511 75.0594L112.745 74.8459L114.402 81.234C119.234 85.5274 121.248 110.059 121.28 116.239Z" fill="#E6E6E6"/>
<path d="M113.811 75.6374L78.4216 75.8577C77.1154 75.8658 76.0521 75.1573 76.0466 74.2752C76.0461 74.1482 76.0674 74.022 76.1096 73.9021L81.9652 57.095C82.216 56.3753 83.1638 55.8631 84.2574 55.8563L107.726 55.7103C108.82 55.7035 109.774 56.2038 110.034 56.9204L116.098 73.6533C116.408 74.5091 115.631 75.3762 114.362 75.5899C114.18 75.6205 113.996 75.6364 113.811 75.6374V75.6374Z" fill="#E6E6E6"/>
<path d="M78.9928 212.37C78.6764 212.227 78.3785 212.046 78.1053 211.831C77.7134 211.543 77.3925 211.17 77.1672 210.739C76.9419 210.308 76.8182 209.831 76.8055 209.346L76.5158 162.778C76.504 160.85 78.425 159.27 80.798 159.255L112.479 159.058C114.852 159.042 116.792 160.599 116.805 162.527L117.094 209.095C117.088 209.581 116.97 210.059 116.75 210.493C116.53 210.926 116.214 211.304 115.826 211.596C114.965 212.267 113.903 212.627 112.812 212.618L81.1314 212.815C80.3947 212.824 79.6649 212.672 78.9928 212.37Z" fill="#3F3D56"/>
<path d="M79.9093 219.818L43.2539 220.046L44.0241 343.804L80.6796 343.576L79.9093 219.818Z" fill="#E6E6E6"/>
<path d="M102.261 72.3943L91.5114 72.4612C89.4372 72.4741 87.7343 70.0944 87.716 67.1572C87.6977 64.22 89.3709 61.8193 91.4452 61.8064L102.195 61.7395C104.269 61.7266 105.972 64.1062 105.99 67.0435C106.008 69.9807 104.335 72.3814 102.261 72.3943Z" fill="#3F3D56"/>
<path d="M62.0916 187.098C55.2338 187.146 49.7511 198.895 49.7778 203.526L49.83 211.91L74.661 211.756L74.6089 203.371C74.5779 198.74 68.9494 187.06 62.0916 187.098Z" fill="#3F3D56"/>
<path d="M207.591 170.136C204.985 170.554 204.389 166.452 207.006 166.111C209.611 165.694 210.207 169.795 207.591 170.136Z" fill="#E6E6E6"/>
<path d="M49.364 141.574C46.7589 141.992 46.1625 137.89 48.779 137.549C51.384 137.132 51.9804 141.233 49.364 141.574Z" fill="#E6E6E6"/>
<path d="M43.087 31.573C40.9223 33.348 38.7067 29.1232 40.913 27.427C43.0777 25.6521 45.2933 29.8768 43.087 31.573Z" fill="#E6E6E6"/>
<path d="M150.481 270.561C149.2 270.567 147.968 270.066 147.056 269.165C146.145 268.265 145.628 267.04 145.618 265.759L145.533 252.114C145.527 250.833 146.029 249.602 146.93 248.692C147.83 247.781 149.055 247.265 150.336 247.257C151.616 247.249 152.848 247.75 153.76 248.649C154.671 249.549 155.189 250.773 155.198 252.054L155.283 265.698C155.29 266.98 154.788 268.211 153.887 269.123C152.987 270.034 151.762 270.552 150.481 270.561V270.561Z" fill="#3F3D56"/>
<path d="M42.6331 271.277C41.3519 271.283 40.1204 270.781 39.2088 269.881C38.2972 268.981 37.78 267.756 37.7706 266.474L37.6856 252.83C37.6792 251.549 38.1814 250.318 39.0819 249.408C39.9824 248.497 41.2075 247.981 42.4881 247.973C43.7687 247.965 45.0001 248.466 45.9119 249.365C46.8236 250.264 47.3411 251.489 47.3507 252.769L47.4356 266.414C47.4421 267.695 46.9401 268.927 46.0398 269.839C45.1395 270.75 43.9143 271.267 42.6331 271.277Z" fill="#3F3D56"/>
<path d="M153.665 242.289L111.158 242.554C110.513 238.061 111.918 217.189 115.842 212.599L119.284 207.031L144.913 206.329L147.778 212.33C155.324 213.108 157.529 233.695 153.665 242.289Z" fill="#E6E6E6"/>
<path d="M137.903 233.72L127.154 233.787C125.079 233.8 123.372 230.65 123.348 226.766C123.323 222.883 124.992 219.712 127.066 219.699L137.816 219.633C139.89 219.62 141.597 222.769 141.622 226.653C141.646 230.536 139.977 233.707 137.903 233.72Z" fill="#3F3D56"/>
<path d="M53.018 220.548L53.0375 211.532L55.4023 211.524L55.3833 220.511L54.7256 351.489L52.3603 351.504" fill="#3F3D56"/>
<path d="M83.6308 242.287L41.1234 242.552C37.1716 237.517 37.2539 216.428 45.8078 212.597L49.2492 207.029L74.8787 206.327L77.744 212.328C81.8796 216.002 83.6036 236.998 83.6308 242.287Z" fill="#E6E6E6"/>
<path d="M67.8582 231.835L57.1088 231.902C55.0345 231.915 53.3295 229.187 53.3086 225.823C53.2876 222.459 54.9586 219.71 57.0329 219.697L67.7823 219.63C69.8566 219.618 71.5616 222.345 71.5826 225.709C71.6035 229.074 69.9325 231.822 67.8582 231.835Z" fill="#3F3D56"/>
<path d="M151.065 285.414L172.118 302.508L173.615 337.967L148.413 327.621L151.065 285.414Z" fill="#E6E6E6"/>
<path d="M114.907 218.756L122.039 237.911L122.432 325.329L113.861 327.829L114.907 218.756Z" fill="#CCCCCC"/>
<path d="M80.8857 217.615L73.433 236.648L71.5704 324.047L80.0987 326.691L80.8857 217.615Z" fill="#CCCCCC"/>
<path d="M45.7521 292.206L23.2729 307.375L18.6502 342.562L44.6676 334.483L45.7521 292.206Z" fill="#E6E6E6"/>
<path d="M238.697 264C239.677 264 240.617 264.391 241.311 265.086C242.004 265.781 242.393 266.724 242.393 267.707V303.568H313.303C314.284 303.568 315.224 303.959 315.917 304.654C316.61 305.349 317 306.292 317 307.275C317 308.259 316.61 309.202 315.917 309.897C315.224 310.592 314.284 310.983 313.303 310.983H242.393V435H235V267.707C235 266.724 235.389 265.781 236.083 265.086C236.776 264.391 237.716 264 238.697 264V264Z" fill="#E6E6E6"/>
<path d="M340.007 243.666L336.045 205.639L335 189.988L346.087 188C346.087 188 345.648 199.191 347.1 205.504C348.533 211.735 347.29 242.831 347.202 243.662C348.016 244.384 348.59 245.335 348.848 246.387C349.105 247.44 349.035 248.546 348.645 249.558C348.256 250.57 347.566 251.441 346.667 252.055C345.767 252.67 344.701 252.999 343.609 253C342.516 253.001 341.45 252.672 340.55 252.058C339.65 251.444 338.959 250.574 338.568 249.562C338.178 248.551 338.106 247.445 338.363 246.392C338.62 245.339 339.193 244.388 340.007 243.666V243.666Z" fill="#A0616A"/>
<path d="M374.052 423.233H359.114V315.645C371.609 314.757 381 310.965 381 306.421C381 301.218 368.688 297 353.5 297C338.312 297 326 301.218 326 306.421C326 311.009 335.574 314.829 348.249 315.669V423.233H333.311C331.87 423.233 330.489 423.8 329.47 424.81C328.451 425.819 327.879 427.189 327.879 428.616C327.879 430.044 328.451 431.414 329.47 432.423C330.489 433.433 331.87 434 333.311 434H374.052C375.493 434 376.874 433.433 377.893 432.423C378.912 431.414 379.484 430.044 379.484 428.616C379.484 427.189 378.912 425.819 377.893 424.81C376.874 423.8 375.493 423.233 374.052 423.233Z" fill="black"/>
<path d="M344 368.713L339.246 374L317 357.803L324.016 350L344 368.713Z" fill="#A0616A"/>
<path d="M332.01 382.645C332.058 383.811 332.343 384.955 332.849 386.012C333.354 387.069 334.07 388.018 334.955 388.804L335.171 389L341.61 382.166L351 372.198L344.068 366L342.817 367.332L342.686 367.469L336.448 370.342L335.126 370.954L334.9 371.057L334.402 376.261V376.266C333.589 377.122 332.959 378.126 332.548 379.222C332.137 380.317 331.954 381.481 332.01 382.645V382.645Z" fill="#2F2E41"/>
<path d="M370 421.883L362.824 424L351 398.125L361.592 395L370 421.883Z" fill="#A0616A"/>
<path d="M351.377 434.713L351.46 435L373 428.194L370.371 419.191L368.67 419.729L368.491 419.784L360.483 419.02L360.246 419L357.216 423.348C354.993 424.05 353.129 425.642 352.034 427.773C350.939 429.905 350.703 432.401 351.377 434.713H351.377Z" fill="#2F2E41"/>
<path d="M312.557 288C312.557 288 268.29 330.561 296.275 343.735H304.924C306.804 337.65 309.694 331.92 313.474 326.785C314.291 325.72 317.353 325.936 318.203 324.898C323.394 318.561 329.022 313.118 332.909 313.334L331.979 342.742L330.474 353.231C329.684 358.654 351.984 406 351.984 406L366 400.514C366 400.514 351.397 361.518 351.226 355.896L362.928 294.08L312.557 288Z" fill="#2F2E41"/>
<path d="M309.361 290.269C309.585 290.589 309.877 290.856 310.216 291.048C310.775 291.366 311.38 291.592 312.01 291.717C321.883 293.97 354.136 298.641 362.508 296.413C363.537 296.143 364.207 295.764 364.426 295.264C365.127 293.686 365.037 287.017 364.625 278.965C364.55 277.457 362.896 275.823 362.796 274.245C362.727 273.061 364.212 271.947 364.133 270.743C363.586 262.601 362.881 254.304 362.409 249.06C362.111 245.688 361.907 243.58 361.907 243.58L367 211.297L366.762 210.902L366.493 210.767L350.071 202.596L349.177 200.298C348.918 199.636 348.467 199.068 347.883 198.666C347.3 198.265 346.61 198.048 345.902 198.045L335.085 198C334.524 197.997 333.97 198.129 333.47 198.384C332.969 198.639 332.537 199.011 332.208 199.469L329.277 203.55L309.898 216.037L309.972 216.267L319.066 244.085L319.11 246.252V246.257L319.448 263.69L318.509 266.053L319.567 269.929C319.567 269.929 319.08 274.459 316.472 277.826C314.107 280.883 311.095 284.07 309.734 286.657V286.662C308.979 288.091 308.725 289.33 309.361 290.269Z" fill="#FCE698"/>
<path d="M295 341.245L297.325 344.217C297.325 344.217 318.709 359.351 319.443 360.765L322.823 364L331 355.158L326.748 349.766C323.345 345.451 318.948 342.046 313.942 339.849V339.849L307.425 334L295 341.245Z" fill="#2F2E41"/>
<path d="M372.007 299.666L368.045 261.639L367 245.988L378.087 244C378.087 244 377.648 255.191 379.1 261.504C380.533 267.735 379.29 298.831 379.202 299.662C380.016 300.384 380.59 301.335 380.848 302.387C381.105 303.44 381.035 304.546 380.645 305.558C380.256 306.57 379.566 307.441 378.667 308.055C377.767 308.67 376.701 308.999 375.609 309C374.516 309.001 373.45 308.672 372.55 308.058C371.65 307.444 370.959 306.574 370.568 305.562C370.178 304.551 370.106 303.445 370.363 302.392C370.62 301.339 371.193 300.388 372.007 299.666V299.666Z" fill="#A0616A"/>
<path d="M359 242.6L362.107 249.161L363.191 251.446L366.112 266.539L367.569 268.067L368.825 273L369.415 272.881L380.057 270.705L383.159 270.073C383.858 268.923 384.134 267.571 383.939 266.244C383.744 264.917 383.091 263.697 382.09 262.79C381.878 262.601 381.702 262.417 381.707 262.243C381.883 251.744 381.233 232.574 375.357 224.684C373.491 222.18 372.371 219.686 370.742 217.944C370.737 217.939 370.737 217.934 370.732 217.934L366.767 211.528L366.525 211.134L366.253 211L359 242.6Z" fill="#FCE698"/>
<path d="M341.5 195C349.508 195 356 188.508 356 180.5C356 172.492 349.508 166 341.5 166C333.492 166 327 172.492 327 180.5C327 188.508 333.492 195 341.5 195Z" fill="#A0616A"/>
<path d="M358.618 177.714C359.038 175.285 359.366 172.137 358.162 169.338C357.144 166.982 354.598 164.774 351.768 165.072C351.902 164.54 351.887 163.981 351.725 163.457C351.563 162.934 351.259 162.466 350.849 162.105C349.927 161.377 348.853 160.868 347.708 160.619C345.048 159.831 342.293 159.015 339.448 159C336.255 158.983 333.426 160.084 331.691 162.026L331.649 162.088L331.128 163.339C331.059 163.506 330.954 163.657 330.821 163.78C330.688 163.903 330.531 163.996 330.359 164.052C330.187 164.109 330.004 164.127 329.824 164.105C329.645 164.083 329.472 164.021 329.318 163.923C329.15 163.819 328.958 163.761 328.76 163.754C328.563 163.748 328.367 163.794 328.193 163.887C328.018 163.98 327.871 164.117 327.765 164.285C327.659 164.453 327.599 164.646 327.59 164.844L327.562 165.378L326.817 165.079C326.63 165.003 326.427 164.978 326.227 165.008C326.028 165.038 325.84 165.121 325.683 165.248C325.526 165.375 325.406 165.542 325.335 165.732C325.263 165.921 325.244 166.127 325.277 166.327L325.377 166.961C325.216 166.932 325.052 166.936 324.893 166.972C324.734 167.008 324.584 167.076 324.452 167.171C324.263 167.311 324.123 167.508 324.052 167.734C323.981 167.959 323.983 168.201 324.058 168.426C324.635 170.086 325.623 171.571 326.927 172.741C327.512 173.274 328.168 173.723 328.875 174.075C329.022 174.15 329.175 174.22 329.334 174.287C335.055 176.757 341.176 178.153 347.395 178.406C346.807 179.536 346.427 180.763 346.273 182.029C346.189 182.747 346.301 183.476 346.597 184.134C346.894 184.793 347.365 185.357 347.957 185.766C348.215 185.914 348.485 186.039 348.764 186.138C349.031 186.237 349.29 186.358 349.537 186.499C349.901 186.72 350.199 187.034 350.403 187.408C350.608 187.783 350.71 188.206 350.7 188.633C350.69 189.06 350.568 189.477 350.346 189.842C350.124 190.206 349.811 190.505 349.438 190.709C349.438 190.709 350.506 192.022 350.677 192C351.358 191.844 351.973 191.478 352.436 190.952C355.545 187.913 357.625 183.462 358.618 177.714Z" fill="#2F2E41"/>
<path d="M294.792 292.733C289.859 292.633 263.359 291.861 259.014 292.051C258.768 291.176 250.53 301.901 250.33 301.968C250.196 302.111 250.099 302.285 250.046 302.474C249.993 302.664 249.986 302.864 250.025 303.057C250.065 303.25 250.15 303.431 250.273 303.583C250.396 303.736 250.553 303.856 250.732 303.933C251.216 304.232 293.937 303.429 294.455 303.534C294.678 303.53 294.897 303.462 295.084 303.338C295.272 303.214 295.421 303.038 295.515 302.832L295.801 302.182C295.83 301.071 296.188 295.39 295.867 294.419C295.946 294.237 295.979 294.037 295.963 293.839C295.947 293.64 295.883 293.449 295.777 293.282C295.67 293.114 295.524 292.977 295.353 292.881C295.181 292.785 294.988 292.735 294.792 292.733V292.733Z" fill="#E6E6E6"/>
<path opacity="0.17" d="M296 302C295.748 302.663 295.426 303.496 294.648 303.466L251.185 304C250.98 303.997 250.778 303.937 250.6 303.825C250.422 303.712 250.273 303.551 250.168 303.358C250.063 303.164 250.005 302.944 250 302.719C249.995 302.494 250.043 302.271 250.139 302.072L296 302Z" fill="black"/>
<path d="M258.966 291.691C258.496 290.877 246.823 233.024 245.849 232.54L237.879 222.775L237.166 222.238C236.176 221.693 233.8 222.061 234.014 223.577C235.886 232.568 247.929 283.778 248.193 291.762L249.643 301.933C249.669 302.106 249.73 302.272 249.824 302.419C249.918 302.567 250.041 302.693 250.187 302.79C250.332 302.887 250.497 302.953 250.669 302.982C250.841 303.012 251.017 303.005 251.187 302.962C251.602 302.917 251.999 302.764 252.338 302.519C252.677 302.274 252.946 301.944 253.119 301.563C253.227 301.204 259.512 291.9 258.966 291.691Z" fill="#E6E6E6"/>
<path opacity="0.17" d="M237.845 222.759L253 301.569C252.493 302.862 250.122 303.767 249.569 302.072C249.56 302.069 234.022 223.609 234.006 223.562C233.841 221.674 236.937 221.614 237.845 222.759Z" fill="black"/>
<path d="M238 226L246.01 236.872L255 278.45L250.821 282L238 226Z" fill="#6C63FF"/>
<path d="M290 297.916L292.361 298C292.398 297.397 292.512 296.799 292.702 296.219C293.057 294.747 293.375 292.998 291.902 293.004C290.903 292.921 290.563 294.024 290.385 295.225C290.339 296.129 290.21 297.029 290 297.916Z" fill="#2F2E41"/>
<path d="M278 295.914L279.31 295.971L279.944 296C279.932 295.186 280.255 293.509 279.469 293.095C279.344 293.032 279.209 293.001 279.073 293.003C278.335 292.953 278.116 293.609 278.049 294.366C278.006 294.822 278.024 295.308 278.012 295.686C278.012 295.765 278.006 295.843 278 295.914Z" fill="#2F2E41"/>
<path d="M273 294.938L274.974 294.981L275.915 295C275.897 294.378 276.527 293.021 274.608 293.002C272.835 292.949 273.064 294.122 273.018 294.786C273.018 294.839 273.009 294.891 273 294.938Z" fill="#2F2E41"/>
<path d="M269 294.914L270.31 294.971L270.943 295C270.931 294.072 271.352 292.032 270.072 292.003C268.89 291.917 269.043 293.68 269.012 294.686C269.012 294.765 269.006 294.843 269 294.914Z" fill="#2F2E41"/>
<path d="M265 294.907L266.316 294.972L266.943 295C266.931 294.067 267.352 292.038 266.072 292.003C264.89 291.924 265.043 293.683 265.012 294.68C265.012 294.758 265.006 294.836 265 294.907Z" fill="#2F2E41"/>
<path d="M261 294.914L262.311 294.971L262.945 295C262.932 294.144 263.286 292.354 262.347 292.047H262.341C262.254 292.017 262.164 292.002 262.073 292.004C261.962 291.993 261.851 292.005 261.744 292.04H261.738C260.921 292.29 261.037 293.787 261.012 294.686C261.012 294.765 261.006 294.843 261 294.914Z" fill="#2F2E41"/>
<path d="M286 293.938L287.95 294C287.95 293.943 287.95 293.881 287.956 293.81C288.005 293.449 288.013 293.085 287.981 292.723C287.914 292.325 287.693 292.011 287.076 292.002C286.446 291.973 286.196 292.287 286.098 292.69C286.075 292.759 286.059 292.828 286.049 292.899V292.904C286 293.274 286.031 293.673 286 293.938Z" fill="#2F2E41"/>
<path d="M281 293.907L283.934 294C283.996 293.388 284.014 292.773 283.989 292.159C283.906 291.531 283.584 291.018 282.619 291.003C281.644 290.953 281.267 291.467 281.12 292.102C280.982 292.716 281.055 293.451 281 293.907Z" fill="#2F2E41"/>
<path d="M277 293.907L277.579 293.936L278.943 294C278.937 293.658 278.992 293.16 278.998 292.669C279.003 292.521 278.999 292.374 278.986 292.227C278.937 291.565 278.736 291.017 278.072 291.002C277.396 290.96 277.158 291.508 277.073 292.177C276.988 292.775 277.037 293.466 277 293.907Z" fill="#2F2E41"/>
<path d="M286 297.914L287.941 298C287.935 297.072 288.348 295.032 287.071 295.003C285.793 294.91 286.073 296.98 286 297.914Z" fill="#2F2E41"/>
<path d="M281 297.907L283.911 298C283.902 297.067 284.523 295.031 282.606 295.003C280.69 294.917 281.11 296.982 281 297.907Z" fill="#2F2E41"/>
<path d="M277 297.914L278.941 298C278.935 297.337 279.148 296.111 278.801 295.455C278.725 295.309 278.617 295.191 278.489 295.112C278.36 295.033 278.216 294.996 278.071 295.006C277.872 294.981 277.671 295.039 277.505 295.17C276.884 295.647 277.061 297.159 277 297.914Z" fill="#2F2E41"/>
<path d="M273 297.908L274.942 298C274.936 297.339 275.143 296.122 274.808 295.461C274.733 295.314 274.624 295.194 274.494 295.114C274.364 295.033 274.218 294.996 274.072 295.006C273.872 294.98 273.672 295.038 273.505 295.169C272.884 295.66 273.061 297.161 273 297.908Z" fill="#2F2E41"/>
<path d="M269 297.914L270.941 298C270.935 297.337 271.148 296.111 270.801 295.455C270.725 295.309 270.617 295.191 270.489 295.112C270.36 295.033 270.216 294.996 270.071 295.006C269.872 294.981 269.671 295.039 269.505 295.17C268.884 295.647 269.061 297.159 269 297.914Z" fill="#2F2E41"/>
<path d="M264 296.938L266.913 297C266.904 296.559 267.215 295.748 266.712 295.307C266.6 295.209 266.437 295.129 266.242 295.075C266.047 295.021 265.827 294.997 265.607 295.004C265.308 294.987 265.007 295.026 264.758 295.113C263.826 295.44 264.091 296.441 264 296.938Z" fill="#2F2E41"/>
<path d="M260 296.914L261.943 297C261.937 296.337 262.144 295.118 261.803 294.455C261.728 294.309 261.62 294.19 261.491 294.111C261.362 294.032 261.217 293.995 261.072 294.006C260.873 293.981 260.672 294.039 260.506 294.17C259.884 294.654 260.061 296.159 260 296.914Z" fill="#2F2E41"/>
<path d="M284.176 291.006L300.738 256.129L307 241.58L297.158 236C297.158 236 293.806 246.798 290.303 252.324C286.846 257.778 277.552 287.789 277.356 288.609C276.341 289.026 275.477 289.74 274.878 290.656C274.279 291.572 273.973 292.648 274.002 293.741C274.03 294.833 274.391 295.892 275.037 296.776C275.682 297.66 276.583 298.329 277.618 298.692C278.653 299.056 279.775 299.098 280.835 298.813C281.895 298.528 282.843 297.93 283.554 297.097C284.265 296.264 284.705 295.235 284.816 294.147C284.927 293.06 284.704 291.964 284.176 291.006H284.176Z" fill="#A0616A"/>
<path d="M284.118 258.581L296.56 266L299.381 261.785L301.261 260.827L309.038 247.627L315.915 240.703L325 212L313.179 213.753L313.164 213.758C311.058 214.862 309.174 216.835 306.591 218.575C298.454 224.056 291.438 241.816 288.095 251.718C288.04 251.881 287.815 251.994 287.554 252.105C286.314 252.628 285.295 253.559 284.669 254.739C284.044 255.919 283.849 257.276 284.118 258.581L284.118 258.581Z" fill="#FCE698"/>
</svg>
