<svg width="718" height="769" viewBox="0 0 718 769" fill="none" xmlns="http://www.w3.org/2000/svg">
<path d="M135.412 518.241C324.158 571.129 544.808 567.746 574.505 535.439C639.946 464.242 510.703 476.757 629.025 413.399C727.771 360.526 681.488 302.238 629.025 332.865C576.561 363.493 571.043 263.404 660.057 237.248C705.557 223.879 535.513 -127.024 481.057 49.5836C458.011 124.326 326.3 224.717 256.171 185.439C106.114 101.393 -63.7008 237.48 63.8922 340.406C191.485 443.333 135.412 518.241 135.412 518.241Z" fill="#D7F0D0"/>
<path d="M355 108.5C355 133.629 331.495 154 302.5 154C273.505 154 250 133.629 250 108.5C250 83.3707 273.505 63 302.5 63C331.495 63 355 83.3707 355 108.5Z" fill="#D7F0D0"/>
<path d="M408.786 90.2515C413.343 98.1416 410.639 108.231 402.749 112.787C394.858 117.343 384.769 114.639 380.213 106.748C375.657 98.8579 378.36 88.7678 386.252 84.2131C394.142 79.6575 404.232 82.3605 408.786 90.2515Z" fill="#D7F0D0"/>
<path d="M76 245L55 234.476L74.0831 226L76 245Z" fill="#C2EADC"/>
<path d="M567 92L547 80.3692L565.175 71L567 92" fill="#C2EADC"/>
<path d="M399 181L378 169.924L397.084 161L399 181Z" fill="#C2EADC"/>
<path d="M621 195L600 183.923L619.084 175L621 195Z" fill="#C2EADC"/>
<path d="M310 111L290 99.3692L308.175 90L310 111" fill="#C2EADC"/>
<path d="M501 174L480 162.923L499.084 154L501 174" fill="#C2EADC"/>
<path d="M79 194L84.2144 179L96 188.882L79 194" fill="#DEDBF1"/>
<path d="M41 287L46.2144 272L58 281.883L41 287Z" fill="#DEDBF1"/>
<path d="M280 135L285.214 119L297 129.541L280 135" fill="#DEDBF1"/>
<path d="M388 104L390.086 97.9991L392.607 102.613L388 104ZM397.864 101.03L399.731 98.7235L390.762 96.055L393.215 89L405 98.882L397.864 101.03" fill="#DEDBF1"/>
<path d="M447 145L451.907 130L463 139.882L447 145" fill="#DEDBF1"/>
<path d="M574 141L579.216 126L591 135.882L574 141Z" fill="#DEDBF1"/>
<path d="M527 197L532.521 181L545 191.54L527 197Z" fill="#DEDBF1"/>
<path d="M521 94L516 83L526 86.5763L521 94Z" fill="#EAE1CE"/>
<path d="M479 87L473 78L485 80.9258L479 87" fill="#EAE1CE"/>
<path d="M629.5 171L624 162L635 164.927L629.5 171Z" fill="#EAE1CE"/>
<path d="M351.5 190L346 180L357 183.252L351.5 190Z" fill="#EAE1CE"/>
<path d="M309.5 123L304 111L315 114.903L309.5 123" fill="#EAE1CE"/>
<path d="M260.101 99L255 90.0075C255.196 89.6701 255.398 89.3327 255.604 89L266 91.9805L260.101 99" fill="#EAE1CE"/>
<path d="M394.5 106L392.905 102.809L390.394 97.7879L389 95L391.067 95.6721L400 98.5763L398.141 101.086L394.5 106" fill="#EAE1CE"/>
<path d="M122.5 180L117 171L128 173.927L122.5 180Z" fill="#EAE1CE"/>
<path d="M42.9996 233L38 224L48 226.926L42.9996 233Z" fill="#EAE1CE"/>
<path d="M85.9995 296L80 286L92 289.252L85.9995 296Z" fill="#EAE1CE"/>
<path d="M443.5 174L438 163L449 166.576L443.5 174Z" fill="#EAE1CE"/>
<path d="M479.5 192L474 183L485 185.927L479.5 192" fill="#EAE1CE"/>
<path d="M524.5 140L519 129L530 132.576L524.5 140" fill="#EAE1CE"/>
<path d="M616.5 107L611 97L622 100.251L616.5 107Z" fill="#EAE1CE"/>
<path d="M589.5 221L584 212L595 214.927L589.5 221Z" fill="#EAE1CE"/>
<path d="M481.033 164.012C480.183 162.902 479.333 161.812 478.473 160.752C477.363 159.372 476.246 158.036 475.123 156.742C462.393 142.052 448.853 132.802 433.943 131.812H433.923L433.703 131.792L403.993 160.752L393.893 170.592L394.113 171.132L399.562 184.702H495.053C490.75 177.562 486.07 170.655 481.033 164.012V164.012Z" fill="#2F2E41"/>
<g clip-path="url(#clip0_348_6506)">
<path d="M126.451 498.181L153.344 511.126C153.412 511.56 153.488 511.985 153.572 512.399C153.937 514.172 154.443 515.727 155.057 516.963C155.671 518.199 156.378 519.088 157.134 519.572C157.892 520.064 158.683 520.133 159.453 519.773C160.222 519.413 160.953 518.634 161.597 517.487C162.762 515.423 163.578 512.288 163.876 508.723C164.174 505.159 163.932 501.436 163.199 498.317C162.467 495.198 161.3 492.92 159.937 491.949C158.575 490.978 157.119 491.388 155.87 493.095C155.653 493.396 155.443 493.736 155.244 494.112L131.885 473.532L130.689 458L121 459.653L122.004 485.69C122.126 488.729 122.624 491.585 123.425 493.835C124.226 496.085 125.287 497.609 126.451 498.181V498.181Z" fill="#9F616A"/>
<path d="M472.126 171H263.583C231.148 171 204.854 197.294 204.854 229.728V706.272C204.854 738.706 231.148 765 263.583 765H472.126C504.561 765 530.854 738.706 530.854 706.272V229.728C530.854 197.294 504.561 171 472.126 171Z" fill="#3F3D56"/>
<path d="M525.355 229.732V706.272C525.339 720.385 519.726 733.915 509.747 743.894C499.768 753.873 486.238 759.486 472.125 759.502H263.585C249.473 759.486 235.943 753.873 225.964 743.894C215.985 733.915 210.372 720.385 210.355 706.272V229.732C210.372 215.62 215.985 202.09 225.964 192.111C235.943 182.132 249.473 176.519 263.585 176.502H290.855V185.922C290.856 190.187 292.55 194.277 295.565 197.292C298.581 200.308 302.671 202.002 306.935 202.002H428.775C433.04 202.002 437.13 200.308 440.145 197.292C443.161 194.277 444.855 190.187 444.855 185.922V176.502H472.125C486.238 176.519 499.768 182.132 509.747 192.111C519.726 202.09 525.339 215.62 525.355 229.732V229.732Z" fill="white"/>
<path d="M203.354 291.5C202.294 291.499 201.277 291.077 200.527 290.327C199.778 289.577 199.356 288.56 199.354 287.5V279.5C199.354 278.439 199.776 277.422 200.526 276.672C201.276 275.921 202.294 275.5 203.354 275.5C204.415 275.5 205.433 275.921 206.183 276.672C206.933 277.422 207.354 278.439 207.354 279.5V287.5C207.353 288.56 206.931 289.577 206.182 290.327C205.432 291.077 204.415 291.499 203.354 291.5V291.5Z" fill="#3F3D56"/>
<path d="M203.354 332.521C202.294 332.52 201.277 332.098 200.527 331.349C199.778 330.599 199.356 329.582 199.354 328.521V306.5C199.354 305.439 199.776 304.422 200.526 303.672C201.276 302.921 202.294 302.5 203.354 302.5C204.415 302.5 205.433 302.921 206.183 303.672C206.933 304.422 207.354 305.439 207.354 306.5V328.521C207.353 329.582 206.931 330.599 206.182 331.349C205.432 332.098 204.415 332.52 203.354 332.521V332.521Z" fill="#3F3D56"/>
<path d="M203.354 365.5C202.294 365.499 201.277 365.077 200.527 364.327C199.778 363.577 199.356 362.56 199.354 361.5V339.479C199.354 338.418 199.776 337.4 200.526 336.65C201.276 335.9 202.294 335.479 203.354 335.479C204.415 335.479 205.433 335.9 206.183 336.65C206.933 337.4 207.354 338.418 207.354 339.479V361.5C207.353 362.56 206.931 363.577 206.182 364.327C205.432 365.077 204.415 365.499 203.354 365.5V365.5Z" fill="#3F3D56"/>
<path d="M531.354 347.5C530.294 347.499 529.277 347.077 528.527 346.327C527.778 345.577 527.356 344.56 527.354 343.5V289.767C527.354 288.706 527.776 287.688 528.526 286.938C529.276 286.188 530.294 285.767 531.354 285.767C532.415 285.767 533.433 286.188 534.183 286.938C534.933 287.688 535.354 288.706 535.354 289.767V343.5C535.353 344.56 534.931 345.577 534.182 346.327C533.432 347.077 532.415 347.499 531.354 347.5V347.5Z" fill="#3F3D56"/>
<path d="M376.447 189.346H345.447C344.784 189.346 344.148 189.082 343.68 188.613C343.211 188.145 342.947 187.509 342.947 186.846C342.947 186.183 343.211 185.547 343.68 185.078C344.148 184.609 344.784 184.346 345.447 184.346H376.447C377.11 184.346 377.746 184.609 378.215 185.078C378.684 185.547 378.947 186.183 378.947 186.846C378.947 187.509 378.684 188.145 378.215 188.613C377.746 189.082 377.11 189.346 376.447 189.346Z" fill="white"/>
<path d="M392.447 188.846C393.552 188.846 394.447 187.95 394.447 186.846C394.447 185.741 393.552 184.846 392.447 184.846C391.343 184.846 390.447 185.741 390.447 186.846C390.447 187.95 391.343 188.846 392.447 188.846Z" fill="white"/>
<path d="M278.94 200.073H251.94C250.614 200.073 249.343 199.546 248.405 198.609C247.467 197.671 246.94 196.399 246.94 195.073C246.94 193.747 247.467 192.475 248.405 191.537C249.343 190.6 250.614 190.073 251.94 190.073H278.94C280.267 190.073 281.538 190.6 282.476 191.537C283.414 192.475 283.94 193.747 283.94 195.073C283.94 196.399 283.414 197.671 282.476 198.609C281.538 199.546 280.267 200.073 278.94 200.073Z" fill="#E6E6E6"/>
<path d="M455.94 199.573C458.426 199.573 460.44 197.558 460.44 195.073C460.44 192.588 458.426 190.573 455.94 190.573C453.455 190.573 451.44 192.588 451.44 195.073C451.44 197.558 453.455 199.573 455.94 199.573Z" fill="#E6E6E6"/>
<path d="M469.94 199.573C472.426 199.573 474.44 197.558 474.44 195.073C474.44 192.588 472.426 190.573 469.94 190.573C467.455 190.573 465.44 192.588 465.44 195.073C465.44 197.558 467.455 199.573 469.94 199.573Z" fill="#E6E6E6"/>
<path d="M483.94 199.573C486.426 199.573 488.44 197.558 488.44 195.073C488.44 192.588 486.426 190.573 483.94 190.573C481.455 190.573 479.44 192.588 479.44 195.073C479.44 197.558 481.455 199.573 483.94 199.573Z" fill="#E6E6E6"/>
<path d="M452.794 269.957H283.094C279.807 269.962 276.656 271.269 274.331 273.594C272.007 275.918 270.699 279.07 270.694 282.357V392.667C270.699 395.954 272.007 399.106 274.331 401.43C276.656 403.755 279.807 405.063 283.094 405.067H452.794C456.082 405.064 459.235 403.757 461.559 401.432C463.884 399.107 465.192 395.955 465.194 392.667V282.357C465.192 279.069 463.884 275.917 461.559 273.592C459.235 271.267 456.082 269.96 452.794 269.957V269.957Z" fill="#F2F2F2"/>
<path d="M399.667 317.049C384.331 344.164 367.408 370.349 348.985 395.469H322.373C339.804 374.233 357.248 352.998 374.705 331.762C379.713 325.648 385.148 319.242 392.66 316.758L399.667 317.049Z" fill="#3F3D56"/>
<path d="M364.3 312.701C361.524 315.593 358.865 318.602 356.361 321.727C350.849 328.366 345.414 335.062 339.959 341.74C336.562 345.893 333.165 350.047 329.807 354.201C328.741 353.516 327.729 352.751 326.779 351.911C321.416 347.256 318.089 340.685 317.512 333.606C316.935 326.527 319.153 319.504 323.692 314.042C328.23 308.579 334.728 305.111 341.793 304.382C348.857 303.652 355.927 305.719 361.486 310.139C362.488 310.92 363.428 311.777 364.3 312.701V312.701Z" fill="#B2E5E9"/>
<path d="M465.194 309.547V313.577L463.394 312.917L438.064 303.657C429.814 300.647 421.584 297.207 413.064 295.037C405.652 292.917 397.78 293.018 390.424 295.327C383.868 297.753 377.868 301.477 372.784 306.277C370.534 308.357 368.354 310.487 366.244 312.697C365.554 313.427 364.864 314.157 364.184 314.887C362.144 317.107 360.174 319.377 358.304 321.727C352.794 328.367 347.354 335.067 341.904 341.737C338.504 345.897 335.104 350.047 331.744 354.197C320.524 367.927 309.371 381.684 298.284 395.467C296.791 395.45 295.305 395.262 293.854 394.907C305.164 380.857 316.528 366.844 327.944 352.867C328.204 352.547 328.464 352.227 328.724 351.907C330.064 350.237 331.434 348.557 332.794 346.887C338.484 339.917 344.178 332.954 349.874 325.997C354.014 320.937 358.124 315.857 362.584 311.057C362.854 310.747 363.134 310.447 363.424 310.137C363.854 309.677 364.284 309.227 364.724 308.757C374.414 298.747 386.504 289.897 400.984 289.657C409.504 289.527 417.734 292.227 425.654 295.077C434.184 298.167 442.684 301.307 451.204 304.427L465.194 309.547Z" fill="#3F3D56"/>
<path d="M469.185 648.618H266.526C263.239 648.614 260.087 647.307 257.763 644.982C255.438 642.658 254.131 639.506 254.127 636.219V608.906C254.131 605.619 255.438 602.467 257.763 600.143C260.087 597.818 263.239 596.511 266.526 596.507H469.185C472.472 596.511 475.624 597.818 477.948 600.143C480.273 602.467 481.58 605.619 481.584 608.906V636.219C481.58 639.506 480.273 642.658 477.948 644.982C475.624 647.307 472.472 648.614 469.185 648.618Z" fill="#F2F2F2"/>
<path d="M469.185 508.618H266.526C263.239 508.614 260.087 507.307 257.763 504.982C255.438 502.658 254.131 499.506 254.127 496.219V468.906C254.131 465.619 255.438 462.467 257.763 460.143C260.087 457.818 263.239 456.511 266.526 456.507H469.185C472.472 456.511 475.624 457.818 477.948 460.143C480.273 462.467 481.58 465.619 481.584 468.906V496.219C481.58 499.506 480.273 502.658 477.948 504.982C475.624 507.307 472.472 508.614 469.185 508.618V508.618Z" fill="#F2F2F2"/>
<path d="M469.185 578.618H266.526C263.239 578.614 260.087 577.307 257.763 574.982C255.438 572.658 254.131 569.506 254.127 566.219V538.906C254.131 535.619 255.438 532.467 257.763 530.143C260.087 527.818 263.239 526.511 266.526 526.507H469.185C472.472 526.511 475.624 527.818 477.948 530.143C480.273 532.467 481.58 535.619 481.584 538.906V566.219C481.58 569.506 480.273 572.658 477.948 574.982C475.624 577.307 472.472 578.614 469.185 578.618V578.618Z" fill="#F2F2F2"/>
<path d="M392.477 617.888H332.765C332.056 617.888 331.377 617.607 330.876 617.106C330.375 616.605 330.094 615.926 330.094 615.217C330.094 614.509 330.375 613.829 330.876 613.328C331.377 612.827 332.056 612.546 332.765 612.546H392.477C393.185 612.546 393.864 612.827 394.365 613.328C394.866 613.829 395.148 614.509 395.148 615.217C395.148 615.926 394.866 616.605 394.365 617.106C393.864 617.607 393.185 617.888 392.477 617.888V617.888Z" fill="white"/>
<path d="M449.907 632.58H332.097C331.389 632.58 330.709 632.298 330.208 631.797C329.707 631.296 329.426 630.617 329.426 629.909C329.426 629.2 329.707 628.521 330.208 628.02C330.709 627.519 331.389 627.237 332.097 627.237H449.907C450.615 627.237 451.294 627.519 451.795 628.02C452.296 628.521 452.578 629.2 452.578 629.909C452.578 630.617 452.296 631.296 451.795 631.797C451.294 632.298 450.615 632.58 449.907 632.58V632.58Z" fill="white"/>
<path d="M301.042 640.472C310.933 640.472 318.952 632.454 318.952 622.563C318.952 612.672 310.933 604.653 301.042 604.653C291.151 604.653 283.133 612.672 283.133 622.563C283.133 632.454 291.151 640.472 301.042 640.472Z" fill="white"/>
<path d="M631.185 508.618H428.526C425.239 508.614 422.087 507.307 419.763 504.982C417.438 502.658 416.131 499.506 416.127 496.219V468.906C416.131 465.619 417.438 462.467 419.763 460.143C422.087 457.818 425.239 456.511 428.526 456.507H631.185C634.472 456.511 637.624 457.818 639.948 460.143C642.273 462.467 643.58 465.619 643.584 468.906V496.219C643.58 499.506 642.273 502.658 639.948 504.982C637.624 507.307 634.472 508.614 631.185 508.618V508.618Z" fill="#E6E6E6"/>
<path d="M554.477 477.888H494.765C494.056 477.888 493.377 477.607 492.876 477.106C492.375 476.605 492.094 475.926 492.094 475.217C492.094 474.509 492.375 473.829 492.876 473.328C493.377 472.827 494.056 472.546 494.765 472.546H554.477C555.185 472.546 555.864 472.827 556.365 473.328C556.866 473.829 557.148 474.509 557.148 475.217C557.148 475.926 556.866 476.605 556.365 477.106C555.864 477.607 555.185 477.888 554.477 477.888V477.888Z" fill="white"/>
<path d="M611.907 492.58H494.097C493.389 492.58 492.709 492.298 492.208 491.797C491.707 491.296 491.426 490.617 491.426 489.908C491.426 489.2 491.707 488.521 492.208 488.02C492.709 487.519 493.389 487.237 494.097 487.237H611.907C612.615 487.237 613.294 487.519 613.795 488.02C614.296 488.521 614.578 489.2 614.578 489.908C614.578 490.617 614.296 491.296 613.795 491.797C613.294 492.298 612.615 492.58 611.907 492.58V492.58Z" fill="white"/>
<path d="M463.042 500.472C472.933 500.472 480.952 492.454 480.952 482.563C480.952 472.672 472.933 464.653 463.042 464.653C453.151 464.653 445.133 472.672 445.133 482.563C445.133 492.454 453.151 500.472 463.042 500.472Z" fill="white"/>
<path d="M566.185 578.618H363.526C360.239 578.614 357.087 577.307 354.763 574.982C352.438 572.658 351.131 569.506 351.127 566.219V538.906C351.131 535.619 352.438 532.467 354.763 530.143C357.087 527.818 360.239 526.511 363.526 526.507H566.185C569.472 526.511 572.624 527.818 574.948 530.143C577.273 532.467 578.58 535.619 578.584 538.906V566.219C578.58 569.506 577.273 572.658 574.948 574.982C572.624 577.307 569.472 578.614 566.185 578.618V578.618Z" fill="#E6E6E6"/>
<path d="M489.477 547.888H429.765C429.056 547.888 428.377 547.607 427.876 547.106C427.375 546.605 427.094 545.926 427.094 545.217C427.094 544.509 427.375 543.829 427.876 543.328C428.377 542.827 429.056 542.546 429.765 542.546H489.477C490.185 542.546 490.864 542.827 491.365 543.328C491.866 543.829 492.148 544.509 492.148 545.217C492.148 545.926 491.866 546.605 491.365 547.106C490.864 547.607 490.185 547.888 489.477 547.888V547.888Z" fill="white"/>
<path d="M546.907 562.58H429.097C428.389 562.58 427.709 562.298 427.208 561.797C426.707 561.296 426.426 560.617 426.426 559.909C426.426 559.2 426.707 558.521 427.208 558.02C427.709 557.519 428.389 557.237 429.097 557.237H546.907C547.615 557.237 548.294 557.519 548.795 558.02C549.296 558.521 549.578 559.2 549.578 559.909C549.578 560.617 549.296 561.296 548.795 561.797C548.294 562.298 547.615 562.58 546.907 562.58V562.58Z" fill="white"/>
<path d="M398.042 570.472C407.933 570.472 415.952 562.454 415.952 552.563C415.952 542.672 407.933 534.653 398.042 534.653C388.151 534.653 380.133 542.672 380.133 552.563C380.133 562.454 388.151 570.472 398.042 570.472Z" fill="white"/>
<path d="M222 569.086C222.011 567.114 221.604 565.162 220.807 563.358C220.009 561.554 218.839 559.938 217.372 558.617C215.905 557.295 214.175 556.298 212.295 555.691C210.415 555.083 208.428 554.879 206.464 555.091C205.842 555.161 205.226 555.275 204.621 555.43L157.153 514.825L159.99 499.567L136.594 492L129.54 516.453C128.705 519.387 128.841 522.512 129.927 525.364C131.014 528.215 132.992 530.641 135.569 532.282L193.962 569.14C193.963 569.598 193.987 570.056 194.034 570.512C194.247 572.473 194.873 574.366 195.871 576.069C196.868 577.771 198.215 579.244 199.823 580.391C201.431 581.537 203.263 582.332 205.2 582.723C207.137 583.113 209.135 583.091 211.063 582.657C211.623 582.534 212.175 582.375 212.715 582.181C215.418 581.206 217.756 579.428 219.416 577.087C221.076 574.746 221.978 571.954 222 569.086V569.086Z" fill="#9F616A"/>
<path d="M103.087 617H164.873C164.873 618.789 228.552 620.241 228.552 620.241C229.551 620.999 230.462 621.869 231.267 622.833C233.686 625.739 235.008 629.412 235 633.204V635.796C234.998 640.093 233.303 644.214 230.286 647.252C227.27 650.291 223.179 651.998 218.913 652H103.087C98.8216 651.996 94.7319 650.288 91.7158 647.25C88.6998 644.212 87.0037 640.093 87 635.796V633.204C87.0059 628.908 88.7027 624.79 91.7183 621.753C94.7339 618.715 98.8222 617.006 103.087 617V617Z" fill="#3F3D56"/>
<path d="M171 650H153V759H171V650Z" fill="#3F3D56"/>
<path d="M218 759.855C218 761.854 192.704 760.628 161.5 760.628C130.296 760.628 105 761.854 105 759.855C105 757.855 130.296 742 161.5 742C192.704 742 218 757.855 218 759.855Z" fill="#3F3D56"/>
<path d="M203.003 746L218.586 745.998L226 704L203 704.002L203.003 746Z" fill="#9F616A"/>
<path d="M199.001 761L250 760.998V760.337C250 757.666 249.487 755.022 248.489 752.555C247.492 750.087 246.03 747.845 244.186 745.957C242.343 744.068 240.155 742.57 237.747 741.548C235.338 740.526 232.757 740 230.15 740H230.148L199 740.001L199.001 761Z" fill="#2F2E41"/>
<path d="M226.237 719.591L257.789 649.526C260.423 643.621 260.714 636.95 258.605 630.841C256.495 624.733 252.139 619.635 246.404 616.564L177.966 580.223L146.736 577.593L117.929 575L117.721 575.348C117.456 575.793 111.262 586.387 115.449 598.003C118.624 606.814 126.885 613.697 140.001 618.46C170.615 629.575 205.981 639.076 219.765 642.644C220.374 642.798 220.943 643.078 221.435 643.466C221.927 643.854 222.331 644.34 222.619 644.893C222.909 645.44 223.081 646.04 223.124 646.656C223.168 647.272 223.082 647.89 222.873 648.471L193.56 713.687C193.253 714.514 193.143 715.4 193.237 716.276C193.332 717.152 193.628 717.994 194.103 718.739C194.578 719.484 195.22 720.111 195.978 720.571C196.736 721.031 197.591 721.313 198.477 721.395L220.38 722.974C220.566 722.991 220.751 723 220.936 723C222.057 723 223.155 722.677 224.096 722.072C225.037 721.467 225.78 720.605 226.237 719.591V719.591Z" fill="#CBCBCB"/>
<path d="M192.002 746L208.263 745.998L216 704L192 704.002L192.002 746Z" fill="#9F616A"/>
<path d="M188.001 761L239 760.998V760.337C239 757.666 238.487 755.022 237.489 752.555C236.492 750.087 235.03 747.845 233.186 745.957C231.343 744.068 229.155 742.57 226.747 741.548C224.338 740.526 221.757 740 219.15 740H219.148L188 740.001L188.001 761Z" fill="#2F2E41"/>
<path d="M215.127 723.583L246.782 653.353C249.425 647.434 249.717 640.747 247.6 634.624C245.484 628.501 241.113 623.392 235.36 620.313L166.699 583.887L135.367 581.25L112.73 579.307L112.733 579C112.467 579.445 106.253 590.064 110.453 601.708C113.639 610.54 115.451 617.439 128.61 622.213C159.324 633.355 194.805 642.878 208.634 646.454C209.245 646.609 209.816 646.89 210.31 647.278C210.803 647.667 211.208 648.155 211.497 648.709C211.788 649.257 211.96 649.859 212.004 650.476C212.048 651.093 211.962 651.713 211.752 652.295L182.343 717.665C182.036 718.494 181.925 719.382 182.02 720.26C182.114 721.138 182.411 721.983 182.888 722.729C183.365 723.476 184.008 724.104 184.769 724.565C185.53 725.027 186.388 725.309 187.277 725.391L209.251 726.974C209.438 726.991 209.624 727 209.808 727C210.934 727 212.035 726.677 212.979 726.07C213.923 725.464 214.669 724.6 215.127 723.583Z" fill="#CBCBCB"/>
<path d="M155.812 581.056C157.329 579.976 179.116 591.477 183 582.359C164.875 536.766 177.365 517.079 166.262 490.934C164.307 486.424 161.361 482.42 157.646 479.22C153.931 476.021 149.544 473.711 144.814 472.463L116.008 471L115.859 471.073C109.358 474.276 104.057 479.502 100.741 485.975C97.4252 492.448 96.2708 499.825 97.4493 507.01C97.5518 535.464 114.472 557.165 108.556 577.803C108.308 578.666 108.235 579.57 108.343 580.462C108.451 581.354 108.736 582.214 109.182 582.992C109.615 583.744 110.196 584.399 110.89 584.916C111.583 585.433 112.375 585.802 113.216 586L151.252 580.895C152.14 581.108 153.063 581.127 153.96 580.953C154.857 580.778 155.706 580.413 156.452 579.882L155.812 581.056Z" fill="#FCE698"/>
<path d="M125.5 461C142.897 461 157 446.673 157 429C157 411.327 142.897 397 125.5 397C108.103 397 94 411.327 94 429C94 446.673 108.103 461 125.5 461Z" fill="#9F616A"/>
<path d="M115.592 457.971C117.28 458.702 120.737 445.397 119.188 442.736C116.885 438.779 117.022 438.807 115.493 436.189C113.964 433.571 113.622 429.987 115.602 427.684C117.581 425.38 122.163 425.686 123.066 428.574C122.485 423.088 127.971 418.678 133.406 417.439C138.84 416.199 144.572 416.969 150.036 415.866C156.378 414.586 162.976 409.328 160.446 402.431C160.012 401.282 159.362 400.226 158.53 399.316C155.607 396.065 151.517 394.677 147.519 393.335C139.202 390.542 130.656 387.715 121.878 388.023C107.455 388.53 93.8213 398.391 88.9619 411.833C88.357 413.51 87.8883 415.233 87.5604 416.983C84.5474 433.008 93.9554 448.814 109.236 454.916L115.592 457.971Z" fill="#2F2E41"/>
<path d="M281.39 509.102L284.982 530.573C285.022 530.813 284.996 531.059 284.906 531.284L256.726 602.169C256.614 602.45 256.41 602.684 256.148 602.832C255.886 602.979 255.582 603.032 255.285 602.981C254.989 602.93 254.72 602.779 254.521 602.552C254.323 602.325 254.208 602.036 254.195 601.734L253.001 573.248C252.993 573.059 253.026 572.871 253.097 572.695L278.879 508.824C278.986 508.558 279.177 508.334 279.423 508.186C279.668 508.039 279.955 507.976 280.239 508.008C280.523 508.039 280.789 508.163 280.997 508.361C281.204 508.558 281.342 508.819 281.39 509.102V509.102Z" fill="#3F3D56"/>
<path d="M278.617 510L282 528.639L257.218 594L254 572.975L278.617 510Z" fill="#6C63FF"/>
<path d="M169.02 601.624C169.636 604.013 250.58 606.599 251.419 605.877C252.172 604.95 252.825 603.948 253.366 602.886C254.215 601.382 255 599.874 255 599.874L253.67 574.459L173.934 566C173.934 566 170.407 587.208 169.299 596.952C169.049 598.496 168.955 600.061 169.02 601.624Z" fill="#3F3D56"/>
<path opacity="0.1" d="M242.993 577.352L243 599L208 596.539L209.549 575L242.993 577.352Z" fill="black"/>
<path opacity="0.1" d="M197.779 580.61L198 580.58L196.277 591L176 589.452L176.692 579L197.779 580.61Z" fill="black"/>
<path opacity="0.1" d="M169.02 602.131C169.641 604.243 251.193 606.53 252.038 605.891C252.797 605.072 253.455 604.186 254 603.247L169.301 598C169.049 599.365 168.955 600.749 169.02 602.131Z" fill="black"/>
<path d="M136.07 564.181L205.494 577.126C205.667 577.56 205.863 577.985 206.081 578.399C207.024 580.172 208.33 581.727 209.914 582.963C211.498 584.199 213.325 585.088 215.276 585.572C217.234 586.064 219.275 586.133 221.262 585.773C223.248 585.413 225.135 584.634 226.796 583.487C229.805 581.423 231.91 578.288 232.679 574.723C233.448 571.159 232.823 567.436 230.933 564.317C229.043 561.198 226.03 558.92 222.512 557.949C218.995 556.978 215.239 557.388 212.014 559.095C211.452 559.396 210.912 559.736 210.398 560.112L150.098 539.532L147.012 524L122 525.653L124.592 551.69C124.906 554.729 126.193 557.585 128.26 559.835C130.328 562.085 133.067 563.609 136.07 564.181V564.181Z" fill="#9F616A"/>
<path d="M121.341 537L157 525.321L148.682 501.521C147.577 498.361 145.387 495.691 142.499 493.984C139.61 492.277 136.209 491.643 132.896 492.193V492.193C129.546 492.75 126.505 494.482 124.323 497.077C122.142 499.672 120.963 502.959 121.001 506.344L121.341 537Z" fill="#FCE698"/>
<path d="M350.206 762H47.7937C47.5832 762 47.3813 761.947 47.2325 761.854C47.0836 761.76 47 761.633 47 761.5C47 761.367 47.0836 761.24 47.2325 761.146C47.3813 761.053 47.5832 761 47.7937 761H350.206C350.417 761 350.619 761.053 350.767 761.146C350.916 761.24 351 761.367 351 761.5C351 761.633 350.916 761.76 350.767 761.854C350.619 761.947 350.417 762 350.206 762Z" fill="#CBCBCB"/>
<path d="M644.016 553.894C644.093 552.226 644.524 550.595 645.28 549.116C646.035 547.638 647.096 546.348 648.389 545.337C649.681 544.327 651.173 543.62 652.759 543.267C654.345 542.914 655.988 542.923 657.57 543.294L672.251 522L687 528.026L665.857 557.798C665.076 560.493 663.361 562.799 661.038 564.279C658.714 565.76 655.944 566.312 653.252 565.831C650.56 565.349 648.133 563.869 646.43 561.669C644.728 559.469 643.869 556.702 644.016 553.894V553.894Z" fill="#A0616A"/>
<path d="M660 532.503L686.593 487.962L675.758 459.189L690.514 420L691.059 420.233C691.415 420.385 699.8 424.111 701.043 437.455L718 490.53L672.743 549L660 532.503Z" fill="#B2E5E9"/>
<path d="M515.825 372.096C517.461 372.299 519.033 372.852 520.429 373.719C521.824 374.585 523.011 375.743 523.904 377.11C524.797 378.478 525.376 380.022 525.598 381.634C525.821 383.245 525.683 384.886 525.194 386.439L545 402.714L537.91 417L510.267 393.629C507.676 392.645 505.541 390.758 504.266 388.325C502.991 385.891 502.666 383.082 503.351 380.427C504.036 377.773 505.684 375.459 507.983 373.923C510.282 372.388 513.073 371.738 515.825 372.096V372.096Z" fill="#A0616A"/>
<path d="M628.604 423.735C627.659 422.384 627.018 420.846 626.727 419.229C626.436 417.612 626.502 415.956 626.92 414.377C627.337 412.798 628.097 411.334 629.145 410.09C630.193 408.845 631.504 407.849 632.986 407.173L631.814 381.564L647.173 377.267L648.32 413.447C649.324 416.03 649.351 418.88 648.397 421.456C647.444 424.032 645.574 426.155 643.144 427.423C640.714 428.691 637.891 429.016 635.212 428.336C632.532 427.657 630.181 426.019 628.604 423.735V423.735Z" fill="#A0616A"/>
<path d="M532.532 389L575.144 418.93L604.84 410.373L643 428.103L642.725 428.627C642.544 428.97 638.158 437.029 624.679 437.232L570.136 450L515 400.408L532.532 389Z" fill="#B2E5E9"/>
<path d="M609.998 753H595.768L589 696L610 696.001L609.998 753Z" fill="#A0616A"/>
<path d="M585.159 749H614V767H567C567 764.636 567.47 762.296 568.382 760.112C569.295 757.928 570.632 755.944 572.319 754.272C574.005 752.601 576.007 751.275 578.21 750.37C580.413 749.466 582.774 749 585.159 749V749Z" fill="#2F2E41"/>
<path d="M668.998 753H654.768L648 696L669 696.001L668.998 753Z" fill="#A0616A"/>
<path d="M644.159 749H673V767H626C626 764.636 626.47 762.296 627.382 760.112C628.295 757.928 629.632 755.944 631.319 754.272C633.005 752.601 635.007 751.275 637.21 750.37C639.413 749.466 641.774 749 644.159 749V749Z" fill="#2F2E41"/>
<path d="M675 545L673.784 629.692L672.567 741L645.811 738.58L632.433 584.926L615.406 738.58H587.783L585 583.715L594.73 549.839L675 545Z" fill="#2F2E41"/>
<path d="M592.047 550.976L588 550.8L606.797 447.084L599.1 415.736C598.7 414.105 598.912 412.384 599.694 410.898C600.476 409.413 601.776 408.266 603.346 407.676L617.193 402.476L622.085 389L660.684 393.166L661.633 403.697C665.815 405.041 700.259 416.531 697.883 429.622C695.537 442.544 681.687 483.197 680.984 485.258L678.559 543.56L678.26 543.709C677.901 543.889 651.296 556.992 622.394 556.99C611.967 557.164 601.622 555.114 592.047 550.976V550.976Z" fill="#B2E5E9"/>
<path d="M640 383C655.464 383 668 370.464 668 355C668 339.536 655.464 327 640 327C624.536 327 612 339.536 612 355C612 370.464 624.536 383 640 383Z" fill="#A0616A"/>
<path d="M662.51 382.105C657.242 387.719 647.459 384.706 646.772 377.036C646.718 376.44 646.722 375.841 646.784 375.246C647.138 371.849 649.1 368.765 648.63 365.177C648.524 364.285 648.191 363.434 647.664 362.706C643.466 357.082 633.612 365.221 629.65 360.13C627.221 357.008 630.076 352.093 628.212 348.604C625.751 343.999 618.463 346.27 613.893 343.748C608.808 340.942 609.112 333.137 612.46 328.389C616.542 322.599 623.699 319.51 630.767 319.065C637.836 318.619 644.855 320.531 651.454 323.104C658.951 326.027 666.386 330.067 671 336.662C676.611 344.683 677.151 355.467 674.345 364.846C672.638 370.551 666.812 377.521 662.51 382.105Z" fill="#2F2E41"/>
<path d="M161 199L141 187.369L159.173 178L161 199" fill="#C2EADC"/>
<path d="M192 195L197.522 179L210 189.541L192 195Z" fill="#DEDBF1"/>
</g>
<path d="M396.576 48.194C404.093 64.1892 388.166 68.7198 369.921 77.293C351.677 85.8662 338.024 95.2355 330.507 79.2404C322.991 63.2452 316.893 31.4977 342.703 19.3694C369.402 6.82334 389.06 32.1989 396.576 48.194Z" fill="#2F2E41"/>
<path d="M359.353 79.6501C372.918 79.6501 383.914 68.6538 383.914 55.0891C383.914 41.5244 372.918 30.5281 359.353 30.5281C345.788 30.5281 334.792 41.5244 334.792 55.0891C334.792 68.6538 345.788 79.6501 359.353 79.6501Z" fill="#FFB8B8"/>
<path d="M332.644 64.9773L341.436 60.8458L340.212 48.1625L346.091 58.6587L350.293 56.6841L349.579 49.2854L353.008 55.4082L384.232 40.7356C381.3 34.4947 376.008 29.6744 369.521 27.3351C363.035 24.9958 355.884 25.3291 349.644 28.2617L345.118 30.3882C338.877 33.3209 334.057 38.6126 331.718 45.0993C329.378 51.586 329.712 58.7363 332.644 64.9773V64.9773Z" fill="#2F2E41"/>
<path d="M495.662 147.912C494.864 146.614 493.809 145.493 492.562 144.616C491.316 143.739 489.904 143.126 488.412 142.812C487.866 142.697 487.311 142.627 486.753 142.602L410.562 74.4823C409.066 72.9441 407.069 71.9903 404.932 71.7923C404.511 71.7439 404.086 71.7305 403.662 71.7523C401.905 71.8322 400.208 72.4226 398.78 73.4512C397.353 74.4799 396.255 75.9023 395.623 77.5445C394.991 79.1867 394.851 80.9775 395.22 82.698C395.589 84.4186 396.452 85.9942 397.702 87.2323L426.872 112.662L474.772 154.412C474.812 155.199 474.929 155.979 475.122 156.742C475.696 158.953 476.928 160.938 478.655 162.432C480.381 163.927 482.522 164.862 484.792 165.112C486.863 165.354 488.96 165.008 490.843 164.112C492.335 163.414 493.659 162.401 494.722 161.142C494.832 161.012 494.932 160.892 495.032 160.752C496.431 158.93 497.24 156.725 497.353 154.431C497.465 152.137 496.876 149.863 495.662 147.912H495.662Z" fill="#FFB8B8"/>
<path d="M411.201 130.95C410.826 129.895 410.332 128.982 409.747 128.269C409.162 127.556 408.5 127.057 407.801 126.802C407.544 126.709 407.284 126.652 407.022 126.631L371.29 71.2286C370.588 69.9775 369.652 69.2018 368.65 69.0408C368.452 69.0014 368.253 68.9905 368.054 69.0083C367.229 69.0732 366.434 69.5534 365.764 70.39C365.095 71.2266 364.58 72.3835 364.284 73.7191C363.987 75.0547 363.921 76.5112 364.095 77.9105C364.268 79.3098 364.672 80.5913 365.259 81.5983L378.939 102.281L401.404 136.237C401.422 136.876 401.477 137.511 401.568 138.132C401.837 139.93 402.414 141.544 403.224 142.76C404.034 143.975 405.038 144.735 406.103 144.939C407.074 145.136 408.057 144.854 408.94 144.126C409.64 143.558 410.261 142.734 410.76 141.71C410.812 141.604 410.859 141.507 410.905 141.393C411.561 139.911 411.941 138.117 411.994 136.252C412.046 134.386 411.77 132.536 411.201 130.95H411.201Z" fill="#FFB8B8"/>
<path d="M365.343 213.562L364.633 184.702L364.032 160.752L363.622 143.992L362.812 111.322C362.652 109.573 361.986 107.909 360.896 106.532C359.805 105.155 358.337 104.125 356.671 103.568C355.005 103.011 353.213 102.952 351.514 103.397C349.815 103.841 348.282 104.771 347.102 106.072C346.825 106.37 346.574 106.691 346.352 107.032C345.121 108.796 344.567 110.944 344.792 113.082L346.572 160.752L347.463 184.702L348.602 215.252C348.273 215.701 347.976 216.172 347.713 216.662C347.001 218.011 346.572 219.49 346.45 221.009C346.328 222.529 346.516 224.058 347.003 225.502C347.511 227.017 348.334 228.408 349.418 229.582C350.502 230.755 351.823 231.686 353.293 232.312C354.763 232.939 356.349 233.247 357.947 233.216C359.545 233.185 361.118 232.815 362.562 232.132C364.24 231.339 365.697 230.145 366.804 228.655C367.91 227.165 368.633 225.425 368.908 223.589C369.183 221.754 369.001 219.879 368.379 218.13C367.758 216.381 366.714 214.812 365.342 213.562H365.343Z" fill="#FFB8B8"/>
<path d="M433.943 131.812L426.873 112.662L415.433 81.6424C414.607 79.3854 413.284 77.3432 411.562 75.6675C409.839 73.9917 407.762 72.7253 405.483 71.9624C405.303 71.9024 405.113 71.8424 404.933 71.7923C402.725 71.1223 400.399 70.938 398.114 71.2522C395.828 71.5663 393.638 72.3715 391.693 73.6123L353.163 98.0523C349.634 100.285 347.112 103.803 346.128 107.861C345.145 111.92 345.778 116.202 347.893 119.802C352.711 128.134 357.962 136.208 363.623 143.992C368.113 150.102 376.473 150.752 377.923 160.752H406.333L435.093 134.932L433.943 131.812Z" fill="#0A073A"/>
<defs>
<clipPath id="clip0_348_6506">
<rect width="717.67" height="596.329" fill="white" transform="translate(0 171)"/>
</clipPath>
</defs>
</svg>
