<?xml version="1.0" encoding="UTF-8" standalone="no"?>
<svg
   xmlns:dc="http://purl.org/dc/elements/1.1/"
   xmlns:cc="http://creativecommons.org/ns#"
   xmlns:rdf="http://www.w3.org/1999/02/22-rdf-syntax-ns#"
   xmlns:svg="http://www.w3.org/2000/svg"
   xmlns="http://www.w3.org/2000/svg"
   xmlns:sodipodi="http://sodipodi.sourceforge.net/DTD/sodipodi-0.dtd"
   xmlns:inkscape="http://www.inkscape.org/namespaces/inkscape"
   version="1.1"
   id="svg2"
   xml:space="preserve"
   width="1518.8933"
   height="1346.8933"
   viewBox="0 0 1518.8933 1346.8933"
   sodipodi:docname="reshot-illustration-virtual-education-Q7GTEMANF5.eps"><metadata
     id="metadata8"><rdf:RDF><cc:Work
         rdf:about=""><dc:format>image/svg+xml</dc:format><dc:type
           rdf:resource="http://purl.org/dc/dcmitype/StillImage" /></cc:Work></rdf:RDF></metadata><defs
     id="defs6"><clipPath
       clipPathUnits="userSpaceOnUse"
       id="clipPath154"><path
         d="m 8585.07,2430.18 h -4804.6 l 24.28,82.26 c 13.82,45.25 -6.24,77.66 -44.98,77.66 -2.94,0 -5.98,-0.19 -9.12,-0.57 l -139.58,-17.13 46.62,155.08 c 13.56,45.1 -6.37,78.43 -44.91,78.43 -2.86,0 -5.82,-0.18 -8.87,-0.56 l -115.35,-14.19 c -4.98,35.33 -7.54,62.18 -7.04,76.95 13.53,397.6 -36.51,945.31 -205.55,1006.17 -50.51,10.48 -101.69,18.27 -153.07,23.38 1.25,61.28 3.28,125.25 6.34,192.48 -8.12,1.59 -16.24,3.13 -24.37,4.61 17.99,67.69 27.06,153.67 25.04,236.61 0.01,-0.17 0.1,-1.34 1.35,-1.34 50.05,112.24 56.81,250.18 -60.85,332.68 -28.51,16.29 -65.66,35.27 -108.03,49.28 -12.76,47.6 -31.5,86.82 -56.9,110.77 l -343.84,-78.95 -104.28,-157.54 v 1358.22 c 0,90.18 73.79,163.96 163.96,163.96 h 2107.09 c 0,-0.03 0,-0.05 0,-0.07 0,-22.99 -5.41,-43.28 -14.88,-59.5 -4.85,1.45 -9.88,2.21 -14.83,2.21 -8.84,0 -17.45,-2.42 -24.39,-7.62 -2.71,-1.36 -4.05,-2.71 -6.76,-5.41 l -79.8,-79.79 c -16.22,-17.58 -17.57,-45.98 0,-62.21 9.09,-9.08 20.71,-13.51 32.27,-13.51 9.1,0 18.15,2.74 25.89,8.1 2.7,1.36 4.06,2.71 5.42,4.06 l 79.78,79.79 c 9.47,12.17 14.88,27.05 12.17,40.57 18.94,25.69 27.05,58.15 27.05,93.31 0,0.02 0,0.05 0,0.07 H 5775.24 V 3129.48 c 0,-184.75 149.77,-334.52 334.52,-334.52 h 2639.26 v -200.83 c 0,-90.99 -72.96,-163.95 -163.95,-163.95 m -5343.81,330.55 c 0.3,4.69 0.6,9.38 0.9,14.07 l 1.48,-13.78 -2.38,-0.29 m -783.9,1330.68 v 266.72 c 12.84,-22.85 29.64,-43.08 53.35,-60.11 14.52,-11.22 32.34,-22.56 52.29,-33.57 2.24,-9.21 4.49,-18.1 7.04,-26.39 -21.48,-53.33 -39.49,-99.26 -53.17,-139.73 -16.53,-2.08 -36.89,-4.4 -59.51,-6.92"
         id="path152" /></clipPath><linearGradient
       x1="0"
       y1="0"
       x2="1"
       y2="0"
       gradientUnits="userSpaceOnUse"
       gradientTransform="matrix(0,-6920.4,-6920.4,0,5603.2,8272.64)"
       spreadMethod="pad"
       id="linearGradient160"><stop
         style="stop-opacity:1;stop-color:#f7d1ea"
         offset="0"
         id="stop156" /><stop
         style="stop-opacity:1;stop-color:#da84c8"
         offset="1"
         id="stop158" /></linearGradient><clipPath
       clipPathUnits="userSpaceOnUse"
       id="clipPath178"><path
         d="M 8859.17,1169.23 H 3170.35 l -0.01,0.32 h 139.44 l -12.17,365.13 c -6.76,67.62 -35.17,131.18 -75.74,190.69 75.74,-37.87 156.88,-78.44 240.72,-125.77 17.59,-120.36 50.04,-271.83 86.55,-430.05 h 373.26 l -36.52,501.72 c -10.82,73.04 -45.98,142 -96.01,204.21 -0.1,0.13 -0.19,0.26 -0.29,0.39 h 5769.66 c 0,-91.82 -17.22,-179.53 -50,-260.68 -13.13,-34.44 -28.7,-67.23 -48.37,-98.38 -29.51,-51.64 -66.4,-99.19 -108.21,-141 -126.24,-126.24 -300.85,-204.94 -493.49,-206.58 m -3733.76,609.65 c 0,-125.33 101.6,-226.94 226.94,-226.94 h 502.52 c 125.33,0 226.93,101.61 226.93,226.94 H 5125.41 M 2811.54,1169.23 H 2355.2 c -79.53,0 -156.58,13.12 -227.9,37.71 -278.72,94.27 -478.74,358.24 -478.74,668.93 h 646.13 c 0.25,-0.13 0.5,-0.26 0.75,-0.39 h -32.39 c 76.27,-235.65 261.8,-237.48 481.55,-332.99 17.53,-114.44 40.99,-243.41 66.94,-373.26 m -1162.46,706.25 c 0,-139.29 40.57,-270.47 110.89,-380.01 l 18.93,380.01 h -129.82"
         id="path176" /></clipPath><linearGradient
       x1="0"
       y1="0"
       x2="1"
       y2="0"
       gradientUnits="userSpaceOnUse"
       gradientTransform="matrix(12.0539,-1289.77,-1289.77,-12.0539,5600.74,2212.88)"
       spreadMethod="pad"
       id="linearGradient184"><stop
         style="stop-opacity:1;stop-color:#8f3ca3"
         offset="0"
         id="stop180" /><stop
         style="stop-opacity:1;stop-color:#432983"
         offset="1"
         id="stop182" /></linearGradient><clipPath
       clipPathUnits="userSpaceOnUse"
       id="clipPath194"><path
         d="m 5854.87,1551.94 h -502.52 c -125.34,0 -226.94,101.61 -226.94,226.94 h 956.39 c 0,-125.33 -101.6,-226.94 -226.93,-226.94"
         id="path192" /></clipPath><linearGradient
       x1="0"
       y1="0"
       x2="1"
       y2="0"
       gradientUnits="userSpaceOnUse"
       gradientTransform="matrix(12.0539,-1289.77,-1289.77,-12.0539,5600.74,2212.88)"
       spreadMethod="pad"
       id="linearGradient200"><stop
         style="stop-opacity:1;stop-color:#e3bde2"
         offset="0"
         id="stop196" /><stop
         style="stop-opacity:1;stop-color:#9b5eb5"
         offset="1"
         id="stop198" /></linearGradient><clipPath
       clipPathUnits="userSpaceOnUse"
       id="clipPath238"><path
         d="M 8749.02,2794.96 H 6109.76 c -184.75,0 -334.52,149.77 -334.52,334.52 v 2978.96 h 2809.83 c 90.99,0 163.95,-73.78 163.95,-163.96 V 2794.96"
         id="path236" /></clipPath><linearGradient
       x1="0"
       y1="0"
       x2="1"
       y2="0"
       gradientUnits="userSpaceOnUse"
       gradientTransform="matrix(0,-6920.4,-6920.4,0,5603.2,8272.64)"
       spreadMethod="pad"
       id="linearGradient244"><stop
         style="stop-opacity:1;stop-color:#bde9f0"
         offset="0"
         id="stop240" /><stop
         style="stop-opacity:1;stop-color:#b9e8fa"
         offset="1"
         id="stop242" /></linearGradient><clipPath
       clipPathUnits="userSpaceOnUse"
       id="clipPath268"><path
         d="m 4620.02,5882.54 c -11.56,0 -23.18,4.43 -32.27,13.51 -17.57,16.23 -16.22,44.63 0,62.21 l 79.8,79.79 c 2.71,2.7 4.05,4.05 6.76,5.41 6.94,5.2 15.55,7.62 24.39,7.62 4.95,0 9.98,-0.76 14.83,-2.21 9.47,16.22 14.88,36.51 14.88,59.5 0,0.02 0,0.04 0,0.07 h 41.92 c 0,-0.02 0,-0.05 0,-0.07 0,-35.16 -8.11,-67.62 -27.05,-93.31 2.71,-13.52 -2.7,-28.4 -12.17,-40.57 l -79.78,-79.79 c -1.36,-1.35 -2.72,-2.7 -5.42,-4.06 -7.74,-5.36 -16.79,-8.1 -25.89,-8.1"
         id="path266" /></clipPath><linearGradient
       x1="0"
       y1="0"
       x2="1"
       y2="0"
       gradientUnits="userSpaceOnUse"
       gradientTransform="matrix(0,-6920.4,-6920.4,0,5603.2,8272.64)"
       spreadMethod="pad"
       id="linearGradient274"><stop
         style="stop-opacity:1;stop-color:#e6b6df"
         offset="0"
         id="stop270" /><stop
         style="stop-opacity:1;stop-color:#cc6ebe"
         offset="1"
         id="stop272" /></linearGradient><clipPath
       clipPathUnits="userSpaceOnUse"
       id="clipPath302"><path
         d="m 3780.47,2430.18 h -212.15 l 42.75,142.22 139.58,17.13 c 3.14,0.38 6.18,0.57 9.12,0.57 38.74,0 58.8,-32.41 44.98,-77.66 l -24.28,-82.26 m -703.27,310.36 c 26.09,318.76 48.08,713.72 46.17,833.57 -1.5,32.35 -1.84,65.9 -1.96,100.15 -0.44,70.87 -0.11,144.93 1.49,223.4 51.38,-5.11 102.56,-12.9 153.07,-23.38 169.04,-60.86 219.08,-608.57 205.55,-1006.17 -0.5,-14.77 2.06,-41.62 7.04,-76.95 l -244.92,-30.14 -1.48,13.78 c -0.3,-4.69 -0.6,-9.38 -0.9,-14.07 l -164.06,-20.19 m 27.67,1354.21 c -64.45,11.72 -129.34,19.86 -194.35,23.74 -27.05,12.22 -41.12,33.37 -48.15,59.38 6.29,0.94 11.85,2.4 16.6,4.41 64.93,19.2 104.86,183.21 104.83,343.64 -0.01,66.08 -6.8,131.56 -21.42,186.06 42.37,-14.01 79.52,-32.99 108.03,-49.28 117.66,-82.5 110.9,-220.44 60.85,-332.68 -1.25,0 -1.34,1.17 -1.35,1.34 2.02,-82.94 -7.05,-168.92 -25.04,-236.61 m -588,3.58 c 13.68,40.47 31.69,86.4 53.17,139.73 -2.55,8.29 -4.8,17.18 -7.04,26.39 8.25,-4.56 16.86,-9.05 25.74,-13.46 -7.21,-46.24 -25.77,-94.61 -60.65,-150.44 -1.01,-0.35 -1.96,-0.73 -2.88,-1.14 -2.66,-0.35 -5.44,-0.71 -8.34,-1.08"
         id="path300" /></clipPath><linearGradient
       x1="0"
       y1="0"
       x2="1"
       y2="0"
       gradientUnits="userSpaceOnUse"
       gradientTransform="matrix(0,-6920.4,-6920.4,0,5603.2,8272.64)"
       spreadMethod="pad"
       id="linearGradient308"><stop
         style="stop-opacity:1;stop-color:#e6b6df"
         offset="0"
         id="stop304" /><stop
         style="stop-opacity:1;stop-color:#cc6ebe"
         offset="1"
         id="stop306" /></linearGradient><clipPath
       clipPathUnits="userSpaceOnUse"
       id="clipPath318"><path
         d="m 3922.4,1169.55 h -373.26 c -36.51,158.22 -68.96,309.69 -86.55,430.05 -83.84,47.33 -164.98,87.9 -240.72,125.77 40.57,-59.51 68.98,-123.07 75.74,-190.69 l 12.17,-365.13 h -139.44 l -19.3,580.74 c -4.81,43.43 -18.18,85.29 -37.85,125.58 h 676.39 c 0.1,-0.13 0.19,-0.26 0.29,-0.39 50.03,-62.21 85.19,-131.17 96.01,-204.21 l 36.52,-501.72 m -2162.43,325.92 c -70.32,109.54 -110.89,240.72 -110.89,380.01 h 129.82 l -18.93,-380.01 m 984.63,47.02 c -219.75,95.51 -405.28,97.34 -481.55,332.99 h 32.39 c 115.81,-60.13 267.52,-83.81 428.84,-183.9 5.26,-45.64 12.14,-95.78 20.32,-149.09"
         id="path316" /></clipPath><linearGradient
       x1="0"
       y1="0"
       x2="1"
       y2="0"
       gradientUnits="userSpaceOnUse"
       gradientTransform="matrix(12.0539,-1289.77,-1289.77,-12.0539,5600.74,2212.88)"
       spreadMethod="pad"
       id="linearGradient324"><stop
         style="stop-opacity:1;stop-color:#87359f"
         offset="0"
         id="stop320" /><stop
         style="stop-opacity:1;stop-color:#3c2774"
         offset="1"
         id="stop322" /></linearGradient><clipPath
       clipPathUnits="userSpaceOnUse"
       id="clipPath336"><path
         d="m 2081.98,3243.96 c -8.96,0.24 -17.87,0.83 -26.07,1.6 l 29.41,48.56 c -1.14,-16.66 -2.26,-33.41 -3.34,-50.16 m -235.53,357.11 c -52.38,140.1 -100.95,280.95 -143.67,416.47 71.23,-26.23 143.25,-51.74 215.38,-76.26 19.41,-21.57 42.53,-40.13 68.75,-56.09 l 3.46,-21.6 c -48.15,-76.01 -97.83,-167.99 -143.92,-262.52 m 103.55,514.96 -250.32,146.72 c 40.41,177.52 80.5,363.51 106.17,559.98 37.53,-7.24 73.54,-12.63 105.45,-16.69 l -41.31,-189.71 80.01,-500.3"
         id="path334" /></clipPath><linearGradient
       x1="0"
       y1="0"
       x2="1"
       y2="0"
       gradientUnits="userSpaceOnUse"
       gradientTransform="matrix(-1041.99,-525.35,-525.35,1041.99,2198.41,4226.38)"
       spreadMethod="pad"
       id="linearGradient342"><stop
         style="stop-opacity:1;stop-color:#f7d3c9"
         offset="0"
         id="stop338" /><stop
         style="stop-opacity:1;stop-color:#df7c6c"
         offset="1"
         id="stop340" /></linearGradient><clipPath
       clipPathUnits="userSpaceOnUse"
       id="clipPath372"><path
         d="m 1209.55,5325.27 c -92.45,0 -179.93,23.61 -198.96,78.04 50.46,46.95 67.04,118.84 67.08,194.02 0.02,51.85 -7.83,105.28 -17.87,153.16 l 23.29,-3.84 58.31,-109.4 c -1.31,-1.85 -1.93,-3.84 -1.94,-5.95 -0.13,-38.42 204.45,-117.3 267.35,-124.48 12.16,-22.87 26.63,-42.61 44.3,-58.03 3.24,-7.43 4.77,-14.59 4.78,-21.48 0.04,-62.88 -127.27,-102.04 -246.34,-102.04"
         id="path370" /></clipPath><linearGradient
       x1="0"
       y1="0"
       x2="1"
       y2="0"
       gradientUnits="userSpaceOnUse"
       gradientTransform="matrix(566.132,-252.776,-252.776,-566.132,937.051,5647.35)"
       spreadMethod="pad"
       id="linearGradient378"><stop
         style="stop-opacity:1;stop-color:#f1c6bf"
         offset="0"
         id="stop374" /><stop
         style="stop-opacity:1;stop-color:#cb655b"
         offset="1"
         id="stop376" /></linearGradient><clipPath
       clipPathUnits="userSpaceOnUse"
       id="clipPath390"><path
         d="m 1414.89,5506.29 c -2.34,0 -5.04,0.18 -8.08,0.53 -62.9,7.18 -267.48,86.06 -267.35,124.48 0.01,2.11 0.63,4.1 1.94,5.95 v 0 0 l -149.107,279.76 160.837,303.36 451.57,-100.14 c 2.02,-14.19 2.98,-30.55 2.97,-48.61 -0.05,-180.77 -96.53,-531.12 -183.54,-563.11 -1.43,-1.51 -4.6,-2.22 -9.24,-2.22"
         id="path388" /></clipPath><linearGradient
       x1="0"
       y1="0"
       x2="1"
       y2="0"
       gradientUnits="userSpaceOnUse"
       gradientTransform="matrix(114.468,-938.245,-938.245,-114.468,1249.36,6421.54)"
       spreadMethod="pad"
       id="linearGradient396"><stop
         style="stop-opacity:1;stop-color:#f7d3c9"
         offset="0"
         id="stop392" /><stop
         style="stop-opacity:1;stop-color:#df7c6c"
         offset="1"
         id="stop394" /></linearGradient><clipPath
       clipPathUnits="userSpaceOnUse"
       id="clipPath436"><path
         d="m 2842.21,4176.51 c -87.33,0.01 -255.13,62.53 -331.5,121.51 -68.38,49.12 -79.39,124.97 -103.05,213.14 l 153.98,232.64 343.84,78.95 c 54.48,-51.36 78.3,-173.03 78.32,-296.83 0.03,-160.43 -39.9,-324.44 -104.83,-343.64 -9.35,-3.96 -21.88,-5.77 -36.76,-5.77"
         id="path434" /></clipPath><linearGradient
       x1="0"
       y1="0"
       x2="1"
       y2="0"
       gradientUnits="userSpaceOnUse"
       gradientTransform="matrix(-794.332,-437.693,437.693,-794.332,3154.87,4701.84)"
       spreadMethod="pad"
       id="linearGradient442"><stop
         style="stop-opacity:1;stop-color:#f7d3c9"
         offset="0"
         id="stop438" /><stop
         style="stop-opacity:1;stop-color:#df7c6c"
         offset="1"
         id="stop440" /></linearGradient><clipPath
       clipPathUnits="userSpaceOnUse"
       id="clipPath464"><path
         d="m 2531.33,2186.62 h -55.46 l -79.11,83.12 -85.39,26.72 145,92.32 66.74,-31.19 41.25,-61.13 -21.32,-70.88 -11.71,-38.96"
         id="path462" /></clipPath><linearGradient
       x1="0"
       y1="0"
       x2="1"
       y2="0"
       gradientUnits="userSpaceOnUse"
       gradientTransform="matrix(-166.752,-180.485,-180.485,166.752,2582.69,2416.17)"
       spreadMethod="pad"
       id="linearGradient470"><stop
         style="stop-opacity:1;stop-color:#f7d3c9"
         offset="0"
         id="stop466" /><stop
         style="stop-opacity:1;stop-color:#df7c6c"
         offset="1"
         id="stop468" /></linearGradient><clipPath
       clipPathUnits="userSpaceOnUse"
       id="clipPath484"><path
         d="m 2097.67,3841.66 c -5.4,0 -11.11,0.31 -17.2,0.96 -34.19,11.55 -65.63,25.58 -93.56,42.57 -26.22,15.96 -49.34,34.52 -68.75,56.09 -72.13,24.52 -144.15,50.03 -215.38,76.26 -18.19,6.7 -36.33,13.44 -54.4,20.23 -324.82,121.98 -628.71,257.43 -841.9,378.78 -0.394,-0.35 -0.894,-0.53 -1.496,-0.53 -15.132,0 -94.773,110.02 -175.777,235.27 -0.492,0.76 -0.98,1.51 -1.473,2.27 96.071,48.53 190.176,127.2 256.618,188.49 l 55.652,-134.02 1057.786,-620.01 c 37.9,28.42 87.59,45.98 143.09,45.98 12.61,0 25.5,-0.91 38.64,-2.8 16.83,-7.51 23.62,-13.63 23.61,-20.88 -0.01,-7.08 -6.51,-15.25 -16.5,-26.86 -22.91,-15.94 -17.66,-9.56 -49.08,-18.5 v 0 0 c 35.46,-27.36 85.04,-44.05 137.75,-67.78 4.12,-2.43 5.9,-6.22 5.88,-10.95 -0.12,-26.33 -56.05,-82.05 -76.5,-97.72 -36.44,-22.9 -59.36,-46.85 -107.01,-46.85"
         id="path482" /></clipPath><linearGradient
       x1="0"
       y1="0"
       x2="1"
       y2="0"
       gradientUnits="userSpaceOnUse"
       gradientTransform="matrix(-319.273,-586.302,-586.302,319.273,1674.72,4720.53)"
       spreadMethod="pad"
       id="linearGradient490"><stop
         style="stop-opacity:1;stop-color:#f7d3c9"
         offset="0"
         id="stop486" /><stop
         style="stop-opacity:1;stop-color:#df7c6c"
         offset="1"
         id="stop488" /></linearGradient></defs><sodipodi:namedview
     pagecolor="#ffffff"
     bordercolor="#666666"
     borderopacity="1"
     objecttolerance="10"
     gridtolerance="10"
     guidetolerance="10"
     inkscape:pageopacity="0"
     inkscape:pageshadow="2"
     inkscape:window-width="640"
     inkscape:window-height="480"
     id="namedview4" /><g
     id="g10"
     inkscape:groupmode="layer"
     inkscape:label="ink_ext_XXXXXX"
     transform="matrix(1.3333333,0,0,-1.3333333,0,1346.8933)"><g
       id="g12"
       transform="scale(0.1)"><path
         d="M 3836.01,2061.86 C 1671.35,2971.15 1591.17,4012.24 2078.36,5467.81 2565.55,6923.38 707.379,6719.6 360.063,7727.65 33.332,8675.97 1650.36,8544.66 2593.27,8141.7 c 942.92,-402.96 1957.74,-900.28 1567.63,251.63 -390.1,1151.92 2130.85,2486.27 1614.24,1108.89 -551.33,-1469.99 66.58,-2674.03 908,-2755.58 324.48,-31.45 759.05,410.04 1208.59,851.55 716.18,703.37 1470.37,1406.73 1877.99,197.73 C 10491.8,5654.13 8328.61,5020.99 7525.69,3516.24 6722.77,2011.48 3836.01,2061.86 3836.01,2061.86"
         style="fill:#d7f0d0;fill-opacity:1;fill-rule:nonzero;stroke:none"
         id="path14" /><path
         d="m 7770.9,8662.52 c 0,-378.99 -307.24,-686.23 -686.24,-686.23 -379,0 -686.23,307.24 -686.23,686.23 0,379 307.23,686.23 686.23,686.23 379,0 686.24,-307.23 686.24,-686.23"
         style="fill:#d7f0d0;fill-opacity:1;fill-rule:nonzero;stroke:none"
         id="path16" /><path
         d="m 8749.32,8961.65 c 0,-201.64 -163.47,-365.11 -365.11,-365.11 -201.65,0 -365.12,163.47 -365.12,365.11 0,201.65 163.47,365.11 365.12,365.11 201.64,0 365.11,-163.46 365.11,-365.11"
         style="fill:#d7f0d0;fill-opacity:1;fill-rule:nonzero;stroke:none"
         id="path18" /><path
         d="m 7939.91,9919.15 c 0,-100.83 -81.73,-182.56 -182.56,-182.56 -100.82,0 -182.55,81.73 -182.55,182.56 0,100.85 81.73,182.55 182.55,182.55 100.83,0 182.56,-81.7 182.56,-182.55"
         style="fill:#d7f0d0;fill-opacity:1;fill-rule:nonzero;stroke:none"
         id="path20" /><path
         d="m 909.027,7984.67 -211.375,114.4 192.09,92.15 19.285,-206.55"
         style="fill:#c2eadc;fill-opacity:1;fill-rule:nonzero;stroke:none"
         id="path22" /><path
         d="m 3395.4,6995.29 -211.37,114.4 192.08,92.16 19.29,-206.56"
         style="fill:#c2eadc;fill-opacity:1;fill-rule:nonzero;stroke:none"
         id="path24" /><path
         d="m 1977,7320.77 -211.37,114.4 192.08,92.15 19.29,-206.55"
         style="fill:#c2eadc;fill-opacity:1;fill-rule:nonzero;stroke:none"
         id="path26" /><path
         d="m 2611.97,7562.47 -211.37,114.4 192.09,92.16 9.97,-106.84 -13.51,-38.44 16.64,4.95 6.18,-66.23"
         style="fill:#c2eadc;fill-opacity:1;fill-rule:nonzero;stroke:none"
         id="path28" /><path
         d="m 5257.08,9594.84 -211.38,114.41 192.09,92.15 19.29,-206.56"
         style="fill:#c2eadc;fill-opacity:1;fill-rule:nonzero;stroke:none"
         id="path30" /><path
         d="m 4805.19,8046.62 -211.38,114.4 192.08,92.16 19.3,-206.56"
         style="fill:#c2eadc;fill-opacity:1;fill-rule:nonzero;stroke:none"
         id="path32" /><path
         d="m 5228.23,8655.96 -211.37,114.4 192.08,92.15 19.29,-206.55"
         style="fill:#c2eadc;fill-opacity:1;fill-rule:nonzero;stroke:none"
         id="path34" /><path
         d="m 9802.74,6976.23 -211.36,114.4 192.08,92.15 19.28,-206.55"
         style="fill:#c2eadc;fill-opacity:1;fill-rule:nonzero;stroke:none"
         id="path36" /><path
         d="m 8980.75,7870.83 -211.37,114.4 192.09,92.15 19.28,-206.55"
         style="fill:#c2eadc;fill-opacity:1;fill-rule:nonzero;stroke:none"
         id="path38" /><path
         d="m 2132.69,4637.35 -211.37,114.4 192.09,92.16 19.28,-206.56"
         style="fill:#c2eadc;fill-opacity:1;fill-rule:nonzero;stroke:none"
         id="path40" /><path
         d="m 7026.21,8739.21 -211.37,114.4 192.08,92.15 19.29,-206.55"
         style="fill:#c2eadc;fill-opacity:1;fill-rule:nonzero;stroke:none"
         id="path42" /><path
         d="m 8445.79,8838.49 -211.38,114.4 192.09,92.15 19.29,-206.55"
         style="fill:#c2eadc;fill-opacity:1;fill-rule:nonzero;stroke:none"
         id="path44" /><path
         d="m 4654.01,9148.86 54,153.59 122.03,-101.19 -176.03,-52.4"
         style="fill:#dedbf1;fill-opacity:1;fill-rule:nonzero;stroke:none"
         id="path46" /><path
         d="m 1536.6,7948.74 54,153.59 122.03,-101.19 -176.03,-52.4"
         style="fill:#dedbf1;fill-opacity:1;fill-rule:nonzero;stroke:none"
         id="path48" /><path
         d="m 1209.58,7269.62 53.99,153.59 122.04,-101.19 -176.03,-52.4"
         style="fill:#dedbf1;fill-opacity:1;fill-rule:nonzero;stroke:none"
         id="path50" /><path
         d="m 3766.32,7023.27 53.99,153.6 122.04,-101.19 -176.03,-52.41"
         style="fill:#dedbf1;fill-opacity:1;fill-rule:nonzero;stroke:none"
         id="path52" /><path
         d="m 2764.95,6661.88 53.99,153.58 122.05,-101.18 -176.04,-52.4"
         style="fill:#dedbf1;fill-opacity:1;fill-rule:nonzero;stroke:none"
         id="path54" /><path
         d="m 4960.15,8124.33 53.99,153.58 122.03,-101.18 -176.02,-52.4"
         style="fill:#dedbf1;fill-opacity:1;fill-rule:nonzero;stroke:none"
         id="path56" /><path
         d="m 6949.09,8326.84 54.01,153.58 122.03,-101.18 -176.04,-52.4"
         style="fill:#dedbf1;fill-opacity:1;fill-rule:nonzero;stroke:none"
         id="path58" /><path
         d="m 8458.17,9054.72 54,153.59 122.03,-101.18 -176.03,-52.41"
         style="fill:#dedbf1;fill-opacity:1;fill-rule:nonzero;stroke:none"
         id="path60" /><path
         d="m 9227.69,7236.55 54,153.59 122.03,-101.19 -176.03,-52.4"
         style="fill:#dedbf1;fill-opacity:1;fill-rule:nonzero;stroke:none"
         id="path62" /><path
         d="m 8394.81,7352.72 h -133.7 l 38.37,109.14 122.03,-101.19 -26.7,-7.95"
         style="fill:#dedbf1;fill-opacity:1;fill-rule:nonzero;stroke:none"
         id="path64" /><path
         d="m 2056.61,5131.08 54.01,153.59 122.03,-101.19 -176.04,-52.4"
         style="fill:#dedbf1;fill-opacity:1;fill-rule:nonzero;stroke:none"
         id="path66" /><path
         d="m 2203.12,4110.98 c -0.4,6.97 -7.28,12.94 -23.6,20.22 -13.14,1.89 -26.03,2.8 -38.64,2.8 -27.77,0 -54.1,-4.4 -78.22,-12.36 l 33.4,94.99 122.04,-101.19 -14.98,-4.46"
         style="fill:#dedbf1;fill-opacity:1;fill-rule:nonzero;stroke:none"
         id="path68" /><path
         d="m 2589.15,7623.75 13.51,38.44 40.49,115.15 122.04,-101.19 -159.4,-47.45 -16.64,-4.95"
         style="fill:#dedbf1;fill-opacity:1;fill-rule:nonzero;stroke:none"
         id="path70" /><path
         d="m 5560.79,9520.31 -57.19,103.51 114.38,-33.66 -57.19,-69.85"
         style="fill:#eae1ce;fill-opacity:1;fill-rule:nonzero;stroke:none"
         id="path72" /><path
         d="m 4540.24,8472.28 -57.19,103.5 114.37,-33.66 -57.18,-69.84"
         style="fill:#eae1ce;fill-opacity:1;fill-rule:nonzero;stroke:none"
         id="path74" /><path
         d="m 4298.89,7385.25 -57.19,103.5 114.38,-33.66 -57.19,-69.84"
         style="fill:#eae1ce;fill-opacity:1;fill-rule:nonzero;stroke:none"
         id="path76" /><path
         d="m 2120.47,7909.17 -57.19,103.5 114.38,-33.66 -57.19,-69.84"
         style="fill:#eae1ce;fill-opacity:1;fill-rule:nonzero;stroke:none"
         id="path78" /><path
         d="m 795.563,7848.1 -57.188,103.5 114.375,-33.66 -57.187,-69.84"
         style="fill:#eae1ce;fill-opacity:1;fill-rule:nonzero;stroke:none"
         id="path80" /><path
         d="m 2117.14,6915.79 -57.19,103.51 114.38,-33.66 -57.19,-69.85"
         style="fill:#eae1ce;fill-opacity:1;fill-rule:nonzero;stroke:none"
         id="path82" /><path
         d="m 2868.24,7279.38 -57.18,103.51 114.37,-33.66 -57.19,-69.85"
         style="fill:#eae1ce;fill-opacity:1;fill-rule:nonzero;stroke:none"
         id="path84" /><path
         d="m 3819.49,6541.41 -57.19,103.5 114.38,-33.66 -57.19,-69.84"
         style="fill:#eae1ce;fill-opacity:1;fill-rule:nonzero;stroke:none"
         id="path86" /><path
         d="m 8825.83,7748.76 -57.19,103.5 114.38,-33.66 -57.19,-69.84"
         style="fill:#eae1ce;fill-opacity:1;fill-rule:nonzero;stroke:none"
         id="path88" /><path
         d="m 9492.56,7952.63 -57.19,103.49 114.38,-33.65 -57.19,-69.84"
         style="fill:#eae1ce;fill-opacity:1;fill-rule:nonzero;stroke:none"
         id="path90" /><path
         d="m 9480.82,6612.89 -57.18,103.5 114.37,-33.66 -57.19,-69.84"
         style="fill:#eae1ce;fill-opacity:1;fill-rule:nonzero;stroke:none"
         id="path92" /><path
         d="m 7435.5,8564.84 -57.19,103.51 114.38,-33.66 -57.19,-69.85"
         style="fill:#eae1ce;fill-opacity:1;fill-rule:nonzero;stroke:none"
         id="path94" /><path
         d="m 7299.03,9000.06 -57.17,103.5 114.36,-33.66 -57.19,-69.84"
         style="fill:#eae1ce;fill-opacity:1;fill-rule:nonzero;stroke:none"
         id="path96" /><path
         d="m 8168.97,8932.14 -57.18,103.5 114.37,-33.66 -57.19,-69.84"
         style="fill:#eae1ce;fill-opacity:1;fill-rule:nonzero;stroke:none"
         id="path98" /><path
         d="m 6696.65,8735.1 -57.19,103.5 114.38,-33.65 -57.19,-69.85"
         style="fill:#eae1ce;fill-opacity:1;fill-rule:nonzero;stroke:none"
         id="path100" /><path
         d="m 7135,8160.31 -57.19,103.5 114.38,-33.65 -57.19,-69.85"
         style="fill:#eae1ce;fill-opacity:1;fill-rule:nonzero;stroke:none"
         id="path102" /><path
         d="m 7801.27,9901.48 -57.18,103.52 114.37,-33.68 -57.19,-69.84"
         style="fill:#eae1ce;fill-opacity:1;fill-rule:nonzero;stroke:none"
         id="path104" /><path
         d="m 9697.59,4822.53 c -24.88,-100.62 -211.93,-189.23 -211.93,-189.23 0,0 -124.17,165.6 -99.28,266.2 24.88,100.62 114.72,164.95 200.66,143.69 85.94,-21.26 135.44,-120.05 110.55,-220.66"
         style="fill:#b2e5e9;fill-opacity:1;fill-rule:nonzero;stroke:none"
         id="path106" /><path
         d="m 9790.83,4206.11 c -73.52,-73.04 -279.39,-51.62 -279.39,-51.62 0,0 -20.09,206 53.43,279.05 73.52,73.05 183.71,81.35 246.11,18.56 62.39,-62.8 53.38,-172.94 -20.15,-245.99"
         style="fill:#b2e5e9;fill-opacity:1;fill-rule:nonzero;stroke:none"
         id="path108" /><path
         d="m 9151.88,4220.01 c 85.15,-59.08 284.12,-2.03 284.12,-2.03 0,0 -16.21,206.35 -101.36,265.43 -85.16,59.08 -195.1,48.02 -245.57,-24.72 -50.47,-72.73 -22.34,-179.6 62.81,-238.68"
         style="fill:#b2e5e9;fill-opacity:1;fill-rule:nonzero;stroke:none"
         id="path110" /><path
         d="m 9589.94,2837.36 c -96.64,-37.45 -276.66,64.7 -276.66,64.7 0,0 64.17,196.78 160.81,234.23 96.64,37.45 200.92,0.9 232.9,-81.65 31.99,-82.55 -20.41,-179.83 -117.05,-217.28"
         style="fill:#b2e5e9;fill-opacity:1;fill-rule:nonzero;stroke:none"
         id="path112" /><path
         d="m 8928.93,2827.15 c 80.13,-65.73 283.02,-24.84 283.02,-24.84 0,0 0.43,206.98 -79.69,272.71 -80.14,65.73 -190.62,63.53 -246.76,-4.91 -56.15,-68.45 -36.71,-177.23 43.43,-242.96"
         style="fill:#b2e5e9;fill-opacity:1;fill-rule:nonzero;stroke:none"
         id="path114" /><path
         d="m 9821.4,3379.51 c -93.48,-44.76 -280.8,43.27 -280.8,43.27 0,0 48.87,201.13 142.35,245.89 93.49,44.76 200.25,16.31 238.49,-63.54 38.23,-79.85 -6.56,-180.86 -100.04,-225.62"
         style="fill:#b2e5e9;fill-opacity:1;fill-rule:nonzero;stroke:none"
         id="path116" /><path
         d="m 9207.44,3574.84 c 73.99,-72.57 279.72,-49.84 279.72,-49.84 0,0 18.78,206.12 -55.21,278.7 -73.99,72.59 -184.22,80.19 -246.22,16.99 -62,-63.2 -52.27,-173.27 21.71,-245.85"
         style="fill:#b2e5e9;fill-opacity:1;fill-rule:nonzero;stroke:none"
         id="path118" /><path
         d="m 9835.24,3479.41 -86.78,35.1 93.5,44.77 c 3.49,1.67 4.98,5.9 3.31,9.38 -1.68,3.5 -5.88,4.99 -9.39,3.31 l -167.05,-79.98 5.69,110.83 c 0.19,3.81 -2.79,7.2 -6.68,7.38 -3.88,0.19 -7.16,-2.79 -7.38,-6.67 l -6.08,-118.46 -122.49,-57.56 c 27.22,85.44 35.54,185.99 9.64,349.27 -21.71,136.99 -33.06,256.16 -38.73,360.81 h 0.1 l 161.06,158.51 106.37,-5.17 c 3.87,-0.19 7.17,2.81 7.38,6.71 0.23,3.85 -2.82,7.15 -6.7,7.36 l -93.52,4.55 73.55,73.07 c 2.75,2.74 2.76,7.21 0.03,9.96 -2.74,2.74 -7.2,2.76 -9.95,0.03 l -131.39,-130.55 -31.14,106.52 c -1.07,3.67 -5,5.89 -8.74,4.78 -3.71,-1.09 -5.84,-5 -4.76,-8.74 l 33.28,-113.84 -96.94,-94.94 c -16.03,331.98 32.12,496.86 32.8,499 l -33.45,10.28 41.66,168.42 93.59,50.83 c 3.4,1.84 4.65,6.12 2.81,9.55 -1.81,3.42 -6.13,4.65 -9.55,2.82 l -82.28,-44.69 24.89,100.65 c 0.94,3.77 -1.37,7.58 -5.13,8.52 -3.76,0.93 -7.59,-1.38 -8.52,-5.15 l -44.48,-179.79 -81.92,74.85 c -2.83,2.56 -7.34,2.43 -9.95,-0.45 -2.6,-2.88 -2.4,-7.32 0.46,-9.96 l 87.57,-79.99 -22.62,-91.46 -6.9,2.11 c -2.6,-8.44 -44.41,-156.42 -37.29,-448.61 l -109.54,74.84 12.88,117.91 c 0.42,3.86 -2.37,7.32 -6.23,7.76 -3.87,0.44 -7.33,-2.44 -7.75,-6.23 l -12.06,-110.32 -152.17,105.59 c -3.19,2.21 -7.57,1.41 -9.79,-1.77 -2.21,-3.18 -1.41,-7.58 1.76,-9.8 l 85.18,-59.09 -91.27,-20.82 c -3.79,-0.88 -6.22,-4.66 -5.31,-8.42 0.88,-3.79 4.66,-6.18 8.43,-5.32 l 103.83,23.68 182.39,-125.27 c 3.74,-121.85 15.2,-265.51 42.48,-437.53 16.32,-102.94 18.27,-178.05 10.33,-240.7 l -96.66,93.46 32.55,114.06 c 1.04,3.74 -1.12,7.61 -4.83,8.7 -3.74,1.08 -7.64,-1.18 -8.7,-4.84 l -30.46,-106.72 -132.21,129.71 c -2.77,2.72 -7.24,2.67 -9.95,-0.1 -2.72,-2.76 -2.68,-7.23 0.09,-9.95 l 74.01,-72.6 -93.48,-5.14 c -3.89,-0.24 -6.9,-3.56 -6.66,-7.41 0.23,-3.89 3.54,-6.88 7.41,-6.65 l 106.35,5.85 159.75,-155.23 c -14.03,-86.08 -47.65,-149.42 -91.96,-229.98 -55.34,-100.65 -126.67,-230.56 -190.79,-466.88 l -94.46,76.34 22.29,116.5 c 0.73,3.82 -1.76,7.5 -5.57,8.24 -3.83,0.76 -7.52,-1.84 -8.23,-5.59 l -20.88,-108.99 -143.21,117.47 c -2.98,2.45 -7.44,2.01 -9.89,-0.98 -2.46,-2.99 -2.02,-7.44 0.98,-9.91 l 80.15,-65.75 -92.65,-13.41 c -3.85,-0.58 -6.57,-4.14 -5.97,-7.98 0.57,-3.84 4.14,-6.52 7.97,-5.97 l 105.4,15.27 160.24,-130.19 c -47.79,-180.27 -91.32,-420.53 -120.72,-754.78 l 56.08,-4.93 c 35.51,403.63 91.54,667.86 150.59,853.67 1.88,-1.36 3.51,-3.47 5.81,-2.58 l 211.12,80.68 95.37,-47.39 c 3.46,-1.73 7.69,-0.29 9.44,3.19 1.75,3.44 0.29,7.68 -3.18,9.43 l -83.85,41.66 96.67,37.46 c 3.61,1.41 5.41,5.49 4.01,9.11 -1.4,3.61 -5.49,5.42 -9.1,4.01 l -172.7,-66.93 14.16,110.07 c 0.49,3.79 -2.21,7.39 -6.08,7.87 -3.84,0.49 -7.35,-2.24 -7.86,-6.08 l -15.16,-117.64 -134.85,-51.14 c 53.56,165.12 109.26,267.32 154.2,349.04 30.31,55.12 56.76,103.26 75.73,156.44 l 0.37,-0.13 204.29,96.63 98.74,-39.93 c 3.57,-1.44 7.68,0.3 9.15,3.9 1.49,3.59 -0.29,7.69 -3.9,9.17"
         style="fill:#c38dcd;fill-opacity:1;fill-rule:nonzero;stroke:none"
         id="path120" /><path
         d="m 11326.5,3668.71 c -69.4,-57.08 -245.3,-21.93 -245.3,-21.93 0,0 -0.7,179.37 68.7,236.46 69.3,57.08 165.1,55.33 213.9,-3.9 48.7,-59.24 32,-153.54 -37.3,-210.63"
         style="fill:#b2e5e9;fill-opacity:1;fill-rule:nonzero;stroke:none"
         id="path122" /><path
         d="m 11072.4,3191.87 c -88.9,-12.76 -221,108.64 -221,108.64 0,0 92.6,153.63 181.5,166.39 89,12.76 169.9,-38.47 180.8,-114.42 10.9,-75.95 -52.4,-147.86 -141.3,-160.61"
         style="fill:#b2e5e9;fill-opacity:1;fill-rule:nonzero;stroke:none"
         id="path124" /><path
         d="m 10635.3,3532.08 c 28.7,-85.14 196.5,-148.39 196.5,-148.39 0,0 95.5,151.86 66.9,236.99 -28.7,85.14 -110.9,134.32 -183.6,109.86 -72.7,-24.48 -108.4,-113.32 -79.8,-198.46"
         style="fill:#b2e5e9;fill-opacity:1;fill-rule:nonzero;stroke:none"
         id="path126" /><path
         d="m 10224.6,2344.06 c -86.6,23.96 -158.9,188.12 -158.9,188.12 0,0 146.4,103.63 233,79.68 86.6,-23.96 140.2,-103.32 119.7,-177.27 -20.4,-73.95 -107.2,-114.47 -193.8,-90.53"
         style="fill:#b2e5e9;fill-opacity:1;fill-rule:nonzero;stroke:none"
         id="path128" /><path
         d="m 9759.71,2678.94 c 21.71,-87.16 183.94,-163.7 183.94,-163.7 0,0 107.35,143.7 85.65,230.86 -21.7,87.16 -99.65,142.79 -174.1,124.24 -74.46,-18.55 -117.2,-104.25 -95.49,-191.4"
         style="fill:#b2e5e9;fill-opacity:1;fill-rule:nonzero;stroke:none"
         id="path130" /><path
         d="m 10666,2601.29 c -88.1,17.25 -172.8,175.37 -172.8,175.37 0,0 138,114.56 226.1,97.31 88.2,-17.23 147.7,-92.25 133,-167.55 -14.7,-75.3 -98.1,-122.37 -186.3,-105.13"
         style="fill:#b2e5e9;fill-opacity:1;fill-rule:nonzero;stroke:none"
         id="path132" /><path
         d="m 10340.2,3054.74 c 13.9,-88.74 168.7,-179.37 168.7,-179.37 0,0 119.7,133.61 105.8,222.35 -13.9,88.75 -86.6,151.07 -162.4,139.19 -75.8,-11.86 -126,-93.43 -112.1,-182.17"
         style="fill:#b2e5e9;fill-opacity:1;fill-rule:nonzero;stroke:none"
         id="path134" /><path
         d="m 10727.3,2663.59 -42.2,69.31 88.2,-17.25 c 3.3,-0.64 6.5,1.53 7.2,4.82 0.6,3.3 -1.5,6.51 -4.8,7.16 l -157.6,30.81 61.3,74.11 c 2.1,2.56 1.8,6.45 -0.8,8.59 -2.6,2.13 -6.4,1.76 -8.6,-0.83 l -65.5,-79.22 -115,23.36 c 63.2,45.32 121,110.93 187.4,237.86 55.8,106.49 109.6,195.22 159.8,270.91 v -0.05 l 194,26.91 71.3,-58.63 c 2.6,-2.13 6.5,-1.75 8.6,0.85 2.2,2.56 1.8,6.43 -0.8,8.58 l -62.7,51.54 88.9,12.77 c 3.4,0.47 5.7,3.58 5.2,6.9 -0.5,3.32 -3.6,5.65 -6.9,5.17 l -158.9,-22.8 33.5,90.17 c 1.1,3.1 -0.5,6.69 -3.6,7.84 -3.2,1.16 -6.7,-0.45 -7.9,-3.6 l -35.7,-96.38 -116.5,-15.86 c 160.6,239.13 279.3,328.85 280.9,330 l -17.9,24.44 116.1,95.56 91.3,-13.08 c 3.4,-0.47 6.5,1.86 6.9,5.19 0.6,3.33 -1.8,6.41 -5.1,6.9 l -80.4,11.5 69.4,57.1 c 2.6,2.14 3,5.98 0.8,8.59 -2.1,2.59 -5.9,2.97 -8.5,0.82 l -124,-102 -18.2,94.43 c -0.6,3.25 -3.9,5.48 -7.2,4.83 -3.3,-0.66 -5.4,-3.85 -4.8,-7.16 l 19.5,-100.93 -63,-51.89 -3.7,5.05 c -6.2,-4.53 -111.8,-85.79 -258.1,-292.66 l -37.4,108.72 69.9,75.32 c 2.3,2.47 2.2,6.32 -0.3,8.62 -2.4,2.31 -6.3,2.11 -8.6,-0.32 l -65.4,-70.47 -51.2,152.14 c -1.1,3.19 -4.6,4.91 -7.7,3.83 -3.2,-1.06 -4.9,-4.54 -3.9,-7.72 l 28.7,-85.15 -74.3,32.74 c -3.1,1.34 -6.7,-0.02 -8,-3.11 -1.4,-3.1 0,-6.71 3.1,-8.06 l 84.5,-37.25 62,-181.46 c -60.5,-86.66 -126.8,-192.48 -196.9,-326.21 -41.9,-80.01 -79.4,-133.25 -117.3,-172.7 l -18.8,114.99 81.6,62.47 c 2.6,2.06 3.2,5.87 1.1,8.54 -2,2.7 -5.9,3.15 -8.5,1.14 l -76.4,-58.44 -24.8,158.58 c -0.6,3.32 -3.7,5.61 -7,5.09 -3.3,-0.52 -5.6,-3.65 -5.1,-6.97 l 13.9,-88.77 -67.7,44.78 c -2.8,1.85 -6.6,1.11 -8.4,-1.71 -1.9,-2.82 -1.1,-6.61 1.7,-8.45 l 77,-50.96 30.7,-190.58 c -54.2,-52.58 -110.4,-79.23 -182.9,-112.33 -90.5,-41.35 -207.3,-94.78 -374.17,-225.93 l -26.19,101.95 75.77,69.47 c 2.49,2.28 2.69,6.13 0.38,8.61 -2.26,2.51 -6.17,2.62 -8.61,0.38 l -70.9,-64.99 -38.8,155.76 c -0.81,3.26 -4.13,5.26 -7.39,4.45 -3.26,-0.81 -5.25,-4.13 -4.44,-7.4 l 21.72,-87.18 -71.37,38.61 c -2.98,1.58 -6.7,0.51 -8.27,-2.46 -1.59,-2.97 -0.5,-6.68 2.45,-8.27 l 81.18,-43.92 44.07,-173.43 c -126.49,-100.61 -281.06,-245.15 -474.42,-462.36 l 36.44,-32.44 c 233.51,262.29 409.16,417.02 546.35,515.67 0.6,-1.91 0.6,-4.23 2.7,-4.79 l 188.5,-53.13 41.8,-82.28 c 1.6,-3 5.2,-4.18 8.2,-2.68 3.1,1.5 4.2,5.2 2.7,8.21 l -36.7,72.35 86.6,-23.97 c 3.2,-0.88 6.6,1.02 7.5,4.26 0.9,3.23 -1,6.61 -4.3,7.5 l -154.7,42.81 66.8,69.2 c 2.3,2.39 2.3,6.29 -0.2,8.63 -2.4,2.31 -6.2,2.24 -8.6,-0.17 l -71.4,-73.95 -120.2,34.19 c 122.7,87.12 214.3,129.36 287.8,162.92 49.6,22.66 92.9,42.46 133.6,69.6 l 0.2,-0.27 192,-38.5 48,-78.84 c 1.8,-2.85 5.5,-3.76 8.4,-2.02 2.9,1.71 3.8,5.49 2,8.38"
         style="fill:#c38dcd;fill-opacity:1;fill-rule:nonzero;stroke:none"
         id="path136" /><path
         d="m 9945.6,2625.67 c -153.21,-205.39 -193.29,-277.99 -296.76,-581.37 -103.98,-303.62 -28.31,-234.83 -203.79,-225.33 -175.48,9.49 -409.97,-231.18 -409.97,-231.18 0,0 -55.3,2.05 -107.84,13.07 -8.14,1.62 -16.28,3.24 -23.79,5.48 -38.7,10.29 -71.11,26.68 -70.42,52.17 1.55,63.35 -5.84,206.18 -88.97,335.43 -83.62,129.01 88.35,220.33 51.06,447.95 -37.29,227.63 -56.56,377.98 125.1,316.52 4.8,-1.69 9.11,-3.62 13.65,-6.05 26.88,-13.2 49.61,-38.21 69.24,-70.85 8.43,-13.75 15.97,-28.85 22.76,-44.93 3.83,-7.99 7.53,-16.34 10.73,-24.94 1.41,-4.23 3.2,-8.59 4.85,-13.32 14.54,-41.21 26.65,-86.96 36.01,-133.42 16.61,-80.1 26.39,-161.96 31.89,-225.31 5.91,-68.05 7.23,-114.98 7.23,-114.98 0,0 6.66,5.96 16.25,16.69 l 0.13,0.36 c 27.76,31.72 78.99,105.38 72.81,209.21 -0.55,11.4 -2.08,23.56 -4.35,35.97 -5.01,25.83 -8.59,48.66 -10.37,68.37 l -0.22,1.74 -0.21,1.73 c -1.24,7.07 -1.75,13.9 -2.02,20.21 -1.57,32.09 2.15,54.43 14.29,70.07 9.11,11.72 23.11,19.66 42.62,24.41 16.28,3.82 36.73,5.33 61.74,5.65 6.31,0.27 12.87,0.03 19.42,-0.2 2.11,0.09 4.58,0.05 6.69,0.14 31.67,-0.78 65.53,17.59 102.3,47.8 5.89,4.98 12.16,9.82 17.95,15.66 29.9,25.99 61.76,58.75 96.27,94.32 56.16,56.99 119.49,121.41 192.85,177.74 35.86,27.62 74.28,53.1 115.12,74.82 l 0.36,-0.13 c 2.5,1.19 5.5,2.63 8.12,4.19 30.34,15.46 62,28.8 95.47,39 27.25,9.08 55.3,15.8 84.8,20.37 373.2,57.39 52.1,-222.06 -101,-427.06"
         style="fill:#a1dc91;fill-opacity:1;fill-rule:nonzero;stroke:none"
         id="path138" /><path
         d="m 9990.35,2815.28 c -113.9,-60.73 -209.8,-148.12 -300.79,-238.06 -5.54,-5.11 -10.69,-10.35 -15.86,-15.59 -37.89,-38.11 -74.07,-77.23 -109.64,-116.99 -54.87,-61.58 -107.79,-124.7 -160.1,-188.43 -85.55,-105.14 -167.46,-214.06 -246.9,-324.25 -79.17,-108.22 -156.64,-218.7 -229.82,-331.1 -8.14,1.62 -16.28,3.24 -23.79,5.48 10.75,65.91 19.79,132.85 28.34,199.54 8.3,67.2 14.99,134.54 19.58,201.8 4.72,67.62 6.83,134.93 5.37,202.65 -1.6,67.37 -6.65,135.53 -27.98,199.88 25.07,-63.18 32.69,-132.25 37.14,-199.78 3.94,-67.77 4.54,-135.61 0.93,-203.62 -5.57,-118.36 -16.32,-236.15 -33.26,-353.82 25.14,38.45 50.66,76.76 76.55,114.95 10.66,16.15 21.7,32.19 32.61,47.85 30.57,44.42 61.38,88.34 92.56,132.13 80.56,109.8 163.94,218.19 250.74,323.32 47.11,57.26 95.45,113.26 145.99,167.26 42.37,46.07 85.81,90.52 130.6,134.09 9.43,9.12 18.74,17.88 28.42,26.51 40.37,38.07 82.19,74.38 125.95,107.93 54.04,41.55 111.13,79.95 173.36,108.25"
         style="fill:#7840a4;fill-opacity:1;fill-rule:nonzero;stroke:none"
         id="path140" /><path
         d="m 8471.8,1397.76 c 1656.9,0 3691.2,-659.131 671.57,-674.811 C 6008.75,706.66 5832.7,756.629 4672.72,332.641 3512.72,-91.3984 2543.32,-127.098 2078.36,324.551 1613.39,776.18 1545.06,601.832 905.77,751.391 266.48,900.961 702.145,1306.1 2643.57,1306.1 c 1733.22,0 5828.23,91.66 5828.23,91.66"
         style="fill:#d7f0d0;fill-opacity:1;fill-rule:nonzero;stroke:none"
         id="path142" /><path
         d="m 8749.32,2593.97 c 0,-90.99 -72.96,-163.95 -163.96,-163.95 H 2621.61 c -90.16,0 -163.94,72.96 -163.94,163.95 v 3350.36 c 0,90.18 73.78,163.96 163.94,163.96 h 5963.75 c 91,0 163.96,-73.78 163.96,-163.96 V 2593.97 m -112.31,3820.9 H 2570.79 c -181.17,0 -327.91,-147.55 -327.91,-327.9 v -3883.2 c 0,-36.9 5.74,-72.14 17.22,-104.93 43.45,-129.52 166.41,-222.97 310.69,-222.97 h 6066.22 c 135.27,0 250.85,81.15 301.67,198.38 16.4,39.35 26.23,83.61 26.23,129.52 v 3883.2 c 0,180.35 -146.73,327.9 -327.9,327.9"
         style="fill:#7840a4;fill-opacity:1;fill-rule:nonzero;stroke:none"
         id="path144" /><path
         d="M 8749.02,5944.48 V 2594.13 c 0,-90.99 -72.96,-163.95 -163.95,-163.95 H 2621.32 c -90.17,0 -163.96,72.96 -163.96,163.95 v 3350.35 c 0,90.18 73.79,163.96 163.96,163.96 h 5963.75 c 90.99,0 163.95,-73.78 163.95,-163.96"
         style="fill:#eaadda;fill-opacity:1;fill-rule:nonzero;stroke:none"
         id="path146" /><g
         id="g148"><g
           id="g150"
           clip-path="url(#clipPath154)"><path
             d="m 8585.07,2430.18 h -4804.6 l 24.28,82.26 c 13.82,45.25 -6.24,77.66 -44.98,77.66 -2.94,0 -5.98,-0.19 -9.12,-0.57 l -139.58,-17.13 46.62,155.08 c 13.56,45.1 -6.37,78.43 -44.91,78.43 -2.86,0 -5.82,-0.18 -8.87,-0.56 l -115.35,-14.19 c -4.98,35.33 -7.54,62.18 -7.04,76.95 13.53,397.6 -36.51,945.31 -205.55,1006.17 -50.51,10.48 -101.69,18.27 -153.07,23.38 1.25,61.28 3.28,125.25 6.34,192.48 -8.12,1.59 -16.24,3.13 -24.37,4.61 17.99,67.69 27.06,153.67 25.04,236.61 0.01,-0.17 0.1,-1.34 1.35,-1.34 50.05,112.24 56.81,250.18 -60.85,332.68 -28.51,16.29 -65.66,35.27 -108.03,49.28 -12.76,47.6 -31.5,86.82 -56.9,110.77 l -343.84,-78.95 -104.28,-157.54 v 1358.22 c 0,90.18 73.79,163.96 163.96,163.96 h 2107.09 c 0,-0.03 0,-0.05 0,-0.07 0,-22.99 -5.41,-43.28 -14.88,-59.5 -4.85,1.45 -9.88,2.21 -14.83,2.21 -8.84,0 -17.45,-2.42 -24.39,-7.62 -2.71,-1.36 -4.05,-2.71 -6.76,-5.41 l -79.8,-79.79 c -16.22,-17.58 -17.57,-45.98 0,-62.21 9.09,-9.08 20.71,-13.51 32.27,-13.51 9.1,0 18.15,2.74 25.89,8.1 2.7,1.36 4.06,2.71 5.42,4.06 l 79.78,79.79 c 9.47,12.17 14.88,27.05 12.17,40.57 18.94,25.69 27.05,58.15 27.05,93.31 0,0.02 0,0.05 0,0.07 H 5775.24 V 3129.48 c 0,-184.75 149.77,-334.52 334.52,-334.52 h 2639.26 v -200.83 c 0,-90.99 -72.96,-163.95 -163.95,-163.95 m -5343.81,330.55 c 0.3,4.69 0.6,9.38 0.9,14.07 l 1.48,-13.78 -2.38,-0.29 m -783.9,1330.68 v 266.72 c 12.84,-22.85 29.64,-43.08 53.35,-60.11 14.52,-11.22 32.34,-22.56 52.29,-33.57 2.24,-9.21 4.49,-18.1 7.04,-26.39 -21.48,-53.33 -39.49,-99.26 -53.17,-139.73 -16.53,-2.08 -36.89,-4.4 -59.51,-6.92"
             style="fill:url(#linearGradient160);fill-opacity:1;fill-rule:nonzero;stroke:none"
             id="path162" /></g></g><path
         d="m 5711.2,6259.58 c 0,-59.42 -48.17,-107.59 -107.6,-107.59 -59.42,0 -107.58,48.17 -107.58,107.59 0,59.42 48.16,107.59 107.58,107.59 59.43,0 107.6,-48.17 107.6,-107.59"
         style="fill:#c38dcd;fill-opacity:1;fill-rule:nonzero;stroke:none"
         id="path164" /><path
         d="m 5775.24,2163.34 c 0,-94.79 -76.84,-171.63 -171.64,-171.63 -94.79,0 -171.63,76.84 -171.63,171.63 0,94.79 76.84,171.64 171.63,171.64 94.8,0 171.64,-76.85 171.64,-171.64"
         style="fill:#c38dcd;fill-opacity:1;fill-rule:nonzero;stroke:none"
         id="path166" /><path
         d="m 9559.24,1875.87 c 0,-91.82 -17.22,-179.53 -50,-260.68 -13.13,-34.44 -28.7,-67.23 -48.37,-98.38 -29.51,-51.64 -66.4,-99.19 -108.21,-141 -126.24,-126.24 -300.85,-204.94 -493.49,-206.58 H 2355.2 c -79.53,0 -156.58,13.12 -227.9,37.71 -278.72,94.27 -478.74,358.24 -478.74,668.93 h 7910.68"
         style="fill:#692e97;fill-opacity:1;fill-rule:nonzero;stroke:none"
         id="path168" /><path
         d="m 5854.87,1551.94 h -502.52 c -125.34,0 -226.94,101.61 -226.94,226.94 h 956.39 c 0,-125.33 -101.6,-226.94 -226.93,-226.94"
         style="fill:#c38dcd;fill-opacity:1;fill-rule:nonzero;stroke:none"
         id="path170" /><g
         id="g172"><g
           id="g174"
           clip-path="url(#clipPath178)"><path
             d="M 8859.17,1169.23 H 3170.35 l -0.01,0.32 h 139.44 l -12.17,365.13 c -6.76,67.62 -35.17,131.18 -75.74,190.69 75.74,-37.87 156.88,-78.44 240.72,-125.77 17.59,-120.36 50.04,-271.83 86.55,-430.05 h 373.26 l -36.52,501.72 c -10.82,73.04 -45.98,142 -96.01,204.21 -0.1,0.13 -0.19,0.26 -0.29,0.39 h 5769.66 c 0,-91.82 -17.22,-179.53 -50,-260.68 -13.13,-34.44 -28.7,-67.23 -48.37,-98.38 -29.51,-51.64 -66.4,-99.19 -108.21,-141 -126.24,-126.24 -300.85,-204.94 -493.49,-206.58 m -3733.76,609.65 c 0,-125.33 101.6,-226.94 226.94,-226.94 h 502.52 c 125.33,0 226.93,101.61 226.93,226.94 H 5125.41 M 2811.54,1169.23 H 2355.2 c -79.53,0 -156.58,13.12 -227.9,37.71 -278.72,94.27 -478.74,358.24 -478.74,668.93 h 646.13 c 0.25,-0.13 0.5,-0.26 0.75,-0.39 h -32.39 c 76.27,-235.65 261.8,-237.48 481.55,-332.99 17.53,-114.44 40.99,-243.41 66.94,-373.26 m -1162.46,706.25 c 0,-139.29 40.57,-270.47 110.89,-380.01 l 18.93,380.01 h -129.82"
             style="fill:url(#linearGradient184);fill-opacity:1;fill-rule:nonzero;stroke:none"
             id="path186" /></g></g><g
         id="g188"><g
           id="g190"
           clip-path="url(#clipPath194)"><path
             d="m 5854.87,1551.94 h -502.52 c -125.34,0 -226.94,101.61 -226.94,226.94 h 956.39 c 0,-125.33 -101.6,-226.94 -226.93,-226.94"
             style="fill:url(#linearGradient200);fill-opacity:1;fill-rule:nonzero;stroke:none"
             id="path202" /></g></g><path
         d="m 4422.47,3171.1 c 24.72,242.64 166.08,435.35 330.53,435.35 168.28,0 308.17,-189.4 332.15,-435.35 z m 565.92,736.53 c -61.06,-91.96 -144.31,-149.83 -234.65,-149.83 -90.35,0 -173.58,57.87 -234.65,149.83 z m -234.65,873.17 c 90.34,0 173.58,-57.86 234.65,-149.81 h -469.3 c 61.07,91.95 144.3,149.81 234.65,149.81 z m -331.27,586.71 h 662.68 c -23.98,-245.96 -163.87,-435.27 -332.15,-435.27 -164.45,0 -305.81,192.7 -330.53,435.27 z m 0.6,-1022.85 c 4.87,47.55 13.68,93.06 26.81,135.69 h 607.71 c 13.13,-42.63 21.94,-88.14 26.82,-135.69 z m 661.34,-150.64 c -4.88,-47.57 -13.7,-93.09 -26.84,-135.77 H 4449.9 c -13.14,42.68 -21.96,88.2 -26.83,135.77 z M 4975.2,3683.21 c 74.86,52.68 139.09,128.98 185.07,224.42 h 4.6 v 11.53 c 47.01,101.87 75.33,221.3 75.33,350.19 0,128.87 -28.32,248.32 -75.33,350.15 v 11.49 h -4.58 c -46,95.46 -110.23,171.77 -185.13,224.46 157.51,108.25 264.29,326.72 264.29,587.37 v 75.31 h -971.43 v -75.31 c 0,-256.43 108.73,-476.75 265.64,-586.38 -75.49,-52.68 -140.19,-129.41 -186.47,-225.45 h -4.59 v -11.49 c -47,-101.83 -75.31,-221.28 -75.31,-350.15 0,-128.89 28.31,-248.32 75.31,-350.19 v -11.53 h 4.61 c 46.26,-96.02 110.96,-172.73 186.41,-225.41 -156.88,-109.65 -265.6,-329.97 -265.6,-586.43 v -75.31 h 971.43 v 75.31 c 0,260.68 -106.78,479.15 -264.25,587.42"
         style="fill:#b2e5e9;fill-opacity:1;fill-rule:nonzero;stroke:none"
         id="path204" /><path
         d="m 8749.32,2794.96 h -0.3 v 2143.03 c 0.08,0.07 0.22,0.21 0.3,0.28 V 2794.96"
         style="fill:#bfeaec;fill-opacity:1;fill-rule:nonzero;stroke:none"
         id="path206" /><path
         d="m 8749.02,4937.99 v 1006.49 c 0,63.2 -35.83,118.34 -88.59,145.68 52.92,-27.28 88.89,-82.51 88.89,-145.83 V 4938.27 c -0.08,-0.07 -0.22,-0.21 -0.3,-0.28"
         style="fill:#b6e6e3;fill-opacity:1;fill-rule:nonzero;stroke:none"
         id="path208" /><path
         d="m 8964.91,2795.16 v 11.73 c 9.79,-3.77 20.27,-6.8 31.19,-9.2 -10.25,-1.31 -20.66,-2.16 -31.19,-2.53 m 238.32,112.15 c -9.52,61.51 -29.41,133.61 -70.97,167.71 -39.01,31.99 -85.21,47.9 -128.83,47.9 -13.16,0 -26.09,-1.45 -38.52,-4.34 v 2030.95 c 112.77,113.04 221.62,227.49 322.74,345.12 V 4508.2 c -23.35,8.84 -47.35,13.19 -70.58,13.19 -51.56,0 -99.35,-21.41 -128,-62.7 -50.47,-72.73 -22.34,-179.6 62.81,-238.68 29.04,-20.15 71.35,-26.79 114.47,-26.8 7.09,0 14.21,0.18 21.3,0.51 v -330.25 c -38.49,-1.05 -74.81,-15.14 -101.92,-42.78 -62,-63.2 -52.27,-173.27 21.71,-245.85 19.59,-19.21 48.42,-31.74 80.21,-39.79 v -405.57 c 0,-85.27 -31.9,-163.09 -84.42,-222.17 M 6473.55,6891.92 c 64.7,56.64 128.06,115.97 190.09,177.99 96.01,67.61 146.05,174.45 144.69,282.63 h -699.16 c -87.2,0 -166.8,-33.73 -226.4,-88.83 -0.03,0.05 -0.06,0.09 -0.09,0.14 59.64,55.16 139.43,88.87 227.08,88.87 h 1531.06 c -187.21,-180.52 -368.46,-345 -536.52,-457.18 -2.97,0.12 -5.96,0.18 -8.97,0.18 h -581.65 c -13.72,0 -27.14,-1.31 -40.13,-3.8 m 734.72,277.04 57.19,-103.5 57.19,69.85 -114.38,33.65"
         style="fill:#bfeaec;fill-opacity:1;fill-rule:nonzero;stroke:none"
         id="path210" /><path
         d="m 8964.91,5149.53 v 937.44 c 0,180.35 -146.73,327.9 -327.9,327.9 H 5775.24 v 34.34 c 18.89,8.11 36.43,18.92 53.99,31.06 170.07,74.23 334.75,171.37 491.34,290.07 -11.7,-26.26 -18.21,-55.34 -18.21,-85.94 v -19.33 c 0,-116.7 94.61,-211.31 211.32,-211.31 h 581.65 c 116.71,0 211.32,94.61 211.32,211.31 v 19.33 c 0,113.7 -89.8,206.43 -202.35,211.14 168.06,112.18 349.31,276.66 536.52,457.18 h 620.29 l -15.63,-44.45 149.33,44.45 h 558.33 c 184.74,0 334.51,-149.76 334.51,-334.51 V 5494.65 c -101.12,-117.63 -209.97,-232.08 -322.74,-345.12 m -837.47,1849.74 -192.09,-92.15 211.38,-114.4 -19.29,206.55 m -791.96,64.95 -54,-153.59 176.03,52.41 -122.03,101.18 m -1530.6,91.84 c 18.57,41.01 45.17,77.6 77.8,107.79 0.03,-0.05 0.06,-0.09 0.09,-0.14 -32.64,-30.16 -59.28,-66.73 -77.89,-107.65"
         style="fill:#b6e6e3;fill-opacity:1;fill-rule:nonzero;stroke:none"
         id="path212" /><path
         d="m 8146.73,6792.72 -211.38,114.4 192.09,92.15 19.29,-206.55"
         style="fill:#b4e6e6;fill-opacity:1;fill-rule:nonzero;stroke:none"
         id="path214" /><path
         d="m 7281.48,6910.63 54,153.59 122.03,-101.18 -176.03,-52.41"
         style="fill:#b8e7eb;fill-opacity:1;fill-rule:nonzero;stroke:none"
         id="path216" /><path
         d="m 8245.48,7308.27 15.63,44.45 h 133.7 l -149.33,-44.45"
         style="fill:#b8e7eb;fill-opacity:1;fill-rule:nonzero;stroke:none"
         id="path218" /><path
         d="m 7265.46,7065.46 -57.19,103.5 114.38,-33.65 -57.19,-69.85"
         style="fill:#bce8e9;fill-opacity:1;fill-rule:nonzero;stroke:none"
         id="path220" /><path
         d="m 9266.35,4193.21 c -43.12,0.01 -85.43,6.65 -114.47,26.8 -85.15,59.08 -113.28,165.95 -62.81,238.68 28.65,41.29 76.44,62.7 128,62.7 23.23,0 47.23,-4.35 70.58,-13.19 v -178.73 l -119.4,82.85 c -1.22,0.85 -2.61,1.25 -3.99,1.25 -2.23,0 -4.43,-1.06 -5.8,-3.02 -2.21,-3.18 -1.41,-7.58 1.76,-9.8 l 85.18,-59.09 -91.27,-20.82 c -3.79,-0.88 -6.22,-4.66 -5.31,-8.42 0.76,-3.27 3.67,-5.5 6.88,-5.5 0.51,0 1.03,0.06 1.55,0.18 l 103.83,23.68 26.57,-18.24 v -118.82 c -7.09,-0.33 -14.21,-0.51 -21.3,-0.51"
         style="fill:#b2e5e9;fill-opacity:1;fill-rule:nonzero;stroke:none"
         id="path222" /><path
         d="m 8996.1,2797.69 c -10.92,2.4 -21.4,5.43 -31.19,9.2 v 110.07 l 81.76,11.84 94,-76.37 c -42.28,-28.67 -91.48,-47.93 -144.57,-54.74 m 156.27,63.05 -36.09,29.16 22.29,116.5 c 0.73,3.82 -1.76,7.5 -5.57,8.24 -0.45,0.09 -0.9,0.13 -1.35,0.13 -3.31,0 -6.26,-2.41 -6.88,-5.72 l -20.88,-108.99 -138.98,114 v 104.52 c 12.43,2.89 25.36,4.34 38.52,4.34 43.62,0 89.82,-15.91 128.83,-47.9 41.56,-34.1 61.45,-106.2 70.97,-167.71 -15.3,-17.2 -32.35,-32.82 -50.86,-46.57 m -187.46,70.45 v 64.67 l 67.01,-54.97 -67.01,-9.7"
         style="fill:#b2e5e9;fill-opacity:1;fill-rule:nonzero;stroke:none"
         id="path224" /><path
         d="m 9287.65,3535.05 c -31.79,8.05 -60.62,20.58 -80.21,39.79 -73.98,72.58 -83.71,182.65 -21.71,245.85 27.11,27.64 63.43,41.73 101.92,42.78 v -132.9 l -31.68,31.08 c -1.37,1.34 -3.15,2.01 -4.93,2.01 -1.82,0 -3.65,-0.71 -5.02,-2.11 -2.72,-2.76 -2.68,-7.23 0.09,-9.95 l 41.54,-40.74 v -33.64 l -61.01,-3.36 c -3.89,-0.24 -6.9,-3.56 -6.66,-7.41 0.23,-3.75 3.31,-6.67 7,-6.67 0.14,0 0.27,0.01 0.41,0.02 l 60.26,3.31 v -128.06"
         style="fill:#b2e5e9;fill-opacity:1;fill-rule:nonzero;stroke:none"
         id="path226" /><path
         d="m 9140.67,2852.43 -94,76.37 -81.76,-11.84 v 14.23 l 67.01,9.7 -67.01,54.97 v 18.2 l 138.98,-114 20.88,108.99 c 0.62,3.31 3.57,5.72 6.88,5.72 0.45,0 0.9,-0.04 1.35,-0.13 3.81,-0.74 6.3,-4.42 5.57,-8.24 l -22.29,-116.5 36.09,-29.16 c -3.85,-2.86 -7.73,-5.62 -11.7,-8.31 m 86.31,807.35 c -3.69,0 -6.77,2.92 -7,6.67 -0.24,3.85 2.77,7.17 6.66,7.41 l 61.01,3.36 v -14.11 l -60.26,-3.31 c -0.14,-0.01 -0.27,-0.02 -0.41,-0.02 m 60.67,51.08 -41.54,40.74 c -2.77,2.72 -2.81,7.19 -0.09,9.95 1.37,1.4 3.2,2.11 5.02,2.11 1.78,0 3.56,-0.67 4.93,-2.01 l 31.68,-31.08 v -19.71 m -131.95,596.06 c -3.21,0 -6.12,2.23 -6.88,5.5 -0.91,3.76 1.52,7.54 5.31,8.42 l 91.27,20.82 -85.18,59.09 c -3.17,2.22 -3.97,6.62 -1.76,9.8 1.37,1.96 3.57,3.02 5.8,3.02 1.38,0 2.77,-0.4 3.99,-1.25 l 119.4,-82.85 v -16.93 l -26.57,18.24 -103.83,-23.68 c -0.52,-0.12 -1.04,-0.18 -1.55,-0.18"
         style="fill:#b5e7f6;fill-opacity:1;fill-rule:nonzero;stroke:none"
         id="path228" /><path
         d="m 8953.14,2794.96 h -203.82 v 3149.37 c 0,63.32 -35.97,118.55 -88.89,145.83 -22.53,11.67 -48.14,18.28 -75.36,18.28 H 5775.24 v 306.43 h 2861.77 c 181.17,0 327.9,-147.55 327.9,-327.9 v -937.44 -2030.95 -104.52 -18.2 -64.67 -14.23 -110.07 -11.73 c -3.91,-0.13 -7.83,-0.2 -11.77,-0.2"
         style="fill:#aad0ef;fill-opacity:1;fill-rule:nonzero;stroke:none"
         id="path230" /><g
         id="g232"><g
           id="g234"
           clip-path="url(#clipPath238)"><path
             d="M 8749.02,2794.96 H 6109.76 c -184.75,0 -334.52,149.77 -334.52,334.52 v 2978.96 h 2809.83 c 90.99,0 163.95,-73.78 163.95,-163.96 V 2794.96"
             style="fill:url(#linearGradient244);fill-opacity:1;fill-rule:nonzero;stroke:none"
             id="path246" /></g></g><path
         d="m 7095.33,6453.76 h -581.65 c -116.71,0 -211.32,94.61 -211.32,211.31 v 19.33 c 0,116.71 94.61,211.32 211.32,211.32 h 581.65 c 116.71,0 211.32,-94.61 211.32,-211.32 v -19.33 c 0,-116.7 -94.61,-211.31 -211.32,-211.31"
         style="fill:#f4a2d5;fill-opacity:1;fill-rule:nonzero;stroke:none"
         id="path248" /><path
         d="M 8433.34,5415.36 H 6513.68 c -116.71,0 -211.32,94.62 -211.32,211.32 v 19.33 c 0,116.71 94.61,211.32 211.32,211.32 h 1919.66 c 116.71,0 211.32,-94.61 211.32,-211.32 v -19.33 c 0,-116.7 -94.61,-211.32 -211.32,-211.32"
         style="fill:#f4a2d5;fill-opacity:1;fill-rule:nonzero;stroke:none"
         id="path250" /><path
         d="M 7870.49,4631.88 H 6492.62 c -105.08,0 -190.26,85.17 -190.26,190.25 v 61.46 c 0,105.07 85.18,190.26 190.26,190.26 h 1377.87 c 105.08,0 190.25,-85.19 190.25,-190.26 v -61.46 c 0,-105.08 -85.17,-190.25 -190.25,-190.25"
         style="fill:#f4a2d5;fill-opacity:1;fill-rule:nonzero;stroke:none"
         id="path252" /><path
         d="M 8537.71,3848.39 H 6513.68 c -116.71,0 -211.32,94.62 -211.32,211.33 v 19.31 c 0,116.71 94.61,211.33 211.32,211.33 h 2024.03 c 116.7,0 211.31,-94.62 211.31,-211.33 v -19.31 c 0,-116.71 -94.61,-211.33 -211.31,-211.33"
         style="fill:#f4a2d5;fill-opacity:1;fill-rule:nonzero;stroke:none"
         id="path254" /><path
         d="m 8260.48,3064.9 h -1746.8 c -116.71,0 -211.32,94.62 -211.32,211.33 v 19.32 c 0,116.72 94.61,211.33 211.32,211.33 h 1746.8 c 116.71,0 211.32,-94.61 211.32,-211.33 v -19.32 c 0,-116.71 -94.61,-211.33 -211.32,-211.33"
         style="fill:#f4a2d5;fill-opacity:1;fill-rule:nonzero;stroke:none"
         id="path256" /><path
         d="m 4657.02,6414.87 h -48.68 c -0.1,0.17 -0.19,0.32 -0.29,0.49 h 48.68 c 0.1,-0.16 0.19,-0.33 0.29,-0.49"
         style="fill:#bde7bc;fill-opacity:1;fill-rule:nonzero;stroke:none"
         id="path258" /><path
         d="m 4770.33,6108.44 h -41.92 c 1.31,79.67 -49.93,190.35 -120.07,306.43 h 48.68 c 67.44,-113.39 114.64,-221.36 113.31,-306.43"
         style="fill:#733ba1;fill-opacity:1;fill-rule:nonzero;stroke:none"
         id="path260" /><g
         id="g262"><g
           id="g264"
           clip-path="url(#clipPath268)"><path
             d="m 4620.02,5882.54 c -11.56,0 -23.18,4.43 -32.27,13.51 -17.57,16.23 -16.22,44.63 0,62.21 l 79.8,79.79 c 2.71,2.7 4.05,4.05 6.76,5.41 6.94,5.2 15.55,7.62 24.39,7.62 4.95,0 9.98,-0.76 14.83,-2.21 9.47,16.22 14.88,36.51 14.88,59.5 0,0.02 0,0.04 0,0.07 h 41.92 c 0,-0.02 0,-0.05 0,-0.07 0,-35.16 -8.11,-67.62 -27.05,-93.31 2.71,-13.52 -2.7,-28.4 -12.17,-40.57 l -79.78,-79.79 c -1.36,-1.35 -2.72,-2.7 -5.42,-4.06 -7.74,-5.36 -16.79,-8.1 -25.89,-8.1"
             style="fill:url(#linearGradient274);fill-opacity:1;fill-rule:nonzero;stroke:none"
             id="path276" /></g></g><path
         d="m 5775.14,6449.17 v 569.35 c 0,48.97 10.64,95.55 29.74,137.54 -19.04,-42.03 -29.64,-88.71 -29.64,-137.85 v -569 c -0.03,-0.01 -0.07,-0.03 -0.1,-0.04"
         style="fill:#bde7bc;fill-opacity:1;fill-rule:nonzero;stroke:none"
         id="path278" /><path
         d="m 6365.34,6834.91 c -185.75,87.65 -351.14,234.69 -482.57,428.8 59.6,55.1 139.2,88.83 226.4,88.83 h 699.16 c 1.36,-108.18 -48.68,-215.02 -144.69,-282.63 -62.03,-62.02 -125.39,-121.35 -190.09,-177.99 -41.75,-8.03 -79.11,-28.33 -108.21,-57.01"
         style="fill:#a6e1db;fill-opacity:1;fill-rule:nonzero;stroke:none"
         id="path280" /><path
         d="m 5775.24,6449.21 v 569 c 0,49.14 10.6,95.82 29.64,137.85 18.61,40.92 45.25,77.49 77.89,107.65 131.43,-194.11 296.82,-341.15 482.57,-428.8 -18.68,-18.42 -33.95,-40.29 -44.77,-64.57 -156.59,-118.7 -321.27,-215.84 -491.34,-290.07 -17.56,-12.14 -35.1,-22.95 -53.99,-31.06"
         style="fill:#a0dfd3;fill-opacity:1;fill-rule:nonzero;stroke:none"
         id="path282" /><path
         d="m 6320.57,6770.34 c 10.82,24.28 26.09,46.15 44.77,64.57 29.1,28.68 66.46,48.98 108.21,57.01 -0.2,-0.18 -0.4,-0.35 -0.6,-0.53 h -1.35 c -48.69,-43.27 -98.72,-82.5 -150.12,-120.36 -0.3,-0.23 -0.61,-0.46 -0.91,-0.69"
         style="fill:#e68dcc;fill-opacity:1;fill-rule:nonzero;stroke:none"
         id="path284" /><path
         d="m 5829.13,6616.45 c 298.86,129.75 575.88,330.33 834.87,589.32 153.45,108.31 190.03,320.51 81.72,473.96 l -416.76,590.43 -1390.57,-981.57 416.78,-590.43 c 108.31,-153.44 320.5,-190.03 473.96,-81.71"
         style="fill:#e91997;fill-opacity:1;fill-rule:nonzero;stroke:none"
         id="path286" /><path
         d="m 5920.94,7274.53 858.13,1294.21 c 16.01,24.15 -6.15,55.34 -34.22,48.16 l -1453.5,-371.46 c -7.72,-1.96 -14.4,-6.76 -18.72,-13.44 L 4488.46,7022.8 c -15.3,-23.59 5.46,-53.93 32.99,-48.21 l 1379.54,286.44 c 8.17,1.69 15.34,6.54 19.95,13.5"
         style="fill:#f4a2d5;fill-opacity:1;fill-rule:nonzero;stroke:none"
         id="path288" /><path
         d="m 4588.37,6031.46 c 16.13,-15.3 40.15,-17.57 57.95,-4.99 2.14,1.5 3.06,3.22 5.19,4.73 l 79.41,79.53 c 10.1,11.39 15.25,26.77 11.98,40.48 105.56,151.34 -115.39,462.83 -295.31,714.71 l -35.7,50.57 c -82.97,117.54 -64.24,222.54 -3.7,265.28 29.93,21.12 67.55,25.27 106.82,13.49 46.84,-14.96 94.06,-53.13 134.8,-110.83 6.53,-9.26 20.4,-12.27 30.37,-5.24 9.26,6.54 11.77,21.12 5.24,30.38 -46.26,65.53 -100.64,109.33 -157.01,127.18 -52.92,16 -104.03,9.8 -145.35,-19.36 -78.36,-55.31 -105.84,-185.71 -6.79,-326.04 l 35.69,-50.57 c 159.11,-223.88 374.22,-525.61 301.03,-656.26 -12.95,4.73 -27.66,2.89 -39.05,-5.16 -2.14,-1.51 -4.28,-3.02 -5.91,-5.23 l -80.12,-80.04 c -16.72,-17.13 -17.18,-45.21 0.46,-62.63"
         style="fill:#e91997;fill-opacity:1;fill-rule:nonzero;stroke:none"
         id="path290" /><path
         d="m 3780.42,2430.02 h -212.14 l 0.04,0.16 h 212.15 l -0.05,-0.16"
         style="fill:#bde7bc;fill-opacity:1;fill-rule:nonzero;stroke:none"
         id="path292" /><path
         d="m 3789.58,1875.87 h -676.39 c -35.99,73.74 -93.08,142.21 -157.38,205.43 l 446.99,55 c 44.27,5.45 91.96,49.14 106.53,97.6 l 58.95,196.12 h 212.14 l -0.02,-0.08 -124.42,-411.11 c 0,-1.36 0,-1.36 -1.35,-2.71 49.91,-44.51 97.13,-90.36 134.95,-140.25"
         style="fill:#733ba1;fill-opacity:1;fill-rule:nonzero;stroke:none"
         id="path294" /><g
         id="g296"><g
           id="g298"
           clip-path="url(#clipPath302)"><path
             d="m 3780.47,2430.18 h -212.15 l 42.75,142.22 139.58,17.13 c 3.14,0.38 6.18,0.57 9.12,0.57 38.74,0 58.8,-32.41 44.98,-77.66 l -24.28,-82.26 m -703.27,310.36 c 26.09,318.76 48.08,713.72 46.17,833.57 -1.5,32.35 -1.84,65.9 -1.96,100.15 -0.44,70.87 -0.11,144.93 1.49,223.4 51.38,-5.11 102.56,-12.9 153.07,-23.38 169.04,-60.86 219.08,-608.57 205.55,-1006.17 -0.5,-14.77 2.06,-41.62 7.04,-76.95 l -244.92,-30.14 -1.48,13.78 c -0.3,-4.69 -0.6,-9.38 -0.9,-14.07 l -164.06,-20.19 m 27.67,1354.21 c -64.45,11.72 -129.34,19.86 -194.35,23.74 -27.05,12.22 -41.12,33.37 -48.15,59.38 6.29,0.94 11.85,2.4 16.6,4.41 64.93,19.2 104.86,183.21 104.83,343.64 -0.01,66.08 -6.8,131.56 -21.42,186.06 42.37,-14.01 79.52,-32.99 108.03,-49.28 117.66,-82.5 110.9,-220.44 60.85,-332.68 -1.25,0 -1.34,1.17 -1.35,1.34 2.02,-82.94 -7.05,-168.92 -25.04,-236.61 m -588,3.58 c 13.68,40.47 31.69,86.4 53.17,139.73 -2.55,8.29 -4.8,17.18 -7.04,26.39 8.25,-4.56 16.86,-9.05 25.74,-13.46 -7.21,-46.24 -25.77,-94.61 -60.65,-150.44 -1.01,-0.35 -1.96,-0.73 -2.88,-1.14 -2.66,-0.35 -5.44,-0.71 -8.34,-1.08"
             style="fill:url(#linearGradient308);fill-opacity:1;fill-rule:nonzero;stroke:none"
             id="path310" /></g></g><g
         id="g312"><g
           id="g314"
           clip-path="url(#clipPath318)"><path
             d="m 3922.4,1169.55 h -373.26 c -36.51,158.22 -68.96,309.69 -86.55,430.05 -83.84,47.33 -164.98,87.9 -240.72,125.77 40.57,-59.51 68.98,-123.07 75.74,-190.69 l 12.17,-365.13 h -139.44 l -19.3,580.74 c -4.81,43.43 -18.18,85.29 -37.85,125.58 h 676.39 c 0.1,-0.13 0.19,-0.26 0.29,-0.39 50.03,-62.21 85.19,-131.17 96.01,-204.21 l 36.52,-501.72 m -2162.43,325.92 c -70.32,109.54 -110.89,240.72 -110.89,380.01 h 129.82 l -18.93,-380.01 m 984.63,47.02 c -219.75,95.51 -405.28,97.34 -481.55,332.99 h 32.39 c 115.81,-60.13 267.52,-83.81 428.84,-183.9 5.26,-45.64 12.14,-95.78 20.32,-149.09"
             style="fill:url(#linearGradient324);fill-opacity:1;fill-rule:nonzero;stroke:none"
             id="path326" /></g></g><path
         d="m 2157.64,3383.25 c -25.81,6.99 -17.9,7.06 -43.83,24.6 1.79,-42.87 20.11,-89.53 35.21,-142.82 4.94,-29.64 -94.8,-21.48 -123.25,-15.18 -43.7,14.04 -78.03,14.99 -110.22,62.82 -24.44,62.43 -35.65,123.01 -27.68,179.86 -154.76,397.58 -282.67,813.94 -336.66,1108.34 -13.21,1.84 19.66,134.18 63.66,277.2 94.81,-40.56 210.52,-61.09 296.43,-72.03 l -41.31,-189.71 174.59,-1091.76 c 54.25,-12.61 107.43,-48.33 143.69,-106.67 9.61,-33.55 -0.93,-34.99 -30.63,-34.65"
         style="fill:#edab9b;fill-opacity:1;fill-rule:nonzero;stroke:none"
         id="path328" /><g
         id="g330"><g
           id="g332"
           clip-path="url(#clipPath336)"><path
             d="m 2081.98,3243.96 c -8.96,0.24 -17.87,0.83 -26.07,1.6 l 29.41,48.56 c -1.14,-16.66 -2.26,-33.41 -3.34,-50.16 m -235.53,357.11 c -52.38,140.1 -100.95,280.95 -143.67,416.47 71.23,-26.23 143.25,-51.74 215.38,-76.26 19.41,-21.57 42.53,-40.13 68.75,-56.09 l 3.46,-21.6 c -48.15,-76.01 -97.83,-167.99 -143.92,-262.52 m 103.55,514.96 -250.32,146.72 c 40.41,177.52 80.5,363.51 106.17,559.98 37.53,-7.24 73.54,-12.63 105.45,-16.69 l -41.31,-189.71 80.01,-500.3"
             style="fill:url(#linearGradient342);fill-opacity:1;fill-rule:nonzero;stroke:none"
             id="path344" /></g></g><path
         d="m 339.484,647.832 c 0,0 -32.746,-102.16 -12.492,-142.902 20.262,-40.75 -276.824,31.89 -276.824,31.89 0,0 123.129,132.891 103.637,209.602 -19.496,76.699 185.679,-98.59 185.679,-98.59"
         style="fill:#edab9b;fill-opacity:1;fill-rule:nonzero;stroke:none"
         id="path346" /><path
         d="M 574.859,197.422 9.05859,387.492 c -21.03909,72.86 3.06641,133.77 62.27341,185.379 90.977,-37.672 180.781,-57.949 268.496,-47.219 53.387,-85.781 147.551,-170.531 259.68,-254.851 34.851,-30.582 18.691,-53.91 -24.649,-73.379"
         style="fill:#ab1490;fill-opacity:1;fill-rule:nonzero;stroke:none"
         id="path348" /><path
         d="m 0,363.539 566.703,-190.387 8.156,24.27 L 8.14844,387.789 0,363.539"
         style="fill:#b2e5e9;fill-opacity:1;fill-rule:nonzero;stroke:none"
         id="path350" /><path
         d="m 1520.22,594.102 c 0,0 -10.81,-106.731 17.47,-142.379 28.27,-35.664 -277.42,-26.301 -277.42,-26.301 0,0 92.85,155.57 57.85,226.547 -35,70.98 202.1,-57.867 202.1,-57.867"
         style="fill:#edab9b;fill-opacity:1;fill-rule:nonzero;stroke:none"
         id="path352" /><path
         d="m 1844.01,202.402 -592.93,68.411 c -35.72,66.906 -24.79,131.488 22.41,194.269 96.82,-17.949 188.87,-19.133 272.45,9.578 70.03,-72.82 179.75,-136.168 306.94,-195.359 40.45,-22.672 29.48,-48.852 -8.87,-76.899"
         style="fill:#ab1490;fill-opacity:1;fill-rule:nonzero;stroke:none"
         id="path354" /><path
         d="m 1247.19,245.5 593.89,-68.531 2.93,25.433 -593.89,68.52 -2.93,-25.422"
         style="fill:#b2e5e9;fill-opacity:1;fill-rule:nonzero;stroke:none"
         id="path356" /><path
         d="M 1144.44,3535.19 1125.65,3415.5 1008.05,2661.88 926.637,2141.39 372.734,609.102 c -83.968,-3.813 -171.914,10.39 -263.031,38.968 115.297,569.31 230.68,1141.66 338.883,1432.77 -48.789,490.08 -97.527,979.94 -81.418,1237.24 l -4.176,66.11 -1.39,19.47 195.539,32.72 176.047,29.92 411.252,68.89"
         style="fill:#7840a4;fill-opacity:1;fill-rule:nonzero;stroke:none"
         id="path358" /><path
         d="m 1290.34,562.23 c 91.4,-30.359 179.54,-38.398 263.99,-21.289 l 82.37,1645.179 c -21.19,501.47 -61.87,963.41 -134.66,1360.26 l -799.895,11.9 473.235,-1384.99 c -7.67,-257.69 58.4,-963.2 114.96,-1611.06"
         style="fill:#7840a4;fill-opacity:1;fill-rule:nonzero;stroke:none"
         id="path360" /><path
         d="m 1567.79,3276.08 c 0.23,-17.21 -48.75,-10.37 -102.03,-14.94 -86.98,-8.04 -231.54,-2.49 -389.55,12.69 -118.964,10.95 -245.937,27.36 -361.108,45.28 -30.957,5.17 -61.075,10.85 -89.993,15.55 l -1.351,0.31 c -143.82,26.84 -257.629,56.59 -296.965,83.76 -12.266,8.62 -16.926,16.15 -14.328,24.12 314.609,732.6 113.238,912.22 222.082,1576.91 17.984,109.8 47.641,196.96 79.391,273.83 4.906,11.71 61.785,82.12 62.652,94.24 128.863,69.3 989.93,112.86 1154.21,-28.57 39.19,-839.87 -326.23,-1499.45 -263.01,-2083.18"
         style="fill:#fce698;fill-opacity:1;fill-rule:nonzero;stroke:none"
         id="path362" /><path
         d="m 1010.59,5403.31 c 46.22,-132.22 496.27,-82.56 440.52,45.48 -58.84,51.35 -82.26,150.55 -102.5,254.04 l -288.81,47.66 c 24.59,-117.3 36.06,-267.85 -49.21,-347.18"
         style="fill:#e0988b;fill-opacity:1;fill-rule:nonzero;stroke:none"
         id="path364" /><g
         id="g366"><g
           id="g368"
           clip-path="url(#clipPath372)"><path
             d="m 1209.55,5325.27 c -92.45,0 -179.93,23.61 -198.96,78.04 50.46,46.95 67.04,118.84 67.08,194.02 0.02,51.85 -7.83,105.28 -17.87,153.16 l 23.29,-3.84 58.31,-109.4 c -1.31,-1.85 -1.93,-3.84 -1.94,-5.95 -0.13,-38.42 204.45,-117.3 267.35,-124.48 12.16,-22.87 26.63,-42.61 44.3,-58.03 3.24,-7.43 4.77,-14.59 4.78,-21.48 0.04,-62.88 -127.27,-102.04 -246.34,-102.04"
             style="fill:url(#linearGradient378);fill-opacity:1;fill-rule:nonzero;stroke:none"
             id="path380" /></g></g><path
         d="m 1141.4,5637.25 c -28.4,-40.33 264.85,-147.67 282.73,-128.74 95.71,35.19 202.86,455.51 180.57,611.72 L 1153.13,6220.37 992.293,5917.01 1141.4,5637.25"
         style="fill:#edab9b;fill-opacity:1;fill-rule:nonzero;stroke:none"
         id="path382" /><g
         id="g384"><g
           id="g386"
           clip-path="url(#clipPath390)"><path
             d="m 1414.89,5506.29 c -2.34,0 -5.04,0.18 -8.08,0.53 -62.9,7.18 -267.48,86.06 -267.35,124.48 0.01,2.11 0.63,4.1 1.94,5.95 v 0 0 l -149.107,279.76 160.837,303.36 451.57,-100.14 c 2.02,-14.19 2.98,-30.55 2.97,-48.61 -0.05,-180.77 -96.53,-531.12 -183.54,-563.11 -1.43,-1.51 -4.6,-2.22 -9.24,-2.22"
             style="fill:url(#linearGradient396);fill-opacity:1;fill-rule:nonzero;stroke:none"
             id="path398" /></g></g><path
         d="m 1219.96,5998.62 c 0,0 310.6,-103.1 426.43,16.87 52.02,53.89 51.57,102 -24.81,179.74 -82.72,84.2 -144.78,87.94 -229.55,99.44 -137.95,18.72 -323.65,-28.71 -383.53,-201.29 -92.855,-267.59 -2.59,-438.53 86.43,-467.36 52.57,-17.03 87.24,99.16 30.69,150.75 -42.08,38.38 -36.84,139.13 7.26,129.4 63.74,-14.08 14.97,-106.13 55.64,-57.04 29.71,35.86 31.44,149.49 31.44,149.49"
         style="fill:#443598;fill-opacity:1;fill-rule:nonzero;stroke:none"
         id="path400" /><path
         d="m 1552.92,4847.66 c 9.42,-5.39 20.29,-11.15 32.1,-16.82 75.48,-38.86 320.11,-95.71 323.52,-96.86 14.83,4.29 48.53,415.33 34.41,452.37 -12.61,59.93 -64.64,149.53 -132.02,187.62 -10.44,6.25 -20.79,11.58 -31.15,16.89 -21.23,11.06 -159.84,39.24 -159.84,39.24 -33.59,-117.63 -43.23,-372.43 -67.02,-582.44"
         style="fill:#fce698;fill-opacity:1;fill-rule:nonzero;stroke:none"
         id="path402" /><path
         d="m 1208.74,5903.33 c 14.09,-150.55 91.95,-228.23 176.17,-315.81 18.76,12.23 42.26,16.63 69.2,15.35 16.04,-7.16 25.77,-17.99 25.73,-34.5 -6.95,-36.6 -16.96,-72.13 -77.63,-90.66 -85.96,-4.67 -164.46,72.97 -183.1,129.68 l -48.82,229.59 38.45,66.35"
         style="fill:#443598;fill-opacity:1;fill-rule:nonzero;stroke:none"
         id="path404" /><path
         d="m 1470.69,4543.99 c 0,0 -2.7,0.72 -8.02,0.72 -1.18,0 -2.49,-0.03 -3.93,-0.12 -0.03,11.25 -0.02,21.85 -0.71,33.08 l 12.66,-33.68"
         style="fill:#f1d98e;fill-opacity:1;fill-rule:nonzero;stroke:none"
         id="path406" /><path
         d="m 3175.9,532.73 c 0,0 0.46,-79.148 27.76,-103.089 27.32,-23.961 -233.84,-40.95 -233.84,-40.95 0,0 44.84,74.028 8.61,123.372 -36.24,49.347 197.47,20.667 197.47,20.667"
         style="fill:#edab9b;fill-opacity:1;fill-rule:nonzero;stroke:none"
         id="path408" /><path
         d="m 3510.85,202.082 -578.79,50.527 c -35.71,55.762 -25.93,110.11 19.22,163.391 94.6,-13.961 184.34,-13.867 265.39,11.211 69.24,-60.332 177.03,-112.25 301.79,-160.461 39.72,-18.57 29.39,-40.68 -7.61,-64.668"
         style="fill:#642d97;fill-opacity:1;fill-rule:nonzero;stroke:none"
         id="path410" /><path
         d="m 2928.62,231.313 579.72,-50.622 2.51,21.391 -579.72,50.617 -2.51,-21.386"
         style="fill:#b2e5e9;fill-opacity:1;fill-rule:nonzero;stroke:none"
         id="path412" /><path
         d="m 2588.87,2404.07 c 127.67,-150 530.48,-367.78 562.17,-653.78 l 41.37,-1245.368 c -98.26,-22.133 -104.77,-23.672 -219.57,-25.981 -77.37,270 -208.98,869.309 -248.56,1212.639 -352.4,218.66 -659.04,72.67 -645.49,738.6 l 510.08,-26.11"
         style="fill:#fde4b8;fill-opacity:1;fill-rule:nonzero;stroke:none"
         id="path414" /><path
         d="m 3812.93,669.973 c 0,0 3.62,-79.082 31.88,-102.211 28.25,-23.129 -232.07,-47.852 -232.07,-47.852 0,0 41.84,75.309 3.66,123.551 -38.19,48.238 196.53,26.512 196.53,26.512"
         style="fill:#edab9b;fill-opacity:1;fill-rule:nonzero;stroke:none"
         id="path416" /><path
         d="m 4160.9,349.441 -580.46,33.34 c -37.92,54.668 -30.32,109.282 12.68,163.86 95.09,-11.129 184.77,-8.391 264.78,19.078 71.61,-58.239 181.41,-106.93 308.02,-151.41 40.44,-17.379 31,-39.778 -5.02,-64.868"
         style="fill:#642d97;fill-opacity:1;fill-rule:nonzero;stroke:none"
         id="path418" /><path
         d="m 3577.84,361.391 581.4,-33.391 1.66,21.441 -581.4,33.391 -1.66,-21.441"
         style="fill:#b2e5e9;fill-opacity:1;fill-rule:nonzero;stroke:none"
         id="path420" /><path
         d="m 3151.48,2522.79 c 133.58,-146.12 544.85,-351.83 587.96,-636.72 l 91.11,-1243.398 c -97.32,-25.043 -103.77,-26.77 -218.4,-32.481 -88.13,267.528 -243.59,862.589 -296.88,1204.549 -360.92,208.07 -681.98,258.25 -685.99,697.56 l 522.2,10.49"
         style="fill:#fde4b8;fill-opacity:1;fill-rule:nonzero;stroke:none"
         id="path422" /><path
         d="m 3040.98,2386.38 c -18.67,-74.05 -965.79,-25.09 -980.66,55.13 -19.34,421.71 58.62,1471.86 115.34,1610.33 78.73,20.37 273.68,37.36 351.62,47.85 l 0.93,0.48 c 128.24,19.59 255.52,26.24 382.11,18.34 73.28,-4.38 146.42,-14.15 218.92,-28.37 -6.97,-153.33 -8.6,-289.67 -7.83,-415.88 0.12,-34.25 0.46,-67.8 1.96,-100.15 2.77,-174.26 -44.97,-930.25 -82.39,-1187.73"
         style="fill:#e91997;fill-opacity:1;fill-rule:nonzero;stroke:none"
         id="path424" /><path
         d="m 2586.07,4364.82 c 15.03,-84.92 5.86,-162.08 -57.98,-264.27 -67.21,-23.46 62.59,-179.49 201.78,-171.29 117.49,17.38 176.24,119.15 180.75,189.19 -68.15,30.68 -54.09,118 -52.33,196.84 l -272.22,49.53"
         style="fill:#e0988b;fill-opacity:1;fill-rule:nonzero;stroke:none"
         id="path426" /><path
         d="m 2510.71,4298.02 c 89.38,-69.03 303.99,-142.91 368.26,-115.74 115.03,34.02 151.6,522.54 26.51,640.47 l -343.84,-78.95 -153.98,-232.64 c 23.66,-88.17 34.67,-164.02 103.05,-213.14"
         style="fill:#edab9b;fill-opacity:1;fill-rule:nonzero;stroke:none"
         id="path428" /><g
         id="g430"><g
           id="g432"
           clip-path="url(#clipPath436)"><path
             d="m 2842.21,4176.51 c -87.33,0.01 -255.13,62.53 -331.5,121.51 -68.38,49.12 -79.39,124.97 -103.05,213.14 l 153.98,232.64 343.84,78.95 c 54.48,-51.36 78.3,-173.03 78.32,-296.83 0.03,-160.43 -39.9,-324.44 -104.83,-343.64 -9.35,-3.96 -21.88,-5.77 -36.76,-5.77"
             style="fill:url(#linearGradient442);fill-opacity:1;fill-rule:nonzero;stroke:none"
             id="path444" /></g></g><path
         d="m 2638.84,4618.99 c 164.24,-31.54 208.78,46.85 300.25,22.15 31.68,-16.42 21.82,-66.52 44.48,-95.43 50.16,112.3 56.87,250.03 -60.19,332.62 -75.44,42.34 -211.88,104.81 -346.84,42.35 -202.66,-97.93 -175.88,-261.22 -131.22,-411.09 -148.42,-368.12 -169.17,-411.56 124.84,-627.63 423.09,-310.93 -35.52,264.92 27.47,488.04 -27.1,4.3 -38.6,34.54 -38.15,59.62 -3.86,32.61 -15.5,54.16 15.77,69.13 10.91,3.93 50.46,-7.4 69.78,-53.68 25.41,44.8 11.29,112.29 -6.19,173.92"
         style="fill:#343366;fill-opacity:1;fill-rule:nonzero;stroke:none"
         id="path446" /><path
         d="m 3333.84,3083.68 c 13.76,397.09 -35.46,944.49 -204.6,1006.46 l -98.55,-464.02 72.66,-711.1 173.65,-693.07 222.67,53.66 c -53.28,189.45 -168.99,717.24 -165.83,808.07"
         style="fill:#e91997;fill-opacity:1;fill-rule:nonzero;stroke:none"
         id="path448" /><path
         d="m 2530.28,2038.19 -279.04,277.35 c -16.27,16.17 -6.26,43.94 16.63,45.29 187.62,11.07 760.83,44.89 767.31,44.89 7.73,0 193.44,-290.16 193.44,-290.16 l -698.34,-77.37"
         style="fill:#b1a7da;fill-opacity:1;fill-rule:nonzero;stroke:none"
         id="path450" /><path
         d="m 3402.8,2136.3 -840.48,-103.42 c -44.27,-5.44 -68.36,29.41 -53.8,77.87 l 148.38,493.59 c 14.56,48.45 62.25,92.15 106.52,97.59 l 840.49,103.42 c 44.26,5.44 68.35,-29.42 53.78,-77.87 L 3509.33,2233.9 c -14.57,-48.46 -62.26,-92.15 -106.53,-97.6"
         style="fill:#343366;fill-opacity:1;fill-rule:nonzero;stroke:none"
         id="path452" /><path
         d="m 2175.66,4051.84 c -156.6,0 -525.56,-833.31 -526.86,-983.23 -1.96,-224.82 426.47,-524.59 662.57,-772.15 l 145,92.32 -506.16,682.25 397.46,656.27 -172.01,324.54"
         style="fill:#e91997;fill-opacity:1;fill-rule:nonzero;stroke:none"
         id="path454" /><path
         d="m 2456.37,2388.78 66.74,-31.19 41.25,-61.13 -33.03,-109.84 h -55.46 l -79.11,83.12 -85.39,26.72 145,92.32"
         style="fill:#edab9b;fill-opacity:1;fill-rule:nonzero;stroke:none"
         id="path456" /><g
         id="g458"><g
           id="g460"
           clip-path="url(#clipPath464)"><path
             d="m 2531.33,2186.62 h -55.46 l -79.11,83.12 -85.39,26.72 145,92.32 66.74,-31.19 41.25,-61.13 -21.32,-70.88 -11.71,-38.96"
             style="fill:url(#linearGradient470);fill-opacity:1;fill-rule:nonzero;stroke:none"
             id="path472" /></g></g><path
         d="m 928.363,4829.44 c -8.437,-7.56 -18.273,-15.8 -29.086,-24.17 -68.558,-56.14 -291.957,-164.61 -295.179,-166.52 -16.075,1.15 -123.762,402.39 -117.442,443.29 -0.207,63.93 3.008,174.67 63.473,228.26 9.281,8.67 18.687,16.35 28.109,24.05 19.246,15.91 38.457,28.37 57.793,39.83 20.442,10.63 40.586,19.73 61.543,26.45 0.977,0.12 0.977,0.12 0.977,0.12 59.953,-112.72 159.683,-362.16 229.812,-571.31"
         style="fill:#fce698;fill-opacity:1;fill-rule:nonzero;stroke:none"
         id="path474" /><path
         d="m 2186.63,4083.46 c -22.91,-15.94 -17.66,-9.56 -49.08,-18.5 35.46,-27.36 85.04,-44.05 137.75,-67.78 27,-15.96 -46.49,-90.18 -70.62,-108.67 -40.57,-25.5 -64.38,-52.29 -124.21,-45.89 -66.29,22.39 -122.24,54.12 -162.31,98.66 -421.61,143.33 -840.18,320.72 -1111.68,475.27 -10.347,-9.32 -94.007,105.82 -178.746,237.01 96.071,48.53 190.176,127.2 256.618,188.49 l 55.652,-134.02 1057.786,-620.01 c 46.51,34.88 110.76,53.39 181.73,43.18 33.26,-14.85 27.33,-24.24 7.11,-47.74"
         style="fill:#edab9b;fill-opacity:1;fill-rule:nonzero;stroke:none"
         id="path476" /><g
         id="g478"><g
           id="g480"
           clip-path="url(#clipPath484)"><path
             d="m 2097.67,3841.66 c -5.4,0 -11.11,0.31 -17.2,0.96 -34.19,11.55 -65.63,25.58 -93.56,42.57 -26.22,15.96 -49.34,34.52 -68.75,56.09 -72.13,24.52 -144.15,50.03 -215.38,76.26 -18.19,6.7 -36.33,13.44 -54.4,20.23 -324.82,121.98 -628.71,257.43 -841.9,378.78 -0.394,-0.35 -0.894,-0.53 -1.496,-0.53 -15.132,0 -94.773,110.02 -175.777,235.27 -0.492,0.76 -0.98,1.51 -1.473,2.27 96.071,48.53 190.176,127.2 256.618,188.49 l 55.652,-134.02 1057.786,-620.01 c 37.9,28.42 87.59,45.98 143.09,45.98 12.61,0 25.5,-0.91 38.64,-2.8 16.83,-7.51 23.62,-13.63 23.61,-20.88 -0.01,-7.08 -6.51,-15.25 -16.5,-26.86 -22.91,-15.94 -17.66,-9.56 -49.08,-18.5 v 0 0 c 35.46,-27.36 85.04,-44.05 137.75,-67.78 4.12,-2.43 5.9,-6.22 5.88,-10.95 -0.12,-26.33 -56.05,-82.05 -76.5,-97.72 -36.44,-22.9 -59.36,-46.85 -107.01,-46.85"
             style="fill:url(#linearGradient490);fill-opacity:1;fill-rule:nonzero;stroke:none"
             id="path492" /></g></g></g></g></svg>
