<?xml version="1.0" standalone="no"?>
<!DOCTYPE svg PUBLIC "-//W3C//DTD SVG 20010904//EN"
 "http://www.w3.org/TR/2001/REC-SVG-20010904/DTD/svg10.dtd">
<svg version="1.0" xmlns="http://www.w3.org/2000/svg"
 width="176.000000pt" height="176.000000pt" viewBox="0 0 176.000000 176.000000"
 preserveAspectRatio="xMidYMid meet">
<metadata>
Created by potrace 1.11, written by Peter Selinger 2001-2013
</metadata>
<g transform="translate(0.000000,176.000000) scale(0.100000,-0.100000)"
fill="#000000" stroke="none">
<path d="M805 1709 c-97 -9 -140 -18 -210 -41 -317 -105 -523 -395 -528 -743
-2 -201 33 -330 133 -488 41 -65 55 -62 45 11 -16 120 -14 244 6 322 53 209
187 373 386 474 189 95 433 66 603 -73 84 -68 81 -66 90 -52 11 19 3 66 -23
136 -32 86 -128 181 -222 220 -62 25 -83 28 -182 29 -92 1 -108 3 -90 13 62
33 233 40 332 12 139 -39 318 -178 392 -303 59 -101 97 -240 97 -358 0 -16 4
-28 8 -28 15 0 22 55 22 160 0 83 -5 119 -22 170 -22 63 -61 150 -72 160 -3 3
-15 20 -27 39 -34 55 -142 158 -213 205 -164 106 -342 152 -525 135z"/>
<path d="M828 1095 c-265 -55 -439 -270 -441 -544 -1 -218 77 -348 259 -432
275 -126 586 -56 811 184 127 136 187 246 223 408 22 100 24 113 11 105 -5 -3
-21 -43 -35 -88 -67 -207 -246 -355 -443 -366 -235 -13 -457 153 -491 369 -19
121 43 246 146 298 34 17 138 55 154 56 20 1 18 15 -3 16 -13 1 -49 2 -79 3
-30 2 -81 -3 -112 -9z"/>
</g>
</svg>
