<?xml version="1.0" standalone="no"?>
<!DOCTYPE svg PUBLIC "-//W3C//DTD SVG 20010904//EN"
 "http://www.w3.org/TR/2001/REC-SVG-20010904/DTD/svg10.dtd">
<svg version="1.0" xmlns="http://www.w3.org/2000/svg"
 width="260.000000pt" height="260.000000pt" viewBox="0 0 260.000000 260.000000"
 preserveAspectRatio="xMidYMid meet">
<metadata>
Created by potrace 1.11, written by Peter Selinger 2001-2013
</metadata>
<g transform="translate(0.000000,260.000000) scale(0.100000,-0.100000)"
fill="#000000" stroke="none">
<path d="M159 2508 c-20 -11 -46 -38 -58 -58 l-21 -38 0 -1112 0 -1112 21 -38
c12 -21 38 -47 59 -59 l38 -21 1112 0 1112 0 38 21 c21 12 47 38 59 59 l21 38
0 1112 0 1112 -21 38 c-12 21 -38 47 -59 59 l-38 21 -1113 0 -1114 0 -36 -22z"/>
</g>
</svg>
