<?xml version="1.0" encoding="UTF-8" standalone="no"?>
<!-- Generator: Adobe Illustrator 16.0.0, SVG Export Plug-In . SVG Version: 6.00 Build 0)  -->

<svg
   xmlns:dc="http://purl.org/dc/elements/1.1/"
   xmlns:cc="http://creativecommons.org/ns#"
   xmlns:rdf="http://www.w3.org/1999/02/22-rdf-syntax-ns#"
   xmlns:svg="http://www.w3.org/2000/svg"
   xmlns="http://www.w3.org/2000/svg"
   xmlns:sodipodi="http://sodipodi.sourceforge.net/DTD/sodipodi-0.dtd"
   xmlns:inkscape="http://www.inkscape.org/namespaces/inkscape"
   version="1.1"
   id="Layer_1"
   x="0px"
   y="0px"
   width="163.07239"
   height="165.66696"
   viewBox="0 0 163.07239 165.66696"
   enable-background="new 0 0 960 560"
   xml:space="preserve"
   sodipodi:docname="codium-icon-black.svg"
   inkscape:version="0.92.3 (2405546, 2018-03-11)"><metadata
   id="metadata13"><rdf:RDF><cc:Work
       rdf:about=""><dc:format>image/svg+xml</dc:format><dc:type
         rdf:resource="http://purl.org/dc/dcmitype/StillImage" /><dc:title></dc:title></cc:Work></rdf:RDF></metadata><defs
   id="defs11" /><sodipodi:namedview
   pagecolor="#ffffff"
   bordercolor="#666666"
   borderopacity="1"
   objecttolerance="10"
   gridtolerance="10"
   guidetolerance="10"
   inkscape:pageopacity="0"
   inkscape:pageshadow="2"
   inkscape:window-width="640"
   inkscape:window-height="480"
   id="namedview9"
   showgrid="false"
   inkscape:zoom="0.42142857"
   inkscape:cx="92.456039"
   inkscape:cy="83.397936"
   inkscape:window-x="2265"
   inkscape:window-y="332"
   inkscape:window-maximized="0"
   inkscape:current-layer="Layer_1" />
<g
   id="g6"
   transform="translate(-387.54396,-197.73098)">
	<path
   d="m 457.902,219.154 c 18.789,-2.856 35.769,-0.3 48.529,15.315 5.274,6.453 8.623,16.306 7.928,23.841 -1.669,-0.946 -3.233,-1.48 -4.33,-2.512 -8.074,-7.601 -17.265,-13.241 -28.159,-15.621 -17.618,-3.848 -33.654,0.27 -48.134,10.606 -15.442,11.025 -25.041,26.042 -28.69,44.624 -1.89,9.6 -1.592,19.305 0.673,28.91 0.384,1.636 0.052,3.444 0.052,5.17 -0.502,0.177 -1.008,0.354 -1.508,0.531 -2.634,-4.278 -5.521,-8.426 -7.85,-12.864 -5.09,-9.7 -7.814,-20.059 -8.601,-31.05 -1.005,-13.965 0.765,-27.469 6.177,-40.305 10.735,-25.472 30.066,-40.815 57.018,-46.218 16.178,-3.245 32.284,-2.424 47.718,4.083 20.673,8.718 36.266,22.838 44.751,43.875 3.729,9.246 5.495,19.015 3.645,29.112 -0.4,2.174 -0.427,4.413 -0.776,6.597 -0.085,0.537 -0.768,0.98 -1.707,2.1 0.269,-31.596 -14.094,-53.125 -41.279,-66.339 -15.175,-7.38 -34.007,-6.241 -45.457,0.145 z"
   id="path2"
   inkscape:connector-curvature="0"
   style="clip-rule:evenodd;fill:#0ba1f4;fill-rule:evenodd" />
	<path
   d="m 485.498,259.639 c -5.018,1.564 -9.51,2.77 -13.865,4.356 -13.095,4.768 -21.563,18.507 -18.321,33.348 3.543,16.226 13.509,26.605 28.681,32.378 20.754,7.898 38.397,2.597 53.16,-13.248 6.257,-6.709 10.48,-14.742 12.726,-23.731 0.501,-2.003 1.217,-3.953 2.463,-6.035 0.087,1 0.382,2.028 0.233,2.989 -2.077,13.226 -5.868,26.09 -13.856,36.803 -10.699,14.354 -23.333,26.9 -41.012,32.817 -10.432,3.489 -21.043,5.179 -32.044,3.311 -9.035,-1.535 -17.419,-4.664 -25.24,-9.48 -10.757,-6.626 -16.022,-16.739 -17.945,-28.673 -2.579,-16.004 0.88,-30.917 10.223,-44.171 8.007,-11.357 19.003,-17.875 32.832,-20.721 6.972,-1.434 13.494,-1.31 20.267,-0.418 0.389,0.05 0.767,0.21 1.698,0.475 z"
   id="path4"
   inkscape:connector-curvature="0"
   style="clip-rule:evenodd;fill-rule:evenodd" />
</g>
</svg>