<?xml version="1.0" encoding="UTF-8" standalone="no"?>
<!-- Created with Inkscape (http://www.inkscape.org/) -->

<svg
   xmlns:dc="http://purl.org/dc/elements/1.1/"
   xmlns:cc="http://creativecommons.org/ns#"
   xmlns:rdf="http://www.w3.org/1999/02/22-rdf-syntax-ns#"
   xmlns:svg="http://www.w3.org/2000/svg"
   xmlns="http://www.w3.org/2000/svg"
   xmlns:sodipodi="http://sodipodi.sourceforge.net/DTD/sodipodi-0.dtd"
   xmlns:inkscape="http://www.inkscape.org/namespaces/inkscape"
   width="170.939"
   height="40.846001"
   viewBox="0 0 45.227607 10.80717"
   version="1.1"
   id="svg8"
   inkscape:version="0.92.0 r15299"
   sodipodi:docname="helvetia.svg">
  <defs
     id="defs2">
	
	
	
	
	
	
	
	
	
	
	

		
		
	
		
		
	
		
		
		
	
			
		
			
		
			
		
			
		
			
		
			
		
				
			</defs>
  <sodipodi:namedview
     id="base"
     pagecolor="#ffffff"
     bordercolor="#666666"
     borderopacity="1.0"
     inkscape:pageopacity="0.0"
     inkscape:pageshadow="2"
     inkscape:zoom="5.2783647"
     inkscape:cx="84.969506"
     inkscape:cy="19.923"
     inkscape:document-units="mm"
     inkscape:current-layer="layer1"
     showgrid="false"
     fit-margin-top="0"
     fit-margin-left="0"
     fit-margin-right="0"
     fit-margin-bottom="0"
     units="px"
     inkscape:window-width="1280"
     inkscape:window-height="744"
     inkscape:window-x="-4"
     inkscape:window-y="-4"
     inkscape:window-maximized="1" />
  <metadata
     id="metadata5">
    <rdf:RDF>
      <cc:Work
         rdf:about="">
        <dc:format>image/svg+xml</dc:format>
        <dc:type
           rdf:resource="http://purl.org/dc/dcmitype/StillImage" />
        <dc:title></dc:title>
      </cc:Work>
    </rdf:RDF>
  </metadata>
  <g
     inkscape:label="Layer 1"
     inkscape:groupmode="layer"
     id="layer1"
     transform="translate(-69.744675,-340.60103)">
    <g
       id="g157"
       transform="translate(0.13229034,-0.13228782)">
      <path
         id="path10"
         d="m 71.336146,343.37915 v 2.65986 h 0.01746 c 0.367771,-0.48948 0.813594,-0.71729 1.4351,-0.71729 1.136386,0 1.687777,0.75248 1.687777,1.88992 v 2.74664 H 72.88475 v -2.30029 c 0,-0.52519 -0.07885,-1.0668 -0.71755,-1.0668 -0.629444,0 -0.831056,0.54161 -0.831056,1.0668 v 2.30029 h -1.591469 v -6.57913 z"
         inkscape:connector-curvature="0"
         style="fill:#181716;stroke-width:0.26458332" />
      <path
         id="path12"
         d="m 79.873456,347.98184 h -3.350154 c 0,0.64664 0.341577,0.99695 0.997479,0.99695 0.341313,0 0.585788,-0.11403 0.760942,-0.41089 h 1.530614 c -0.254,1.05833 -1.259681,1.53934 -2.283089,1.53934 -1.486959,0 -2.597944,-0.83952 -2.597944,-2.38786 0,-1.49622 1.023144,-2.39739 2.484173,-2.39739 1.557073,0 2.457714,0.96255 2.457714,2.49343 v 0.16642 z m -1.477962,-0.91889 c -0.07911,-0.42889 -0.472546,-0.70909 -0.901171,-0.70909 -0.46355,0 -0.848254,0.24554 -0.945092,0.70909 z"
         inkscape:connector-curvature="0"
         style="fill:#181716;stroke-width:0.26458332" />
      <path
         id="path14"
         d="m 81.928739,349.95828 h -1.591468 v -6.57913 h 1.591468 z"
         inkscape:connector-curvature="0"
         style="fill:#181716;stroke-width:0.26458332" />
      <path
         id="path16"
         d="m 84.948958,347.77203 1.067329,-2.30135 h 1.784615 l -2.344473,4.48787 h -1.014677 l -2.35294,-4.48787 h 1.78435 z"
         inkscape:connector-curvature="0"
         style="fill:#181716;stroke-width:0.26458332" />
      <path
         id="path18"
         d="m 92.349883,347.98184 h -3.350154 c 0,0.64664 0.341048,0.99695 0.997479,0.99695 0.341048,0 0.586052,-0.11403 0.760677,-0.41089 H 92.2885 c -0.253471,1.05833 -1.259682,1.53934 -2.282296,1.53934 -1.486958,0 -2.597944,-0.83952 -2.597944,-2.38786 0,-1.49622 1.023673,-2.39739 2.483908,-2.39739 1.556809,0 2.45798,0.96255 2.45798,2.49343 v 0.16642 z m -1.478492,-0.91889 c -0.07832,-0.42889 -0.472016,-0.70909 -0.900377,-0.70909 -0.463814,0 -0.848783,0.24554 -0.944827,0.70909 z"
         inkscape:connector-curvature="0"
         style="fill:#181716;stroke-width:0.26458332" />
      <path
         id="path20"
         d="m 94.697531,349.95828 h -1.591733 v -3.175 H 92.58986 v -1.31286 h 0.515938 v -1.34673 h 1.591733 v 1.34673 h 0.900906 v 1.31286 h -0.900906 z"
         inkscape:connector-curvature="0"
         style="fill:#181716;stroke-width:0.26458332" />
      <path
         id="path22"
         d="m 97.588633,344.05384 c 0,0.48974 -0.401638,0.89191 -0.891911,0.89191 -0.489479,0 -0.892174,-0.40217 -0.892174,-0.89191 0,-0.49001 0.402695,-0.89218 0.892174,-0.89218 0.490538,0 0.891911,0.40217 0.891911,0.89218 z m -0.09578,5.90444 h -1.592527 v -4.48786 h 1.592527 z"
         inkscape:connector-curvature="0"
         style="fill:#181716;stroke-width:0.26458332" />
      <path
         id="path24"
         d="m 103.18722,349.95828 h -1.5928 v -0.499 h -0.0169 c -0.28046,0.44661 -0.83106,0.6477 -1.35572,0.6477 -1.3298,0 -2.265631,-1.11099 -2.265631,-2.39713 0,-1.2864 0.918633,-2.38839 2.248431,-2.38839 0.51541,0 1.05754,0.19261 1.39012,0.58631 v -0.43762 h 1.59279 v 4.48813 z m -3.586166,-2.23917 c 0,0.56833 0.375708,1.00542 1.022876,1.00542 0.64717,0 1.02341,-0.43683 1.02341,-1.00542 0,-0.55113 -0.37624,-1.01494 -1.02341,-1.01494 -0.647168,0 -1.022876,0.46381 -1.022876,1.01494 z"
         inkscape:connector-curvature="0"
         style="fill:#181716;stroke-width:0.26458332" />
      <polygon
         transform="matrix(0.26458333,0,0,0.26458333,69.744677,340.86561)"
         style="fill:#563b6c"
         points="153.86,13.507 147.832,27.238 140.111,29.221 146.111,15.355 "
         id="polygon26" />
      <polygon
         transform="matrix(0.26458333,0,0,0.26458333,69.744677,340.86561)"
         id="polygon32"
         points="153.506,0 156.638,7.181 148.879,8.967 145.726,1.699 "
         style="fill:#71518c" />
      <polygon
         transform="matrix(0.26458333,0,0,0.26458333,69.744677,340.86561)"
         id="polygon36"
         points="145.726,1.699 148.879,8.967 140.111,29.221 134.379,28.239 "
         style="fill:#8761a8" />
      <polygon
         transform="matrix(0.26458333,0,0,0.26458333,69.744677,340.86561)"
         style="fill:#118289"
         points="153.069,31.438 140.111,29.221 147.832,27.238 160.77,29.398 "
         id="polygon42" />
      <polygon
         transform="matrix(0.26458333,0,0,0.26458333,69.744677,340.86561)"
         id="polygon44"
         points="131.764,34.366 134.379,28.239 153.069,31.438 156.236,38.762 "
         style="fill:#46a8b3" />
      <polygon
         transform="matrix(0.26458333,0,0,0.26458333,69.744677,340.86561)"
         id="polygon50"
         points="156.638,7.181 169.939,37.689 162.277,39.846 148.879,8.967 "
         style="fill:#9f1717" />
      <polygon
         transform="matrix(0.26458333,0,0,0.26458333,69.744677,340.86561)"
         id="polygon54"
         points="148.879,8.967 162.277,39.846 156.236,38.762 146.111,15.355 "
         style="fill:#c21924" />
    </g>
  </g>
</svg>
