<svg width="748" height="628" viewBox="0 0 748 628" fill="none" xmlns="http://www.w3.org/2000/svg">
<path fill-rule="evenodd" clip-rule="evenodd" d="M112.834 508.159V460.376C112.834 454.097 116.761 449.053 123.265 449.053H125.065C131.566 449.053 135.475 454.103 135.475 460.376V560.974C135.475 585.505 123.35 605.025 102.219 617.46C92.5389 623.192 81.4897 626.204 70.2387 626.178H65.7478C41.1982 626.178 21.6947 614.049 9.23289 592.944C3.48994 583.27 0.476876 572.222 0.514011 560.974V556.491C0.514011 531.951 12.6456 512.443 33.7591 499.985C43.437 494.241 54.4924 491.228 65.7478 491.267H70.2387C86.8525 491.267 100.948 497.704 112.834 508.159V508.159ZM23.1527 558.728C23.1527 576.449 31.7459 589.772 47.2815 598.27C53.5636 601.705 60.3832 603.55 67.5506 603.55C84.9533 603.55 97.8621 595.344 106.765 580.605C110.905 573.748 112.834 566.245 112.834 558.27C112.834 542.909 105.558 530.92 93.1725 522.016C85.6633 516.619 77.2103 513.912 67.9918 513.912C49.023 513.912 35.372 523.491 27.179 540.505C24.4149 546.258 23.1527 552.365 23.1527 558.728V558.728ZM214.021 491.267H217.159C243.392 491.267 263.343 503.986 275.986 526.873C281.04 536.028 283.746 546.022 283.746 556.491V560.974C283.746 585.505 271.644 605.052 250.48 617.463C240.683 623.208 229.861 626.178 218.506 626.178H214.021C189.472 626.178 169.962 614.049 157.506 592.944C151.761 583.271 148.745 572.223 148.779 560.974V556.491C148.779 531.948 160.96 512.505 182.021 499.991C191.812 494.176 202.644 491.267 214.021 491.267ZM171.42 558.728C171.42 575.929 179.865 588.584 194.401 597.482C201.226 601.658 208.744 603.55 216.718 603.55C233.723 603.55 246.293 594.932 255.042 580.588C259.214 573.748 261.101 566.234 261.101 558.27C261.101 542.275 253.394 530.056 240.216 521.201C232.996 516.345 224.958 513.912 216.262 513.912C197.294 513.912 183.643 523.491 175.453 540.505C172.683 546.258 171.42 552.365 171.42 558.728V558.728ZM377.868 515.72C374.45 514.119 368.051 513.588 364.358 513.448C345.441 512.735 331.755 523.383 323.726 540.061C320.953 545.814 319.688 551.903 319.688 558.27C319.688 577.653 329.871 591.224 347.18 599.497C353.503 602.517 361.667 603.089 368.577 603.089C374.654 603.089 383.245 599.369 388.638 596.807L389.573 596.363H393.76L394.222 596.457C399.37 597.529 403.257 600.791 403.257 606.328V608.568C403.257 622.346 378.064 625.5 368.451 626.172C334.528 628.517 309.158 609.896 299.486 577.556C297.806 571.94 297.049 566.362 297.049 560.51V556.033C297.049 531.493 309.234 512.055 330.291 499.553C340.083 493.741 350.911 490.821 362.286 490.821H366.774C378.841 490.821 389.956 494.246 399.92 501.048L400.738 501.614L401.255 502.467C402.33 504.249 403.257 506.31 403.257 508.431V510.67C403.257 516.447 398.932 519.554 393.714 520.559L393.281 520.635H391.943C388.565 520.635 380.884 517.139 377.868 515.72V515.72ZM451.307 531.043C460.102 522.241 468.926 513.457 477.852 504.801C480.339 502.385 489.756 492.164 493.464 492.164H497.519L497.981 492.26C503.147 493.332 507.015 496.6 507.015 502.149V504.386C507.015 508.171 502.58 512.569 500.134 515.159C494.933 520.67 489.458 526 484.134 531.396L456.779 559.152C468.557 570.95 480.324 582.757 492.006 594.646C495.246 597.928 498.461 601.234 501.651 604.564C502.776 605.747 504.435 607.218 505.379 608.857C506.393 610.393 507.015 612.125 507.015 613.973V616.31L506.884 616.85C505.613 622.013 502.334 626.178 496.61 626.178H494.808C491.062 626.178 486.831 621.943 484.266 619.522C478.977 614.54 473.872 609.301 468.689 604.21L451.307 587.155V614.414C451.307 620.693 447.374 625.74 440.879 625.74H439.096C432.592 625.74 428.665 620.693 428.665 614.414V460.814C428.665 454.535 432.595 449.512 439.096 449.512H440.879C447.374 449.512 451.307 454.535 451.307 460.814V531.043V531.043ZM733.493 492.164H735.743C742.533 492.164 747.065 496.737 747.065 503.486C747.065 512.855 738.103 515.253 730.352 515.253C720.184 515.253 710.474 521.406 703.465 528.307C694.725 536.919 690.901 547.949 690.901 560.075V614.858C690.901 621.137 686.976 626.178 680.469 626.178H678.681C672.174 626.178 668.253 621.14 668.253 614.858V556.929C668.253 534.685 679.087 516.526 697.15 503.79C707.935 496.182 720.289 492.167 733.493 492.167V492.164ZM572.573 600.732C580.813 603.609 590.207 603.197 598.66 601.725C602.984 599.888 614.041 595.067 618.108 595.774L618.742 595.882L619.326 596.168C621.81 597.371 624.18 599.074 625.448 601.6C628.41 607.519 626.987 613.471 621.167 616.832L619.23 617.951C597.754 630.339 574.911 628.622 553.502 617.051C543.267 611.52 535.436 603.311 529.66 593.303L528.31 590.964C514.522 567.098 516.383 541.995 531.933 519.3C537.3 511.456 544.316 505.396 552.518 500.656L555.621 498.866C575.846 487.196 597.523 487.997 618.295 498.238C629.465 503.746 638.514 511.955 644.749 522.752L645.871 524.697C650.4 532.541 644.533 539.375 638.476 544.048C631.446 549.468 624.349 555.992 617.611 561.804C602.587 574.767 587.586 587.76 572.573 600.732V600.732ZM553.128 587.082C569.929 572.685 586.736 558.273 603.493 543.814C609.219 538.879 615.499 533.756 621.179 528.567C616.621 522.825 609.006 518.687 602.537 516.219C589.476 511.246 576.6 512.916 564.623 519.826C548.947 528.873 542.271 543.28 542.855 561.208C543.089 568.269 544.988 575.074 548.737 581.081C550.057 583.198 551.533 585.187 553.128 587.082ZM430.941 133.614H497.753V201.878H531.533C547.135 201.878 563.18 199.1 577.953 194.098C585.213 191.636 593.36 188.213 600.521 183.906C591.089 171.599 586.274 156.06 584.86 140.742C582.931 119.905 587.139 92.7865 601.246 76.4791L608.27 68.3604L616.638 75.0861C637.708 92.0039 655.429 115.647 658.552 142.6C683.923 135.141 713.712 136.905 736.073 149.804L745.247 155.096L740.42 164.517C721.507 201.407 681.965 212.838 643.309 210.814C585.465 354.815 459.529 422.989 306.835 422.989C227.944 422.989 155.569 393.513 114.353 323.558L113.678 322.419L107.674 310.206C93.7423 279.414 89.114 245.68 92.2521 211.973L93.1959 201.878H150.33V133.614H217.139V66.836H350.765V0.0584068H430.941V133.614Z" fill="#364548"/>
<path fill-rule="evenodd" clip-rule="evenodd" d="M647.4 158.869C651.879 124.07 625.825 96.7378 609.667 83.7596C591.046 105.277 588.153 161.67 617.366 185.412C601.062 199.886 566.709 213.004 531.533 213.004H103.347C99.9281 249.705 106.374 283.502 121.097 312.429L125.968 321.336C129.052 326.564 132.422 331.618 136.063 336.475C153.667 337.606 169.898 337.994 184.747 337.667H184.753C213.934 337.024 237.744 333.578 255.79 327.329C257.065 326.932 258.445 327.047 259.638 327.649C260.831 328.251 261.742 329.293 262.18 330.555C262.617 331.817 262.547 333.199 261.983 334.41C261.419 335.62 260.406 336.564 259.159 337.042C256.757 337.877 254.256 338.654 251.673 339.393H251.664C237.455 343.449 222.217 346.177 202.559 347.389C203.728 347.409 201.343 347.564 201.338 347.564C200.669 347.608 199.827 347.704 199.155 347.739C191.418 348.174 183.067 348.265 174.529 348.265C165.191 348.265 155.996 348.09 145.714 347.564L145.451 347.739C181.127 387.819 236.911 411.856 306.838 411.856C454.825 411.856 580.349 346.288 635.934 199.086C675.368 203.13 713.268 193.078 730.507 159.441C703.047 143.604 667.733 148.654 647.4 158.869" fill="#2FADE2"/>
<path fill-rule="evenodd" clip-rule="evenodd" d="M647.4 158.869C651.879 124.07 625.825 96.7378 609.667 83.7596C591.046 105.277 588.153 161.67 617.366 185.412C601.062 199.886 566.709 213.004 531.533 213.004H128.703C126.955 269.21 147.823 311.874 184.744 337.667H184.753C213.934 337.024 237.744 333.578 255.79 327.329C257.065 326.932 258.445 327.047 259.638 327.649C260.83 328.251 261.742 329.293 262.18 330.555C262.617 331.817 262.547 333.199 261.983 334.41C261.419 335.62 260.406 336.564 259.159 337.042C256.757 337.877 254.256 338.654 251.673 339.393H251.664C237.455 343.449 220.908 346.527 201.25 347.739C201.244 347.739 200.774 347.287 200.768 347.287C251.132 373.109 324.159 373.015 407.885 340.871C501.765 304.821 589.126 236.145 650.079 157.596C649.162 158.01 648.268 158.434 647.4 158.869" fill="#2FADE2"/>
<path fill-rule="evenodd" clip-rule="evenodd" d="M104.15 257.596C106.809 277.256 112.565 295.663 121.097 312.429L125.968 321.336C129.052 326.564 132.422 331.619 136.063 336.475C153.67 337.605 169.901 337.994 184.753 337.667C213.934 337.024 237.744 333.578 255.79 327.329C257.066 326.932 258.446 327.047 259.638 327.649C260.831 328.251 261.742 329.293 262.18 330.555C262.617 331.817 262.547 333.199 261.983 334.41C261.419 335.62 260.406 336.564 259.159 337.042C256.757 337.877 254.256 338.654 251.673 339.393H251.664C237.455 343.449 220.996 346.352 201.338 347.567C200.663 347.608 199.485 347.617 198.805 347.655C191.073 348.087 182.807 348.353 174.267 348.353C164.931 348.353 155.383 348.174 145.106 347.652C180.782 387.731 236.912 411.856 306.838 411.856C433.531 411.856 543.755 363.793 607.73 257.596H104.15Z" fill="#2FADE2"/>
<path fill-rule="evenodd" clip-rule="evenodd" d="M132.557 257.596C140.13 292.115 158.33 319.213 184.753 337.667C213.934 337.024 237.744 333.578 255.79 327.329C257.065 326.932 258.445 327.047 259.638 327.649C260.83 328.251 261.742 329.293 262.18 330.555C262.617 331.817 262.547 333.199 261.983 334.41C261.419 335.62 260.406 336.564 259.159 337.042C256.757 337.877 254.256 338.654 251.673 339.393H251.664C237.455 343.449 220.648 346.352 200.987 347.567C251.348 373.383 324.164 373.012 407.885 340.87C458.533 321.421 507.278 292.468 551.01 257.596H132.557Z" fill="#0E9EDC"/>
<path fill-rule="evenodd" clip-rule="evenodd" d="M161.463 144.743H219.369V202.619H161.463V144.743ZM166.287 149.568H170.857V197.798H166.287V149.568ZM174.877 149.568H179.631V197.798H174.88V149.568H174.877ZM183.649 149.568H188.403V197.798H183.649V149.568ZM192.426 149.568H197.177V197.798H192.426V149.568ZM201.2 149.568H205.951V197.798H201.2V149.568ZM209.972 149.568H214.545V197.798H209.972V149.568ZM228.274 77.9656H286.183V135.839H228.272V77.9656H228.274ZM233.101 82.79H237.668V131.017H233.101V82.79ZM241.692 82.79H246.443V131.017H241.695V82.79H241.692ZM250.463 82.79H255.214V131.017H250.463V82.79ZM259.238 82.79H263.989V131.017H259.238V82.79ZM268.012 82.79H272.766V131.017H268.012V82.79ZM276.783 82.79H281.359V131.017H276.783V82.79Z" fill="#2FADE2"/>
<path fill-rule="evenodd" clip-rule="evenodd" d="M228.274 144.743H286.183V202.619H228.271V144.743H228.274ZM233.101 149.568H237.668V197.798H233.101V149.568ZM241.692 149.568H246.443V197.798H241.695V149.568H241.692ZM250.463 149.568H255.214V197.798H250.463V149.568ZM259.238 149.568H263.988V197.798H259.238V149.568ZM268.012 149.568H272.766V197.798H268.012V149.568ZM276.783 149.568H281.359V197.798H276.783V149.568Z" fill="#2FADE2"/>
<path fill-rule="evenodd" clip-rule="evenodd" d="M295.089 144.743H352.995V202.619H295.089V144.743ZM299.913 149.568H304.48V197.798H299.913V149.568ZM308.503 149.568H313.254V197.798H308.503V149.568ZM317.278 149.568H322.029V197.798H317.278V149.568ZM326.052 149.568H330.803V197.798H326.052V149.568ZM334.823 149.568H339.58V197.798H334.823V149.568ZM343.598 149.568H348.168V197.798H343.598V149.568V149.568Z" fill="#2FADE2"/>
<path fill-rule="evenodd" clip-rule="evenodd" d="M295.089 77.9656H352.995V135.839H295.089V77.9656ZM299.913 82.79H304.48V131.017H299.913V82.79ZM308.503 82.79H313.254V131.017H308.503V82.79ZM317.278 82.79H322.029V131.017H317.278V82.79ZM326.052 82.79H330.803V131.017H326.052V82.79ZM334.823 82.79H339.58V131.017H334.823V82.79ZM343.598 82.79H348.168V131.017H343.598V82.79V82.79ZM361.9 144.743H419.806V202.619H361.9V144.743ZM366.727 149.568H371.294V197.798H366.727V149.568ZM375.318 149.568H380.069V197.798H375.318V149.568ZM384.089 149.568H388.84V197.798H384.089V149.568ZM392.864 149.568H397.617V197.798H392.864V149.568ZM401.638 149.568H406.392V197.798H401.638V149.568ZM410.412 149.568H414.982V197.798H410.412V149.568Z" fill="#2FADE2"/>
<path fill-rule="evenodd" clip-rule="evenodd" d="M361.9 77.9656H419.806V135.839H361.9V77.9656ZM366.727 82.79H371.294V131.017H366.727V82.79ZM375.318 82.79H380.069V131.017H375.318V82.79ZM384.089 82.79H388.84V131.017H384.089V82.79ZM392.864 82.79H397.617V131.017H392.864V82.79ZM401.638 82.79H406.392V131.017H401.638V82.79ZM410.412 82.79H414.982V131.017H410.412V82.79Z" fill="#0E9EDC"/>
<path fill-rule="evenodd" clip-rule="evenodd" d="M361.9 11.1851H419.806V69.0672H361.9V11.1851ZM366.727 16.0066H371.294V64.2398H366.727V16.0037V16.0066ZM375.318 16.0066H380.069V64.2398H375.318V16.0037V16.0066ZM384.089 16.0066H388.84V64.2398H384.089V16.0037V16.0066ZM392.864 16.0066H397.617V64.2398H392.864V16.0037V16.0066ZM401.638 16.0066H406.392V64.2398H401.638V16.0037V16.0066ZM410.412 16.0066H414.982V64.2398H410.412V16.0037V16.0066Z" fill="#2FADE2"/>
<path fill-rule="evenodd" clip-rule="evenodd" d="M428.712 144.743H486.618V202.619H428.712V144.743ZM433.533 149.568H438.106V197.798H433.536V149.568H433.533ZM442.123 149.568H446.877V197.798H442.126V149.568H442.123ZM450.901 149.568H455.654V197.798H450.901V149.568ZM459.672 149.568H464.426V197.798H459.672V149.568ZM468.449 149.568H473.2V197.798H468.449V149.568ZM477.221 149.568H481.791V197.798H477.221V149.568Z" fill="#2FADE2"/>
<path fill-rule="evenodd" clip-rule="evenodd" d="M282.557 296.454C284.673 296.426 286.774 296.818 288.737 297.608C290.7 298.398 292.487 299.57 293.993 301.056C295.499 302.542 296.695 304.312 297.511 306.263C298.327 308.215 298.747 310.309 298.747 312.424C298.747 314.54 298.326 316.634 297.509 318.585C296.692 320.536 295.496 322.306 293.989 323.791C292.482 325.277 290.695 326.448 288.732 327.237C286.768 328.026 284.667 328.418 282.551 328.389C278.352 328.331 274.344 326.623 271.395 323.634C268.446 320.646 266.793 316.616 266.793 312.419C266.794 308.221 268.449 304.192 271.399 301.205C274.349 298.217 278.358 296.51 282.557 296.454Z" fill="#D3ECEC"/>
<path fill-rule="evenodd" clip-rule="evenodd" d="M282.557 300.984C284.018 300.984 285.412 301.258 286.697 301.758C285.81 302.272 285.117 303.065 284.726 304.013C284.334 304.96 284.266 306.01 284.531 307.001C284.797 307.991 285.381 308.867 286.194 309.492C287.007 310.117 288.003 310.458 289.029 310.46C290.797 310.46 292.331 309.482 293.125 308.034C294.066 310.299 294.253 312.807 293.659 315.187C293.064 317.567 291.719 319.693 289.823 321.25C287.927 322.808 285.58 323.714 283.129 323.836C280.677 323.958 278.252 323.289 276.21 321.927C274.169 320.565 272.62 318.583 271.792 316.274C270.964 313.965 270.901 311.45 271.612 309.103C272.324 306.755 273.772 304.698 275.743 303.236C277.714 301.774 280.103 300.985 282.557 300.984ZM0 263.366H743.112C726.933 259.266 691.92 253.723 697.694 232.527C668.271 266.555 597.319 256.401 579.411 239.624C559.472 268.53 443.386 257.54 435.289 235.021C410.29 264.345 332.828 264.345 307.828 235.021C299.726 257.54 183.643 268.53 163.701 239.621C145.796 256.401 74.8467 266.555 45.4235 232.53C51.1971 253.723 16.1843 259.266 0 263.369" fill="#364548"/>
<path fill-rule="evenodd" clip-rule="evenodd" d="M325.02 411.512C285.458 392.748 263.746 367.239 251.664 339.396C236.967 343.586 219.304 346.267 198.778 347.418C191.047 347.85 182.912 348.072 174.38 348.072C164.539 348.072 154.17 347.78 143.283 347.205C179.564 383.447 224.195 411.348 306.838 411.856C312.938 411.856 318.993 411.739 325.02 411.512" fill="#BDD9D7"/>
<path fill-rule="evenodd" clip-rule="evenodd" d="M266.358 365.089C260.886 357.663 255.577 348.329 251.673 339.39C236.976 343.586 219.307 346.267 198.778 347.421C212.879 355.069 233.043 362.157 266.361 365.089" fill="#D3ECEC"/>
</svg>
