<?xml version="1.0" encoding="utf-8"?>
<!-- Generator: Adobe Illustrator 19.2.1, SVG Export Plug-In . SVG Version: 6.00 Build 0)  -->
<svg version="1.1" id="layer" xmlns="http://www.w3.org/2000/svg" xmlns:xlink="http://www.w3.org/1999/xlink" x="0px" y="0px"
	 viewBox="0 0 652 652" style="enable-background:new 0 0 652 652;" xml:space="preserve">
<style type="text/css">
	.st0{fill:#F49600;}
	.st1{fill:#282748;}
</style>
<path class="st0" d="M51.7,269.6v48.3h9.7c9.2,0,14.8-4,14.8-16.6v-15.5c0-11.2-3.8-16.2-12.6-16.2H51.7z M78.6,404.4
	c-1.3-4-2.2-6.5-2.2-19.3v-24.7c0-14.6-5-20-16.2-20h-8.5v64H26.9V247.1h37.3c25.6,0,36.6,11.9,36.6,36.2v12.4
	c0,16.2-5.2,26.7-16.2,31.9c12.4,5.2,16.4,17.1,16.4,33.5v24.3c0,7.6,0.2,13.3,2.7,19.1H78.6z M144.5,368.2
	c0,11.2,4.9,15.5,12.8,15.5s12.8-4.3,12.8-15.5v-85c0-11.2-5-15.5-12.8-15.5s-12.8,4.3-12.8,15.5V368.2z M119.8,284.8
	c0-25.2,13.3-39.5,37.5-39.5c24.3,0,37.5,14.4,37.5,39.5v81.8c0,25.2-13.3,39.5-37.5,39.5c-24.3,0-37.5-14.4-37.5-39.5V284.8z
	 M215.3,247.1H240v157.3h-24.7V247.1z"/>
<path class="st1" d="M287.2,333.6v48.3h14.2c8.3,0,12.8-3.8,12.8-15.5v-13.7c0-14.6-4.7-19.1-16-19.1H287.2z M287.2,269.6v41.6h9.7
	c9.2,0,14.8-4,14.8-16.6v-8.8c0-11.2-3.8-16.2-12.6-16.2H287.2z M336.4,283.3v5.6c0,16.2-4.9,26.5-16,31.7
	c13.3,5.2,18.4,17.1,18.4,33.7v12.8c0,24.3-12.8,37.3-37.5,37.3h-38.9V247.1h37.3C325.4,247.1,336.4,259,336.4,283.3 M381.8,354.5
	h23.8L393.7,275L381.8,354.5z M438.2,404.4h-24.9l-4.3-28.5h-30.3l-4.3,28.5h-22.7l25.2-157.3H413L438.2,404.4z M525.6,345.7v20.9
	c0,25.2-12.6,39.5-36.8,39.5c-24.3,0-36.9-14.4-36.9-39.5v-81.8c0-25.2,12.6-39.5,36.9-39.5c24.3,0,36.8,14.4,36.8,39.5v15.3h-23.4
	v-16.9c0-11.2-5-15.5-12.8-15.5c-7.9,0-12.8,4.3-12.8,15.5v85c0,11.2,4.9,15.3,12.8,15.3c7.9,0,12.8-4,12.8-15.3v-22.5H525.6z
	 M577.5,341.7l-7.6,14.4v48.3h-24.7V247.1h24.7v68.5l32.4-68.5h24.7l-34.4,70.1l34.4,87.2h-25.4L577.5,341.7z"/>
</svg>
