<svg width="396" height="354" viewBox="0 0 396 354" fill="none" xmlns="http://www.w3.org/2000/svg">
<path d="M142.624 97.679H151.313C151.582 97.6791 151.84 97.7804 152.031 97.9607C152.221 98.141 152.328 98.3855 152.328 98.6404V106.876C152.328 107.002 152.302 107.127 152.251 107.243C152.199 107.36 152.125 107.466 152.03 107.555C151.936 107.643 151.824 107.714 151.701 107.762C151.578 107.81 151.446 107.834 151.313 107.834H142.624C142.355 107.834 142.098 107.733 141.907 107.554C141.717 107.374 141.61 107.131 141.609 106.876V98.6404C141.61 98.3856 141.717 98.1415 141.907 97.9614C142.097 97.7812 142.355 97.6797 142.624 97.679Z" fill="#E6E6E6"/>
<path d="M142.624 111.783H151.313C151.582 111.783 151.84 111.885 152.031 112.065C152.221 112.245 152.328 112.49 152.328 112.745V120.981C152.328 121.107 152.302 121.231 152.251 121.348C152.199 121.464 152.125 121.57 152.03 121.659C151.936 121.748 151.824 121.818 151.701 121.866C151.578 121.914 151.446 121.939 151.313 121.938H142.624C142.355 121.939 142.098 121.838 141.907 121.658C141.717 121.479 141.61 121.235 141.609 120.981V112.745C141.61 112.49 141.717 112.246 141.907 112.066C142.097 111.886 142.355 111.784 142.624 111.783Z" fill="#57B894"/>
<path d="M142.624 126.452H151.313C151.582 126.452 151.84 126.553 152.031 126.734C152.221 126.914 152.328 127.158 152.328 127.413V135.645C152.328 135.772 152.302 135.897 152.251 136.014C152.2 136.13 152.126 136.237 152.031 136.326C151.937 136.415 151.825 136.486 151.702 136.534C151.579 136.582 151.447 136.607 151.313 136.607H142.624C142.355 136.607 142.096 136.505 141.906 136.325C141.716 136.145 141.609 135.9 141.609 135.645V127.413C141.61 127.159 141.717 126.914 141.907 126.734C142.097 126.554 142.355 126.453 142.624 126.452Z" fill="#57B894"/>
<path d="M142.624 140.556H151.313C151.526 140.556 151.733 140.623 151.906 140.748C152.078 140.873 152.207 141.049 152.274 141.251C152.31 141.354 152.328 141.462 152.328 141.571V150.26C152.328 150.394 152.302 150.526 152.251 150.649C152.201 150.772 152.126 150.884 152.031 150.979C151.937 151.073 151.825 151.148 151.702 151.199C151.579 151.25 151.447 151.276 151.313 151.275H142.624C142.355 151.275 142.096 151.168 141.906 150.978C141.716 150.788 141.609 150.53 141.609 150.26V141.571C141.61 141.302 141.717 141.044 141.907 140.854C142.097 140.664 142.355 140.557 142.624 140.556Z" fill="#57B894"/>
<path d="M142.624 154.66H151.313C151.447 154.66 151.579 154.686 151.702 154.737C151.825 154.788 151.937 154.863 152.031 154.957C152.126 155.051 152.2 155.163 152.251 155.287C152.302 155.41 152.328 155.542 152.328 155.675V164.365C152.328 164.498 152.302 164.63 152.251 164.753C152.2 164.877 152.126 164.989 152.031 165.083C151.937 165.177 151.825 165.252 151.702 165.303C151.579 165.354 151.447 165.38 151.313 165.38H142.624C142.355 165.379 142.096 165.273 141.906 165.082C141.716 164.892 141.609 164.634 141.609 164.365V155.675C141.609 155.406 141.716 155.148 141.906 154.958C142.096 154.767 142.355 154.66 142.624 154.66Z" fill="#E6E6E6"/>
<path d="M125.081 126.452H133.313C133.568 126.452 133.812 126.553 133.993 126.734C134.173 126.914 134.274 127.158 134.274 127.413V135.645C134.275 135.772 134.25 135.897 134.202 136.014C134.154 136.13 134.083 136.237 133.993 136.326C133.904 136.415 133.798 136.486 133.681 136.534C133.564 136.582 133.439 136.607 133.313 136.607H125.081C124.826 136.607 124.581 136.505 124.401 136.325C124.221 136.145 124.119 135.9 124.119 135.645V127.413C124.12 127.159 124.221 126.914 124.402 126.734C124.582 126.554 124.826 126.453 125.081 126.452Z" fill="#E6E6E6"/>
<path d="M125.081 140.556H133.313C133.568 140.556 133.812 140.663 133.993 140.854C134.173 141.044 134.274 141.302 134.274 141.571V150.26C134.275 150.394 134.25 150.526 134.202 150.649C134.154 150.772 134.083 150.884 133.993 150.979C133.904 151.073 133.798 151.148 133.681 151.199C133.564 151.25 133.439 151.276 133.313 151.275H125.081C124.826 151.275 124.581 151.168 124.401 150.978C124.221 150.788 124.119 150.53 124.119 150.26V141.571C124.12 141.302 124.221 141.044 124.402 140.854C124.582 140.664 124.826 140.557 125.081 140.556Z" fill="#57B894"/>
<path d="M23.6202 157.046C17.4798 194.227 26.3214 232.394 48.2861 263.524C49.6087 265.411 50.9805 267.266 52.4016 269.089C54.5644 271.88 56.8279 274.593 59.1924 277.229C81.3039 301.924 111.216 318.668 144.104 324.757C145.199 324.961 146.301 325.154 147.409 325.336C173.727 329.649 209.08 321.329 242.238 307.225C244.981 306.059 247.708 304.852 250.419 303.605C251.685 303.029 252.947 302.441 254.206 301.842C267.102 295.742 279.539 288.76 291.424 280.948C299.203 275.851 306.63 270.261 313.659 264.213C341.302 240.157 350.504 215.909 318.442 205.36C314.646 204.113 310.971 202.843 307.418 201.55C302.271 199.681 297.365 197.771 292.7 195.818C286.416 193.192 280.549 190.501 275.098 187.743C273.265 186.817 271.477 185.887 269.736 184.952C243.995 171.115 227.74 155.908 217.486 140.618C215.746 138.03 214.175 135.441 212.773 132.852C210.625 128.909 208.755 124.828 207.178 120.637C205.006 114.819 203.364 108.827 202.268 102.733L202.208 102.398C196.891 72.8913 204.138 47.5182 194.649 37.0735C154.086 -7.57749 87.399 35.6153 49.9663 93.3041C48.0797 96.2109 46.2717 99.15 44.5421 102.121C43.7665 103.448 43.0099 104.781 42.2722 106.119C40.3375 109.605 38.5244 113.121 36.8327 116.667C36.1851 118.019 35.5571 119.373 34.9487 120.728C34.2956 122.191 33.6597 123.654 33.053 125.12C28.5715 135.854 25.3268 146.633 23.6202 157.046Z" fill="#F2F2F2"/>
<path d="M125.081 154.66H133.313C133.439 154.66 133.564 154.686 133.681 154.737C133.798 154.788 133.904 154.863 133.993 154.957C134.083 155.051 134.154 155.163 134.202 155.287C134.25 155.41 134.275 155.542 134.274 155.675V164.365C134.275 164.498 134.25 164.63 134.202 164.753C134.154 164.877 134.083 164.989 133.993 165.083C133.904 165.177 133.798 165.252 133.681 165.303C133.564 165.354 133.439 165.38 133.313 165.38H125.081C124.826 165.379 124.581 165.273 124.401 165.082C124.221 164.892 124.119 164.634 124.119 164.365V155.675C124.119 155.406 124.221 155.148 124.401 154.958C124.581 154.767 124.826 154.66 125.081 154.66Z" fill="#57B894"/>
<path d="M234.248 325.023C234.248 325.434 233.95 325.765 233.579 325.765H94.5048C94.1337 325.765 93.8356 325.434 93.8356 325.023C93.8356 324.823 93.9031 324.648 94.0155 324.517H144.473C145.548 324.517 146.599 324.436 147.634 324.28H233.579C233.95 324.28 234.248 324.611 234.248 325.023Z" fill="#3F3D56"/>
<path d="M301.44 193.671H224.016C210.9 193.671 200.266 205.467 200.266 220.018V288.916C200.266 303.467 210.9 315.263 224.016 315.263H301.44C314.557 315.263 325.19 303.467 325.19 288.916V220.018C325.19 205.467 314.557 193.671 301.44 193.671Z" fill="white"/>
<path d="M325.752 288.916V220.018C325.752 205.146 314.846 193.047 301.44 193.047H224.016C210.611 193.047 199.704 205.146 199.704 220.018V288.916C199.704 303.788 210.611 315.887 224.016 315.887H301.44C314.846 315.887 325.752 303.788 325.752 288.916ZM301.44 194.295C314.226 194.295 324.628 205.834 324.628 220.018V288.916C324.628 303.1 314.226 314.639 301.44 314.639H224.016C211.231 314.639 200.829 303.1 200.829 288.916V220.018C200.829 205.834 211.231 194.295 224.016 194.295H301.44Z" fill="#3F3D56"/>
<path d="M371.177 40.1929H293.753C280.636 40.1929 270.003 51.9888 270.003 66.5399V135.438C270.003 149.989 280.636 161.785 293.753 161.785H371.177C384.294 161.785 394.927 149.989 394.927 135.438V66.5399C394.927 51.9888 384.294 40.1929 371.177 40.1929V40.1929Z" fill="white"/>
<path d="M395.489 135.438V66.5402C395.489 51.6684 384.583 39.5692 371.177 39.5692H293.753C280.347 39.5692 269.441 51.6684 269.441 66.5402V135.438C269.441 150.31 280.347 162.409 293.753 162.409H371.177C384.583 162.409 395.489 150.31 395.489 135.438ZM371.177 40.817C383.963 40.817 394.364 52.3563 394.364 66.5402V135.438C394.364 149.622 383.963 161.161 371.177 161.161H293.753C280.968 161.161 270.566 149.622 270.566 135.438V66.5402C270.566 52.3563 280.968 40.817 293.753 40.817H371.177V40.817Z" fill="#3F3D56"/>
<path d="M154.544 86.0782C155.106 85.4543 159.605 72.3525 159.605 72.3525L170.291 71.7286L175.18 84.516L154.544 86.0782Z" fill="#FFB6B6"/>
<path d="M169.703 77.7647C161.759 77.7647 155.32 70.6209 155.32 61.8085C155.32 52.996 161.759 45.8522 169.703 45.8522C177.647 45.8522 184.086 52.996 184.086 61.8085C184.086 70.6209 177.647 77.7647 169.703 77.7647Z" fill="#FFB6B6"/>
<path d="M142.452 172.488L137.391 191.205L150.888 299.762H160.026L164.948 218.032L170.572 246.107L141.89 286.66L149.201 296.019L190.537 251.41L189.693 182.47L186.319 171.864L142.452 172.488Z" fill="#2F2E41"/>
<path d="M157.644 74.9162L158.768 74.9776C158.768 74.9776 159.772 65.0381 160.362 64.4457C160.951 63.8532 162.019 65.1609 162.019 65.1609C162.019 65.1609 166.651 62.2908 166.79 59.1751C166.928 56.0594 167.039 53.5668 168.724 53.6589C170.409 53.7511 179.847 56.7655 182.094 56.8883C184.341 57.0111 187.905 52.8333 184.139 48.8796C180.373 44.9258 177.058 43.4954 176.524 42.8415C175.99 42.1877 172.474 39.4969 169.402 41.8276C166.33 44.1584 162.398 43.9435 162.398 43.9435C162.398 43.9435 155.013 45.4138 155.97 49.2141C156.928 53.0143 153.225 60.3077 154.745 64.1387C156.264 67.9696 157.644 74.9162 157.644 74.9162L157.644 74.9162Z" fill="#2F2E41"/>
<path d="M160.448 297.89L150.325 299.138L149.201 319.727C149.201 319.727 149.763 329.709 159.324 328.461C168.884 327.213 166.072 317.231 166.072 317.231L160.448 297.89Z" fill="#2F2E41"/>
<path d="M147.232 283.229C147.232 283.229 139.921 279.485 138.797 283.853L136.547 292.587C136.547 292.587 136.547 301.322 135.985 301.946C135.422 302.57 124.737 318.791 134.297 327.525C134.297 327.525 139.359 328.149 142.171 319.415C144.983 310.68 153.419 301.946 153.419 301.946C153.419 301.946 155.053 297.578 152.267 297.89C149.482 298.202 145.545 290.716 146.67 288.22C147.795 285.724 147.232 283.229 147.232 283.229Z" fill="#2F2E41"/>
<path d="M240.084 201.72C242.701 200.497 243.418 195.809 241.686 191.246C241.016 189.413 239.961 187.785 238.608 186.497L236.587 181.354L236.659 181.3L230.847 155.606C229.496 149.632 225.776 144.592 220.667 142.182C217.627 140.748 214.743 140.488 213.905 143.924C212.513 149.625 221.577 167.989 227.042 178.321L231.3 189.911C231.185 191.886 231.497 193.862 232.212 195.675C233.943 200.236 237.468 202.942 240.084 201.72V201.72Z" fill="#FFB6B6"/>
<path d="M174.789 82.335L156.23 82.9589L138.234 91.6934L141.046 143.477C141.046 143.477 137.671 155.331 139.359 157.202C141.046 159.074 139.359 167.465 140.483 167.637C141.608 167.808 140.483 176.833 140.483 176.833C140.483 176.833 156.23 170.928 169.728 174.671C183.225 178.415 187.724 172.176 187.724 172.176C187.724 172.176 191.099 157.202 191.099 154.083V90.2933L174.789 82.335Z" fill="#0E9EDC"/>
<path d="M188.006 90.1336C188.006 90.1336 195.879 87.638 199.816 93.8769C203.753 100.116 206.002 100.116 206.002 108.227C206.002 108.227 229.06 144.412 227.936 148.156L233.278 157.826L219.781 165.937C219.781 165.937 215.001 160.634 215.001 155.643C215.001 150.651 201.503 136.926 201.503 136.926C201.503 136.926 189.693 120.081 189.131 113.842C188.568 107.603 188.006 90.1336 188.006 90.1336Z" fill="#0E9EDC"/>
<path d="M118.663 204.901H41.2389C28.1223 204.901 17.4891 216.697 17.4891 231.248V300.146C17.4891 314.697 28.1222 326.493 41.2389 326.493H118.663C131.779 326.493 142.413 314.697 142.413 300.146V231.248C142.413 216.697 131.779 204.901 118.663 204.901Z" fill="white"/>
<path d="M143.538 299.523V230.624C143.538 215.753 132.631 203.654 119.225 203.654H41.8015C28.3958 203.654 17.4893 215.753 17.4893 230.624V299.523C17.4893 314.394 28.3958 326.493 41.8015 326.493H119.225C132.631 326.493 143.538 314.394 143.538 299.523ZM119.225 204.901C132.011 204.901 142.413 216.441 142.413 230.624V299.523C142.413 313.707 132.011 325.246 119.225 325.246H41.8015C29.0158 325.246 18.6141 313.707 18.6141 299.523V230.624C18.6141 216.441 29.0159 204.901 41.8015 204.901H119.225Z" fill="#3F3D56"/>
<path d="M126.94 215.838C124.104 215.673 121.995 211.533 122.229 206.589C122.298 204.612 122.793 202.683 123.671 200.962L123.999 195.364L123.915 195.34L121.52 168.983C120.964 162.855 122.921 156.713 126.99 152.522C129.41 150.029 132.044 148.699 133.884 151.616C136.937 156.454 134.029 177.141 132.049 188.917L131.59 201.423C132.303 203.237 132.613 205.213 132.495 207.187C132.262 212.13 129.775 216.003 126.94 215.838Z" fill="#FFB6B6"/>
<path d="M141.789 91.2666C141.789 91.2666 133.619 91.8836 131.825 99.2344C130.031 106.585 127.915 107.432 130.396 115.061C130.396 115.061 119.777 157.781 121.98 160.879L119.913 171.987L135.091 174.534C135.091 174.534 137.965 167.746 136.438 163.051C134.911 158.356 143.408 140.363 143.408 140.363C143.408 140.363 149.364 120.071 147.984 113.991C146.604 107.911 141.789 91.2666 141.789 91.2666V91.2666Z" fill="#0E9EDC"/>
<rect width="15.8892" height="28.4121" transform="matrix(0.718727 0.695292 -0.711392 0.702795 67.2227 223.774)" fill="#F2B4B4"/>
<rect width="9.53737" height="13.1638" transform="matrix(0.718727 0.695292 -0.711392 0.702795 57.2744 223.053)" fill="#F2B4B4"/>
<path d="M120.99 290.174L115.969 285.266L117.76 283.515C118.263 283.023 118.263 282.225 117.76 281.733L113.795 277.858L117.387 274.346C117.805 273.937 117.885 273.303 117.581 272.807L112.178 264.003C112.124 263.915 112.059 263.834 111.984 263.761L94.871 247.031C93.8715 246.054 92.2497 246.054 91.2489 247.029L90.3575 247.901L83.1737 240.879C82.1687 239.894 80.5338 239.894 79.5276 240.88L65.1401 254.946C64.1323 255.925 64.1323 257.524 65.1401 258.509L72.3226 265.531L71.4332 266.4C70.4344 267.382 70.4344 268.963 71.4308 269.943L88.5452 286.672C88.6197 286.745 88.7031 286.809 88.7932 286.862L97.7997 292.146C98.3069 292.444 98.9561 292.365 99.3743 291.957L102.967 288.444L106.931 292.32C107.435 292.812 108.251 292.812 108.754 292.32L110.545 290.569L115.565 295.478C116.068 295.97 116.884 295.97 117.388 295.478L120.99 291.956C121.493 291.464 121.493 290.666 120.99 290.174ZM66.9628 256.727L81.3512 242.661L88.5348 249.683L74.1453 263.749L66.9628 256.727ZM98.2631 289.479L90.2556 284.781L73.2654 268.173L75.0564 266.422L91.2689 250.574C91.2698 250.573 91.2704 250.572 91.2713 250.571L93.0593 248.824L110.049 265.433L114.853 273.26L98.2631 289.479ZM107.842 289.647L104.789 286.663L111.973 279.64L115.026 282.624L113.247 284.364C113.243 284.368 113.238 284.371 113.235 284.375L109.994 287.544L107.842 289.647ZM116.476 292.805L112.368 288.787L114.147 287.048L118.256 291.065L116.476 292.805Z" fill="#737373"/>
<path d="M94.8715 254.075C94.3682 253.583 93.5522 253.583 93.0488 254.075L78.6382 268.163C78.1349 268.655 78.1349 269.453 78.6382 269.945C79.1414 270.437 79.9575 270.437 80.4609 269.945L94.8715 255.857C95.3749 255.365 95.3749 254.567 94.8715 254.075Z" fill="#D3D7CF"/>
<path d="M98.4745 257.596C97.9713 257.104 97.1551 257.104 96.6518 257.596L82.2412 271.684C81.738 272.176 81.738 272.974 82.2412 273.466C82.7445 273.958 83.5605 273.958 84.0639 273.466L98.4745 259.378C98.9779 258.886 98.9779 258.088 98.4745 257.596Z" fill="#D3D7CF"/>
<path d="M102.077 261.118C101.573 260.626 100.757 260.626 100.254 261.118L85.8434 275.206C85.34 275.698 85.34 276.496 85.8434 276.988C86.3466 277.48 87.1627 277.48 87.6661 276.988L102.077 262.9C102.58 262.408 102.58 261.61 102.077 261.118Z" fill="#D3D7CF"/>
<path d="M105.68 264.64C105.176 264.148 104.36 264.148 103.857 264.64L89.4463 278.727C88.943 279.219 88.943 280.017 89.4463 280.509C89.9495 281.001 90.7656 281.001 91.269 280.509L105.68 266.421C106.183 265.929 106.183 265.132 105.68 264.64Z" fill="#D3D7CF"/>
<path d="M107.459 268.162L93.0488 282.25C92.5456 282.742 92.5456 283.54 93.0488 284.032C93.5521 284.524 94.3681 284.524 94.8715 284.032L109.282 269.944C109.786 269.452 109.786 268.655 109.282 268.162C108.779 267.67 107.963 267.67 107.459 268.162Z" fill="#D3D7CF"/>
<path d="M80.4503 232.933L69.6639 222.39C68.6589 221.405 67.0239 221.405 66.0177 222.391L61.5369 226.771L57.8366 223.153C57.3334 222.66 56.5172 222.66 56.0138 223.152L54.2231 224.903L49.84 220.618C49.3367 220.126 48.5208 220.126 48.0175 220.618L44.4138 224.139C43.9102 224.632 43.9102 225.429 44.4138 225.922L48.798 230.207L47.0073 231.957C46.504 232.449 46.504 233.247 47.0073 233.739L50.7078 237.357L46.2259 241.738C45.2184 242.723 45.2184 244.319 46.2272 245.303L57.0124 255.846C58.0197 256.831 59.6503 256.831 60.6575 255.846L80.4503 236.498C81.4576 235.513 81.4576 233.918 80.4503 232.933ZM47.148 225.031L48.9285 223.291L52.4003 226.685L50.6207 228.425L47.148 225.031ZM51.5283 231.101L51.5323 231.097L55.1347 227.576L55.1383 227.572L56.9251 225.825L59.7142 228.553L52.5304 235.574L49.7413 232.848L51.5283 231.101ZM58.835 254.064L48.0488 243.519L67.8415 224.172L78.6278 234.715L58.835 254.064Z" fill="#C54040"/>
<path d="M64.2283 231.183L55.2218 239.987C54.7184 240.479 54.7184 241.276 55.2217 241.769C55.7249 242.261 56.541 242.261 57.0444 241.769L66.0509 232.965C66.5543 232.473 66.5543 231.676 66.051 231.183C65.5478 230.691 64.7317 230.691 64.2283 231.183Z" fill="#C54040"/>
<path d="M280.569 259.123C280.569 255.367 283.483 252.342 287.04 252.342C287.665 252.342 288.213 252.872 288.226 253.576C288.224 254.278 287.675 254.817 287.055 254.817C284.756 254.817 282.911 256.776 282.911 259.123C282.911 259.827 282.362 260.368 281.74 260.368C281.119 260.368 280.569 259.827 280.569 259.123Z" fill="#F2B4B4" stroke="#C54040"/>
<path d="M257.22 259C257.22 252.479 251.796 247.222 245.128 247.222C238.46 247.222 233.036 252.479 233.036 259C233.036 265.521 238.46 270.778 245.128 270.778C251.796 270.778 257.236 265.507 257.22 259ZM257.22 259C257.22 259 257.22 259 257.22 259H256.72L257.22 258.999C257.22 258.999 257.22 258.999 257.22 259ZM241.367 241.085C243.694 239.489 246.481 238.442 249.489 238.204L249.664 238.384L249.664 238.383L250.007 238.049L250.982 237.101L250.976 237.102L253.409 234.725H253.426L253.569 234.599C254.572 233.706 255.892 233.175 257.345 233.175C259.834 233.175 261.939 234.756 262.667 236.923L262.866 237.516L263.401 237.191C264.203 236.703 265.145 236.412 266.156 236.412C266.318 236.412 266.465 236.413 266.592 236.425L266.601 236.426L266.61 236.427C267.515 236.483 268.34 236.747 269.048 237.188L269.589 237.525L269.787 236.919C270.5 234.741 272.603 233.16 275.108 233.16C276.56 233.16 277.896 233.706 278.885 234.584L279.027 234.71H279.045L281.477 237.087L281.472 237.086L282.446 238.034L282.789 238.367L282.789 238.368L282.79 238.368L282.964 238.189C285.973 238.427 288.745 239.46 291.086 241.069L297.474 246.345L297.48 246.349L297.486 246.354C297.945 246.711 298.386 247.081 298.794 247.464C301.902 250.384 303.823 254.464 303.807 258.983V258.985C303.807 267.816 296.42 275.022 287.31 275.022C278.9 275.022 271.962 268.864 270.949 260.973L270.854 260.239L270.209 260.601C269.032 261.259 267.679 261.631 266.219 261.631C264.774 261.631 263.405 261.258 262.229 260.601L261.582 260.238L261.489 260.974C260.49 268.879 253.538 275.037 245.128 275.037C236.017 275.037 228.63 267.831 228.63 259C228.63 254.48 230.552 250.399 233.66 247.479L233.66 247.479L233.666 247.473C234.07 247.079 234.506 246.713 234.96 246.375L234.97 246.368L234.979 246.36L241.367 241.085ZM261.969 253.787C261.969 256.097 263.894 257.95 266.234 257.95C268.575 257.95 270.5 256.097 270.5 253.787C270.5 251.476 268.575 249.624 266.234 249.624C263.894 249.624 261.969 251.476 261.969 253.787ZM275.249 259C275.249 265.521 280.672 270.778 287.341 270.778C294.01 270.778 299.433 265.505 299.433 259C299.433 252.479 294.009 247.222 287.341 247.222C280.672 247.222 275.249 252.479 275.249 259Z" fill="#F2B4B4" stroke="#C54040"/>
<path d="M257.22 259C257.22 252.479 251.796 247.222 245.128 247.222C238.46 247.222 233.036 252.479 233.036 259C233.036 265.521 238.46 270.778 245.128 270.778C251.796 270.778 257.236 265.507 257.22 259ZM257.22 259C257.22 259 257.22 259 257.22 259H256.72L257.22 258.999C257.22 258.999 257.22 258.999 257.22 259ZM241.367 241.085C243.694 239.489 246.481 238.442 249.489 238.204L249.664 238.384L249.664 238.383L250.007 238.049L250.982 237.101L250.976 237.102L253.409 234.725H253.426L253.569 234.599C254.572 233.706 255.892 233.175 257.345 233.175C259.834 233.175 261.939 234.756 262.667 236.923L262.866 237.516L263.401 237.191C264.203 236.703 265.145 236.412 266.156 236.412C266.318 236.412 266.465 236.413 266.592 236.425L266.601 236.426L266.61 236.427C267.515 236.483 268.34 236.747 269.048 237.188L269.589 237.525L269.787 236.919C270.5 234.741 272.603 233.16 275.108 233.16C276.56 233.16 277.896 233.706 278.885 234.584L279.027 234.71H279.045L281.477 237.087L281.472 237.086L282.446 238.034L282.789 238.367L282.789 238.368L282.79 238.368L282.964 238.189C285.973 238.427 288.745 239.46 291.086 241.069L297.474 246.345L297.48 246.349L297.486 246.354C297.945 246.711 298.386 247.081 298.794 247.464C301.902 250.384 303.823 254.464 303.807 258.983V258.985C303.807 267.816 296.42 275.022 287.31 275.022C278.9 275.022 271.962 268.864 270.949 260.973L270.854 260.239L270.209 260.601C269.032 261.259 267.679 261.631 266.219 261.631C264.774 261.631 263.405 261.258 262.229 260.601L261.582 260.238L261.489 260.974C260.49 268.879 253.538 275.037 245.128 275.037C236.017 275.037 228.63 267.831 228.63 259C228.63 254.48 230.552 250.399 233.66 247.479L233.66 247.479L233.666 247.473C234.07 247.079 234.506 246.713 234.96 246.375L234.97 246.368L234.979 246.36L241.367 241.085ZM261.969 253.787C261.969 256.097 263.894 257.95 266.234 257.95C268.575 257.95 270.5 256.097 270.5 253.787C270.5 251.476 268.575 249.624 266.234 249.624C263.894 249.624 261.969 251.476 261.969 253.787ZM275.249 259C275.249 265.521 280.672 270.778 287.341 270.778C294.01 270.778 299.433 265.505 299.433 259C299.433 252.479 294.009 247.222 287.341 247.222C280.672 247.222 275.249 252.479 275.249 259Z" fill="#F2B4B4" stroke="#C54040"/>
<path d="M238.441 259.123C238.441 255.367 241.355 252.342 244.912 252.342C245.537 252.342 246.085 252.872 246.098 253.576C246.096 254.278 245.548 254.817 244.927 254.817C242.628 254.817 240.784 256.776 240.784 259.123C240.784 259.827 240.234 260.368 239.612 260.368C238.991 260.368 238.441 259.827 238.441 259.123Z" fill="#F2B4B4" stroke="#C54040"/>
<path d="M323.548 92.1848C325.567 98.0569 330.424 101.256 335.302 101.465C340.192 101.675 345.056 98.8762 347.04 92.8918L347.042 92.8841L347.045 92.8763C347.117 92.6306 347.192 92.3877 347.273 92.1259C347.346 91.8892 347.424 91.6371 347.509 91.3537L347.509 91.3537L347.512 91.3434C347.513 91.3408 347.514 91.3376 347.517 91.3341C347.518 91.3327 347.519 91.3315 347.52 91.3305C348.159 91.4367 348.685 91.0145 349.046 90.5814C349.432 90.1167 349.768 89.4781 350.035 88.8144L350.036 88.8145L350.04 88.8038C350.341 88.0034 350.579 87.1216 350.646 86.3117C350.717 85.5701 350.657 84.8409 350.393 84.3333L350.393 84.3333L350.388 84.3242C350.24 84.0528 350.001 83.9321 349.804 83.8725L350.212 83.9066C350.533 83.9335 350.774 84.1029 350.949 84.4226L350.952 84.4273C351.189 84.8514 351.289 85.5485 351.201 86.3805L351.2 86.3804L351.199 86.3924C351.136 87.1711 350.908 88.0771 350.604 88.8802C350.332 89.5897 349.975 90.2121 349.577 90.6613C349.174 91.1152 348.767 91.3507 348.393 91.3887L348.074 91.421L347.97 91.7246C347.847 92.0858 347.748 92.4428 347.652 92.7871C347.638 92.8385 347.624 92.8896 347.61 92.9403C347.05 94.8229 346.625 96.2102 345.543 97.5544L345.543 97.5543L345.538 97.5616C345.049 98.192 344.476 98.7614 343.882 99.2444L343.682 99.4067L343.698 99.6634L343.81 101.452L343.819 101.599L343.906 101.718C344.574 102.625 345.319 103.354 346.175 103.892L346.192 103.903L346.21 103.912C347.794 104.736 349.72 104.999 351.69 105.202L351.81 105.214L351.923 105.17C353.855 104.418 355.945 104.012 358.132 104.012C362.862 104.012 367.137 105.911 370.233 108.981C373.329 112.052 375.243 116.297 375.243 120.977C375.243 125.664 373.329 129.903 370.233 132.973C367.138 136.044 362.855 137.943 358.132 137.943C353.403 137.943 349.127 136.044 346.031 132.973C344.555 131.509 343.345 129.778 342.491 127.862L342.358 127.566H342.034H300.227L302.238 119.93L302.24 119.923L302.242 119.915C303.341 115.125 304.815 112.062 306.515 110.045C308.206 108.039 310.152 107.03 312.273 106.401C313.34 106.084 314.45 105.865 315.6 105.662C315.933 105.604 316.27 105.546 316.61 105.488C317.438 105.348 318.285 105.204 319.132 105.031C321.534 104.539 324.01 103.796 326.401 102.133L326.422 102.118L326.442 102.101C326.59 101.973 326.732 101.845 326.875 101.711L327.019 101.574L327.03 101.375L327.142 99.3649L327.155 99.1187L326.968 98.958C326.52 98.5724 326.094 98.1557 325.713 97.6962L325.713 97.6961L325.708 97.6901C324.381 96.141 323.824 94.5144 323.046 92.2313C322.982 92.0186 322.902 91.8002 322.831 91.6066C322.802 91.5268 322.774 91.4513 322.75 91.3821L322.633 91.048H322.278C321.618 91.048 320.923 90.4836 320.362 89.4023C319.944 88.5728 319.651 87.5746 319.546 86.6188C319.438 85.6096 319.54 84.7787 319.828 84.3097L319.933 84.1395L319.891 83.9442L319.5 82.0968C324.423 81.1389 330.347 80.6722 335.977 80.607L335.977 80.607C341.379 80.5428 346.45 80.8514 350.065 81.4423C349.985 81.759 349.916 82.0636 349.863 82.3406C349.784 82.7551 349.73 83.1576 349.755 83.4508L349.791 83.8686C349.701 83.8425 349.621 83.8288 349.563 83.8189C349.553 83.8172 349.544 83.8157 349.536 83.8143C349.299 83.7725 349.202 83.7494 349.119 83.6769L348.578 83.2055L348.323 83.8762C347.871 85.0647 346.491 86.1903 344.389 87.0712C342.313 87.941 339.638 88.5265 336.782 88.7067C331.041 89.0687 324.742 87.7876 321.128 84.1209L320.688 83.6741L320.351 84.2031C320.156 84.5075 320.067 84.8895 320.03 85.2699C319.993 85.6585 320.006 86.0917 320.052 86.5335L320.052 86.5335L320.053 86.5448C320.17 87.474 320.45 88.505 320.886 89.3378C321.133 89.8176 321.434 90.2588 321.783 90.5651C322.132 90.8717 322.598 91.0965 323.121 90.9627L323.121 90.9628L323.128 90.9609C323.129 90.961 323.13 90.9612 323.131 90.9618C323.242 91.2618 323.321 91.504 323.399 91.7413C323.447 91.8869 323.494 92.0307 323.548 92.1848ZM323.548 92.1848C323.548 92.1845 323.548 92.1842 323.547 92.1839L324.02 92.0214L323.548 92.1853C323.548 92.1852 323.548 92.185 323.548 92.1848ZM373.429 120.984C373.435 116.793 371.716 112.996 368.948 110.251C366.179 107.506 362.354 105.809 358.132 105.809C353.911 105.809 350.085 107.506 347.317 110.251C344.548 112.997 342.836 116.793 342.836 120.983C342.836 125.174 344.548 128.97 347.317 131.716C350.085 134.461 353.911 136.158 358.132 136.158C362.354 136.158 366.179 134.461 368.948 131.716C371.716 128.971 373.428 125.174 373.429 120.984ZM373.429 120.984L372.929 120.983H373.429C373.429 120.984 373.429 120.984 373.429 120.984ZM351.035 78.241C347.13 77.5644 341.678 77.2178 335.953 77.2832C330.137 77.3489 323.982 77.8374 318.826 78.843C318.392 76.473 318.593 74.4529 319.253 72.7528C319.957 70.9419 321.193 69.4613 322.801 68.2956C326.029 65.9554 330.733 64.9037 335.445 65.0498C340.156 65.196 344.778 66.5371 347.835 68.8733C349.358 70.0376 350.477 71.4367 351.044 73.0445C351.577 74.5566 351.634 76.2884 351.035 78.241ZM323.129 90.9558L323.129 90.9561L323.129 90.9558ZM343.296 100.321L343.274 99.4178L342.521 99.9161C341.261 100.749 340.292 101.363 339.245 101.767C338.212 102.166 337.083 102.368 335.513 102.329L335.508 102.329C332.514 102.283 330.964 101.308 328.468 99.7386L328.427 99.7131L327.677 99.2414L327.661 100.128C327.563 105.663 331.536 108.634 335.495 108.744C337.469 108.798 339.459 108.144 340.941 106.732C342.43 105.312 343.366 103.166 343.296 100.321ZM358.386 115.328L358.091 115.143L357.815 115.355C356.374 116.464 354.897 116.784 353.365 116.709L352.854 116.684L352.841 117.195C352.771 119.82 353.203 121.889 354.09 123.463C354.984 125.047 356.317 126.089 357.969 126.686L358.141 126.748L358.313 126.684C360.019 126.047 361.373 124.955 362.259 123.367C363.141 121.786 363.541 119.753 363.417 117.258L363.391 116.736L362.871 116.785C361.64 116.899 360.135 116.427 358.386 115.328ZM358.129 112.109C361.089 113.919 363.845 114.876 366.307 114.805C366.447 118.907 365.745 122.145 364.368 124.612C362.969 127.118 360.853 128.865 358.13 129.917C355.508 128.931 353.435 127.27 352.029 124.778C350.64 122.315 349.882 119.004 349.937 114.66C352.721 114.724 355.469 114.067 358.129 112.109ZM339.889 71.701H330.486C329.99 71.701 329.583 72.0992 329.583 72.6006V74.7523C329.583 75.2537 329.99 75.6519 330.486 75.6519H339.889C340.385 75.6519 340.792 75.2536 340.792 74.7523V72.6006C340.792 72.0992 340.385 71.701 339.889 71.701ZM322.495 115.11H313.092C312.597 115.11 312.189 115.509 312.189 116.01V118.162C312.189 118.663 312.597 119.061 313.092 119.061H322.495C322.991 119.061 323.398 118.663 323.398 118.162V116.01C323.398 115.509 322.991 115.11 322.495 115.11Z" fill="#F2B4B4" stroke="#C54040"/>
</svg>
