<svg width="900" height="600" viewBox="0 0 900 600" fill="none" xmlns="http://www.w3.org/2000/svg">
<path fill-rule="evenodd" clip-rule="evenodd" d="M307.706 550.643H691.211C727.21 550.643 725.558 520.757 713.8 510.343C701.747 499.67 677.934 503.999 677.934 503.999C677.934 503.999 670.843 483.897 647.507 474.11C626.865 465.453 605.24 469.572 605.24 469.572C605.24 469.572 605.24 455.776 592.024 444.35C578.806 432.923 561.183 434.035 561.183 434.035C561.183 434.035 549.069 357.959 468.115 357.959C387.161 357.959 377.799 429.591 377.799 429.591C377.799 429.591 359.626 429.591 346.408 441.808C333.191 454.025 331.539 467.905 331.539 467.905C331.539 467.905 287.338 461.9 274.265 500.347C266.475 523.261 282.48 550.643 307.706 550.643V550.643Z" fill="url(#paint0_linear_328_5490)"/>
<path fill-rule="evenodd" clip-rule="evenodd" d="M472.391 550.643H855.896C891.895 550.643 890.243 520.757 878.484 510.343C866.432 499.67 842.618 503.999 842.618 503.999C842.618 503.999 835.528 483.897 812.192 474.11C791.55 465.453 769.925 469.572 769.925 469.572C769.925 469.572 769.925 455.776 756.709 444.35C743.491 432.923 725.868 434.035 725.868 434.035C725.868 434.035 713.754 357.959 632.8 357.959C551.846 357.959 542.484 429.591 542.484 429.591C542.484 429.591 524.311 429.591 511.093 441.808C497.876 454.025 496.224 467.905 496.224 467.905C496.224 467.905 452.022 461.9 438.949 500.347C431.159 523.261 447.165 550.643 472.391 550.643V550.643Z" fill="url(#paint1_linear_328_5490)"/>
<path d="M711.701 244.38C700.367 264.607 675.546 267.386 635.78 263.542C605.874 260.646 578.601 258.405 548.692 242.098C527.758 230.693 511.187 215.262 499.093 200.274C485.987 184.038 467.693 165.508 476.661 147.098C488.985 121.81 560.254 100.511 629.459 135.341C705.48 173.614 722.788 224.611 711.701 244.38Z" fill="url(#paint2_linear_328_5490)"/>
<path d="M806.762 291.243C784.117 302.476 754.062 288.032 754.062 288.032C754.062 288.032 760.741 255.384 783.398 244.167C806.042 232.934 836.085 247.361 836.085 247.361C836.085 247.361 829.406 280.01 806.762 291.243V291.243Z" fill="url(#paint3_linear_328_5490)"/>
<path d="M737.365 153C730.536 153 725 158.536 725 165.364C725 172.192 730.536 177.728 737.365 177.728C744.193 177.728 749.729 172.192 749.729 165.364C749.729 158.536 744.193 153 737.365 153Z" fill="#0BA1F4"/>
<path d="M308.696 249C302.236 249 297 254.237 297 260.696C297 267.156 302.236 272.392 308.696 272.392C315.155 272.392 320.392 267.156 320.392 260.696C320.392 254.237 315.155 249 308.696 249Z" fill="#0BA1F4"/>
<path d="M203.33 215.843C196.928 215.843 191.739 210.653 191.739 204.252C191.739 197.85 196.928 192.661 203.33 192.661C209.731 192.661 214.921 197.85 214.921 204.252C214.921 210.653 209.731 215.843 203.33 215.843Z" fill="#0BA1F4"/>
<path d="M656.169 269.936C653.182 269.936 650.76 267.514 650.76 264.527C650.76 261.54 653.182 259.118 656.169 259.118C659.156 259.118 661.578 261.54 661.578 264.527C661.578 267.514 659.156 269.936 656.169 269.936Z" fill="#0BA1F4"/>
<path d="M687.387 512.853C683.546 512.853 680.432 509.739 680.432 505.898C680.432 502.057 683.546 498.943 687.387 498.943C691.228 498.943 694.342 502.057 694.342 505.898C694.342 509.739 691.228 512.853 687.387 512.853Z" fill="#E1E4E5"/>
<path d="M201.257 443.728C195.708 443.728 191.211 439.23 191.211 433.682C191.211 428.134 195.708 423.636 201.257 423.636C206.805 423.636 211.303 428.134 211.303 433.682C211.303 439.23 206.805 443.728 201.257 443.728Z" fill="#E1E4E5"/>
<path d="M317.433 184.645C313.21 184.645 309.787 181.222 309.787 176.999C309.787 172.776 313.21 169.353 317.433 169.353C321.656 169.353 325.079 172.776 325.079 176.999C325.079 181.222 321.656 184.645 317.433 184.645Z" fill="#E1E4E5"/>
<path d="M688.638 186.918C683.943 186.918 680.138 183.112 680.138 178.418C680.138 173.724 683.943 169.918 688.638 169.918C693.332 169.918 697.138 173.724 697.138 178.418C697.138 183.112 693.332 186.918 688.638 186.918Z" fill="#E1E4E5"/>
<path d="M231.647 272.907C232.738 276.979 230.322 281.164 226.25 282.255C222.178 283.346 217.992 280.93 216.901 276.858C215.81 272.786 218.227 268.601 222.299 267.51C226.371 266.418 230.556 268.835 231.647 272.907Z" fill="#E1E4E5"/>
<path d="M418.109 123.011C412.5 123.011 407.954 118.464 407.954 112.856C407.954 107.247 412.5 102.701 418.109 102.701C423.717 102.701 428.264 107.247 428.264 112.856C428.264 118.464 423.717 123.011 418.109 123.011Z" fill="#E1E4E5"/>
<path d="M741.947 378.675C737.633 378.675 734.136 375.877 734.136 372.426C734.136 368.975 737.633 366.177 741.947 366.177C746.261 366.177 749.758 368.975 749.758 372.426C749.758 375.877 746.261 378.675 741.947 378.675Z" fill="#E1E4E5"/>
<path d="M609.957 108.276C612.228 116.751 607.199 125.462 598.724 127.733C590.25 130.003 581.539 124.974 579.268 116.499C576.997 108.025 582.026 99.314 590.501 97.0432C598.976 94.7724 607.686 99.8016 609.957 108.276Z" fill="#E1E4E5"/>
<path d="M801.183 329.267H801.388C802.598 346.413 815.349 346.677 815.349 346.677C815.349 346.677 801.288 346.951 801.288 366.762C801.288 346.951 787.228 346.677 787.228 346.677C787.228 346.677 799.973 346.413 801.183 329.267V329.267ZM287.592 495.948H287.773C288.847 511.466 300.161 511.705 300.161 511.705C300.161 511.705 287.685 511.953 287.685 529.884C287.685 511.953 275.208 511.705 275.208 511.705C275.208 511.705 286.518 511.466 287.592 495.948V495.948Z" fill="#E1E4E5"/>
<path d="M572.467 200.332C571.957 196.905 569.224 194.171 565.797 193.661C463.667 178.462 404.92 250.856 389.184 339.599L426.53 376.944C515.273 361.209 587.666 302.46 572.467 200.332V200.332Z" fill="#0BA1F4" stroke="#0BA1F4" stroke-width="12.4"/>
<path d="M489.69 276.436C499.375 286.121 515.078 286.121 524.763 276.436C534.448 266.751 534.448 251.049 524.763 241.364C515.078 231.679 499.375 231.679 489.69 241.364C480.005 251.049 480.005 266.751 489.69 276.436Z" fill="white" stroke="white" stroke-width="12.4"/>
<path d="M413.116 270.005L375.148 257.065L337.71 288.126L393.241 320.276M496.12 353.012L509.059 390.98L477.998 428.418L445.848 372.886L496.12 353.012Z" stroke="#0BA1F4" stroke-width="12.4" stroke-linejoin="round"/>
<path d="M320.498 475.79L347.792 447.971M380.334 357.693L339.394 399.421L380.334 357.693ZM298.454 441.148L325.747 413.33L298.454 441.148ZM402.378 392.335L361.438 434.062L402.378 392.335Z" stroke="#0BA1F4" stroke-width="12.4" stroke-linecap="round"/>
<path fill-rule="evenodd" clip-rule="evenodd" d="M295.926 207.663C292.133 208.206 288.306 208.477 284.474 208.476C243.156 208.476 209.662 177.215 209.662 138.652C209.662 122.647 215.432 107.899 225.136 96.1221C194.417 103.451 171.576 131.079 171.576 164.042C171.576 202.605 202.837 233.867 241.4 233.867C263.46 233.867 283.13 223.637 295.926 207.663V207.663Z" fill="#E1E4E5"/>
<path d="M295.926 207.663L299.642 210.64C300.239 209.895 300.597 208.987 300.672 208.036C300.746 207.084 300.532 206.132 300.059 205.303C299.586 204.474 298.874 203.807 298.016 203.387C297.159 202.968 296.195 202.816 295.25 202.951L295.926 207.663ZM225.136 96.123L228.81 99.15C229.445 98.3802 229.822 97.4304 229.888 96.4347C229.953 95.4391 229.705 94.448 229.176 93.6015C228.648 92.755 227.867 92.096 226.944 91.7174C226.021 91.3389 225.002 91.26 224.031 91.492L225.136 96.122V96.123ZM295.25 202.95C291.74 203.453 288.141 203.714 284.474 203.714V213.236C288.594 213.236 292.645 212.942 296.602 212.375L295.25 202.95ZM284.474 203.714C245.471 203.714 214.423 174.28 214.423 138.651H204.901C204.901 180.147 240.842 213.236 284.474 213.236V203.714ZM214.423 138.651C214.423 123.82 219.762 110.129 228.81 99.149L221.462 93.094C211.101 105.667 204.901 121.471 204.901 138.651H214.423V138.651ZM176.337 164.041C176.337 133.332 197.617 107.581 226.241 100.752L224.031 91.491C191.218 99.319 166.815 128.825 166.815 164.041H176.337V164.041ZM241.4 229.105C205.467 229.105 176.337 199.975 176.337 164.041H166.815C166.815 205.234 200.208 238.627 241.4 238.627V229.105V229.105ZM292.21 204.686C280.279 219.581 261.954 229.105 241.4 229.105V238.627C264.966 238.627 285.981 227.692 299.642 210.639L292.21 204.686Z" fill="#E1E4E5"/>
<path d="M287.225 107.155C287.989 105.09 290.908 105.09 291.672 107.155L294.834 115.698C294.953 116.019 295.139 116.31 295.381 116.552C295.623 116.794 295.914 116.98 296.235 117.099L304.778 120.261C306.843 121.024 306.843 123.944 304.778 124.708L296.235 127.869C295.914 127.988 295.623 128.174 295.381 128.416C295.14 128.658 294.953 128.949 294.834 129.27L291.672 137.814C290.908 139.878 287.989 139.878 287.225 137.814L284.063 129.27C283.945 128.949 283.758 128.658 283.516 128.416C283.275 128.175 282.984 127.988 282.663 127.869L274.119 124.708C272.055 123.944 272.055 121.024 274.119 120.261L282.663 117.099C282.984 116.98 283.275 116.794 283.517 116.552C283.758 116.31 283.945 116.019 284.063 115.698L287.225 107.155ZM358.772 149.62C359.536 147.556 362.455 147.556 363.219 149.62L366.381 158.164C366.621 158.813 367.132 159.324 367.781 159.565L376.325 162.726C378.389 163.49 378.389 166.41 376.325 167.173L367.781 170.335C367.461 170.454 367.169 170.64 366.928 170.882C366.686 171.124 366.5 171.415 366.381 171.736L363.219 180.279C362.455 182.344 359.536 182.344 358.772 180.279L355.61 171.736C355.492 171.415 355.305 171.124 355.063 170.882C354.822 170.641 354.531 170.454 354.21 170.335L345.666 167.173C343.601 166.41 343.601 163.49 345.666 162.726L354.21 159.565C354.531 159.446 354.822 159.259 355.063 159.017C355.305 158.776 355.491 158.485 355.61 158.164L358.772 149.62ZM391.839 67.74C392.603 65.676 395.522 65.676 396.286 67.74L399.447 76.284C399.688 76.933 400.199 77.444 400.848 77.684L409.392 80.846C411.456 81.61 411.456 84.529 409.392 85.293L400.848 88.455C400.199 88.695 399.688 89.207 399.447 89.855L396.286 98.399C395.522 100.464 392.603 100.464 391.839 98.399L388.677 89.856C388.559 89.5352 388.372 89.2439 388.13 89.0021C387.888 88.7603 387.597 88.5736 387.276 88.455L378.733 85.293C376.668 84.529 376.668 81.61 378.733 80.846L387.276 77.685C387.597 77.5663 387.888 77.3797 388.13 77.1378C388.372 76.896 388.559 76.6047 388.677 76.284L391.839 67.74V67.74ZM615.434 333.85C616.198 331.786 619.118 331.786 619.881 333.85L623.043 342.394C623.162 342.715 623.348 343.006 623.59 343.248C623.832 343.49 624.123 343.676 624.444 343.795L632.987 346.956C635.052 347.72 635.052 350.64 632.987 351.403L624.444 354.565C624.123 354.684 623.832 354.87 623.59 355.112C623.348 355.354 623.162 355.645 623.043 355.966L619.881 364.51C619.118 366.574 616.198 366.574 615.434 364.51L612.273 355.966C612.154 355.645 611.968 355.354 611.726 355.112C611.484 354.87 611.193 354.684 610.872 354.565L602.328 351.403C600.264 350.64 600.264 347.72 602.328 346.956L610.872 343.795C611.193 343.676 611.484 343.489 611.726 343.248C611.968 343.006 612.154 342.715 612.273 342.394L615.434 333.85ZM678.418 228.351C679.182 226.286 682.102 226.286 682.866 228.351L686.027 236.894C686.146 237.215 686.332 237.506 686.574 237.748C686.816 237.99 687.107 238.176 687.428 238.295L695.972 241.457C698.036 242.221 698.036 245.14 695.972 245.904L687.428 249.066C687.107 249.184 686.816 249.371 686.574 249.613C686.333 249.854 686.146 250.145 686.027 250.466L682.866 259.01C682.102 261.074 679.182 261.074 678.418 259.01L675.257 250.466C675.138 250.145 674.952 249.854 674.71 249.613C674.468 249.371 674.177 249.184 673.856 249.066L665.312 245.904C663.248 245.14 663.248 242.221 665.312 241.457L673.856 238.295C674.177 238.176 674.468 237.99 674.71 237.748C674.952 237.506 675.139 237.215 675.257 236.894L678.418 228.351V228.351ZM467.42 107.105C468.184 105.041 471.104 105.041 471.867 107.105L475.029 115.649C475.148 115.97 475.334 116.261 475.576 116.503C475.818 116.745 476.109 116.931 476.43 117.05L484.974 120.211C487.038 120.975 487.038 123.895 484.974 124.659L476.43 127.82C476.109 127.939 475.818 128.125 475.576 128.367C475.334 128.609 475.148 128.9 475.029 129.221L471.867 137.765C471.104 139.829 468.184 139.829 467.42 137.765L464.259 129.221C464.141 128.9 463.954 128.609 463.712 128.367C463.47 128.125 463.179 127.939 462.858 127.82L454.314 124.659C452.25 123.895 452.25 120.975 454.314 120.211L462.858 117.05C463.179 116.931 463.47 116.745 463.712 116.503C463.954 116.261 464.141 115.97 464.259 115.649L467.42 107.105V107.105ZM628.031 50.42C628.795 48.355 631.714 48.355 632.478 50.42L635.64 58.963C635.759 59.2836 635.946 59.5747 636.187 59.8163C636.429 60.058 636.72 60.2445 637.041 60.363L645.584 63.525C647.649 64.289 647.649 67.209 645.584 67.972L637.041 71.134C636.721 71.2525 636.429 71.439 636.187 71.6807C635.946 71.9223 635.759 72.2134 635.64 72.534L632.478 81.079C631.714 83.143 628.795 83.143 628.031 81.079L624.869 72.535C624.751 72.2143 624.564 71.923 624.323 71.6812C624.081 71.4394 623.79 71.2527 623.469 71.134L614.925 67.972C612.861 67.209 612.861 64.289 614.925 63.525L623.469 60.364C623.79 60.2452 624.081 60.0586 624.323 59.8167C624.564 59.5749 624.751 59.2836 624.869 58.963L628.031 50.419V50.42ZM769.746 74.038C770.51 71.974 773.43 71.974 774.193 74.038L777.355 82.582C777.474 82.9028 777.66 83.1941 777.902 83.4359C778.144 83.6777 778.435 83.8644 778.756 83.983L787.3 87.144C789.364 87.908 789.364 90.828 787.3 91.592L778.756 94.753C778.435 94.8716 778.144 95.0582 777.902 95.3C777.66 95.5419 777.474 95.8332 777.355 96.154L774.193 104.698C773.43 106.762 770.51 106.762 769.746 104.698L766.585 96.154C766.466 95.8334 766.28 95.5423 766.038 95.3006C765.796 95.0589 765.505 94.8725 765.184 94.754L756.64 91.592C754.576 90.828 754.576 87.908 756.64 87.144L765.184 83.983C765.505 83.8645 765.796 83.678 766.038 83.4363C766.28 83.1947 766.466 82.9036 766.585 82.583L769.746 74.038V74.038ZM648.501 124.426C649.265 122.362 652.184 122.362 652.948 124.426L656.11 132.97C656.229 133.291 656.415 133.582 656.657 133.824C656.899 134.066 657.19 134.252 657.511 134.371L666.054 137.532C668.119 138.296 668.119 141.216 666.054 141.979L657.511 145.141C657.19 145.26 656.899 145.446 656.657 145.688C656.415 145.93 656.229 146.221 656.11 146.542L652.948 155.086C652.184 157.15 649.265 157.15 648.501 155.086L645.339 146.542C645.221 146.221 645.034 145.93 644.793 145.688C644.551 145.446 644.26 145.26 643.939 145.141L635.395 141.979C633.331 141.216 633.331 138.296 635.395 137.532L643.939 134.371C644.26 134.252 644.551 134.066 644.793 133.824C645.034 133.582 645.221 133.291 645.339 132.97L648.501 124.426V124.426ZM231.252 435.333C232.016 433.269 234.936 433.269 235.699 435.333L238.861 443.877C238.98 444.198 239.166 444.489 239.408 444.731C239.65 444.973 239.941 445.159 240.262 445.278L248.805 448.44C250.87 449.203 250.87 452.123 248.805 452.887L240.262 456.048C239.941 456.167 239.65 456.353 239.408 456.595C239.166 456.837 238.98 457.128 238.861 457.449L235.699 465.993C234.936 468.057 232.016 468.057 231.252 465.993L228.091 457.449C227.972 457.128 227.786 456.837 227.544 456.595C227.302 456.353 227.011 456.167 226.69 456.048L218.146 452.887C216.082 452.123 216.082 449.203 218.146 448.44L226.69 445.278C227.011 445.159 227.302 444.972 227.544 444.731C227.786 444.489 227.972 444.198 228.091 443.877L231.252 435.333ZM711.485 302.358C712.249 300.294 715.169 300.294 715.933 302.358L719.094 310.902C719.213 311.223 719.4 311.514 719.641 311.755C719.883 311.997 720.174 312.183 720.495 312.302L729.039 315.464C731.103 316.228 731.103 319.147 729.039 319.911L720.495 323.073C720.174 323.191 719.883 323.378 719.641 323.62C719.4 323.861 719.213 324.152 719.094 324.473L715.933 333.017C715.169 335.081 712.249 335.081 711.485 333.017L708.324 324.473C708.205 324.152 708.019 323.861 707.777 323.62C707.535 323.378 707.244 323.191 706.923 323.073L698.379 319.911C696.315 319.147 696.315 316.228 698.379 315.464L706.923 312.302C707.244 312.183 707.535 311.997 707.777 311.755C708.019 311.514 708.205 311.223 708.324 310.902L711.485 302.358ZM599.688 418.879C600.452 416.815 603.371 416.815 604.135 418.879L607.296 427.423C607.415 427.744 607.602 428.035 607.843 428.277C608.085 428.518 608.376 428.705 608.697 428.824L617.241 431.985C619.305 432.749 619.305 435.669 617.241 436.433L608.697 439.594C608.048 439.834 607.537 440.346 607.296 440.995L604.135 449.539C603.371 451.603 600.452 451.603 599.688 449.539L596.526 440.995C596.408 440.674 596.221 440.383 595.979 440.141C595.737 439.899 595.446 439.713 595.125 439.594L586.582 436.433C584.517 435.669 584.517 432.749 586.582 431.985L595.125 428.824C595.446 428.705 595.737 428.519 595.979 428.277C596.221 428.035 596.408 427.744 596.526 427.423L599.688 418.879ZM461.122 464.543C461.886 462.479 464.805 462.479 465.569 464.543L468.731 473.087C468.85 473.408 469.036 473.699 469.278 473.941C469.52 474.183 469.811 474.369 470.132 474.488L478.675 477.649C480.74 478.413 480.74 481.333 478.675 482.096L470.132 485.258C469.811 485.377 469.52 485.563 469.278 485.805C469.036 486.047 468.85 486.338 468.731 486.659L465.569 495.203C464.805 497.267 461.886 497.267 461.122 495.203L457.96 486.659C457.842 486.338 457.655 486.047 457.414 485.805C457.172 485.563 456.881 485.377 456.56 485.258L448.016 482.096C445.952 481.333 445.952 478.413 448.016 477.649L456.56 474.488C456.881 474.369 457.172 474.183 457.414 473.941C457.655 473.699 457.842 473.408 457.96 473.087L461.122 464.543ZM645.352 497.61C646.115 495.546 649.035 495.546 649.799 497.61L652.96 506.154C653.2 506.803 653.712 507.314 654.361 507.555L662.905 510.716C664.969 511.48 664.969 514.399 662.905 515.163L654.361 518.325C654.04 518.444 653.749 518.63 653.507 518.872C653.265 519.114 653.079 519.405 652.96 519.726L649.799 528.269C649.035 530.334 646.115 530.334 645.352 528.269L642.19 519.726C642.072 519.405 641.885 519.114 641.643 518.872C641.401 518.63 641.11 518.444 640.789 518.325L632.245 515.163C630.181 514.399 630.181 511.48 632.245 510.716L640.789 507.555C641.11 507.436 641.401 507.25 641.643 507.008C641.885 506.766 642.071 506.475 642.19 506.154L645.352 497.61ZM711.485 409.431C712.249 407.367 715.169 407.367 715.933 409.431L719.094 417.975C719.213 418.296 719.399 418.587 719.641 418.829C719.883 419.071 720.174 419.257 720.495 419.376L729.039 422.538C731.103 423.301 731.103 426.221 729.039 426.985L720.495 430.146C720.174 430.265 719.883 430.451 719.641 430.693C719.399 430.935 719.213 431.226 719.094 431.547L715.933 440.091C715.169 442.155 712.249 442.155 711.485 440.091L708.324 431.547C708.206 431.226 708.019 430.935 707.777 430.693C707.535 430.451 707.244 430.265 706.923 430.146L698.379 426.985C696.315 426.221 696.315 423.301 698.379 422.538L706.923 419.376C707.244 419.257 707.535 419.071 707.777 418.829C708.019 418.587 708.206 418.296 708.324 417.975L711.485 409.431ZM270.35 302.638C271.114 300.574 274.033 300.574 274.797 302.638L277.959 311.182C278.078 311.503 278.265 311.794 278.506 312.035C278.748 312.277 279.039 312.463 279.36 312.582L287.903 315.744C289.968 316.508 289.968 319.427 287.903 320.191L279.36 323.353C279.039 323.471 278.748 323.658 278.506 323.9C278.265 324.141 278.078 324.432 277.959 324.753L274.797 333.297C274.033 335.361 271.114 335.361 270.35 333.297L267.188 324.753C267.07 324.432 266.883 324.141 266.641 323.9C266.4 323.658 266.109 323.471 265.788 323.353L257.244 320.191C255.18 319.427 255.18 316.508 257.244 315.744L265.788 312.582C266.109 312.463 266.4 312.277 266.641 312.035C266.883 311.794 267.07 311.503 267.188 311.182L270.35 302.638ZM185.564 270.865C186.328 268.801 189.247 268.801 190.011 270.865L193.173 279.409C193.292 279.73 193.478 280.021 193.72 280.263C193.962 280.505 194.253 280.691 194.574 280.81L203.117 283.971C205.182 284.735 205.182 287.655 203.117 288.419L194.574 291.58C194.253 291.699 193.962 291.885 193.72 292.127C193.478 292.369 193.292 292.66 193.173 292.981L190.011 301.525C189.247 303.589 186.328 303.589 185.564 301.525L182.402 292.981C182.284 292.66 182.097 292.369 181.856 292.127C181.614 291.885 181.323 291.699 181.002 291.58L172.458 288.419C170.394 287.655 170.394 284.735 172.458 283.971L181.002 280.81C181.323 280.691 181.614 280.505 181.856 280.263C182.097 280.021 182.284 279.73 182.402 279.409L185.564 270.865Z" stroke="#E1E4E5" stroke-width="4.219"/>
<path d="M311.577 363.906C312.024 362.698 313.732 362.698 314.179 363.906L316.03 368.906C316.17 369.286 316.47 369.586 316.849 369.726L321.85 371.577C323.058 372.024 323.058 373.732 321.85 374.179L316.849 376.03C316.47 376.17 316.17 376.47 316.03 376.849L314.179 381.85C313.732 383.058 312.024 383.058 311.577 381.85L309.726 376.849C309.657 376.661 309.547 376.491 309.406 376.35C309.264 376.208 309.094 376.099 308.906 376.03L303.906 374.179C302.698 373.732 302.698 372.024 303.906 371.577L308.906 369.726C309.286 369.586 309.586 369.286 309.726 368.906L311.577 363.906Z" stroke="#E1E4E5" stroke-width="2.469"/>
<path fill-rule="evenodd" clip-rule="evenodd" d="M49.4239 550.643H432.928C468.928 550.643 467.276 520.757 455.517 510.343C443.465 499.67 419.651 503.999 419.651 503.999C419.651 503.999 412.561 483.897 389.225 474.11C368.583 465.453 346.958 469.572 346.958 469.572C346.958 469.572 346.958 455.776 333.741 444.35C320.523 432.923 302.901 434.035 302.901 434.035C302.901 434.035 290.786 357.959 209.832 357.959C128.878 357.959 119.517 429.591 119.517 429.591C119.517 429.591 101.343 429.591 88.1249 441.808C74.9089 454.025 73.2569 467.905 73.2569 467.905C73.2569 467.905 29.0549 461.9 15.9819 500.347C8.19191 523.261 24.1979 550.643 49.4239 550.643V550.643Z" fill="url(#paint4_linear_328_5490)"/>
<path fill-rule="evenodd" clip-rule="evenodd" d="M516.202 246.049C520.459 249.182 523.295 253.024 522.734 258.604C522.502 260.91 521.223 263.506 519.604 264.852C519.462 264.337 519.26 263.924 519.247 263.506C519.154 260.423 518.456 257.507 516.781 254.896C514.073 250.675 510.11 248.332 505.23 247.516C500.025 246.648 495.185 247.714 490.813 250.65C488.554 252.166 486.704 254.133 485.26 256.467C485.014 256.865 484.593 257.155 484.254 257.494C484.12 257.43 483.986 257.366 483.853 257.302C484.176 255.943 484.424 254.559 484.839 253.228C485.746 250.32 487.247 247.748 489.254 245.431C491.802 242.487 494.806 240.18 498.394 238.72C505.514 235.822 512.333 236.606 518.695 240.844C522.515 243.387 525.52 246.716 527.276 251.03C529.627 256.81 529.917 262.653 527.448 268.458C526.364 271.01 524.79 273.278 522.44 274.9C521.934 275.249 521.488 275.684 520.99 276.045C520.868 276.134 520.647 276.087 520.242 276.122C526.508 269.962 527.917 262.904 525.17 254.959C523.636 250.524 519.709 247.045 516.202 246.049Z" fill="#0BA1F4"/>
<path fill-rule="evenodd" clip-rule="evenodd" d="M513.666 259.437C512.372 258.758 511.252 258.112 510.083 257.567C506.571 255.93 502.204 256.966 499.922 260.522C497.429 264.41 497.347 268.41 499.195 272.529C501.724 278.164 506.235 280.59 512.255 280.378C514.804 280.289 517.215 279.54 519.424 278.214C519.916 277.918 520.441 277.676 521.094 277.511C520.915 277.725 520.771 277.985 520.553 278.145C517.543 280.338 514.268 282.122 510.591 282.658C505.664 283.376 500.713 283.359 496.072 281.046C493.335 279.682 490.916 277.927 489.12 275.396C487.645 273.317 486.611 271.053 486.02 268.569C485.208 265.15 486.161 262.126 488.13 259.401C490.77 255.747 494.383 253.494 498.827 252.725C502.635 252.066 506.079 252.947 509.358 255.107C511.011 256.196 512.268 257.503 513.425 259.01C513.493 259.096 513.535 259.202 513.666 259.437Z" fill="black"/>
<defs>
<linearGradient id="paint0_linear_328_5490" x1="506.373" y1="658.673" x2="503.823" y2="148.295" gradientUnits="userSpaceOnUse">
<stop stop-color="white"/>
<stop offset="1" stop-color="#EEEEEE"/>
</linearGradient>
<linearGradient id="paint1_linear_328_5490" x1="671.058" y1="658.673" x2="668.508" y2="148.295" gradientUnits="userSpaceOnUse">
<stop stop-color="white"/>
<stop offset="1" stop-color="#EEEEEE"/>
</linearGradient>
<linearGradient id="paint2_linear_328_5490" x1="635.351" y1="375.469" x2="534.333" y2="-78.4621" gradientUnits="userSpaceOnUse">
<stop stop-color="white"/>
<stop offset="1" stop-color="#EEEEEE"/>
</linearGradient>
<linearGradient id="paint3_linear_328_5490" x1="719.805" y1="326.281" x2="906.576" y2="178.545" gradientUnits="userSpaceOnUse">
<stop stop-color="white"/>
<stop offset="1" stop-color="#EEEEEE"/>
</linearGradient>
<linearGradient id="paint4_linear_328_5490" x1="248.091" y1="658.673" x2="245.541" y2="148.295" gradientUnits="userSpaceOnUse">
<stop stop-color="white"/>
<stop offset="1" stop-color="#EEEEEE"/>
</linearGradient>
</defs>
</svg>
