<svg width="399" height="337" viewBox="0 0 399 337" fill="none" xmlns="http://www.w3.org/2000/svg">
<circle cx="194.5" cy="115.5" r="115.5" fill="#E84A4B" fill-opacity="0.8"/>
<circle cx="115.5" cy="221.5" r="115.5" fill="#FFD700" fill-opacity="0.8"/>
<path d="M399 221.5C399 285.289 347.289 337 283.5 337C219.711 337 168 285.289 168 221.5C168 157.711 219.711 106 283.5 106C347.289 106 399 157.711 399 221.5Z" fill="#5BC3EE" fill-opacity="0.8"/>
<path d="M33.6875 246.52H26.3828L26.3438 242.496H32.4766C33.5573 242.496 34.4427 242.359 35.1328 242.086C35.8229 241.799 36.3372 241.389 36.6758 240.855C37.0273 240.309 37.2031 239.645 37.2031 238.863C37.2031 237.978 37.0339 237.262 36.6953 236.715C36.3698 236.168 35.8555 235.771 35.1523 235.523C34.4622 235.276 33.5703 235.152 32.4766 235.152H28.4141V259H22.5547V230.562H32.4766C34.1302 230.562 35.6081 230.719 36.9102 231.031C38.2253 231.344 39.3385 231.819 40.25 232.457C41.1615 233.095 41.8581 233.902 42.3398 234.879C42.8216 235.842 43.0625 236.988 43.0625 238.316C43.0625 239.488 42.7956 240.569 42.2617 241.559C41.7409 242.548 40.9141 243.355 39.7812 243.98C38.6615 244.605 37.1966 244.951 35.3867 245.016L33.6875 246.52ZM33.4336 259H24.7812L27.0664 254.43H33.4336C34.4622 254.43 35.3021 254.267 35.9531 253.941C36.6042 253.603 37.0859 253.147 37.3984 252.574C37.7109 252.001 37.8672 251.344 37.8672 250.602C37.8672 249.768 37.724 249.046 37.4375 248.434C37.1641 247.822 36.7214 247.353 36.1094 247.027C35.4974 246.689 34.6901 246.52 33.6875 246.52H28.043L28.082 242.496H35.1133L36.4609 244.078C38.1927 244.052 39.5859 244.358 40.6406 244.996C41.7083 245.621 42.4831 246.435 42.9648 247.438C43.4596 248.44 43.707 249.514 43.707 250.66C43.707 252.483 43.3099 254.02 42.5156 255.27C41.7214 256.507 40.556 257.438 39.0195 258.062C37.4961 258.688 35.6341 259 33.4336 259ZM59.1562 254.234V244.82C59.1562 244.143 59.0456 243.564 58.8242 243.082C58.6029 242.587 58.2578 242.203 57.7891 241.93C57.3333 241.656 56.7409 241.52 56.0117 241.52C55.3867 241.52 54.8464 241.63 54.3906 241.852C53.9349 242.06 53.5833 242.366 53.3359 242.77C53.0885 243.16 52.9648 243.622 52.9648 244.156H47.3398C47.3398 243.258 47.5482 242.405 47.9648 241.598C48.3815 240.79 48.987 240.081 49.7812 239.469C50.5755 238.844 51.5195 238.355 52.6133 238.004C53.7201 237.652 54.957 237.477 56.3242 237.477C57.9648 237.477 59.4232 237.75 60.6992 238.297C61.9753 238.844 62.9779 239.664 63.707 240.758C64.4492 241.852 64.8203 243.219 64.8203 244.859V253.902C64.8203 255.061 64.8919 256.012 65.0352 256.754C65.1784 257.483 65.3867 258.121 65.6602 258.668V259H59.9766C59.7031 258.427 59.4948 257.711 59.3516 256.852C59.2214 255.979 59.1562 255.107 59.1562 254.234ZM59.8984 246.129L59.9375 249.312H56.793C56.0508 249.312 55.4062 249.397 54.8594 249.566C54.3125 249.736 53.8633 249.977 53.5117 250.289C53.1602 250.589 52.8997 250.94 52.7305 251.344C52.5742 251.747 52.4961 252.19 52.4961 252.672C52.4961 253.154 52.6068 253.59 52.8281 253.98C53.0495 254.358 53.3685 254.658 53.7852 254.879C54.2018 255.087 54.6901 255.191 55.25 255.191C56.0964 255.191 56.832 255.022 57.457 254.684C58.082 254.345 58.5638 253.928 58.9023 253.434C59.2539 252.939 59.4362 252.47 59.4492 252.027L60.9336 254.41C60.7253 254.944 60.4388 255.497 60.0742 256.07C59.7227 256.643 59.2734 257.184 58.7266 257.691C58.1797 258.186 57.5221 258.596 56.7539 258.922C55.9857 259.234 55.0742 259.391 54.0195 259.391C52.6784 259.391 51.4609 259.124 50.3672 258.59C49.2865 258.043 48.4271 257.294 47.7891 256.344C47.1641 255.38 46.8516 254.286 46.8516 253.062C46.8516 251.956 47.0599 250.973 47.4766 250.113C47.8932 249.254 48.5052 248.531 49.3125 247.945C50.1328 247.346 51.1549 246.897 52.3789 246.598C53.6029 246.285 55.0221 246.129 56.6367 246.129H59.8984ZM74.7812 242.477V259H69.1562V237.867H74.4492L74.7812 242.477ZM81.1484 237.73L81.0508 242.945C80.7773 242.906 80.4453 242.874 80.0547 242.848C79.6771 242.809 79.332 242.789 79.0195 242.789C78.2253 242.789 77.5352 242.893 76.9492 243.102C76.3763 243.297 75.8945 243.59 75.5039 243.98C75.1263 244.371 74.8398 244.846 74.6445 245.406C74.4622 245.966 74.3581 246.604 74.332 247.32L73.1992 246.969C73.1992 245.602 73.3359 244.345 73.6094 243.199C73.8828 242.04 74.2799 241.031 74.8008 240.172C75.3346 239.312 75.9857 238.648 76.7539 238.18C77.5221 237.711 78.401 237.477 79.3906 237.477C79.7031 237.477 80.0221 237.503 80.3477 237.555C80.6732 237.594 80.9401 237.652 81.1484 237.73ZM94.5469 254.234V244.82C94.5469 244.143 94.4362 243.564 94.2148 243.082C93.9935 242.587 93.6484 242.203 93.1797 241.93C92.724 241.656 92.1315 241.52 91.4023 241.52C90.7773 241.52 90.237 241.63 89.7812 241.852C89.3255 242.06 88.974 242.366 88.7266 242.77C88.4792 243.16 88.3555 243.622 88.3555 244.156H82.7305C82.7305 243.258 82.9388 242.405 83.3555 241.598C83.7721 240.79 84.3776 240.081 85.1719 239.469C85.9661 238.844 86.9102 238.355 88.0039 238.004C89.1107 237.652 90.3477 237.477 91.7148 237.477C93.3555 237.477 94.8138 237.75 96.0898 238.297C97.3659 238.844 98.3685 239.664 99.0977 240.758C99.8398 241.852 100.211 243.219 100.211 244.859V253.902C100.211 255.061 100.283 256.012 100.426 256.754C100.569 257.483 100.777 258.121 101.051 258.668V259H95.3672C95.0938 258.427 94.8854 257.711 94.7422 256.852C94.612 255.979 94.5469 255.107 94.5469 254.234ZM95.2891 246.129L95.3281 249.312H92.1836C91.4414 249.312 90.7969 249.397 90.25 249.566C89.7031 249.736 89.2539 249.977 88.9023 250.289C88.5508 250.589 88.2904 250.94 88.1211 251.344C87.9648 251.747 87.8867 252.19 87.8867 252.672C87.8867 253.154 87.9974 253.59 88.2188 253.98C88.4401 254.358 88.7591 254.658 89.1758 254.879C89.5924 255.087 90.0807 255.191 90.6406 255.191C91.487 255.191 92.2227 255.022 92.8477 254.684C93.4727 254.345 93.9544 253.928 94.293 253.434C94.6445 252.939 94.8268 252.47 94.8398 252.027L96.3242 254.41C96.1159 254.944 95.8294 255.497 95.4648 256.07C95.1133 256.643 94.6641 257.184 94.1172 257.691C93.5703 258.186 92.9128 258.596 92.1445 258.922C91.3763 259.234 90.4648 259.391 89.4102 259.391C88.069 259.391 86.8516 259.124 85.7578 258.59C84.6771 258.043 83.8177 257.294 83.1797 256.344C82.5547 255.38 82.2422 254.286 82.2422 253.062C82.2422 251.956 82.4505 250.973 82.8672 250.113C83.2839 249.254 83.8958 248.531 84.7031 247.945C85.5234 247.346 86.5456 246.897 87.7695 246.598C88.9935 246.285 90.4128 246.129 92.0273 246.129H95.2891ZM114.898 237.867V241.852H102.594V237.867H114.898ZM105.641 232.652H111.266V252.633C111.266 253.245 111.344 253.714 111.5 254.039C111.669 254.365 111.917 254.592 112.242 254.723C112.568 254.84 112.978 254.898 113.473 254.898C113.824 254.898 114.137 254.885 114.41 254.859C114.697 254.82 114.938 254.781 115.133 254.742L115.152 258.883C114.671 259.039 114.15 259.163 113.59 259.254C113.03 259.345 112.411 259.391 111.734 259.391C110.497 259.391 109.417 259.189 108.492 258.785C107.581 258.368 106.878 257.704 106.383 256.793C105.888 255.882 105.641 254.684 105.641 253.199V232.652ZM116.695 248.648V248.238C116.695 246.689 116.917 245.263 117.359 243.961C117.802 242.646 118.447 241.507 119.293 240.543C120.139 239.579 121.181 238.831 122.418 238.297C123.655 237.75 125.074 237.477 126.676 237.477C128.277 237.477 129.703 237.75 130.953 238.297C132.203 238.831 133.251 239.579 134.098 240.543C134.957 241.507 135.608 242.646 136.051 243.961C136.493 245.263 136.715 246.689 136.715 248.238V248.648C136.715 250.185 136.493 251.611 136.051 252.926C135.608 254.228 134.957 255.367 134.098 256.344C133.251 257.307 132.21 258.056 130.973 258.59C129.736 259.124 128.316 259.391 126.715 259.391C125.113 259.391 123.688 259.124 122.438 258.59C121.201 258.056 120.152 257.307 119.293 256.344C118.447 255.367 117.802 254.228 117.359 252.926C116.917 251.611 116.695 250.185 116.695 248.648ZM122.32 248.238V248.648C122.32 249.534 122.398 250.361 122.555 251.129C122.711 251.897 122.958 252.574 123.297 253.16C123.648 253.733 124.104 254.182 124.664 254.508C125.224 254.833 125.908 254.996 126.715 254.996C127.496 254.996 128.167 254.833 128.727 254.508C129.286 254.182 129.736 253.733 130.074 253.16C130.413 252.574 130.66 251.897 130.816 251.129C130.986 250.361 131.07 249.534 131.07 248.648V248.238C131.07 247.379 130.986 246.572 130.816 245.816C130.66 245.048 130.406 244.371 130.055 243.785C129.716 243.186 129.267 242.717 128.707 242.379C128.147 242.04 127.47 241.871 126.676 241.871C125.882 241.871 125.204 242.04 124.645 242.379C124.098 242.717 123.648 243.186 123.297 243.785C122.958 244.371 122.711 245.048 122.555 245.816C122.398 246.572 122.32 247.379 122.32 248.238Z" fill="white"/>
<path d="M248.922 230.562H259.527C261.702 230.562 263.57 230.888 265.133 231.539C266.708 232.19 267.919 233.154 268.766 234.43C269.612 235.706 270.035 237.275 270.035 239.137C270.035 240.66 269.775 241.969 269.254 243.062C268.746 244.143 268.023 245.048 267.086 245.777C266.161 246.493 265.074 247.066 263.824 247.496L261.969 248.473H252.75L252.711 243.902H259.566C260.595 243.902 261.448 243.72 262.125 243.355C262.802 242.991 263.31 242.483 263.648 241.832C264 241.181 264.176 240.426 264.176 239.566C264.176 238.655 264.007 237.867 263.668 237.203C263.329 236.539 262.815 236.031 262.125 235.68C261.435 235.328 260.569 235.152 259.527 235.152H254.781V259H248.922V230.562ZM264.82 259L258.336 246.324L264.527 246.285L271.09 258.727V259H264.82ZM285.602 254.234V244.82C285.602 244.143 285.491 243.564 285.27 243.082C285.048 242.587 284.703 242.203 284.234 241.93C283.779 241.656 283.186 241.52 282.457 241.52C281.832 241.52 281.292 241.63 280.836 241.852C280.38 242.06 280.029 242.366 279.781 242.77C279.534 243.16 279.41 243.622 279.41 244.156H273.785C273.785 243.258 273.993 242.405 274.41 241.598C274.827 240.79 275.432 240.081 276.227 239.469C277.021 238.844 277.965 238.355 279.059 238.004C280.165 237.652 281.402 237.477 282.77 237.477C284.41 237.477 285.868 237.75 287.145 238.297C288.421 238.844 289.423 239.664 290.152 240.758C290.895 241.852 291.266 243.219 291.266 244.859V253.902C291.266 255.061 291.337 256.012 291.48 256.754C291.624 257.483 291.832 258.121 292.105 258.668V259H286.422C286.148 258.427 285.94 257.711 285.797 256.852C285.667 255.979 285.602 255.107 285.602 254.234ZM286.344 246.129L286.383 249.312H283.238C282.496 249.312 281.852 249.397 281.305 249.566C280.758 249.736 280.309 249.977 279.957 250.289C279.605 250.589 279.345 250.94 279.176 251.344C279.02 251.747 278.941 252.19 278.941 252.672C278.941 253.154 279.052 253.59 279.273 253.98C279.495 254.358 279.814 254.658 280.23 254.879C280.647 255.087 281.135 255.191 281.695 255.191C282.542 255.191 283.277 255.022 283.902 254.684C284.527 254.345 285.009 253.928 285.348 253.434C285.699 252.939 285.882 252.47 285.895 252.027L287.379 254.41C287.171 254.944 286.884 255.497 286.52 256.07C286.168 256.643 285.719 257.184 285.172 257.691C284.625 258.186 283.967 258.596 283.199 258.922C282.431 259.234 281.52 259.391 280.465 259.391C279.124 259.391 277.906 259.124 276.812 258.59C275.732 258.043 274.872 257.294 274.234 256.344C273.609 255.38 273.297 254.286 273.297 253.062C273.297 251.956 273.505 250.973 273.922 250.113C274.339 249.254 274.951 248.531 275.758 247.945C276.578 247.346 277.6 246.897 278.824 246.598C280.048 246.285 281.467 246.129 283.082 246.129H286.344ZM280.074 235.016L283.902 229H290.016L284.645 235.016H280.074ZM301.227 241.93V267.125H295.602V237.867H300.816L301.227 241.93ZM314.605 248.199V248.609C314.605 250.146 314.423 251.572 314.059 252.887C313.707 254.202 313.186 255.348 312.496 256.324C311.806 257.288 310.947 258.043 309.918 258.59C308.902 259.124 307.73 259.391 306.402 259.391C305.113 259.391 303.993 259.13 303.043 258.609C302.092 258.089 301.292 257.359 300.641 256.422C300.003 255.471 299.488 254.371 299.098 253.121C298.707 251.871 298.408 250.53 298.199 249.098V248.023C298.408 246.487 298.707 245.081 299.098 243.805C299.488 242.516 300.003 241.402 300.641 240.465C301.292 239.514 302.086 238.779 303.023 238.258C303.974 237.737 305.087 237.477 306.363 237.477C307.704 237.477 308.883 237.73 309.898 238.238C310.927 238.746 311.786 239.475 312.477 240.426C313.18 241.376 313.707 242.509 314.059 243.824C314.423 245.139 314.605 246.598 314.605 248.199ZM308.961 248.609V248.199C308.961 247.301 308.883 246.474 308.727 245.719C308.583 244.951 308.349 244.28 308.023 243.707C307.711 243.134 307.294 242.691 306.773 242.379C306.266 242.053 305.647 241.891 304.918 241.891C304.15 241.891 303.492 242.014 302.945 242.262C302.411 242.509 301.975 242.867 301.637 243.336C301.298 243.805 301.044 244.365 300.875 245.016C300.706 245.667 300.602 246.402 300.562 247.223V249.938C300.628 250.901 300.81 251.767 301.109 252.535C301.409 253.29 301.871 253.889 302.496 254.332C303.121 254.775 303.941 254.996 304.957 254.996C305.699 254.996 306.324 254.833 306.832 254.508C307.34 254.169 307.75 253.707 308.062 253.121C308.388 252.535 308.616 251.858 308.746 251.09C308.889 250.322 308.961 249.495 308.961 248.609ZM324.039 237.867V259H318.395V237.867H324.039ZM318.043 232.359C318.043 231.539 318.329 230.862 318.902 230.328C319.475 229.794 320.243 229.527 321.207 229.527C322.158 229.527 322.919 229.794 323.492 230.328C324.078 230.862 324.371 231.539 324.371 232.359C324.371 233.18 324.078 233.857 323.492 234.391C322.919 234.924 322.158 235.191 321.207 235.191C320.243 235.191 319.475 234.924 318.902 234.391C318.329 233.857 318.043 233.18 318.043 232.359ZM341.168 254.391V229H346.832V259H341.734L341.168 254.391ZM327.809 248.688V248.277C327.809 246.663 327.991 245.198 328.355 243.883C328.72 242.555 329.254 241.415 329.957 240.465C330.66 239.514 331.526 238.779 332.555 238.258C333.583 237.737 334.755 237.477 336.07 237.477C337.307 237.477 338.388 237.737 339.312 238.258C340.25 238.779 341.044 239.521 341.695 240.484C342.359 241.435 342.893 242.561 343.297 243.863C343.701 245.152 343.993 246.565 344.176 248.102V249C343.993 250.471 343.701 251.839 343.297 253.102C342.893 254.365 342.359 255.471 341.695 256.422C341.044 257.359 340.25 258.089 339.312 258.609C338.375 259.13 337.281 259.391 336.031 259.391C334.716 259.391 333.544 259.124 332.516 258.59C331.5 258.056 330.641 257.307 329.938 256.344C329.247 255.38 328.72 254.247 328.355 252.945C327.991 251.643 327.809 250.224 327.809 248.688ZM333.434 248.277V248.688C333.434 249.56 333.499 250.374 333.629 251.129C333.772 251.884 334 252.555 334.312 253.141C334.638 253.714 335.055 254.163 335.562 254.488C336.083 254.801 336.715 254.957 337.457 254.957C338.421 254.957 339.215 254.742 339.84 254.312C340.465 253.87 340.94 253.264 341.266 252.496C341.604 251.728 341.799 250.842 341.852 249.84V247.281C341.812 246.461 341.695 245.725 341.5 245.074C341.318 244.41 341.044 243.844 340.68 243.375C340.328 242.906 339.885 242.542 339.352 242.281C338.831 242.021 338.212 241.891 337.496 241.891C336.767 241.891 336.142 242.06 335.621 242.398C335.1 242.724 334.677 243.173 334.352 243.746C334.039 244.319 333.805 244.996 333.648 245.777C333.505 246.546 333.434 247.379 333.434 248.277ZM350.328 248.648V248.238C350.328 246.689 350.549 245.263 350.992 243.961C351.435 242.646 352.079 241.507 352.926 240.543C353.772 239.579 354.814 238.831 356.051 238.297C357.288 237.75 358.707 237.477 360.309 237.477C361.91 237.477 363.336 237.75 364.586 238.297C365.836 238.831 366.884 239.579 367.73 240.543C368.59 241.507 369.241 242.646 369.684 243.961C370.126 245.263 370.348 246.689 370.348 248.238V248.648C370.348 250.185 370.126 251.611 369.684 252.926C369.241 254.228 368.59 255.367 367.73 256.344C366.884 257.307 365.842 258.056 364.605 258.59C363.368 259.124 361.949 259.391 360.348 259.391C358.746 259.391 357.32 259.124 356.07 258.59C354.833 258.056 353.785 257.307 352.926 256.344C352.079 255.367 351.435 254.228 350.992 252.926C350.549 251.611 350.328 250.185 350.328 248.648ZM355.953 248.238V248.648C355.953 249.534 356.031 250.361 356.188 251.129C356.344 251.897 356.591 252.574 356.93 253.16C357.281 253.733 357.737 254.182 358.297 254.508C358.857 254.833 359.54 254.996 360.348 254.996C361.129 254.996 361.799 254.833 362.359 254.508C362.919 254.182 363.368 253.733 363.707 253.16C364.046 252.574 364.293 251.897 364.449 251.129C364.618 250.361 364.703 249.534 364.703 248.648V248.238C364.703 247.379 364.618 246.572 364.449 245.816C364.293 245.048 364.039 244.371 363.688 243.785C363.349 243.186 362.9 242.717 362.34 242.379C361.78 242.04 361.103 241.871 360.309 241.871C359.514 241.871 358.837 242.04 358.277 242.379C357.73 242.717 357.281 243.186 356.93 243.785C356.591 244.371 356.344 245.048 356.188 245.816C356.031 246.572 355.953 247.379 355.953 248.238Z" fill="white"/>
<path d="M171.148 83.8672V83.6875C171.148 83.0781 171.237 82.513 171.414 81.9922C171.591 81.4661 171.846 81.0104 172.18 80.625C172.513 80.2344 172.917 79.9323 173.391 79.7188C173.865 79.5 174.396 79.3906 174.984 79.3906C175.578 79.3906 176.112 79.5 176.586 79.7188C177.065 79.9323 177.471 80.2344 177.805 80.625C178.143 81.0104 178.401 81.4661 178.578 81.9922C178.755 82.513 178.844 83.0781 178.844 83.6875V83.8672C178.844 84.4766 178.755 85.0417 178.578 85.5625C178.401 86.0833 178.143 86.5391 177.805 86.9297C177.471 87.3151 177.068 87.6172 176.594 87.8359C176.125 88.0495 175.594 88.1562 175 88.1562C174.406 88.1562 173.872 88.0495 173.398 87.8359C172.924 87.6172 172.518 87.3151 172.18 86.9297C171.846 86.5391 171.591 86.0833 171.414 85.5625C171.237 85.0417 171.148 84.4766 171.148 83.8672ZM172.594 83.6875V83.8672C172.594 84.2891 172.643 84.6875 172.742 85.0625C172.841 85.4323 172.99 85.7604 173.188 86.0469C173.391 86.3333 173.643 86.5599 173.945 86.7266C174.247 86.888 174.599 86.9688 175 86.9688C175.396 86.9688 175.742 86.888 176.039 86.7266C176.341 86.5599 176.591 86.3333 176.789 86.0469C176.987 85.7604 177.135 85.4323 177.234 85.0625C177.339 84.6875 177.391 84.2891 177.391 83.8672V83.6875C177.391 83.2708 177.339 82.8776 177.234 82.5078C177.135 82.1328 176.984 81.8021 176.781 81.5156C176.583 81.224 176.333 80.9948 176.031 80.8281C175.734 80.6615 175.385 80.5781 174.984 80.5781C174.589 80.5781 174.24 80.6615 173.938 80.8281C173.641 80.9948 173.391 81.224 173.188 81.5156C172.99 81.8021 172.841 82.1328 172.742 82.5078C172.643 82.8776 172.594 83.2708 172.594 83.6875ZM184.617 76H186.07V86.3594L185.945 88H184.617V76ZM191.781 83.7031V83.8672C191.781 84.4818 191.708 85.0521 191.562 85.5781C191.417 86.099 191.203 86.5521 190.922 86.9375C190.641 87.3229 190.297 87.6224 189.891 87.8359C189.484 88.0495 189.018 88.1562 188.492 88.1562C187.956 88.1562 187.484 88.0651 187.078 87.8828C186.677 87.6953 186.339 87.4271 186.062 87.0781C185.786 86.7292 185.565 86.3073 185.398 85.8125C185.237 85.3177 185.125 84.7604 185.062 84.1406V83.4219C185.125 82.7969 185.237 82.237 185.398 81.7422C185.565 81.2474 185.786 80.8255 186.062 80.4766C186.339 80.1224 186.677 79.8542 187.078 79.6719C187.479 79.4844 187.945 79.3906 188.477 79.3906C189.008 79.3906 189.479 79.4948 189.891 79.7031C190.302 79.9062 190.646 80.1979 190.922 80.5781C191.203 80.9583 191.417 81.4141 191.562 81.9453C191.708 82.4714 191.781 83.0573 191.781 83.7031ZM190.328 83.8672V83.7031C190.328 83.2812 190.289 82.8854 190.211 82.5156C190.133 82.1406 190.008 81.8125 189.836 81.5312C189.664 81.2448 189.438 81.0208 189.156 80.8594C188.875 80.6927 188.529 80.6094 188.117 80.6094C187.753 80.6094 187.435 80.6719 187.164 80.7969C186.898 80.9219 186.672 81.0911 186.484 81.3047C186.297 81.513 186.143 81.7526 186.023 82.0234C185.909 82.2891 185.823 82.5651 185.766 82.8516V84.7344C185.849 85.099 185.984 85.4505 186.172 85.7891C186.365 86.1224 186.62 86.3958 186.938 86.6094C187.26 86.8229 187.659 86.9297 188.133 86.9297C188.523 86.9297 188.857 86.8516 189.133 86.6953C189.414 86.5339 189.641 86.3125 189.812 86.0312C189.99 85.75 190.12 85.4245 190.203 85.0547C190.286 84.6849 190.328 84.2891 190.328 83.8672ZM193.227 83.8672V83.6875C193.227 83.0781 193.315 82.513 193.492 81.9922C193.669 81.4661 193.924 81.0104 194.258 80.625C194.591 80.2344 194.995 79.9323 195.469 79.7188C195.943 79.5 196.474 79.3906 197.062 79.3906C197.656 79.3906 198.19 79.5 198.664 79.7188C199.143 79.9323 199.549 80.2344 199.883 80.625C200.221 81.0104 200.479 81.4661 200.656 81.9922C200.833 82.513 200.922 83.0781 200.922 83.6875V83.8672C200.922 84.4766 200.833 85.0417 200.656 85.5625C200.479 86.0833 200.221 86.5391 199.883 86.9297C199.549 87.3151 199.146 87.6172 198.672 87.8359C198.203 88.0495 197.672 88.1562 197.078 88.1562C196.484 88.1562 195.951 88.0495 195.477 87.8359C195.003 87.6172 194.596 87.3151 194.258 86.9297C193.924 86.5391 193.669 86.0833 193.492 85.5625C193.315 85.0417 193.227 84.4766 193.227 83.8672ZM194.672 83.6875V83.8672C194.672 84.2891 194.721 84.6875 194.82 85.0625C194.919 85.4323 195.068 85.7604 195.266 86.0469C195.469 86.3333 195.721 86.5599 196.023 86.7266C196.326 86.888 196.677 86.9688 197.078 86.9688C197.474 86.9688 197.82 86.888 198.117 86.7266C198.419 86.5599 198.669 86.3333 198.867 86.0469C199.065 85.7604 199.214 85.4323 199.312 85.0625C199.417 84.6875 199.469 84.2891 199.469 83.8672V83.6875C199.469 83.2708 199.417 82.8776 199.312 82.5078C199.214 82.1328 199.062 81.8021 198.859 81.5156C198.661 81.224 198.411 80.9948 198.109 80.8281C197.812 80.6615 197.464 80.5781 197.062 80.5781C196.667 80.5781 196.318 80.6615 196.016 80.8281C195.719 80.9948 195.469 81.224 195.266 81.5156C195.068 81.8021 194.919 82.1328 194.82 82.5078C194.721 82.8776 194.672 83.2708 194.672 83.6875ZM204.18 81.3516V88H202.734V79.5469H204.102L204.18 81.3516ZM203.836 83.4531L203.234 83.4297C203.24 82.8516 203.326 82.3177 203.492 81.8281C203.659 81.3333 203.893 80.9036 204.195 80.5391C204.497 80.1745 204.857 79.8932 205.273 79.6953C205.695 79.4922 206.161 79.3906 206.672 79.3906C207.089 79.3906 207.464 79.4479 207.797 79.5625C208.13 79.6719 208.414 79.849 208.648 80.0938C208.888 80.3385 209.07 80.6562 209.195 81.0469C209.32 81.4323 209.383 81.9036 209.383 82.4609V88H207.93V82.4453C207.93 82.0026 207.865 81.6484 207.734 81.3828C207.604 81.112 207.414 80.9167 207.164 80.7969C206.914 80.6719 206.607 80.6094 206.242 80.6094C205.883 80.6094 205.555 80.6849 205.258 80.8359C204.966 80.987 204.714 81.1953 204.5 81.4609C204.292 81.7266 204.128 82.0312 204.008 82.375C203.893 82.7135 203.836 83.0729 203.836 83.4531ZM213.148 79.5469V88H211.695V79.5469H213.148ZM211.586 77.3047C211.586 77.0703 211.656 76.8724 211.797 76.7109C211.943 76.5495 212.156 76.4688 212.438 76.4688C212.714 76.4688 212.924 76.5495 213.07 76.7109C213.221 76.8724 213.297 77.0703 213.297 77.3047C213.297 77.5286 213.221 77.7214 213.07 77.8828C212.924 78.0391 212.714 78.1172 212.438 78.1172C212.156 78.1172 211.943 78.0391 211.797 77.8828C211.656 77.7214 211.586 77.5286 211.586 77.3047ZM219.008 79.5469V80.6562H214.438V79.5469H219.008ZM215.984 77.4922H217.43V85.9062C217.43 86.1927 217.474 86.4089 217.562 86.5547C217.651 86.7005 217.766 86.7969 217.906 86.8438C218.047 86.8906 218.198 86.9141 218.359 86.9141C218.479 86.9141 218.604 86.9036 218.734 86.8828C218.87 86.8568 218.971 86.8359 219.039 86.8203L219.047 88C218.932 88.0365 218.781 88.0703 218.594 88.1016C218.411 88.138 218.19 88.1562 217.93 88.1562C217.576 88.1562 217.25 88.0859 216.953 87.9453C216.656 87.8047 216.419 87.5703 216.242 87.2422C216.07 86.9089 215.984 86.4609 215.984 85.8984V77.4922ZM220.164 83.8672V83.6875C220.164 83.0781 220.253 82.513 220.43 81.9922C220.607 81.4661 220.862 81.0104 221.195 80.625C221.529 80.2344 221.932 79.9323 222.406 79.7188C222.88 79.5 223.411 79.3906 224 79.3906C224.594 79.3906 225.128 79.5 225.602 79.7188C226.081 79.9323 226.487 80.2344 226.82 80.625C227.159 81.0104 227.417 81.4661 227.594 81.9922C227.771 82.513 227.859 83.0781 227.859 83.6875V83.8672C227.859 84.4766 227.771 85.0417 227.594 85.5625C227.417 86.0833 227.159 86.5391 226.82 86.9297C226.487 87.3151 226.083 87.6172 225.609 87.8359C225.141 88.0495 224.609 88.1562 224.016 88.1562C223.422 88.1562 222.888 88.0495 222.414 87.8359C221.94 87.6172 221.534 87.3151 221.195 86.9297C220.862 86.5391 220.607 86.0833 220.43 85.5625C220.253 85.0417 220.164 84.4766 220.164 83.8672ZM221.609 83.6875V83.8672C221.609 84.2891 221.659 84.6875 221.758 85.0625C221.857 85.4323 222.005 85.7604 222.203 86.0469C222.406 86.3333 222.659 86.5599 222.961 86.7266C223.263 86.888 223.615 86.9688 224.016 86.9688C224.411 86.9688 224.758 86.888 225.055 86.7266C225.357 86.5599 225.607 86.3333 225.805 86.0469C226.003 85.7604 226.151 85.4323 226.25 85.0625C226.354 84.6875 226.406 84.2891 226.406 83.8672V83.6875C226.406 83.2708 226.354 82.8776 226.25 82.5078C226.151 82.1328 226 81.8021 225.797 81.5156C225.599 81.224 225.349 80.9948 225.047 80.8281C224.75 80.6615 224.401 80.5781 224 80.5781C223.604 80.5781 223.255 80.6615 222.953 80.8281C222.656 80.9948 222.406 81.224 222.203 81.5156C222.005 81.8021 221.857 82.1328 221.758 82.5078C221.659 82.8776 221.609 83.2708 221.609 83.6875Z" fill="#FFAFAF"/>
<path d="M123.588 161.715V164H116.43V161.715H123.588ZM117.377 149.781V164H114.447V149.781H117.377ZM129.955 164.195C129.135 164.195 128.399 164.065 127.748 163.805C127.097 163.538 126.544 163.17 126.088 162.701C125.639 162.232 125.294 161.689 125.053 161.07C124.812 160.445 124.691 159.781 124.691 159.078V158.688C124.691 157.887 124.805 157.154 125.033 156.49C125.261 155.826 125.587 155.25 126.01 154.762C126.439 154.273 126.96 153.899 127.572 153.639C128.184 153.372 128.874 153.238 129.643 153.238C130.391 153.238 131.055 153.362 131.635 153.609C132.214 153.857 132.699 154.208 133.09 154.664C133.487 155.12 133.786 155.667 133.988 156.305C134.19 156.936 134.291 157.639 134.291 158.414V159.586H125.893V157.711H131.527V157.496C131.527 157.105 131.456 156.757 131.312 156.451C131.176 156.139 130.967 155.891 130.688 155.709C130.408 155.527 130.049 155.436 129.613 155.436C129.242 155.436 128.923 155.517 128.656 155.68C128.389 155.842 128.171 156.07 128.002 156.363C127.839 156.656 127.715 157.001 127.631 157.398C127.553 157.789 127.514 158.219 127.514 158.688V159.078C127.514 159.501 127.572 159.892 127.689 160.25C127.813 160.608 127.986 160.917 128.207 161.178C128.435 161.438 128.708 161.64 129.027 161.783C129.353 161.926 129.721 161.998 130.131 161.998C130.639 161.998 131.111 161.9 131.547 161.705C131.99 161.503 132.37 161.201 132.689 160.797L134.057 162.281C133.835 162.6 133.533 162.906 133.148 163.199C132.771 163.492 132.315 163.733 131.781 163.922C131.247 164.104 130.639 164.195 129.955 164.195ZM138.646 155.689V164H135.834V153.434H138.471L138.646 155.689ZM138.236 158.346H137.475C137.475 157.564 137.576 156.861 137.777 156.236C137.979 155.605 138.262 155.068 138.627 154.625C138.992 154.176 139.424 153.834 139.926 153.6C140.434 153.359 141 153.238 141.625 153.238C142.12 153.238 142.572 153.31 142.982 153.453C143.393 153.596 143.744 153.824 144.037 154.137C144.337 154.449 144.564 154.863 144.721 155.377C144.883 155.891 144.965 156.52 144.965 157.262V164H142.133V157.252C142.133 156.783 142.068 156.419 141.938 156.158C141.807 155.898 141.615 155.715 141.361 155.611C141.114 155.501 140.808 155.445 140.443 155.445C140.066 155.445 139.737 155.52 139.457 155.67C139.184 155.82 138.956 156.028 138.773 156.295C138.598 156.555 138.464 156.861 138.373 157.213C138.282 157.564 138.236 157.942 138.236 158.346ZM152.279 153.434V155.426H146.127V153.434H152.279ZM147.65 150.826H150.463V160.816C150.463 161.122 150.502 161.357 150.58 161.52C150.665 161.682 150.788 161.796 150.951 161.861C151.114 161.92 151.319 161.949 151.566 161.949C151.742 161.949 151.898 161.943 152.035 161.93C152.178 161.91 152.299 161.891 152.396 161.871L152.406 163.941C152.165 164.02 151.905 164.081 151.625 164.127C151.345 164.173 151.036 164.195 150.697 164.195C150.079 164.195 149.538 164.094 149.076 163.893C148.62 163.684 148.269 163.352 148.021 162.896C147.774 162.441 147.65 161.842 147.65 161.1V150.826ZM153.178 158.824V158.619C153.178 157.844 153.288 157.132 153.51 156.48C153.731 155.823 154.053 155.253 154.477 154.771C154.9 154.29 155.421 153.915 156.039 153.648C156.658 153.375 157.367 153.238 158.168 153.238C158.969 153.238 159.682 153.375 160.307 153.648C160.932 153.915 161.456 154.29 161.879 154.771C162.309 155.253 162.634 155.823 162.855 156.48C163.077 157.132 163.188 157.844 163.188 158.619V158.824C163.188 159.592 163.077 160.305 162.855 160.963C162.634 161.614 162.309 162.184 161.879 162.672C161.456 163.154 160.935 163.528 160.316 163.795C159.698 164.062 158.988 164.195 158.188 164.195C157.387 164.195 156.674 164.062 156.049 163.795C155.43 163.528 154.906 163.154 154.477 162.672C154.053 162.184 153.731 161.614 153.51 160.963C153.288 160.305 153.178 159.592 153.178 158.824ZM155.99 158.619V158.824C155.99 159.267 156.029 159.68 156.107 160.064C156.186 160.449 156.309 160.787 156.479 161.08C156.654 161.367 156.882 161.591 157.162 161.754C157.442 161.917 157.784 161.998 158.188 161.998C158.578 161.998 158.913 161.917 159.193 161.754C159.473 161.591 159.698 161.367 159.867 161.08C160.036 160.787 160.16 160.449 160.238 160.064C160.323 159.68 160.365 159.267 160.365 158.824V158.619C160.365 158.189 160.323 157.786 160.238 157.408C160.16 157.024 160.033 156.686 159.857 156.393C159.688 156.093 159.464 155.859 159.184 155.689C158.904 155.52 158.565 155.436 158.168 155.436C157.771 155.436 157.432 155.52 157.152 155.689C156.879 155.859 156.654 156.093 156.479 156.393C156.309 156.686 156.186 157.024 156.107 157.408C156.029 157.786 155.99 158.189 155.99 158.619Z" fill="white" fill-opacity="0.79"/>
<path d="M246.957 159.283H249.877C249.818 160.24 249.555 161.09 249.086 161.832C248.624 162.574 247.976 163.154 247.143 163.57C246.316 163.987 245.32 164.195 244.154 164.195C243.243 164.195 242.426 164.039 241.703 163.727C240.98 163.408 240.362 162.952 239.848 162.359C239.34 161.767 238.952 161.051 238.686 160.211C238.419 159.371 238.285 158.43 238.285 157.389V156.402C238.285 155.361 238.422 154.42 238.695 153.58C238.975 152.734 239.372 152.014 239.887 151.422C240.408 150.829 241.029 150.374 241.752 150.055C242.475 149.736 243.282 149.576 244.174 149.576C245.359 149.576 246.358 149.791 247.172 150.221C247.992 150.65 248.627 151.243 249.076 151.998C249.532 152.753 249.805 153.613 249.896 154.576H246.967C246.934 154.003 246.82 153.518 246.625 153.121C246.43 152.717 246.133 152.415 245.736 152.213C245.346 152.005 244.825 151.9 244.174 151.9C243.686 151.9 243.259 151.992 242.895 152.174C242.53 152.356 242.224 152.633 241.977 153.004C241.729 153.375 241.544 153.844 241.42 154.41C241.303 154.97 241.244 155.628 241.244 156.383V157.389C241.244 158.124 241.299 158.772 241.41 159.332C241.521 159.885 241.69 160.354 241.918 160.738C242.152 161.116 242.452 161.402 242.816 161.598C243.188 161.786 243.633 161.881 244.154 161.881C244.766 161.881 245.271 161.783 245.668 161.588C246.065 161.393 246.368 161.103 246.576 160.719C246.791 160.335 246.918 159.856 246.957 159.283ZM257.328 161.617V156.91C257.328 156.572 257.273 156.282 257.162 156.041C257.051 155.794 256.879 155.602 256.645 155.465C256.417 155.328 256.12 155.26 255.756 155.26C255.443 155.26 255.173 155.315 254.945 155.426C254.717 155.53 254.542 155.683 254.418 155.885C254.294 156.08 254.232 156.311 254.232 156.578H251.42C251.42 156.129 251.524 155.702 251.732 155.299C251.941 154.895 252.243 154.54 252.641 154.234C253.038 153.922 253.51 153.678 254.057 153.502C254.61 153.326 255.229 153.238 255.912 153.238C256.732 153.238 257.462 153.375 258.1 153.648C258.738 153.922 259.239 154.332 259.604 154.879C259.975 155.426 260.16 156.109 260.16 156.93V161.451C260.16 162.031 260.196 162.506 260.268 162.877C260.339 163.242 260.443 163.561 260.58 163.834V164H257.738C257.602 163.714 257.497 163.355 257.426 162.926C257.361 162.49 257.328 162.053 257.328 161.617ZM257.699 157.564L257.719 159.156H256.146C255.775 159.156 255.453 159.199 255.18 159.283C254.906 159.368 254.682 159.488 254.506 159.645C254.33 159.794 254.2 159.97 254.115 160.172C254.037 160.374 253.998 160.595 253.998 160.836C253.998 161.077 254.053 161.295 254.164 161.49C254.275 161.679 254.434 161.829 254.643 161.939C254.851 162.044 255.095 162.096 255.375 162.096C255.798 162.096 256.166 162.011 256.479 161.842C256.791 161.673 257.032 161.464 257.201 161.217C257.377 160.969 257.468 160.735 257.475 160.514L258.217 161.705C258.113 161.972 257.969 162.249 257.787 162.535C257.611 162.822 257.387 163.092 257.113 163.346C256.84 163.593 256.511 163.798 256.127 163.961C255.743 164.117 255.287 164.195 254.76 164.195C254.089 164.195 253.48 164.062 252.934 163.795C252.393 163.521 251.964 163.147 251.645 162.672C251.332 162.19 251.176 161.643 251.176 161.031C251.176 160.478 251.28 159.986 251.488 159.557C251.697 159.127 252.003 158.766 252.406 158.473C252.816 158.173 253.327 157.949 253.939 157.799C254.551 157.643 255.261 157.564 256.068 157.564H257.699ZM265.141 155.738V164H262.328V153.434H264.975L265.141 155.738ZM268.324 153.365L268.275 155.973C268.139 155.953 267.973 155.937 267.777 155.924C267.589 155.904 267.416 155.895 267.26 155.895C266.863 155.895 266.518 155.947 266.225 156.051C265.938 156.148 265.697 156.295 265.502 156.49C265.313 156.686 265.17 156.923 265.072 157.203C264.981 157.483 264.929 157.802 264.916 158.16L264.35 157.984C264.35 157.301 264.418 156.673 264.555 156.1C264.691 155.52 264.89 155.016 265.15 154.586C265.417 154.156 265.743 153.824 266.127 153.59C266.511 153.355 266.951 153.238 267.445 153.238C267.602 153.238 267.761 153.251 267.924 153.277C268.087 153.297 268.22 153.326 268.324 153.365ZM268.91 158.824V158.619C268.91 157.844 269.021 157.132 269.242 156.48C269.464 155.823 269.786 155.253 270.209 154.771C270.632 154.29 271.153 153.915 271.771 153.648C272.39 153.375 273.1 153.238 273.9 153.238C274.701 153.238 275.414 153.375 276.039 153.648C276.664 153.915 277.188 154.29 277.611 154.771C278.041 155.253 278.367 155.823 278.588 156.48C278.809 157.132 278.92 157.844 278.92 158.619V158.824C278.92 159.592 278.809 160.305 278.588 160.963C278.367 161.614 278.041 162.184 277.611 162.672C277.188 163.154 276.667 163.528 276.049 163.795C275.43 164.062 274.721 164.195 273.92 164.195C273.119 164.195 272.406 164.062 271.781 163.795C271.163 163.528 270.639 163.154 270.209 162.672C269.786 162.184 269.464 161.614 269.242 160.963C269.021 160.305 268.91 159.592 268.91 158.824ZM271.723 158.619V158.824C271.723 159.267 271.762 159.68 271.84 160.064C271.918 160.449 272.042 160.787 272.211 161.08C272.387 161.367 272.615 161.591 272.895 161.754C273.174 161.917 273.516 161.998 273.92 161.998C274.311 161.998 274.646 161.917 274.926 161.754C275.206 161.591 275.43 161.367 275.6 161.08C275.769 160.787 275.893 160.449 275.971 160.064C276.055 159.68 276.098 159.267 276.098 158.824V158.619C276.098 158.189 276.055 157.786 275.971 157.408C275.893 157.024 275.766 156.686 275.59 156.393C275.421 156.093 275.196 155.859 274.916 155.689C274.636 155.52 274.298 155.436 273.9 155.436C273.503 155.436 273.165 155.52 272.885 155.689C272.611 155.859 272.387 156.093 272.211 156.393C272.042 156.686 271.918 157.024 271.84 157.408C271.762 157.786 271.723 158.189 271.723 158.619Z" fill="#FFFEFE" fill-opacity="0.79"/>
<path d="M155.887 56.5195H148.582L148.543 52.4961H154.676C155.757 52.4961 156.642 52.3594 157.332 52.0859C158.022 51.7995 158.536 51.3893 158.875 50.8555C159.227 50.3086 159.402 49.6445 159.402 48.8633C159.402 47.9779 159.233 47.2617 158.895 46.7148C158.569 46.168 158.055 45.7708 157.352 45.5234C156.661 45.276 155.77 45.1523 154.676 45.1523H150.613V69H144.754V40.5625H154.676C156.329 40.5625 157.807 40.7188 159.109 41.0312C160.424 41.3438 161.538 41.819 162.449 42.457C163.361 43.0951 164.057 43.9023 164.539 44.8789C165.021 45.8424 165.262 46.9883 165.262 48.3164C165.262 49.4883 164.995 50.569 164.461 51.5586C163.94 52.5482 163.113 53.3555 161.98 53.9805C160.861 54.6055 159.396 54.9505 157.586 55.0156L155.887 56.5195ZM155.633 69H146.98L149.266 64.4297H155.633C156.661 64.4297 157.501 64.2669 158.152 63.9414C158.803 63.6029 159.285 63.1471 159.598 62.5742C159.91 62.0013 160.066 61.3438 160.066 60.6016C160.066 59.7682 159.923 59.0456 159.637 58.4336C159.363 57.8216 158.921 57.3529 158.309 57.0273C157.697 56.6888 156.889 56.5195 155.887 56.5195H150.242L150.281 52.4961H157.312L158.66 54.0781C160.392 54.0521 161.785 54.3581 162.84 54.9961C163.908 55.6211 164.682 56.4349 165.164 57.4375C165.659 58.4401 165.906 59.5143 165.906 60.6602C165.906 62.4831 165.509 64.0195 164.715 65.2695C163.921 66.5065 162.755 67.4375 161.219 68.0625C159.695 68.6875 157.833 69 155.633 69ZM182.449 63.9414V47.8672H188.074V69H182.781L182.449 63.9414ZM183.074 59.6055L184.734 59.5664C184.734 60.9727 184.572 62.2812 184.246 63.4922C183.921 64.6901 183.432 65.7318 182.781 66.6172C182.13 67.4896 181.31 68.1732 180.32 68.668C179.331 69.1497 178.165 69.3906 176.824 69.3906C175.796 69.3906 174.845 69.2474 173.973 68.9609C173.113 68.6615 172.371 68.1992 171.746 67.5742C171.134 66.9362 170.652 66.1224 170.301 65.1328C169.962 64.1302 169.793 62.9258 169.793 61.5195V47.8672H175.418V61.5586C175.418 62.1836 175.49 62.7109 175.633 63.1406C175.789 63.5703 176.004 63.9219 176.277 64.1953C176.551 64.4688 176.87 64.6641 177.234 64.7812C177.612 64.8984 178.029 64.957 178.484 64.957C179.643 64.957 180.555 64.7227 181.219 64.2539C181.896 63.7852 182.371 63.1471 182.645 62.3398C182.931 61.5195 183.074 60.6081 183.074 59.6055ZM202.098 69.3906C200.457 69.3906 198.986 69.1302 197.684 68.6094C196.382 68.0755 195.275 67.3398 194.363 66.4023C193.465 65.4648 192.775 64.3776 192.293 63.1406C191.811 61.8906 191.57 60.5625 191.57 59.1562V58.375C191.57 56.7734 191.798 55.3086 192.254 53.9805C192.71 52.6523 193.361 51.5 194.207 50.5234C195.066 49.5469 196.108 48.7982 197.332 48.2773C198.556 47.7435 199.936 47.4766 201.473 47.4766C202.97 47.4766 204.298 47.724 205.457 48.2188C206.616 48.7135 207.586 49.4167 208.367 50.3281C209.161 51.2396 209.76 52.3333 210.164 53.6094C210.568 54.8724 210.77 56.2786 210.77 57.8281V60.1719H193.973V56.4219H205.242V55.9922C205.242 55.2109 205.099 54.5143 204.812 53.9023C204.539 53.2773 204.122 52.7826 203.562 52.418C203.003 52.0534 202.286 51.8711 201.414 51.8711C200.672 51.8711 200.034 52.0339 199.5 52.3594C198.966 52.6849 198.53 53.1406 198.191 53.7266C197.866 54.3125 197.618 55.0026 197.449 55.7969C197.293 56.5781 197.215 57.4375 197.215 58.375V59.1562C197.215 60.0026 197.332 60.7839 197.566 61.5C197.814 62.2161 198.159 62.8346 198.602 63.3555C199.057 63.8763 199.604 64.2799 200.242 64.5664C200.893 64.8529 201.629 64.9961 202.449 64.9961C203.465 64.9961 204.409 64.8008 205.281 64.4102C206.167 64.0065 206.928 63.401 207.566 62.5938L210.301 65.5625C209.858 66.2005 209.253 66.8125 208.484 67.3984C207.729 67.9844 206.818 68.4661 205.75 68.8438C204.682 69.2083 203.465 69.3906 202.098 69.3906ZM219.48 52.3789V69H213.855V47.8672H219.129L219.48 52.3789ZM218.66 57.6914H217.137C217.137 56.1289 217.339 54.7227 217.742 53.4727C218.146 52.2096 218.712 51.1354 219.441 50.25C220.171 49.3516 221.036 48.668 222.039 48.1992C223.055 47.7174 224.188 47.4766 225.438 47.4766C226.427 47.4766 227.332 47.6198 228.152 47.9062C228.973 48.1927 229.676 48.6484 230.262 49.2734C230.861 49.8984 231.316 50.7253 231.629 51.7539C231.954 52.7826 232.117 54.0391 232.117 55.5234V69H226.453V55.5039C226.453 54.5664 226.323 53.8372 226.062 53.3164C225.802 52.7956 225.418 52.431 224.91 52.2227C224.415 52.0013 223.803 51.8906 223.074 51.8906C222.319 51.8906 221.661 52.0404 221.102 52.3398C220.555 52.6393 220.099 53.056 219.734 53.5898C219.383 54.1107 219.116 54.7227 218.934 55.4258C218.751 56.1289 218.66 56.8841 218.66 57.6914ZM235.496 58.6484V58.2383C235.496 56.6888 235.717 55.263 236.16 53.9609C236.603 52.6458 237.247 51.5065 238.094 50.543C238.94 49.5794 239.982 48.8307 241.219 48.2969C242.456 47.75 243.875 47.4766 245.477 47.4766C247.078 47.4766 248.504 47.75 249.754 48.2969C251.004 48.8307 252.052 49.5794 252.898 50.543C253.758 51.5065 254.409 52.6458 254.852 53.9609C255.294 55.263 255.516 56.6888 255.516 58.2383V58.6484C255.516 60.1849 255.294 61.6107 254.852 62.9258C254.409 64.2279 253.758 65.3672 252.898 66.3438C252.052 67.3073 251.01 68.056 249.773 68.5898C248.536 69.1237 247.117 69.3906 245.516 69.3906C243.914 69.3906 242.488 69.1237 241.238 68.5898C240.001 68.056 238.953 67.3073 238.094 66.3438C237.247 65.3672 236.603 64.2279 236.16 62.9258C235.717 61.6107 235.496 60.1849 235.496 58.6484ZM241.121 58.2383V58.6484C241.121 59.5339 241.199 60.3607 241.355 61.1289C241.512 61.8971 241.759 62.5742 242.098 63.1602C242.449 63.7331 242.905 64.1823 243.465 64.5078C244.025 64.8333 244.708 64.9961 245.516 64.9961C246.297 64.9961 246.967 64.8333 247.527 64.5078C248.087 64.1823 248.536 63.7331 248.875 63.1602C249.214 62.5742 249.461 61.8971 249.617 61.1289C249.786 60.3607 249.871 59.5339 249.871 58.6484V58.2383C249.871 57.3789 249.786 56.5716 249.617 55.8164C249.461 55.0482 249.207 54.3711 248.855 53.7852C248.517 53.1862 248.068 52.7174 247.508 52.3789C246.948 52.0404 246.271 51.8711 245.477 51.8711C244.682 51.8711 244.005 52.0404 243.445 52.3789C242.898 52.7174 242.449 53.1862 242.098 53.7852C241.759 54.3711 241.512 55.0482 241.355 55.8164C241.199 56.5716 241.121 57.3789 241.121 58.2383Z" fill="white"/>
<path d="M201.933 189.088L200.938 192.144C200.779 192.133 200.62 192.128 200.458 192.128C200.372 192.128 200.282 192.128 200.201 192.128L200.969 189.767C200.159 189.818 199.357 189.963 198.58 190.199L198.28 189.727L197.981 190.184C197.981 190.184 197.911 190.291 197.805 190.467C195.685 191.265 193.021 192.961 190.858 196.554C188.767 200.102 187.282 203.973 186.464 208.01H189.199C189.139 208.25 189.083 208.484 189.023 208.713H185.638L185.699 208.308C186.505 204.034 188.052 199.934 190.27 196.192C194.353 189.407 200.201 189.062 201.333 189.062C201.43 189.062 201.483 189.062 201.483 189.062L201.933 189.088Z" fill="white"/>
<path d="M202.021 192.996L202.095 193.012L202.021 192.996ZM207.038 186.004L201.961 192.27C202.763 192.43 203.532 192.727 204.232 193.149C204.747 193.468 205.224 193.846 205.652 194.274L205.795 194.404L207.654 186.316L207.038 186.004ZM205.211 193.842C204.916 193.58 204.597 193.344 204.26 193.139L205.448 192.801L205.211 193.842ZM205.626 192.024L203.341 192.676C203.138 192.592 202.931 192.518 202.72 192.455L203.283 191.762L205.862 191.029L205.626 192.024ZM206.034 190.243L204.046 190.809L204.967 189.676L206.246 189.305L206.034 190.243ZM206.426 188.524L205.742 188.721L206.631 187.626L206.426 188.524Z" fill="white"/>
<path d="M205.804 194.402L205.661 194.272C205.228 193.845 204.746 193.469 204.227 193.153C203.526 192.73 202.758 192.433 201.956 192.274C201.62 192.207 201.28 192.164 200.938 192.145C200.78 192.135 200.62 192.13 200.458 192.13C200.372 192.13 200.282 192.13 200.201 192.13C200.075 192.13 199.948 192.142 199.823 192.156L198.581 190.201L198.28 189.728L197.981 190.184C197.981 190.184 197.911 190.291 197.805 190.467C197.33 191.309 197.04 192.243 196.953 193.207C196.737 193.357 196.531 193.522 196.336 193.699C192.565 196.563 190.335 203.392 189.208 208.011C189.148 208.252 189.092 208.486 189.032 208.714C188.533 210.866 188.296 212.406 188.268 212.594L188.206 212.996H202.518L202.439 212.58C201.354 206.871 202.771 203.38 203.211 202.476L211.938 205.02L213.364 201.314L205.804 194.402ZM211.515 204.158L202.875 201.641L202.843 201.692C201.926 202.281 200.836 202.543 199.751 202.434C198.665 202.325 197.649 201.853 196.867 201.093C196.458 200.699 196.124 200.235 195.879 199.723L195.427 200.379C196.093 201.542 197.157 202.423 198.423 202.861C199.689 203.298 201.071 203.261 202.312 202.757C201.727 204.213 200.834 207.433 201.674 212.29H189.027C189.139 211.636 190.138 207.21 190.329 206.517C191.497 202.298 193.462 197.025 196.427 194.518L196.438 194.539L196.789 194.234C196.858 194.174 196.927 194.114 196.997 194.058C197.083 194.695 197.343 195.295 197.749 195.793C197.898 195.98 198.065 196.152 198.247 196.308L198.704 195.78C198.682 195.763 198.661 195.744 198.642 195.724C198.461 195.564 198.3 195.382 198.162 195.183C197.836 194.718 197.653 194.168 197.635 193.601C197.624 193.322 197.643 193.044 197.691 192.769C197.803 192.173 198.005 191.598 198.289 191.063L199.069 192.293L199.474 192.928L199.595 193.119L200.004 193.763L200.486 194.522L201.082 194.133L200.44 193.124L200.256 192.833H200.462H200.637C201.102 192.845 201.564 192.903 202.017 193.008L202.091 193.026L202.135 193.037C203.273 193.33 204.311 193.923 205.143 194.754L205.164 194.775L205.176 194.787L212.534 201.509L211.515 204.158Z" fill="white"/>
</svg>
