<svg width="407" height="297" viewBox="0 0 407 297" fill="none" xmlns="http://www.w3.org/2000/svg">
<g clip-path="url(#clip0_192_3005)">
<path d="M237.077 52.8228C244.705 52.8228 250.888 46.6395 250.888 39.0119C250.888 31.3843 244.705 25.2009 237.077 25.2009C229.449 25.2009 223.265 31.3843 223.265 39.0119C223.265 46.6395 229.449 52.8228 237.077 52.8228Z" fill="#F2F2F2"/>
<path d="M344.217 257.793C364.747 242.157 374.552 215.882 368.414 190.818C368.261 190.195 368.1 189.574 367.931 188.954C363.861 174.076 353.793 159.936 339.119 155.182C326.797 151.191 313.348 154.26 300.494 152.673C275.261 149.557 255.698 129.141 241.933 107.766C228.168 86.39 217.589 62.4631 199.299 44.8038C169.15 15.6954 119.969 9.42832 82.5884 28.3757C45.2079 47.3232 21.3969 89.3596 22.4124 131.254C23.4279 173.149 48.2999 213.203 84.4203 234.454C97.6895 242.261 113.037 247.792 128.31 245.856C141.563 244.177 153.604 237.057 166.794 234.943C187.532 231.619 208.138 240.995 226.075 251.921C244.012 262.846 261.338 275.797 281.72 280.862C301.512 285.78 326.032 271.644 344.217 257.793Z" fill="#F2F2F2"/>
<path d="M314.722 29.2556C314.272 28.9556 313.817 28.6711 313.367 28.3814C300.358 20.0619 286.414 13.3032 271.824 8.24492L268.441 54.9112H246.995V1.43275C245.645 1.15343 244.285 0.889637 242.924 0.641357V54.9112H217.438C203.408 54.9112 189.952 49.3379 180.031 39.4174C170.111 29.4969 164.537 16.0418 164.537 2.01213V2.01208C163.171 2.30691 161.816 2.62244 160.461 2.95865V54.9112H139.703L136.48 10.4122C121.487 16.1621 107.253 23.7235 94.0949 32.9281C93.8673 33.0833 93.6397 33.2436 93.4172 33.3988C92.2741 34.2005 91.1464 35.0178 90.0239 35.8454V213.877H151.202L150.121 198.903L144.172 116.686H263.967L258.018 198.903L256.937 213.877H317.437V31.0556C316.537 30.4453 315.632 29.8453 314.722 29.2556ZM160.461 103.108H143.189L139.998 58.9871H160.461V103.108ZM242.924 103.108H213.916V102.234C213.916 101.814 213.833 101.398 213.672 101.01C213.511 100.622 213.275 100.269 212.978 99.9721C212.68 99.6752 212.327 99.4399 211.939 99.2795C211.55 99.1192 211.134 99.037 210.714 99.0377H198.103C197.683 99.0376 197.267 99.1201 196.879 99.2807C196.491 99.4413 196.139 99.6768 195.842 99.9736C195.545 100.27 195.31 100.623 195.149 101.011C194.988 101.399 194.906 101.814 194.906 102.234V103.108H164.537V58.9871H242.924V103.108ZM246.995 103.108V58.9871H268.147L264.955 103.108H246.995Z" fill="#3F3D56"/>
<path d="M0 225.278C4.49367 230.602 9.35409 235.606 14.5457 240.252L392.454 240.77C397.646 236.123 402.506 231.12 407 225.795L0 225.278Z" fill="#3F3D56"/>
<path d="M256.272 177.329V221.66C256.273 222.224 256.497 222.766 256.897 223.166C257.296 223.565 257.838 223.79 258.403 223.79H324.099C324.664 223.79 325.205 223.565 325.605 223.166C326.004 222.766 326.229 222.224 326.229 221.66V177.329C326.228 176.765 326.003 176.224 325.604 175.825C325.204 175.426 324.663 175.202 324.099 175.201H258.403C257.838 175.202 257.297 175.426 256.898 175.825C256.498 176.224 256.273 176.765 256.272 177.329Z" fill="#3F3D56"/>
<path d="M257.813 177.881V221.113C257.814 221.415 257.934 221.704 258.147 221.917C258.361 222.131 258.65 222.251 258.952 222.251H323.552C323.854 222.251 324.143 222.131 324.356 221.917C324.57 221.704 324.69 221.415 324.69 221.113V177.881C324.69 177.579 324.571 177.289 324.357 177.075C324.144 176.861 323.854 176.74 323.552 176.74H258.952C258.65 176.74 258.36 176.861 258.147 177.075C257.933 177.289 257.813 177.579 257.813 177.881Z" fill="#6C63FF"/>
<path d="M254.898 230.305C255.018 230.456 255.171 230.578 255.346 230.661C255.52 230.744 255.71 230.787 255.903 230.786H326.248C326.441 230.786 326.631 230.743 326.804 230.66C326.978 230.577 327.131 230.457 327.252 230.307C327.373 230.158 327.459 229.983 327.505 229.796C327.55 229.609 327.553 229.415 327.514 229.226L326.422 224.04C326.376 223.828 326.279 223.631 326.138 223.467C325.997 223.303 325.818 223.177 325.616 223.1C325.469 223.042 325.313 223.013 325.156 223.013H256.991C256.834 223.013 256.678 223.042 256.532 223.1C256.33 223.177 256.15 223.303 256.009 223.467C255.868 223.631 255.771 223.828 255.726 224.04L254.634 229.226C254.595 229.415 254.598 229.609 254.644 229.796C254.69 229.982 254.777 230.156 254.898 230.305Z" fill="#2F2E41"/>
<path d="M322.743 225.247H324.404C324.544 225.247 324.657 225.134 324.657 224.994V224.199C324.657 224.06 324.544 223.947 324.404 223.947H322.743C322.603 223.947 322.49 224.06 322.49 224.199V224.994C322.49 225.134 322.603 225.247 322.743 225.247Z" fill="#3F3D56"/>
<path d="M318.409 225.247H320.071C320.21 225.247 320.323 225.134 320.323 224.994V224.199C320.323 224.06 320.21 223.947 320.071 223.947H318.409C318.27 223.947 318.157 224.06 318.157 224.199V224.994C318.157 225.134 318.27 225.247 318.409 225.247Z" fill="#3F3D56"/>
<path d="M314.076 225.247H315.738C315.877 225.247 315.99 225.134 315.99 224.994V224.199C315.99 224.06 315.877 223.947 315.738 223.947H314.076C313.937 223.947 313.824 224.06 313.824 224.199V224.994C313.824 225.134 313.937 225.247 314.076 225.247Z" fill="#3F3D56"/>
<path d="M309.743 225.247H311.405C311.544 225.247 311.657 225.134 311.657 224.994V224.199C311.657 224.06 311.544 223.947 311.405 223.947H309.743C309.604 223.947 309.491 224.06 309.491 224.199V224.994C309.491 225.134 309.604 225.247 309.743 225.247Z" fill="#3F3D56"/>
<path d="M305.41 225.247H307.071C307.211 225.247 307.324 225.134 307.324 224.994V224.199C307.324 224.06 307.211 223.947 307.071 223.947H305.41C305.27 223.947 305.157 224.06 305.157 224.199V224.994C305.157 225.134 305.27 225.247 305.41 225.247Z" fill="#3F3D56"/>
<path d="M301.077 225.247H302.738C302.878 225.247 302.991 225.134 302.991 224.994V224.199C302.991 224.06 302.878 223.947 302.738 223.947H301.077C300.937 223.947 300.824 224.06 300.824 224.199V224.994C300.824 225.134 300.937 225.247 301.077 225.247Z" fill="#3F3D56"/>
<path d="M296.743 225.247H298.405C298.544 225.247 298.657 225.134 298.657 224.994V224.199C298.657 224.06 298.544 223.947 298.405 223.947H296.743C296.604 223.947 296.491 224.06 296.491 224.199V224.994C296.491 225.134 296.604 225.247 296.743 225.247Z" fill="#3F3D56"/>
<path d="M292.41 225.247H294.072C294.211 225.247 294.324 225.134 294.324 224.994V224.199C294.324 224.06 294.211 223.947 294.072 223.947H292.41C292.271 223.947 292.158 224.06 292.158 224.199V224.994C292.158 225.134 292.271 225.247 292.41 225.247Z" fill="#3F3D56"/>
<path d="M288.077 225.247H289.739C289.878 225.247 289.991 225.134 289.991 224.994V224.199C289.991 224.06 289.878 223.947 289.739 223.947H288.077C287.938 223.947 287.825 224.06 287.825 224.199V224.994C287.825 225.134 287.938 225.247 288.077 225.247Z" fill="#3F3D56"/>
<path d="M283.744 225.247H285.406C285.545 225.247 285.658 225.134 285.658 224.994V224.199C285.658 224.06 285.545 223.947 285.406 223.947H283.744C283.605 223.947 283.491 224.06 283.491 224.199V224.994C283.491 225.134 283.605 225.247 283.744 225.247Z" fill="#3F3D56"/>
<path d="M279.411 225.247H281.072C281.212 225.247 281.325 225.134 281.325 224.994V224.199C281.325 224.06 281.212 223.947 281.072 223.947H279.411C279.271 223.947 279.158 224.06 279.158 224.199V224.994C279.158 225.134 279.271 225.247 279.411 225.247Z" fill="#3F3D56"/>
<path d="M275.078 225.247H276.739C276.879 225.247 276.992 225.134 276.992 224.994V224.199C276.992 224.06 276.879 223.947 276.739 223.947H275.078C274.938 223.947 274.825 224.06 274.825 224.199V224.994C274.825 225.134 274.938 225.247 275.078 225.247Z" fill="#3F3D56"/>
<path d="M270.744 225.247H272.406C272.545 225.247 272.659 225.134 272.659 224.994V224.199C272.659 224.06 272.545 223.947 272.406 223.947H270.744C270.605 223.947 270.492 224.06 270.492 224.199V224.994C270.492 225.134 270.605 225.247 270.744 225.247Z" fill="#3F3D56"/>
<path d="M266.411 225.247H268.073C268.212 225.247 268.325 225.134 268.325 224.994V224.199C268.325 224.06 268.212 223.947 268.073 223.947H266.411C266.272 223.947 266.159 224.06 266.159 224.199V224.994C266.159 225.134 266.272 225.247 266.411 225.247Z" fill="#3F3D56"/>
<path d="M262.078 225.247H263.74C263.879 225.247 263.992 225.134 263.992 224.994V224.199C263.992 224.06 263.879 223.947 263.74 223.947H262.078C261.939 223.947 261.826 224.06 261.826 224.199V224.994C261.826 225.134 261.939 225.247 262.078 225.247Z" fill="#3F3D56"/>
<path d="M257.745 225.247H259.406C259.546 225.247 259.659 225.134 259.659 224.994V224.199C259.659 224.06 259.546 223.947 259.406 223.947H257.745C257.605 223.947 257.492 224.06 257.492 224.199V224.994C257.492 225.134 257.605 225.247 257.745 225.247Z" fill="#3F3D56"/>
<path d="M322.794 227.413H324.455C324.595 227.413 324.708 227.3 324.708 227.161V226.366C324.708 226.226 324.595 226.113 324.455 226.113H322.794C322.654 226.113 322.541 226.226 322.541 226.366V227.161C322.541 227.3 322.654 227.413 322.794 227.413Z" fill="#3F3D56"/>
<path d="M318.461 227.413H320.122C320.262 227.413 320.375 227.3 320.375 227.161V226.366C320.375 226.226 320.262 226.113 320.122 226.113H318.461C318.321 226.113 318.208 226.226 318.208 226.366V227.161C318.208 227.3 318.321 227.413 318.461 227.413Z" fill="#3F3D56"/>
<path d="M314.127 227.413H315.789C315.928 227.413 316.042 227.3 316.042 227.161V226.366C316.042 226.226 315.928 226.113 315.789 226.113H314.127C313.988 226.113 313.875 226.226 313.875 226.366V227.161C313.875 227.3 313.988 227.413 314.127 227.413Z" fill="#3F3D56"/>
<path d="M309.794 227.413H311.456C311.595 227.413 311.708 227.3 311.708 227.161V226.366C311.708 226.226 311.595 226.113 311.456 226.113H309.794C309.655 226.113 309.542 226.226 309.542 226.366V227.161C309.542 227.3 309.655 227.413 309.794 227.413Z" fill="#3F3D56"/>
<path d="M305.461 227.413H307.123C307.262 227.413 307.375 227.3 307.375 227.161V226.366C307.375 226.226 307.262 226.113 307.123 226.113H305.461C305.322 226.113 305.209 226.226 305.209 226.366V227.161C305.209 227.3 305.322 227.413 305.461 227.413Z" fill="#3F3D56"/>
<path d="M301.128 227.413H302.789C302.929 227.413 303.042 227.3 303.042 227.161V226.366C303.042 226.226 302.929 226.113 302.789 226.113H301.128C300.988 226.113 300.875 226.226 300.875 226.366V227.161C300.875 227.3 300.988 227.413 301.128 227.413Z" fill="#3F3D56"/>
<path d="M296.795 227.413H298.456C298.596 227.413 298.709 227.3 298.709 227.161V226.366C298.709 226.226 298.596 226.113 298.456 226.113H296.795C296.655 226.113 296.542 226.226 296.542 226.366V227.161C296.542 227.3 296.655 227.413 296.795 227.413Z" fill="#3F3D56"/>
<path d="M292.462 227.413H294.123C294.263 227.413 294.376 227.3 294.376 227.161V226.366C294.376 226.226 294.263 226.113 294.123 226.113H292.462C292.322 226.113 292.209 226.226 292.209 226.366V227.161C292.209 227.3 292.322 227.413 292.462 227.413Z" fill="#3F3D56"/>
<path d="M288.128 227.413H289.79C289.929 227.413 290.042 227.3 290.042 227.161V226.366C290.042 226.226 289.929 226.113 289.79 226.113H288.128C287.989 226.113 287.876 226.226 287.876 226.366V227.161C287.876 227.3 287.989 227.413 288.128 227.413Z" fill="#3F3D56"/>
<path d="M283.795 227.413H285.457C285.596 227.413 285.709 227.3 285.709 227.161V226.366C285.709 226.226 285.596 226.113 285.457 226.113H283.795C283.656 226.113 283.543 226.226 283.543 226.366V227.161C283.543 227.3 283.656 227.413 283.795 227.413Z" fill="#3F3D56"/>
<path d="M279.462 227.413H281.124C281.263 227.413 281.376 227.3 281.376 227.161V226.366C281.376 226.226 281.263 226.113 281.124 226.113H279.462C279.322 226.113 279.209 226.226 279.209 226.366V227.161C279.209 227.3 279.322 227.413 279.462 227.413Z" fill="#3F3D56"/>
<path d="M275.129 227.413H276.79C276.93 227.413 277.043 227.3 277.043 227.161V226.366C277.043 226.226 276.93 226.113 276.79 226.113H275.129C274.989 226.113 274.876 226.226 274.876 226.366V227.161C274.876 227.3 274.989 227.413 275.129 227.413Z" fill="#3F3D56"/>
<path d="M270.796 227.413H272.457C272.597 227.413 272.71 227.3 272.71 227.161V226.366C272.71 226.226 272.597 226.113 272.457 226.113H270.796C270.656 226.113 270.543 226.226 270.543 226.366V227.161C270.543 227.3 270.656 227.413 270.796 227.413Z" fill="#3F3D56"/>
<path d="M266.462 227.413H268.124C268.263 227.413 268.377 227.3 268.377 227.161V226.366C268.377 226.226 268.263 226.113 268.124 226.113H266.462C266.323 226.113 266.21 226.226 266.21 226.366V227.161C266.21 227.3 266.323 227.413 266.462 227.413Z" fill="#3F3D56"/>
<path d="M262.129 227.413H263.791C263.93 227.413 264.043 227.3 264.043 227.161V226.366C264.043 226.226 263.93 226.113 263.791 226.113H262.129C261.99 226.113 261.877 226.226 261.877 226.366V227.161C261.877 227.3 261.99 227.413 262.129 227.413Z" fill="#3F3D56"/>
<path d="M257.796 227.413H259.458C259.597 227.413 259.71 227.3 259.71 227.161V226.366C259.71 226.226 259.597 226.113 259.458 226.113H257.796C257.657 226.113 257.544 226.226 257.544 226.366V227.161C257.544 227.3 257.657 227.413 257.796 227.413Z" fill="#3F3D56"/>
<path d="M286.828 230.013H303.656C303.796 230.013 303.909 229.9 303.909 229.761V228.966C303.909 228.826 303.796 228.713 303.656 228.713H286.828C286.689 228.713 286.576 228.826 286.576 228.966V229.761C286.576 229.9 286.689 230.013 286.828 230.013Z" fill="#3F3D56"/>
<path d="M269 186.198H267.529C267.083 186.198 266.722 186.56 266.722 187.005C266.722 187.451 267.083 187.813 267.529 187.813H269C269.446 187.813 269.808 187.451 269.808 187.005C269.808 186.56 269.446 186.198 269 186.198Z" fill="white"/>
<path d="M285.823 186.198H284.352C283.906 186.198 283.545 186.56 283.545 187.005C283.545 187.451 283.906 187.813 284.352 187.813H285.823C286.269 187.813 286.631 187.451 286.631 187.005C286.631 186.56 286.269 186.198 285.823 186.198Z" fill="white"/>
<path d="M290.59 186.198H289.119C288.673 186.198 288.311 186.56 288.311 187.005C288.311 187.451 288.673 187.813 289.119 187.813H290.59C291.036 187.813 291.397 187.451 291.397 187.005C291.397 186.56 291.036 186.198 290.59 186.198Z" fill="white"/>
<path d="M281.247 186.063H272.105C271.659 186.063 271.298 186.425 271.298 186.871C271.298 187.317 271.659 187.678 272.105 187.678H281.247C281.693 187.678 282.055 187.317 282.055 186.871C282.055 186.425 281.693 186.063 281.247 186.063Z" fill="white"/>
<path d="M303.678 186.063H294.536C294.09 186.063 293.729 186.425 293.729 186.871C293.729 187.317 294.09 187.678 294.536 187.678H303.678C304.124 187.678 304.486 187.317 304.486 186.871C304.486 186.425 304.124 186.063 303.678 186.063Z" fill="white"/>
<path d="M273.486 189.843H272.015C271.569 189.843 271.208 190.204 271.208 190.65C271.208 191.096 271.569 191.458 272.015 191.458H273.486C273.932 191.458 274.294 191.096 274.294 190.65C274.294 190.204 273.932 189.843 273.486 189.843Z" fill="white"/>
<path d="M290.309 189.843H288.839C288.393 189.843 288.031 190.204 288.031 190.65C288.031 191.096 288.393 191.458 288.839 191.458H290.309C290.755 191.458 291.117 191.096 291.117 190.65C291.117 190.204 290.755 189.843 290.309 189.843Z" fill="white"/>
<path d="M295.076 189.843H293.605C293.159 189.843 292.798 190.204 292.798 190.65C292.798 191.096 293.159 191.458 293.605 191.458H295.076C295.522 191.458 295.884 191.096 295.884 190.65C295.884 190.204 295.522 189.843 295.076 189.843Z" fill="white"/>
<path d="M285.733 189.708H276.591C276.145 189.708 275.784 190.07 275.784 190.516C275.784 190.962 276.145 191.323 276.591 191.323H285.733C286.179 191.323 286.541 190.962 286.541 190.516C286.541 190.07 286.179 189.708 285.733 189.708Z" fill="white"/>
<path d="M308.164 189.708H299.022C298.576 189.708 298.215 190.07 298.215 190.516C298.215 190.962 298.576 191.323 299.022 191.323H308.164C308.61 191.323 308.972 190.962 308.972 190.516C308.972 190.07 308.61 189.708 308.164 189.708Z" fill="white"/>
<path d="M277.972 193.488H276.501C276.055 193.488 275.694 193.849 275.694 194.295C275.694 194.741 276.055 195.103 276.501 195.103H277.972C278.418 195.103 278.78 194.741 278.78 194.295C278.78 193.849 278.418 193.488 277.972 193.488Z" fill="white"/>
<path d="M294.796 193.488H293.325C292.879 193.488 292.517 193.849 292.517 194.295C292.517 194.741 292.879 195.103 293.325 195.103H294.796C295.242 195.103 295.603 194.741 295.603 194.295C295.603 193.849 295.242 193.488 294.796 193.488Z" fill="white"/>
<path d="M299.562 193.488H298.091C297.645 193.488 297.284 193.849 297.284 194.295C297.284 194.741 297.645 195.103 298.091 195.103H299.562C300.008 195.103 300.37 194.741 300.37 194.295C300.37 193.849 300.008 193.488 299.562 193.488Z" fill="white"/>
<path d="M290.22 193.353H281.077C280.631 193.353 280.27 193.715 280.27 194.16C280.27 194.606 280.631 194.968 281.077 194.968H290.22C290.666 194.968 291.027 194.606 291.027 194.16C291.027 193.715 290.666 193.353 290.22 193.353Z" fill="white"/>
<path d="M312.651 193.353H303.508C303.062 193.353 302.701 193.715 302.701 194.16C302.701 194.606 303.062 194.968 303.508 194.968H312.651C313.097 194.968 313.458 194.606 313.458 194.16C313.458 193.715 313.097 193.353 312.651 193.353Z" fill="white"/>
<path d="M282.459 197.133H280.988C280.542 197.133 280.18 197.494 280.18 197.94C280.18 198.386 280.542 198.747 280.988 198.747H282.459C282.905 198.747 283.266 198.386 283.266 197.94C283.266 197.494 282.905 197.133 282.459 197.133Z" fill="white"/>
<path d="M299.282 197.133H297.811C297.365 197.133 297.003 197.494 297.003 197.94C297.003 198.386 297.365 198.747 297.811 198.747H299.282C299.728 198.747 300.089 198.386 300.089 197.94C300.089 197.494 299.728 197.133 299.282 197.133Z" fill="white"/>
<path d="M304.048 197.133H302.578C302.132 197.133 301.77 197.494 301.77 197.94C301.77 198.386 302.132 198.747 302.578 198.747H304.048C304.494 198.747 304.856 198.386 304.856 197.94C304.856 197.494 304.494 197.133 304.048 197.133Z" fill="white"/>
<path d="M294.706 196.998H285.564C285.118 196.998 284.756 197.359 284.756 197.805C284.756 198.251 285.118 198.613 285.564 198.613H294.706C295.152 198.613 295.513 198.251 295.513 197.805C295.513 197.359 295.152 196.998 294.706 196.998Z" fill="white"/>
<path d="M285.823 211.626H284.352C283.906 211.626 283.545 211.988 283.545 212.434C283.545 212.88 283.906 213.241 284.352 213.241H285.823C286.269 213.241 286.631 212.88 286.631 212.434C286.631 211.988 286.269 211.626 285.823 211.626Z" fill="white"/>
<path d="M290.59 211.626H289.119C288.673 211.626 288.311 211.988 288.311 212.434C288.311 212.88 288.673 213.241 289.119 213.241H290.59C291.036 213.241 291.397 212.88 291.397 212.434C291.397 211.988 291.036 211.626 290.59 211.626Z" fill="white"/>
<path d="M303.678 211.761H294.536C294.09 211.761 293.729 212.122 293.729 212.568C293.729 213.014 294.09 213.376 294.536 213.376H303.678C304.124 213.376 304.486 213.014 304.486 212.568C304.486 212.122 304.124 211.761 303.678 211.761Z" fill="white"/>
<path d="M269 211.626H267.529C267.083 211.626 266.722 211.988 266.722 212.434C266.722 212.88 267.083 213.241 267.529 213.241H269C269.446 213.241 269.808 212.88 269.808 212.434C269.808 211.988 269.446 211.626 269 211.626Z" fill="white"/>
<path d="M281.247 211.761H272.105C271.659 211.761 271.298 212.122 271.298 212.568C271.298 213.014 271.659 213.376 272.105 213.376H281.247C281.693 213.376 282.055 213.014 282.055 212.568C282.055 212.122 281.693 211.761 281.247 211.761Z" fill="white"/>
<path d="M273.486 207.981H272.015C271.569 207.981 271.208 208.343 271.208 208.789C271.208 209.235 271.569 209.596 272.015 209.596H273.486C273.932 209.596 274.294 209.235 274.294 208.789C274.294 208.343 273.932 207.981 273.486 207.981Z" fill="white"/>
<path d="M290.309 207.981H288.839C288.393 207.981 288.031 208.343 288.031 208.789C288.031 209.235 288.393 209.596 288.839 209.596H290.309C290.755 209.596 291.117 209.235 291.117 208.789C291.117 208.343 290.755 207.981 290.309 207.981Z" fill="white"/>
<path d="M295.076 207.981H293.605C293.159 207.981 292.798 208.343 292.798 208.789C292.798 209.235 293.159 209.596 293.605 209.596H295.076C295.522 209.596 295.884 209.235 295.884 208.789C295.884 208.343 295.522 207.981 295.076 207.981Z" fill="white"/>
<path d="M285.733 208.116H276.591C276.145 208.116 275.784 208.477 275.784 208.923C275.784 209.369 276.145 209.731 276.591 209.731H285.733C286.179 209.731 286.541 209.369 286.541 208.923C286.541 208.477 286.179 208.116 285.733 208.116Z" fill="white"/>
<path d="M277.972 204.336H276.501C276.055 204.336 275.694 204.698 275.694 205.144C275.694 205.59 276.055 205.951 276.501 205.951H277.972C278.418 205.951 278.78 205.59 278.78 205.144C278.78 204.698 278.418 204.336 277.972 204.336Z" fill="white"/>
<path d="M294.796 204.336H293.325C292.879 204.336 292.517 204.698 292.517 205.144C292.517 205.59 292.879 205.951 293.325 205.951H294.796C295.242 205.951 295.603 205.59 295.603 205.144C295.603 204.698 295.242 204.336 294.796 204.336Z" fill="white"/>
<path d="M299.562 204.336H298.091C297.645 204.336 297.284 204.698 297.284 205.144C297.284 205.59 297.645 205.951 298.091 205.951H299.562C300.008 205.951 300.37 205.59 300.37 205.144C300.37 204.698 300.008 204.336 299.562 204.336Z" fill="white"/>
<path d="M290.22 204.471H281.077C280.631 204.471 280.27 204.832 280.27 205.278C280.27 205.724 280.631 206.086 281.077 206.086H290.22C290.666 206.086 291.027 205.724 291.027 205.278C291.027 204.832 290.666 204.471 290.22 204.471Z" fill="white"/>
<path d="M282.459 200.691H280.988C280.542 200.691 280.18 201.053 280.18 201.499C280.18 201.945 280.542 202.306 280.988 202.306H282.459C282.905 202.306 283.266 201.945 283.266 201.499C283.266 201.053 282.905 200.691 282.459 200.691Z" fill="white"/>
<path d="M299.282 200.691H297.811C297.365 200.691 297.003 201.053 297.003 201.499C297.003 201.945 297.365 202.306 297.811 202.306H299.282C299.728 202.306 300.089 201.945 300.089 201.499C300.089 201.053 299.728 200.691 299.282 200.691Z" fill="white"/>
<path d="M304.048 200.691H302.578C302.132 200.691 301.77 201.053 301.77 201.499C301.77 201.945 302.132 202.306 302.578 202.306H304.048C304.494 202.306 304.856 201.945 304.856 201.499C304.856 201.053 304.494 200.691 304.048 200.691Z" fill="white"/>
<path d="M294.706 200.826H285.564C285.118 200.826 284.756 201.188 284.756 201.634C284.756 202.08 285.118 202.441 285.564 202.441H294.706C295.152 202.441 295.513 202.08 295.513 201.634C295.513 201.188 295.152 200.826 294.706 200.826Z" fill="white"/>
<path d="M261.18 254.343L254.274 243.428L275.949 226.15L284.895 216.239C286.058 214.952 287.538 213.992 289.187 213.455C290.837 212.919 292.598 212.824 294.296 213.182C295.993 213.539 297.567 214.336 298.86 215.492C300.153 216.649 301.12 218.124 301.664 219.771C302.471 222.212 302.297 224.87 301.181 227.186C300.064 229.501 298.091 231.292 295.679 232.18L281.533 237.392L261.18 254.343Z" fill="#FFB6B6"/>
<path d="M99.1559 175.203V228.252H136.322V175.203C136.323 174.822 136.201 174.45 135.975 174.143C135.748 173.835 135.429 173.609 135.065 173.496C134.893 173.439 134.713 173.411 134.532 173.413H100.951C100.715 173.413 100.482 173.459 100.265 173.549C100.047 173.638 99.8491 173.77 99.6824 173.936C99.5157 174.102 99.3834 174.3 99.2931 174.517C99.2027 174.735 99.1561 174.968 99.1559 175.203ZM113.66 193.431C113.67 192.385 114.092 191.385 114.835 190.649C115.578 189.913 116.582 189.5 117.628 189.5C118.674 189.5 119.677 189.913 120.42 190.649C121.163 191.385 121.585 192.385 121.595 193.431V199.586C121.59 200.635 121.169 201.639 120.426 202.378C119.682 203.118 118.676 203.533 117.628 203.533C116.579 203.533 115.573 203.118 114.829 202.378C114.086 201.639 113.666 200.635 113.66 199.586V193.431Z" fill="#2F2E41"/>
<path d="M99.0421 226.556V231.671C99.043 231.936 99.1482 232.19 99.3351 232.378C99.522 232.566 99.7755 232.673 100.04 232.675H135.437C135.703 232.673 135.957 232.567 136.144 232.379C136.331 232.191 136.436 231.936 136.436 231.671V226.556H99.0421Z" fill="#3F3D56"/>
<path d="M40.6886 95.2778V192.138C40.6896 193.372 41.1804 194.556 42.0532 195.429C42.9261 196.301 44.1096 196.792 45.344 196.793H188.887C190.121 196.792 191.305 196.301 192.178 195.429C193.051 194.556 193.542 193.372 193.543 192.138V95.2778C193.54 94.0445 193.048 92.8626 192.175 91.9911C191.303 91.1195 190.12 90.6293 188.887 90.6277H45.344C44.1107 90.6293 42.9283 91.1195 42.0557 91.9911C41.1831 92.8627 40.6915 94.0445 40.6886 95.2778Z" fill="#3F3D56"/>
<path d="M44.056 96.4829V190.943C44.0572 191.602 44.3197 192.235 44.786 192.701C45.2524 193.167 45.8846 193.43 46.5441 193.431H187.692C188.352 193.43 188.984 193.167 189.45 192.701C189.917 192.235 190.179 191.602 190.18 190.943V96.4829C190.18 95.8226 189.918 95.1893 189.452 94.7219C188.985 94.2545 188.352 93.9912 187.692 93.9897H46.5441C45.8838 93.9912 45.251 94.2545 44.7845 94.7219C44.3181 95.1893 44.0561 95.8226 44.056 96.4829Z" fill="white"/>
<path d="M70.2507 232.328C70.3944 232.508 70.577 232.653 70.7849 232.753C70.9927 232.852 71.2204 232.903 71.4508 232.902H155.425C155.654 232.902 155.881 232.85 156.088 232.752C156.296 232.653 156.478 232.509 156.623 232.33C156.768 232.152 156.871 231.944 156.925 231.721C156.979 231.497 156.982 231.265 156.935 231.04L155.632 224.849C155.578 224.596 155.461 224.361 155.293 224.165C155.125 223.969 154.911 223.818 154.67 223.726C154.495 223.658 154.309 223.623 154.121 223.623H72.7492C72.5615 223.623 72.3755 223.658 72.2009 223.726C71.9596 223.818 71.7452 223.969 71.5771 224.165C71.4091 224.361 71.2928 224.596 71.2387 224.849L69.9352 231.04C69.8888 231.265 69.8931 231.497 69.9477 231.72C70.0022 231.942 70.1058 232.15 70.2507 232.328Z" fill="#2F2E41"/>
<path d="M183.111 107.002H51.0398C50.9025 106.999 50.7719 106.942 50.6759 106.844C50.5799 106.746 50.5261 106.614 50.5261 106.477C50.5261 106.34 50.5799 106.208 50.6759 106.11C50.7719 106.011 50.9025 105.955 51.0398 105.952H183.111C183.249 105.955 183.379 106.011 183.475 106.11C183.571 106.208 183.625 106.34 183.625 106.477C183.625 106.614 183.571 106.746 183.475 106.844C183.379 106.942 183.249 106.999 183.111 107.002Z" fill="#3F3D56"/>
<path d="M60.0301 103.27C61.73 103.27 63.1081 101.861 63.1081 100.124C63.1081 98.386 61.73 96.9773 60.0301 96.9773C58.3301 96.9773 56.9521 98.386 56.9521 100.124C56.9521 101.861 58.3301 103.27 60.0301 103.27Z" fill="#3F3D56"/>
<path d="M70.6631 103.27C72.3631 103.27 73.7411 101.861 73.7411 100.124C73.7411 98.386 72.3631 96.9773 70.6631 96.9773C68.9632 96.9773 67.5851 98.386 67.5851 100.124C67.5851 101.861 68.9632 103.27 70.6631 103.27Z" fill="#3F3D56"/>
<path d="M81.2962 103.27C82.9962 103.27 84.3742 101.861 84.3742 100.124C84.3742 98.386 82.9962 96.9773 81.2962 96.9773C79.5963 96.9773 78.2183 98.386 78.2183 100.124C78.2183 101.861 79.5963 103.27 81.2962 103.27Z" fill="#3F3D56"/>
<path d="M176.709 97.7554H169.156C169.007 97.7588 168.865 97.8206 168.761 97.9274C168.656 98.0342 168.598 98.1776 168.598 98.3269C168.598 98.4762 168.656 98.6197 168.761 98.7265C168.865 98.8333 169.007 98.895 169.156 98.8985H176.709C176.859 98.8964 177.002 98.8352 177.108 98.7283C177.213 98.6213 177.272 98.4771 177.272 98.3269C177.272 98.1767 177.213 98.0326 177.108 97.9256C177.002 97.8186 176.859 97.7575 176.709 97.7554Z" fill="#3F3D56"/>
<path d="M176.709 99.9019H169.156C169.007 99.9052 168.865 99.9668 168.76 100.074C168.656 100.18 168.597 100.324 168.597 100.473C168.597 100.623 168.656 100.766 168.76 100.873C168.865 100.98 169.007 101.042 169.156 101.045H176.709C176.859 101.043 177.003 100.982 177.108 100.875C177.214 100.768 177.273 100.624 177.273 100.473C177.273 100.323 177.214 100.179 177.108 100.072C177.003 99.9647 176.859 99.9037 176.709 99.9019Z" fill="#3F3D56"/>
<path d="M176.709 102.049H169.156C169.007 102.052 168.865 102.114 168.761 102.221C168.656 102.327 168.598 102.471 168.598 102.62C168.598 102.769 168.656 102.913 168.761 103.02C168.865 103.126 169.007 103.188 169.156 103.192H176.709C176.859 103.19 177.002 103.128 177.108 103.021C177.213 102.915 177.272 102.77 177.272 102.62C177.272 102.47 177.213 102.326 177.108 102.219C177.002 102.112 176.859 102.051 176.709 102.049Z" fill="#3F3D56"/>
<path d="M358.778 228.801C359.006 229.464 359.438 230.039 360.013 230.441C360.587 230.844 361.275 231.054 361.976 231.041L375.68 230.688C376.386 230.675 377.069 230.433 377.627 229.998C378.185 229.564 378.587 228.961 378.773 228.28L380.712 207.544C381.4 207.856 382.149 208.01 382.905 207.995C383.561 207.978 384.207 207.833 384.807 207.567C385.407 207.3 385.948 206.919 386.401 206.443C386.853 205.967 387.207 205.407 387.443 204.795C387.679 204.183 387.792 203.53 387.775 202.874C387.759 202.218 387.613 201.571 387.347 200.971C387.081 200.372 386.699 199.83 386.223 199.378C385.748 198.926 385.188 198.571 384.575 198.336C383.963 198.1 383.31 197.987 382.654 198.003C382.352 198.002 382.051 198.034 381.756 198.097C381.435 197.749 381.045 197.473 380.61 197.286C380.176 197.099 379.707 197.004 379.235 197.009L358.155 197.553C357.981 197.56 357.807 197.581 357.635 197.618C357.173 197.704 356.735 197.888 356.35 198.158C355.965 198.428 355.642 198.777 355.403 199.182C355.164 199.587 355.015 200.039 354.965 200.506C354.915 200.974 354.966 201.446 355.115 201.893L358.778 228.801ZM381.11 206.137L382.49 201.195C382.647 200.625 382.651 200.023 382.501 199.45C382.568 199.45 382.627 199.418 382.694 199.418C383.64 199.398 384.555 199.755 385.239 200.409C385.923 201.063 386.319 201.962 386.341 202.908C386.363 203.854 386.009 204.77 385.357 205.456C384.705 206.141 383.807 206.54 382.861 206.565C382.249 206.584 381.644 206.436 381.11 206.137Z" fill="#2F2E41"/>
<path d="M357.635 197.618C358.085 200.185 363.134 201.99 369.205 201.677C374.787 201.419 379.352 199.459 380.189 197.136C379.879 197.044 379.557 197.002 379.235 197.009L358.155 197.553C357.981 197.56 357.807 197.581 357.635 197.618Z" fill="#3F3D56"/>
<path d="M370.317 217.407C370.345 217.4 370.371 217.388 370.395 217.372L373.371 215.424C373.407 215.401 373.437 215.369 373.457 215.331C373.478 215.293 373.489 215.251 373.489 215.208C373.489 215.165 373.478 215.123 373.457 215.085C373.437 215.047 373.407 215.015 373.371 214.992L370.278 212.966C370.25 212.947 370.218 212.934 370.185 212.928C370.151 212.921 370.117 212.922 370.084 212.928C370.05 212.935 370.019 212.949 369.99 212.968C369.962 212.987 369.938 213.011 369.92 213.04C369.901 213.068 369.888 213.1 369.882 213.134C369.875 213.167 369.876 213.201 369.883 213.235C369.89 213.268 369.903 213.3 369.923 213.328C369.942 213.356 369.966 213.38 369.995 213.398L372.758 215.208L370.112 216.94C370.061 216.973 370.023 217.024 370.006 217.082C369.989 217.141 369.992 217.204 370.017 217.26C370.042 217.316 370.085 217.361 370.14 217.388C370.195 217.415 370.258 217.422 370.317 217.407H370.317Z" fill="#6C63FF"/>
<path d="M365.617 217.623C365.667 217.611 365.712 217.584 365.746 217.545C365.781 217.507 365.803 217.459 365.81 217.408C365.817 217.357 365.808 217.305 365.786 217.259C365.763 217.212 365.727 217.174 365.682 217.148L362.939 215.576L365.59 213.607C365.618 213.586 365.641 213.561 365.658 213.532C365.676 213.503 365.687 213.47 365.692 213.437C365.697 213.403 365.695 213.369 365.687 213.336C365.679 213.303 365.664 213.272 365.644 213.245C365.624 213.218 365.598 213.195 365.569 213.177C365.54 213.16 365.508 213.148 365.474 213.143C365.44 213.138 365.406 213.14 365.373 213.148C365.34 213.157 365.309 213.171 365.282 213.192L362.314 215.397C362.279 215.422 362.252 215.456 362.234 215.495C362.215 215.534 362.207 215.576 362.21 215.619C362.212 215.662 362.225 215.704 362.248 215.74C362.271 215.777 362.302 215.807 362.339 215.828L365.425 217.597C365.483 217.631 365.552 217.64 365.617 217.623Z" fill="#6C63FF"/>
<path d="M370.021 219.113C370.046 219.107 370.07 219.097 370.092 219.084C370.121 219.066 370.147 219.043 370.167 219.015C370.187 218.988 370.201 218.957 370.209 218.924C370.217 218.891 370.219 218.857 370.214 218.823C370.208 218.789 370.197 218.757 370.179 218.728L365.96 211.793C365.924 211.734 365.867 211.692 365.8 211.676C365.734 211.66 365.663 211.671 365.605 211.707C365.546 211.742 365.504 211.8 365.488 211.866C365.472 211.933 365.483 212.003 365.518 212.062L369.737 218.997C369.766 219.045 369.809 219.081 369.86 219.102C369.911 219.123 369.968 219.127 370.021 219.113Z" fill="#6C63FF"/>
<path d="M132.856 135.554H109.997C109.065 135.554 108.309 136.31 108.309 137.242V139.476C108.309 140.408 109.065 141.164 109.997 141.164H132.856C133.788 141.164 134.544 140.408 134.544 139.476V137.242C134.544 136.31 133.788 135.554 132.856 135.554Z" fill="#6C63FF"/>
<rect x="193" y="160" width="14" height="10" fill="#FFB6B6"/>
<path d="M146.18 146.774H96.6731C95.7406 146.774 94.9846 147.53 94.9846 148.462V150.695C94.9846 151.628 95.7406 152.384 96.6731 152.384H146.18C147.113 152.384 147.869 151.628 147.869 150.695V148.462C147.869 147.53 147.113 146.774 146.18 146.774Z" fill="#E6E6E6"/>
<path d="M146.18 157.994H96.6731C95.7406 157.994 94.9846 158.75 94.9846 159.682V161.915C94.9846 162.848 95.7406 163.604 96.6731 163.604H146.18C147.113 163.604 147.869 162.848 147.869 161.915V159.682C147.869 158.75 147.113 157.994 146.18 157.994Z" fill="#E6E6E6"/>
<path d="M150.377 195.565L150.489 195.919L150.495 195.93L153.87 206.192L157.753 218.016L165.058 240.238L165.129 243.69V243.702L165.672 271.47L164.167 275.235L165.861 281.407C165.861 281.407 165.082 272.077 160.904 277.435C158.538 280.48 155.77 283.595 153.498 286.516C156.809 287.855 160.172 289.067 163.589 290.151C164.327 290.387 165.07 290.611 165.814 290.835C165.973 290.882 166.132 290.93 166.291 290.977C177.617 294.326 189.326 296.208 201.13 296.576C201.744 296.594 202.346 296.606 202.93 296.618C203.137 296.624 203.337 296.63 203.538 296.63C204.199 296.635 204.854 296.641 205.515 296.641C206.848 296.641 208.176 296.622 209.498 296.582C219.281 296.307 229.007 294.991 238.512 292.658C238.447 288.735 238.27 284.15 238.017 279.252C237.899 276.851 235.249 274.249 235.09 271.735C234.978 269.847 237.356 268.071 237.232 266.153C236.429 254.346 235.426 258.878 234.683 250.517C234.606 249.697 234.535 248.912 234.47 248.163C233.992 242.793 233.662 239.436 233.662 239.436L236.836 219.427L241.823 188.012L241.439 187.38L241.008 187.168L214.708 174.151L213.28 170.493C212.864 169.439 212.142 168.534 211.207 167.893C210.272 167.253 209.167 166.907 208.034 166.899L190.709 166.829C189.81 166.825 188.923 167.035 188.122 167.442C187.32 167.85 186.627 168.442 186.101 169.171L181.41 175.668L150.377 195.565Z" fill="#3F3D56"/>
<path d="M169.053 235.294L165.129 243.69L162.45 249.426L157.841 273.553L155.534 276.002L153.557 267.333L132.868 271.927C132.189 268.156 132.686 272.054 132.267 267.918C132.385 267.8 132.509 267.682 132.633 267.564C132.963 267.257 133.241 266.968 133.235 266.691C132.999 252.423 133.707 228.142 139.62 213.432C140.546 211.03 141.767 208.753 143.254 206.652C143.372 206.493 143.485 206.333 143.597 206.174C146.323 202.356 148.046 198.598 150.489 195.925V195.919C150.504 195.907 150.518 195.893 150.53 195.877C150.539 195.873 150.547 195.867 150.554 195.86L167.336 186.962L168.056 207.189L168.569 221.728L169.053 235.294Z" fill="#3F3D56"/>
<path d="M229.566 237.678L234.468 248.165L236.179 251.818L240.786 275.943L243.085 278.386L245.067 269.719L245.998 269.528L262.788 266.051L267.681 281.593C268.784 279.755 269.219 277.593 268.911 275.472C268.604 273.351 267.574 271.401 265.994 269.952C265.66 269.649 265.382 269.355 265.39 269.076C265.668 252.295 264.642 221.653 255.371 209.041C252.427 205.039 250.661 201.053 248.091 198.268C248.083 198.26 248.083 198.252 248.075 198.252L241.82 188.011L241.438 187.383L241.009 187.168L229.566 237.678Z" fill="#3F3D56"/>
<path d="M199.872 161.898C212.602 161.898 222.921 151.58 222.921 138.851C222.921 126.122 212.602 115.803 199.872 115.803C187.143 115.803 176.823 126.122 176.823 138.851C176.823 151.58 187.143 161.898 199.872 161.898Z" fill="#FFB6B6"/>
<path d="M231.025 122.752C230.847 122.561 230.631 122.408 230.392 122.302C230.153 122.197 229.895 122.14 229.634 122.136L229.98 121.174C230.093 120.871 230.124 120.544 230.069 120.225C230.014 119.906 229.875 119.608 229.666 119.36C229.458 119.113 229.187 118.926 228.883 118.817C228.578 118.709 228.25 118.683 227.932 118.743L226.67 118.986L226.789 118.143C226.834 117.829 226.797 117.509 226.682 117.213C226.566 116.918 226.375 116.658 226.128 116.458C225.881 116.259 225.587 116.127 225.274 116.076C224.961 116.025 224.639 116.057 224.342 116.167C224.072 116.274 223.781 116.318 223.491 116.298C223.201 116.277 222.919 116.192 222.666 116.048C222.412 115.909 222.192 115.716 222.02 115.483C221.849 115.25 221.73 114.982 221.673 114.698L221.233 112.578L221.187 112.464C219.045 108.895 214.928 106.298 209.89 105.346C205.405 104.493 200.806 104.927 196.373 105.336C194.614 105.502 192.628 105.688 190.973 106.702C189.566 107.571 188.376 109.308 188.619 111.062C184.248 109.722 179.562 112.396 177.239 115.769C174.487 119.783 174.037 124.81 173.965 128.742C173.768 138.042 175.687 145.65 179.655 151.361C179.945 151.775 180.017 152.638 180.591 152.928L180.472 152.737C181.114 153.057 181.765 153.575 181.522 154.128C180.824 155.721 185.464 159.244 188.733 160.408C194.697 162.533 202.627 162.352 208.203 161.587L208.4 160.268C210.412 159.994 211.829 159.471 212.228 158.654C212.931 158.054 213.531 157.516 214.054 157.02L214.059 157.014C214.069 157.004 214.09 156.989 214.1 156.978C216.619 154.563 217.204 153.187 217.468 151.092C217.721 149.038 217.271 146.954 216.811 145.076C226.504 146.576 212.993 134.752 222.025 132.466C222.128 132.434 222.234 132.408 222.34 132.388C222.604 132.326 222.868 132.264 223.121 132.192C224.343 131.86 225.513 131.36 226.597 130.707C229.122 129.171 229.954 127.133 231.258 124.836C231.446 124.509 231.525 124.131 231.483 123.756C231.441 123.381 231.281 123.029 231.025 122.752Z" fill="#2F2E41"/>
<path d="M281.392 239.319C281.387 240.224 281.377 241.492 281.335 243.059C281.33 243.276 281.325 243.499 281.32 243.726C281.252 246.607 281.185 249.023 281.077 251.707C281.071 251.894 281.066 252.075 281.056 252.261C280.911 256.006 280.683 260.366 280.29 267.271C279.561 280.027 278.288 269.025 277.011 273.499C276.949 273.721 276.881 273.985 276.819 274.296C276.626 275.422 276.299 276.521 275.847 277.57C275.169 277.973 274.471 278.361 273.783 278.749C271.823 279.841 269.831 280.891 267.824 281.889C266.696 282.447 265.564 282.996 264.426 283.523C264.245 283.606 264.069 283.689 263.893 283.766C258.065 286.462 252.059 288.753 245.918 290.625C244.717 290.987 243.523 291.339 242.312 291.665C241.05 292.017 239.788 292.348 238.51 292.658C229.005 294.991 219.28 296.307 209.496 296.584C208.177 296.625 206.848 296.641 205.513 296.641C204.851 296.641 204.2 296.636 203.537 296.63C203.336 296.63 203.134 296.625 202.932 296.62C202.348 296.605 201.743 296.594 201.132 296.579C189.327 296.211 177.619 294.328 166.294 290.977L165.813 290.837C165.068 290.61 164.328 290.387 163.589 290.149C160.175 289.068 156.811 287.858 153.497 286.518C150.967 285.499 148.467 284.406 145.996 283.239C145.974 283.233 145.952 283.222 145.934 283.208C145.417 282.97 144.894 282.722 144.377 282.468C144.31 282.432 144.237 282.396 144.165 282.36C142.236 281.418 140.327 280.432 138.439 279.401C136.851 275.754 134.616 275.056 133.23 271.849C132.826 270.896 132.535 269.9 132.361 268.88C132.361 268.87 132.356 268.859 132.356 268.844C132.5 270.768 131.74 265.43 132.35 268.823C132.345 268.761 132.34 268.694 132.335 268.616C132.319 268.43 132.299 268.202 132.268 267.918C130.493 250.595 130.607 230.785 129.837 214.46C129.785 213.405 129.731 212.395 129.676 211.429C129.661 211.108 129.64 210.793 129.619 210.483C129.655 210.389 129.697 210.291 129.743 210.198C129.753 210.171 129.765 210.145 129.78 210.12C129.795 210.088 129.812 210.057 129.831 210.027C129.842 210.012 129.857 209.991 129.868 209.976C129.875 209.958 129.884 209.941 129.893 209.924C129.94 209.852 129.992 209.774 130.049 209.702C130.074 209.67 130.095 209.645 130.121 209.619C130.139 209.592 130.16 209.568 130.183 209.546C130.199 209.521 130.218 209.499 130.24 209.479C130.261 209.458 130.281 209.433 130.307 209.407C130.318 209.39 130.332 209.376 130.349 209.365C130.39 209.318 130.435 209.275 130.483 209.236C130.668 209.066 130.865 208.911 131.073 208.77C131.145 208.724 131.223 208.677 131.295 208.626C131.817 208.314 132.365 208.051 132.935 207.839C133.132 207.767 133.328 207.7 133.54 207.627C133.618 207.607 133.69 207.581 133.768 207.555C133.882 207.519 133.995 207.483 134.114 207.457C134.704 207.281 135.34 207.131 136.028 206.991C136.111 206.976 136.199 206.96 136.287 206.939C136.411 206.914 136.54 206.893 136.67 206.872C136.846 206.841 137.027 206.81 137.208 206.779C138.744 206.536 140.487 206.355 142.411 206.236C142.592 206.226 142.773 206.215 142.955 206.205C143.167 206.195 143.379 206.184 143.596 206.174C143.777 206.164 143.963 206.158 144.149 206.153C144.33 206.143 144.517 206.138 144.708 206.133C145.231 206.117 145.768 206.101 146.317 206.091C147.879 206.06 149.524 206.07 151.252 206.107C152.053 206.127 152.871 206.148 153.709 206.184C153.766 206.184 153.817 206.189 153.869 206.189C154.598 206.215 155.333 206.246 156.088 206.288C156.616 206.314 157.148 206.339 157.681 206.37C158.183 206.401 158.69 206.433 159.202 206.469C159.6 206.489 159.999 206.52 160.402 206.546C160.743 206.572 161.085 206.598 161.426 206.619L161.892 206.65C162.145 206.67 162.399 206.686 162.657 206.712C163.226 206.758 163.795 206.805 164.375 206.851C164.949 206.903 165.533 206.955 166.118 207.007C166.702 207.058 167.292 207.115 167.882 207.172C167.944 207.177 168.001 207.183 168.058 207.188C168.596 207.245 169.134 207.296 169.677 207.353C169.801 207.364 169.93 207.374 170.054 207.389C170.572 207.441 171.1 207.502 171.623 207.558C171.783 207.575 171.943 207.592 172.104 207.61C172.513 207.654 172.916 207.693 173.329 207.741C173.872 207.803 174.425 207.86 174.963 207.933C175.382 207.979 175.801 208.026 176.22 208.077C176.877 208.155 177.544 208.238 178.212 208.326C178.465 208.357 178.719 208.388 178.972 208.424C180.876 208.662 182.8 208.926 184.755 209.2C187.719 209.619 190.73 210.074 193.761 210.565C196.797 211.057 199.851 211.576 202.922 212.122C203.698 212.262 204.474 212.402 205.255 212.546C205.606 212.614 205.958 212.681 206.31 212.748C206.91 212.857 207.51 212.971 208.11 213.084C208.71 213.198 209.31 213.312 209.91 213.431C210.624 213.571 211.343 213.71 212.057 213.85C216.759 214.781 221.435 215.774 225.997 216.814C226.747 216.984 227.497 217.16 228.242 217.331C229.732 217.677 231.208 218.029 232.67 218.386C233.074 218.479 233.472 218.578 233.87 218.676C234.863 218.924 235.857 219.172 236.834 219.426L237.005 219.472C237.724 219.648 238.427 219.829 239.131 220.015C240.791 220.45 242.424 220.89 244.029 221.334C245.095 221.629 246.149 221.928 247.19 222.229C248.747 222.679 250.273 223.134 251.757 223.595C252.125 223.709 252.492 223.822 252.854 223.931C253.94 224.267 255.011 224.609 256.051 224.95C256.878 225.219 257.685 225.493 258.482 225.767C259.279 226.041 260.06 226.316 260.825 226.59C261.317 226.766 261.803 226.952 262.289 227.128C262.987 227.386 263.675 227.645 264.348 227.904C264.555 227.981 264.757 228.064 264.958 228.141C265.088 228.198 265.212 228.245 265.336 228.297C265.579 228.395 265.827 228.488 266.065 228.586C266.308 228.679 266.546 228.778 266.784 228.881C267.017 228.974 267.255 229.072 267.483 229.171C267.715 229.264 267.943 229.362 268.171 229.466C268.362 229.543 268.548 229.626 268.729 229.709C269.096 229.869 269.464 230.029 269.821 230.195C269.997 230.278 270.172 230.355 270.348 230.438L270.752 230.624C270.809 230.655 270.866 230.681 270.922 230.707C271.052 230.769 271.186 230.836 271.316 230.898C271.616 231.038 271.91 231.188 272.2 231.328C272.588 231.524 272.966 231.721 273.328 231.912C273.695 232.109 274.052 232.305 274.393 232.497C274.45 232.528 274.502 232.559 274.559 232.59C274.636 232.631 274.714 232.678 274.792 232.719C275.055 232.869 275.309 233.024 275.562 233.174C276.059 233.479 276.53 233.779 276.969 234.079C277.068 234.147 277.161 234.214 277.259 234.276C277.585 234.509 277.895 234.736 278.185 234.969C278.185 234.974 278.185 234.974 278.19 234.974C278.288 235.047 278.382 235.124 278.475 235.197C278.552 235.269 278.635 235.331 278.713 235.404C278.982 235.636 279.23 235.859 279.457 236.086C279.534 236.157 279.606 236.231 279.675 236.309C279.705 236.334 279.732 236.361 279.757 236.392C279.861 236.495 279.954 236.598 280.042 236.702C280.056 236.716 280.068 236.732 280.078 236.748C280.202 236.893 280.316 237.038 280.425 237.183C280.476 237.255 280.533 237.328 280.58 237.4C280.642 237.488 280.704 237.581 280.756 237.669C280.802 237.742 280.844 237.819 280.885 237.892C280.995 238.078 281.088 238.274 281.164 238.476C281.223 238.613 281.269 238.755 281.304 238.9C281.343 239.038 281.373 239.178 281.392 239.319Z" fill="#2F2E41"/>
<path opacity="0.2" d="M281.392 239.319C281.387 240.225 281.377 241.492 281.335 243.059C281.33 243.276 281.32 243.499 281.314 243.726C281.263 245.925 281.185 248.64 281.076 251.708C281.071 251.894 281.066 252.075 281.056 252.261C280.911 256.006 280.683 260.366 280.29 267.272C279.561 280.027 278.288 269.025 277.011 273.499C273.462 271.316 269.572 269.03 265.413 266.682C264.663 266.258 263.906 265.832 263.143 265.404C254.825 260.765 245.535 255.902 235.836 251.087C235.453 250.895 235.065 250.704 234.682 250.518C212.466 239.537 188.216 228.855 168.57 221.728C164.778 220.352 161.157 219.11 157.754 218.019C150.584 215.728 144.387 214.124 139.618 213.431C134.652 212.707 131.223 212.966 129.836 214.46C129.785 213.405 129.731 212.395 129.676 211.429C129.655 211.109 129.635 210.793 129.614 210.483C129.646 210.398 129.687 210.316 129.728 210.234C129.733 210.222 129.737 210.21 129.743 210.198C129.753 210.171 129.765 210.145 129.78 210.121C129.795 210.089 129.812 210.057 129.831 210.028C129.848 209.991 129.869 209.956 129.893 209.924C129.94 209.852 129.992 209.774 130.049 209.702C130.09 209.647 130.135 209.596 130.183 209.546C130.199 209.522 130.218 209.499 130.24 209.479C130.261 209.459 130.281 209.433 130.307 209.407C130.318 209.391 130.332 209.377 130.349 209.365C130.389 209.318 130.434 209.275 130.483 209.236C130.668 209.066 130.865 208.911 131.073 208.771C131.145 208.724 131.223 208.678 131.295 208.626C131.816 208.314 132.365 208.051 132.935 207.84C133.131 207.767 133.328 207.7 133.54 207.627C133.618 207.607 133.69 207.581 133.768 207.555C133.882 207.519 133.995 207.483 134.114 207.457C134.704 207.281 135.34 207.131 136.028 206.991C136.235 206.95 136.452 206.909 136.67 206.872C136.845 206.841 137.027 206.81 137.208 206.779C138.744 206.536 140.487 206.355 142.411 206.236C142.592 206.226 142.773 206.215 142.954 206.205C143.167 206.195 143.379 206.184 143.596 206.174C143.777 206.164 143.963 206.159 144.149 206.153C144.33 206.143 144.517 206.138 144.708 206.133C145.23 206.117 145.768 206.102 146.317 206.091C147.879 206.065 149.524 206.076 151.252 206.112C152.053 206.127 152.871 206.153 153.709 206.19C153.76 206.19 153.817 206.195 153.869 206.195C154.598 206.215 155.338 206.252 156.088 206.288C156.616 206.314 157.148 206.34 157.681 206.371C158.183 206.402 158.69 206.433 159.202 206.469C159.6 206.49 159.999 206.521 160.402 206.546C160.743 206.572 161.085 206.598 161.426 206.619C161.835 206.65 162.244 206.681 162.657 206.712C163.226 206.759 163.795 206.805 164.375 206.852C164.949 206.903 165.533 206.955 166.118 207.007C166.702 207.059 167.292 207.115 167.882 207.172C167.944 207.177 168.001 207.183 168.058 207.188C168.596 207.245 169.134 207.296 169.677 207.353C172.687 207.659 175.786 208.015 178.972 208.424C180.876 208.667 182.803 208.928 184.755 209.205C187.719 209.624 190.73 210.079 193.761 210.565C196.797 211.057 199.851 211.576 202.922 212.122C203.698 212.262 204.474 212.402 205.255 212.547C206.206 212.722 207.158 212.902 208.11 213.084C208.71 213.198 209.31 213.312 209.91 213.431C210.624 213.571 211.343 213.71 212.057 213.85C216.759 214.781 221.435 215.774 225.997 216.814C226.747 216.985 227.497 217.16 228.242 217.331C229.732 217.678 231.208 218.029 232.67 218.386C233.074 218.485 233.472 218.583 233.87 218.681C234.869 218.929 235.857 219.178 236.834 219.426V219.431C236.891 219.441 236.948 219.457 237.005 219.473C237.719 219.654 238.427 219.835 239.131 220.021C240.791 220.455 242.424 220.893 244.029 221.335C245.095 221.635 246.15 221.929 247.19 222.229C248.747 222.685 250.273 223.14 251.757 223.595C252.125 223.709 252.492 223.823 252.854 223.931C253.94 224.273 255.006 224.612 256.051 224.95C256.878 225.219 257.685 225.493 258.482 225.767C259.279 226.042 260.06 226.316 260.825 226.59C261.322 226.766 261.808 226.947 262.289 227.123C262.993 227.381 263.675 227.64 264.348 227.904C264.555 227.981 264.757 228.064 264.958 228.142C265.336 228.286 265.703 228.436 266.065 228.586C266.308 228.68 266.546 228.778 266.784 228.881C267.017 228.974 267.255 229.073 267.483 229.171C267.715 229.264 267.943 229.362 268.171 229.466C268.362 229.543 268.548 229.626 268.729 229.709C269.096 229.869 269.464 230.03 269.821 230.195C269.996 230.278 270.172 230.355 270.348 230.438L270.752 230.624C270.809 230.655 270.866 230.681 270.922 230.707C271.362 230.914 271.786 231.121 272.2 231.328C272.588 231.524 272.966 231.721 273.328 231.912C273.757 232.14 274.166 232.362 274.559 232.59C274.636 232.631 274.714 232.678 274.792 232.719C275.055 232.869 275.309 233.024 275.562 233.174C276.059 233.48 276.53 233.78 276.969 234.08C277.404 234.38 277.807 234.674 278.185 234.969C278.185 234.974 278.185 234.974 278.19 234.974C278.371 235.119 278.547 235.264 278.713 235.404C278.982 235.637 279.23 235.859 279.457 236.087C279.534 236.157 279.606 236.231 279.675 236.309C279.705 236.334 279.732 236.362 279.757 236.392C279.866 236.511 279.975 236.63 280.078 236.749C280.202 236.893 280.316 237.038 280.425 237.183C280.476 237.256 280.533 237.328 280.58 237.4C280.642 237.488 280.704 237.581 280.756 237.669C280.802 237.742 280.844 237.819 280.885 237.892C280.995 238.078 281.088 238.274 281.164 238.476C281.221 238.614 281.268 238.756 281.304 238.9C281.343 239.038 281.373 239.178 281.392 239.319Z" fill="black"/>
</g>
<defs>
<clipPath id="clip0_192_3005">
<rect width="407" height="296" fill="white" transform="translate(0 0.641357)"/>
</clipPath>
</defs>
</svg>
