<svg xmlns="http://www.w3.org/2000/svg" width="500" fill="none" viewBox="0 0 600 687"><rect width="557" height="599" x="21" y="74" fill="#e0f2fe" rx="58"/><rect width="462" height="501" x="69" y="124" fill="#2fade2" rx="58"/><path fill="#6C63FF" d="M401 269.219V655.99l1.286.366a185.883 185.883 0 0 0 25.334 5.469 137.075 137.075 0 0 0 57.977-4.815l.653-.193 1.207-.369 1.652-.531c2.77-.897 5.516-1.879 8.24-2.946l1.652-.654a125.281 125.281 0 0 0 7.745-3.377l1.652-.775c2.638-1.265 5.22-2.6 7.746-4.008.91-.491 1.81-1.02 2.7-1.521a156.432 156.432 0 0 0 7.914-4.876 164.548 164.548 0 0 0 8.052-5.639c1.214-.9 2.414-1.819 3.601-2.766a161.373 161.373 0 0 0 19.161-17.821c.326-.336.633-.682.94-1.02a154.962 154.962 0 0 0 4.609-5.364c.554-.674 1.108-1.348 1.652-2.042 1.774-2.23 3.486-4.51 5.134-6.842.248-.339.485-.685.722-1.023a148.818 148.818 0 0 0 16.688-31.11c.139-.338.268-.684.386-1.022 1.319-3.5 2.523-7.06 3.611-10.678.445-1.511.87-3.062 1.246-4.57.129-.451.248-.909.356-1.358 5.461-22.165 6.084-45.208 6.084-68.12v-8.007c-.158-37.058-.712-74.75-6.014-111.299 0-.255-.07-.511-.109-.757a357.32 357.32 0 0 0-7.231-36.536H484.628v-52.567h-20.141V227H421.14v42.219H401ZM100 533h149v20H100v-20ZM100 594h149v20H100v-20Z" opacity=".1"/><path fill="#6C63FF" d="M428 278h27v29h-27v-29ZM428 344h27v29h-27v-29ZM428 411h27v28h-27v-28ZM428 477h27v28h-27v-28ZM428 543h27v28h-27v-28ZM428 609h27v29h-27v-29ZM593 357v17H487v-17h106Zm-9.44 15.938h7.78v-14.873h-7.78v14.873Zm-9.441 0h7.781v-14.873h-7.781v14.873Zm-9.44 0h7.781v-14.873h-7.781v14.873Zm-9.44 0h7.781v-14.873h-7.781v14.873Zm-9.441 0h7.781v-14.873h-7.781v14.873Zm-9.44 0h7.781v-14.873h-7.781v14.873Zm-9.44 0h7.781v-14.873h-7.781v14.873Zm-9.441 0h7.781v-14.873h-7.781v14.873Zm-9.44 0h7.781v-14.873h-7.781v14.873Zm-9.44 0h7.781v-14.873h-7.781v14.873Zm-9.937 0h8.277v-14.873h-8.277v14.873ZM593 406v15H487v-15h106Zm-9.44 14.06h7.78v-13.12h-7.78v13.12Zm-9.441 0h7.781v-13.12h-7.781v13.12Zm-9.44 0h7.781v-13.12h-7.781v13.12Zm-9.44 0h7.781v-13.12h-7.781v13.12Zm-9.441 0h7.781v-13.12h-7.781v13.12Zm-9.44 0h7.781v-13.12h-7.781v13.12Zm-9.44 0h7.781v-13.12h-7.781v13.12Zm-9.441 0h7.781v-13.12h-7.781v13.12Zm-9.44 0h7.781v-13.12h-7.781v13.12Zm-9.44 0h7.781v-13.12h-7.781v13.12Zm-9.937 0h8.277v-13.12h-8.277v13.12ZM593 453v16H487v-16h106Zm-9.44 14.997h7.78v-13.994h-7.78v13.994Zm-9.441 0h7.781v-13.994h-7.781v13.994Zm-9.44 0h7.781v-13.994h-7.781v13.994Zm-9.44 0h7.781v-13.994h-7.781v13.994Zm-9.441 0h7.781v-13.994h-7.781v13.994Zm-9.44 0h7.781v-13.994h-7.781v13.994Zm-9.44 0h7.781v-13.994h-7.781v13.994Zm-9.441 0h7.781v-13.994h-7.781v13.994Zm-9.44 0h7.781v-13.994h-7.781v13.994Zm-9.44 0h7.781v-13.994h-7.781v13.994Zm-9.937 0h8.277v-13.994h-8.277v13.994ZM593 500v16H487v-16h106Zm-9.44 15h7.78v-14h-7.78v14Zm-9.441 0h7.781v-14h-7.781v14Zm-9.44 0h7.781v-14h-7.781v14Zm-9.44 0h7.781v-14h-7.781v14Zm-9.441 0h7.781v-14h-7.781v14Zm-9.44 0h7.781v-14h-7.781v14Zm-9.44 0h7.781v-14h-7.781v14Zm-9.441 0h7.781v-14h-7.781v14Zm-9.44 0h7.781v-14h-7.781v14Zm-9.44 0h7.781v-14h-7.781v14Zm-9.937 0h8.277v-14h-8.277v14ZM592 548a99.01 99.01 0 0 1-1.245 4.48V549h-7.734v14h4.129a20.51 20.51 0 0 1-.385 1H487v-16h105Zm-18.363 15h7.735v-14h-7.735v14Zm-9.383 0h7.734v-14h-7.734v14Zm-9.384 0h7.734v-14h-7.734v14Zm-9.384 0h7.734v-14h-7.734v14Zm-9.384 0h7.734v-14h-7.734v14Zm-9.384 0h7.734v-14h-7.734v14Zm-9.384 0h7.735v-14h-7.735v14Zm-9.383 0h7.734v-14h-7.734v14Zm-9.384 0h7.734v-14h-7.734v14Zm-9.878 0h8.228v-14h-8.228v14ZM571 595c-.24.331-.48.67-.729 1.001h-5.185v6.706c-.549.667-1.109 1.328-1.668 1.998v-8.694h-7.822v13.99h3.167c-.31.329-.619.668-.949.999H487v-15.988l84-.012Zm-24.894 14.991h7.822v-13.99h-7.822v13.99Zm-9.489 0h7.821v-13.99h-7.821v13.99Zm-9.49 0h7.821v-13.99h-7.821v13.99Zm-9.49 0h7.822v-13.99h-7.822v13.99Zm-9.49 0h7.822v-13.99h-7.822v13.99Zm-9.489 0h7.821v-13.99h-7.821v13.99Zm-9.99 0h8.321v-13.99h-8.321v13.99ZM518 643c-.879.491-1.768.961-2.667 1.433v-.472h-7.65v4.251l-1.632.729v-4.98h-7.649v8.164l-1.632.616v-8.78h-8.138v11.538L487 656v-13h31ZM193.466 216.033s23.053-1.543 20.307 16.358c.14.909.019 1.845-.35 2.673a4.19 4.19 0 0 1-1.701 1.936s0-1.329-2.358-.879a9.754 9.754 0 0 1-2.506.129c-1.132-.083-2.206-.572-3.066-1.394 0 0-6.479-2.969-9.001-14.707 0 0-1.858-2.561-1.789-3.215l3.868 1.843s-1.336 3.109-.29 5.692c0 0 .126-5.574.879-5.445.145 0 2.022 1.072 2.022 1.072s-2.292 5.424-.562 9.358c0 0-.658-6.668 1.267-8.961l2.804 1.79s-2.678 5.595-.86 10.161c0 0-.474-6.999 1.431-9.722l2.485 2.144s-2.513 5.509-.967 9.304c0 0 .204-8.157 1.519-8.779.943.882 1.784 1.89 2.504 3.001 0 0-1.72 3.999-.658 6.11 0 0 .658-5.423 1.198-5.456 0 0 2.158 3.602 2.38 6.067-.1-2.287-.738-4.505-1.856-6.431 1.246.261 2.394.921 3.307 1.897 0 0-.339-2.54-3.869-2.765 0 0-1.789-2.723-2.272-2.894 0 0 3.492-.322 5.609.718 0 0-1.867-2.401-6.248-1.308l-2.446-2.219s4.595-.697 6.539.075c0 0-2.235-2.144-7.196-.579l-2.668-1.768c2.048-.498 4.149-.7 6.246-.601 0 0-2.456-1.468-7.03.129l-1.934-.954s2.901-.622 3.704-.718c.803-.097.889-.354.889-.354a9.036 9.036 0 0 0-5.386.665s-4.014-1.694-3.945-1.973ZM255.056 299.209s8.025 23.235-8.536 25.359a3.836 3.836 0 0 1-2.447.371 3.942 3.942 0 0 1-2.19-1.21s1.152-.405.09-2.673a12.266 12.266 0 0 1-.849-2.526 5.874 5.874 0 0 1 .357-3.53s.737-7.467 10.345-13.276c0 0 1.715-2.62 2.314-2.724l-.493 4.504s-3.121-.516-5.1 1.264c0 0 4.923-1.399 5.052-.59 0 .155-.364 2.371-.364 2.371s-5.435-.87-8.398 1.988c0 0 5.689-2.505 8.26-1.149l-.769 3.293s-5.699-1.2-9.193 1.905c0 0 6.024-2.393 8.977-1.19l-1.171 3.106s-5.583-1.036-8.476 1.543c0 0 7.244-2.07 8.161-.849a16.468 16.468 0 0 1-1.911 3.385s-4.026-.661-5.571 1.035c0 0 4.972-.816 5.149-.277 0 0-2.551 3.21-4.656 4.14a12.063 12.063 0 0 0 5.109-3.675 7.287 7.287 0 0 1-.72 3.925s2.146-1.035 1.329-4.713c0 0 1.892-2.576 1.892-3.105 0 0 1.299 3.489.984 5.953 0 0 1.574-2.578-.65-6.772l1.239-3.106s1.97 4.525 1.831 6.74c0 0 1.223-2.889-1.574-7.559l.779-3.22a26.72 26.72 0 0 1 2.333 6.214s.589-2.93-2.137-7.188l.287-2.215s1.377 2.775 1.702 3.614c.325.839.57.806.57.806a10.916 10.916 0 0 0-2.137-5.351s.316-4.618.582-4.618ZM98.06 279.216s8.015 23.282-8.538 25.353c-.759.392-1.62.521-2.454.369a3.955 3.955 0 0 1-2.192-1.219s1.161-.402.09-2.66a11.438 11.438 0 0 1-.837-2.536 5.88 5.88 0 0 1 .344-3.534s.737-7.465 10.349-13.275c0 0 1.722-2.61 2.323-2.714l-.502 4.495s-3.121-.509-5.1 1.274c0 0 4.92-1.399 5.059-.6 0 .165-.364 2.37-.364 2.37s-5.435-.859-8.408 1.99c0 0 5.692-2.498 8.27-1.15l-.776 3.304s-5.702-1.213-9.197 1.905c0 0 6.034-2.404 8.988-1.203l-1.171 3.108s-5.583-1.035-8.477 1.542c0 0 7.237-2.071 8.162-.837a16.063 16.063 0 0 1-1.97 3.386s-4.016-.674-5.57 1.035c0 0 4.971-.817 5.148-.27 0 0-2.542 3.2-4.647 4.144a11.965 11.965 0 0 0 5.1-3.676 7.337 7.337 0 0 1-.71 3.925s2.137-1.038 1.32-4.703c0 0 1.891-2.589 1.901-3.106 0 0 1.29 3.5.985 5.955 0 0 1.574-2.569-.65-6.774l1.239-3.106s1.97 4.525 1.831 6.731c0 0 1.223-2.88-1.574-7.55l.788-3.23a26.703 26.703 0 0 1 2.334 6.214s.58-2.933-2.147-7.188l.284-2.216s1.38 2.775 1.715 3.615c.334.836.57.806.57.806a11.006 11.006 0 0 0-2.147-5.354s.354-4.607.63-4.62ZM322.058 467.196s8.02 23.249-8.535 25.373a3.828 3.828 0 0 1-2.449.369 3.926 3.926 0 0 1-2.187-1.219s1.152-.404.088-2.66a11.565 11.565 0 0 1-.846-2.539 5.794 5.794 0 0 1 .354-3.531s.739-7.468 10.345-13.267c0 0 1.712-2.62 2.313-2.722l-.492 4.495s-3.13-.509-5.099 1.271c0 0 4.922-1.396 5.05-.6 0 .165-.363 2.373-.363 2.373s-5.434-.859-8.396 1.987c0 0 5.688-2.495 8.258-1.15l-.769 3.304s-5.698-1.21-9.194 1.906c0 0 6.025-2.402 8.978-1.201l-1.171 3.108s-5.581-1.037-8.476 1.542c0 0 7.235-2.071 8.161-.84a16.597 16.597 0 0 1-1.911 3.389s-4.024-.674-5.581 1.035c0 0 4.983-.819 5.16-.27 0 0-2.551 3.2-4.658 4.144a12.006 12.006 0 0 0 5.109-3.668 7.237 7.237 0 0 1-.718 3.915s2.146-1.036 1.329-4.701c0 0 1.879-2.589 1.891-3.108 0 0 1.297 3.502.982 5.957 0 0 1.576-2.569-.648-6.774l1.239-3.108s1.969 4.527 1.821 6.733c0 0 1.222-2.88-1.573-7.55l.785-3.22a26.438 26.438 0 0 1 2.335 6.212s.589-2.941-2.136-7.186l.284-2.229s1.379 2.778 1.704 3.615c.325.839.57.809.57.809a10.885 10.885 0 0 0-2.146-5.354s.325-4.64.592-4.64ZM354.181 251.209s7.514 23.236-8.004 25.36a3.395 3.395 0 0 1-2.298.369 3.656 3.656 0 0 1-2.058-1.208s1.089-.405.084-2.674a12.55 12.55 0 0 1-.785-2.535 6.203 6.203 0 0 1 .323-3.52s.692-7.468 9.709-13.277c0 0 1.608-2.62 2.172-2.724l-.473 4.504s-2.924-.516-4.77 1.264c0 0 4.613-1.398 4.734-.59 0 .156-.341 2.371-.341 2.371s-5.096-.87-7.884 1.989c0 0 5.337-2.505 7.754-1.15l-.719 3.294s-5.345-1.211-8.631 1.905c0 0 5.657-2.404 8.427-1.19l-1.098 3.105s-5.235-1.035-7.947 1.554c0 0 6.785-2.07 7.651-.849a16.825 16.825 0 0 1-1.79 3.385s-3.776-.661-5.234 1.038c0 0 4.661-.819 4.827-.28 0 0-2.38 3.21-4.356 4.141 1.853-.738 3.504-2.005 4.791-3.676a7.664 7.664 0 0 1-.676 3.925s2.013-1.035 1.237-4.713c0 0 1.774-2.577 1.783-3.106 0 0 1.21 3.49.923 5.954 0 0 1.487-2.579-.609-6.773l1.173-3.105s1.846 4.525 1.708 6.74c0 0 1.143-2.887-1.478-7.559l.739-3.22a27.723 27.723 0 0 1 2.187 6.213s.545-2.93-2.003-7.187l.259-2.216s1.301 2.775 1.606 3.604c.304.83.535.819.535.819-.213-1.961-.911-3.815-2.011-5.353 0 0 .284-4.629.543-4.629ZM295 375.769s-6.396 23.746-21.564 15.486a4.111 4.111 0 0 1-2.274-1.179 4.217 4.217 0 0 1-1.162-2.31s1.2.37 1.575-2.118c.145-.882.391-1.747.734-2.571a5.44 5.44 0 0 1 2.286-2.663s4.851-5.637 16.268-4.564c0 0 2.927-1.083 3.496-.804l-2.968 3.355s-2.349-2.303-5.023-2.064c0 0 4.973 1.856 4.605 2.569-.08.144-1.645 1.714-1.645 1.714s-4.067-3.994-8.217-3.469c0 0 6.213 1.405 7.616 4.067l-2.512 2.222s-4.127-4.431-8.845-4.017c0 0 6.456 1.694 8.267 4.46l-2.765 1.849s-4.067-4.245-8.031-3.862c0 0 7.257 2.716 7.37 4.242a15.614 15.614 0 0 1-3.539 1.601s-3.05-2.972-5.276-2.549c0 0 4.668 2.343 4.505 2.891 0 0-3.967 1.032-6.253.535a12.19 12.19 0 0 0 6.383.104 6.802 6.802 0 0 1-2.825 2.756s2.399.444 3.782-3.035c0 0 3.05-.961 3.376-1.395 0 0-.895 3.637-2.542 5.452 0 0 2.784-1.146 3.283-5.916l2.817-1.785s-.927 4.864-2.269 6.586c0 0 2.665-1.611 2.95-7.103l2.479-2.148a25.995 25.995 0 0 1-1.565 6.504s2.146-2.064 2.257-7.143l1.495-1.641s-.406 3.096-.599 3.974c-.195.877 0 1.032 0 1.032a10.768 10.768 0 0 0 1.22-5.658s2.877-3.56 3.11-3.405ZM126 397.717s-6.396 23.817-21.554 15.533a4.09 4.09 0 0 1-2.284-1.178A4.221 4.221 0 0 1 101 409.75s1.21.374 1.585-2.07c.135-.888.378-1.753.721-2.579a5.542 5.542 0 0 1 2.299-2.671s4.849-5.654 16.265-4.568c0 0 2.93-1.096 3.489-.816l-2.958 3.365s-2.349-2.31-5.023-2.073c0 0 4.971 1.864 4.595 2.579-.07.145-1.648 1.719-1.648 1.719s-4.067-4.008-8.214-3.479c0 0 6.223 1.409 7.626 4.079l-2.522 2.229s-4.067-4.444-8.835-4.029c0 0 6.446 1.699 8.257 4.474l-2.768 1.851s-4.064-4.255-8.021-3.871c0 0 7.26 2.724 7.363 4.255a15.511 15.511 0 0 1-3.529 1.605s-3.05-2.981-5.276-2.556c0 0 4.655 2.35 4.502 2.9 0 0-3.964 1.035-6.263.536 2.089.603 4.293.639 6.396.105a6.885 6.885 0 0 1-2.827 2.764s2.401.445 3.784-3.044c0 0 3.05-.964 3.363-1.399 0 0-.884 3.647-2.529 5.468 0 0 2.784-1.149 3.283-5.934l2.815-1.81s-.925 4.875-2.277 6.605c0 0 2.665-1.615 2.948-7.124l2.491-2.155a25.916 25.916 0 0 1-1.575 6.524s2.154-2.07 2.267-7.165l1.495-1.648s-.409 3.108-.601 3.988c-.193.88 0 1.036 0 1.036a10.78 10.78 0 0 0 1.219-5.675s2.868-3.604 3.103-3.449Z" opacity=".1"/><path fill="#CED7E7" d="M189.26 633s-51.463-17.927-40.807-81.444L213.821 534 229 586.117 189.26 633Z"/><path fill="#000" d="M229 586.373 189.265 633s-51.467-17.829-40.813-81L229 586.373Z" opacity=".1"/><path fill="#FED253" d="M444.923 119.115s-7.333 12.316-17.359 6.163c-10.025-6.153-.408-23.151-.408-23.151s19.203-2.715 17.767 16.988Z"/><path fill="#000" d="M427.558 125.287c1.183.79 2.51 1.323 3.899 1.564 1.39.242 2.812.189 4.181-.158 3.678-.963 6.508-3.884 8.027-5.799.454-.561.874-1.15 1.258-1.764.514-7.033-1.603-11.221-4.538-13.688-4.035-3.387-9.62-3.527-12.031-3.419-.744 0-1.174.108-1.174.108l-.199.346a41.267 41.267 0 0 0-1.561 3.409c-2.243 5.356-4.915 15.062 2.138 19.401Z" opacity=".1"/><path fill="#FFA2A2" d="m183.681 549-35.539 2.983-66.142.564 52.114 66.627s16.535.934 19.942 3.354c3.404 2.419 51.223 1.128 51.223 1.128L213 589.501 183.681 549Z"/><path fill="#000" d="m183.681 549-35.539 2.983-66.142.564 52.114 66.627s16.535.934 19.942 3.354c3.404 2.419 51.223 1.128 51.223 1.128L213 589.501 183.681 549Z" opacity=".05"/><path fill="#CED7E7" d="m219.213 370.438-8.227 14.486-1.789 25.254s-5.731 21.534-10.026 27.847c-4.295 6.316-6.084 23.035-6.084 23.035s-1.79 15.596-3.932 18.93c-2.143 3.337-5.012 27.542-5.012 27.542s-18.972 39.364-36.143 44.19c0 0 85.169 28.967 40.438 80.958 0 0 31.845 8.162 39.365-1.11C235.321 622.298 255 484.876 255 484.876L248.916 369l-29.703 1.438Z"/><path fill="#000" d="m219.213 370.438-8.227 14.486-1.789 25.254s-5.731 21.534-10.026 27.847c-4.295 6.316-6.084 23.035-6.084 23.035s-1.79 15.596-3.932 18.93c-2.143 3.337-5.012 27.542-5.012 27.542s-18.972 39.364-36.143 44.19c0 0 85.169 28.967 40.438 80.958 0 0 31.845 8.162 39.365-1.11C235.321 622.298 255 484.876 255 484.876L248.916 369l-29.703 1.438Z" opacity=".05"/><path fill="#FFA2A2" d="M324.35 228.701a82.546 82.546 0 0 1-2.078 38.796L335.602 307s101.518-58.511 92.876-72.679c-4.895-8.036-5.518-29.296-5.122-46.187.287-12.836 1.167-23.134 1.167-23.134s-124.585 12.683-108.003 42.123a71.09 71.09 0 0 1 7.83 21.578Z"/><path fill="#000" d="M316.508 207.225a71.511 71.511 0 0 1 7.793 21.63c18.403 6.138 38.274 5.441 56.238-1.972 17.965-7.414 32.911-21.086 42.3-38.693C423.124 175.323 424 165 424 165s-123.966 12.714-107.492 42.225Z" opacity=".1"/><path fill="#FFA2A2" d="M266 144.456c-.009 13.608 3.082 27.026 9.024 39.164 5.939 12.137 14.563 22.651 25.164 30.687 10.602 8.037 22.886 13.368 35.851 15.562a80.742 80.742 0 0 0 38.769-2.937c12.52-4.125 23.924-11.251 33.284-20.8 9.361-9.549 16.414-21.25 20.586-34.154a89.42 89.42 0 0 0 3.425-40.106c-1.92-13.462-6.88-26.265-14.476-37.367a88.314 88.314 0 0 0-3.73-5.036c-7.44-9.366-16.699-17.007-27.174-22.427a80.22 80.22 0 0 0-17.864-6.708 80.842 80.842 0 0 0-34.059-.972c-11.297 2.1-22.056 6.584-31.608 13.175-9.552 6.59-17.693 15.147-23.914 25.136-6.223 9.99-10.395 21.199-12.254 32.929A90.456 90.456 0 0 0 266 144.456Z"/><path fill="#CED7E7" d="M232.856 500.635c1.256 6.919-.316 19.557-2.698 32.422a99.567 99.567 0 0 1-.316 1.684c-.11.561-.268 1.428-.404 2.132a487.068 487.068 0 0 1-3.46 15.987 732.729 732.729 0 0 1-3.104 12.752 459.733 459.733 0 0 1-2.265 8.559s-.119 3.245-.275 8.407c-.09 2.979-.19 6.61-.287 10.619 0 1.166-.071 2.348-.1 3.571-.049 2.132-.097 4.348-.148 6.613 0 .734 0 1.468-.049 2.212 0 2.438-.09 4.929-.129 7.407-.049 3.408-.088 6.816-.107 10.121v12.712c.107 7.905.414 13.874 1.066 15.598.227.591.436 1.235.633 1.907a66.362 66.362 0 0 1 1.858 9.662l1.68-1.418c3.214-2.734 6.396-5.53 9.627-8.244a140.446 140.446 0 0 1 17.06-12.629c.407-.246.811-.489 1.227-.724a60.224 60.224 0 0 1 3.38-1.877 75.612 75.612 0 0 1 7.255-3.305c11.417-4.491 23.644-6.122 36.04-5.846 4.942 1.947 8.154 3.345 8.154 3.345l6.286 1.96 1.047.325c6.813 2.143 16.388 5.182 19.839 6.448 5.575 2.042 53.979 12.436 53.979 12.436a77.915 77.915 0 0 0 13.502 2.55 185.492 185.492 0 0 0 25.314 5.471 136.886 136.886 0 0 0 57.933-4.817 8.898 8.898 0 0 0 1.68-.052c-.346 0-.682-.08-.988-.143l1.206-.366 1.651-.531a144.447 144.447 0 0 0 8.233-2.947l1.651-.654a124.809 124.809 0 0 0 7.74-3.378l1.65-.774a141.926 141.926 0 0 0 7.74-4.009c.909-.491 1.809-1.02 2.698-1.521a156.982 156.982 0 0 0 7.908-4.876c.435-3.846.662-6.417.662-6.417l3.855-19.813.198-1.02 2.767-14.283.198-1.02 6.02-31.074.197-1.022 2.768-14.283.198-1.019 6.098-31.054.198-1.02 2.768-14.283.197-1.02 6.05-31.116.197-1.02 2.768-14.232.198-1.02 1.097-5.613 1.65-8.497s5.269-7.773 11.2-16.967l.662-1.019c1.69-2.581 3.43-5.265 5.12-7.896.563-.867 1.107-1.724 1.651-2.571a565.754 565.754 0 0 0 2.392-3.766l.533-.847.109-.173c8.521-13.609 2.817-19.525 2.817-19.525s-3.578-4.999-8.194-11.611a54.108 54.108 0 0 0-.712-1.02c-1.977-2.857-4.151-5.979-6.286-9.101l-1.651-2.428a177.304 177.304 0 0 1-1.829-2.714 28.741 28.741 0 0 1-.682-1.02c-4.556-6.793-8.312-12.721-9.083-14.824-1.206-3.315-8.896-13.117-16.557-21.719-6.039-6.793-12.049-12.832-14.747-14.283-6.119-3.335-8.639-14.118-8.639-14.118s-13.315-4.816-15.114-8.529c-1.799-3.714-26.994-20.404-26.994-20.404s-10.191-6.773-14.313-10.855a8.64 8.64 0 0 1-1.512-1.827c-1.433-2.651-10.794-4.835-14.599-5.621-.989-.204-1.602-.316-1.602-.316a33.162 33.162 0 0 0-5.762-7.804c-1.552-1.419-3.489-6.305-5.12-11.039a198.497 198.497 0 0 1-3.143-10.13c-2.887-10.029-8.64-7.06-8.64-7.06a21.065 21.065 0 0 1-.375 4.08c-2.402 12.243-15.45 17.344-22.299 23.067-7.562 6.305-19.433 22.659-28.794 25.994-7.749 2.766-16.734 13.192-19.582 16.67l-.217.266c-.475.571-.711.897-.711.897s-5.308-.286-8.541-.346h-1.176a3.383 3.383 0 0 1-1.799-.754c-3.212-2.255-7.996-8.868-10.083-10.386-2.51-1.867-5.039-31.953-5.039-31.953l-.129-.061c-8.965-4.336-18.583 39.062-18.583 39.062s-16.911 5.205-18.355 8.918c-.278.735-1.551 2.04-3.47 3.621a189.4 189.4 0 0 1-27.775 18.209c-.217.113-.424.226-.643.319a6.704 6.704 0 0 1-.602.295c-.367.183-.723.346-1.059.499-.533.246-1.027.449-1.483.614l-.591.213a14.144 14.144 0 0 0-3.954 2.112c-.356.266-.711.541-1.059.837a28.416 28.416 0 0 0-3.696 3.836c-.168.203-.327.416-.485.622-.75.97-1.422 1.927-1.977 2.816a42.122 42.122 0 0 0-2.481 4.263s-14.747 26.007-19.432 28.964C214.878 355.044 212 385.15 212 385.15l15.816 60.507s.74 15.305 2.126 30.913c.769 8.753 1.748 17.658 2.914 24.065Z"/><path fill="#63667E" d="M352 281.442s10.474 5.975 18.655 6.54c1.07.053 2.144-.012 3.202-.196 8.57-1.364 21.143-8.777 21.143-8.777L380.25 262l-17.941 9.352-6.599 6.457-3.71 3.633Z"/><path fill="#000" d="M267 130.221c.376.545.8 1.052 1.271 1.511 5.178 5.072 14.375 2.972 21.435 1.796a76.31 76.31 0 0 0 17.851-5.316c4.982-2.191 10.96-4.868 15.44-1.724 1.722 1.197 2.906 3.114 4.695 4.169 1.793 1.055 4.078 1.126 6.195 1.156 6.893 0 13.786.082 20.509-1.521 10.034-2.414 20.412-8.49 29.953-4.484 7.464 3.125 11.51 11.493 13.529 19.537.985 3.946 1.713 8.115 3.939 11.462 2.225 3.347 6.528 5.721 10.191 4.149 5.405-2.323 6.203-11.777 12.721-12.254 7.158-.517 7.07 7.101 4.982 12.609-3.092 8.115-7.138 16.229-7.316 24.689 7.694-14.195 11.329-30.344 10.486-46.578-.844-16.235-6.131-31.892-15.251-45.16a9.202 9.202 0 0 1-3.555-4.28 6.51 6.51 0 0 1-.177-.73c-.541-2.83.985-5.803 1.073-8.764.345-7.233-7.257-12.274-14.228-13.187-4.637-.609-9.383-.142-14.031-.294a30.851 30.851 0 0 1-6.941-.954 33.036 33.036 0 0 1-10.831-5.73 81.298 81.298 0 0 0-34.073-.968c-11.303 2.089-22.066 6.551-31.622 13.11-9.556 6.558-17.701 15.072-23.927 25.011-6.223 9.94-10.397 21.093-12.257 32.765l-.061-.02Z" opacity=".1"/><path fill="#896363" d="M264.52 123.877a11.19 11.19 0 0 0 2.973 5.265c5.212 5.062 14.468 2.956 21.573 1.782a76.336 76.336 0 0 0 17.966-5.265c5.014-2.177 11.028-4.85 15.539-1.711 1.733 1.194 2.922 3.108 4.726 4.161 1.804 1.053 4.103 1.124 6.234 1.144 6.935.051 13.872.091 20.641-1.508 10.098-2.42 20.543-8.475 30.145-4.486 7.511 3.118 11.584 11.482 13.616 19.511.991 3.939 1.724 8.101 3.964 11.432 2.239 3.331 6.57 5.72 10.256 4.151 5.44-2.319 6.243-11.755 12.803-12.231 7.205-.516 7.115 7.088 5.015 12.586-3.687 9.588-8.701 19.126-7.056 29.292 1.635 0 4.34-.061 5.946-.101-1.249-2.177 1.129-4.769 3.498-5.508 2.368-.74 5.133-.729 6.937-2.491 1.803-1.762 1.813-4.486 1.625-6.926a48.485 48.485 0 0 0-3.697-15.127c-1.298-3.038-2.972-6.328-1.982-9.508a27.22 27.22 0 0 1 2.141-4.141c2.061-4.05 1.575-9.113-.188-13.295-.753-1.781-1.298-3.462-1.923-5.062a22.654 22.654 0 0 0-3.379-6.308c-2.269-2.886-4.489-7.23-1.982-9.913.634-.678-.634-1.144-.228-2.025.072-.15.122-.311.149-.476a4.675 4.675 0 0 0-.714-3.037 7.56 7.56 0 0 0-.386-.679 5.768 5.768 0 0 0-.387-.668 31.925 31.925 0 0 0-8.572-9.548c-2.15-1.59-4.667-3.119-5.519-5.69-.991-3.038.753-6.268.902-9.478.347-7.22-7.304-12.252-14.32-13.163-7.016-.911-14.289.598-21.127-1.255-9.702-2.613-16.52-11.36-25.33-16.272a35.265 35.265 0 0 0-15.624-4.305 35.205 35.205 0 0 0-15.889 3.151c-10.286 4.8-18.043 14.5-28.786 18.145-3.805 1.296-7.928 1.812-11.358 3.959-3.961 2.49-6.371 6.844-8.431 11.137-3.141 6.511-3.776 13.052-5.946 19.947-1.726 5.468-4.113 12.616-4.311 18.914a19.315 19.315 0 0 0 .486 5.6Z"/><g fill="#000" opacity=".1"><path d="M428.969 111.427a4.703 4.703 0 0 1-.045-1.997 4.626 4.626 0 0 1 .788-1.825c-.257.797.862 1.257.248 1.921a4.141 4.141 0 0 0-.991 1.901ZM429.741 105.265c.117.357.187.728.208 1.104-.188-.328-.445-.665-.208-1.104ZM267.674 127.052c5.218 5.109 14.458 2.994 21.578 1.798a75.227 75.227 0 0 0 17.933-5.344c5.02-2.208 11.021-4.905 15.539-1.737 1.722 1.205 2.91 3.137 4.722 4.2 1.812 1.062 4.1 1.134 6.23 1.154 6.93 0 13.862.092 20.636-1.533 10.081-2.432 20.519-8.532 30.115-4.516 7.506 3.157 11.576 11.588 13.606 19.692.99 3.975 1.713 8.175 3.961 11.547 2.248 3.372 6.576 5.764 10.249 4.19 5.437-2.35 6.239-11.864 12.795-12.345 5.12-.378 6.546 3.403 6.199 7.603-.297-3.209-1.981-5.682-6.199-5.375-6.556.48-7.358 10.004-12.795 12.345-3.673 1.583-8.011-.797-10.249-4.19-2.238-3.393-2.971-7.573-3.961-11.537-2.03-8.104-6.1-16.545-13.606-19.692-9.596-4.027-20.034 2.044-30.115 4.517-6.735 1.624-13.726 1.573-20.636 1.522-2.13 0-4.379-.061-6.23-1.144-1.851-1.084-2.971-2.995-4.722-4.211-4.518-3.157-10.519-.459-15.539 1.737a75.669 75.669 0 0 1-17.933 5.355c-7.12 1.186-16.36 3.322-21.578-1.808-2.834-2.79-3.686-6.827-3.498-11.241.159 3.505 1.149 6.683 3.498 9.013ZM415.163 76.1c.055.509.075 1.02.06 1.533-.099 2.125-.882 4.25-1.129 6.325-.367-2.544.772-5.201 1.069-7.858ZM435.286 148.603a7.977 7.977 0 0 0-.188.93 7.578 7.578 0 0 1 .188-3.157 26.91 26.91 0 0 1 2.139-4.19 12.936 12.936 0 0 0 1.298-4.854 13.836 13.836 0 0 1-1.298 7.092 26.37 26.37 0 0 0-2.139 4.179ZM422.995 186.393l5.794-.092a2.64 2.64 0 0 0 .178 2.228c-1.634 0-4.347.061-5.942.102a25.827 25.827 0 0 1-.287-5.293c.023 1.023.109 2.043.257 3.055ZM432.474 180.742c2.367-.735 5.12-.745 6.883-2.534a6.6 6.6 0 0 0 1.644-4.282c.148 2.351 0 4.885-1.644 6.52-1.763 1.788-4.516 1.799-6.883 2.534a5.824 5.824 0 0 0-2.104 1.15 6.037 6.037 0 0 0-1.49 1.916c-1.001-2.115 1.297-4.599 3.594-5.304Z"/></g><path fill="#000" d="M252 641a62.541 62.541 0 0 1 3.412-1.885 77.462 77.462 0 0 1 7.327-3.321c11.528-4.511 23.875-6.149 36.391-5.872 4.991 1.958 8.234 3.36 8.234 3.36l6.348 1.969 1.06.327c.068-.718.147-1.435.218-2.163.069-.727.15-1.424.229-2.142 2.237-21.736 3.993-44.07 3.993-44.07v-21.532l.12-56.83.998-18.734.47-8.292.088-1.578.18-3.24.101-1.925c.219-.612.405-1.234.558-1.866.071-.256.14-.543.199-.84.251-1.025.521-2.346.799-3.781 1.827-9.43 4.113-25.327 4.253-28.554.18-4.304 3.811-30.051 3.811-30.051.371-14.175 11.978-40.863 14.904-45.895 2.923-5.032 6.188-35.267 5.089-36.895-.568-.871-.939-6.027-1.168-10.782 0-.543-.049-1.077-.069-1.598-.15-3.721-.221-6.827-.221-6.827l-11.417-2.316-3.064-.614-.241-.053-.098.206c-.33.625-1.357 2.623-2.567 5.246-.14.277-.268.574-.408.874-.061.143-.13.287-.199.43-2.237 5.022-4.821 11.633-4.713 15.434.182 6.723-7.275 22.957-7.275 22.957-.718 3.731-16.529 40.853-16.529 40.853s-12.905 36.382-12.177 42.358c.73 5.976-6.178 45.525-6.178 45.525l-7.086 40.679c-3.444 8.015-7.985 26.482-7.985 26.482l-1.726 10.474-.33 1.999-4.602 27.949-2.254 13.694s-.949 7.275-2.388 15.373a83.999 83.999 0 0 1-.398 2.202 115.568 115.568 0 0 1-3.762 15.733A60.125 60.125 0 0 0 252 641Z" opacity=".1"/><path fill="#63667E" d="M251 641c.406-.246.809-.49 1.225-.726a60.023 60.023 0 0 1 3.373-1.881 75.583 75.583 0 0 1 7.243-3.313c11.396-4.501 23.601-6.136 35.974-5.86 4.931 1.952 8.139 3.353 8.139 3.353l6.275 1.964c.078-.715.148-1.431.226-2.157.08-.726.139-1.309.197-1.964 2.211-21.638 3.947-43.819 3.947-43.819v-21.668l.119-56.561.987-17.855.196-3.703.139-2.504.177-3.315.178-3.363.129-2.424v-.532c0-.051 0-.111.068-.174.187-.552.415-1.391.661-2.454l.119-.512c.048-.234.109-.49.158-.746 1.854-8.723 4.579-27.528 4.727-31.057.177-4.295 3.767-29.982 3.767-29.982.367-14.143 11.84-40.772 14.733-45.793 2.889-5.021 6.107-35.188 5.03-36.814-.622-1.022-.986-7.231-1.222-12.352V313.6c-.129-3.16-.178-5.624-.178-5.624l-10.499-2.147-2.663-.543-.416-.08-.987-.206s-1.29 2.474-2.841 5.88l-.196.429c-2.261 5.054-4.934 11.926-4.854 15.831.178 6.709-7.194 22.907-7.194 22.907-.709 3.722-16.339 40.762-16.339 40.762s-12.757 36.301-12.037 42.264c.721 5.96-6.108 45.424-6.108 45.424l-7.004 40.589c-3.405 7.994-7.894 26.422-7.894 26.422l-1.587 9.736-.326 1.974-3.582 22.007-3.305 20.277s-.987 7.231-2.348 15.339c-.129.738-.258 1.474-.396 2.22a116.606 116.606 0 0 1-3.718 15.769A64.124 64.124 0 0 0 251 641Z"/><path fill="#FED253" d="M260 115.953s3.77 5.047 7.174 5.047c3.405 0 16.659-.564 23.567-2.8 6.909-2.236 40.779-3.929 40.779-3.929s47.961.185 49.58-1.497c1.618-1.682 29.823-10.647 32.695-10.083.602.123 2.072.39 4.036.728l2.25.38c3.405.564 7.659 1.22 11.547 1.702 4.806.585 9.03.882 10.372.37v-4.298s-5.566-8.411-5.921-10.822c-.356-2.41-5.033-37.356-17.251-49.86-5.047-10.028-13.215-17.983-23.172-22.565-16.53-7.478-33.06-13.817-33.06-13.817l-2.892-.43-9.326-1.437a7.095 7.095 0 0 0-.918-.8c-2.584-2.051-10.422-6.513-20.636 3.077l-1.804 2.995s-31.434 7.652-45.981 34.352c-14.546 26.7-15.275 52.845-16.352 64.794 0 0 .722 3.365-.72 4.667-.522.479-1.018.986-1.49 1.519-.129.133-.258.266-.374.41-.416.431-.8.882-1.116 1.251a.488.488 0 0 0-.1.103 3.052 3.052 0 0 1-.245.277l-.642.666Z"/><path fill="#000" d="M260 116.004s3.78 4.996 7.197 4.996c3.418 0 16.715-.558 23.647-2.772 6.929-2.214 40.911-3.89 40.911-3.89s48.123.183 49.747-1.482c1.624-1.666 29.923-10.541 32.805-9.983.604.122 2.079.386 4.049.721l.515-3.249.129-.802s-54.618-12.014-91.025-5.718c-36.409 6.296-63.273 13.303-63.273 13.303s.722 3.331-.722 4.621a20 20 0 0 0-1.495 1.503c-.129.132-.258.264-.378.406-.414.427-.8.873-1.117 1.239a.436.436 0 0 0-.1.101 4.047 4.047 0 0 1-.246.275l-.644.731Z" opacity=".05"/><path fill="#000" d="M264.566 124.89c6.781.57 19.28-1.216 24.748-2.087a61.42 61.42 0 0 0 4.612-.915c5.865-1.377 23.901-5.24 34.857-3.453 13.235 2.151 50.582-1.765 50.582-1.765s23.026-5.089 32.278-9.199c3.396-1.517 9.073-1.99 14.72-1.237 1.44.194 2.869.47 4.282.828 7.709 1.969 14.212 6.456 13.087 14.105.43-.558.83-1.143 1.195-1.753.488-6.994-1.524-11.158-4.313-13.611l-.657-.29a75.211 75.211 0 0 0-10.377-2.399 38.887 38.887 0 0 0-1.693-.259c-9.91-1.441-24.241-1.764-36.332 4.81 0 0-11.233 5.691-18.852 5.691s-69.614.592-84.125 5.089a57.817 57.817 0 0 1-8.814 2.012 33.322 33.322 0 0 1-15.735-1.603c-.105 2.03.076 4.065.537 6.036Z" opacity=".1"/><path fill="#000" d="M260 115.944s3.77 5.056 7.174 5.056c3.405 0 16.659-.565 23.567-2.806 6.909-2.24 40.779-3.936 40.779-3.936s47.961.185 49.58-1.5c1.618-1.685 29.823-10.668 32.695-10.102.602.123 2.072.39 4.036.729l2.25.381a38.59 38.59 0 0 1 11.547 1.705c4.806.586 9.03.884 10.372.37v-.852a23.198 23.198 0 0 0-3.227-1.624 84.072 84.072 0 0 0-20.429-3.309c-8.615-.33-18.691.719-27.543 5.364 0 0-11.132 5.437-18.682 5.437-7.549 0-68.983.554-83.361 4.861a60.435 60.435 0 0 1-8.735 1.911 35.02 35.02 0 0 1-19.036-2.846.461.461 0 0 0-.1.102c-.075.097-.158.19-.245.278l-.642.781Z" opacity=".1"/><path fill="#FED253" d="M443.536 121.166s12.141-9.991-3.623-16.649c0 0-27.537-9.196-48.376 2.151 0 0-11.226 5.668-18.84 5.668-7.613 0-69.563.592-84.063 5.098a58.676 58.676 0 0 1-8.808 2.001c-7.715 1.011-15.53-.594-22.362-4.593-.995-.591-1.892-.892-2.16-.548-.907 1.183-.188 8.034 7.781 9.4 6.222 1.076 20.352-.957 26.294-1.893a66.87 66.87 0 0 0 4.599-.914c5.861-1.377 23.884-5.238 34.881-3.453 13.215 2.151 50.546-1.764 50.546-1.764s22.999-5.087 32.245-9.206c9.245-4.12 35.329-.57 31.886 14.702Z"/><path fill="#000" d="M342 21c.943-1.434 13.06-11.685 18-15.828l-8.91-1.395a6.813 6.813 0 0 0-.877-.777C343.735 10.182 342 21 342 21ZM382.163 76.362 386 83l-14.67-.58L371 75l11.163 1.362ZM286 84l-1.969 6.198L273 92l4.727-7.406L286 84ZM459 278c-1.078 1.869-36.561 50.319-45.931 48.972C403.699 325.628 459 278 459 278ZM341 323s-9.213 8.299-7.865 11.536C334.485 337.774 341 323 341 323ZM435.007 381s6.36 36.805 3.027 37.974c-3.334 1.17-3.027-37.974-3.027-37.974ZM337 523c-1.231 3.688-11.476 27.673-13.775 28.96C320.926 553.247 337 523 337 523ZM215 425c.381 1.182 9.767 8.134 7.704 10.676C220.642 438.216 215 425 215 425ZM285.425 492c.162.921 1.802 19.993-1.315 23.661-3.115 3.67 1.315-23.661 1.315-23.661Z" opacity=".1"/><path fill="#000" d="M193.155 592.9a168.854 168.854 0 0 0 8.079 4.354 200.298 200.298 0 0 0 8.981 4.258c1.208.544 2.419 1.077 3.618 1.59 1.824.777 3.628 1.524 5.41 2.241a321.606 321.606 0 0 0 15.295 5.705c1.804.623 3.53 1.197 5.134 1.73 8.089 2.654 13.463 4.097 13.463 4.097a14.174 14.174 0 0 1 3.736-.319h1.069c1.68.126 3.35.345 5.008.656 11.07 2.048 26.714 7.793 36.138 11.553 4.957 1.954 8.179 3.358 8.179 3.358l6.305 1.967 1.049.327c6.83 2.15 16.435 5.201 19.895 6.471 5.591 2.048 54.13 12.483 54.13 12.483a78.344 78.344 0 0 0 13.54 2.561 239.463 239.463 0 0 0 33.919.8c11.359.757 29.737-1.824 40.432-3.564l1.705-.277c4.133-.697 6.76-1.2 6.76-1.2l-1.388-1.974-28.458-40.563-.168-.247-26.515-37.776-.992-1.373-2.408-3.431s-1.447-2.047-7.018-2.181h-2.151a56.417 56.417 0 0 0-13.748 2.898l-1.289.4c-19.2 5.684-48.877 4.26-48.877 4.26s-18.466-3.073-32.979-4.917l-1.079-.143a129.09 129.09 0 0 0-14.303-1.28c-8.843.186-27.973-4.659-27.973-4.659-4.114-.91-5.848-1.68-8.167-3.39-.308-.224-.635-.47-.991-.737-.992-.767-2.132-1.71-3.599-2.877-2.676-2.121-6.431-4.998-12.34-9.033a22.988 22.988 0 0 0-1.646-1.023c-.583-.327-1.328-.77-2.041-1.137a75.728 75.728 0 0 0-17.96-6.145 102.013 102.013 0 0 0-15.634-2.221h-.781c-14.869-.82-30.054 1.811-38.936 10.443a25.127 25.127 0 0 0-4.024 5.121 23.874 23.874 0 0 0-1.448 2.787 26.819 26.819 0 0 0-1.794 5.735c-.071.367-.132.737-.179 1.104v.33c0 .296-.058.593-.078.89-.793 12.257 11.517 23.339 27.119 32.348Z" opacity=".1"/><path fill="#FFA2A2" d="M485 649.705s-32.116 6.142-48.897 5.026c0 0-30.857 1.679-47.46-3.346 0 0-48.571-10.44-54.13-12.486-5.562-2.049-27.249-8.761-27.249-8.761s-42.227-18.26-54.13-15.281c0 0-93.475-24.962-86.792-58.686 6.68-33.723 65.677-26.078 84.253-13.416 18.575 12.659 15.86 13.979 25.077 16.027 0 0 19.133 4.839 27.974 4.656 8.841-.184 48.361 6.335 48.361 6.335s31.036 1.495 50.156-4.656c19.121-6.151 22.917-.747 22.917-.747L485 649.705Z"/><path fill="#000" d="M415.004 562.552a.506.506 0 0 0 0 .123c.069.76.26 1.502.566 2.195 3.811 9.623 25.451 35.576 25.451 35.576a72.154 72.154 0 0 0 3.564 9.009 139.097 139.097 0 0 0 10.273 17.928 242.005 242.005 0 0 0 18.692 24.38h.05a28.374 28.374 0 0 0 2.67 1.809c2.333 1.43 5.837 3.196 9.142 3.412a9.336 9.336 0 0 0 1.688-.053c-.348 0-.685-.08-.993-.143l1.211-.366 1.658-.532a145.32 145.32 0 0 0 8.268-2.953l1.658-.652a126.39 126.39 0 0 0 7.773-3.382l1.657-.775a145.157 145.157 0 0 0 7.773-4.014c.913-.492 1.816-1.024 2.71-1.523 2.7-1.553 5.347-3.181 7.941-4.882a163.956 163.956 0 0 0 8.08-5.65c1.985-3.788 3.623-7.15 4.517-8.956 1.628-3.362 1.767-8.171 1.568-11.656 0-.356 0-.695-.06-1.021-.168-2.185-.426-3.688-.426-3.688a52.726 52.726 0 0 0 3.97-6.372 7.658 7.658 0 0 0 1.112-3.668 4.468 4.468 0 0 1 .139-1.553c.764-3.226 4.05-8.773 7.087-12.257 2.264-2.562 2.403-12.143 2.184-18.936-.129-4.087-.377-7.09-.377-7.09.445-.294.778-.738.943-1.255a31.082 31.082 0 0 0 1.608-6.926c0-.336.09-.673.139-1.021.635-4.689.923-9.398.923-9.398 7.346-5.504 10.84-14.094 12.468-21.756l.208-1.021a66.18 66.18 0 0 0 1.132-14.3v-1.277s-.973-22.135-3.693-30.775a14.784 14.784 0 0 0-.347-1.021 7.736 7.736 0 0 0-.774-1.543c-.993-1.357-1.698-3.921-2.283-6.956a82.174 82.174 0 0 1-.993-6.771 145.797 145.797 0 0 1-.546-5.66c-.387-4.779-.506-8.507-.506-8.507l1.836-9.315a84.258 84.258 0 0 0 1.161-7.672c0-.336.08-.675.12-1.021.464-4.734.547-9.501.248-14.25 0-.346 0-.682-.06-1.021a88.339 88.339 0 0 0-8.1-31.154l-.496-1.021a85.013 85.013 0 0 0-2.085-4.014 70.177 70.177 0 0 0-1.657-2.88 84.062 84.062 0 0 0-4.964-7.363c-.258-.349-.526-.685-.794-1.023a82.147 82.147 0 0 0-10.284-10.909c-10.025-8.865-19.227-12.716-27.585-13.012-36.549-1.328-57.048 65.187-60.363 76.84-.318 1.124-.476 1.739-.476 1.739s-14.811 15.248-10.473 21.939a11.74 11.74 0 0 1 1.499 4.822c1.191 8.998-2.224 23.818-2.224 23.818s-1.211 4.086-4.745 13.87l-1.042 2.86c-2.213 6.129-2.729 16.415-1.459 25.63 1.221 8.823 4.09 16.628 8.686 18.63 9.4 4.084 6.869 8.171 4.705 11.53a46.63 46.63 0 0 0-3.206 7.539 231.323 231.323 0 0 0-3.097 9.275c-.139.429-.209.664-.209.664a19.05 19.05 0 0 0-4.08-1.123c-1.776-.256-3.533-.073-3.871 1.49-.179.838-1.201 1.829-2.64 2.82-4.269 3.023-12.17 6.189-12.17 6.189Z" opacity=".1"/><path fill="#CED7E7" d="M418 561.973c.06.776.251 1.534.562 2.242 3.768 9.607 25.292 35.556 25.292 35.556a73.793 73.793 0 0 0 3.541 8.986 131.21 131.21 0 0 0 8.059 14.539 238.784 238.784 0 0 0 20.498 27.406l.227.256s.868.683 2.249 1.559a25.194 25.194 0 0 0 8.039 3.483l1.203-.365 1.648-.531c2.762-.896 5.5-1.877 8.216-2.943l1.648-.653a125.176 125.176 0 0 0 7.724-3.373l1.647-.773a142.056 142.056 0 0 0 7.723-4.004c.908-.491 1.805-1.019 2.693-1.519a156.862 156.862 0 0 0 7.892-4.87 164.744 164.744 0 0 0 8.029-5.632 134.91 134.91 0 0 0 3.591-2.763c1.331-2.608 2.396-4.81 3.057-6.174 1.618-3.353 1.756-8.15 1.559-11.626 0-.355 0-.69-.059-1.018-.168-2.18-.424-3.679-.424-3.679s.799-1.108 1.765-2.617a43.766 43.766 0 0 0 1.648-2.76c.986-1.794 1.755-3.609 1.607-4.637a2.33 2.33 0 0 1 0-.528c.015-.345.065-.686.148-1.021.76-3.218 4.035-8.751 7.053-12.224 2.249-2.558 2.387-12.114 2.18-18.891v-1.018c-.138-3.516-.345-6.051-.345-6.051 1.115-.5 1.973-4.199 2.525-8.15l.148-1.021c.632-4.675.918-9.372.918-9.372 7.299-5.492 10.771-14.061 12.379-21.7a64.214 64.214 0 0 0 1.282-16.303v-.256s-.848-22.188-3.551-30.819a15.082 15.082 0 0 0-.345-1.018 7.652 7.652 0 0 0-.878-1.487c-1.499-2.159-2.495-7.357-3.147-12.674l-.118-1.019c-.818-7.132-1.045-14.131-1.045-14.131l1.834-9.291c.5-2.548.885-5.098 1.154-7.652.05-.336.079-.684.119-1.019.461-4.722.544-9.477.246-14.214 0-.345 0-.683-.069-1.018a88.153 88.153 0 0 0-8.049-31.075 19.877 19.877 0 0 0-.493-1.018 80.568 80.568 0 0 0-4.222-7.702 69.776 69.776 0 0 0-1.647-2.568 79.16 79.16 0 0 0-2.812-3.954l-.789-1.018a81.994 81.994 0 0 0-10.13-10.85c-10.851-9.607-20.715-13.316-29.593-12.98-34.968 1.293-54.597 65.257-57.823 76.645a89.16 89.16 0 0 0-.474 1.734s-14.727 15.21-10.416 21.884a11.739 11.739 0 0 1 1.489 4.809c1.194 8.976-2.209 23.758-2.209 23.758s-1.204 4.076-4.715 13.836c-.316.908-.661 1.854-.987 2.852-2.199 6.114-2.712 16.373-1.45 25.565 1.214 8.811 4.054 16.586 8.631 18.582 9.332 4.074 6.827 8.151 4.666 11.501a46.65 46.65 0 0 0-3.186 7.52c-1.706 4.8-3.275 9.914-3.275 9.914a18.579 18.579 0 0 0-1.973-.663 9.787 9.787 0 0 0-4.261-.458 1.858 1.858 0 0 0-1.078.461 1.956 1.956 0 0 0-.609 1.026c-.266 1.223-2.308 2.74-4.784 4.179a90.09 90.09 0 0 1-9.933 4.807Z"/><path fill="#000" d="M548 464.112c-3.418-.185-40.108-14.973-47.666-9.921C492.777 459.24 446 492 446 492s29.311-39.868 54.848-49.225C526.385 433.417 548 464.112 548 464.112ZM495 524s-37.331 7.126-43 12l43-12ZM502 581c.541.572 14.02 32 12.938 32-1.081 0-12.578-18.726-12.578-18.726L502 581ZM477 543s10.077 4.536 8.905 4.964c-1.172.425-8.564-3.02-8.905-4.964ZM488 590c-1.814 4.195-7.614 16.784-8.889 14.787C477.835 602.789 488 590 488 590ZM353 280.64l1.536 2.248s12.211-8.839 17.227-13.263c5.015-4.423 16.86 15.844 26.192 21.371 9.332 5.527 25.108 7.004 25.108 7.004s12.2-12.531 11.825-16.196c-.374-3.665 5.736-4.789 6.1-7.37.365-2.581 2.513-9.95 5.38-13.635 1.518-1.945 1.735-8.029 1.597-13.322-.986-.204-1.597-.314-1.597-.314a32.882 32.882 0 0 0-5.744-7.745c-3.233-2.946-8.248-21.005-8.248-21.005-2.868-9.951-8.603-7.006-8.603-7.006 0 15.114-15.077 20.642-22.606 26.908-7.528 6.266-19.373 22.484-28.705 25.803-7.657 2.683-16.614 13.059-19.462 16.522Z" opacity=".1"/><path fill="#CED7E7" d="m353 278.629 1.538 2.258s12.251-8.816 17.264-13.271c5.014-4.453 16.852 15.841 26.179 21.368 9.327 5.527 25.096 7.016 25.096 7.016s12.193-12.543 11.818-16.197c-.374-3.652 5.732-4.786 6.097-7.379.364-2.591 2.511-9.95 5.377-13.634 1.517-1.944 1.734-8.028 1.596-13.321l-1.596-.303a32.861 32.861 0 0 0-5.742-7.744c-3.23-2.955-8.243-21.003-8.243-21.003-2.866-9.95-8.598-7.015-8.598-7.015 0 15.112-15.069 20.649-22.594 26.915-7.525 6.265-19.363 22.471-28.69 25.792-7.702 2.723-16.655 13.058-19.502 16.518Z"/><path fill="#000" d="M352 281.258s10.542 6.143 18.777 6.724a14.448 14.448 0 0 0 3.223-.2s-9.089-7.294-17.53-8.782l-4.47 2.258ZM330.039 312.223S343.539 306.72 348 315c-.15-3.8-.209-6.954-.209-6.954L333.075 305s-1.419 2.744-3.075 6.441c.039.49.039.782.039.782Z" opacity=".1"/><path fill="#63667E" d="M374 288.002s-16.21-9.777-24-8.953c-8.171.854-24 1.457-24 1.457s5.459 12.442 4.729 15.005c-.729 2.562-.911 15.002-.911 15.002s16.381-6.4 19.113 5.487c0 0 8.919-13.354 14.929-17.384A41.004 41.004 0 0 0 374 288.002Z"/><path fill="#000" d="M282.97 299c4.743 0 21.532-10.73 25.179-17.747 3.649-7.015 8.762.731 13.502 3.331 3.007 1.664 14.925-1.817 21.349-4.346-3.257-2.244-10.473-8.558-12.589-10.072-2.546-1.857-5.113-31.797-5.113-31.797-9.121-4.802-18.974 38.814-18.974 38.814s-17.159 5.177-18.611 8.873c-.281.73-1.575 2.029-3.518 3.603-2.005 5.117-3.108 9.341-1.225 9.341Z" opacity=".1"/><path fill="#CED7E7" d="M282.976 297c4.773 0 21.666-10.552 25.335-17.455 3.672-6.905 8.817.719 13.587 3.267 3.026 1.639 12.638-1.529 19.102-3.995-3.277-2.199-8.158-8.672-10.288-10.172-2.561-1.818-5.142-31.282-5.142-31.282-9.18-4.725-19.092 38.195-19.092 38.195s-17.268 5.097-18.729 8.733c-.283.719-1.585 1.998-3.54 3.546-2.018 5.006-3.128 9.163-1.233 9.163Z"/><path fill="#0A073A" d="M219.321 623.543 85.048 507.756a7.05 7.05 0 0 0-4.8-1.754l-50.094 1.359s-3.468 2.631 1.621 8.386l126.666 107.497a7.889 7.889 0 0 0 4.834 1.878l54.774 1.877c.394.013.781-.101 1.109-.327.326-.227.579-.552.719-.931.14-.382.16-.797.062-1.192a1.96 1.96 0 0 0-.618-1.006Z"/><path fill="#FFA2A2" d="M144 606.722s-34.357 49.966-72.527 3.489c-38.17-46.476-27.133-70.893-15.56-72.187 11.576-1.291 76.7 49.595 88.087 68.698Z"/><path fill="#fff" d="M341.015 551.411H131.404v8.051c0 7.374 5.81 13.352 12.976 13.352h183.659c7.167 0 12.976-5.978 12.976-13.352v-8.051Z"/><path fill="#fff" d="M367 291H105.419v257.301c0 3.687 2.905 6.676 6.488 6.676H358.89c4.478 0 8.11-3.735 8.11-8.345V291Z"/><path fill="#3F3D56" d="M140.925 460.042h189.689c2.687-.003 5.265-1.11 7.166-3.079 1.901-1.97 2.97-4.64 2.973-7.426v-63.028c-.003-2.785-1.072-5.456-2.973-7.425-1.901-1.969-4.479-3.077-7.166-3.08H140.925c-2.688.003-5.267 1.111-7.168 3.08-1.901 1.969-2.97 4.64-2.973 7.425v63.028c.003 2.786 1.072 5.456 2.973 7.426 1.901 1.969 4.48 3.076 7.168 3.079Zm189.689-82.802c2.371.002 4.645.98 6.322 2.718 1.678 1.737 2.622 4.093 2.625 6.551v63.028c-.003 2.457-.947 4.814-2.625 6.551-1.677 1.737-3.951 2.715-6.322 2.719H140.925c-2.372-.004-4.647-.982-6.325-2.719-1.677-1.737-2.621-4.094-2.622-6.551v-63.028c.001-2.458.945-4.814 2.622-6.551 1.678-1.738 3.953-2.716 6.325-2.718h189.689ZM140.925 489.987h189.689c2.687.003 5.265 1.1 7.166 3.046a10.52 10.52 0 0 1 2.973 7.339v62.303a10.517 10.517 0 0 1-2.973 7.338 10.037 10.037 0 0 1-7.166 3.046H140.925a10.037 10.037 0 0 1-7.168-3.044 10.526 10.526 0 0 1-2.973-7.34v-62.303a10.528 10.528 0 0 1 2.973-7.341 10.037 10.037 0 0 1 7.168-3.044Zm-8.947 72.688a9.274 9.274 0 0 0 2.622 6.477 8.85 8.85 0 0 0 6.325 2.686h189.689a8.858 8.858 0 0 0 6.322-2.687 9.285 9.285 0 0 0 2.625-6.476v-62.303a9.282 9.282 0 0 0-2.625-6.476 8.85 8.85 0 0 0-6.322-2.687H140.925a8.849 8.849 0 0 0-6.325 2.685 9.278 9.278 0 0 0-2.622 6.478v62.303Z"/><path fill="#3F3D56" d="M109.753 291h252.039a5.142 5.142 0 0 1 3.682 1.572 5.456 5.456 0 0 1 1.526 3.791v252.98a5.451 5.451 0 0 1-1.526 3.79 5.13 5.13 0 0 1-3.682 1.572h-22.099v-1.53h22.099a3.678 3.678 0 0 0 2.629-1.123 3.907 3.907 0 0 0 1.092-2.709v-252.98a3.9 3.9 0 0 0-1.092-2.708 3.675 3.675 0 0 0-2.629-1.124H109.753a3.68 3.68 0 0 0-2.635 1.122 3.906 3.906 0 0 0-1.093 2.71v252.98c0 .748.214 1.48.615 2.103.358.549.842.998 1.409 1.305a3.621 3.621 0 0 0 1.704.424h22.098v1.53h-22.098a5.067 5.067 0 0 1-2.18-.492 5.21 5.21 0 0 1-1.78-1.389 1.092 1.092 0 0 1-.113-.148 5.043 5.043 0 0 1-.748-1.297 5.386 5.386 0 0 1-.394-2.036v-252.98a5.444 5.444 0 0 1 1.529-3.792 5.14 5.14 0 0 1 3.686-1.571Z"/><path fill="#3F3D56" d="M105.474 312.251h260.588v1.932H105.474v-1.932Z"/><path fill="#C54040" d="M353.408 307.422c-2.329 0-4.217-2.163-4.217-4.83 0-2.668 1.888-4.83 4.217-4.83 2.329 0 4.219 2.162 4.219 4.83 0 2.667-1.89 4.83-4.219 4.83Z"/><path fill="#FFC75D" d="M340.753 307.422c-2.587 0-4.686-2.163-4.686-4.83 0-2.668 2.099-4.83 4.686-4.83 2.589 0 4.687 2.162 4.687 4.83 0 2.667-2.098 4.83-4.687 4.83Z"/><path fill="#57B894" d="M328.1 307.422c-2.331 0-4.219-2.163-4.219-4.83 0-2.668 1.888-4.83 4.219-4.83 2.329 0 4.217 2.162 4.217 4.83 0 2.667-1.888 4.83-4.217 4.83Z"/><path fill="#3F3D56" d="M172.295 347.991h126.014a7.785 7.785 0 0 0 5.49-2.263 7.714 7.714 0 0 0 2.274-5.464c0-2.05-.819-4.015-2.274-5.465a7.785 7.785 0 0 0-5.49-2.263H172.295c-2.06 0-4.034.814-5.491 2.263a7.716 7.716 0 0 0-2.274 5.465c0 2.049.819 4.015 2.274 5.464a7.786 7.786 0 0 0 5.491 2.263Zm126.014-14.266c1.742 0 3.412.689 4.645 1.915a6.526 6.526 0 0 1 1.924 4.624 6.526 6.526 0 0 1-1.924 4.623 6.583 6.583 0 0 1-4.645 1.915H172.295a6.582 6.582 0 0 1-4.646-1.915 6.52 6.52 0 0 1 0-9.247 6.586 6.586 0 0 1 4.646-1.915h126.014Z"/><path fill="#6C63FF" d="M210.557 414.642h66.36c1.27 0 2.486-.509 3.382-1.414a4.854 4.854 0 0 0 1.401-3.415c0-1.281-.504-2.51-1.401-3.416a4.758 4.758 0 0 0-3.382-1.414h-66.36a4.763 4.763 0 0 0-3.382 1.414 4.856 4.856 0 0 0-1.401 3.416c0 1.281.504 2.509 1.401 3.415a4.763 4.763 0 0 0 3.382 1.414ZM149.605 431.063H276.94a4.735 4.735 0 0 0 3.367-1.413 4.872 4.872 0 0 0 1.393-3.416c0-1.281-.501-2.51-1.393-3.415a4.729 4.729 0 0 0-3.367-1.415H149.605a4.722 4.722 0 0 0-3.365 1.415 4.868 4.868 0 0 0-1.395 3.415c0 1.281.503 2.509 1.395 3.416a4.729 4.729 0 0 0 3.365 1.413ZM308.884 436.86c-9.836 0-17.81-8.434-17.81-18.837s7.974-18.836 17.81-18.836c9.836 0 17.809 8.433 17.809 18.836 0 10.403-7.973 18.837-17.809 18.837Z"/><path fill="#fff" d="M149.617 451.348h16.702a4.748 4.748 0 0 0 3.374-1.414 4.86 4.86 0 0 0 1.398-3.416c0-1.28-.503-2.508-1.398-3.415a4.743 4.743 0 0 0-3.374-1.413h-16.702a4.74 4.74 0 0 0-3.375 1.413 4.858 4.858 0 0 0-1.397 3.415c0 1.282.501 2.51 1.397 3.416a4.745 4.745 0 0 0 3.375 1.414Z"/><path fill="#CCC" d="M149.617 451.348h16.702a4.748 4.748 0 0 0 3.374-1.414 4.86 4.86 0 0 0 1.398-3.416c0-1.28-.503-2.508-1.398-3.415a4.743 4.743 0 0 0-3.374-1.413h-16.702a4.74 4.74 0 0 0-3.375 1.413 4.858 4.858 0 0 0-1.397 3.415c0 1.282.501 2.51 1.397 3.416a4.745 4.745 0 0 0 3.375 1.414Z"/><path fill="#6C63FF" d="M210.557 527.659h66.36c1.27 0 2.486-.509 3.382-1.415a4.85 4.85 0 0 0 1.401-3.415c0-1.28-.504-2.508-1.401-3.414a4.751 4.751 0 0 0-3.382-1.416h-66.36a4.757 4.757 0 0 0-3.382 1.416 4.853 4.853 0 0 0-1.401 3.414 4.85 4.85 0 0 0 1.401 3.415 4.76 4.76 0 0 0 3.382 1.415ZM149.605 545.047H276.94c1.263 0 2.473-.561 3.367-1.557.892-.997 1.393-2.347 1.393-3.756 0-1.41-.501-2.76-1.393-3.756-.894-.997-2.104-1.558-3.367-1.558H149.605c-1.262 0-2.473.561-3.365 1.558-.892.996-1.395 2.346-1.395 3.756 0 1.409.503 2.759 1.395 3.756.892.996 2.103 1.557 3.365 1.557ZM308.884 549.877c-9.836 0-17.81-8.218-17.81-18.354s7.974-18.354 17.81-18.354c9.836 0 17.809 8.218 17.809 18.354s-7.973 18.354-17.809 18.354Z"/><path fill="#CCC" d="M149.617 564.365h16.702a4.751 4.751 0 0 0 3.374-1.413 4.862 4.862 0 0 0 1.398-3.417c0-1.28-.503-2.508-1.398-3.414a4.742 4.742 0 0 0-3.374-1.416h-16.702c-1.267 0-2.48.509-3.375 1.416a4.854 4.854 0 0 0-1.397 3.414c0 1.282.501 2.511 1.397 3.417a4.748 4.748 0 0 0 3.375 1.413Z"/><path stroke="#6C63FF" d="M112.505 473.566c-6.47 0-11.716-5.623-11.716-12.558 0-6.934 5.246-12.557 11.716-12.557 6.472 0 11.718 5.623 11.718 12.557 0 6.935-5.246 12.558-11.718 12.558Z" opacity=".2"/><path stroke="#6C63FF" d="M112.974 495.783c-18.636 0-33.745-15.57-33.745-34.775s15.109-34.774 33.745-34.774c18.637 0 33.745 15.569 33.745 34.774s-15.108 34.775-33.745 34.775Z" opacity=".2"/><path fill="#6F758D" d="M111.1 462.407v18.454a1.404 1.404 0 0 0 2.4.988c.263-.262.412-.618.412-.988v-18.454a1.39 1.39 0 0 0-.412-.988 1.402 1.402 0 0 0-1.985.003 1.407 1.407 0 0 0-.415.985ZM83.917 512.231v28.924a8.888 8.888 0 0 0 2.485 6.16 8.367 8.367 0 0 0 5.977 2.562h12.126a8.365 8.365 0 0 0 5.982-2.56 8.885 8.885 0 0 0 2.489-6.162v-28.924a8.898 8.898 0 0 0-2.49-6.16 8.367 8.367 0 0 0-5.981-2.56H92.379a8.355 8.355 0 0 0-5.977 2.562 8.883 8.883 0 0 0-2.485 6.158Z"/><path fill="#000" d="M83.917 512.301v8.826a8.093 8.093 0 0 0 3.37.736h22.305a8.081 8.081 0 0 0 3.384-.741v-8.821c-.009-2.33-.904-4.563-2.49-6.208-1.587-1.648-3.737-2.576-5.981-2.582H92.379c-2.241.008-4.389.936-5.975 2.583-1.585 1.646-2.479 3.877-2.487 6.207ZM111.1 474.532v6.344c0 .367.147.719.412.978a1.416 1.416 0 0 0 1.988 0c.263-.259.412-.611.412-.978v-5.339a8.353 8.353 0 0 0-2.812-1.005Z" opacity=".1"/><path fill="#747C9D" d="M86.4 475.497h25.027c3.961 0 7.171 3.253 7.171 7.263v29.909c0 4.01-3.21 7.263-7.171 7.263H86.401c-3.961 0-7.171-3.253-7.171-7.263V482.76c0-4.01 3.21-7.263 7.17-7.263Z"/><path fill="#000" d="M87.665 505.32v18.476h22.496v-18.514a8.336 8.336 0 0 0-5.133-1.771h-12.24a8.372 8.372 0 0 0-5.123 1.809Z" opacity=".1"/><path fill="#000" d="M87.665 475.497h22.496v46.366H87.665v-46.366Z" opacity=".1"/><path fill="#6F758D" d="M87.665 475.497h23.433v46.366H87.665v-46.366Z"/><path fill="#DCDFED" d="M100.788 491.918h7.498v.966h-7.498v-.966ZM89.54 491.918h6.56v.966h-6.56v-.966ZM92.354 506.408h12.186v.967H92.354v-.967Z"/><path fill="#57B894" d="M78.76 551.808c-9.577 0-17.341-8.001-17.341-17.87 0-9.869 7.764-17.87 17.34-17.87 9.579 0 17.342 8.001 17.342 17.87 0 9.869-7.763 17.87-17.341 17.87Z"/><path fill="#fff" d="M78.75 540.217a.789.789 0 0 0 .664-.361l4.37-6.694a.803.803 0 0 0-.226-1.108.793.793 0 0 0-1.102.23l-3.659 5.605-5.583-9.827a.791.791 0 0 0-1.083-.297.8.8 0 0 0-.295 1.091l6.225 10.957a.794.794 0 0 0 .665.404h.024Z"/><path fill="#6C63FF" d="M100.237 553.018c7.334 3.628 13.637 4.183 18.581 3.495 3.943-.561 7.225-1.858 9.744-3.847a15.475 15.475 0 0 0 4.131-4.922c.444-.829.822-1.707 1.131-2.635 1.081-3.218 1.331-6.995.739-11.224a37.797 37.797 0 0 0-.738-3.774c-.529-2.159-1.268-4.411-2.212-6.739a59.151 59.151 0 0 0-.657-1.557l-.094-.214c-.184-.414-.373-.831-.553-1.243a15.957 15.957 0 0 1-.758-2.023l-.034-.129a5.454 5.454 0 0 1-.169-1.021c-.058-1 .236-1.786.751-2.41.082-.107.177-.202.275-.297.136-.134.283-.259.441-.374l.058-.043a7.106 7.106 0 0 1 1.744-.885c1.001-.357 2.105-.609 3.156-.91.449-.126.887-.262 1.306-.417l.091-.035a6.782 6.782 0 0 0 1.607-.836c1.05-.788 1.637-1.968 1.723-3.465l.005-.052.004-.095.005-.133a8.141 8.141 0 0 0-.009-.696l-.01-.145a7.974 7.974 0 0 0-.078-.706l-.023-.157c-.04-.251-.089-.506-.149-.765-.019-.09-.045-.185-.066-.277a15.202 15.202 0 0 0-.563-1.776 23.23 23.23 0 0 0-1.433-3.034c-.024-.047-.051-.093-.077-.14a32.926 32.926 0 0 0-.425-.721c-.055-.09-.109-.179-.166-.269a31.205 31.205 0 0 0-.658-1.011 36.099 36.099 0 0 0-2.858-3.657l-.099-.112a50.696 50.696 0 0 0-1.064-1.145c-.153-.158-.312-.318-.467-.474l-.14-.14c-2.287-2.27-4.861-4.364-7.447-6.415-.301-.239-.601-.478-.903-.716-4.186-3.308-8.46-6.653-12.791-9.647-.028-.022-.06-.042-.089-.062a109.1 109.1 0 0 0-4.404-2.892 76.442 76.442 0 0 0-4.654-2.676c-3.813-2.009-7.544-3.491-11.128-4.693-4.315-1.445-8.505-2.502-12.268-2.962a42.417 42.417 0 0 0-1.596-.164l-.238-.017c-.084-.006-.172-.015-.25-.016a15.125 15.125 0 0 0-.507-.03l-.187-.009-.357-.015-.104-.001-.181-.002-.182-.002a14.832 14.832 0 0 0-.633-.001c-.898.006-1.756.063-2.575.168-.242.032-.479.067-.712.107a13.12 13.12 0 0 0-2.915.833 9.005 9.005 0 0 0-1.913 1.101 8.04 8.04 0 0 0-1.312 1.249c-2.708 3.236-2.814 8.592-.104 14.962 1.08 2.539 2.584 5.243 3.131 7.566.474 2.024.086 3.645-1.724 3.975-1.496.272-2.344.549-2.99 1.676-1.325 2.342-1.917 5.214-1.756 8.525.005.132.011.267.02.401.54 8.732 6.002 20.203 15.583 31.512.253.299.51.597.77.896 6.173 7.108 14.25 14.315 22.424 18.359Z" opacity=".1"/><path stroke="#6C63FF" d="M112.974 483.226c-11.907 0-21.56-9.947-21.56-22.218 0-12.27 9.653-22.217 21.56-22.217 11.908 0 21.56 9.947 21.56 22.217 0 12.271-9.652 22.218-21.56 22.218Z" opacity=".2"/><path fill="#FFC75D" d="M159.459 454.514c-3.454 0-6.254-2.861-6.254-6.389s2.8-6.388 6.254-6.388c3.454 0 6.254 2.86 6.254 6.388s-2.8 6.389-6.254 6.389Z"/><path fill="#3F3D56" d="m140.186 459.157 15.706-9.817a2.01 2.01 0 0 1 1.001-.302 1.982 1.982 0 0 1 1.763.968c.179.304.271.648.268.998l-.154 16.929a1.944 1.944 0 0 1-.458 1.23 1.979 1.979 0 0 1-1.143.666 1.999 1.999 0 0 1-1.313-.199 1.955 1.955 0 0 1-.888-.974l-2.044-4.907-5.697 11.089a2.272 2.272 0 0 1-3.025.974 2.234 2.234 0 0 1-1.12-1.29 2.199 2.199 0 0 1 .129-1.694l5.828-11.342-7.468 1.241a1.987 1.987 0 0 1-1.308-.23 1.956 1.956 0 0 1-.863-.995 1.924 1.924 0 0 1-.031-1.311 1.96 1.96 0 0 1 .817-1.034Z"/></svg>