<svg width="268" height="287" viewBox="0 0 268 287" fill="none" xmlns="http://www.w3.org/2000/svg">
<path opacity="0.1" d="M250.682 221.873C244.367 243.937 231.537 258.691 218.246 268.421C207.605 276.159 196.356 281.241 184.853 283.508C182.649 283.951 180.439 284.295 178.221 284.539C172.555 285.164 166.87 285.153 161.205 284.507C157.797 284.123 154.401 283.51 151.017 282.667C139.258 279.763 127.794 274.111 116.953 265.872C113.824 263.487 110.758 260.882 107.756 258.059C102.742 253.353 97.9371 248.033 93.3808 242.142C92.3727 240.838 91.3773 239.505 90.3945 238.144L89.9903 237.585C89.2176 236.506 88.452 235.403 87.6745 234.332C86.3822 232.499 85.0105 230.834 83.5708 229.349C83.4733 229.252 83.3758 229.155 83.276 229.063C83.0097 228.801 82.7386 228.556 82.4628 228.322C81.8946 227.837 81.3121 227.402 80.7176 227.018C77.9715 225.247 75.0304 224.603 72.0488 224.711C71.5543 224.711 71.0597 224.768 70.5628 224.824C69.8686 224.904 69.1719 225.025 68.4777 225.178L68.2209 225.239C66.0085 225.769 63.8212 226.564 61.6753 227.618C58.3609 229.228 55.1059 231.241 51.8296 233.056C50.4387 233.833 49.0454 234.574 47.6402 235.238L47.3311 235.383C45.3326 236.335 43.2982 237.056 41.242 237.541C36.5694 238.552 31.8236 237.905 27.3068 235.641L27.1499 235.564L26.8598 235.419L26.4628 235.21C25.797 234.856 25.1368 234.468 24.4822 234.046L24.0851 233.789C23.4511 233.376 22.8305 232.931 22.2235 232.456L21.8264 232.15C21.1924 231.651 20.5718 231.124 19.9647 230.568C19.746 230.375 19.5296 230.166 19.3156 229.969C18.6689 229.357 18.0349 228.715 17.4135 228.044C16.7541 227.333 16.109 226.591 15.4782 225.818C15.1865 225.464 14.898 225.1 14.6127 224.727C12.968 222.597 11.4278 220.246 10.0073 217.695C9.9288 217.562 9.85509 217.425 9.78138 217.292C9.40334 216.6 9.03243 215.895 8.67341 215.175C8.54027 214.909 8.40712 214.643 8.27635 214.37C7.84996 213.489 7.43864 212.589 7.04237 211.668C6.98293 211.536 6.92586 211.399 6.8688 211.266C5.24426 207.462 3.89747 203.339 2.85776 198.988C2.82447 198.855 2.79356 198.718 2.76503 198.585C2.44802 197.203 2.15874 195.798 1.8972 194.371C1.79021 193.775 1.68797 193.163 1.59762 192.567C1.56671 192.39 1.53818 192.209 1.51202 192.032C0.199579 183.284 0.04979 174.191 0.04979 165.149C0.04979 164.095 0.04979 163.041 0.04979 161.989C0.0878319 147.364 0.220978 132.49 1.49538 118.066C1.49538 117.966 1.51203 117.865 1.52154 117.769C1.94807 112.913 2.52825 108.099 3.25958 103.349C4.02498 98.3646 5.00316 93.4809 6.18642 88.7363C9.11803 77.0622 13.3811 66.4388 18.1149 56.5923C23.8212 44.7452 30.3597 33.8118 37.6423 24.7905C38.6885 23.4943 39.7489 22.2356 40.8236 21.0146L41.3205 20.4631C41.4941 20.2658 41.6676 20.0605 41.8412 19.8874C42.1978 19.4849 42.5545 19.1065 42.9159 18.724L43.3201 18.2973L44.0904 17.4922L44.3282 17.2628L44.7395 16.8602L45.1461 16.4576C45.6216 15.9826 46.1027 15.5184 46.5893 15.0648C48.6673 13.103 50.7945 11.3103 52.9708 9.68667C53.6128 9.20629 54.2587 8.74336 54.9086 8.29786C57.8591 6.2633 60.89 4.58054 63.9792 3.2619C65.1205 2.77347 66.2688 2.34408 67.4244 1.97373C68.7875 1.52823 70.1578 1.15923 71.5353 0.866702C73.7272 0.399767 75.9317 0.121643 78.1403 0.0334111C93.6709 -0.606651 109.358 7.95167 121.529 24.3558C126.38 30.8933 130.738 38.6344 136.185 43.6462C140.94 48.0099 146.506 49.8173 151.599 46.3836C155.808 43.5455 158.547 42.1366 163.273 42.5673C173.054 43.5001 182.697 46.9143 191.878 52.6956C192.249 52.9251 192.62 53.1626 192.989 53.4001C216.934 68.9186 237.522 99.7341 248.216 139.333C248.498 140.38 248.773 141.435 249.041 142.497C255.42 167.718 257.722 197.285 250.682 221.873Z" fill="#6C63FF"/>
<path opacity="0.1" d="M81.2594 108.474V262.847L80.7316 262.993C77.3192 263.956 73.8456 264.685 70.3347 265.176C62.3563 266.199 54.253 265.544 46.5406 263.254L46.2727 263.177L45.7774 263.03L45.0994 262.818C43.9627 262.46 42.8355 262.068 41.7177 261.642L41.0397 261.381C39.9571 260.963 38.8975 260.514 37.861 260.033L37.183 259.724C36.1004 259.219 35.0408 258.686 34.0042 258.124C33.6307 257.928 33.2613 257.717 32.8959 257.517C31.7917 256.898 30.7091 256.25 29.6481 255.571C28.5222 254.852 27.4207 254.101 26.3435 253.32C25.8455 252.961 25.353 252.594 24.8658 252.216C22.0575 250.062 19.4276 247.683 17.0021 245.103C16.8681 244.969 16.7423 244.831 16.6164 244.696C15.9709 243.996 15.3376 243.284 14.7246 242.555C14.4973 242.286 14.2699 242.017 14.0466 241.74C13.3186 240.85 12.6163 239.94 11.9396 239.009C11.8381 238.874 11.7407 238.736 11.6433 238.601C8.86942 234.754 6.5698 230.585 4.79453 226.184C4.73769 226.049 4.68492 225.911 4.6362 225.776C4.09491 224.379 3.60097 222.958 3.1544 221.514C2.97172 220.911 2.79715 220.292 2.64288 219.69C2.5901 219.51 2.54138 219.327 2.49673 219.148C0.255761 210.301 0 201.104 0 191.959C0 190.892 0 189.827 0 188.763C0.0649555 173.972 0.292299 158.928 2.46831 144.34C2.46831 144.238 2.49673 144.136 2.51297 144.038C3.24126 139.127 4.23191 134.259 5.48062 129.455H46.9385V108.474H55.2041V91.6228H72.9938V108.474H81.2594Z" fill="#6C63FF"/>
<path opacity="0.1" d="M204.379 213.92H143.487V221.823H204.379V213.92Z" fill="#6C63FF"/>
<path opacity="0.1" d="M204.379 237.922H143.487V245.824H204.379V237.922Z" fill="#6C63FF"/>
<path opacity="0.1" d="M204.379 261.923V269.821H159.381C157.66 268.502 155.96 267.154 154.282 265.778L153.592 265.212C152.272 264.121 150.965 263.006 149.638 261.923H204.379Z" fill="#6C63FF"/>
<path opacity="0.1" d="M70.3597 112.391H59.0371V123.746H70.3597V112.391Z" fill="#6C63FF"/>
<path opacity="0.1" d="M70.3597 138.774H59.0371V150.129H70.3597V138.774Z" fill="#6C63FF"/>
<path opacity="0.1" d="M70.3597 165.153H59.0371V176.508H70.3597V165.153Z" fill="#6C63FF"/>
<path opacity="0.1" d="M70.3597 191.536H59.0371V202.891H70.3597V191.536Z" fill="#6C63FF"/>
<path opacity="0.1" d="M70.3597 217.918H59.0371V229.274H70.3597V217.918Z" fill="#6C63FF"/>
<path opacity="0.1" d="M70.3597 244.297H59.0371V255.653H70.3597V244.297Z" fill="#6C63FF"/>
<path opacity="0.1" d="M2.47266 144.042V150.557H45.7777V144.042H2.47266ZM6.32939 150.15H3.15063V144.45H6.32939V150.15ZM10.1861 150.15H7.00736V144.45H10.1861V150.15ZM14.0429 150.15H10.8641V144.45H14.0429V150.15ZM17.8996 150.15H14.7208V144.45H17.8996V150.15ZM21.7563 150.15H18.5776V144.45H21.7563V150.15ZM25.6131 150.15H22.4343V144.45H25.6131V150.15ZM29.4698 150.15H26.291V144.45H29.4698V150.15ZM33.3265 150.15H30.1478V144.45H33.3265V150.15ZM37.1833 150.15H34.0045V144.45H37.1833V150.15ZM41.04 150.15H37.8612V144.45H41.04V150.15ZM45.0997 150.15H41.718V144.45H45.0997V150.15Z" fill="#6C63FF"/>
<path opacity="0.1" d="M2.47266 162.958V169.452H45.7777V162.958H2.47266ZM6.32939 169.045H3.15063V163.365H6.32939V169.045ZM10.1861 169.045H7.00736V163.365H10.1861V169.045ZM14.0429 169.045H10.8641V163.365H14.0429V169.045ZM17.8996 169.045H14.7208V163.365H17.8996V169.045ZM21.7563 169.045H18.5776V163.365H21.7563V169.045ZM25.6131 169.045H22.4343V163.365H25.6131V169.045ZM29.4698 169.045H26.291V163.365H29.4698V169.045ZM33.3265 169.045H30.1478V163.365H33.3265V169.045ZM37.1833 169.045H34.0045V163.365H37.1833V169.045ZM41.04 169.045H37.8612V163.365H41.04V169.045ZM45.0997 169.045H41.718V163.365H45.0997V169.045Z" fill="#6C63FF"/>
<path opacity="0.1" d="M2.47266 181.87V188.364H45.7777V181.87H2.47266ZM6.32939 187.957H3.15063V182.277H6.32939V187.957ZM10.1861 187.957H7.00736V182.277H10.1861V187.957ZM14.0429 187.957H10.8641V182.277H14.0429V187.957ZM17.8996 187.957H14.7208V182.277H17.8996V187.957ZM21.7563 187.957H18.5776V182.277H21.7563V187.957ZM25.6131 187.957H22.4343V182.277H25.6131V187.957ZM29.4698 187.957H26.291V182.277H29.4698V187.957ZM33.3265 187.957H30.1478V182.277H33.3265V187.957ZM37.1833 187.957H34.0045V182.277H37.1833V187.957ZM41.04 187.957H37.8612V182.277H41.04V187.957ZM45.0997 187.957H41.718V182.277H45.0997V187.957Z" fill="#6C63FF"/>
<path opacity="0.1" d="M2.47266 200.766V207.28H45.7777V200.766H2.47266ZM6.32939 206.873H3.15063V201.173H6.32939V206.873ZM10.1861 206.873H7.00736V201.173H10.1861V206.873ZM14.0429 206.873H10.8641V201.173H14.0429V206.873ZM17.8996 206.873H14.7208V201.173H17.8996V206.873ZM21.7563 206.873H18.5776V201.173H21.7563V206.873ZM25.6131 206.873H22.4343V201.173H25.6131V206.873ZM29.4698 206.873H26.291V201.173H29.4698V206.873ZM33.3265 206.873H30.1478V201.173H33.3265V206.873ZM37.1833 206.873H34.0045V201.173H37.1833V206.873ZM41.04 206.873H37.8612V201.173H41.04V206.873ZM45.0997 206.873H41.718V201.173H45.0997V206.873Z" fill="#6C63FF"/>
<path opacity="0.1" d="M2.63867 219.694C2.79294 220.305 2.96751 220.915 3.1502 221.518V220.101H6.32896V225.801H4.632C4.68071 225.935 4.73349 226.074 4.79033 226.208H45.7935V219.694H2.63867ZM10.1857 225.801H7.00693V220.101H10.1857V225.801ZM14.0424 225.801H10.8637V220.101H14.0424V225.801ZM17.8992 225.801H14.7204V220.101H17.8992V225.801ZM21.7559 225.801H18.5771V220.101H21.7559V225.801ZM25.6126 225.801H22.4339V220.101H25.6126V225.801ZM29.4694 225.801H26.2906V220.101H29.4694V225.801ZM33.3261 225.801H30.1473V220.101H33.3261V225.801ZM37.1828 225.801H34.0041V220.101H37.1828V225.801ZM41.0396 225.801H37.8608V220.101H41.0396V225.801ZM45.0993 225.801H41.7175V220.101H45.0993V225.801Z" fill="#6C63FF"/>
<path opacity="0.1" d="M11.6396 238.605C11.7371 238.74 11.8345 238.878 11.936 239.013H14.043V241.745C14.2663 242.017 14.4936 242.286 14.721 242.559V239.017H17.8997V244.717H16.6128C16.7387 244.851 16.8645 244.989 16.9985 245.124H45.7778V238.61L11.6396 238.605ZM21.7565 244.713H18.5777V239.013H21.7565V244.713ZM25.6132 244.713H22.4344V239.013H25.6132V244.713ZM29.4699 244.713H26.2912V239.013H29.4699V244.713ZM33.3267 244.713H30.1479V239.013H33.3267V244.713ZM37.1834 244.713H34.0047V239.013H37.1834V244.713ZM41.0401 244.713H37.8614V239.013H41.0401V244.713ZM45.0999 244.713H41.7181V239.013H45.0999V244.713Z" fill="#6C63FF"/>
<path opacity="0.1" d="M32.8965 257.517C33.2619 257.725 33.6313 257.924 34.0048 258.124V257.924H37.1835V259.724L37.8615 260.033V257.924H41.0403V261.381L41.7183 261.642V257.924H45.1V262.81L45.778 263.022V257.517H32.8965Z" fill="#6C63FF"/>
<path opacity="0.1" d="M166.428 87.6492C166.428 87.6492 156.75 87.0629 157.903 93.8621C157.844 94.2077 157.895 94.5632 158.05 94.8777C158.204 95.1921 158.454 95.4495 158.764 95.6129C158.764 95.6129 158.764 95.108 159.754 95.279C160.102 95.3362 160.455 95.3526 160.806 95.3279C161.281 95.2965 161.732 95.1107 162.093 94.7986V94.7986C162.093 94.7986 164.813 93.6708 165.872 89.2126C165.872 89.2126 166.652 88.2395 166.623 87.9912L164.999 88.6914C164.999 88.6914 165.56 89.8722 165.121 90.8534C165.121 90.8534 165.068 88.7362 164.752 88.7851C164.691 88.7851 163.903 89.1922 163.903 89.1922C163.903 89.1922 164.865 91.2524 164.139 92.7466C164.139 92.7466 164.415 90.2141 163.607 89.3429L162.43 90.0228C162.43 90.0228 163.554 92.1481 162.791 93.8825C162.791 93.8825 162.99 91.2239 162.19 90.1897L161.147 91.004C161.147 91.004 162.202 93.0967 161.553 94.538C161.553 94.538 161.467 91.4396 160.915 91.2035C160.519 91.5384 160.166 91.9213 159.864 92.3435C159.864 92.3435 160.586 93.8621 160.14 94.6642C160.14 94.6642 159.864 92.6041 159.637 92.5919C159.637 92.5919 158.731 93.9599 158.638 94.8963C158.68 94.0275 158.948 93.1851 159.417 92.4534C158.894 92.5527 158.412 92.8032 158.029 93.1741C158.029 93.1741 158.171 92.2092 159.653 92.1237C159.653 92.1237 160.404 91.0895 160.607 91.0244C160.607 91.0244 159.141 90.9022 158.252 91.2972C158.252 91.2972 159.036 90.3852 160.875 90.8004L161.902 89.9577C161.902 89.9577 159.973 89.693 159.157 89.9862C159.157 89.9862 160.095 89.1719 162.178 89.7663L163.298 89.0945C162.438 88.9055 161.556 88.8288 160.676 88.8665C160.676 88.8665 161.707 88.3087 163.627 88.9154L164.439 88.553C164.439 88.553 163.221 88.3169 162.884 88.2802C162.547 88.2436 162.511 88.1459 162.511 88.1459C163.273 88.0184 164.056 88.1057 164.772 88.3983C164.772 88.3983 166.457 87.755 166.428 87.6492Z" fill="#6C63FF"/>
<path opacity="0.1" d="M141.022 120.738C141.022 120.738 137.713 129.874 144.542 130.709C144.855 130.863 145.208 130.914 145.551 130.855C145.895 130.796 146.211 130.629 146.454 130.379C146.454 130.379 145.979 130.22 146.417 129.328C146.571 129.012 146.688 128.678 146.767 128.335C146.869 127.869 146.818 127.381 146.62 126.947V126.947C146.62 126.947 146.316 124.011 142.354 121.727C142.354 121.727 141.647 120.697 141.4 120.656L141.603 122.427C141.603 122.427 142.89 122.224 143.706 122.924C143.706 122.924 141.676 122.374 141.623 122.692C141.623 122.753 141.773 123.624 141.773 123.624C141.773 123.624 144.014 123.282 145.236 124.406C145.236 124.406 142.89 123.421 141.83 123.954L142.147 125.249C142.147 125.249 144.497 124.777 145.938 125.998C145.938 125.998 143.454 125.057 142.236 125.53L142.719 126.751C142.719 126.751 145.021 126.344 146.214 127.358C146.214 127.358 143.227 126.544 142.849 127.024C143.057 127.498 143.321 127.945 143.637 128.355C143.637 128.355 145.297 128.095 145.934 128.762C145.934 128.762 143.884 128.441 143.811 128.653C143.811 128.653 144.863 129.915 145.731 130.281C144.916 129.992 144.189 129.493 143.624 128.836C143.571 129.368 143.674 129.905 143.921 130.379C143.921 130.379 143.036 129.972 143.373 128.526C143.373 128.526 142.593 127.513 142.593 127.305C142.593 127.305 142.057 128.677 142.187 129.646C142.187 129.646 141.538 128.632 142.455 126.983L141.944 125.762C141.944 125.762 141.132 127.541 141.189 128.412C141.189 128.412 140.685 127.276 141.838 125.44L141.517 124.174C141.093 124.943 140.769 125.764 140.555 126.617C140.555 126.617 140.312 125.465 141.436 123.791L141.318 122.92C141.318 122.92 140.75 124.011 140.616 124.341C140.482 124.671 140.381 124.658 140.381 124.658C140.474 123.889 140.779 123.16 141.262 122.554C141.262 122.554 141.132 120.738 141.022 120.738Z" fill="#6C63FF"/>
<path opacity="0.1" d="M205.178 113.034C205.178 113.034 201.873 122.187 208.698 123.001C209.011 123.155 209.366 123.206 209.71 123.146C210.054 123.086 210.37 122.919 210.614 122.667C210.614 122.667 210.135 122.509 210.577 121.621C210.732 121.304 210.848 120.969 210.922 120.624C211.026 120.158 210.976 119.67 210.78 119.235C210.78 119.235 210.476 116.3 206.513 114.016C206.513 114.016 205.803 112.99 205.555 112.949L205.762 114.716C205.762 114.716 207.049 114.516 207.865 115.217C207.865 115.217 205.836 114.667 205.779 114.981C205.779 115.046 205.929 115.913 205.929 115.913C205.929 115.913 208.17 115.575 209.396 116.695C209.396 116.695 207.049 115.713 205.986 116.243L206.306 117.542C206.306 117.542 208.657 117.065 210.098 118.291C210.098 118.291 207.61 117.346 206.392 117.818L206.875 119.04C206.875 119.04 209.177 118.633 210.37 119.646C210.37 119.646 207.386 118.832 207.005 119.317C207.219 119.793 207.492 120.24 207.817 120.648C207.817 120.648 209.473 120.383 210.114 121.055C210.114 121.055 208.064 120.734 207.991 120.949C207.991 120.949 209.039 122.207 209.907 122.578C209.092 122.29 208.367 121.791 207.804 121.133C207.751 121.664 207.852 122.201 208.097 122.676C208.097 122.676 207.216 122.268 207.553 120.827C207.553 120.827 206.773 119.809 206.769 119.606C206.769 119.606 206.237 120.982 206.363 121.947C206.363 121.947 205.714 120.937 206.631 119.284L206.12 118.063C206.12 118.063 205.308 119.842 205.365 120.709C205.365 120.709 204.861 119.577 206.014 117.741L205.689 116.471C205.265 117.24 204.941 118.061 204.727 118.914C204.727 118.914 204.488 117.761 205.612 116.088L205.495 115.217C205.495 115.217 204.926 116.308 204.788 116.638C204.65 116.967 204.553 116.955 204.553 116.955C204.649 116.185 204.955 115.457 205.438 114.85C205.438 114.85 205.292 113.039 205.178 113.034Z" fill="#6C63FF"/>
<path opacity="0.1" d="M113.469 187.737C113.469 187.737 110.161 196.877 116.989 197.712C117.302 197.866 117.656 197.917 117.999 197.857C118.343 197.797 118.659 197.63 118.901 197.378C118.901 197.378 118.426 197.219 118.865 196.332C119.021 196.015 119.138 195.68 119.214 195.334C119.319 194.868 119.267 194.38 119.068 193.946V193.946C119.068 193.946 118.763 191.01 114.801 188.73C114.801 188.73 114.095 187.7 113.847 187.66L114.05 189.427C114.05 189.427 115.341 189.227 116.153 189.927C116.153 189.927 114.123 189.378 114.07 189.691C114.07 189.756 114.22 190.624 114.22 190.624C114.22 190.624 116.461 190.286 117.683 191.405C117.683 191.405 115.337 190.424 114.277 190.953L114.594 192.252C114.594 192.252 116.944 191.776 118.386 193.001C118.386 193.001 115.901 192.057 114.683 192.529L115.166 193.751C115.166 193.751 117.468 193.343 118.662 194.357C118.662 194.357 115.678 193.543 115.296 194.027C115.504 194.501 115.769 194.948 116.084 195.359C116.084 195.359 117.744 195.094 118.386 195.766C118.386 195.766 116.331 195.444 116.258 195.66C116.258 195.66 117.31 196.918 118.179 197.289C117.363 197.001 116.636 196.504 116.072 195.847C116.018 196.378 116.121 196.914 116.368 197.386C116.368 197.386 115.483 196.979 115.82 195.538C115.82 195.538 115.045 194.52 115.04 194.316C115.04 194.316 114.505 195.693 114.635 196.658C114.635 196.658 113.985 195.648 114.902 193.995L114.391 192.773C114.391 192.773 113.579 194.553 113.64 195.42C113.64 195.42 113.136 194.288 114.289 192.452L113.965 191.186C113.539 191.954 113.216 192.775 113.002 193.628C113.002 193.628 112.759 192.472 113.883 190.803L113.766 189.927C113.766 189.927 113.197 191.019 113.063 191.348C112.929 191.678 112.828 191.666 112.828 191.666C112.922 190.895 113.228 190.166 113.713 189.561C113.713 189.561 113.579 187.737 113.469 187.737Z" fill="#6C63FF"/>
<path opacity="0.1" d="M100.34 101.59C100.34 101.59 97.0353 110.726 103.86 111.561C104.173 111.715 104.527 111.766 104.871 111.706C105.215 111.647 105.532 111.481 105.776 111.231C105.776 111.231 105.297 111.072 105.739 110.18C105.892 109.862 106.008 109.528 106.084 109.183C106.188 108.718 106.138 108.232 105.942 107.799C105.942 107.799 105.638 104.863 101.672 102.579C101.672 102.579 100.965 101.549 100.717 101.508L100.925 103.279C100.925 103.279 102.211 103.076 103.023 103.776C103.023 103.776 100.994 103.226 100.941 103.544C100.941 103.605 101.091 104.476 101.091 104.476C101.091 104.476 103.332 104.134 104.558 105.258C104.558 105.258 102.211 104.273 101.148 104.806L101.464 106.101C101.464 106.101 103.815 105.625 105.26 106.85C105.26 106.85 102.772 105.905 101.554 106.382L102.037 107.603C102.037 107.603 104.339 107.196 105.532 108.214C105.532 108.214 102.548 107.4 102.167 107.88C102.375 108.354 102.639 108.801 102.954 109.211C102.954 109.211 104.615 108.951 105.256 109.619C105.256 109.619 103.206 109.297 103.133 109.509C103.133 109.509 104.18 110.771 105.049 111.137C104.234 110.847 103.508 110.349 102.942 109.692C102.888 110.224 102.991 110.761 103.239 111.235C103.239 111.235 102.354 110.828 102.695 109.382C102.695 109.382 101.915 108.369 101.911 108.161C101.911 108.161 101.379 109.533 101.505 110.502C101.505 110.502 100.851 109.488 101.773 107.839L101.257 106.618C101.257 106.618 100.445 108.397 100.506 109.268C100.506 109.268 100.003 108.133 101.156 106.296L100.831 105.03C100.406 105.799 100.083 106.62 99.869 107.473C99.869 107.473 99.6295 106.321 100.75 104.647L100.636 103.776C100.636 103.776 100.064 104.867 99.9299 105.193C99.7959 105.519 99.6944 105.515 99.6944 105.515C99.7883 104.744 100.095 104.015 100.579 103.41C100.579 103.41 100.454 101.59 100.34 101.59Z" fill="#6C63FF"/>
<path opacity="0.1" d="M124.877 151.343C124.877 151.343 127.431 160.707 133.488 157.45C133.832 157.395 134.15 157.232 134.396 156.985C134.643 156.738 134.805 156.419 134.86 156.074C134.86 156.074 134.381 156.22 134.231 155.239C134.173 154.891 134.075 154.55 133.938 154.225C133.758 153.783 133.437 153.414 133.025 153.175C133.025 153.175 131.088 150.952 126.529 151.375C126.529 151.375 125.36 150.948 125.133 151.058L126.318 152.381C126.318 152.381 127.256 151.473 128.324 151.567C128.324 151.567 126.338 152.299 126.485 152.58C126.517 152.637 127.142 153.256 127.142 153.256C127.142 153.256 128.766 151.681 130.423 151.888C130.423 151.888 127.942 152.442 127.382 153.492L128.385 154.368C128.385 154.368 130.033 152.621 131.917 152.784C131.917 152.784 129.339 153.452 128.616 154.543L129.72 155.272C129.72 155.272 131.344 153.598 132.927 153.749C132.927 153.749 130.029 154.82 129.984 155.422C130.428 155.69 130.902 155.902 131.397 156.053C131.397 156.053 132.615 154.881 133.504 155.048C133.504 155.048 131.64 155.972 131.705 156.188C131.705 156.188 133.289 156.595 134.202 156.399C133.37 156.636 132.491 156.65 131.653 156.44C131.914 156.906 132.306 157.284 132.781 157.527C132.781 157.527 131.823 157.702 131.271 156.33C131.271 156.33 130.053 155.951 129.923 155.78C129.923 155.78 130.28 157.214 130.938 157.93C130.938 157.93 129.826 157.478 129.627 155.597L128.502 154.893C128.502 154.893 128.872 156.811 129.408 157.49C129.408 157.49 128.344 156.855 128.23 154.689L127.24 153.842C127.336 154.721 127.546 155.583 127.865 156.407C127.865 156.407 127.008 155.593 126.964 153.59L126.367 152.943C126.367 152.943 126.529 154.164 126.606 154.51C126.684 154.856 126.606 154.917 126.606 154.917C126.241 154.233 126.072 153.461 126.119 152.686C126.119 152.686 124.97 151.282 124.877 151.343Z" fill="#6C63FF"/>
<path opacity="0.1" d="M194.152 159.705C194.152 159.705 196.706 169.069 202.759 165.812C203.104 165.759 203.423 165.597 203.671 165.349C203.918 165.102 204.081 164.782 204.135 164.436C204.135 164.436 203.652 164.583 203.502 163.622C203.448 163.273 203.351 162.933 203.214 162.608C203.031 162.167 202.708 161.798 202.296 161.558V161.558C202.296 161.558 200.36 159.335 195.801 159.762C195.801 159.762 194.631 159.331 194.408 159.441L195.589 160.764C195.589 160.764 196.527 159.856 197.595 159.949C197.595 159.949 195.61 160.682 195.76 160.963C195.788 161.02 196.418 161.639 196.418 161.639C196.418 161.639 198.042 160.063 199.698 160.271C199.698 160.271 197.213 160.825 196.653 161.875L197.66 162.751C197.66 162.751 199.284 161.004 201.188 161.167C201.188 161.167 198.614 161.835 197.891 162.926L198.996 163.654C198.996 163.654 200.619 161.981 202.199 162.132C202.199 162.132 199.3 163.203 199.259 163.805C199.701 164.073 200.175 164.285 200.668 164.436C200.668 164.436 201.886 163.264 202.775 163.431C202.775 163.431 200.916 164.355 200.977 164.571C200.977 164.571 202.56 164.978 203.478 164.782C202.644 165.019 201.764 165.033 200.924 164.823C201.186 165.288 201.579 165.666 202.053 165.91C202.053 165.91 201.094 166.085 200.542 164.713C200.542 164.713 199.324 164.334 199.199 164.163C199.199 164.163 199.552 165.597 200.209 166.313C200.209 166.313 199.097 165.861 198.898 163.98L197.774 163.268C197.774 163.268 198.143 165.185 198.683 165.865C198.683 165.865 197.619 165.23 197.506 163.064L196.511 162.217C196.607 163.096 196.819 163.959 197.14 164.782C197.14 164.782 196.28 163.968 196.235 161.965L195.638 161.317C195.638 161.317 195.801 162.539 195.878 162.885C195.955 163.231 195.878 163.292 195.878 163.292C195.512 162.608 195.343 161.836 195.391 161.061C195.391 161.061 194.246 159.644 194.152 159.705Z" fill="#6C63FF"/>
<path d="M168.162 253.747C168.162 253.747 189.224 246.634 184.863 221.432L158.11 214.466L151.898 235.145L168.162 253.747Z" fill="#CED7E7"/>
<path opacity="0.1" d="M151.898 235.145L168.158 253.747C168.158 253.747 189.219 246.634 184.859 221.432L151.898 235.145Z" fill="black"/>
<path d="M63.3969 48.9583C63.3969 48.9583 66.2387 53.5957 70.1238 51.279C74.009 48.9624 70.2822 42.5621 70.2822 42.5621C70.2822 42.5621 62.8407 41.5402 63.3969 48.9583Z" fill="#FED253"/>
<path opacity="0.1" d="M70.124 51.2791C69.6657 51.5765 69.1517 51.7768 68.6134 51.8678C68.0752 51.9588 67.5241 51.9386 66.9939 51.8084C65.569 51.446 64.4728 50.3467 63.8842 49.6261C63.7085 49.415 63.5459 49.1933 63.397 48.9624C63.1981 46.316 64.0181 44.7404 65.1549 43.8121C66.7179 42.5377 68.8817 42.4848 69.8154 42.5255C70.1037 42.5255 70.2701 42.5662 70.2701 42.5662L70.3472 42.6965C70.4569 42.9042 70.6964 43.3642 70.9521 43.979C71.8209 45.9944 72.8562 49.6464 70.124 51.2791Z" fill="black"/>
<path d="M170.232 220.247L184.847 221.432L212.047 221.656L190.616 248.12C190.616 248.12 183.816 248.491 182.415 249.452C181.015 250.413 161.35 249.9 161.35 249.9L158.175 236.334L170.232 220.247Z" fill="#FFA2A2"/>
<path opacity="0.05" d="M170.232 220.247L184.847 221.432L212.047 221.656L190.616 248.12C190.616 248.12 183.816 248.491 182.415 249.452C181.015 250.413 161.35 249.9 161.35 249.9L158.175 236.334L170.232 220.247Z" fill="black"/>
<path d="M155.45 149.095L158.848 154.877L159.587 164.957C159.587 164.957 161.954 173.552 163.728 176.072C165.502 178.593 166.241 185.266 166.241 185.266C166.241 185.266 166.98 191.491 167.865 192.822C168.75 194.154 169.935 203.815 169.935 203.815C169.935 203.815 177.771 219.527 184.863 221.453C184.863 221.453 149.686 233.015 168.161 253.767C168.161 253.767 155.008 257.025 151.902 253.324C148.797 249.623 140.669 194.772 140.669 194.772L143.182 148.521L155.45 149.095Z" fill="#CED7E7"/>
<path opacity="0.05" d="M155.45 149.095L158.848 154.877L159.587 164.957C159.587 164.957 161.954 173.552 163.728 176.072C165.502 178.593 166.241 185.266 166.241 185.266C166.241 185.266 166.98 191.491 167.865 192.822C168.75 194.154 169.935 203.815 169.935 203.815C169.935 203.815 177.771 219.527 184.863 221.453C184.863 221.453 149.686 233.015 168.161 253.767C168.161 253.767 155.008 257.025 151.902 253.324C148.797 249.623 140.669 194.772 140.669 194.772L143.182 148.521L155.45 149.095Z" fill="black"/>
<path d="M112.771 92.7506C111.784 97.8861 112.077 103.187 113.624 108.181L108.151 123.893C108.151 123.893 66.4698 100.621 70.018 94.9858C72.0276 91.7897 72.2834 83.3334 72.121 76.6155C72.0032 71.5099 71.6419 67.4141 71.6419 67.4141C71.6419 67.4141 122.794 72.4586 115.986 84.168C114.446 86.8294 113.359 89.7302 112.771 92.7506V92.7506Z" fill="#FFA2A2"/>
<path opacity="0.1" d="M115.986 84.168C114.445 86.8294 113.359 89.7302 112.771 92.7506C105.179 95.1861 96.9815 94.9095 89.5707 91.968C82.1598 89.0264 75.9937 83.6014 72.1207 76.6155C72.0029 71.5099 71.6416 67.4141 71.6416 67.4141C71.6416 67.4141 122.782 72.4586 115.986 84.168Z" fill="black"/>
<path d="M136.678 58.966C136.682 64.4009 135.407 69.7599 132.956 74.6074C130.506 79.4549 126.949 83.6541 122.576 86.8637C118.203 90.0733 113.136 92.2027 107.788 93.0788C102.439 93.9549 96.9605 93.5529 91.7962 91.9057C86.6319 90.2584 81.9281 87.4122 78.0671 83.5986C74.2061 79.7849 71.2968 75.1114 69.5759 69.9579C67.8549 64.8044 67.3708 59.3164 68.1629 53.9399C68.9549 48.5634 71.0008 43.4503 74.1343 39.016C74.6214 38.3293 75.1343 37.6589 75.6729 37.0048C78.7418 33.264 82.5607 30.2123 86.8818 28.0476V28.0476C89.2261 26.8714 91.6988 25.9723 94.2502 25.3686C98.8569 24.2741 103.639 24.142 108.299 24.9804C112.959 25.8189 117.397 27.61 121.337 30.2424C125.277 32.8747 128.635 36.292 131.201 40.2816C133.768 44.2712 135.489 48.7479 136.256 53.433C136.543 55.2632 136.684 57.1134 136.678 58.966Z" fill="#FFA2A2"/>
<path d="M150.275 200.981C149.759 203.742 150.405 208.786 151.383 213.92C151.424 214.144 151.468 214.368 151.513 214.592C151.558 214.816 151.623 215.162 151.679 215.443C152.13 217.65 152.621 219.836 153.1 221.823C153.579 223.81 154.01 225.512 154.375 226.912C154.927 229.009 155.305 230.328 155.305 230.328C155.305 230.328 155.354 231.623 155.418 233.683C155.455 234.872 155.496 236.321 155.536 237.921C155.536 238.386 155.565 238.858 155.577 239.346C155.597 240.197 155.617 241.081 155.638 241.985C155.638 242.278 155.638 242.571 155.658 242.868C155.658 243.841 155.695 244.835 155.711 245.824C155.731 247.184 155.747 248.544 155.755 249.863C155.755 250.368 155.755 250.864 155.755 251.353C155.755 252.615 155.755 253.824 155.755 254.936C155.711 258.091 155.585 260.473 155.317 261.161C155.224 261.397 155.138 261.654 155.057 261.922C154.705 263.186 154.45 264.475 154.294 265.778L153.604 265.212C152.284 264.121 150.977 263.005 149.65 261.922C147.443 260.069 145.101 258.384 142.643 256.882C142.476 256.784 142.31 256.687 142.139 256.593C141.684 256.328 141.222 256.08 140.751 255.844C139.781 255.353 138.786 254.913 137.771 254.525C133.082 252.733 128.06 252.082 122.969 252.192C120.939 252.969 119.62 253.527 119.62 253.527L117.038 254.309L116.608 254.439C113.81 255.294 109.877 256.507 108.46 257.012C106.17 257.827 86.2896 261.975 86.2896 261.975C84.4734 262.473 82.6181 262.813 80.744 262.993C77.3316 263.956 73.858 264.685 70.347 265.176C62.3687 266.198 54.2653 265.544 46.553 263.254C46.3228 263.268 46.0919 263.261 45.8629 263.233C46.005 263.233 46.143 263.201 46.2688 263.176L45.7736 263.03L45.0956 262.818C43.9589 262.46 42.8316 262.068 41.7138 261.642L41.0359 261.381C39.9533 260.963 38.8937 260.514 37.8571 260.033L37.1791 259.724C36.0965 259.219 35.0369 258.686 34.0004 258.124C33.6269 257.928 33.2574 257.717 32.8921 257.517C31.7878 256.898 30.7052 256.25 29.6443 255.571C29.4657 254.036 29.3723 253.01 29.3723 253.01L27.789 245.103L27.7078 244.696L26.5711 238.996L26.4899 238.589L24.0175 226.188L23.9363 225.78L22.7996 220.08L22.7184 219.673L20.2136 207.28L20.1324 206.873L18.9956 201.173L18.9144 200.766L16.4299 188.348L16.3487 187.941L15.212 182.261L15.1308 181.854L14.6802 179.614L14.0022 176.223C14.0022 176.223 11.8384 173.121 9.40252 169.452L9.13052 169.045C8.4363 168.015 7.72179 166.944 7.02758 165.894C6.79618 165.548 6.57289 165.206 6.34961 164.868C6.0113 164.355 5.68381 163.854 5.36715 163.365L5.14793 163.027L5.10327 162.958C1.6038 157.527 3.94625 155.166 3.94625 155.166C3.94625 155.166 5.41587 153.171 7.31176 150.532C7.40513 150.398 7.50257 150.264 7.60406 150.125C8.41601 148.985 9.30914 147.739 10.186 146.493L10.864 145.524C11.1198 145.162 11.3715 144.8 11.6151 144.441C11.7125 144.307 11.8059 144.169 11.8952 144.034C13.7667 141.323 15.3094 138.957 15.6261 138.118C16.1214 136.795 19.2798 132.883 22.4261 129.45C24.9066 126.739 27.3749 124.329 28.4832 123.75C30.9962 122.419 32.0314 118.116 32.0314 118.116C32.0314 118.116 37.4998 116.194 38.2387 114.712C38.9776 113.23 49.3258 106.569 49.3258 106.569C49.3258 106.569 53.5114 103.866 55.2043 102.237C55.4439 102.024 55.653 101.779 55.8254 101.508C56.4141 100.45 60.2586 99.5783 61.8216 99.2648C62.2276 99.1834 62.4793 99.1386 62.4793 99.1386C63.1103 97.9887 63.9079 96.9391 64.8461 96.024C65.4835 95.458 66.2792 93.5078 66.9491 91.6187C67.6757 89.5586 68.24 87.5758 68.24 87.5758C69.4255 83.5735 71.7882 84.7583 71.7882 84.7583C71.785 85.305 71.8367 85.8506 71.9425 86.3869C72.929 91.2726 78.2879 93.3083 81.1012 95.5924C84.2069 98.1085 89.0827 104.635 92.9272 105.966C96.11 107.07 99.8003 111.231 100.97 112.619L101.059 112.725C101.254 112.953 101.351 113.083 101.351 113.083C101.351 113.083 103.531 112.969 104.859 112.945H105.342C105.612 112.918 105.868 112.813 106.081 112.644C107.4 111.744 109.365 109.105 110.222 108.499C111.253 107.754 112.292 95.7471 112.292 95.7471L112.345 95.7227C116.027 93.9923 119.977 111.312 119.977 111.312C119.977 111.312 126.923 113.389 127.516 114.871C127.63 115.164 128.153 115.685 128.941 116.316C132.527 119.064 136.344 121.496 140.349 123.583C140.438 123.628 140.523 123.673 140.613 123.71C140.693 123.753 140.776 123.793 140.86 123.828C141.011 123.901 141.157 123.966 141.295 124.027C141.514 124.125 141.717 124.206 141.904 124.272L142.147 124.357C142.729 124.551 143.277 124.836 143.771 125.2C143.917 125.306 144.063 125.416 144.206 125.534C144.758 125.995 145.267 126.508 145.724 127.065C145.793 127.146 145.858 127.231 145.923 127.313C146.231 127.7 146.507 128.082 146.735 128.437C147.108 128.983 147.448 129.551 147.754 130.138C147.754 130.138 153.811 140.517 155.735 141.697C157.659 142.878 158.841 154.893 158.841 154.893L152.345 179.04C152.345 179.04 152.041 185.148 151.472 191.377C151.156 194.87 150.754 198.424 150.275 200.981Z" fill="#CED7E7"/>
<path d="M101.351 113.816C101.351 113.816 96.9948 116.186 93.5927 116.41C93.1474 116.431 92.7011 116.405 92.2611 116.332C88.6967 115.791 83.4678 112.851 83.4678 112.851L89.602 106.105L97.0638 109.814L99.8081 112.375L101.351 113.816Z" fill="#63667E"/>
<path opacity="0.1" d="M136.24 53.4329C136.085 53.6518 135.91 53.855 135.716 54.0395C133.581 56.0752 129.789 55.2325 126.878 54.7602C124.349 54.3455 121.878 53.6292 119.518 52.6267C117.464 51.7473 114.999 50.6725 113.152 51.9346C112.442 52.415 111.954 53.1845 111.216 53.608C110.477 54.0314 109.535 54.0599 108.662 54.0721C105.82 54.0721 102.978 54.1047 100.206 53.4614C96.0688 52.4924 91.7899 50.0536 87.856 51.6618C84.7787 52.9158 83.1102 56.2747 82.2779 59.5034C81.872 61.0872 81.5715 62.7605 80.654 64.1041C79.7365 65.4477 77.9624 66.4004 76.4522 65.7693C74.2234 64.837 73.8946 61.0424 71.2071 60.851C68.2557 60.6434 68.2922 63.701 69.1528 65.9118C70.4276 69.169 72.0961 72.4261 72.1692 75.8217C68.9972 70.124 67.4984 63.6422 67.8461 57.1259C68.1939 50.6097 70.3739 44.3253 74.1341 38.9997C74.7885 38.5933 75.3007 37.9928 75.5997 37.2815C75.6298 37.1853 75.6542 37.0875 75.6728 36.9884C75.896 35.8525 75.2668 34.6595 75.2302 33.4707C75.0882 30.5677 78.2223 28.5442 81.0966 28.1778C83.0087 27.9335 84.9655 28.1208 86.8817 28.0597C87.8468 28.0384 88.8067 27.9101 89.7438 27.677C91.3603 27.1912 92.8741 26.4115 94.2094 25.3767C98.8162 24.2822 103.598 24.15 108.258 24.9885C112.918 25.8269 117.356 27.6181 121.296 30.2504C125.236 32.8828 128.594 36.3001 131.161 40.2897C133.727 44.2793 135.448 48.7559 136.215 53.441L136.24 53.4329Z" fill="black"/>
<path d="M136.934 51.0348C136.732 51.8401 136.31 52.5731 135.716 53.1519C133.581 55.1876 129.789 54.3408 126.878 53.8685C124.349 53.4628 121.877 52.7519 119.518 51.7513C117.464 50.876 115 49.8011 113.152 51.0633C112.442 51.5437 111.955 52.3132 111.216 52.7366C110.477 53.1601 109.535 53.1886 108.662 53.1967C105.821 53.2171 102.979 53.2333 100.206 52.5901C96.0692 51.617 91.7902 49.1823 87.8564 50.7864C84.7791 52.0404 83.1105 55.4034 82.2783 58.632C81.8723 60.2158 81.5719 61.8892 80.6544 63.2287C79.7369 64.5682 77.9628 65.529 76.4526 64.898C74.2238 63.9656 73.895 60.1711 71.2074 59.9797C68.256 59.7721 68.2926 62.8297 69.1532 65.0405C70.6634 68.8961 72.7177 72.7314 72.0437 76.8191C71.3739 76.8191 70.2656 76.7947 69.6079 76.7784C70.1194 75.9031 69.1451 74.8608 68.1748 74.5636C67.2046 74.2663 66.0719 74.2704 65.333 73.562C64.5942 72.8536 64.5901 71.7583 64.6672 70.7771C64.8356 68.6799 65.3472 66.6249 66.1815 64.6944C66.7133 63.473 67.3994 62.1498 66.9935 60.8713C66.7498 60.2919 66.4564 59.7347 66.1166 59.2061C65.2721 57.5776 65.4711 55.5418 66.1937 53.8603C66.5022 53.1438 66.7255 52.4679 66.9813 51.8246C67.3043 50.9102 67.7717 50.0538 68.3656 49.2881C69.2953 48.1278 70.2047 46.3811 69.1776 45.3022C68.9178 45.0294 69.4374 44.8421 69.271 44.4879C69.2415 44.4274 69.221 44.363 69.2101 44.2966C69.1623 43.8677 69.2657 43.4356 69.5024 43.0751C69.5503 42.9815 69.6032 42.8904 69.6607 42.8023C69.7074 42.7093 69.7603 42.6195 69.819 42.5336C70.718 41.0284 71.9127 39.7221 73.3307 38.6943C74.2116 38.0551 75.2428 37.4403 75.5919 36.4061C75.9979 35.1847 75.2834 33.8859 75.2225 32.5953C75.0804 29.6923 78.2145 27.6688 81.0888 27.3024C83.9631 26.936 86.9429 27.5426 89.7441 26.7976C93.7186 25.7471 96.5117 22.2294 100.121 20.2548C102.095 19.196 104.285 18.6038 106.522 18.5234C108.76 18.4429 110.986 18.8764 113.031 19.7906C117.245 21.7205 120.423 25.6209 124.824 27.0866C126.383 27.6078 128.072 27.8154 129.477 28.6786C131.1 29.6801 132.087 31.4308 132.931 33.1571C134.218 35.7751 134.478 38.4052 135.367 41.1778C136.074 43.3764 137.052 46.2508 137.133 48.7833C137.179 49.5395 137.112 50.2984 136.934 51.0348V51.0348Z" fill="#896363"/>
<g opacity="0.1">
<path d="M69.7052 45.9334C69.7701 45.6728 69.7765 45.401 69.7239 45.1376C69.6712 44.8743 69.5608 44.626 69.4007 44.4106C69.5062 44.7282 69.0475 44.9114 69.2992 45.1761C69.4997 45.3875 69.6399 45.649 69.7052 45.9334Z" fill="black"/>
<path d="M69.389 43.4783C69.3411 43.6204 69.3124 43.7683 69.3037 43.918C69.3808 43.7877 69.4864 43.6533 69.389 43.4783Z" fill="black"/>
<path d="M135.83 52.1586C133.691 54.1943 129.903 53.3516 126.984 52.8752C124.457 52.467 121.988 51.752 119.632 50.7458C117.574 49.8664 115.114 48.7916 113.262 50.0537C112.556 50.5341 112.069 51.3036 111.326 51.7271C110.583 52.1505 109.645 52.179 108.772 52.1871C105.931 52.1871 103.089 52.2238 100.312 51.5764C96.1791 50.6074 91.9002 48.1768 87.9663 49.7768C84.889 51.0349 83.2205 54.3938 82.3883 57.6225C81.9823 59.2063 81.6859 60.8796 80.7644 62.2232C79.8428 63.5668 78.0687 64.5195 76.5626 63.8925C74.3338 62.9561 74.0049 59.1656 71.3174 58.9742C69.2185 58.8236 68.6339 60.33 68.776 62.0033C68.8978 60.7249 69.588 59.7396 71.3174 59.8618C74.0049 60.0531 74.3338 63.8477 76.5626 64.7801C78.0687 65.4111 79.8469 64.4625 80.7644 63.1108C81.6819 61.7591 81.9823 60.0938 82.3883 58.5141C83.2205 55.2855 84.889 51.9225 87.9663 50.6685C91.9002 49.0643 96.1791 51.4828 100.312 52.4681C103.073 53.1154 105.939 53.0951 108.772 53.0747C109.645 53.0747 110.567 53.0503 111.326 52.6187C112.085 52.1871 112.544 51.4258 113.262 50.9413C115.114 49.6832 117.574 50.7581 119.632 51.6334C121.988 52.639 124.457 53.3554 126.984 53.7668C129.903 54.2391 133.691 55.0901 135.83 53.0462C136.992 51.9347 137.341 50.3265 137.264 48.5676C137.199 49.9641 136.793 51.2303 135.83 52.1586Z" fill="black"/>
<path d="M75.3653 31.8584C75.3428 32.0611 75.3347 32.2652 75.3409 32.4691C75.3815 33.316 75.7022 34.1628 75.8037 34.9893C75.9539 33.9755 75.487 32.917 75.3653 31.8584Z" fill="black"/>
<path d="M67.1155 60.7452C67.149 60.8669 67.1747 60.9907 67.1926 61.1157C67.2584 60.6957 67.2321 60.2664 67.1155 59.8576C66.8734 59.2761 66.58 58.7174 66.2386 58.1883C65.9336 57.5861 65.7527 56.9283 65.7068 56.2544C65.6242 57.2272 65.8081 58.2042 66.2386 59.08C66.5807 59.6072 66.8743 60.1645 67.1155 60.7452Z" fill="black"/>
<path d="M72.1541 75.8013L69.7791 75.7647C69.8345 75.9086 69.8567 76.0632 69.8441 76.2169C69.8314 76.3706 69.7842 76.5194 69.7061 76.6523C70.3759 76.6523 71.4883 76.6767 72.1419 76.693C72.2554 75.9961 72.2949 75.2892 72.2596 74.584C72.2504 74.9916 72.2151 75.3982 72.1541 75.8013Z" fill="black"/>
<path d="M68.2685 73.5499C67.2982 73.2567 66.1696 73.2527 65.447 72.5402C65.0216 72.0735 64.7818 71.4665 64.7731 70.8342C64.7122 71.7707 64.7731 72.7804 65.447 73.4318C66.1696 74.1443 67.2982 74.1484 68.2685 74.4415C68.5842 74.5336 68.8778 74.6895 69.1312 74.8995C69.3846 75.1096 69.5925 75.3694 69.7422 75.6629C70.1522 74.8202 69.2103 73.8308 68.2685 73.5499Z" fill="black"/>
</g>
<path opacity="0.1" d="M142.127 256.593C141.672 256.329 141.21 256.08 140.739 255.844C139.768 255.354 138.774 254.913 137.759 254.525C133.07 252.733 128.048 252.082 122.957 252.192C120.927 252.97 119.608 253.527 119.608 253.527L117.026 254.309L116.595 254.439C116.567 254.154 116.535 253.869 116.506 253.58C116.478 253.291 116.445 253.014 116.413 252.729C115.503 244.094 114.789 235.222 114.789 235.222V227.56V226.668L114.74 204.092L114.334 196.65L114.143 193.356L114.107 192.729L114.034 191.442L113.993 190.677C113.904 190.434 113.828 190.187 113.766 189.936C113.737 189.834 113.709 189.72 113.685 189.602C113.583 189.195 113.473 188.67 113.36 188.1C112.617 184.354 111.687 178.039 111.63 176.757C111.557 175.047 110.08 164.819 110.08 164.819C109.929 159.188 105.208 148.586 104.018 146.587C102.829 144.588 101.501 132.577 101.948 131.93C102.179 131.584 102.33 129.536 102.423 127.647C102.423 127.431 102.443 127.219 102.451 127.012C102.512 125.534 102.541 124.3 102.541 124.3L107.185 123.38L108.431 123.136L108.529 123.115L108.569 123.197C108.703 123.445 109.121 124.239 109.613 125.281C109.67 125.391 109.722 125.509 109.779 125.628C109.804 125.685 109.832 125.742 109.86 125.799C110.77 127.794 111.821 130.42 111.777 131.93C111.703 134.601 114.736 141.05 114.736 141.05C115.028 142.532 121.459 157.279 121.459 157.279C121.459 157.279 126.708 171.732 126.412 174.106C126.115 176.48 128.925 192.191 128.925 192.191L131.807 208.351C133.208 211.535 135.055 218.871 135.055 218.871L135.757 223.032L135.891 223.826L137.763 234.929L138.68 240.369C138.68 240.369 139.066 243.259 139.651 246.476C139.699 246.765 139.756 247.058 139.813 247.351C140.173 249.468 140.685 251.557 141.343 253.601C141.67 254.58 141.932 255.579 142.127 256.593V256.593Z" fill="black"/>
<path d="M142.63 256.882C142.463 256.784 142.297 256.687 142.126 256.593C141.672 256.328 141.209 256.08 140.738 255.844C139.768 255.353 138.773 254.913 137.758 254.525C133.069 252.733 128.047 252.082 122.956 252.192C120.927 252.969 119.607 253.527 119.607 253.527L117.025 254.309C116.993 254.024 116.964 253.739 116.932 253.45C116.899 253.161 116.875 252.929 116.851 252.668C115.941 244.053 115.227 235.222 115.227 235.222V227.486V226.595L115.178 204.076L114.772 196.967L114.691 195.493L114.634 194.496L114.561 193.176L114.488 191.837L114.435 190.872V190.66C114.435 190.64 114.435 190.616 114.407 190.591C114.33 190.371 114.236 190.037 114.135 189.614L114.086 189.41C114.066 189.317 114.041 189.215 114.021 189.113C113.258 185.64 112.137 178.153 112.076 176.748C112.003 175.038 110.526 164.811 110.526 164.811C110.375 159.18 105.654 148.578 104.464 146.579C103.275 144.58 101.951 132.569 102.394 131.922C102.65 131.515 102.8 129.043 102.897 127.004C102.897 126.841 102.897 126.682 102.897 126.531C102.95 125.273 102.97 124.292 102.97 124.292L107.29 123.437L108.386 123.221L108.557 123.189L108.963 123.107C108.963 123.107 109.494 124.092 110.132 125.448L110.213 125.619C111.143 127.631 112.243 130.367 112.21 131.922C112.137 134.593 115.17 141.042 115.17 141.042C115.462 142.524 121.893 157.271 121.893 157.271C121.893 157.271 127.142 171.724 126.846 174.098C126.549 176.471 129.359 192.183 129.359 192.183L132.241 208.343C133.642 211.526 135.489 218.863 135.489 218.863L136.142 222.739L136.276 223.525L137.75 232.287L139.11 240.36C139.11 240.36 139.516 243.239 140.076 246.467C140.129 246.761 140.182 247.054 140.239 247.351C140.598 249.478 141.11 251.576 141.769 253.629C142.129 254.693 142.417 255.779 142.63 256.882V256.882Z" fill="#63667E"/>
<path d="M138.968 47.7775C138.968 47.7775 137.417 49.7807 136.017 49.7807C134.616 49.7807 129.164 49.5567 126.322 48.6692C123.48 47.7816 109.547 47.1098 109.547 47.1098C109.547 47.1098 89.817 47.1831 89.1512 46.5154C88.4854 45.8477 76.8827 42.2892 75.7013 42.5132C75.4537 42.562 74.8488 42.6679 74.0409 42.8022L73.1153 42.9529C71.7147 43.1768 69.9649 43.4374 68.3654 43.6287C66.3883 43.8608 64.6508 43.9789 64.0986 43.7753V42.0694C64.0986 42.0694 66.3883 38.7308 66.5345 37.774C66.6806 36.8172 68.6049 22.9459 73.6309 17.9828C75.7072 14.0022 79.0673 10.8448 83.1631 9.02568C89.9631 6.05761 96.7631 3.54146 96.7631 3.54146L97.9526 3.37046L101.789 2.80046C101.906 2.68403 102.032 2.57779 102.167 2.48289C103.23 1.66861 106.454 -0.102466 110.656 3.70432L111.398 4.89318C111.398 4.89318 124.329 7.93046 130.313 18.5284C136.297 29.1263 136.597 39.5044 137.04 44.2476C137.04 44.2476 136.743 45.583 137.336 46.1001C137.551 46.2902 137.755 46.4913 137.949 46.7027C138.002 46.7556 138.055 46.8085 138.103 46.8655C138.274 47.0365 138.432 47.2157 138.562 47.3622C138.578 47.3737 138.591 47.3874 138.603 47.403C138.634 47.4415 138.668 47.4782 138.704 47.5129L138.968 47.7775Z" fill="#FED253"/>
<path opacity="0.05" d="M138.968 47.7776C138.968 47.7776 137.418 49.7807 136.017 49.7807C134.616 49.7807 129.164 49.5568 126.322 48.6692C123.481 47.7817 109.548 47.1099 109.548 47.1099C109.548 47.1099 89.8173 47.1832 89.1515 46.5155C88.4857 45.8477 76.883 42.2893 75.7016 42.5132C75.454 42.5621 74.8491 42.668 74.0412 42.8023L73.8301 41.4995L73.7773 41.1778C73.7773 41.1778 96.1708 36.3613 111.098 38.8856C126.026 41.4099 137.04 44.2192 137.04 44.2192C137.04 44.2192 136.744 45.5546 137.336 46.0717C137.551 46.2618 137.756 46.4629 137.949 46.6742C138.002 46.7272 138.055 46.7801 138.104 46.8371C138.274 47.0081 138.432 47.1872 138.562 47.3338C138.578 47.3452 138.592 47.359 138.603 47.3745C138.635 47.413 138.669 47.4497 138.704 47.4845L138.968 47.7776Z" fill="black"/>
<path opacity="0.1" d="M136.934 51.0348C134.17 51.2506 129.075 50.5747 126.846 50.245C126.212 50.1513 125.591 50.0373 124.966 49.8989C122.575 49.3777 115.223 47.9161 110.757 48.592C105.362 49.4062 90.1378 47.9242 90.1378 47.9242C90.1378 47.9242 80.7517 45.9985 76.9802 44.4432C75.5959 43.8691 73.2818 43.69 70.9799 43.975C70.3929 44.0484 69.8102 44.153 69.2343 44.2885C66.092 45.0335 63.441 46.7313 63.8998 49.6261C63.7242 49.415 63.5615 49.1933 63.4126 48.9625C63.2137 46.316 64.0338 44.7404 65.1705 43.8121L65.4384 43.7022C66.827 43.3065 68.2402 43.0032 69.6687 42.7942C69.8919 42.7576 70.1233 42.725 70.3588 42.6965C74.3982 42.151 80.2402 42.0288 85.1687 44.5165C85.1687 44.5165 89.748 46.6702 92.8537 46.6702C95.9594 46.6702 121.231 46.8942 127.146 48.596C128.324 48.9372 129.525 49.1917 130.739 49.3574C132.896 49.6362 135.087 49.429 137.153 48.7507C137.196 49.5188 137.122 50.2889 136.934 51.0348V51.0348Z" fill="black"/>
<path opacity="0.1" d="M138.968 47.7776C138.968 47.7776 137.417 49.7808 136.017 49.7808C134.616 49.7808 129.164 49.5568 126.322 48.6693C123.48 47.7817 109.547 47.1099 109.547 47.1099C109.547 47.1099 89.817 47.1832 89.1512 46.5155C88.4854 45.8478 76.8827 42.2893 75.7013 42.5133C75.4537 42.5621 74.8488 42.668 74.0409 42.8023L73.1153 42.953C71.5076 42.9447 69.9074 43.1724 68.3654 43.6288C66.3883 43.8609 64.6508 43.979 64.0986 43.7754V43.4375C64.5243 43.1897 64.9681 42.9747 65.4262 42.7942C68.1657 42.0248 70.9867 41.5848 73.8298 41.4832C77.3739 41.3529 81.5189 41.7682 85.1605 43.6085C85.1605 43.6085 89.7398 45.7623 92.8455 45.7623C95.9512 45.7623 121.223 45.9821 127.138 47.6881C128.316 48.026 129.517 48.2791 130.731 48.4453C133.395 48.782 136.1 48.3924 138.562 47.3176C138.578 47.329 138.591 47.3427 138.603 47.3583C138.634 47.3968 138.668 47.4335 138.704 47.4682L138.968 47.7776Z" fill="black"/>
<path d="M63.9568 49.5568C63.9568 49.5568 59.0039 45.7745 65.4345 43.2543C65.4345 43.2543 76.6678 39.7732 85.1688 44.0686C85.1688 44.0686 89.7482 46.2142 92.8539 46.2142C95.9596 46.2142 121.231 46.4381 127.146 48.1441C128.324 48.4825 129.525 48.7356 130.739 48.9013C133.886 49.284 137.074 48.6765 139.861 47.1628C140.267 46.9389 140.633 46.8249 140.742 46.9552C141.112 47.4031 140.819 49.9966 137.568 50.5136C135.03 50.9208 129.266 50.1513 126.842 49.7971C126.213 49.7034 125.587 49.5853 124.966 49.451C122.575 48.9298 115.223 47.4682 110.737 48.1441C105.346 48.9583 90.1176 47.4763 90.1176 47.4763C90.1176 47.4763 80.7356 45.5506 76.9641 43.9912C73.1926 42.4318 62.5521 43.7754 63.9568 49.5568Z" fill="#FED253"/>
<path opacity="0.1" d="M105.711 9.81557C105.305 9.22928 100.088 5.03978 97.9609 3.34607L101.797 2.77607C101.914 2.65964 102.04 2.5534 102.175 2.4585C104.964 5.394 105.711 9.81557 105.711 9.81557Z" fill="black"/>
<path opacity="0.1" d="M88.7899 32.2859L87.0889 34.8061L93.5925 34.5862L93.7387 31.7688L88.7899 32.2859Z" fill="black"/>
<path opacity="0.1" d="M128.474 35.3271L129.213 37.6234L133.353 38.2911L131.579 35.547L128.474 35.3271Z" fill="black"/>
<path opacity="0.1" d="M57.3799 112.416C57.8224 113.157 72.3806 132.366 76.2251 131.832C80.0697 131.299 57.3799 112.416 57.3799 112.416Z" fill="black"/>
<path opacity="0.1" d="M106.158 129.972C106.158 129.972 109.706 133.384 109.187 134.715C108.667 136.046 106.158 129.972 106.158 129.972Z" fill="black"/>
<path opacity="0.1" d="M67.4322 153.395C67.4322 153.395 64.3265 167.995 65.9544 168.459C67.5824 168.923 67.4322 153.395 67.4322 153.395Z" fill="black"/>
<path opacity="0.1" d="M107.339 210.093C107.854 211.575 112.142 221.212 113.104 221.729C114.066 222.246 107.339 210.093 107.339 210.093Z" fill="black"/>
<path opacity="0.1" d="M157.152 170.515C157.002 171.032 153.307 174.073 154.119 175.185C154.931 176.296 157.152 170.515 157.152 170.515Z" fill="black"/>
<path opacity="0.1" d="M128.474 197.565C128.401 197.94 127.662 205.708 129.067 207.202C130.471 208.697 128.474 197.565 128.474 197.565Z" fill="black"/>
<path opacity="0.1" d="M166.343 237.921C165.271 238.52 164.163 239.098 163.034 239.652C161.816 240.246 160.598 240.812 159.356 241.345C158.861 241.561 158.365 241.773 157.874 241.977C157.127 242.286 156.388 242.583 155.658 242.868C153.437 243.739 151.298 244.497 149.394 245.136C148.655 245.384 147.948 245.612 147.291 245.824C143.978 246.879 141.777 247.453 141.777 247.453C141.275 247.345 140.76 247.302 140.247 247.326C140.105 247.326 139.959 247.326 139.809 247.326C139.121 247.376 138.437 247.463 137.758 247.587C133.224 248.401 126.817 250.685 122.957 252.18C120.927 252.957 119.607 253.515 119.607 253.515L117.025 254.297L116.595 254.427C113.798 255.282 109.864 256.495 108.447 257C106.157 257.814 86.277 261.963 86.277 261.963C84.4608 262.46 82.6055 262.801 80.7315 262.981C76.1134 263.406 71.4717 263.512 66.8391 263.299C62.1867 263.6 54.6599 262.574 50.2795 261.882L49.5812 261.772C47.8883 261.495 46.8125 261.295 46.8125 261.295L47.3809 260.51L59.0363 244.383L59.1053 244.285L69.9651 229.266L70.3711 228.72L71.3576 227.356C71.3576 227.356 71.9503 226.542 74.2319 226.489C74.4998 226.489 74.7921 226.489 75.1128 226.489C77.0293 226.643 78.92 227.03 80.7436 227.641L81.2714 227.8C89.1351 230.06 101.29 229.494 101.29 229.494C101.29 229.494 108.853 228.272 114.797 227.539L115.239 227.482C117.181 227.207 119.137 227.037 121.097 226.973C124.719 227.047 132.554 225.121 132.554 225.121C134.239 224.759 134.949 224.453 135.899 223.773C136.025 223.684 136.159 223.586 136.305 223.48C136.711 223.175 137.178 222.8 137.779 222.336C138.875 221.493 140.413 220.349 142.833 218.745C143.044 218.607 143.267 218.468 143.507 218.338C143.746 218.208 144.051 218.032 144.343 217.886C146.686 216.773 149.157 215.953 151.699 215.443C153.808 214.988 155.949 214.693 158.102 214.56H158.422C164.512 214.234 170.731 215.28 174.369 218.712C175.005 219.316 175.559 220 176.017 220.748C176.239 221.103 176.437 221.473 176.61 221.856C176.942 222.585 177.188 223.35 177.345 224.136C177.374 224.282 177.399 224.429 177.418 224.575C177.418 224.62 177.418 224.661 177.418 224.706C177.418 224.824 177.442 224.942 177.45 225.06C177.775 229.933 172.733 234.339 166.343 237.921Z" fill="black"/>
<path d="M46.8125 260.42C46.8125 260.42 59.966 262.863 66.8391 262.419C66.8391 262.419 79.477 263.087 86.277 261.088C86.277 261.088 106.17 256.935 108.447 256.121C110.725 255.306 119.607 252.636 119.607 252.636C119.607 252.636 136.902 245.372 141.777 246.557C141.777 246.557 180.061 236.627 177.324 223.211C174.588 209.796 150.425 212.837 142.817 217.874C135.209 222.91 136.321 223.435 132.546 224.25C132.546 224.25 124.71 226.175 121.089 226.102C117.468 226.029 101.282 228.622 101.282 228.622C101.282 228.622 88.5708 229.217 80.7396 226.77C72.9084 224.323 71.3535 226.473 71.3535 226.473L46.8125 260.42Z" fill="#FFA2A2"/>
<path opacity="0.1" d="M75.3362 225.601C75.3382 225.617 75.3382 225.634 75.3362 225.65C75.3078 225.953 75.2296 226.249 75.1047 226.525C73.5458 230.361 64.6956 240.706 64.6956 240.706C64.2921 241.935 63.8052 243.135 63.2382 244.297C62.0187 246.782 60.6141 249.17 59.0364 251.443C56.6977 254.842 54.1443 258.089 51.3919 261.161H51.3716C51.0214 261.422 50.6568 261.662 50.2796 261.882C49.3255 262.452 47.8924 263.156 46.5406 263.242C46.3104 263.255 46.0794 263.249 45.8504 263.221C45.9925 263.221 46.1305 263.189 46.2564 263.164L45.7611 263.018L45.0831 262.806C43.9464 262.448 42.8191 262.055 41.7014 261.629L41.0234 261.369C39.9408 260.951 38.8812 260.502 37.8446 260.021L37.1667 259.712C36.0841 259.207 35.0245 258.673 33.9879 258.112C33.6144 257.916 33.245 257.704 32.8796 257.505C31.7754 256.886 30.6928 256.237 29.6318 255.559C28.5059 254.84 27.4044 254.089 26.3272 253.307C25.5153 251.797 24.8454 250.457 24.48 249.737C23.8142 248.397 23.7574 246.48 23.8386 245.091C23.8386 244.949 23.8386 244.814 23.863 244.684C23.932 243.813 24.0375 243.214 24.0375 243.214C23.436 242.408 22.8933 241.559 22.4136 240.674C22.1381 240.234 21.9814 239.731 21.959 239.212C21.9773 239.004 21.9581 238.794 21.9021 238.593C21.5895 237.307 20.2458 235.096 19.0035 233.707C18.0779 232.686 18.021 228.867 18.1103 226.159C18.1631 224.53 18.2646 223.333 18.2646 223.333C18.0827 223.216 17.9466 223.039 17.8789 222.833C17.5525 221.942 17.3318 221.015 17.2213 220.072C17.2213 219.938 17.1847 219.804 17.1644 219.665C16.9046 217.796 16.7869 215.919 16.7869 215.919C13.7827 213.725 12.3537 210.301 11.6879 207.247L11.6026 206.84C11.237 204.963 11.0817 203.051 11.1398 201.14C11.1398 200.957 11.1398 200.818 11.1398 200.733C11.1398 200.647 11.1398 200.631 11.1398 200.631C11.1398 200.631 11.5376 191.808 12.65 188.364C12.6947 188.217 12.7434 188.083 12.7921 187.957C12.8741 187.74 12.9803 187.534 13.1088 187.342C13.5147 186.801 13.803 185.779 14.0425 184.569C14.2089 183.731 14.347 182.798 14.4485 181.87C14.5418 181.096 14.6149 180.327 14.6718 179.614C14.8301 177.709 14.8788 176.223 14.8788 176.223L14.1277 172.51C13.9207 171.496 13.7624 170.474 13.6528 169.452C13.6528 169.318 13.6203 169.183 13.604 169.045C13.4142 167.158 13.3802 165.258 13.5026 163.365C13.5026 163.227 13.5026 163.093 13.5269 162.958C13.8439 158.647 14.9677 154.434 16.8396 150.54L17.0426 150.133C17.3133 149.59 17.5975 149.057 17.8952 148.533C18.1103 148.146 18.3377 147.764 18.5731 147.385C19.1974 146.371 19.8749 145.391 20.603 144.45C20.7086 144.311 20.8182 144.177 20.9278 144.042C22.1946 142.467 23.6024 141.012 25.1337 139.694C29.234 136.16 32.9973 134.625 36.4156 134.507C51.3635 133.978 59.7468 160.491 61.1028 165.136C61.2327 165.584 61.2976 165.829 61.2976 165.829C61.2976 165.829 67.3547 171.907 65.5806 174.574C65.2367 175.161 65.0273 175.817 64.9676 176.496C64.4805 180.083 65.877 185.99 65.877 185.99C65.877 185.99 66.3723 187.619 67.8176 191.519L68.2438 192.659C69.1491 195.102 69.3602 199.202 68.8406 202.875C68.3413 206.392 67.168 209.503 65.2883 210.301C61.4438 211.929 62.479 213.558 63.364 214.897C63.8899 215.858 64.3288 216.863 64.6753 217.902C65.2315 219.405 65.7471 220.984 65.942 221.599C65.9988 221.77 66.0272 221.864 66.0272 221.864C66.5657 221.655 67.1251 221.504 67.6958 221.416C68.4224 221.314 69.141 221.387 69.2791 222.01C69.3521 222.344 69.7703 222.739 70.3589 223.134C72.1046 224.339 75.3362 225.601 75.3362 225.601Z" fill="black"/>
<path d="M74.451 225.601C74.4262 225.911 74.3479 226.214 74.2196 226.497C72.6688 230.336 63.8105 240.706 63.8105 240.706C63.4052 241.935 62.9183 243.134 62.353 244.297C61.3733 246.303 60.2654 248.244 59.0362 250.107C56.4913 253.957 53.6719 257.617 50.6001 261.059L50.5068 261.161C50.5068 261.161 50.1495 261.434 49.5812 261.784C48.5656 262.434 47.4465 262.905 46.2725 263.176L45.7772 263.03L45.0992 262.818C43.9625 262.46 42.8353 262.068 41.7175 261.642L41.0395 261.381C39.9569 260.963 38.8973 260.514 37.8607 260.033L37.1828 259.724C36.1002 259.219 35.0406 258.686 34.004 258.124C33.6305 257.928 33.2611 257.717 32.8957 257.517C31.7915 256.898 30.7089 256.25 29.6479 255.571C28.522 254.852 27.4205 254.101 26.3433 253.32C25.8453 252.961 25.3527 252.593 24.8656 252.216C24.3175 251.174 23.8791 250.294 23.6071 249.749C22.9413 248.409 22.8844 246.492 22.9656 245.103C22.9656 244.961 22.9656 244.827 22.99 244.696C23.059 243.825 23.1646 243.226 23.1646 243.226C23.1646 243.226 22.8357 242.783 22.4379 242.18C22.2146 241.846 21.9751 241.459 21.7599 241.077C21.3539 240.36 21.0373 239.635 21.0982 239.224C21.1064 239.154 21.1064 239.083 21.0982 239.013C21.0921 238.875 21.0716 238.739 21.0373 238.605C20.7247 237.319 19.3768 235.108 18.1346 233.72C17.2089 232.698 17.1521 228.879 17.2374 226.171C17.2374 226.033 17.2374 225.898 17.2374 225.764C17.2942 224.359 17.3794 223.346 17.3794 223.346C16.9207 223.146 16.5675 221.668 16.3402 220.089L16.2793 219.681C16.0194 217.813 15.9017 215.936 15.9017 215.936C12.8975 213.741 11.4685 210.317 10.8068 207.264C10.3458 205.125 10.1683 202.935 10.279 200.749C10.279 200.684 10.279 200.647 10.279 200.647C10.279 200.647 10.6281 191.78 11.7405 188.331C11.7852 188.185 11.8339 188.05 11.8826 187.924C11.98 187.713 12.1012 187.513 12.2439 187.33C12.861 186.467 13.271 184.39 13.539 182.265L13.5877 181.858C13.9246 179.008 14.018 176.211 14.018 176.211L13.2629 172.498C13.0572 171.48 12.8989 170.461 12.7879 169.44C12.7676 169.306 12.7554 169.167 12.7392 169.033C12.5494 167.146 12.5154 165.246 12.6377 163.353C12.6377 163.215 12.6377 163.08 12.6661 162.946C12.9812 158.635 14.1051 154.421 15.9788 150.528C16.0438 150.39 16.1088 150.255 16.1818 150.121C16.7038 149.064 17.2839 148.036 17.9194 147.043C18.1386 146.697 18.3619 146.355 18.5974 146.017C18.9668 145.48 19.3525 144.95 19.7544 144.437L20.0792 144.03C21.3351 142.461 22.7306 141.01 24.2485 139.694C28.7142 135.855 32.7739 134.373 36.4277 134.507C50.8194 135.024 58.8982 160.585 60.2257 165.136C60.3557 165.584 60.4206 165.829 60.4206 165.829C60.4206 165.829 66.4818 171.907 64.7077 174.574C64.3637 175.161 64.1543 175.817 64.0947 176.496C63.6034 180.083 65.004 185.99 65.004 185.99C65.004 185.99 65.4993 187.619 66.9446 191.519C67.0745 191.882 67.2166 192.26 67.3506 192.659C68.2559 195.102 68.467 199.202 67.9473 202.875C67.448 206.396 66.2788 209.503 64.3951 210.301C60.5546 211.929 61.5857 213.558 62.4748 214.897C63.0007 215.858 63.4396 216.863 63.7861 217.902C64.4884 219.82 65.1339 221.864 65.1339 221.864C65.3996 221.761 65.6707 221.672 65.9459 221.599C66.5107 221.413 67.1088 221.35 67.6997 221.416C67.8632 221.429 68.0185 221.493 68.1432 221.6C68.268 221.707 68.3557 221.85 68.3939 222.01C68.5035 222.499 69.3439 223.105 70.3629 223.68C71.686 224.402 73.0511 225.043 74.451 225.601V225.601Z" fill="#CED7E7"/>
<path opacity="0.1" d="M21.0176 186.45C22.4222 186.377 37.5 180.522 40.6057 182.522C43.7114 184.521 62.9342 197.492 62.9342 197.492C62.9342 197.492 50.889 181.707 40.3946 178.002C29.9002 174.297 21.0176 186.45 21.0176 186.45Z" fill="black"/>
<path opacity="0.1" d="M42.6924 210.317C42.6924 210.317 57.7702 213.354 60.0599 215.431L42.6924 210.317Z" fill="black"/>
<path opacity="0.1" d="M39.7897 232.93C39.5705 233.154 34.1061 245.454 34.5446 245.454C34.983 245.454 39.6436 238.125 39.6436 238.125L39.7897 232.93Z" fill="black"/>
<path opacity="0.1" d="M50.0648 218.171C50.0648 218.171 45.6316 219.73 46.1472 219.877C46.6628 220.023 49.9146 218.839 50.0648 218.171Z" fill="black"/>
<path opacity="0.1" d="M45.6318 236.777C46.3707 238.333 48.7335 243.003 49.2531 242.262C49.7727 241.521 45.6318 236.777 45.6318 236.777Z" fill="black"/>
<path opacity="0.1" d="M100.973 113.503L100.34 114.407C100.34 114.407 95.3096 110.852 93.2432 109.073C91.1768 107.294 86.2971 115.445 82.4525 117.668C78.6079 119.891 72.1083 120.485 72.1083 120.485C72.1083 120.485 67.0824 115.445 67.2367 113.971C67.3909 112.497 64.8739 112.045 64.7237 111.007C64.5735 109.969 63.6885 107.005 62.5071 105.523C61.8819 104.741 61.7926 102.294 61.8494 100.165C62.2554 100.083 62.5071 100.039 62.5071 100.039C63.1381 98.8886 63.9357 97.839 64.8739 96.9239C66.2055 95.7391 68.2719 88.4757 68.2719 88.4757C69.4533 84.4735 71.816 85.6582 71.816 85.6582C71.816 91.7369 78.0274 93.9599 81.129 96.4801C84.2307 99.0003 89.1104 105.523 92.955 106.858C96.1094 107.937 99.7997 112.11 100.973 113.503Z" fill="black"/>
<path d="M100.974 112.611L100.34 113.519C100.34 113.519 95.2901 109.973 93.2237 108.181C91.1573 106.39 86.2775 114.553 82.433 116.776C78.5884 118.999 72.0888 119.598 72.0888 119.598C72.0888 119.598 67.0629 114.553 67.2171 113.083C67.3714 111.614 64.8544 111.158 64.7042 110.115C64.554 109.073 63.6689 106.113 62.4876 104.631C61.8624 103.849 61.7731 101.402 61.8299 99.2731L62.4876 99.151C63.1186 98.0011 63.9162 96.9514 64.8544 96.0363C66.186 94.8474 68.2524 87.5881 68.2524 87.5881C69.4337 83.5859 71.7965 84.7666 71.7965 84.7666C71.7965 90.8452 78.0079 93.0723 81.1095 95.5925C84.2111 98.1127 89.0909 104.631 92.9355 105.967C96.1102 107.062 99.8005 111.219 100.974 112.611Z" fill="#CED7E7"/>
<path opacity="0.1" d="M101.351 113.816C101.351 113.816 96.9954 116.186 93.5933 116.41C93.148 116.431 92.7017 116.405 92.2617 116.333C92.2617 116.333 96.017 113.519 99.5043 112.945L101.351 113.816Z" fill="black"/>
<path opacity="0.1" d="M110.222 125.896C110.222 125.896 104.729 123.75 102.914 126.979C102.975 125.497 102.999 124.267 102.999 124.267L108.987 123.079C108.987 123.079 109.564 124.149 110.238 125.591C110.222 125.782 110.222 125.896 110.222 125.896Z" fill="black"/>
<path d="M92.2617 116.332C92.2617 116.332 98.8425 112.371 102.005 112.705C105.322 113.051 111.748 113.295 111.748 113.295C111.748 113.295 109.532 118.336 109.828 119.374C110.124 120.412 110.198 125.452 110.198 125.452C110.198 125.452 103.548 122.859 102.439 127.675C102.439 127.675 98.8182 122.265 96.3783 120.632C94.7593 119.459 93.3648 118.002 92.2617 116.332Z" fill="#63667E"/>
<path opacity="0.1" d="M129.437 120.933C127.516 120.933 120.716 116.63 119.239 113.816C117.761 111.003 115.69 114.109 113.77 115.152C112.552 115.819 107.725 114.423 105.123 113.409C106.442 112.509 109.365 109.977 110.222 109.37C111.253 108.625 112.293 96.6186 112.293 96.6186C115.987 94.6928 119.978 112.184 119.978 112.184C119.978 112.184 126.928 114.26 127.516 115.742C127.63 116.035 128.154 116.556 128.941 117.187C129.753 119.239 130.2 120.933 129.437 120.933Z" fill="black"/>
<path d="M129.437 120.042C127.516 120.042 120.716 115.742 119.239 112.929C117.761 110.115 115.69 113.222 113.77 114.26C112.552 114.928 108.683 113.637 106.081 112.632C107.4 111.736 109.365 109.098 110.222 108.487C111.253 107.746 112.292 95.7392 112.292 95.7392C115.987 93.8134 119.977 111.304 119.977 111.304C119.977 111.304 126.928 113.381 127.516 114.863C127.63 115.156 128.154 115.677 128.941 116.308C129.753 118.348 130.2 120.042 129.437 120.042Z" fill="#CED7E7"/>
<path d="M155.699 249.908L219.968 196.165C220.61 195.622 221.427 195.332 222.266 195.351L246.243 195.982C246.243 195.982 247.903 197.203 245.467 199.874L184.839 249.769C184.184 250.307 183.371 250.613 182.525 250.641L156.308 251.512C156.119 251.518 155.934 251.465 155.777 251.36C155.621 251.255 155.5 251.104 155.433 250.928C155.366 250.751 155.356 250.558 155.403 250.375C155.451 250.192 155.554 250.029 155.699 249.908Z" fill="#0A073A"/>
<path d="M186.788 243.296C186.788 243.296 200.827 263.457 216.424 244.704C232.021 225.951 227.511 216.099 222.782 215.577C218.052 215.056 191.441 235.588 186.788 243.296Z" fill="#FFA2A2"/>
<circle cx="235" cy="257" r="16" fill="#57B894"/>
<path d="M234.103 265.116C233.788 265.116 233.492 264.954 233.318 264.682L228.154 256.623C227.87 256.179 227.99 255.582 228.424 255.291C228.858 254.999 229.439 255.123 229.724 255.567L234.048 262.314L240.643 250.485C240.9 250.024 241.474 249.863 241.924 250.127C242.374 250.391 242.531 250.979 242.273 251.44L234.918 264.631C234.756 264.922 234.459 265.105 234.132 265.116C234.123 265.116 234.113 265.116 234.103 265.116Z" fill="white"/>
</svg>
