<svg width="263" height="317" viewBox="0 0 263 317" fill="none" xmlns="http://www.w3.org/2000/svg">
<g clip-path="url(#clip0_330_5434)">
<path d="M169.111 120.977C170.467 119.673 171.521 118.087 172.198 116.331C172.875 114.576 173.159 112.693 173.03 110.815C172.902 108.937 172.363 107.111 171.452 105.464C170.541 103.818 169.281 102.391 167.759 101.284L181.036 57.5078L158.256 64.269L149.141 104.803C147.452 107.484 146.805 110.691 147.322 113.817C147.839 116.943 149.484 119.771 151.945 121.764C154.407 123.758 157.514 124.779 160.677 124.634C163.841 124.489 166.842 123.188 169.111 120.977V120.977Z" fill="#FFB8B8"/>
<path d="M1.87992 151.617C2.84627 153.232 4.15472 154.615 5.71311 155.669C7.2715 156.723 9.04193 157.422 10.8997 157.717C12.7574 158.013 14.6573 157.897 16.4655 157.378C18.2737 156.86 19.9463 155.951 21.3653 154.715L61.0295 177.475L59.5512 153.749L22.1121 135.773C19.8797 133.525 16.9009 132.175 13.74 131.978C10.5791 131.781 7.45584 132.751 4.96196 134.704C2.46808 136.657 0.776888 139.457 0.208848 142.575C-0.359191 145.692 0.235388 148.909 1.87992 151.617Z" fill="#FFB8B8"/>
<path d="M116.712 242.792C104.946 259.268 105.367 286.832 108.65 317H164.279L166.697 311.354L169.922 317H222.326C222.326 317 218.295 240.373 211.039 237.953C203.783 235.533 116.712 242.792 116.712 242.792Z" fill="#2F2E41"/>
<path d="M164.278 70.6571C179.862 70.6571 192.495 58.0176 192.495 42.4259C192.495 26.8343 179.862 14.1948 164.278 14.1948C148.694 14.1948 136.061 26.8343 136.061 42.4259C136.061 58.0176 148.694 70.6571 164.278 70.6571Z" fill="#FFB8B8"/>
<path d="M184.673 77.9819L190.191 88.5634L228.358 105.586L218.325 202.721L214.103 212.78L216.384 221.515L210.884 227.962C216.405 232.96 217.106 238.192 214.103 243.604L196.527 247.632C196.527 247.632 98.8015 256.326 107.037 241.179C116.036 224.629 118.328 175.752 98.462 149.633C81.5963 127.458 94.5447 98.6847 94.5447 98.6847L134.551 86.7231L149.265 77.9819L184.673 77.9819Z" fill="#3F3D56"/>
<path d="M176.806 1.072C176.938 0.791309 177.152 0.556677 177.419 0.398237C177.685 0.239798 177.994 0.164782 178.303 0.182829C165.385 -0.590291 151.778 0.916123 140.97 8.03852C138.352 9.76405 135.883 11.8222 133.034 13.0739C132.9 13.1344 132.783 13.2286 132.696 13.3475C132.608 13.4663 132.553 13.6057 132.536 13.7522C132.518 13.8986 132.539 14.0471 132.595 14.1832C132.652 14.3194 132.743 14.4385 132.859 14.5291L133.172 14.7746C133.296 14.8715 133.39 15.0004 133.446 15.1473C133.501 15.2942 133.515 15.4534 133.486 15.6077C133.458 15.7621 133.387 15.9055 133.282 16.0225C133.178 16.1395 133.043 16.2256 132.893 16.2714C132.737 16.3191 132.597 16.4105 132.491 16.535C132.385 16.6594 132.316 16.8116 132.293 16.9737C132.271 17.1357 132.295 17.3009 132.363 17.4497C132.431 17.5985 132.54 17.7248 132.677 17.8136L135.076 19.3643C135.196 19.4411 135.296 19.5469 135.365 19.6722C135.435 19.7974 135.471 19.9381 135.472 20.0812C135.473 20.2243 135.438 20.3654 135.37 20.4914C135.302 20.6174 135.203 20.7243 135.084 20.8024C134.88 20.9279 134.667 21.0361 134.446 21.1259C134.308 21.1776 134.186 21.264 134.091 21.3766C133.997 21.4892 133.933 21.6243 133.906 21.7689C133.878 21.9135 133.889 22.0627 133.936 22.2021C133.983 22.3415 134.065 22.4664 134.174 22.5647C135.213 23.4897 136.01 24.6548 136.495 25.9584C137.294 28.0378 137.438 30.3024 137.573 32.5261C138.399 29.3175 141.899 27.4288 145.205 27.2369C148.511 27.045 151.736 28.1364 154.953 28.9209C161.961 30.6247 169.24 30.9049 176.358 29.7447C173.941 34.5978 175.98 40.3865 178.031 45.4051L184.673 42.5571C193.794 37.4058 187.441 59.1965 184.031 62.1879C190.993 64.603 209.217 37.7984 203.354 27.6307C200.305 22.3417 202.47 15.52 196.474 10.5038C193.535 7.40886 187.669 8.78444 184.673 6.21221C183.494 5.19982 185.291 2.49131 183.671 1.90104C183.132 1.70499 176.895 0.874405 176.806 1.072Z" fill="#2F2E41"/>
<path d="M129.01 89.4556C123.832 112.454 110.552 166.152 97.0784 177.383C96.224 178.19 95.1995 178.795 94.0803 179.154C46.7215 190.697 31.5469 161.253 31.5469 161.253C31.5469 161.253 44.2384 155.065 44.5603 142.97L70.1549 150.915L92.4663 100.681L95.7495 97.6171L95.7679 97.5987L129.01 89.4556Z" fill="#3F3D56"/>
<path d="M229.986 301.836C231.342 300.531 232.396 298.946 233.073 297.19C233.75 295.434 234.034 293.551 233.905 291.673C233.777 289.796 233.238 287.969 232.327 286.323C231.416 284.676 230.156 283.249 228.634 282.142L241.911 238.366L219.131 245.127L210.016 285.661C208.327 288.342 207.68 291.549 208.197 294.675C208.714 297.801 210.359 300.629 212.82 302.623C215.282 304.616 218.389 305.637 221.552 305.492C224.716 305.347 227.717 304.046 229.986 301.836V301.836Z" fill="#FFB8B8"/>
<path d="M217.835 103.137L228.357 105.586C228.357 105.586 271.851 190.25 261.37 206.382C250.889 222.514 238.049 275.923 238.049 275.923C238.049 275.923 219.059 272.146 211.803 262.467L225.09 199.123L211.385 145.887L217.835 103.137Z" fill="#3F3D56"/>
<path d="M18.2002 228.86L18.5781 92.5034C18.5888 89.7435 19.6934 87.1007 21.6493 85.1545C23.6053 83.2084 26.253 82.118 29.0115 82.1226L131.941 82.4081C134.7 82.4189 137.342 83.5239 139.287 85.4809C141.232 87.4378 142.322 90.0868 142.317 92.8466L141.939 229.204C141.929 231.964 140.824 234.606 138.868 236.553C136.912 238.499 134.264 239.589 131.506 239.585L28.576 239.299C25.8175 239.288 23.1759 238.183 21.2307 236.226C19.2855 234.269 18.1957 231.62 18.2002 228.86V228.86Z" fill="#E6E6E6"/>
<path d="M26.21 187.697L26.4529 100.034C26.463 97.4493 27.4974 94.9741 29.3292 93.1515C31.1611 91.3289 33.6407 90.3077 36.2242 90.312L124.684 90.5574C127.267 90.5674 129.741 91.6023 131.563 93.435C133.385 95.2677 134.406 97.7486 134.402 100.333L134.065 221.673C134.055 224.257 133.021 226.733 131.189 228.555C129.357 230.378 126.877 231.399 124.294 231.395L69.4946 231.243C57.987 231.198 46.9671 226.588 38.8524 218.424C30.7378 210.261 26.1912 199.21 26.21 187.697V187.697Z" fill="white"/>
<path d="M114.548 128.819H45.5721C44.4745 128.819 43.4219 128.382 42.6457 127.606C41.8696 126.829 41.4336 125.776 41.4336 124.678C41.4336 123.58 41.8696 122.527 42.6457 121.75C43.4219 120.974 44.4745 120.538 45.5721 120.538H114.548C115.646 120.538 116.698 120.974 117.474 121.75C118.25 122.527 118.686 123.58 118.686 124.678C118.686 125.776 118.25 126.829 117.474 127.606C116.698 128.382 115.646 128.819 114.548 128.819V128.819Z" fill="#6C63FF"/>
<path d="M60.7468 109.726H45.5721C44.4745 109.726 43.4219 109.29 42.6457 108.513C41.8696 107.737 41.4336 106.684 41.4336 105.585C41.4336 104.487 41.8696 103.434 42.6457 102.658C43.4219 101.881 44.4745 101.445 45.5721 101.445H60.7468C61.8444 101.445 62.8971 101.881 63.6732 102.658C64.4493 103.434 64.8853 104.487 64.8853 105.585C64.8853 106.684 64.4493 107.737 63.6732 108.513C62.8971 109.29 61.8444 109.726 60.7468 109.726Z" fill="#6C63FF"/>
<path d="M114.548 147.911H45.5721C44.4745 147.911 43.4219 147.475 42.6457 146.698C41.8696 145.922 41.4336 144.869 41.4336 143.77C41.4336 142.672 41.8696 141.619 42.6457 140.843C43.4219 140.066 44.4745 139.63 45.5721 139.63H114.548C115.646 139.63 116.698 140.066 117.474 140.843C118.25 141.619 118.686 142.672 118.686 143.77C118.686 144.869 118.25 145.922 117.474 146.698C116.698 147.475 115.646 147.911 114.548 147.911Z" fill="#6C63FF"/>
<path d="M114.548 167.004H45.5721C44.4745 167.004 43.4219 166.568 42.6457 165.791C41.8696 165.015 41.4336 163.961 41.4336 162.863C41.4336 161.765 41.8696 160.712 42.6457 159.935C43.4219 159.159 44.4745 158.723 45.5721 158.723H114.548C115.646 158.723 116.698 159.159 117.474 159.935C118.25 160.712 118.686 161.765 118.686 162.863C118.686 163.961 118.25 165.015 117.474 165.791C116.698 166.568 115.646 167.004 114.548 167.004V167.004Z" fill="#6C63FF"/>
<path d="M108.966 217.312C118.061 217.312 125.434 209.936 125.434 200.837C125.434 191.738 118.061 184.361 108.966 184.361C99.8717 184.361 92.499 191.738 92.499 200.837C92.499 209.936 99.8717 217.312 108.966 217.312Z" fill="#6C63FF"/>
<path d="M106.72 209.411C106.436 209.411 106.155 209.345 105.901 209.218C105.646 209.09 105.425 208.906 105.255 208.678L100.762 202.685C100.618 202.492 100.512 202.273 100.452 202.04C100.392 201.807 100.379 201.564 100.413 201.325C100.447 201.087 100.527 200.858 100.65 200.65C100.772 200.443 100.935 200.262 101.127 200.117C101.32 199.973 101.539 199.868 101.772 199.808C102.005 199.748 102.248 199.735 102.486 199.77C102.725 199.804 102.954 199.885 103.161 200.008C103.368 200.13 103.549 200.293 103.693 200.486L106.632 204.406L114.181 193.078C114.314 192.877 114.486 192.704 114.685 192.569C114.885 192.435 115.11 192.341 115.346 192.293C115.583 192.245 115.826 192.245 116.062 192.291C116.299 192.338 116.524 192.431 116.724 192.565C116.925 192.698 117.097 192.87 117.231 193.071C117.365 193.271 117.458 193.496 117.505 193.733C117.552 193.969 117.552 194.213 117.504 194.449C117.457 194.686 117.364 194.911 117.229 195.111L108.244 208.595C108.082 208.839 107.863 209.04 107.607 209.182C107.35 209.324 107.064 209.402 106.771 209.411C106.754 209.411 106.737 209.411 106.72 209.411Z" fill="white"/>
<path d="M73.8514 50.3779C78.1688 50.3779 81.6687 46.8763 81.6687 42.5569C81.6687 38.2374 78.1688 34.7358 73.8514 34.7358C69.5341 34.7358 66.0342 38.2374 66.0342 42.5569C66.0342 46.8763 69.5341 50.3779 73.8514 50.3779Z" fill="#F2F2F2"/>
<path d="M45.3417 275.348C49.659 275.348 53.1589 271.847 53.1589 267.527C53.1589 263.208 49.659 259.706 45.3417 259.706C41.0243 259.706 37.5244 263.208 37.5244 267.527C37.5244 271.847 41.0243 275.348 45.3417 275.348Z" fill="#F2F2F2"/>
<path d="M225.139 80.7422C229.456 80.7422 232.956 77.2406 232.956 72.9211C232.956 68.6017 229.456 65.1001 225.139 65.1001C220.821 65.1001 217.321 68.6017 217.321 72.9211C217.321 77.2406 220.821 80.7422 225.139 80.7422Z" fill="#F2F2F2"/>
</g>
<defs>
<clipPath id="clip0_330_5434">
<rect width="263" height="317" fill="white"/>
</clipPath>
</defs>
</svg>
