<svg width="377" height="366" viewBox="0 0 377 366" fill="none" xmlns="http://www.w3.org/2000/svg">
<g clip-path="url(#clip0_338_9586)">
<path d="M343.951 365.277V328.673C343.951 328.673 358.198 354.624 343.951 365.277Z" fill="#F1F1F1"/>
<path d="M344.83 365.271L317.9 340.517C317.9 340.517 346.627 347.558 344.83 365.271Z" fill="#F1F1F1"/>
<path d="M249.845 162.151L106.936 245.782C106.436 246.074 105.84 246.155 105.28 246.008C104.72 245.861 104.241 245.498 103.949 244.998L12.049 87.5614C11.7574 87.0606 11.6761 86.4644 11.823 85.9037C11.9699 85.343 12.3329 84.8635 12.8324 84.5704L155.741 0.939708C156.241 0.647769 156.837 0.566402 157.397 0.713457C157.957 0.860512 158.436 1.22398 158.729 1.72413L250.628 159.16C250.92 159.661 251.001 160.257 250.854 160.818C250.707 161.379 250.344 161.858 249.845 162.151Z" fill="white"/>
<path d="M249.845 162.151L106.936 245.782C106.436 246.074 105.84 246.155 105.28 246.008C104.72 245.861 104.241 245.498 103.949 244.998L12.049 87.5614C11.7574 87.0606 11.6761 86.4644 11.823 85.9037C11.9699 85.343 12.3329 84.8635 12.8324 84.5704L155.741 0.939708C156.241 0.647769 156.837 0.566402 157.397 0.713457C157.957 0.860512 158.436 1.22398 158.729 1.72413L250.628 159.16C250.92 159.661 251.001 160.257 250.854 160.818C250.707 161.379 250.344 161.858 249.845 162.151ZM13.2732 85.3255C12.9734 85.5013 12.7556 85.789 12.6675 86.1255C12.5794 86.4619 12.6281 86.8196 12.8031 87.1201L104.703 244.556C104.878 244.856 105.166 245.074 105.502 245.163C105.838 245.251 106.195 245.202 106.495 245.027L249.404 161.396C249.704 161.22 249.922 160.933 250.01 160.596C250.098 160.26 250.049 159.902 249.874 159.602L157.974 2.16542C157.799 1.86532 157.511 1.64723 157.175 1.55899C156.839 1.47076 156.482 1.51959 156.182 1.69477L13.2732 85.3255Z" fill="#3F3D56"/>
<path d="M105.136 101.004L69.6912 121.746C69.191 122.038 68.5956 122.119 68.0355 121.972C67.4755 121.825 66.9966 121.462 66.7039 120.962L45.9879 85.4724C45.6963 84.9716 45.6151 84.3754 45.7619 83.8147C45.9088 83.254 46.2718 82.7745 46.7713 82.4814L82.2158 61.7392C82.7159 61.4473 83.3113 61.3659 83.8714 61.513C84.4314 61.66 84.9103 62.0235 85.203 62.5236L105.919 98.0128C106.211 98.5136 106.292 99.1098 106.145 99.6705C105.998 100.231 105.635 100.711 105.136 101.004V101.004ZM47.2121 83.2365C46.9124 83.4123 46.6946 83.7 46.6065 84.0365C46.5183 84.3729 46.5671 84.7306 46.7421 85.0311L67.4581 120.52C67.6337 120.82 67.921 121.038 68.257 121.127C68.5931 121.215 68.9503 121.166 69.2504 120.991L104.695 100.249C104.995 100.073 105.212 99.7852 105.3 99.4488C105.389 99.1123 105.34 98.7546 105.165 98.4542L84.4489 62.965C84.2733 62.6648 83.9859 62.4468 83.6499 62.3585C83.3139 62.2703 82.9566 62.3191 82.6565 62.4943L47.2121 83.2365Z" fill="#F2F2F2"/>
<path d="M183.04 84.5382L72.1822 149.413C71.7322 149.676 71.1961 149.75 70.6919 149.617C70.1877 149.485 69.7567 149.157 69.4937 148.707C69.2306 148.256 69.1572 147.719 69.2894 147.215C69.4216 146.71 69.7487 146.278 70.1987 146.015L181.057 81.1403C181.28 81.0099 181.526 80.9248 181.782 80.8897C182.037 80.8546 182.297 80.8702 182.547 80.9358C182.797 81.0014 183.031 81.1155 183.237 81.2717C183.442 81.428 183.615 81.6232 183.745 81.8463C183.876 82.0694 183.961 82.316 183.996 82.5721C184.031 82.8281 184.015 83.0885 183.95 83.3385C183.884 83.5885 183.77 83.8231 183.614 84.0289C183.458 84.2348 183.263 84.4078 183.04 84.5382V84.5382Z" fill="#CCCCCC"/>
<path d="M163.1 111.909L79.0142 161.117C78.7914 161.247 78.5451 161.332 78.2894 161.367C78.0337 161.402 77.7736 161.387 77.5239 161.321C77.0197 161.189 76.5887 160.861 76.3257 160.411C76.0627 159.96 75.9892 159.423 76.1214 158.918C76.2537 158.414 76.5808 157.982 77.0308 157.719L161.117 108.511C161.34 108.381 161.586 108.296 161.842 108.261C162.098 108.225 162.358 108.241 162.607 108.307C162.857 108.372 163.091 108.486 163.297 108.643C163.502 108.799 163.675 108.994 163.806 109.217C163.936 109.44 164.021 109.687 164.056 109.943C164.091 110.199 164.075 110.459 164.01 110.709C163.944 110.959 163.83 111.194 163.674 111.4C163.518 111.606 163.323 111.779 163.1 111.909V111.909Z" fill="#CCCCCC"/>
<path d="M157.539 41.7188L108.521 70.4048C108.071 70.6681 107.534 70.7417 107.03 70.6093C106.526 70.4769 106.095 70.1494 105.832 69.6988C105.569 69.2482 105.496 68.7115 105.628 68.2066C105.76 67.7018 106.087 67.2702 106.537 67.0069L155.556 38.3209C156.006 38.0576 156.542 37.984 157.046 38.1164C157.296 38.1819 157.53 38.2961 157.736 38.4523C157.941 38.6085 158.114 38.8038 158.245 39.0269C158.375 39.25 158.46 39.4966 158.495 39.7526C158.53 40.0087 158.514 40.2691 158.449 40.5191C158.383 40.769 158.269 41.0036 158.113 41.2095C157.957 41.4153 157.762 41.5884 157.539 41.7188Z" fill="#CCCCCC"/>
<path d="M152.138 60.5818L115.353 82.1087C115.13 82.2391 114.883 82.3243 114.628 82.3594C114.372 82.3945 114.112 82.3788 113.862 82.3132C113.613 82.2477 113.378 82.1335 113.173 81.9773C112.967 81.8211 112.794 81.6258 112.664 81.4027C112.534 81.1796 112.449 80.933 112.414 80.677C112.379 80.421 112.394 80.1605 112.46 79.9105C112.525 79.6606 112.639 79.426 112.795 79.2201C112.951 79.0143 113.146 78.8412 113.369 78.7108L150.155 57.1839C150.605 56.9205 151.141 56.8469 151.645 56.9793C152.149 57.1117 152.58 57.4392 152.843 57.8898C153.106 58.3404 153.18 58.8772 153.047 59.382C152.915 59.8868 152.588 60.3184 152.138 60.5818Z" fill="#CCCCCC"/>
<path d="M196.704 107.946L85.8458 172.82C85.3957 173.084 84.8597 173.157 84.3555 173.025C83.8513 172.893 83.4203 172.565 83.1572 172.114C82.8942 171.664 82.8207 171.127 82.953 170.622C83.0852 170.117 83.4123 169.686 83.8623 169.423L194.72 104.548C195.17 104.285 195.706 104.211 196.211 104.344C196.715 104.476 197.146 104.803 197.409 105.254C197.672 105.705 197.745 106.241 197.613 106.746C197.481 107.251 197.154 107.683 196.704 107.946V107.946Z" fill="#CCCCCC"/>
<path d="M176.764 135.317L92.6778 184.524C92.455 184.655 92.2087 184.74 91.953 184.775C91.6973 184.81 91.4372 184.794 91.1875 184.729C90.9379 184.663 90.7035 184.549 90.4979 184.393C90.2923 184.237 90.1195 184.041 89.9893 183.818C89.859 183.595 89.774 183.349 89.7389 183.093C89.7039 182.837 89.7195 182.576 89.785 182.326C89.8505 182.076 89.9645 181.842 90.1205 181.636C90.2765 181.43 90.4715 181.257 90.6943 181.126L174.781 131.919C175.003 131.789 175.25 131.703 175.505 131.668C175.761 131.633 176.021 131.649 176.271 131.714C176.521 131.78 176.755 131.894 176.96 132.05C177.166 132.207 177.339 132.402 177.469 132.625C177.599 132.848 177.684 133.095 177.719 133.351C177.755 133.607 177.739 133.867 177.673 134.117C177.608 134.367 177.494 134.602 177.338 134.808C177.182 135.013 176.987 135.186 176.764 135.317V135.317Z" fill="#CCCCCC"/>
<path d="M210.368 131.354L99.5098 196.228C99.287 196.359 99.0407 196.444 98.785 196.479C98.5293 196.514 98.2692 196.498 98.0195 196.433C97.7699 196.367 97.5356 196.253 97.33 196.097C97.1244 195.941 96.9515 195.745 96.8213 195.522C96.6911 195.299 96.606 195.053 96.5709 194.797C96.5359 194.541 96.5515 194.28 96.617 194.03C96.6825 193.78 96.7965 193.546 96.9525 193.34C97.1086 193.134 97.3036 192.961 97.5264 192.83L208.385 127.956C208.607 127.826 208.854 127.74 209.109 127.705C209.365 127.67 209.625 127.686 209.875 127.751C210.124 127.817 210.359 127.931 210.564 128.087C210.77 128.244 210.943 128.439 211.073 128.662C211.203 128.885 211.288 129.132 211.323 129.388C211.358 129.644 211.343 129.904 211.277 130.154C211.212 130.404 211.098 130.639 210.942 130.844C210.786 131.05 210.591 131.223 210.368 131.354V131.354Z" fill="#CCCCCC"/>
<path d="M217.199 143.058L106.341 207.932C106.119 208.063 105.872 208.148 105.617 208.183C105.361 208.218 105.101 208.202 104.851 208.137C104.601 208.071 104.367 207.957 104.162 207.801C103.956 207.644 103.783 207.449 103.653 207.226C103.523 207.003 103.438 206.756 103.402 206.5C103.367 206.244 103.383 205.984 103.449 205.734C103.514 205.484 103.628 205.249 103.784 205.044C103.94 204.838 104.135 204.665 104.358 204.534L215.216 139.66C215.439 139.529 215.685 139.444 215.941 139.409C216.197 139.374 216.457 139.39 216.706 139.455C216.956 139.521 217.19 139.635 217.396 139.791C217.601 139.947 217.774 140.143 217.905 140.366C218.035 140.589 218.12 140.835 218.155 141.091C218.19 141.348 218.174 141.608 218.109 141.858C218.043 142.108 217.929 142.343 217.773 142.548C217.617 142.754 217.422 142.927 217.199 143.058V143.058Z" fill="#CCCCCC"/>
<path d="M181.35 188.619C182.891 186.804 184.277 184.862 185.495 182.815C186.587 180.969 187.659 178.995 187.9 176.83C188.023 175.908 187.927 174.97 187.62 174.092C187.313 173.214 186.803 172.421 186.132 171.777C185.483 171.179 184.661 170.802 183.785 170.702C182.909 170.603 182.023 170.785 181.257 171.222C180.482 171.668 179.841 172.315 179.403 173.095C178.965 173.876 178.746 174.76 178.769 175.655C178.832 176.64 179.116 177.598 179.601 178.458C180.085 179.318 180.757 180.057 181.567 180.621C184.844 182.998 189.961 182.873 193.453 181.065C197.387 179.027 199.42 173.696 196.329 170.047C195.686 169.289 194.617 170.137 194.778 170.955C194.982 172.061 195.6 173.047 196.506 173.712C197.412 174.377 198.537 174.67 199.652 174.532C200.767 174.395 201.787 173.836 202.504 172.97C203.221 172.104 203.581 170.997 203.51 169.875L202.12 170.688C203.824 171.443 205.696 171.736 207.548 171.537C209.4 171.338 211.167 170.654 212.672 169.555C213.416 169.013 214.081 168.37 214.646 167.644C215.327 166.755 216.469 166.182 217.394 165.542L224.06 160.93C225.04 160.251 224.108 158.635 223.119 159.319L217.082 163.496C216.076 164.192 215.064 164.879 214.064 165.584C213.349 166.088 212.909 166.901 212.259 167.5C211.028 168.609 209.507 169.344 207.873 169.621C206.24 169.897 204.562 169.704 203.035 169.062C202.893 168.985 202.733 168.946 202.572 168.949C202.41 168.952 202.252 168.997 202.113 169.078C201.973 169.16 201.857 169.276 201.775 169.415C201.694 169.555 201.649 169.713 201.646 169.875C201.719 170.545 201.526 171.216 201.107 171.744C200.688 172.271 200.078 172.611 199.41 172.691C198.742 172.77 198.069 172.582 197.539 172.167C197.009 171.752 196.664 171.144 196.579 170.476L195.028 171.384C197.021 173.738 195.694 177.348 193.397 178.928C190.828 180.694 187.033 181.001 184.137 179.903C183.427 179.658 182.775 179.269 182.221 178.761C181.668 178.252 181.225 177.635 180.921 176.947C180.638 176.326 180.558 175.632 180.69 174.963C180.823 174.294 181.162 173.683 181.659 173.217C182.091 172.79 182.67 172.548 183.276 172.542C183.882 172.535 184.467 172.765 184.907 173.182C185.387 173.672 185.739 174.273 185.932 174.931C186.125 175.589 186.153 176.285 186.015 176.956C185.716 178.826 184.684 180.55 183.724 182.146C182.627 183.966 181.387 185.695 180.016 187.316C179.247 188.227 180.573 189.54 181.35 188.62L181.35 188.619Z" fill="#2FADE2"/>
<path d="M197.896 232.986C198.057 233.152 198.204 233.329 198.337 233.518L218.98 233.012L221.388 228.606L228.505 231.376L224.998 239.591C224.715 240.255 224.224 240.809 223.6 241.169C222.976 241.53 222.251 241.678 221.536 241.592L198.213 238.771C197.663 239.468 196.913 239.981 196.065 240.242C195.216 240.503 194.309 240.498 193.462 240.23C192.616 239.961 191.872 239.441 191.328 238.739C190.785 238.037 190.467 237.185 190.419 236.298C190.37 235.41 190.592 234.529 191.056 233.771C191.52 233.014 192.203 232.415 193.015 232.056C193.827 231.696 194.728 231.593 195.6 231.759C196.472 231.925 197.273 232.353 197.896 232.986V232.986Z" fill="#FFB7B7"/>
<path d="M232.995 215.827C233.21 215.745 233.432 215.681 233.658 215.634L241.401 196.491L238.316 192.53L243.687 187.101L249.831 193.585C250.327 194.109 250.64 194.779 250.723 195.495C250.806 196.212 250.654 196.935 250.29 197.557L238.428 217.836C238.849 218.618 239.022 219.51 238.924 220.392C238.826 221.274 238.461 222.105 237.878 222.775C237.296 223.444 236.522 223.921 235.662 224.14C234.801 224.36 233.894 224.312 233.06 224.004C232.227 223.696 231.506 223.142 230.996 222.415C230.485 221.688 230.207 220.823 230.2 219.936C230.193 219.048 230.457 218.179 230.956 217.445C231.455 216.711 232.166 216.147 232.995 215.827V215.827Z" fill="#FFB7B7"/>
<path d="M265.19 358.513H258.403L255.173 332.299L265.191 332.299L265.19 358.513Z" fill="#FFB7B7"/>
<path d="M266.921 365.101L245.035 365.101V364.823C245.035 362.561 245.932 360.392 247.53 358.792C249.127 357.193 251.294 356.294 253.553 356.294H253.554L266.921 356.295L266.921 365.101Z" fill="#2F2E41"/>
<path d="M127.5 205.676C127.394 204.954 127.447 204.218 127.656 203.519C127.865 202.82 128.225 202.176 128.711 201.631C129.197 201.087 129.796 200.655 130.466 200.368C131.137 200.08 131.863 199.943 132.593 199.965L138.917 183.399L144.302 190.888L137.471 205.472C137.352 206.694 136.789 207.831 135.888 208.665C134.987 209.5 133.81 209.975 132.581 210C131.352 210.025 130.156 209.599 129.219 208.802C128.283 208.005 127.671 206.893 127.5 205.676Z" fill="#9F616A"/>
<path d="M203.556 358.362L197.314 355.692L204.629 330.315L213.841 334.256L203.556 358.362Z" fill="#FFB7B7"/>
<path d="M202.563 365.101L182.437 356.492L182.545 356.237C183.433 354.157 185.109 352.515 187.206 351.673C189.303 350.83 191.648 350.856 193.726 351.744L193.726 351.744L206.019 357.003L202.563 365.101Z" fill="#2F2E41"/>
<path d="M232.198 238.665L231.707 246.629L246.054 248.166L261.067 249.775L256.648 237.682L232.198 238.665Z" fill="#FFB7B7"/>
<path d="M231.255 246.731L225.681 207.826L235.342 204.656L238.179 200.76L251.987 201.578L254.015 206.125L261.377 209.608L260.246 230.648L261.071 248.249L231.255 246.731Z" fill="#2F2E41"/>
<path d="M227.747 236.305L217.92 232.369L217.962 232.194C218.004 232.017 222.187 214.518 222.742 211.706C223.321 208.776 225.434 207.966 225.524 207.933L225.589 207.909L229.478 209.094L231.186 222.531L227.747 236.305Z" fill="#2F2E41"/>
<path d="M208.611 353.755L195.531 351.069L216.437 293.307L223.593 273.605C223.593 273.605 228.131 257.808 230.181 251.695L231.419 243.493L260.71 246.739C260.71 246.739 268.891 258.769 266.406 278.377L267.53 352.076L254.45 352.748L243.493 278.418L224.263 319.165C224.263 319.165 218.202 336.553 213.866 340.322L208.611 353.755Z" fill="#2F2E41"/>
<path d="M248.964 249.475C249.194 249.469 249.424 249.482 249.653 249.513L263.318 234.012L261.728 229.248L268.595 225.906L272.228 234.066C272.522 234.725 272.594 235.462 272.433 236.166C272.273 236.869 271.889 237.502 271.339 237.969L253.415 253.175C253.552 254.053 253.419 254.952 253.033 255.752C252.646 256.552 252.026 257.216 251.254 257.655C250.483 258.093 249.596 258.286 248.711 258.208C247.827 258.13 246.988 257.784 246.305 257.216C245.622 256.648 245.128 255.886 244.888 255.03C244.649 254.175 244.675 253.266 244.964 252.426C245.252 251.585 245.79 250.853 246.504 250.326C247.219 249.798 248.077 249.502 248.964 249.475V249.475Z" fill="#FFB7B7"/>
<path d="M262.227 235.52L256.527 222.095L258.75 212.743L261.146 209.713C261.321 209.638 261.51 209.6 261.701 209.602C261.892 209.603 262.08 209.645 262.254 209.723C263.138 210.079 263.89 211.17 264.49 212.966L269.833 228.203L262.227 235.52Z" fill="#2F2E41"/>
<path d="M232.652 195.785V185.663C232.652 182.066 234.08 178.616 236.62 176.073C239.16 173.529 242.606 172.1 246.198 172.1C249.791 172.1 253.236 173.529 255.777 176.073C258.317 178.616 259.744 182.066 259.744 185.663V195.785C259.744 196.268 259.552 196.731 259.211 197.073C258.869 197.414 258.407 197.606 257.925 197.607H234.472C233.99 197.606 233.527 197.414 233.186 197.073C232.845 196.731 232.653 196.268 232.652 195.785V195.785Z" fill="#2F2E41"/>
<path d="M243.415 197.371C248.9 197.371 253.346 192.919 253.346 187.427C253.346 181.935 248.9 177.483 243.415 177.483C237.93 177.483 233.483 181.935 233.483 187.427C233.483 192.919 237.93 197.371 243.415 197.371Z" fill="#FFB7B7"/>
<path d="M229.448 186.473C229.451 183.629 230.581 180.902 232.59 178.89C234.599 176.879 237.322 175.747 240.163 175.744H242.185C245.026 175.747 247.75 176.879 249.758 178.89C251.767 180.902 252.897 183.629 252.9 186.473V186.676H248.628L247.17 182.59L246.879 186.676H244.671L243.936 184.614L243.788 186.676H229.448L229.448 186.473Z" fill="#2F2E41"/>
<path d="M242.437 198.745C242.236 198.473 242.117 198.15 242.091 197.813C242.066 197.476 242.137 197.138 242.295 196.839C244.437 192.759 247.437 185.22 243.455 180.57L243.169 180.236H254.728V197.613L244.227 199.468C244.121 199.487 244.013 199.496 243.905 199.496C243.619 199.496 243.336 199.428 243.081 199.298C242.826 199.167 242.605 198.978 242.437 198.745V198.745Z" fill="#2F2E41"/>
<path d="M107.594 352.787L113.728 354.982L125.103 332.336L116.049 329.097L107.594 352.787Z" fill="#9F616A"/>
<path d="M103.904 358.181L106.745 350.222L118.825 354.545C120.866 355.278 122.532 356.791 123.46 358.753C124.387 360.714 124.5 362.964 123.773 365.009L123.683 365.259L103.904 358.181Z" fill="#2F2E41"/>
<path d="M147.483 358.862L153.997 358.862L157.096 333.704L147.482 333.705L147.483 358.862Z" fill="#9F616A"/>
<path d="M145.821 356.733L158.65 356.732H158.651C159.724 356.732 160.787 356.944 161.779 357.355C162.771 357.767 163.672 358.37 164.432 359.13C165.191 359.89 165.793 360.792 166.204 361.786C166.615 362.779 166.826 363.843 166.826 364.918V365.184L145.822 365.185L145.821 356.733Z" fill="#2F2E41"/>
<path d="M132.637 198.133L135.47 192.528C135.47 192.528 146.024 195.176 146.983 201.3L132.637 198.133Z" fill="#F1F1F1"/>
<path d="M120.947 262.223L128.651 305.271L108.194 341.494L120.416 346.283L141.138 311.169L143.795 301.593L145.389 351.603L156.411 351.268L161.464 304.571L153.359 261.159L120.947 262.223Z" fill="#2F2E41"/>
<path d="M135.572 272.4C124.254 272.4 117.068 270.232 116.907 270.198L116.646 270.142L122.541 242.775L122.807 217.531C122.807 206.833 129.839 198.946 130.814 198.219C130.979 197.569 131.283 196.964 131.705 196.444C132.127 195.924 132.657 195.503 133.259 195.21C135.605 194.145 138.471 195.423 138.591 195.478L147.194 198.708L147.235 198.827C147.338 199.133 158.67 236.38 158.67 236.38C158.67 236.38 157.984 268.923 157.745 269.989C157.745 269.989 141.861 272.4 135.572 272.4Z" fill="#2FADE2"/>
<path d="M144.269 190.764C150.691 190.764 155.897 185.551 155.897 179.121C155.897 172.692 150.691 167.479 144.269 167.479C137.847 167.479 132.642 172.692 132.642 179.121C132.642 185.551 137.847 190.764 144.269 190.764Z" fill="#9F616A"/>
<path opacity="0.2" d="M131.305 219.595L151.647 248.013L154.651 234.742L131.305 219.595Z" fill="black"/>
<path d="M195.082 238.931C194.509 239.384 193.845 239.706 193.135 239.875C192.425 240.043 191.687 240.053 190.973 239.905C190.259 239.757 189.586 239.453 189.001 239.017C188.416 238.58 187.935 238.02 187.59 237.376L170.081 240.182L173.874 231.774L189.919 230.399C191.037 229.89 192.303 229.809 193.476 230.173C194.65 230.536 195.649 231.317 196.286 232.369C196.922 233.421 197.151 234.67 196.929 235.879C196.707 237.089 196.05 238.175 195.082 238.931H195.082Z" fill="#9F616A"/>
<path d="M174.775 231.296L181.067 230.678L182.81 239.465L174.894 239.605L174.775 231.296Z" fill="#F1F1F1"/>
<path d="M179.933 242.527L149.121 239.78L133.563 215.006L133.515 214.787C133.074 212.763 133.383 210.648 134.385 208.835C135.387 207.023 137.014 205.638 138.961 204.939C140.909 204.239 143.044 204.273 144.968 205.035C146.892 205.796 148.473 207.233 149.417 209.076L158.55 226.913L176.982 229.703L179.933 242.527Z" fill="#2FADE2"/>
<path d="M134.365 189.229L144.016 189.576C144.604 189.597 146.201 183.241 146.41 181.922C146.575 181.063 147.046 180.295 147.736 179.759C148.426 179.223 149.288 178.957 150.159 179.01C150.882 179.079 152.703 177.727 154.583 176.127C158.152 173.089 157.966 167.384 154.046 164.816C153.939 164.746 153.834 164.682 153.73 164.624C151.257 163.238 148.364 162.773 145.53 162.737C142.961 162.705 140.319 163.029 138.056 164.246C133.998 166.429 131.839 171.199 131.649 175.807C131.459 180.416 132.935 184.921 134.609 189.218" fill="#2F2E41"/>
<path d="M376.294 365.641H0.505362C0.371332 365.641 0.24279 365.588 0.148017 365.493C0.053243 365.398 0 365.27 0 365.135C0 365.001 0.053243 364.873 0.148017 364.778C0.24279 364.683 0.371332 364.629 0.505362 364.629H376.495C376.629 364.629 376.757 364.683 376.852 364.778C376.947 364.873 377 365.001 377 365.135C377 365.415 376.573 365.641 376.294 365.641Z" fill="#CBCBCB"/>
<path fill-rule="evenodd" clip-rule="evenodd" d="M74.5476 83.813C77.6333 83.3433 80.422 83.7637 82.5179 86.3309C83.3838 87.3918 83.9341 89.0118 83.8199 90.2509C83.5454 90.0954 83.2888 90.0074 83.1086 89.8377C81.7825 88.5881 80.2731 87.6606 78.4838 87.2694C75.5904 86.6367 72.9567 87.3138 70.5785 89.0132C68.0424 90.826 66.4661 93.295 65.8667 96.35C65.5562 97.9283 65.6052 99.5242 65.9773 101.103C66.0404 101.372 65.9858 101.67 65.9858 101.953C65.9033 101.983 65.8202 102.012 65.7382 102.041C65.3055 101.337 64.8313 100.655 64.4488 99.9256C63.6129 98.3306 63.1655 96.6278 63.0362 94.8203C62.8711 92.5244 63.1618 90.3039 64.0506 88.1935C65.8138 84.0056 68.9883 81.4826 73.415 80.5944C76.0718 80.061 78.7171 80.196 81.2519 81.2657C84.647 82.6991 87.2079 85.0207 88.6015 88.4796C89.2141 89.9998 89.504 91.6058 89.2 93.2661C89.1343 93.6235 89.1299 93.9916 89.0726 94.3508C89.0587 94.4393 88.9468 94.512 88.7923 94.696C88.8365 89.5011 86.4779 85.9614 82.0129 83.7887C79.5207 82.5759 76.4279 82.763 74.5476 83.813Z" fill="#0BA1F4"/>
<path fill-rule="evenodd" clip-rule="evenodd" d="M79.0798 90.4695C78.2557 90.7265 77.5181 90.9249 76.8026 91.1858C74.652 91.9696 73.2613 94.2287 73.7936 96.6688C74.3756 99.3365 76.0123 101.043 78.504 101.992C81.9126 103.291 84.8099 102.419 87.2348 99.8141C88.2622 98.711 88.9561 97.3902 89.3247 95.9123C89.4068 95.5831 89.5247 95.2623 89.7291 94.9202C89.7437 95.0845 89.7918 95.2535 89.7675 95.4116C89.4264 97.5862 88.8037 99.7011 87.492 101.463C85.7346 103.823 83.66 105.886 80.7564 106.859C79.0435 107.432 77.3005 107.71 75.4936 107.403C74.0098 107.15 72.6328 106.636 71.3484 105.844C69.5818 104.755 68.717 103.092 68.4011 101.13C67.9775 98.4988 68.5456 96.0466 70.0801 93.8674C71.3951 91.9999 73.201 90.9284 75.4721 90.4605C76.6172 90.2246 77.6882 90.2452 78.8007 90.3918C78.865 90.3996 78.9267 90.426 79.0798 90.4695Z" fill="black"/>
</g>
<defs>
<clipPath id="clip0_338_9586">
<rect width="377" height="365" fill="white" transform="translate(0 0.641357)"/>
</clipPath>
</defs>
</svg>
