<svg width="404" height="274" viewBox="0 0 404 274" fill="none" xmlns="http://www.w3.org/2000/svg">
<g clip-path="url(#clip0_338_9793)">
<path d="M191.66 65.5013C191.364 64.9106 191.203 64.2625 191.185 63.6026C191.168 62.9427 191.296 62.2872 191.559 61.6821C191.823 61.077 192.216 60.5371 192.711 60.1004C193.206 59.6637 193.791 59.3409 194.425 59.1546L198.828 23L205.567 27.9184L200.169 62.5115C200.412 63.5961 200.249 64.7319 199.71 65.7037C199.171 66.6755 198.294 67.4158 197.245 67.7843C196.196 68.1528 195.048 68.124 194.019 67.7032C192.989 67.2824 192.15 66.499 191.66 65.5013V65.5013Z" fill="#FFB6B6"/>
<path d="M80.7044 81.6618C80.1651 81.0918 79.7575 80.4105 79.5102 79.666C79.263 78.9215 79.1821 78.1319 79.2733 77.3528C79.3644 76.5737 79.6254 75.8241 80.0379 75.1567C80.4504 74.4893 81.0043 73.9204 81.6607 73.49L77 55L86.3609 58.2693L89.3516 75.3265C90.002 76.4762 90.2078 77.8243 89.93 79.1155C89.6522 80.4066 88.91 81.551 87.8441 82.3319C86.7782 83.1128 85.4627 83.4759 84.1468 83.3524C82.8309 83.2289 81.6061 82.6274 80.7044 81.6618V81.6618Z" fill="#FFB8B8"/>
<path d="M27.1882 206.362C25.2698 206.362 23.3475 206.441 21.4702 206.6L21.197 206.623C8.74477 207.723 -0.363449 214.105 0.0111459 221.467L0.0835637 222.798C0.13132 223.64 0.182202 224.545 0.224084 225.549C0.246767 226.044 0.922796 226.424 1.76398 226.424H308.058C329.653 226.293 351.17 226.128 372.008 225.933C375.916 225.942 379.821 225.739 383.708 225.328C389.499 224.643 393.518 223.285 395.996 221.178H395.997C399.079 218.564 399.176 215.273 398.99 211.554C398.61 204.045 398.234 196.157 397.858 188.293C397.526 181.362 397.196 174.45 396.865 167.832C396.661 163.905 396.207 160.438 392.707 157.789C388.913 154.924 381.994 153.471 372.142 153.471C372.023 153.471 371.905 153.471 371.784 153.472C340.908 153.582 310.314 164.19 295.657 179.869C293.969 181.675 292.396 183.608 290.875 185.478C288.628 188.239 286.304 191.095 283.531 193.648C282.03 195.05 280.406 196.314 278.68 197.427C278.561 197.509 278.424 197.597 278.28 197.681C277.951 197.896 277.606 198.102 277.271 198.287C275.304 199.422 273.232 200.363 271.084 201.097L270.867 201.17C270.703 201.228 270.527 201.287 270.35 201.34C269.109 201.738 267.82 202.082 266.528 202.36C260.941 203.591 254.588 203.886 247.646 203.236C241.271 202.624 234.978 201.343 228.871 199.413C222.442 197.383 216.425 194.852 210.606 192.405C208.05 191.329 205.406 190.218 202.766 189.164C202.27 188.966 201.782 188.772 201.286 188.578C198.062 187.322 195.138 186.285 192.349 185.408C185.438 183.224 178.285 181.9 171.05 181.466C163.371 181.046 156.604 181.838 150.942 183.815C149.38 184.358 147.86 185.013 146.393 185.773C139.686 189.254 135.552 194.39 131.554 199.357C126.58 205.535 121.437 211.924 111.282 215.237C99.5635 219.062 82.4587 217.473 70.3572 214.709C66.5525 213.84 62.7525 212.84 59.0773 211.873C57.593 211.482 56.1077 211.094 54.6213 210.709C51.7004 209.955 49.31 209.378 47.0984 208.891L46.3989 208.735C46.0098 208.651 45.6203 208.566 45.2238 208.486C42.5969 207.935 40.1508 207.501 37.742 207.16L37.172 207.077C36.0295 206.927 34.9613 206.801 33.913 206.696L33.4946 206.655C31.4415 206.459 29.3168 206.362 27.1882 206.362Z" fill="#F2F2F2"/>
<path d="M343.914 214.579C352.533 206.819 365.352 202.917 376.105 207.268C365.075 213.387 356.566 223.208 352.085 234.992C350.373 239.543 348.943 244.783 344.733 247.219C342.113 248.736 338.853 248.81 335.916 248.078C332.978 247.346 330.285 245.879 327.63 244.426L326.874 244.409C330.266 233.323 335.296 222.339 343.914 214.579Z" fill="#E6E6E6"/>
<path d="M376.045 207.504C366.521 208.734 357.628 212.93 350.627 219.498C349.095 220.886 347.791 222.506 346.764 224.298C345.82 226.077 345.369 228.076 345.46 230.088C345.506 231.965 345.771 233.88 345.36 235.736C345.136 236.683 344.714 237.571 344.121 238.344C343.529 239.116 342.78 239.755 341.923 240.217C339.819 241.426 337.405 241.807 335.032 242.098C332.397 242.421 329.655 242.714 327.374 244.191C327.098 244.37 326.836 243.931 327.112 243.752C331.08 241.183 336.102 242.118 340.369 240.403C342.36 239.603 344.122 238.198 344.746 236.074C345.291 234.218 345.019 232.243 344.956 230.342C344.839 228.381 345.204 226.421 346.02 224.634C346.953 222.795 348.192 221.127 349.684 219.703C352.993 216.444 356.795 213.725 360.949 211.646C365.677 209.246 370.781 207.672 376.04 206.993C376.366 206.951 376.369 207.462 376.045 207.504H376.045Z" fill="white"/>
<path d="M352.757 217.251C351.813 215.928 351.371 214.313 351.51 212.694C351.648 211.075 352.358 209.558 353.512 208.414C353.747 208.184 354.116 208.537 353.882 208.768C352.805 209.831 352.144 211.244 352.018 212.752C351.892 214.259 352.31 215.762 353.196 216.989C353.388 217.256 352.948 217.516 352.757 217.251V217.251Z" fill="white"/>
<path d="M345.31 229.139C348.583 229.719 351.954 229.044 354.751 227.25C355.028 227.072 355.29 227.511 355.013 227.689C352.099 229.55 348.59 230.245 345.185 229.635C344.861 229.576 344.988 229.081 345.31 229.139V229.139Z" fill="white"/>
<path d="M365.719 209.922C365.977 210.51 366.377 211.025 366.884 211.42C367.39 211.815 367.987 212.079 368.621 212.186C368.946 212.241 368.818 212.736 368.496 212.682C367.796 212.559 367.137 212.268 366.577 211.833C366.016 211.397 365.571 210.831 365.28 210.184C365.247 210.126 365.238 210.057 365.255 209.992C365.271 209.927 365.312 209.87 365.368 209.834C365.426 209.8 365.496 209.79 365.562 209.806C365.627 209.823 365.684 209.864 365.719 209.922V209.922Z" fill="white"/>
<path d="M387.946 244.692C387.742 244.664 387.538 244.636 387.331 244.611C384.588 244.247 381.819 244.107 379.053 244.191C378.839 244.194 378.622 244.2 378.409 244.21C371.747 244.483 365.193 245.991 359.082 248.655C356.651 249.717 354.304 250.963 352.062 252.381C348.966 254.34 345.765 256.71 342.304 257.509C341.944 257.596 341.579 257.661 341.211 257.703L326.912 245.332C326.893 245.287 326.872 245.246 326.853 245.201L326.26 244.733C326.37 244.652 326.487 244.57 326.597 244.489C326.661 244.442 326.728 244.397 326.792 244.35C326.836 244.319 326.879 244.289 326.917 244.258C326.932 244.248 326.946 244.238 326.958 244.231C326.995 244.201 327.034 244.177 327.068 244.15C327.718 243.69 328.371 243.235 329.029 242.783C329.032 242.78 329.032 242.78 329.038 242.779C334.018 239.289 339.395 236.4 345.056 234.176C345.226 234.112 345.398 234.044 345.574 233.986C348.124 233.038 350.746 232.301 353.416 231.781C354.879 231.501 356.355 231.295 357.838 231.164C361.672 230.832 365.535 231.106 369.284 231.974C376.757 233.705 383.593 237.806 387.642 244.201C387.745 244.364 387.845 244.525 387.946 244.692Z" fill="#E6E6E6"/>
<path d="M387.757 244.846C379.412 240.098 369.782 238.099 360.235 239.131C358.176 239.317 356.158 239.826 354.258 240.64C352.432 241.492 350.868 242.817 349.728 244.478C348.634 246.004 347.692 247.693 346.246 248.927C345.496 249.548 344.623 250.004 343.685 250.264C342.747 250.525 341.764 250.584 340.801 250.438C338.393 250.137 336.236 248.989 334.166 247.794C331.867 246.466 329.501 245.051 326.79 244.858C326.462 244.835 326.517 244.327 326.845 244.35C331.562 244.686 335.008 248.453 339.448 249.651C341.52 250.21 343.773 250.149 345.551 248.828C347.105 247.673 348.078 245.933 349.172 244.378C350.261 242.742 351.733 241.397 353.462 240.46C355.315 239.553 357.309 238.967 359.358 238.728C363.964 238.116 368.638 238.232 373.208 239.071C378.429 239.999 383.452 241.814 388.061 244.435C388.346 244.597 388.04 245.007 387.757 244.846V244.846Z" fill="white"/>
<path d="M363.289 238.618C363.333 236.994 363.954 235.439 365.039 234.229C366.125 233.02 367.606 232.236 369.217 232.017C369.543 231.974 369.626 232.478 369.299 232.521C367.799 232.723 366.419 233.453 365.41 234.581C364.402 235.709 363.83 237.161 363.797 238.673C363.79 239.002 363.282 238.945 363.289 238.618V238.618Z" fill="white"/>
<path d="M350.181 243.63C352.445 246.062 355.543 247.551 358.857 247.802C359.186 247.826 359.13 248.334 358.802 248.31C355.354 248.043 352.133 246.486 349.783 243.951C349.559 243.709 349.958 243.39 350.181 243.63H350.181Z" fill="white"/>
<path d="M378.054 240.564C377.906 241.189 377.916 241.841 378.082 242.461C378.249 243.081 378.566 243.651 379.007 244.118C379.234 244.357 378.834 244.675 378.609 244.438C378.124 243.92 377.774 243.291 377.589 242.606C377.403 241.921 377.389 241.201 377.546 240.509C377.555 240.443 377.59 240.382 377.642 240.34C377.694 240.298 377.761 240.278 377.828 240.283C377.895 240.29 377.957 240.324 377.999 240.377C378.041 240.43 378.061 240.497 378.054 240.564V240.564Z" fill="white"/>
<path d="M118.299 222.297C125.356 211.601 137.98 203.865 150.693 205.529C140.599 215.14 134.233 228.009 132.721 241.858C132.157 247.202 132.087 253.203 128.262 256.98C125.882 259.329 122.416 260.315 119.071 260.349C115.725 260.382 112.437 259.562 109.192 258.746L108.379 258.938C108.921 246.139 111.242 232.993 118.299 222.297Z" fill="#E6E6E6"/>
<path d="M150.694 205.798C140.851 209.761 132.507 216.722 126.849 225.693C125.596 227.602 124.653 229.697 124.053 231.9C123.538 234.065 123.613 236.328 124.27 238.455C124.842 240.449 125.659 242.424 125.736 244.523C125.76 245.598 125.556 246.666 125.137 247.657C124.719 248.647 124.095 249.538 123.308 250.272C121.394 252.149 118.919 253.228 116.461 254.198C113.733 255.276 110.882 256.352 108.854 258.566C108.608 258.834 108.206 258.437 108.451 258.169C111.98 254.318 117.611 253.922 121.697 250.902C123.604 249.493 125.097 247.501 125.173 245.056C125.239 242.918 124.399 240.882 123.802 238.867C123.131 236.802 122.976 234.604 123.351 232.466C123.836 230.239 124.697 228.112 125.897 226.174C128.529 221.768 131.837 217.803 135.702 214.424C140.09 210.544 145.111 207.442 150.547 205.253C150.883 205.118 151.029 205.664 150.694 205.798L150.694 205.798Z" fill="white"/>
<path d="M128.5 222.697C127.123 221.544 126.2 219.939 125.898 218.169C125.595 216.4 125.932 214.58 126.848 213.035C127.034 212.724 127.528 212.998 127.342 213.311C126.486 214.747 126.172 216.442 126.457 218.09C126.743 219.737 127.608 221.229 128.897 222.295C129.177 222.527 128.778 222.928 128.5 222.697V222.697Z" fill="white"/>
<path d="M123.846 237.481C127.508 237.191 130.926 235.533 133.418 232.837C133.664 232.569 134.067 232.966 133.82 233.233C131.222 236.034 127.661 237.752 123.85 238.046C123.487 238.074 123.485 237.509 123.846 237.481H123.846Z" fill="white"/>
<path d="M140.323 211.255C140.763 211.812 141.334 212.252 141.986 212.533C142.638 212.815 143.349 212.931 144.057 212.87C144.42 212.838 144.421 213.403 144.061 213.435C143.279 213.498 142.493 213.37 141.772 213.06C141.052 212.75 140.418 212.269 139.926 211.658C139.875 211.604 139.846 211.533 139.846 211.458C139.845 211.384 139.873 211.313 139.923 211.258C139.976 211.205 140.048 211.175 140.122 211.175C140.197 211.174 140.269 211.203 140.323 211.255H140.323Z" fill="white"/>
<path d="M173.776 242.264C173.551 242.29 173.325 242.317 173.096 242.348C170.061 242.721 167.061 243.341 164.126 244.2C163.898 244.262 163.668 244.33 163.442 244.399C156.392 246.544 149.803 249.977 144.008 254.526C141.704 256.338 139.541 258.323 137.538 260.463C134.772 263.418 132.009 266.842 128.53 268.659C128.169 268.852 127.796 269.024 127.414 269.171L108.676 259.914C108.644 259.872 108.61 259.834 108.578 259.791L107.812 259.456C107.908 259.338 108.01 259.218 108.105 259.101C108.16 259.032 108.22 258.966 108.275 258.897C108.313 258.852 108.351 258.807 108.383 258.765C108.396 258.75 108.409 258.735 108.419 258.724C108.451 258.681 108.485 258.645 108.515 258.606C109.081 257.935 109.653 257.266 110.231 256.6C110.233 256.595 110.233 256.595 110.24 256.593C114.655 251.529 119.533 246.789 124.976 242.939C125.14 242.823 125.305 242.703 125.478 242.591C127.941 240.87 130.54 239.352 133.251 238.053C134.737 237.347 136.258 236.716 137.809 236.164C141.817 234.744 146.024 233.963 150.275 233.849C158.75 233.623 167.203 236.109 173.314 241.823C173.47 241.969 173.622 242.113 173.776 242.264Z" fill="#E6E6E6"/>
<path d="M173.617 242.481C163.37 239.723 152.513 240.262 142.59 244.02C140.439 244.791 138.424 245.896 136.618 247.294C134.902 248.713 133.598 250.566 132.841 252.658C132.097 254.595 131.559 256.663 130.356 258.386C129.727 259.258 128.92 259.988 127.989 260.527C127.058 261.067 126.024 261.403 124.953 261.515C122.293 261.863 119.667 261.234 117.12 260.531C114.293 259.75 111.368 258.894 108.415 259.441C108.057 259.508 107.975 258.949 108.332 258.883C113.47 257.931 118.205 261.002 123.287 261.049C125.659 261.071 128.052 260.379 129.585 258.473C130.926 256.806 131.482 254.674 132.219 252.706C132.928 250.654 134.128 248.806 135.716 247.324C137.445 245.838 139.415 244.657 141.54 243.832C146.296 241.897 151.327 240.722 156.448 240.349C162.291 239.891 168.169 240.435 173.828 241.957C174.178 242.051 173.965 242.575 173.617 242.481V242.481Z" fill="white"/>
<path d="M145.714 242.622C145.309 240.872 145.539 239.036 146.364 237.441C147.189 235.846 148.554 234.596 150.216 233.914C150.553 233.777 150.782 234.293 150.445 234.43C148.896 235.063 147.624 236.228 146.859 237.714C146.094 239.201 145.886 240.913 146.273 242.539C146.357 242.893 145.797 242.973 145.714 242.622H145.714Z" fill="white"/>
<path d="M133.09 251.626C136.188 253.598 139.916 254.329 143.531 253.676C143.889 253.611 143.971 254.17 143.613 254.235C139.851 254.908 135.973 254.138 132.753 252.08C132.446 251.883 132.785 251.431 133.09 251.626V251.626Z" fill="white"/>
<path d="M162.048 240.599C162.063 241.308 162.255 242.003 162.606 242.62C162.956 243.237 163.455 243.757 164.056 244.134C164.365 244.327 164.026 244.779 163.719 244.588C163.057 244.168 162.507 243.593 162.118 242.912C161.729 242.231 161.513 241.465 161.489 240.681C161.48 240.608 161.5 240.533 161.544 240.474C161.589 240.414 161.654 240.374 161.727 240.361C161.801 240.35 161.876 240.369 161.936 240.414C161.996 240.458 162.036 240.525 162.048 240.599V240.599Z" fill="white"/>
<path d="M168.525 142.108C168.993 141.643 169.354 141.08 169.581 140.461C169.808 139.841 169.896 139.179 169.84 138.521C169.783 137.864 169.583 137.226 169.253 136.654C168.924 136.082 168.473 135.59 167.932 135.211L175.307 99.5437L167.35 102.052L161.416 136.557C160.839 137.507 160.631 138.636 160.832 139.729C161.032 140.822 161.627 141.804 162.503 142.488C163.379 143.172 164.476 143.511 165.586 143.441C166.696 143.372 167.742 142.897 168.525 142.108V142.108Z" fill="#FFB6B6"/>
<path d="M185.573 46.7684L180.644 43.0506C180.644 43.0506 176.296 42.7429 175.526 50.5783C174.756 58.4138 169.934 88.486 169.934 88.486L162.391 123.393L172.832 125.683L180.911 88.0121L188.998 62.0231L185.573 46.7684Z" fill="#E6E6E6"/>
<path d="M181.818 111.359L158.173 92.9883C157.805 92.7015 157.566 92.2805 157.508 91.8175C157.45 91.3546 157.578 90.8876 157.864 90.5189L173.952 69.8454C174.239 69.4774 174.66 69.2382 175.123 69.1803C175.587 69.1223 176.054 69.2504 176.423 69.5364L200.067 87.9066C200.435 88.1934 200.675 88.6145 200.733 89.0774C200.791 89.5404 200.663 90.0074 200.376 90.376L184.289 111.05C184.002 111.418 183.581 111.657 183.117 111.715C182.654 111.773 182.187 111.645 181.818 111.359V111.359Z" fill="#3F3D56"/>
<path d="M181.688 109.458L160.049 92.6457C159.722 92.3911 159.51 92.0172 159.458 91.6062C159.407 91.1952 159.521 90.7805 159.775 90.4532L174.359 71.7117C174.614 71.3849 174.988 71.1726 175.399 71.1211C175.81 71.0697 176.225 71.1834 176.553 71.4373L198.192 88.2492C198.519 88.5038 198.731 88.8777 198.783 89.2887C198.834 89.6998 198.72 90.1144 198.466 90.4417L183.882 109.183C183.627 109.51 183.253 109.722 182.842 109.774C182.431 109.825 182.016 109.712 181.688 109.458V109.458Z" fill="white"/>
<path d="M162.886 92.1691C162.804 92.1054 162.751 92.012 162.738 91.9092C162.726 91.8065 162.754 91.7028 162.817 91.621L170.175 82.1665C170.238 82.0847 170.332 82.0315 170.435 82.0186C170.486 82.0123 170.537 82.016 170.587 82.0296C170.636 82.0432 170.683 82.0664 170.723 82.0979C170.764 82.1294 170.798 82.1685 170.823 82.2131C170.848 82.2577 170.865 82.3068 170.871 82.3577C170.877 82.4086 170.874 82.4603 170.86 82.5097C170.847 82.5592 170.823 82.6055 170.792 82.646L163.435 92.1005C163.371 92.1822 163.277 92.2353 163.175 92.2481C163.072 92.261 162.968 92.2326 162.886 92.1691V92.1691Z" fill="#E4E4E4"/>
<path d="M164.105 93.1164C164.024 93.0528 163.97 92.9593 163.958 92.8565C163.945 92.7538 163.973 92.6501 164.037 92.5683L171.394 83.1137C171.458 83.0319 171.551 82.9788 171.654 82.9659C171.757 82.9531 171.861 82.9815 171.942 83.0451C172.024 83.1087 172.077 83.2022 172.09 83.305C172.103 83.4078 172.075 83.5115 172.011 83.5933L164.654 93.0478C164.59 93.1295 164.497 93.1826 164.394 93.1955C164.291 93.2083 164.187 93.1799 164.105 93.1164Z" fill="#E4E4E4"/>
<path d="M169.493 88.7076C169.411 88.644 169.358 88.5505 169.345 88.4477C169.332 88.345 169.361 88.2413 169.424 88.1595L172.614 84.0611C172.645 84.0206 172.684 83.9866 172.729 83.9611C172.773 83.9357 172.823 83.9193 172.874 83.9129C172.925 83.9064 172.976 83.9101 173.026 83.9237C173.076 83.9373 173.122 83.9605 173.163 83.992C173.203 84.0236 173.237 84.0628 173.262 84.1074C173.288 84.1521 173.304 84.2013 173.31 84.2522C173.317 84.3032 173.313 84.3549 173.299 84.4044C173.286 84.4539 173.262 84.5002 173.231 84.5407L170.042 88.639C169.978 88.7207 169.884 88.7738 169.782 88.7866C169.679 88.7995 169.575 88.7711 169.493 88.7076V88.7076Z" fill="#E4E4E4"/>
<path d="M171.137 96.7501C171.055 96.6864 171.002 96.593 170.989 96.4902C170.976 96.3875 171.005 96.2838 171.068 96.202L182.683 81.2762C182.715 81.2357 182.754 81.2018 182.798 81.1764C182.843 81.1511 182.892 81.1348 182.943 81.1284C182.994 81.122 183.046 81.1257 183.095 81.1393C183.145 81.1529 183.191 81.1761 183.232 81.2076C183.272 81.2391 183.306 81.2782 183.331 81.3228C183.357 81.3674 183.373 81.4165 183.38 81.4674C183.386 81.5183 183.382 81.57 183.369 81.6194C183.355 81.6689 183.332 81.7152 183.3 81.7557L171.686 96.6815C171.622 96.7632 171.528 96.8163 171.426 96.8291C171.323 96.842 171.219 96.8136 171.137 96.7501V96.7501Z" fill="#E4E4E4"/>
<path d="M172.356 97.6974C172.275 97.6337 172.221 97.5403 172.209 97.4375C172.196 97.3348 172.224 97.2311 172.288 97.1493L183.902 82.2235C183.934 82.183 183.973 82.1491 184.018 82.1237C184.062 82.0984 184.111 82.082 184.162 82.0757C184.213 82.0693 184.265 82.073 184.315 82.0866C184.364 82.1002 184.41 82.1234 184.451 82.1549C184.491 82.1864 184.525 82.2255 184.551 82.2701C184.576 82.3147 184.592 82.3638 184.599 82.4147C184.605 82.4656 184.602 82.5173 184.588 82.5668C184.574 82.6162 184.551 82.6625 184.52 82.703L172.905 97.6288C172.841 97.7105 172.748 97.7636 172.645 97.7764C172.542 97.7893 172.438 97.7609 172.356 97.6974V97.6974Z" fill="#E4E4E4"/>
<path d="M175.124 99.848C175.043 99.7843 174.99 99.6909 174.977 99.5881C174.964 99.4854 174.992 99.3817 175.056 99.2999L186.67 84.3741C186.702 84.3336 186.741 84.2997 186.786 84.2743C186.83 84.249 186.88 84.2327 186.93 84.2263C186.981 84.2199 187.033 84.2236 187.083 84.2372C187.132 84.2508 187.178 84.274 187.219 84.3055C187.259 84.337 187.293 84.3761 187.319 84.4207C187.344 84.4653 187.361 84.5145 187.367 84.5654C187.373 84.6162 187.37 84.6679 187.356 84.7174C187.342 84.7668 187.319 84.8131 187.288 84.8536L175.673 99.7794C175.609 99.8611 175.516 99.9142 175.413 99.927C175.31 99.9399 175.206 99.9115 175.124 99.848V99.848Z" fill="#E4E4E4"/>
<path d="M176.344 100.795C176.262 100.732 176.209 100.638 176.196 100.535C176.183 100.433 176.211 100.329 176.275 100.247L187.89 85.3214C187.921 85.2809 187.96 85.247 188.005 85.2216C188.05 85.1963 188.099 85.1799 188.15 85.1736C188.201 85.1672 188.252 85.1709 188.302 85.1845C188.351 85.1981 188.398 85.2213 188.438 85.2528C188.479 85.2843 188.513 85.3234 188.538 85.368C188.563 85.4126 188.58 85.4617 188.586 85.5126C188.593 85.5635 188.589 85.6152 188.575 85.6647C188.562 85.7141 188.538 85.7604 188.507 85.8009L176.892 100.727C176.829 100.808 176.735 100.861 176.632 100.874C176.529 100.887 176.426 100.859 176.344 100.795V100.795Z" fill="#E4E4E4"/>
<path d="M179.112 102.946C179.03 102.882 178.977 102.789 178.964 102.686C178.951 102.583 178.98 102.48 179.043 102.398L190.658 87.472C190.689 87.4315 190.728 87.3976 190.773 87.3723C190.818 87.3469 190.867 87.3306 190.918 87.3242C190.969 87.3178 191.02 87.3215 191.07 87.3351C191.119 87.3487 191.166 87.3719 191.206 87.4034C191.247 87.4349 191.281 87.474 191.306 87.5186C191.331 87.5632 191.348 87.6124 191.354 87.6633C191.361 87.7141 191.357 87.7658 191.343 87.8153C191.33 87.8647 191.306 87.911 191.275 87.9515L179.66 102.877C179.597 102.959 179.503 103.012 179.4 103.025C179.297 103.038 179.194 103.009 179.112 102.946Z" fill="#E4E4E4"/>
<path d="M180.331 103.893C180.249 103.83 180.196 103.736 180.183 103.633C180.17 103.531 180.199 103.427 180.262 103.345L191.877 88.4194C191.941 88.338 192.034 88.2852 192.137 88.2725C192.24 88.2598 192.343 88.2883 192.425 88.3518C192.506 88.4152 192.56 88.5085 192.573 88.611C192.586 88.7136 192.557 88.8171 192.494 88.8989L180.88 103.825C180.816 103.906 180.722 103.959 180.619 103.972C180.517 103.985 180.413 103.957 180.331 103.893V103.893Z" fill="#E4E4E4"/>
<path d="M160.918 121.227C161.007 121.227 161.078 121.155 161.078 121.067C161.078 120.978 161.007 120.906 160.918 120.906C160.83 120.906 160.758 120.978 160.758 121.067C160.758 121.155 160.83 121.227 160.918 121.227Z" fill="white"/>
<path d="M184.306 10.7237C183.741 13.7543 182.816 16.7065 181.549 19.5172C174.293 34.8545 194.956 29.8553 202.34 29.8553C210.414 29.8553 218.138 34.0974 216.958 15.2483C216.455 7.19685 210.414 0.641357 202.34 0.641357C195.444 0.641357 185.748 3.70415 184.306 10.7237Z" fill="#2F2E41"/>
<path d="M209.865 235.666H202.987L199.713 209.155H209.865V235.666Z" fill="#FFB6B6"/>
<path d="M213.496 247.575H208.563L207.683 242.921L205.427 247.575H192.344C191.717 247.575 191.106 247.375 190.601 247.003C190.096 246.632 189.723 246.109 189.536 245.511C189.349 244.912 189.359 244.27 189.564 243.678C189.768 243.085 190.157 242.574 190.673 242.218L201.121 235.008V230.303L212.11 230.959L213.496 247.575Z" fill="#2F2E41"/>
<path d="M250.732 226.992L245.212 231.094L226.753 211.772L234.9 205.718L250.732 226.992Z" fill="#FFB6B6"/>
<path d="M260.757 234.384L256.798 237.325L253.313 234.115L254.282 239.194L243.783 246.995C243.28 247.369 242.671 247.573 242.043 247.576C241.416 247.579 240.805 247.382 240.298 247.013C239.791 246.644 239.415 246.123 239.225 245.526C239.035 244.929 239.042 244.286 239.243 243.693L243.322 231.678L240.512 227.902L249.722 221.876L260.757 234.384Z" fill="#2F2E41"/>
<path d="M187.337 113.653L219.99 108.571L213.496 89.0518H187.337V113.653Z" fill="#FFB6B6"/>
<path d="M217.874 98.8828C217.874 98.8828 230.925 110.15 224.904 142.269L217.552 173.74L237.581 208.486L227.397 214.037L202.714 179.758L191.42 153.285L185.445 106.889L217.874 98.8828Z" fill="#2F2E41"/>
<path d="M197.645 160.83L196.86 172.977L199.158 208.949L210.566 212.874L212.727 176.017L197.645 160.83Z" fill="#2F2E41"/>
<path d="M194.138 33.8982L206.759 34.3902L211.79 42.7338L223.267 44.9726L216.415 79.6065L217.675 99.3198L206.247 99.2502C198.011 99.2 190.047 102.19 183.881 107.646V107.646L184.223 82.0567L179.308 62.9546L180.412 42.9248L189.645 41.7716L194.138 33.8982Z" fill="#E6E6E6"/>
<path d="M201.13 29.8517C207.691 29.8517 213.009 24.5374 213.009 17.9819C213.009 11.4264 207.691 6.11206 201.13 6.11206C194.569 6.11206 189.251 11.4264 189.251 17.9819C189.251 24.5374 194.569 29.8517 201.13 29.8517Z" fill="#FFB6B6"/>
<path d="M193.063 5.88226C195.145 4.61424 197.529 3.92831 199.967 3.8962C202.405 3.86409 204.806 4.48697 206.92 5.69972C209.035 6.91246 210.784 8.67053 211.986 10.7901C213.187 12.9096 213.797 15.3128 213.751 17.7484C207.698 19.267 201.339 20.4291 194.884 18.1116L193.359 14.3837L192.461 18.1144C190.495 18.9173 188.524 19.5966 186.553 18.1066C186.473 15.6779 187.031 13.2707 188.174 11.1255C189.316 8.98028 191.002 7.1723 193.063 5.88226Z" fill="#2F2E41"/>
<path d="M221.07 123.251L222.671 137.772C222.782 138.134 223.007 138.451 223.312 138.677C223.618 138.902 223.987 139.023 224.366 139.023H231.748C232.127 139.023 232.497 138.902 232.802 138.677C233.107 138.451 233.332 138.134 233.444 137.772L234.77 126.642C235.153 126.83 235.575 126.924 236.001 126.917C236.427 126.91 236.846 126.801 237.222 126.601C237.598 126.401 237.922 126.114 238.166 125.765C238.41 125.415 238.567 125.013 238.625 124.591C238.683 124.169 238.64 123.739 238.499 123.337C238.358 122.934 238.124 122.571 237.815 122.277C237.507 121.983 237.133 121.767 236.724 121.645C236.315 121.524 235.884 121.501 235.465 121.578C235.299 121.383 235.093 121.226 234.86 121.119C234.628 121.012 234.375 120.956 234.119 120.957H222.765C222.488 120.957 222.214 121.022 221.966 121.147C221.718 121.272 221.503 121.453 221.338 121.676C221.173 121.899 221.063 122.158 221.016 122.432C220.97 122.705 220.988 122.986 221.07 123.251V123.251ZM235.002 125.889L235.814 123.251C235.908 122.946 235.917 122.622 235.841 122.312C235.876 122.311 235.908 122.302 235.943 122.302C236.454 122.302 236.943 122.505 237.304 122.865C237.664 123.226 237.867 123.714 237.867 124.224C237.867 124.734 237.664 125.223 237.304 125.583C236.943 125.944 236.454 126.146 235.943 126.146C235.613 126.144 235.288 126.056 235.002 125.889V125.889Z" fill="#0E9EDC"/>
<path d="M232.2 139.033C231.735 138.565 231.377 138.001 231.153 137.38C230.929 136.759 230.844 136.097 230.904 135.44C230.964 134.782 231.167 134.146 231.5 133.576C231.832 133.006 232.286 132.515 232.829 132.139L225.635 96.4348L233.579 98.9835L239.338 133.518C239.909 134.471 240.112 135.601 239.906 136.693C239.7 137.785 239.1 138.764 238.22 139.443C237.341 140.123 236.242 140.457 235.132 140.381C234.023 140.306 232.98 139.826 232.2 139.033V139.033Z" fill="#FFB6B6"/>
<path d="M218.338 48.6904L223.267 44.9726C223.267 44.9726 227.615 44.6649 228.385 52.5003C229.155 60.3358 233.977 90.408 233.977 90.408L241.52 125.315L231.079 127.605L223 89.9341L214.913 63.9451L218.338 48.6904Z" fill="#E6E6E6"/>
<path d="M175.796 81.1921C177.337 81.1921 178.586 79.9438 178.586 78.404C178.586 76.8642 177.337 75.616 175.796 75.616C174.255 75.616 173.006 76.8642 173.006 78.404C173.006 79.9438 174.255 81.1921 175.796 81.1921Z" fill="#0E9EDC"/>
<path d="M86.8207 268.009L92.6356 268.009L95.4021 245.598L86.8198 245.598L86.8207 268.009Z" fill="#FFB6B6"/>
<path d="M85.3374 266.112L86.9741 266.112L93.3641 263.515L96.789 266.112H96.7894C98.7249 266.112 100.581 266.88 101.95 268.248C103.318 269.615 104.087 271.47 104.087 273.404V273.641L85.3378 273.641L85.3374 266.112Z" fill="#2F2E41"/>
<path d="M109.354 264.348L115.026 265.628L122.665 244.376L114.293 242.487L109.354 264.348Z" fill="#FFB6B6"/>
<path d="M108.325 262.171L109.922 262.531L116.727 261.405L119.496 264.691L119.496 264.691C121.384 265.117 123.025 266.275 124.059 267.91C125.092 269.545 125.434 271.524 125.007 273.41L124.955 273.641L106.666 269.515L108.325 262.171Z" fill="#2F2E41"/>
<path d="M76.1753 152.73L81.4335 211.596C81.4335 211.596 79.4633 246.937 85.8208 259.373H95.0409L99.6059 208.369L100.179 174.134L119.946 203.017L107.356 258.539L118.704 259.553L139.134 199.298L116.689 142.733L76.1753 152.73Z" fill="#2F2E41"/>
<path d="M81.6822 58.9859C89.1716 58.9859 95.2429 52.9194 95.2429 45.4359C95.2429 37.9524 89.1716 31.8859 81.6822 31.8859C74.1929 31.8859 68.1216 37.9524 68.1216 45.4359C68.1216 52.9194 74.1929 58.9859 81.6822 58.9859Z" fill="#FFB8B8"/>
<path d="M105.521 71.8985L94.3959 67.1288L88.9802 61.389L75.451 63.5693L71.8613 69.7193L60.2412 80.5158L73.8555 142.025L73.4434 155.459C73.4434 155.459 82.1569 159.379 119.946 150.354C120.399 150.246 119.451 149.772 119.451 149.772L105.521 71.8985Z" fill="#0E9EDC"/>
<path d="M67.5802 53.1245C67.4859 52.9957 67.3926 52.8658 67.3002 52.7347C67.263 52.8134 67.2334 52.8947 67.1909 52.9715L67.5802 53.1245Z" fill="#2F2E41"/>
<path d="M95.1719 35.5247C94.2654 33.5515 92.6492 31.9914 90.6445 31.1543C88.6574 30.3535 86.4367 30.3554 84.451 31.1597C82.6582 30.0279 80.6663 29.1307 78.5685 29.0196C76.4708 28.9084 74.2528 29.6861 72.9601 31.3979C72.6714 31.8498 72.3435 32.2754 71.9802 32.6699C70.9411 33.6314 69.3618 33.4927 67.9806 33.2961C68.6001 33.8267 69.2198 34.3572 69.8396 34.8877C69.0897 35.0835 68.3397 35.2792 67.5897 35.475C68.4649 36.0054 69.34 36.5357 70.215 37.0661C67.6744 38.5898 66.5197 41.9155 66.8247 44.9359C67.1133 47.7956 68.495 50.4105 70.1467 52.7347C70.8056 51.3454 70.6636 49.683 70.6527 48.1182C70.6414 46.4649 70.9341 44.5874 72.26 43.6634C73.1544 43.0401 74.3045 43.0123 75.383 43.0182C80.8233 43.048 86.2575 43.387 91.6593 44.0335C92.3923 44.0652 93.107 44.2723 93.7432 44.6374C94.9377 45.4517 95.1705 47.1322 95.2904 48.6065C95.9216 46.1722 96.2304 43.6658 96.2092 41.1512C96.2623 39.2237 95.9089 37.3067 95.1719 35.5247V35.5247Z" fill="#2F2E41"/>
<path d="M99.3934 193.995C111.181 193.995 120.737 184.447 120.737 172.669C120.737 160.89 111.181 151.342 99.3934 151.342C87.6056 151.342 78.0498 160.89 78.0498 172.669C78.0498 184.447 87.6056 193.995 99.3934 193.995Z" fill="white"/>
<path d="M99.3935 150.868C98.2964 150.868 97.2008 150.95 96.1161 151.114C95.5612 151.195 95.0206 151.299 94.4845 151.427C90.547 152.334 86.9391 154.316 84.0633 157.153C81.1876 159.989 79.1571 163.568 78.1984 167.49C77.2396 171.413 77.3904 175.524 78.6339 179.366C79.8774 183.207 82.1646 186.628 85.2405 189.247C85.6057 189.555 85.9755 189.853 86.3598 190.138C89.1287 192.201 92.3484 193.577 95.7538 194.154C99.1592 194.73 102.653 194.491 105.947 193.454C109.242 192.418 112.243 190.615 114.704 188.193C117.165 185.772 119.015 182.801 120.102 179.525C121.19 176.249 121.483 172.762 120.958 169.351C120.433 165.94 119.105 162.702 117.083 159.904C115.061 157.106 112.403 154.828 109.328 153.257C106.252 151.686 102.847 150.867 99.3935 150.868V150.868ZM99.3935 193.521C94.9561 193.526 90.6339 192.109 87.0617 189.479C86.6729 189.195 86.2982 188.901 85.9329 188.588C82.9362 186.062 80.7127 182.743 79.5173 179.012C78.322 175.281 78.2033 171.289 79.1748 167.494C80.1462 163.699 82.1686 160.254 85.0099 157.555C87.8512 154.855 91.3964 153.011 95.2388 152.233C95.7698 152.124 96.3011 152.038 96.8419 151.972C97.6884 151.867 98.5406 151.815 99.3935 151.816C104.928 151.816 110.237 154.013 114.15 157.923C118.064 161.834 120.263 167.138 120.263 172.669C120.263 178.199 118.064 183.503 114.15 187.414C110.237 191.325 104.928 193.521 99.3935 193.521V193.521Z" fill="#3F3D56"/>
<path d="M88.9247 168.403H109.862C110.629 168.403 111.251 167.782 111.251 167.015V166.947C111.251 166.181 110.629 165.56 109.862 165.56H88.9247C88.1577 165.56 87.5359 166.181 87.5359 166.947V167.015C87.5359 167.782 88.1577 168.403 88.9247 168.403Z" fill="#0E9EDC"/>
<path d="M88.9247 174.09H109.862C110.629 174.09 111.251 173.469 111.251 172.703V172.634C111.251 171.868 110.629 171.247 109.862 171.247H88.9247C88.1577 171.247 87.5359 171.868 87.5359 172.634V172.703C87.5359 173.469 88.1577 174.09 88.9247 174.09Z" fill="#0E9EDC"/>
<path d="M88.9247 179.778H109.862C110.629 179.778 111.251 179.156 111.251 178.39V178.322C111.251 177.555 110.629 176.934 109.862 176.934H88.9247C88.1577 176.934 87.5359 177.555 87.5359 178.322V178.39C87.5359 179.156 88.1577 179.778 88.9247 179.778Z" fill="#0E9EDC"/>
<path d="M338.181 267.286L332.084 267.285L329.183 243.786L338.182 243.786L338.181 267.286Z" fill="#9E616A"/>
<path d="M309.335 267.286L303.239 267.285L300.338 243.786L309.337 243.786L309.335 267.286Z" fill="#9E616A"/>
<path d="M309.55 273.641L290.801 273.641V273.404C290.801 271.47 291.57 269.615 292.938 268.248C294.307 266.88 296.163 266.112 298.099 266.112H298.099L301.524 263.515L307.914 266.112L309.551 266.112L309.55 273.641Z" fill="#2F2E41"/>
<path d="M339.178 273.641L320.428 273.641V273.404C320.428 271.47 321.197 269.615 322.566 268.248C323.934 266.88 325.791 266.112 327.726 266.112H327.727L331.151 263.515L337.541 266.112L339.178 266.112L339.178 273.641Z" fill="#2F2E41"/>
<path d="M303.354 128.208L294.088 184.588L296.61 192.99L293.301 198.94L298.16 251.196L296.188 255.536L301.699 258.932H312.914L313.509 211.624L316.28 204.678V200.85L321.919 172.003L322.958 212.402L324.598 219.358L323.22 224.312L325.021 227.782L329.803 259.963H342.379L341.406 252.476C342.502 251.922 343.382 251.02 343.908 249.911C344.434 248.803 344.577 247.551 344.314 246.353L343.593 243.071L345.234 233.368L348.222 179.237L347.379 135.56L332.668 124.319L303.354 128.208Z" fill="#2F2E41"/>
<path d="M324.598 55.8097C331.051 55.8097 336.282 50.5828 336.282 44.135C336.282 37.6873 331.051 32.4603 324.598 32.4603C318.145 32.4603 312.914 37.6873 312.914 44.135C312.914 50.5828 318.145 55.8097 324.598 55.8097Z" fill="#9E616A"/>
<path d="M299.07 150.581C299.579 150.056 299.966 149.427 300.204 148.736C300.443 148.045 300.527 147.311 300.45 146.584C300.374 145.858 300.139 145.157 299.762 144.531C299.385 143.905 298.876 143.369 298.269 142.961L302.813 125.793L294.059 128.735L291.087 144.587C290.468 145.65 290.262 146.903 290.506 148.109C290.751 149.314 291.43 150.388 292.414 151.127C293.398 151.866 294.619 152.219 295.846 152.118C297.073 152.018 298.22 151.471 299.07 150.581H299.07Z" fill="#9E616A"/>
<path d="M303.852 68.1539L301.973 67.7643L300.371 68.6508C300.371 68.6508 295.895 74.6142 295.895 80.0806C295.895 85.547 290.424 138.223 290.424 138.223L300.371 142.696L308.328 101.449L303.852 68.1539Z" fill="#0E9EDC"/>
<path d="M334.83 35.5753C334.83 35.5753 337.886 29.738 331.163 29.2073C331.163 29.2073 325.431 24.0122 319.59 28.2576C319.59 28.2576 316.403 28.2576 314.661 31.8606C314.661 31.8606 312.154 30.9109 311.604 33.4526C311.604 33.4526 309.77 38.7593 311.604 43.5354C313.437 48.3114 314.047 48.842 314.047 48.842C314.047 48.842 311.033 38.8289 318.368 38.2982C325.703 37.7675 333.911 33.1873 334.522 39.0247C335.133 44.862 336.053 46.3003 336.053 46.3003C336.053 46.3003 341.859 37.9633 334.83 35.5753Z" fill="#2F2E41"/>
<path d="M377.51 198.94C376.628 198.941 375.777 198.617 375.12 198.029L339.761 166.578C339.048 165.943 338.617 165.051 338.562 164.099C338.506 163.146 338.831 162.211 339.465 161.497L362.117 136.071C362.752 135.359 363.645 134.928 364.598 134.872C365.552 134.817 366.488 135.142 367.202 135.775L402.561 167.226C403.275 167.861 403.707 168.753 403.762 169.706C403.818 170.658 403.492 171.594 402.857 172.307L380.205 197.733C379.892 198.088 379.511 198.376 379.085 198.582C378.659 198.788 378.196 198.908 377.724 198.934C377.652 198.938 377.581 198.94 377.51 198.94Z" fill="white"/>
<path d="M377.51 199.171C376.572 199.173 375.666 198.827 374.966 198.202L339.607 166.751C338.849 166.075 338.39 165.126 338.331 164.112C338.272 163.098 338.618 162.102 339.293 161.343L361.944 135.917C362.621 135.159 363.571 134.701 364.585 134.642C365.6 134.583 366.596 134.928 367.356 135.602L402.716 167.053C403.475 167.729 403.935 168.678 403.994 169.692C404.053 170.706 403.706 171.702 403.03 172.461L380.379 197.887C380.045 198.264 379.639 198.571 379.186 198.79C378.733 199.01 378.241 199.137 377.738 199.165C377.662 199.169 377.586 199.171 377.51 199.171ZM364.809 135.56C364.399 135.559 363.993 135.645 363.618 135.813C363.243 135.98 362.909 136.225 362.636 136.532L339.985 161.958C339.473 162.534 339.21 163.289 339.255 164.058C339.3 164.827 339.648 165.547 340.223 166.06L375.582 197.511C375.867 197.764 376.2 197.96 376.56 198.085C376.921 198.21 377.303 198.263 377.684 198.241C378.065 198.219 378.438 198.122 378.782 197.956C379.126 197.789 379.433 197.557 379.687 197.272L402.338 171.846C402.851 171.27 403.114 170.515 403.069 169.746C403.025 168.977 402.676 168.257 402.1 167.745L366.741 136.293C366.209 135.82 365.521 135.558 364.809 135.56H364.809Z" fill="#3F3D56"/>
<path d="M390.332 174.86C389.95 174.86 389.582 174.72 389.297 174.466L361.541 149.778C361.388 149.643 361.262 149.478 361.172 149.294C361.083 149.109 361.03 148.909 361.018 148.705C361.006 148.5 361.034 148.295 361.101 148.101C361.168 147.908 361.273 147.729 361.41 147.576C361.546 147.423 361.711 147.299 361.896 147.209C362.081 147.12 362.281 147.068 362.486 147.057C362.691 147.045 362.896 147.074 363.089 147.142C363.283 147.21 363.461 147.315 363.614 147.452L391.37 172.14C391.606 172.35 391.772 172.626 391.847 172.933C391.922 173.24 391.902 173.562 391.79 173.857C391.677 174.152 391.478 174.406 391.217 174.585C390.957 174.764 390.648 174.86 390.332 174.86V174.86Z" fill="#0E9EDC"/>
<path d="M385.038 180.802C384.656 180.803 384.288 180.663 384.003 180.409L356.247 155.721C356.094 155.585 355.97 155.42 355.881 155.236C355.792 155.052 355.74 154.852 355.728 154.648C355.716 154.444 355.744 154.239 355.812 154.046C355.879 153.853 355.983 153.675 356.12 153.522C356.256 153.37 356.421 153.245 356.605 153.156C356.789 153.067 356.989 153.015 357.193 153.003C357.398 152.992 357.602 153.02 357.795 153.087C357.989 153.154 358.167 153.259 358.32 153.395L386.076 178.083C386.312 178.293 386.478 178.569 386.553 178.876C386.628 179.183 386.608 179.505 386.496 179.8C386.383 180.095 386.184 180.349 385.923 180.528C385.663 180.707 385.354 180.803 385.038 180.802H385.038Z" fill="#0E9EDC"/>
<path d="M379.744 186.746C379.362 186.746 378.993 186.606 378.709 186.352L350.953 161.664C350.8 161.528 350.675 161.364 350.585 161.179C350.496 160.995 350.444 160.795 350.432 160.591C350.42 160.387 350.448 160.182 350.516 159.989C350.583 159.795 350.688 159.617 350.824 159.464C350.96 159.311 351.125 159.187 351.309 159.098C351.494 159.009 351.694 158.957 351.898 158.945C352.103 158.933 352.308 158.962 352.501 159.029C352.694 159.097 352.873 159.202 353.025 159.338L380.781 184.026C381.017 184.236 381.184 184.512 381.259 184.819C381.334 185.126 381.314 185.448 381.202 185.743C381.089 186.038 380.889 186.292 380.629 186.471C380.369 186.65 380.06 186.746 379.744 186.746H379.744Z" fill="#0E9EDC"/>
<path d="M348.003 151.595C347.647 150.957 347.435 150.248 347.383 149.52C347.33 148.791 347.438 148.06 347.699 147.377C347.96 146.695 348.367 146.078 348.892 145.57C349.418 145.062 350.048 144.675 350.739 144.436L350.769 126.678L358.471 131.772L357.261 147.854C357.585 149.041 357.462 150.305 356.915 151.407C356.368 152.509 355.436 153.372 354.295 153.833C353.154 154.294 351.883 154.321 350.723 153.909C349.564 153.496 348.596 152.673 348.003 151.595H348.003Z" fill="#9E616A"/>
<path d="M319.634 73.9165C319.277 73.2785 319.066 72.5702 319.013 71.8416C318.96 71.1129 319.068 70.3816 319.329 69.6991C319.59 69.0166 319.997 68.3996 320.523 67.8915C321.048 67.3834 321.678 66.9966 322.37 66.7582L322.4 49L330.101 54.0933L328.892 70.176C329.215 71.3626 329.092 72.6267 328.546 73.7287C327.999 74.8307 327.067 75.6941 325.925 76.1551C324.784 76.6162 323.513 76.643 322.354 76.2304C321.194 75.8178 320.226 74.9945 319.634 73.9165H319.634Z" fill="#9E616A"/>
<path d="M348.715 73.0202L352.156 69.7065L354.683 71.5293C354.683 71.5293 357.17 74.511 359.159 83.456C361.149 92.401 359.159 141.599 359.159 141.599L348.218 140.108L349.71 114.267L345.234 92.401L348.715 73.0202Z" fill="#0E9EDC"/>
<path d="M353.796 70.5149L342.204 64.9823L334.334 57.6885L319.983 57.5812L315.354 63.5946L303.133 67.7428L305.17 109.852L303.781 113.09C303.781 113.09 304.748 113.963 305.19 114.451C305.632 114.94 304.58 119.029 304.58 119.029L303.986 123.478L305.633 124.654L303.492 127.18L302.96 131.163C302.96 131.163 340.326 121.883 347.386 137.256C347.759 138.068 346.841 130.13 346.841 130.13L345.922 124.319L346.833 119.103L348.222 117.715L345.893 115.388L347.386 104.344L353.796 70.5149Z" fill="#0E9EDC"/>
<path d="M90.9242 163.867C91.2119 163.137 91.3359 162.353 91.2875 161.57C91.2392 160.787 91.0196 160.024 90.6443 159.335C90.269 158.646 89.747 158.048 89.1152 157.582C88.4835 157.117 87.7572 156.795 86.9876 156.64L84.4127 137.747L76.9468 144.268L80.5366 161.21C80.362 162.519 80.6741 163.846 81.4137 164.941C82.1533 166.035 83.269 166.821 84.5494 167.148C85.8298 167.476 87.186 167.323 88.3609 166.718C89.5358 166.113 90.4478 165.098 90.9242 163.866V163.867Z" fill="#FFB8B8"/>
<path d="M61.6741 80.1703L59.6505 80.5576L58.4273 82.0964C58.4273 82.0964 56.4484 89.852 58.7026 95.272C60.9569 100.692 77.2552 155.173 77.2552 155.173L88.9617 155.512L79.8424 111.34L61.6741 80.1703Z" fill="#0E9EDC"/>
<path d="M107.825 161.095C107.285 160.525 106.878 159.844 106.63 159.099C106.383 158.355 106.302 157.565 106.393 156.786C106.485 156.007 106.746 155.257 107.158 154.59C107.571 153.922 108.124 153.354 108.781 152.923L104.12 134.433L113.481 137.703L116.472 154.76C117.122 155.909 117.328 157.258 117.05 158.549C116.772 159.84 116.03 160.984 114.964 161.765C113.898 162.546 112.583 162.909 111.267 162.786C109.951 162.662 108.726 162.061 107.825 161.095V161.095Z" fill="#FFB8B8"/>
<path d="M103.735 72.5366L105.757 72.1421L107.466 73.1142C107.466 73.1142 112.196 79.5733 112.127 85.4423C112.058 91.3113 117.264 147.936 117.264 147.936L106.528 152.612L98.5073 108.227L103.735 72.5366Z" fill="#0E9EDC"/>
</g>
<defs>
<clipPath id="clip0_338_9793">
<rect width="404" height="273" fill="white" transform="translate(0 0.641357)"/>
</clipPath>
</defs>
</svg>
