<?xml version="1.0" encoding="utf-8"?>
<!-- Generator: Adobe Illustrator 16.0.0, SVG Export Plug-In . SVG Version: 6.00 Build 0)  -->
<!DOCTYPE svg PUBLIC "-//W3C//DTD SVG 1.1//EN" "http://www.w3.org/Graphics/SVG/1.1/DTD/svg11.dtd">
<svg version="1.1" id="Capa_1" xmlns="http://www.w3.org/2000/svg" xmlns:xlink="http://www.w3.org/1999/xlink" x="0px" y="0px"
	 width="418px" height="192px" viewBox="0 0 418 192" enable-background="new 0 0 418 192" xml:space="preserve">
<g>
	<g>
		<g>
			<linearGradient id="SVGID_1_" gradientUnits="userSpaceOnUse" x1="116.8218" y1="51.4775" x2="11.0263" y2="12.3426">
				<stop  offset="0" style="stop-color:#C11B1C"/>
				<stop  offset="0.2692" style="stop-color:#CE1919"/>
				<stop  offset="0.4601" style="stop-color:#D91716"/>
				<stop  offset="0.6581" style="stop-color:#E03918"/>
				<stop  offset="0.8567" style="stop-color:#E64E19"/>
				<stop  offset="0.9877" style="stop-color:#E95619"/>
			</linearGradient>
			<path fill="url(#SVGID_1_)" d="M100.829,59.816c5.533-3.783,13.867-9.272,17.457-12.295c0,0-72.221-44.122-103.895-44.152
				c0,0-2.604,6.403-4.877,14.185C33.237,26.744,100.817,59.814,100.829,59.816z"/>
			<linearGradient id="SVGID_2_" gradientUnits="userSpaceOnUse" x1="88.7764" y1="69.5586" x2="1.905" y2="43.991">
				<stop  offset="0" style="stop-color:#C11B1C"/>
				<stop  offset="0.2692" style="stop-color:#CE1919"/>
				<stop  offset="0.4601" style="stop-color:#D91716"/>
				<stop  offset="0.6581" style="stop-color:#E03918"/>
				<stop  offset="0.8567" style="stop-color:#E64E19"/>
				<stop  offset="0.9877" style="stop-color:#E95619"/>
			</linearGradient>
			<path fill="url(#SVGID_2_)" d="M65.965,82.627c6.836-4.443,14.773-9.441,23.471-15.313C63.563,56.396,14.086,29.513,7.262,25.785
				c-1.16,5.011-2.355,10.487-3.358,16.834C12.959,54.257,65.769,82.507,65.965,82.627z"/>
			<linearGradient id="SVGID_3_" gradientUnits="userSpaceOnUse" x1="54.4067" y1="84.0415" x2="-1.1903" y2="74.638">
				<stop  offset="0" style="stop-color:#C11B1C"/>
				<stop  offset="0.2692" style="stop-color:#CE1919"/>
				<stop  offset="0.4601" style="stop-color:#D91716"/>
				<stop  offset="0.6581" style="stop-color:#E03918"/>
				<stop  offset="0.8567" style="stop-color:#E64E19"/>
				<stop  offset="0.9877" style="stop-color:#E95619"/>
			</linearGradient>
			<path fill="url(#SVGID_3_)" d="M32.912,103.943c5.367-3.332,11.713-7.496,20.337-13.059C13.635,70.882,2.729,51.843,2.68,51.755
				c-0.564,6.273-1.006,11.27-1.006,18.307C11.19,88.662,32.768,103.844,32.912,103.943z"/>
			<linearGradient id="SVGID_4_" gradientUnits="userSpaceOnUse" x1="25.9087" y1="103.7231" x2="-1.1714" y2="98.0165">
				<stop  offset="0" style="stop-color:#C11B1C"/>
				<stop  offset="0.2692" style="stop-color:#CE1919"/>
				<stop  offset="0.4601" style="stop-color:#D91716"/>
				<stop  offset="0.6581" style="stop-color:#E03918"/>
				<stop  offset="0.8567" style="stop-color:#E64E19"/>
				<stop  offset="0.9877" style="stop-color:#E95619"/>
			</linearGradient>
			<path fill="url(#SVGID_4_)" d="M24.752,109.212l-12.506,8.037C6.166,107.221,2.946,92.429,2.139,82.31
				C2.139,82.31,12.629,102.189,24.752,109.212z"/>
		</g>
		<g>
			<path d="M91.678,104.68c-0.072,0.88-0.287,1.7-0.646,2.455c-0.361,0.757-0.838,1.412-1.432,1.971
				c-0.592,0.558-1.29,0.995-2.09,1.309c-0.801,0.313-1.679,0.473-2.632,0.473c-0.917,0-1.821-0.181-2.712-0.54
				c-0.892-0.361-1.67-0.873-2.336-1.539c-0.504-0.521-0.908-1.096-1.213-1.727c-0.307-0.629-0.531-1.281-0.676-1.956
				c-0.143-0.676-0.238-1.368-0.282-2.079c-0.046-0.71-0.067-1.406-0.067-2.092c0-0.683,0.021-1.375,0.067-2.076
				c0.044-0.702,0.14-1.395,0.282-2.08c0.145-0.683,0.369-1.335,0.676-1.955c0.305-0.621,0.709-1.192,1.213-1.715
				c0.666-0.665,1.444-1.178,2.336-1.536c0.891-0.361,1.795-0.54,2.712-0.54c0.953,0,1.831,0.157,2.632,0.471
				c0.8,0.314,1.498,0.752,2.09,1.309c0.594,0.559,1.07,1.215,1.432,1.971c0.359,0.756,0.574,1.574,0.646,2.455h-1.457
				c-0.055-0.701-0.224-1.348-0.513-1.942c-0.287-0.593-0.661-1.106-1.118-1.538c-0.461-0.432-1.004-0.764-1.635-0.998
				c-0.629-0.233-1.321-0.352-2.077-0.352c-0.864,0-1.62,0.145-2.267,0.432c-0.648,0.288-1.232,0.694-1.756,1.215
				c-0.43,0.451-0.768,0.955-1.011,1.511c-0.243,0.56-0.423,1.138-0.54,1.742c-0.117,0.603-0.188,1.214-0.215,1.834
				s-0.041,1.22-0.041,1.794c0,0.576,0.014,1.175,0.041,1.795c0.027,0.621,0.103,1.238,0.229,1.85s0.312,1.197,0.553,1.754
				c0.244,0.558,0.581,1.062,1.012,1.511c1.063,1.099,2.393,1.646,3.995,1.646c0.756,0,1.448-0.116,2.077-0.351
				c0.631-0.232,1.174-0.566,1.635-0.998c0.457-0.433,0.831-0.944,1.118-1.539c0.289-0.594,0.458-1.241,0.513-1.942H91.678z"/>
			<path d="M106.063,103.791c0,1.15-0.145,2.176-0.432,3.074c-0.289,0.901-0.783,1.701-1.484,2.402
				c-0.469,0.468-1.031,0.855-1.688,1.16c-0.655,0.307-1.408,0.46-2.252,0.46c-0.846,0-1.598-0.153-2.254-0.46
				c-0.657-0.305-1.219-0.692-1.688-1.16c-0.701-0.701-1.195-1.501-1.484-2.402c-0.287-0.898-0.431-1.924-0.431-3.074
				c0-1.152,0.144-2.178,0.431-3.078c0.289-0.899,0.783-1.701,1.484-2.402c0.469-0.467,1.03-0.854,1.688-1.159
				c0.656-0.306,1.408-0.459,2.254-0.459c0.844,0,1.597,0.153,2.252,0.459c0.656,0.306,1.219,0.692,1.688,1.159
				c0.701,0.701,1.195,1.503,1.484,2.402C105.918,101.613,106.063,102.638,106.063,103.791z M104.688,103.791
				c0-0.883-0.1-1.71-0.299-2.484c-0.197-0.773-0.603-1.475-1.213-2.105c-0.361-0.358-0.783-0.646-1.27-0.863
				c-0.486-0.215-1.053-0.324-1.699-0.324c-0.648,0-1.215,0.109-1.701,0.324c-0.486,0.217-0.909,0.505-1.268,0.863
				c-0.613,0.631-1.018,1.332-1.215,2.105c-0.197,0.774-0.297,1.602-0.297,2.484c0,0.881,0.1,1.709,0.297,2.48
				c0.197,0.774,0.602,1.478,1.215,2.105c0.358,0.361,0.781,0.648,1.268,0.863c0.486,0.216,1.053,0.324,1.701,0.324
				c0.646,0,1.213-0.108,1.699-0.324c0.486-0.215,0.908-0.502,1.27-0.863c0.61-0.628,1.016-1.331,1.213-2.105
				C104.588,105.5,104.688,104.671,104.688,103.791z"/>
			<path d="M117.208,98.337c-0.217-0.055-0.436-0.09-0.661-0.107s-0.446-0.028-0.661-0.028c-0.846,0-1.543,0.173-2.092,0.513
				c-0.549,0.344-0.984,0.793-1.309,1.352c-0.324,0.557-0.553,1.188-0.688,1.889c-0.135,0.701-0.201,1.402-0.201,2.104v6.477h-1.351
				V97.042h1.188l0.163,2.725c0.305-0.934,0.857-1.645,1.658-2.131c0.802-0.485,1.679-0.729,2.632-0.729
				c0.215,0,0.436,0.004,0.661,0.014c0.226,0.009,0.444,0.032,0.661,0.066V98.337z"/>
			<path d="M132.159,103.763c0,1.114-0.172,2.176-0.512,3.184c-0.344,1.008-0.875,1.854-1.594,2.536
				c-0.449,0.434-0.977,0.773-1.578,1.026c-0.604,0.251-1.3,0.378-2.093,0.378c-0.485,0-0.956-0.063-1.417-0.188
				c-0.458-0.127-0.887-0.307-1.281-0.54s-0.75-0.513-1.065-0.837s-0.563-0.674-0.741-1.053v7.664h-1.351V97.042h1.188l0.162,2.374
				c0.179-0.413,0.432-0.79,0.754-1.134c0.324-0.34,0.686-0.628,1.08-0.861c0.396-0.234,0.823-0.416,1.281-0.541
				c0.459-0.125,0.913-0.188,1.363-0.188c0.774,0,1.453,0.112,2.037,0.337c0.586,0.225,1.102,0.535,1.553,0.932
				c0.756,0.666,1.313,1.506,1.674,2.523C131.978,101.5,132.159,102.593,132.159,103.763z M130.782,103.791
				c0-0.973-0.139-1.881-0.418-2.727s-0.732-1.549-1.363-2.105c-0.34-0.305-0.729-0.539-1.16-0.702
				c-0.432-0.161-0.936-0.243-1.512-0.243c-0.593,0-1.114,0.1-1.564,0.297s-0.846,0.459-1.188,0.783
				c-0.612,0.593-1.053,1.291-1.322,2.092s-0.404,1.67-0.404,2.605c0,1.008,0.125,1.9,0.377,2.684s0.693,1.463,1.322,2.037
				c0.342,0.324,0.742,0.58,1.201,0.77s1.002,0.283,1.632,0.283s1.179-0.108,1.647-0.324c0.467-0.215,0.881-0.502,1.24-0.863
				c0.521-0.575,0.905-1.268,1.146-2.078C130.661,105.49,130.782,104.652,130.782,103.791z"/>
			<path d="M146.84,103.791c0,1.15-0.145,2.176-0.432,3.074c-0.289,0.901-0.783,1.701-1.484,2.402
				c-0.469,0.468-1.031,0.855-1.688,1.16c-0.656,0.307-1.408,0.46-2.252,0.46c-0.848,0-1.598-0.153-2.254-0.46
				c-0.658-0.305-1.219-0.692-1.688-1.16c-0.701-0.701-1.196-1.501-1.484-2.402c-0.288-0.898-0.432-1.924-0.432-3.074
				c0-1.152,0.144-2.178,0.432-3.078c0.288-0.899,0.783-1.701,1.484-2.402c0.469-0.467,1.029-0.854,1.688-1.159
				c0.656-0.306,1.406-0.459,2.254-0.459c0.844,0,1.596,0.153,2.252,0.459s1.219,0.692,1.688,1.159
				c0.701,0.701,1.195,1.503,1.484,2.402C146.696,101.613,146.84,102.638,146.84,103.791z M145.465,103.791
				c0-0.883-0.1-1.71-0.299-2.484c-0.198-0.773-0.603-1.475-1.214-2.105c-0.36-0.358-0.782-0.646-1.269-0.863
				c-0.486-0.215-1.053-0.324-1.699-0.324c-0.648,0-1.215,0.109-1.701,0.324c-0.485,0.217-0.909,0.505-1.268,0.863
				c-0.613,0.631-1.018,1.332-1.215,2.105c-0.197,0.774-0.297,1.602-0.297,2.484c0,0.881,0.1,1.709,0.297,2.48
				c0.197,0.774,0.602,1.478,1.215,2.105c0.358,0.361,0.782,0.648,1.268,0.863c0.486,0.216,1.053,0.324,1.701,0.324
				c0.646,0,1.213-0.108,1.699-0.324c0.486-0.215,0.908-0.502,1.269-0.863c0.611-0.628,1.016-1.331,1.214-2.105
				C145.366,105.5,145.465,104.671,145.465,103.791z"/>
			<path d="M157.985,98.337c-0.217-0.055-0.436-0.09-0.661-0.107s-0.446-0.028-0.661-0.028c-0.847,0-1.542,0.173-2.092,0.513
				c-0.549,0.344-0.984,0.793-1.309,1.352c-0.324,0.557-0.553,1.188-0.689,1.889c-0.134,0.701-0.201,1.402-0.201,2.104v6.477h-1.35
				V97.042h1.188l0.162,2.725c0.306-0.934,0.859-1.645,1.659-2.131c0.801-0.485,1.679-0.729,2.632-0.729
				c0.215,0,0.436,0.004,0.661,0.014c0.226,0.009,0.444,0.032,0.661,0.066V98.337z"/>
			<path d="M172.208,110.536c-0.162,0.036-0.271,0.058-0.324,0.067c-0.053,0.01-0.162,0.015-0.324,0.015
				c-0.828,0-1.391-0.261-1.687-0.783c-0.297-0.522-0.444-1.142-0.444-1.862c-0.182,0.486-0.438,0.908-0.771,1.268
				c-0.331,0.361-0.714,0.662-1.146,0.904c-0.434,0.243-0.901,0.428-1.405,0.555c-0.503,0.125-1.017,0.188-1.536,0.188
				c-0.648,0-1.256-0.096-1.822-0.284c-0.567-0.188-1.063-0.462-1.484-0.823c-0.424-0.358-0.752-0.796-0.986-1.309
				c-0.232-0.513-0.35-1.093-0.35-1.739c0-1.205,0.418-2.156,1.254-2.848c0.838-0.693,1.931-1.084,3.28-1.175l4.966-0.351v-1.322
				c0-1.115-0.338-1.906-1.013-2.374s-1.524-0.702-2.55-0.702c-1.08,0-1.98,0.241-2.699,0.728c-0.721,0.485-1.115,1.233-1.188,2.239
				h-1.35c0.055-0.682,0.221-1.284,0.499-1.807c0.279-0.521,0.648-0.962,1.106-1.322c0.459-0.359,0.999-0.635,1.62-0.823
				c0.62-0.188,1.29-0.283,2.011-0.283c0.467,0,0.931,0.04,1.389,0.122c0.459,0.08,0.895,0.219,1.309,0.417
				c0.414,0.199,0.783,0.454,1.107,0.77c0.323,0.315,0.575,0.706,0.756,1.173c0.161,0.415,0.26,0.838,0.296,1.27
				c0.036,0.433,0.054,0.873,0.054,1.322v6.154c0,0.467,0.059,0.826,0.176,1.078c0.116,0.252,0.41,0.379,0.879,0.379
				c0.16,0,0.287-0.01,0.377-0.027V110.536z M169.428,103.599l-4.832,0.298c-1.008,0.072-1.808,0.354-2.402,0.851
				c-0.592,0.494-0.89,1.156-0.89,1.984c0,0.971,0.319,1.699,0.958,2.186s1.443,0.729,2.415,0.729c0.847,0,1.569-0.158,2.173-0.473
				c0.602-0.314,1.094-0.724,1.471-1.228c0.379-0.503,0.656-1.075,0.837-1.714c0.18-0.639,0.271-1.282,0.271-1.93V103.599z"/>
			<path d="M186.131,106.271c-0.09,0.648-0.278,1.256-0.565,1.822c-0.288,0.566-0.661,1.059-1.12,1.471
				c-0.458,0.414-0.994,0.738-1.605,0.972c-0.612,0.233-1.269,0.352-1.971,0.352c-0.846,0-1.602-0.148-2.267-0.446
				c-0.665-0.297-1.233-0.68-1.7-1.146c-0.701-0.701-1.192-1.506-1.471-2.416c-0.278-0.908-0.419-1.938-0.419-3.088
				c0-1.152,0.141-2.183,0.419-3.092c0.278-0.908,0.77-1.714,1.471-2.416c0.467-0.467,1.035-0.849,1.7-1.146
				c0.665-0.295,1.421-0.444,2.267-0.444c0.702,0,1.354,0.106,1.956,0.323c0.604,0.216,1.13,0.527,1.579,0.932
				s0.824,0.887,1.12,1.444c0.297,0.557,0.481,1.179,0.554,1.862h-1.404c-0.143-0.937-0.559-1.71-1.241-2.322
				c-0.685-0.611-1.538-0.918-2.563-0.918c-0.646,0-1.219,0.105-1.714,0.311c-0.495,0.208-0.921,0.49-1.282,0.85
				c-0.611,0.631-1.012,1.338-1.199,2.119c-0.191,0.783-0.285,1.615-0.285,2.498c0,0.881,0.094,1.717,0.285,2.508
				c0.188,0.792,0.588,1.503,1.199,2.133c0.721,0.756,1.719,1.133,2.996,1.133c1.043,0,1.903-0.318,2.578-0.957
				c0.674-0.639,1.092-1.416,1.254-2.336H186.131z"/>
			<path d="M189.885,93.292v-1.891h1.889v1.891H189.885z M190.127,110.536V97.042h1.43v13.493H190.127z"/>
			<path d="M207.561,103.791c0,1.15-0.146,2.176-0.432,3.074c-0.289,0.901-0.783,1.701-1.484,2.402
				c-0.469,0.468-1.031,0.855-1.688,1.16c-0.656,0.307-1.408,0.46-2.252,0.46c-0.848,0-1.598-0.153-2.254-0.46
				c-0.658-0.305-1.219-0.692-1.688-1.16c-0.701-0.701-1.197-1.501-1.484-2.402c-0.289-0.898-0.432-1.924-0.432-3.074
				c0-1.152,0.143-2.178,0.432-3.078c0.287-0.899,0.783-1.701,1.484-2.402c0.469-0.467,1.029-0.854,1.688-1.159
				c0.656-0.306,1.406-0.459,2.254-0.459c0.844,0,1.596,0.153,2.252,0.459s1.219,0.692,1.688,1.159
				c0.701,0.701,1.195,1.503,1.484,2.402C207.414,101.613,207.561,102.638,207.561,103.791z M206.184,103.791
				c0-0.883-0.098-1.71-0.297-2.484c-0.199-0.773-0.604-1.475-1.215-2.105c-0.359-0.358-0.783-0.646-1.268-0.863
				c-0.486-0.215-1.053-0.324-1.699-0.324c-0.648,0-1.215,0.109-1.701,0.324c-0.486,0.217-0.91,0.505-1.27,0.863
				c-0.611,0.631-1.016,1.332-1.213,2.105c-0.199,0.774-0.297,1.602-0.297,2.484c0,0.881,0.098,1.709,0.297,2.48
				c0.197,0.774,0.602,1.478,1.213,2.105c0.359,0.361,0.783,0.648,1.27,0.863c0.486,0.216,1.053,0.324,1.701,0.324
				c0.646,0,1.213-0.108,1.699-0.324c0.484-0.215,0.908-0.502,1.268-0.863c0.611-0.628,1.016-1.331,1.215-2.105
				C206.086,105.5,206.184,104.671,206.184,103.791z M199.842,95.208l-0.459-0.729l4.266-3.132l0.754,1.189L199.842,95.208z"/>
			<path d="M230.525,104.68c-0.072,0.88-0.289,1.7-0.648,2.455c-0.359,0.757-0.836,1.412-1.432,1.971
				c-0.592,0.558-1.289,0.995-2.09,1.309s-1.678,0.473-2.631,0.473c-0.918,0-1.822-0.181-2.713-0.54
				c-0.891-0.361-1.67-0.873-2.334-1.539c-0.504-0.521-0.908-1.096-1.215-1.727c-0.307-0.629-0.531-1.281-0.674-1.956
				c-0.145-0.676-0.24-1.368-0.283-2.079c-0.047-0.71-0.068-1.406-0.068-2.092c0-0.683,0.021-1.375,0.068-2.076
				c0.043-0.702,0.139-1.395,0.283-2.08c0.143-0.683,0.367-1.335,0.674-1.955c0.307-0.621,0.711-1.192,1.215-1.715
				c0.664-0.665,1.443-1.178,2.334-1.536c0.891-0.361,1.795-0.54,2.713-0.54c0.953,0,1.83,0.157,2.631,0.471
				c0.801,0.314,1.498,0.752,2.09,1.309c0.596,0.559,1.072,1.215,1.432,1.971s0.576,1.574,0.648,2.455h-1.457
				c-0.055-0.701-0.227-1.348-0.514-1.942c-0.287-0.593-0.662-1.106-1.121-1.538c-0.457-0.432-1.002-0.764-1.633-0.998
				c-0.627-0.233-1.32-0.352-2.076-0.352c-0.865,0-1.621,0.145-2.268,0.432c-0.646,0.288-1.232,0.694-1.754,1.215
				c-0.432,0.451-0.77,0.955-1.012,1.511c-0.244,0.56-0.424,1.138-0.541,1.742c-0.117,0.603-0.188,1.214-0.215,1.834
				s-0.039,1.22-0.039,1.794c0,0.576,0.012,1.175,0.039,1.795c0.027,0.621,0.104,1.238,0.23,1.85
				c0.125,0.611,0.309,1.197,0.553,1.754c0.242,0.558,0.58,1.062,1.012,1.511c1.063,1.099,2.393,1.646,3.994,1.646
				c0.756,0,1.449-0.116,2.076-0.351c0.631-0.232,1.176-0.566,1.633-0.998c0.459-0.433,0.834-0.944,1.121-1.539
				c0.287-0.594,0.459-1.241,0.514-1.942H230.525z"/>
			<path d="M245.529,110.536c-0.162,0.036-0.27,0.058-0.322,0.067c-0.055,0.01-0.164,0.015-0.326,0.015
				c-0.828,0-1.389-0.261-1.686-0.783s-0.445-1.142-0.445-1.862c-0.182,0.486-0.438,0.908-0.77,1.268
				c-0.332,0.361-0.715,0.662-1.146,0.904c-0.432,0.243-0.9,0.428-1.404,0.555c-0.504,0.125-1.018,0.188-1.537,0.188
				c-0.648,0-1.256-0.096-1.822-0.284s-1.061-0.462-1.484-0.823c-0.424-0.358-0.752-0.796-0.984-1.309
				c-0.234-0.513-0.352-1.093-0.352-1.739c0-1.205,0.418-2.156,1.256-2.848c0.836-0.693,1.93-1.084,3.277-1.175l4.967-0.351v-1.322
				c0-1.115-0.338-1.906-1.014-2.374c-0.674-0.468-1.523-0.702-2.549-0.702c-1.08,0-1.98,0.241-2.699,0.728
				c-0.719,0.485-1.115,1.233-1.188,2.239h-1.348c0.053-0.682,0.219-1.284,0.498-1.807c0.279-0.521,0.648-0.962,1.107-1.322
				c0.457-0.359,0.998-0.635,1.617-0.823c0.621-0.188,1.291-0.283,2.012-0.283c0.467,0,0.93,0.04,1.389,0.122
				c0.461,0.08,0.896,0.219,1.309,0.417c0.414,0.199,0.783,0.454,1.109,0.77c0.322,0.315,0.574,0.706,0.754,1.173
				c0.162,0.415,0.26,0.838,0.297,1.27c0.035,0.433,0.053,0.873,0.053,1.322v6.154c0,0.467,0.061,0.826,0.178,1.078
				c0.115,0.252,0.408,0.379,0.877,0.379c0.16,0,0.287-0.01,0.377-0.027V110.536z M242.75,103.599l-4.832,0.298
				c-1.008,0.072-1.807,0.354-2.4,0.851c-0.594,0.494-0.891,1.156-0.891,1.984c0,0.971,0.318,1.699,0.959,2.186
				c0.637,0.486,1.443,0.729,2.414,0.729c0.846,0,1.57-0.158,2.172-0.473c0.604-0.314,1.094-0.724,1.471-1.228
				c0.379-0.503,0.656-1.075,0.838-1.714c0.18-0.639,0.27-1.282,0.27-1.93V103.599z"/>
			<path d="M255.758,110.402c-0.379,0.088-0.752,0.165-1.119,0.229c-0.369,0.063-0.742,0.094-1.121,0.094
				c-1.26,0-2.154-0.363-2.684-1.092c-0.531-0.729-0.797-1.678-0.797-2.848v-8.502h-2.699v-1.24h2.699v-3.725l1.35-0.322v4.047
				h4.184v1.24h-4.184v8.449c0,0.395,0.031,0.76,0.094,1.093c0.064,0.331,0.18,0.62,0.352,0.862c0.17,0.243,0.398,0.432,0.688,0.567
				c0.287,0.134,0.656,0.201,1.107,0.201c0.359,0,0.713-0.021,1.064-0.067c0.352-0.043,0.705-0.104,1.066-0.174V110.402z"/>
			<path d="M270.52,110.536c-0.162,0.036-0.27,0.058-0.324,0.067c-0.053,0.01-0.162,0.015-0.324,0.015
				c-0.828,0-1.389-0.261-1.686-0.783s-0.445-1.142-0.445-1.862c-0.182,0.486-0.436,0.908-0.77,1.268
				c-0.332,0.361-0.715,0.662-1.146,0.904c-0.432,0.243-0.9,0.428-1.404,0.555c-0.504,0.125-1.016,0.188-1.537,0.188
				c-0.648,0-1.256-0.096-1.822-0.284s-1.061-0.462-1.484-0.823c-0.422-0.358-0.752-0.796-0.984-1.309
				c-0.234-0.513-0.352-1.093-0.352-1.739c0-1.205,0.418-2.156,1.256-2.848c0.836-0.693,1.93-1.084,3.279-1.175l4.965-0.351v-1.322
				c0-1.115-0.336-1.906-1.012-2.374s-1.525-0.702-2.551-0.702c-1.078,0-1.98,0.241-2.699,0.728
				c-0.719,0.485-1.115,1.233-1.188,2.239h-1.348c0.053-0.682,0.219-1.284,0.498-1.807c0.279-0.521,0.648-0.962,1.107-1.322
				c0.457-0.359,0.998-0.635,1.617-0.823c0.621-0.188,1.291-0.283,2.012-0.283c0.467,0,0.932,0.04,1.391,0.122
				c0.459,0.08,0.895,0.219,1.307,0.417c0.414,0.199,0.783,0.454,1.107,0.77s0.576,0.706,0.758,1.173
				c0.16,0.415,0.258,0.838,0.295,1.27c0.035,0.433,0.053,0.873,0.053,1.322v6.154c0,0.467,0.061,0.826,0.178,1.078
				c0.115,0.252,0.408,0.379,0.877,0.379c0.16,0,0.287-0.01,0.377-0.027V110.536z M267.74,103.599l-4.832,0.298
				c-1.008,0.072-1.807,0.354-2.402,0.851c-0.592,0.494-0.889,1.156-0.889,1.984c0,0.971,0.318,1.699,0.959,2.186
				c0.637,0.486,1.443,0.729,2.414,0.729c0.846,0,1.57-0.158,2.172-0.473c0.604-0.314,1.094-0.724,1.471-1.228
				c0.379-0.503,0.656-1.075,0.838-1.714c0.18-0.639,0.27-1.282,0.27-1.93V103.599z"/>
			<path d="M278.318,110.536c-0.143,0.036-0.311,0.071-0.498,0.109c-0.189,0.034-0.428,0.054-0.717,0.054
				c-0.863,0-1.527-0.23-1.996-0.688c-0.469-0.459-0.703-1.184-0.703-2.173V91.052h1.352v16.73c0,0.469,0.088,0.855,0.27,1.162
				c0.18,0.305,0.557,0.459,1.133,0.459c0.27,0,0.48,0,0.635,0c0.152,0,0.328-0.02,0.525-0.055V110.536z"/>
			<path d="M293.188,110.536c-0.16,0.036-0.27,0.058-0.322,0.067c-0.055,0.01-0.162,0.015-0.324,0.015
				c-0.828,0-1.391-0.261-1.688-0.783c-0.295-0.522-0.445-1.142-0.445-1.862c-0.18,0.486-0.436,0.908-0.77,1.268
				c-0.332,0.361-0.715,0.662-1.145,0.904c-0.434,0.243-0.9,0.428-1.404,0.555c-0.504,0.125-1.018,0.188-1.537,0.188
				c-0.65,0-1.258-0.096-1.822-0.284c-0.568-0.188-1.063-0.462-1.484-0.823c-0.424-0.358-0.752-0.796-0.986-1.309
				s-0.35-1.093-0.35-1.739c0-1.205,0.416-2.156,1.254-2.848c0.838-0.693,1.93-1.084,3.279-1.175l4.965-0.351v-1.322
				c0-1.115-0.336-1.906-1.012-2.374s-1.523-0.702-2.551-0.702c-1.078,0-1.979,0.241-2.699,0.728
				c-0.719,0.485-1.113,1.233-1.186,2.239h-1.35c0.055-0.682,0.219-1.284,0.498-1.807c0.279-0.521,0.648-0.962,1.107-1.322
				c0.459-0.359,1-0.635,1.619-0.823c0.621-0.188,1.291-0.283,2.01-0.283c0.469,0,0.932,0.04,1.391,0.122
				c0.459,0.08,0.895,0.219,1.309,0.417c0.414,0.199,0.783,0.454,1.107,0.77c0.322,0.315,0.574,0.706,0.756,1.173
				c0.16,0.415,0.26,0.838,0.295,1.27c0.037,0.433,0.055,0.873,0.055,1.322v6.154c0,0.467,0.059,0.826,0.176,1.078
				c0.115,0.252,0.41,0.379,0.877,0.379c0.162,0,0.289-0.01,0.377-0.027V110.536z M290.408,103.599l-4.83,0.298
				c-1.008,0.072-1.809,0.354-2.402,0.851c-0.594,0.494-0.891,1.156-0.891,1.984c0,0.971,0.32,1.699,0.959,2.186
				s1.443,0.729,2.416,0.729c0.846,0,1.568-0.158,2.172-0.473c0.602-0.314,1.092-0.724,1.471-1.228
				c0.379-0.503,0.656-1.075,0.836-1.714s0.27-1.282,0.27-1.93V103.599z"/>
			<path d="M306.467,110.536v-8.825c0-1.187-0.271-2.1-0.811-2.738s-1.43-0.959-2.672-0.959c-0.826,0-1.529,0.163-2.105,0.486
				c-0.574,0.324-1.037,0.756-1.389,1.296s-0.604,1.156-0.756,1.849s-0.229,1.408-0.229,2.146v6.745h-1.35V97.042h1.186l0.164,2.455
				c0.197-0.432,0.453-0.818,0.768-1.16c0.314-0.341,0.676-0.634,1.08-0.877c0.404-0.242,0.84-0.432,1.309-0.566
				s0.936-0.202,1.404-0.202c1.564,0,2.746,0.44,3.549,1.321c0.799,0.883,1.199,2.088,1.199,3.615v8.907H306.467z"/>
			<path d="M324.061,110.536c-0.162,0.036-0.27,0.058-0.324,0.067c-0.053,0.01-0.162,0.015-0.324,0.015
				c-0.826,0-1.389-0.261-1.686-0.783s-0.445-1.142-0.445-1.862c-0.18,0.486-0.436,0.908-0.77,1.268
				c-0.332,0.361-0.715,0.662-1.146,0.904c-0.432,0.243-0.9,0.428-1.404,0.555c-0.504,0.125-1.016,0.188-1.537,0.188
				c-0.648,0-1.256-0.096-1.822-0.284s-1.061-0.462-1.484-0.823c-0.424-0.358-0.752-0.796-0.984-1.309
				c-0.234-0.513-0.352-1.093-0.352-1.739c0-1.205,0.418-2.156,1.256-2.848c0.836-0.693,1.93-1.084,3.279-1.175l4.965-0.351v-1.322
				c0-1.115-0.336-1.906-1.012-2.374s-1.525-0.702-2.551-0.702c-1.08,0-1.979,0.241-2.699,0.728
				c-0.719,0.485-1.115,1.233-1.188,2.239h-1.35c0.055-0.682,0.221-1.284,0.5-1.807c0.279-0.521,0.648-0.962,1.107-1.322
				c0.459-0.359,0.998-0.635,1.619-0.823c0.619-0.188,1.291-0.283,2.01-0.283c0.467,0,0.932,0.04,1.389,0.122
				c0.459,0.08,0.896,0.219,1.311,0.417c0.412,0.199,0.783,0.454,1.105,0.77c0.324,0.315,0.576,0.706,0.756,1.173
				c0.162,0.415,0.26,0.838,0.297,1.27c0.035,0.433,0.055,0.873,0.055,1.322v6.154c0,0.467,0.057,0.826,0.174,1.078
				s0.41,0.379,0.879,0.379c0.16,0,0.287-0.01,0.377-0.027V110.536z M321.281,103.599l-4.832,0.298
				c-1.008,0.072-1.807,0.354-2.4,0.851c-0.594,0.494-0.891,1.156-0.891,1.984c0,0.971,0.318,1.699,0.959,2.186
				c0.639,0.486,1.443,0.729,2.414,0.729c0.846,0,1.57-0.158,2.172-0.473c0.604-0.314,1.094-0.724,1.471-1.228
				c0.379-0.503,0.656-1.075,0.838-1.714c0.18-0.639,0.27-1.282,0.27-1.93V103.599z"/>
			<path d="M87.928,137.523l-0.163-2.373c-0.179,0.412-0.431,0.791-0.755,1.133s-0.684,0.629-1.08,0.863
				c-0.395,0.234-0.822,0.414-1.281,0.539c-0.459,0.127-0.914,0.19-1.363,0.19c-0.773,0-1.452-0.114-2.037-0.339
				s-1.102-0.535-1.551-0.93c-0.757-0.666-1.315-1.507-1.674-2.523c-0.36-1.017-0.541-2.109-0.541-3.281
				c0-1.114,0.172-2.175,0.514-3.182c0.341-1.008,0.871-1.854,1.592-2.538c0.449-0.432,0.977-0.774,1.579-1.026
				s1.3-0.377,2.091-0.377c0.486,0,0.958,0.064,1.418,0.189c0.459,0.125,0.887,0.305,1.281,0.54
				c0.396,0.233,0.752,0.513,1.066,0.835c0.314,0.324,0.563,0.675,0.741,1.053v-8.257h1.349v19.483H87.928z M87.793,130.777
				c0-1.008-0.127-1.902-0.379-2.686s-0.693-1.461-1.321-2.037c-0.343-0.324-0.743-0.58-1.202-0.77
				c-0.458-0.189-1.002-0.283-1.633-0.283c-0.629,0-1.178,0.108-1.646,0.324c-0.467,0.216-0.879,0.504-1.24,0.863
				c-0.522,0.576-0.904,1.268-1.146,2.078c-0.244,0.811-0.366,1.646-0.366,2.51c0,0.973,0.14,1.88,0.42,2.725
				c0.278,0.846,0.731,1.549,1.362,2.106c0.342,0.306,0.729,0.54,1.16,0.702c0.434,0.16,0.936,0.242,1.512,0.242
				c0.594,0,1.115-0.1,1.565-0.298c0.449-0.198,0.845-0.458,1.188-0.782c0.609-0.594,1.053-1.291,1.322-2.092
				C87.657,132.582,87.793,131.712,87.793,130.777z"/>
			<path d="M104.985,130.21c0,0.161-0.006,0.311-0.014,0.445c-0.011,0.134-0.014,0.283-0.014,0.444h-10.31
				c0.018,0.792,0.148,1.534,0.392,2.228c0.242,0.692,0.58,1.299,1.012,1.822c0.379,0.449,0.834,0.799,1.363,1.051
				s1.164,0.379,1.902,0.379c1.205,0,2.186-0.396,2.941-1.188c0.252-0.252,0.464-0.531,0.635-0.837
				c0.17-0.306,0.301-0.665,0.392-1.079h1.403c-0.091,0.575-0.271,1.102-0.541,1.579c-0.27,0.476-0.593,0.894-0.971,1.255
				c-0.486,0.484-1.058,0.867-1.714,1.146c-0.657,0.279-1.372,0.419-2.146,0.419c-0.971,0-1.809-0.182-2.51-0.54
				c-0.702-0.361-1.295-0.82-1.781-1.377c-0.557-0.648-0.985-1.408-1.283-2.28c-0.295-0.872-0.443-1.822-0.443-2.849
				c0-0.862,0.089-1.699,0.27-2.508c0.18-0.811,0.529-1.575,1.052-2.295c1.151-1.566,2.681-2.348,4.589-2.348
				c0.917,0,1.73,0.18,2.441,0.539c0.711,0.36,1.314,0.842,1.809,1.444s0.872,1.3,1.133,2.092S104.985,129.365,104.985,130.21z
				 M103.608,129.859c-0.018-0.646-0.127-1.264-0.323-1.849c-0.198-0.584-0.485-1.106-0.864-1.565
				c-0.378-0.458-0.836-0.822-1.377-1.092c-0.54-0.271-1.15-0.406-1.834-0.406c-0.702,0-1.332,0.133-1.89,0.392
				c-0.557,0.261-1.03,0.618-1.416,1.065c-0.389,0.451-0.688,0.973-0.905,1.566c-0.215,0.594-0.324,1.223-0.324,1.889H103.608z"/>
			<path d="M130.216,137.523v-13.654l-4.966,13.385h-2.563l-4.938-13.547v13.816h-3.373v-19.134h4.695l5.02,13.63l5.046-13.63h4.454
				v19.134H130.216z"/>
			<path d="M137.88,121.546v-3.48h3.616v3.48H137.88z M137.989,137.523V123.49h3.428v14.033H137.989z"/>
			<path d="M153.586,137.335c-0.971,0.252-1.934,0.377-2.887,0.377c-1.422,0-2.483-0.381-3.186-1.146
				c-0.701-0.765-1.053-1.822-1.053-3.172v-7.124h-2.563v-2.78h2.563v-3.563l3.373-0.836v4.398h3.535v2.78h-3.535v6.827
				c0,0.541,0.127,0.932,0.379,1.175s0.647,0.364,1.188,0.364c0.359,0,0.696-0.01,1.012-0.027s0.706-0.054,1.174-0.108V137.335z"/>
			<path d="M160.198,139.466c0,1.205-0.342,2.158-1.025,2.86s-1.654,1.053-2.914,1.053c-0.197,0-0.393,0-0.58,0
				c-0.189,0-0.393-0.018-0.607-0.054c-0.216-0.037-0.449-0.072-0.701-0.107c-0.252-0.036-0.531-0.1-0.838-0.189v-2.861
				c0.252,0.037,0.455,0.064,0.607,0.082c0.154,0.018,0.284,0.031,0.392,0.04c0.108,0.009,0.212,0.019,0.31,0.028
				c0.1,0.008,0.213,0.014,0.34,0.014c0.52,0,0.921-0.137,1.199-0.406c0.279-0.271,0.418-0.638,0.418-1.105v-15.33h3.4V139.466z
				 M156.665,121.494v-3.481h3.615v3.481H156.665z"/>
			<path d="M176.661,137.362c-0.289,0.126-0.536,0.22-0.742,0.283c-0.207,0.063-0.52,0.095-0.932,0.095
				c-0.738,0-1.305-0.198-1.7-0.594c-0.396-0.396-0.62-0.855-0.675-1.377c-0.324,0.576-0.863,1.071-1.619,1.484
				c-0.755,0.414-1.637,0.622-2.645,0.622c-0.827,0-1.561-0.122-2.199-0.364c-0.64-0.244-1.17-0.568-1.593-0.973
				c-0.423-0.405-0.741-0.872-0.958-1.404c-0.215-0.529-0.324-1.083-0.324-1.658c0-0.666,0.122-1.26,0.363-1.781
				c0.244-0.522,0.581-0.973,1.014-1.35c0.432-0.378,0.935-0.67,1.51-0.878c0.577-0.205,1.197-0.337,1.863-0.39l4.129-0.298v-0.864
				c0-0.665-0.158-1.2-0.473-1.605c-0.314-0.404-0.947-0.607-1.9-0.607c-0.793,0-1.408,0.172-1.85,0.514s-0.68,0.837-0.715,1.483
				h-3.266c0.054-0.79,0.238-1.476,0.554-2.05c0.313-0.576,0.731-1.049,1.254-1.418c0.522-0.367,1.13-0.643,1.821-0.822
				c0.693-0.18,1.426-0.27,2.201-0.27c1.203,0,2.279,0.211,3.223,0.634c0.945,0.423,1.624,1.165,2.039,2.226
				c0.18,0.449,0.291,0.918,0.336,1.402c0.046,0.486,0.068,0.965,0.068,1.433v5.208c0,0.324,0.057,0.553,0.175,0.688
				s0.319,0.203,0.608,0.203c0.143,0,0.242-0.009,0.297-0.026c0.054-0.019,0.098-0.028,0.135-0.028V137.362z M172.153,131.291
				l-3.563,0.268c-0.522,0.037-0.99,0.209-1.402,0.514c-0.414,0.307-0.621,0.746-0.621,1.322c0,0.541,0.202,0.969,0.607,1.282
				c0.404,0.315,0.867,0.474,1.389,0.474c1.063,0,1.926-0.274,2.592-0.824c0.666-0.549,0.998-1.344,0.998-2.389V131.291z"/>
			<path d="M188.184,137.523v-8.609c0-0.826-0.162-1.475-0.486-1.942c-0.323-0.468-0.936-0.701-1.835-0.701
				c-0.595,0-1.089,0.167-1.483,0.499c-0.396,0.332-0.711,0.761-0.945,1.282c-0.252,0.558-0.391,1.173-0.418,1.849
				c-0.027,0.674-0.04,1.309-0.04,1.902v5.721h-3.374V123.49h2.834l0.242,1.809c0.414-0.737,1.003-1.281,1.768-1.633
				c0.765-0.35,1.552-0.525,2.361-0.525c0.756,0,1.425,0.125,2.011,0.377c0.584,0.252,1.078,0.598,1.482,1.039
				s0.717,0.967,0.932,1.58c0.217,0.61,0.324,1.285,0.324,2.021v9.365H188.184z"/>
			<path d="M206.453,133.179c0,0.684-0.113,1.277-0.336,1.78c-0.229,0.505-0.52,0.937-0.879,1.295
				c-0.576,0.577-1.277,0.989-2.105,1.242c-0.826,0.251-1.727,0.379-2.699,0.379c-0.898,0-1.736-0.132-2.51-0.392
				c-0.771-0.262-1.447-0.67-2.023-1.229c-0.414-0.394-0.766-0.871-1.053-1.43c-0.287-0.557-0.432-1.169-0.432-1.835h3.158
				c0,0.307,0.072,0.611,0.217,0.918c0.143,0.307,0.322,0.549,0.539,0.729c0.27,0.215,0.57,0.373,0.904,0.472
				c0.332,0.099,0.74,0.148,1.227,0.148c0.289,0,0.598-0.022,0.932-0.067s0.645-0.131,0.932-0.256
				c0.287-0.127,0.525-0.307,0.715-0.539c0.188-0.234,0.283-0.541,0.283-0.918c0-0.414-0.127-0.746-0.379-0.998
				s-0.592-0.415-1.025-0.486c-0.629-0.091-1.277-0.167-1.943-0.229c-0.664-0.063-1.313-0.167-1.943-0.311
				c-0.484-0.108-0.922-0.279-1.307-0.513c-0.389-0.234-0.727-0.518-1.012-0.851c-0.289-0.333-0.51-0.702-0.662-1.106
				c-0.154-0.405-0.23-0.832-0.23-1.282c0-0.72,0.137-1.335,0.406-1.849c0.27-0.513,0.611-0.947,1.025-1.309
				c0.521-0.449,1.143-0.796,1.861-1.039c0.721-0.242,1.521-0.363,2.402-0.363c0.846,0,1.66,0.133,2.443,0.404
				c0.781,0.27,1.434,0.684,1.955,1.242c0.379,0.414,0.68,0.867,0.904,1.361c0.225,0.495,0.338,1.004,0.338,1.525h-3.213
				c0-0.271-0.055-0.514-0.16-0.729c-0.109-0.217-0.244-0.414-0.406-0.594c-0.197-0.197-0.463-0.355-0.797-0.473
				c-0.332-0.117-0.678-0.176-1.037-0.176c-0.252,0-0.494,0.011-0.729,0.027c-0.234,0.018-0.477,0.082-0.729,0.188
				c-0.307,0.127-0.563,0.315-0.77,0.567s-0.311,0.559-0.311,0.916c0,0.504,0.176,0.852,0.525,1.041
				c0.352,0.188,0.715,0.311,1.094,0.365c0.322,0.035,0.594,0.066,0.809,0.094c0.217,0.027,0.432,0.055,0.648,0.08
				c0.217,0.027,0.441,0.059,0.676,0.096c0.232,0.035,0.521,0.08,0.863,0.135c1.115,0.179,2.033,0.605,2.752,1.281
				C206.092,131.167,206.453,132.063,206.453,133.179z"/>
			<path d="M226.748,137.523l-1.242-3.67h-7.609l-1.242,3.67h-3.508l6.721-19.134h3.805l6.719,19.134H226.748z M221.701,122.654
				l-2.727,8.068h5.451L221.701,122.654z"/>
			<path d="M241.131,137.523l-0.242-1.834c-0.342,0.684-0.873,1.219-1.594,1.605c-0.719,0.387-1.527,0.581-2.428,0.581
				c-0.756,0-1.43-0.122-2.023-0.364c-0.594-0.244-1.104-0.586-1.525-1.026c-0.424-0.44-0.746-0.968-0.973-1.578
				c-0.225-0.613-0.336-1.296-0.336-2.052v-9.365h3.373v8.609c0,0.828,0.18,1.48,0.539,1.957c0.361,0.477,0.99,0.715,1.891,0.715
				c0.395,0,0.732-0.067,1.012-0.201c0.279-0.137,0.518-0.302,0.715-0.501c0.414-0.376,0.688-0.854,0.824-1.431
				c0.133-0.575,0.201-1.15,0.201-1.727v-7.422h3.373v14.033H241.131z"/>
			<path d="M257.242,137.523l-0.215-1.538c-0.414,0.648-0.98,1.12-1.701,1.417c-0.719,0.297-1.467,0.446-2.24,0.446
				c-0.701,0-1.34-0.108-1.916-0.325c-0.576-0.215-1.08-0.504-1.51-0.861c-0.848-0.686-1.471-1.544-1.877-2.578
				c-0.404-1.035-0.607-2.219-0.607-3.549c0-1.387,0.207-2.604,0.621-3.658c0.414-1.053,1.043-1.919,1.889-2.604
				c0.432-0.359,0.932-0.639,1.498-0.836s1.209-0.297,1.93-0.297c0.9,0,1.66,0.13,2.281,0.391c0.621,0.262,1.084,0.572,1.389,0.93
				v-6.421h3.375v19.483H257.242z M256.945,130.48c0-0.504-0.041-1.02-0.121-1.551s-0.238-1.018-0.473-1.457
				c-0.232-0.441-0.559-0.802-0.971-1.081c-0.414-0.278-0.955-0.419-1.619-0.419c-0.523,0-0.967,0.109-1.336,0.324
				c-0.369,0.217-0.68,0.478-0.932,0.783c-0.359,0.469-0.598,0.999-0.715,1.592c-0.117,0.595-0.176,1.197-0.176,1.809
				s0.059,1.219,0.176,1.822c0.117,0.603,0.355,1.139,0.715,1.605c0.252,0.307,0.563,0.566,0.932,0.783
				c0.369,0.216,0.813,0.322,1.336,0.322c0.664,0,1.205-0.138,1.619-0.418c0.412-0.278,0.738-0.639,0.971-1.08
				c0.234-0.439,0.393-0.931,0.473-1.471C256.904,131.505,256.945,130.984,256.945,130.48z"/>
			<path d="M264.313,121.546v-3.48h3.617v3.48H264.313z M264.42,137.523V123.49h3.428v14.033H264.42z"/>
			<path d="M284.23,130.507c0,1.188-0.145,2.182-0.434,2.981c-0.287,0.802-0.691,1.533-1.215,2.2
				c-0.484,0.594-1.154,1.105-2.01,1.537c-0.854,0.432-1.822,0.649-2.9,0.649c-1.08,0-2.047-0.218-2.9-0.649
				c-0.855-0.432-1.525-0.943-2.01-1.537c-0.523-0.667-0.928-1.398-1.215-2.2c-0.289-0.8-0.434-1.794-0.434-2.981
				s0.145-2.182,0.434-2.982c0.287-0.801,0.691-1.533,1.215-2.199c0.484-0.595,1.154-1.107,2.01-1.539
				c0.854-0.432,1.82-0.646,2.9-0.646c1.078,0,2.047,0.215,2.9,0.646c0.855,0.432,1.525,0.944,2.01,1.539
				c0.523,0.666,0.928,1.398,1.215,2.199C284.086,128.326,284.23,129.32,284.23,130.507z M280.803,130.507
				c0-0.665-0.063-1.309-0.189-1.931c-0.125-0.62-0.396-1.155-0.809-1.605c-0.234-0.251-0.531-0.462-0.893-0.634
				c-0.359-0.171-0.771-0.256-1.24-0.256s-0.881,0.085-1.242,0.256c-0.359,0.172-0.656,0.383-0.891,0.634
				c-0.414,0.45-0.684,0.985-0.809,1.605c-0.127,0.622-0.189,1.266-0.189,1.931s0.063,1.309,0.189,1.93
				c0.125,0.621,0.395,1.155,0.809,1.605c0.234,0.251,0.531,0.463,0.891,0.634c0.361,0.171,0.773,0.257,1.242,0.257
				s0.881-0.086,1.24-0.257c0.361-0.171,0.658-0.383,0.893-0.634c0.412-0.45,0.684-0.984,0.809-1.605
				C280.74,131.816,280.803,131.172,280.803,130.507z"/>
			<path d="M294.025,137.523h-3.59l-5.209-14.033h3.563l3.51,9.878l3.318-9.878h3.48L294.025,137.523z"/>
			<path d="M301.15,121.546v-3.48h3.617v3.48H301.15z M301.258,137.523V123.49h3.428v14.033H301.258z"/>
			<path d="M319.824,133.179c0,0.684-0.111,1.277-0.336,1.78c-0.227,0.505-0.518,0.937-0.877,1.295
				c-0.576,0.577-1.277,0.989-2.105,1.242c-0.828,0.251-1.729,0.379-2.699,0.379c-0.898,0-1.736-0.132-2.508-0.392
				c-0.775-0.262-1.451-0.67-2.025-1.229c-0.416-0.394-0.766-0.871-1.053-1.43c-0.289-0.557-0.432-1.169-0.432-1.835h3.156
				c0,0.307,0.072,0.611,0.217,0.918s0.324,0.549,0.539,0.729c0.271,0.215,0.572,0.373,0.906,0.472
				c0.332,0.099,0.74,0.148,1.227,0.148c0.287,0,0.598-0.022,0.932-0.067c0.332-0.045,0.643-0.131,0.932-0.256
				c0.287-0.127,0.525-0.307,0.713-0.539c0.189-0.234,0.285-0.541,0.285-0.918c0-0.414-0.127-0.746-0.379-0.998
				s-0.592-0.415-1.025-0.486c-0.629-0.091-1.277-0.167-1.943-0.229c-0.666-0.063-1.313-0.167-1.941-0.311
				c-0.486-0.108-0.924-0.279-1.311-0.513c-0.387-0.234-0.725-0.518-1.012-0.851s-0.508-0.702-0.66-1.106
				c-0.154-0.405-0.23-0.832-0.23-1.282c0-0.72,0.135-1.335,0.406-1.849c0.27-0.513,0.609-0.947,1.025-1.309
				c0.52-0.449,1.141-0.796,1.861-1.039c0.719-0.242,1.521-0.363,2.4-0.363c0.848,0,1.662,0.133,2.443,0.404
				c0.781,0.27,1.436,0.684,1.957,1.242c0.379,0.414,0.68,0.867,0.904,1.361c0.225,0.495,0.336,1.004,0.336,1.525h-3.211
				c0-0.271-0.055-0.514-0.16-0.729c-0.109-0.217-0.244-0.414-0.406-0.594c-0.197-0.197-0.463-0.355-0.797-0.473
				c-0.332-0.117-0.678-0.176-1.039-0.176c-0.252,0-0.494,0.011-0.729,0.027c-0.232,0.018-0.477,0.082-0.729,0.188
				c-0.307,0.127-0.561,0.315-0.768,0.567c-0.209,0.252-0.311,0.559-0.311,0.916c0,0.504,0.174,0.852,0.525,1.041
				c0.352,0.188,0.715,0.311,1.094,0.365c0.324,0.035,0.594,0.066,0.809,0.094c0.217,0.027,0.434,0.055,0.648,0.08
				c0.215,0.027,0.441,0.059,0.674,0.096c0.234,0.035,0.523,0.08,0.863,0.135c1.117,0.179,2.033,0.605,2.754,1.281
				C319.465,131.167,319.824,132.063,319.824,133.179z"/>
			<path d="M331.889,137.523l-0.244-1.834c-0.342,0.684-0.873,1.219-1.592,1.605c-0.721,0.387-1.529,0.581-2.43,0.581
				c-0.756,0-1.43-0.122-2.021-0.364c-0.596-0.244-1.105-0.586-1.527-1.026s-0.746-0.968-0.971-1.578
				c-0.225-0.613-0.338-1.296-0.338-2.052v-9.365h3.373v8.609c0,0.828,0.182,1.48,0.541,1.957s0.988,0.715,1.889,0.715
				c0.396,0,0.732-0.067,1.012-0.201c0.279-0.137,0.518-0.302,0.715-0.501c0.416-0.376,0.689-0.854,0.824-1.431
				c0.135-0.575,0.201-1.15,0.201-1.727v-7.422h3.373v14.033H331.889z"/>
			<path d="M351.129,137.362c-0.287,0.126-0.535,0.22-0.742,0.283c-0.205,0.063-0.518,0.095-0.93,0.095
				c-0.738,0-1.307-0.198-1.701-0.594c-0.395-0.396-0.619-0.855-0.674-1.377c-0.324,0.576-0.865,1.071-1.619,1.484
				c-0.756,0.414-1.639,0.622-2.646,0.622c-0.826,0-1.561-0.122-2.197-0.364c-0.641-0.244-1.172-0.568-1.594-0.973
				c-0.422-0.405-0.742-0.872-0.957-1.404c-0.215-0.529-0.324-1.083-0.324-1.658c0-0.666,0.121-1.26,0.365-1.781
				c0.242-0.522,0.578-0.973,1.012-1.35c0.432-0.378,0.934-0.67,1.51-0.878c0.576-0.205,1.197-0.337,1.863-0.39l4.129-0.298v-0.864
				c0-0.665-0.158-1.2-0.473-1.605c-0.314-0.404-0.949-0.607-1.902-0.607c-0.791,0-1.408,0.172-1.848,0.514
				c-0.441,0.342-0.68,0.837-0.717,1.483h-3.266c0.055-0.79,0.24-1.476,0.555-2.05c0.314-0.576,0.732-1.049,1.254-1.418
				c0.523-0.367,1.129-0.643,1.822-0.822c0.691-0.18,1.426-0.27,2.199-0.27c1.205,0,2.281,0.211,3.225,0.634
				c0.945,0.423,1.623,1.165,2.037,2.226c0.18,0.449,0.293,0.918,0.338,1.402c0.045,0.486,0.066,0.965,0.066,1.433v5.208
				c0,0.324,0.059,0.553,0.178,0.688c0.117,0.135,0.318,0.203,0.605,0.203c0.145,0,0.244-0.009,0.297-0.026
				c0.055-0.019,0.1-0.028,0.135-0.028V137.362z M346.623,131.291l-3.563,0.268c-0.523,0.037-0.99,0.209-1.404,0.514
				c-0.412,0.307-0.619,0.746-0.619,1.322c0,0.541,0.201,0.969,0.607,1.282c0.404,0.315,0.867,0.474,1.389,0.474
				c1.063,0,1.926-0.274,2.592-0.824c0.664-0.549,0.998-1.344,0.998-2.389V131.291z"/>
			<path d="M359.307,137.497c-0.342,0.073-0.588,0.122-0.742,0.148c-0.152,0.027-0.4,0.04-0.742,0.04
				c-1.15,0-2.076-0.295-2.779-0.891c-0.703-0.594-1.051-1.555-1.051-2.887v-15.896h3.398v15.327c0,0.416,0.08,0.744,0.244,0.986
				c0.16,0.244,0.529,0.365,1.105,0.365c0.145,0,0.252-0.006,0.324-0.015c0.07-0.009,0.152-0.013,0.242-0.013V137.497z"/>
			<path d="M373.123,133.179c0,0.684-0.111,1.277-0.336,1.78c-0.227,0.505-0.518,0.937-0.877,1.295
				c-0.578,0.577-1.279,0.989-2.107,1.242c-0.826,0.251-1.727,0.379-2.697,0.379c-0.9,0-1.736-0.132-2.51-0.392
				c-0.773-0.262-1.449-0.67-2.023-1.229c-0.416-0.394-0.766-0.871-1.053-1.43c-0.289-0.557-0.432-1.169-0.432-1.835h3.156
				c0,0.307,0.072,0.611,0.217,0.918s0.324,0.549,0.539,0.729c0.27,0.215,0.57,0.373,0.904,0.472
				c0.332,0.099,0.742,0.148,1.227,0.148c0.289,0,0.6-0.022,0.932-0.067c0.334-0.045,0.645-0.131,0.934-0.256
				c0.285-0.127,0.523-0.307,0.713-0.539c0.189-0.234,0.285-0.541,0.285-0.918c0-0.414-0.127-0.746-0.379-0.998
				s-0.594-0.415-1.025-0.486c-0.629-0.091-1.279-0.167-1.943-0.229c-0.666-0.063-1.313-0.167-1.943-0.311
				c-0.484-0.108-0.922-0.279-1.309-0.513c-0.387-0.234-0.725-0.518-1.012-0.851s-0.51-0.702-0.662-1.106
				c-0.152-0.405-0.229-0.832-0.229-1.282c0-0.72,0.135-1.335,0.404-1.849c0.271-0.513,0.611-0.947,1.027-1.309
				c0.52-0.449,1.141-0.796,1.861-1.039c0.719-0.242,1.52-0.363,2.4-0.363c0.846,0,1.662,0.133,2.443,0.404
				c0.781,0.27,1.434,0.684,1.957,1.242c0.377,0.414,0.678,0.867,0.904,1.361c0.225,0.495,0.336,1.004,0.336,1.525h-3.211
				c0-0.271-0.055-0.514-0.162-0.729c-0.109-0.217-0.242-0.414-0.404-0.594c-0.199-0.197-0.463-0.355-0.797-0.473
				s-0.68-0.176-1.039-0.176c-0.252,0-0.494,0.011-0.729,0.027c-0.232,0.018-0.477,0.082-0.729,0.188
				c-0.307,0.127-0.563,0.315-0.768,0.567c-0.209,0.252-0.313,0.559-0.313,0.916c0,0.504,0.176,0.852,0.527,1.041
				c0.352,0.188,0.715,0.311,1.094,0.365c0.322,0.035,0.592,0.066,0.809,0.094s0.432,0.055,0.648,0.08
				c0.215,0.027,0.439,0.059,0.674,0.096c0.234,0.035,0.521,0.08,0.863,0.135c1.115,0.179,2.033,0.605,2.752,1.281
				C372.764,131.167,373.123,132.063,373.123,133.179z"/>
			<path d="M377.441,137.55c0,0.774-0.162,1.432-0.486,1.971c-0.324,0.54-0.846,0.98-1.564,1.321l-0.459-0.754
				c0.576-0.306,0.971-0.646,1.188-1.013c0.217-0.369,0.324-0.887,0.324-1.553h-1.486v-2.428h2.484V137.55z"/>
			<path d="M396.385,132.342c0,0.847-0.139,1.556-0.418,2.132s-0.643,1.088-1.092,1.537c-0.648,0.631-1.436,1.1-2.361,1.404
				c-0.928,0.306-1.949,0.46-3.063,0.46c-1.1,0-2.107-0.173-3.023-0.514c-0.918-0.343-1.691-0.855-2.322-1.538
				c-0.467-0.504-0.854-1.08-1.16-1.728c-0.305-0.647-0.494-1.34-0.566-2.077h1.459c0.07,0.574,0.232,1.115,0.484,1.619
				s0.557,0.943,0.918,1.321c0.521,0.522,1.15,0.913,1.889,1.174s1.512,0.392,2.322,0.392c0.826,0,1.627-0.112,2.4-0.338
				c0.773-0.225,1.422-0.588,1.943-1.092c0.342-0.324,0.617-0.711,0.824-1.16c0.205-0.45,0.309-0.98,0.309-1.593
				c0-0.468-0.084-0.908-0.256-1.321c-0.172-0.416-0.418-0.787-0.742-1.121c-0.322-0.334-0.715-0.611-1.174-0.837
				c-0.459-0.225-0.977-0.374-1.553-0.446l-3.561-0.459c-0.666-0.088-1.287-0.252-1.861-0.484c-0.578-0.234-1.078-0.553-1.5-0.958
				s-0.75-0.886-0.984-1.444c-0.232-0.557-0.352-1.205-0.352-1.943c0-0.81,0.158-1.502,0.473-2.077s0.715-1.089,1.201-1.538
				c0.594-0.54,1.305-0.953,2.133-1.242c0.826-0.287,1.689-0.431,2.59-0.431c1.025,0,2.01,0.193,2.955,0.579
				c0.945,0.387,1.688,0.896,2.227,1.525c0.414,0.467,0.748,0.967,1,1.497s0.404,1.138,0.457,1.823h-1.43
				c-0.072-0.486-0.189-0.923-0.352-1.311c-0.16-0.387-0.395-0.76-0.701-1.12c-0.414-0.521-0.988-0.927-1.729-1.214
				c-0.736-0.287-1.547-0.432-2.428-0.432c-0.684,0-1.344,0.09-1.982,0.27s-1.193,0.477-1.66,0.891
				c-0.361,0.324-0.666,0.711-0.918,1.161s-0.379,0.989-0.379,1.618c0,0.56,0.096,1.039,0.285,1.445
				c0.188,0.404,0.436,0.737,0.742,0.998c0.305,0.262,0.664,0.463,1.08,0.607c0.412,0.144,0.834,0.242,1.268,0.295l3.617,0.461
				c0.736,0.09,1.412,0.287,2.023,0.594c0.611,0.306,1.137,0.688,1.578,1.146c0.439,0.459,0.781,0.98,1.025,1.564
				C396.264,131.023,396.385,131.659,396.385,132.342z"/>
			<path d="M412.443,137.523l-1.943-5.045h-9.258l-1.887,5.045h-1.459l7.26-19.134h1.377l7.34,19.134H412.443z M405.832,120.332
				l-4.076,10.823h8.232L405.832,120.332z"/>
		</g>
	</g>
	<g>
		<g>
			<path d="M332.238,176.237c3.779-2.008,3.496-5.509,3.496-6.333c0-4.557-4.762-8.607-10.277-8.607
				c-3.186,0-6.781,1.223-8.555,3.855c-1.225,1.779-1.824,3.926-1.941,4.967h7.369c0.156-0.66,0.652-2.629,3.275-2.664
				c2.117,0,3.127,1.389,3.127,3.201c0,2.706-2.779,2.897-3.816,2.897h-1.984v5.369h1.984c1.037,0,3.816,0.191,3.816,2.896
				c0,1.818-1.01,3.201-3.127,3.201c-2.623-0.035-3.119-2.008-3.275-2.66h-7.369c0.117,1.041,0.311,3.203,1.584,5.057
				c1.85,2.744,5.59,4.02,8.902,4.02c5.746,0,10.57-3.977,10.57-8.965C336.018,181.616,336.018,178.247,332.238,176.237
				L332.238,176.237z"/>
			<polygon fill="#E2231A" points="300.324,166.412 317.656,176.237 314.904,177.834 300.324,169.568 300.324,166.412 
				300.324,166.412 			"/>
			<polygon fill="#E2231A" points="300.324,171.486 313.184,178.774 310.428,180.372 300.324,174.637 300.324,171.486 
				300.324,171.486 			"/>
			<polygon fill="#E2231A" points="300.324,176.557 308.711,181.329 305.957,182.928 300.324,179.709 300.324,176.557 
				300.324,176.557 			"/>
			<polygon fill="#E2231A" points="300.324,181.625 304.238,183.866 300.324,186.1 300.324,181.625 300.324,181.625 			"/>
		</g>
		<g>
			<g>
				<path fill="#FCBF00" d="M370.012,175.647h-19.258c-0.453,0-0.816,0.326-0.816,0.73c0,0.4,0.363,0.729,0.816,0.729h19.258
					c0.449,0,0.816-0.328,0.816-0.729C370.828,175.973,370.461,175.647,370.012,175.647z"/>
				<path fill="#FCBF00" d="M413.152,175.647h-19.256c-0.451,0-0.818,0.326-0.818,0.73c0,0.4,0.367,0.729,0.818,0.729h19.256
					c0.451,0,0.818-0.328,0.818-0.729C413.971,175.973,413.604,175.647,413.152,175.647z"/>
			</g>
			<path fill="#E2231A" d="M367.367,179.836l16.232-7.354v4.508l12.385-4.307c0,0,0.189-0.033,0.252,0.098
				c0.059,0.129-0.043,0.256-0.043,0.256l-15.816,7.145v-4.33l-12.832,4.545c0,0-0.184,0.043-0.285-0.203
				C367.18,179.999,367.367,179.836,367.367,179.836L367.367,179.836z"/>
			<path d="M355.648,163.824c-0.584-0.201-1.227-0.313-1.85-0.313c-2.223,0-3.961,1.77-3.961,3.98c0,2.162,1.691,3.842,3.852,3.842
				c0.49,0,1.516-0.092,1.959-0.299l0.078-2.836c-0.439,0.43-0.943,0.703-1.572,0.703c-0.828,0-1.543-0.643-1.543-1.479
				c0-0.824,0.674-1.479,1.498-1.479c0.621,0,1.178,0.352,1.617,0.766L355.648,163.824L355.648,163.824z"/>
			<path fill-rule="evenodd" clip-rule="evenodd" d="M359.027,170.267h2.08l0.252,0.945h2.916l-2.705-7.58h-3.045l-2.635,7.58h2.916
				L359.027,170.267L359.027,170.267z M359.521,168.47l0.504-2.314h0.1c0.047,0.322,0.1,0.654,0.18,0.975l0.322,1.34H359.521
				L359.521,168.47z"/>
			<polygon points="363.398,166.097 364.916,166.025 364.916,171.212 367.67,171.212 367.67,166.025 369.189,166.097 
				369.189,163.632 363.398,163.632 363.398,166.097 			"/>
			<path fill-rule="evenodd" clip-rule="evenodd" d="M371.432,170.267h2.08l0.25,0.945h2.92l-2.705-7.58h-3.049l-2.635,7.58h2.918
				L371.432,170.267L371.432,170.267z M371.928,168.47l0.5-2.314h0.1c0.053,0.322,0.102,0.654,0.18,0.975l0.322,1.34H371.928
				L371.928,168.47z"/>
			<polygon points="377.127,171.212 382.195,171.212 382.195,168.781 379.883,168.781 379.883,163.632 377.127,163.632 
				377.127,171.212 			"/>
			<path d="M387.043,163.632v4.223c0,0.594-0.018,1.117-0.752,1.117s-0.754-0.523-0.754-1.117v-4.223h-2.756v4.484
				c0,2.211,1.389,3.217,3.51,3.217c2.123,0,3.508-1.006,3.508-3.217v-4.484H387.043L387.043,163.632z"/>
			<path fill-rule="evenodd" clip-rule="evenodd" d="M390.85,171.212h2.635v-2.461c0-0.506-0.08-0.998-0.17-1.52h0.078l2.422,3.98
				h2.635v-7.58h-2.635v2.273c0,0.643,0.121,1.297,0.232,1.93h-0.078l-2.475-4.203h-2.645V171.212L390.85,171.212z"/>
			<path d="M398.828,163.632l2.643,4.314v3.266h2.695v-3.266l2.596-4.314h-3.1l-0.543,1.268c-0.1,0.229-0.172,0.471-0.25,0.715
				h-0.082l-0.842-1.982H398.828L398.828,163.632z"/>
			<path fill-rule="evenodd" clip-rule="evenodd" d="M408.623,170.267h2.084l0.25,0.945h2.918l-2.707-7.58h-3.045l-2.633,7.58h2.914
				L408.623,170.267L408.623,170.267z M409.115,168.47l0.506-2.314h0.1c0.049,0.322,0.1,0.654,0.182,0.975l0.32,1.34H409.115
				L409.115,168.47z"/>
			<path fill-rule="evenodd" clip-rule="evenodd" d="M363.625,189.098h2.693v-2.436h0.051l1.209,2.436h3.176l-1.648-2.465
				c-0.152-0.221-0.322-0.342-0.463-0.453v-0.059c1.025-0.344,1.469-0.826,1.469-1.975c0-1.908-1.449-2.635-3.156-2.635h-3.33
				V189.098L363.625,189.098z M366.318,183.584h0.211c0.473,0,0.887,0.07,0.887,0.654c0,0.563-0.453,0.633-0.904,0.633h-0.193
				V183.584L366.318,183.584z"/>
			<path fill-rule="evenodd" clip-rule="evenodd" d="M373.869,179.731l1.438,1.33l0.939-0.492l-0.918-1.262L373.869,179.731
				L373.869,179.731z M374.166,188.151h2.08l0.254,0.947h2.92l-2.711-7.586h-3.047l-2.637,7.586h2.918L374.166,188.151
				L374.166,188.151z M374.66,186.352l0.504-2.316h0.1c0.051,0.324,0.1,0.656,0.18,0.98l0.322,1.336H374.66L374.66,186.352z"/>
			<path fill-rule="evenodd" clip-rule="evenodd" d="M379.779,189.098h3.492c2.223,0,3.811-1.428,3.811-3.682
				c0-2.789-1.949-3.904-4.492-3.904h-2.811V189.098L379.779,189.098z M382.539,183.887h0.17c1.008,0,1.621,0.453,1.621,1.52
				c0,0.996-0.703,1.418-1.621,1.418h-0.17V183.887L382.539,183.887z"/>
			<polygon points="387.973,189.098 390.727,189.098 390.727,181.512 387.973,181.512 387.973,189.098 			"/>
			<path fill-rule="evenodd" clip-rule="evenodd" d="M395.693,181.391c-2.301,0-4.195,1.549-4.195,3.934
				c0,2.436,1.881,3.893,4.195,3.893s4.195-1.457,4.195-3.893C399.889,182.94,397.998,181.391,395.693,181.391L395.693,181.391z
				 M395.693,183.887c0.875,0,1.422,0.672,1.422,1.477c0,0.865-0.584,1.461-1.422,1.461c-0.832,0-1.418-0.596-1.418-1.461
				C394.275,184.559,394.82,183.887,395.693,183.887L395.693,183.887z"/>
		</g>
	</g>
	<line fill="none" stroke="#000000" stroke-miterlimit="10" x1="77.977" y1="150.423" x2="413.598" y2="150.423"/>
</g>
</svg>
