<svg width="863" height="363" viewBox="0 0 863 363" fill="none" xmlns="http://www.w3.org/2000/svg">
<path d="M208.94 245C208.939 248.419 209.594 251.807 210.87 254.98C211.36 256.21 211.945 257.4 212.62 258.54C213.491 260.026 214.503 261.426 215.64 262.72C218.152 265.583 221.247 267.876 224.716 269.447C228.186 271.018 231.951 271.831 235.76 271.83H627.07C634.183 271.83 641.005 269.004 646.035 263.975C651.064 258.945 653.89 252.123 653.89 245.01C653.89 237.897 651.064 231.075 646.035 226.045C641.005 221.016 634.183 218.19 627.07 218.19H235.76C228.651 218.197 221.835 221.023 216.807 226.049C211.779 231.076 208.95 237.891 208.94 245V245Z" fill="#E6E6E6"/>
<path d="M0 260.32C8.68726 270.613 18.0835 280.287 28.12 289.27H834.7C844.737 280.287 854.133 270.613 862.82 260.32H0Z" fill="#3F3D56"/>
<path d="M396.69 163.51V266.07H468.54V163.51C468.541 162.772 468.306 162.054 467.868 161.46C467.431 160.866 466.815 160.428 466.11 160.21C465.778 160.1 465.43 160.046 465.08 160.05H400.16C399.705 160.049 399.254 160.138 398.833 160.311C398.413 160.485 398.03 160.74 397.708 161.061C397.386 161.382 397.13 161.764 396.955 162.184C396.78 162.604 396.69 163.055 396.69 163.51V163.51ZM424.73 198.75C424.749 196.728 425.565 194.796 427.002 193.373C428.438 191.95 430.378 191.152 432.4 191.152C434.422 191.152 436.362 191.95 437.798 193.373C439.234 194.796 440.051 196.728 440.07 198.75V210.65C440.06 212.677 439.247 214.618 437.81 216.048C436.372 217.478 434.427 218.281 432.4 218.281C430.373 218.281 428.428 217.478 426.99 216.048C425.553 214.618 424.74 212.677 424.73 210.65V198.75Z" fill="#2F2E41"/>
<path d="M396.47 262.79V272.68C396.472 273.192 396.675 273.683 397.037 274.047C397.398 274.41 397.888 274.616 398.4 274.62H466.83C467.343 274.617 467.834 274.412 468.196 274.048C468.557 273.685 468.76 273.193 468.76 272.68V262.79H396.47Z" fill="#3F3D56"/>
<path d="M283.66 8.98999V196.25C283.662 198.636 284.611 200.924 286.298 202.612C287.985 204.299 290.274 205.248 292.66 205.25H570.16C572.546 205.248 574.834 204.299 576.522 202.612C578.209 200.924 579.158 198.636 579.16 196.25V8.98999C579.154 6.60571 578.204 4.32084 576.517 2.63583C574.83 0.950824 572.544 0.00302801 570.16 0H292.66C290.276 0.00303855 287.99 0.950857 286.303 2.63586C284.616 4.32087 283.666 6.60571 283.66 8.98999V8.98999Z" fill="#3F3D56"/>
<path d="M290.17 11.32V193.94C290.172 195.215 290.68 196.437 291.581 197.339C292.483 198.24 293.705 198.748 294.98 198.75H567.85C569.125 198.748 570.347 198.24 571.249 197.339C572.15 196.437 572.658 195.215 572.66 193.94V11.32C572.66 10.0434 572.153 8.81902 571.252 7.91541C570.35 7.01179 569.126 6.50277 567.85 6.5H294.98C293.703 6.50278 292.48 7.01183 291.578 7.91544C290.677 8.81905 290.17 10.0434 290.17 11.32Z" fill="white"/>
<path d="M345.81 276.95C346.088 277.298 346.441 277.579 346.843 277.771C347.244 277.963 347.685 278.062 348.13 278.06H510.47C510.914 278.059 511.352 277.96 511.753 277.769C512.154 277.577 512.507 277.299 512.786 276.954C513.066 276.61 513.265 276.207 513.37 275.775C513.474 275.344 513.481 274.894 513.39 274.46L510.87 262.49C510.766 262.002 510.541 261.548 510.216 261.169C509.891 260.79 509.477 260.498 509.01 260.32C508.672 260.187 508.313 260.12 507.95 260.12H350.64C350.277 260.12 349.918 260.187 349.58 260.32C349.114 260.498 348.699 260.789 348.374 261.168C348.049 261.547 347.825 262.002 347.72 262.49L345.2 274.46C345.11 274.894 345.119 275.343 345.224 275.774C345.33 276.204 345.53 276.606 345.81 276.95Z" fill="#2F2E41"/>
<path d="M502.285 265.276H506.309C506.578 265.276 506.797 265.057 506.797 264.787V262.764C506.797 262.494 506.578 262.276 506.309 262.276H502.285C502.015 262.276 501.797 262.494 501.797 262.764V264.787C501.797 265.057 502.015 265.276 502.285 265.276Z" fill="#3F3D56"/>
<path d="M492.285 265.276H496.309C496.578 265.276 496.797 265.057 496.797 264.787V262.764C496.797 262.494 496.578 262.276 496.309 262.276H492.285C492.015 262.276 491.797 262.494 491.797 262.764V264.787C491.797 265.057 492.015 265.276 492.285 265.276Z" fill="#3F3D56"/>
<path d="M482.285 265.276H486.309C486.578 265.276 486.797 265.057 486.797 264.787V262.764C486.797 262.494 486.578 262.276 486.309 262.276H482.285C482.015 262.276 481.797 262.494 481.797 262.764V264.787C481.797 265.057 482.015 265.276 482.285 265.276Z" fill="#3F3D56"/>
<path d="M472.285 265.276H476.309C476.578 265.276 476.797 265.057 476.797 264.787V262.764C476.797 262.494 476.578 262.276 476.309 262.276H472.285C472.015 262.276 471.797 262.494 471.797 262.764V264.787C471.797 265.057 472.015 265.276 472.285 265.276Z" fill="#3F3D56"/>
<path d="M462.285 265.276H466.309C466.578 265.276 466.797 265.057 466.797 264.787V262.764C466.797 262.494 466.578 262.276 466.309 262.276H462.285C462.015 262.276 461.797 262.494 461.797 262.764V264.787C461.797 265.057 462.015 265.276 462.285 265.276Z" fill="#3F3D56"/>
<path d="M452.285 265.276H456.309C456.578 265.276 456.797 265.057 456.797 264.787V262.764C456.797 262.494 456.578 262.276 456.309 262.276H452.285C452.015 262.276 451.797 262.494 451.797 262.764V264.787C451.797 265.057 452.015 265.276 452.285 265.276Z" fill="#3F3D56"/>
<path d="M442.285 265.276H446.309C446.578 265.276 446.797 265.057 446.797 264.787V262.764C446.797 262.494 446.578 262.276 446.309 262.276H442.285C442.015 262.276 441.797 262.494 441.797 262.764V264.787C441.797 265.057 442.015 265.276 442.285 265.276Z" fill="#3F3D56"/>
<path d="M432.285 265.276H436.309C436.578 265.276 436.797 265.057 436.797 264.787V262.764C436.797 262.494 436.578 262.276 436.309 262.276H432.285C432.015 262.276 431.797 262.494 431.797 262.764V264.787C431.797 265.057 432.015 265.276 432.285 265.276Z" fill="#3F3D56"/>
<path d="M422.285 265.276H426.309C426.578 265.276 426.797 265.057 426.797 264.787V262.764C426.797 262.494 426.578 262.276 426.309 262.276H422.285C422.015 262.276 421.797 262.494 421.797 262.764V264.787C421.797 265.057 422.015 265.276 422.285 265.276Z" fill="#3F3D56"/>
<path d="M412.285 265.276H416.309C416.578 265.276 416.797 265.057 416.797 264.787V262.764C416.797 262.494 416.578 262.276 416.309 262.276H412.285C412.015 262.276 411.797 262.494 411.797 262.764V264.787C411.797 265.057 412.015 265.276 412.285 265.276Z" fill="#3F3D56"/>
<path d="M402.285 265.276H406.309C406.578 265.276 406.797 265.057 406.797 264.787V262.764C406.797 262.494 406.578 262.276 406.309 262.276H402.285C402.015 262.276 401.797 262.494 401.797 262.764V264.787C401.797 265.057 402.015 265.276 402.285 265.276Z" fill="#3F3D56"/>
<path d="M392.285 265.276H396.309C396.578 265.276 396.797 265.057 396.797 264.787V262.764C396.797 262.494 396.578 262.276 396.309 262.276H392.285C392.015 262.276 391.797 262.494 391.797 262.764V264.787C391.797 265.057 392.015 265.276 392.285 265.276Z" fill="#3F3D56"/>
<path d="M382.285 265.276H386.309C386.578 265.276 386.797 265.057 386.797 264.787V262.764C386.797 262.494 386.578 262.276 386.309 262.276H382.285C382.015 262.276 381.797 262.494 381.797 262.764V264.787C381.797 265.057 382.015 265.276 382.285 265.276Z" fill="#3F3D56"/>
<path d="M372.285 265.276H376.309C376.578 265.276 376.797 265.057 376.797 264.787V262.764C376.797 262.494 376.578 262.276 376.309 262.276H372.285C372.015 262.276 371.797 262.494 371.797 262.764V264.787C371.797 265.057 372.015 265.276 372.285 265.276Z" fill="#3F3D56"/>
<path d="M362.285 265.276H366.309C366.578 265.276 366.797 265.057 366.797 264.787V262.764C366.797 262.494 366.578 262.276 366.309 262.276H362.285C362.015 262.276 361.797 262.494 361.797 262.764V264.787C361.797 265.057 362.015 265.276 362.285 265.276Z" fill="#3F3D56"/>
<path d="M352.285 265.276H356.309C356.578 265.276 356.797 265.057 356.797 264.787V262.764C356.797 262.494 356.578 262.276 356.309 262.276H352.285C352.015 262.276 351.797 262.494 351.797 262.764V264.787C351.797 265.057 352.015 265.276 352.285 265.276Z" fill="#3F3D56"/>
<path d="M502.403 270.276H506.427C506.697 270.276 506.915 270.057 506.915 269.787V267.764C506.915 267.494 506.697 267.276 506.427 267.276H502.403C502.134 267.276 501.915 267.494 501.915 267.764V269.787C501.915 270.057 502.134 270.276 502.403 270.276Z" fill="#3F3D56"/>
<path d="M492.403 270.276H496.427C496.697 270.276 496.915 270.057 496.915 269.787V267.764C496.915 267.494 496.697 267.276 496.427 267.276H492.403C492.134 267.276 491.915 267.494 491.915 267.764V269.787C491.915 270.057 492.134 270.276 492.403 270.276Z" fill="#3F3D56"/>
<path d="M482.403 270.276H486.427C486.697 270.276 486.915 270.057 486.915 269.787V267.764C486.915 267.494 486.697 267.276 486.427 267.276H482.403C482.134 267.276 481.915 267.494 481.915 267.764V269.787C481.915 270.057 482.134 270.276 482.403 270.276Z" fill="#3F3D56"/>
<path d="M472.403 270.276H476.427C476.697 270.276 476.915 270.057 476.915 269.787V267.764C476.915 267.494 476.697 267.276 476.427 267.276H472.403C472.134 267.276 471.915 267.494 471.915 267.764V269.787C471.915 270.057 472.134 270.276 472.403 270.276Z" fill="#3F3D56"/>
<path d="M462.403 270.276H466.427C466.697 270.276 466.915 270.057 466.915 269.787V267.764C466.915 267.494 466.697 267.276 466.427 267.276H462.403C462.134 267.276 461.915 267.494 461.915 267.764V269.787C461.915 270.057 462.134 270.276 462.403 270.276Z" fill="#3F3D56"/>
<path d="M452.403 270.276H456.427C456.697 270.276 456.915 270.057 456.915 269.787V267.764C456.915 267.494 456.697 267.276 456.427 267.276H452.403C452.134 267.276 451.915 267.494 451.915 267.764V269.787C451.915 270.057 452.134 270.276 452.403 270.276Z" fill="#3F3D56"/>
<path d="M442.403 270.276H446.427C446.697 270.276 446.915 270.057 446.915 269.787V267.764C446.915 267.494 446.697 267.276 446.427 267.276H442.403C442.134 267.276 441.915 267.494 441.915 267.764V269.787C441.915 270.057 442.134 270.276 442.403 270.276Z" fill="#3F3D56"/>
<path d="M432.403 270.276H436.427C436.697 270.276 436.915 270.057 436.915 269.787V267.764C436.915 267.494 436.697 267.276 436.427 267.276H432.403C432.134 267.276 431.915 267.494 431.915 267.764V269.787C431.915 270.057 432.134 270.276 432.403 270.276Z" fill="#3F3D56"/>
<path d="M422.403 270.276H426.427C426.697 270.276 426.915 270.057 426.915 269.787V267.764C426.915 267.494 426.697 267.276 426.427 267.276H422.403C422.134 267.276 421.915 267.494 421.915 267.764V269.787C421.915 270.057 422.134 270.276 422.403 270.276Z" fill="#3F3D56"/>
<path d="M412.403 270.276H416.427C416.697 270.276 416.915 270.057 416.915 269.787V267.764C416.915 267.494 416.697 267.276 416.427 267.276H412.403C412.134 267.276 411.915 267.494 411.915 267.764V269.787C411.915 270.057 412.134 270.276 412.403 270.276Z" fill="#3F3D56"/>
<path d="M402.403 270.276H406.427C406.697 270.276 406.915 270.057 406.915 269.787V267.764C406.915 267.494 406.697 267.276 406.427 267.276H402.403C402.134 267.276 401.915 267.494 401.915 267.764V269.787C401.915 270.057 402.134 270.276 402.403 270.276Z" fill="#3F3D56"/>
<path d="M392.403 270.276H396.427C396.697 270.276 396.915 270.057 396.915 269.787V267.764C396.915 267.494 396.697 267.276 396.427 267.276H392.403C392.134 267.276 391.915 267.494 391.915 267.764V269.787C391.915 270.057 392.134 270.276 392.403 270.276Z" fill="#3F3D56"/>
<path d="M382.403 270.276H386.427C386.697 270.276 386.915 270.057 386.915 269.787V267.764C386.915 267.494 386.697 267.276 386.427 267.276H382.403C382.134 267.276 381.915 267.494 381.915 267.764V269.787C381.915 270.057 382.134 270.276 382.403 270.276Z" fill="#3F3D56"/>
<path d="M372.403 270.276H376.427C376.697 270.276 376.915 270.057 376.915 269.787V267.764C376.915 267.494 376.697 267.276 376.427 267.276H372.403C372.134 267.276 371.915 267.494 371.915 267.764V269.787C371.915 270.057 372.134 270.276 372.403 270.276Z" fill="#3F3D56"/>
<path d="M362.403 270.276H366.427C366.697 270.276 366.915 270.057 366.915 269.787V267.764C366.915 267.494 366.697 267.276 366.427 267.276H362.403C362.134 267.276 361.915 267.494 361.915 267.764V269.787C361.915 270.057 362.134 270.276 362.403 270.276Z" fill="#3F3D56"/>
<path d="M352.403 270.276H356.427C356.697 270.276 356.915 270.057 356.915 269.787V267.764C356.915 267.494 356.697 267.276 356.427 267.276H352.403C352.134 267.276 351.915 267.494 351.915 267.764V269.787C351.915 270.057 352.134 270.276 352.403 270.276Z" fill="#3F3D56"/>
<path d="M419.403 276.276H458.427C458.697 276.276 458.915 276.057 458.915 275.787V273.764C458.915 273.494 458.697 273.276 458.427 273.276H419.403C419.134 273.276 418.915 273.494 418.915 273.764V275.787C418.915 276.057 419.134 276.276 419.403 276.276Z" fill="#3F3D56"/>
<path d="M308.692 31.6567H564.015C564.281 31.6508 564.533 31.5413 564.719 31.3515C564.905 31.1618 565.009 30.9068 565.009 30.6413C565.009 30.3758 564.905 30.1209 564.719 29.9311C564.533 29.7413 564.281 29.6318 564.015 29.626H308.692C308.427 29.6318 308.174 29.7413 307.988 29.9311C307.803 30.1209 307.699 30.3758 307.699 30.6413C307.699 30.9068 307.803 31.1618 307.988 31.3515C308.174 31.5413 308.427 31.6508 308.692 31.6567V31.6567Z" fill="#3F3D56"/>
<path d="M546.635 24.4417C549.921 24.4417 552.585 21.7182 552.585 18.3587C552.585 14.9991 549.921 12.2756 546.635 12.2756C543.349 12.2756 540.685 14.9991 540.685 18.3587C540.685 21.7182 543.349 24.4417 546.635 24.4417Z" fill="#42FFBD"/>
<path d="M526.079 24.4417C529.365 24.4417 532.03 21.7182 532.03 18.3587C532.03 14.9991 529.365 12.2756 526.079 12.2756C522.793 12.2756 520.129 14.9991 520.129 18.3587C520.129 21.7182 522.793 24.4417 526.079 24.4417Z" fill="#FFC75D"/>
<path d="M505.523 24.4417C508.809 24.4417 511.473 21.7182 511.473 18.3587C511.473 14.9991 508.809 12.2756 505.523 12.2756C502.237 12.2756 499.573 14.9991 499.573 18.3587C499.573 21.7182 502.237 24.4417 505.523 24.4417Z" fill="#F25A1A"/>
<path d="M319.98 14.89C319.979 15.0339 320.007 15.1764 320.061 15.3095C320.116 15.4426 320.196 15.5637 320.297 15.6659C320.398 15.768 320.519 15.8492 320.651 15.9048C320.784 15.9605 320.926 15.9894 321.07 15.9901H335.67C335.959 15.9833 336.233 15.8639 336.435 15.6574C336.637 15.4509 336.75 15.1737 336.75 14.885C336.75 14.5964 336.637 14.3191 336.435 14.1126C336.233 13.9061 335.959 13.7868 335.67 13.78H321.07C320.779 13.7836 320.5 13.9023 320.296 14.1103C320.092 14.3182 319.978 14.5986 319.98 14.89V14.89Z" fill="#3F3D56"/>
<path d="M319.98 19.0399C319.979 19.1837 320.007 19.3263 320.061 19.4594C320.116 19.5925 320.196 19.7136 320.297 19.8157C320.398 19.9179 320.519 19.9991 320.651 20.0547C320.784 20.1103 320.926 20.1393 321.07 20.1399H335.67C335.959 20.1335 336.234 20.0143 336.436 19.8078C336.638 19.6012 336.751 19.3238 336.751 19.0349C336.751 18.746 336.638 18.4686 336.436 18.2621C336.234 18.0555 335.959 17.9363 335.67 17.9299H321.07C320.779 17.9335 320.5 18.0522 320.296 18.2601C320.092 18.4681 319.978 18.7484 319.98 19.0399V19.0399Z" fill="#3F3D56"/>
<path d="M319.98 23.1801C319.978 23.4716 320.092 23.7519 320.296 23.9599C320.5 24.1678 320.779 24.2865 321.07 24.2901H335.67C335.959 24.2833 336.233 24.164 336.435 23.9575C336.637 23.751 336.75 23.4738 336.75 23.1851C336.75 22.8964 336.637 22.6192 336.435 22.4127C336.233 22.2062 335.959 22.0868 335.67 22.0801H321.07C320.926 22.0807 320.784 22.1097 320.651 22.1653C320.519 22.2209 320.398 22.3021 320.297 22.4043C320.196 22.5064 320.116 22.6275 320.061 22.7606C320.007 22.8937 319.979 23.0363 319.98 23.1801V23.1801Z" fill="#3F3D56"/>
<path d="M349.912 332.662C349.692 332.772 349.472 332.882 349.252 332.982C347.862 333.672 346.462 334.352 345.052 335.022C340.832 337.032 336.559 338.942 332.232 340.752C320.848 345.514 309.166 349.532 297.262 352.782C295.262 340.312 293.322 310.902 291.462 289.272C291.112 285.202 290.762 281.412 290.412 278.062C290.08 273.664 289.448 269.294 288.522 264.982C288.431 264.644 288.301 264.319 288.132 264.012C288.322 265.742 288.522 270.902 288.712 278.062C288.812 281.412 288.902 285.202 289.002 289.272C289.472 310.092 289.962 338.422 290.452 354.552C289.062 354.892 287.662 355.232 286.262 355.552C285.382 355.762 284.492 355.962 283.602 356.152C282.522 356.392 281.442 356.632 280.362 356.852C279.232 357.092 278.102 357.322 276.972 357.542C258.506 361.17 239.731 362.991 220.912 362.982C219.662 362.982 218.422 362.972 217.172 362.962C216.792 362.962 216.412 362.952 216.022 362.942C214.922 362.922 213.782 362.902 212.622 362.872C190.383 362.257 168.29 359.073 146.782 353.382L147.652 289.272L147.802 278.062L147.862 273.812C147.367 275.179 147.07 276.611 146.982 278.062C146.632 280.792 146.272 284.662 145.912 289.272C144.542 307.032 143.132 335.682 141.672 351.982C124.382 347.062 111.742 342.572 95.9421 334.672C95.332 334.372 94.7121 334.062 94.1021 333.752C94.2121 332.982 94.3321 332.212 94.4421 331.422C96.2321 318.982 94.1221 302.792 96.1021 289.272C97.6121 278.842 99.1721 268.822 100.742 260.322C102.642 250.092 104.572 242.052 106.482 238.142C108.682 233.632 110.882 229.192 113.012 224.942C113.932 223.112 114.835 221.315 115.722 219.552C116.202 218.602 116.682 217.662 117.152 216.742C119.292 212.552 121.312 208.682 123.162 205.252C124.462 202.842 125.662 200.662 126.762 198.752C128.052 196.502 129.192 194.642 130.132 193.232C137.075 182.708 147.406 174.871 159.412 171.022L159.712 170.942L160.002 171.062L160.332 171.212L179.392 164.242L187.902 143.752L231.612 141.062L238.672 146.432L242.282 149.182L246.132 152.112L253.212 157.502L255.222 158.122L258.212 159.042L278.662 165.322L278.872 165.232L279.172 165.312C290.098 168.809 299.661 175.625 306.532 184.812C307.212 185.692 307.842 186.602 308.452 187.522C310.112 189.982 312.352 193.872 314.992 198.752C316.082 200.762 317.232 202.942 318.442 205.252C319.172 206.642 325.472 226.302 331.602 246.382C337.332 265.182 342.912 284.352 343.642 289.272C343.772 290.182 343.912 291.102 344.042 292.012C344.872 297.702 345.692 303.432 346.482 309.022C347.652 317.312 348.792 325.312 349.882 332.462C349.892 332.532 349.902 332.592 349.912 332.662Z" fill="#3F3D56"/>
<path opacity="0.2" d="M303.59 260.276L295.093 227.484L287.59 255.78L303.59 260.276Z" fill="black"/>
<path d="M15.8293 259.896C16.2699 261.178 17.1056 262.289 18.2165 263.067C19.3274 263.845 20.6563 264.251 22.0124 264.227L48.5042 263.545C49.8703 263.518 51.191 263.05 52.269 262.211C53.3471 261.371 54.1245 260.206 54.4851 258.888L58.234 218.801C59.564 219.403 61.012 219.701 62.4719 219.671C65.0334 219.607 67.4645 218.528 69.2303 216.671C70.9961 214.814 71.952 212.332 71.8877 209.771C71.8234 207.209 70.7442 204.778 68.8874 203.012C67.0307 201.246 64.5485 200.291 61.987 200.355C61.4035 200.353 60.8214 200.414 60.2508 200.535C59.6302 199.864 58.8759 199.33 58.0365 198.968C57.197 198.606 56.291 198.423 55.3768 198.432L14.6262 199.485C14.2882 199.497 13.9519 199.539 13.621 199.61C12.7274 199.776 11.8798 200.132 11.1353 200.654C10.3908 201.175 9.76667 201.851 9.30494 202.634C8.84322 203.417 8.5546 204.29 8.45851 205.194C8.36242 206.097 8.46109 207.012 8.74788 207.874L15.8293 259.896ZM59.0027 216.079L61.6704 206.526C61.9738 205.423 61.9809 204.259 61.6907 203.152C61.8202 203.151 61.9344 203.09 62.0638 203.09C63.8929 203.052 65.6624 203.741 66.9843 205.006C68.3061 206.27 69.0725 208.008 69.1153 209.837C69.1582 211.666 68.474 213.437 67.2127 214.762C65.9515 216.088 64.2163 216.859 62.3874 216.907C61.2049 216.944 60.0347 216.657 59.0027 216.079V216.079Z" fill="#2F2E41"/>
<path d="M13.6211 199.609C14.4893 204.574 24.2502 208.063 35.9869 207.457C46.7797 206.96 55.6044 203.17 57.2212 198.678C56.6228 198.501 56.0006 198.418 55.3768 198.432L14.6263 199.485C14.2882 199.497 13.9519 199.539 13.6211 199.609V199.609Z" fill="#3F3D56"/>
<path d="M38.138 237.867C38.1917 237.854 38.2427 237.831 38.2889 237.801L44.0421 234.035C44.1116 233.99 44.1688 233.928 44.2083 233.855C44.2479 233.782 44.2686 233.7 44.2687 233.617C44.2687 233.534 44.248 233.453 44.2085 233.38C44.169 233.307 44.1119 233.245 44.0424 233.199L38.0626 229.282C38.0077 229.246 37.9462 229.221 37.8816 229.209C37.817 229.196 37.7506 229.196 37.6861 229.21C37.6216 229.223 37.5604 229.249 37.506 229.286C37.4516 229.323 37.405 229.37 37.3689 229.425C37.3328 229.48 37.308 229.542 37.2958 229.607C37.2836 229.671 37.2843 229.738 37.2978 229.802C37.3114 229.866 37.3375 229.928 37.3747 229.982C37.4119 230.036 37.4595 230.082 37.5147 230.118L42.8556 233.617L37.7416 236.964C37.6426 237.029 37.5697 237.127 37.536 237.24C37.5023 237.354 37.5099 237.475 37.5574 237.584C37.605 237.692 37.6894 237.78 37.7957 237.832C37.902 237.884 38.0233 237.896 38.138 237.867H38.138Z" fill="#6C63FF"/>
<path d="M29.0512 238.287C29.1478 238.262 29.2348 238.209 29.3012 238.135C29.3676 238.061 29.4103 237.969 29.4239 237.87C29.4374 237.771 29.4212 237.671 29.3773 237.581C29.3333 237.492 29.2637 237.418 29.1773 237.368L23.8742 234.328L28.9998 230.521C29.0525 230.481 29.097 230.432 29.1306 230.376C29.1643 230.32 29.1866 230.257 29.1961 230.192C29.2057 230.127 29.2024 230.061 29.1864 229.998C29.1704 229.934 29.142 229.874 29.1029 229.821C29.0638 229.769 29.0146 229.724 28.9583 229.691C28.902 229.657 28.8396 229.635 28.7747 229.625C28.7098 229.616 28.6436 229.619 28.58 229.635C28.5164 229.651 28.4565 229.679 28.4038 229.718L22.6652 233.981C22.5985 234.031 22.5452 234.096 22.5101 234.171C22.475 234.246 22.4591 234.329 22.464 234.412C22.4689 234.495 22.4943 234.575 22.5381 234.646C22.5818 234.716 22.6424 234.775 22.7144 234.816L28.6797 238.236C28.7922 238.3 28.9255 238.318 29.0512 238.287V238.287Z" fill="#6C63FF"/>
<path d="M37.5658 241.167C37.6142 241.155 37.6604 241.136 37.7028 241.11C37.759 241.076 37.8079 241.031 37.8467 240.978C37.8855 240.925 37.9135 240.865 37.929 240.801C37.9446 240.737 37.9474 240.671 37.9374 240.606C37.9273 240.541 37.9045 240.479 37.8703 240.423L29.7149 227.014C29.6455 226.902 29.5344 226.821 29.4058 226.79C29.2772 226.759 29.1415 226.78 29.0286 226.849C28.9156 226.918 28.8345 227.029 28.803 227.157C28.7715 227.286 28.7921 227.421 28.8605 227.535L37.0159 240.943C37.0716 241.034 37.155 241.105 37.254 241.146C37.3529 241.186 37.4622 241.194 37.5658 241.167V241.167Z" fill="#6C63FF"/>
<path d="M785.149 333.75C784.539 334.06 783.919 334.37 783.309 334.67C767.509 342.57 754.869 347.06 737.579 351.98C736.119 335.68 734.709 307.03 733.339 289.27C732.979 284.66 732.619 280.79 732.269 278.06C732.181 276.609 731.885 275.177 731.389 273.81L731.449 278.06L731.599 289.27L732.469 353.38C710.962 359.071 688.868 362.255 666.629 362.87C665.469 362.9 664.329 362.92 663.229 362.94C662.839 362.95 662.459 362.96 662.079 362.96C660.829 362.97 659.589 362.98 658.339 362.98C634.903 362.997 611.552 360.167 588.799 354.55C589.289 338.42 589.779 310.09 590.249 289.27C590.349 285.2 590.439 281.41 590.539 278.06C590.729 270.9 590.929 265.74 591.119 264.01C590.951 264.317 590.82 264.642 590.729 264.98C589.803 269.292 589.171 273.662 588.839 278.06C588.489 281.41 588.139 285.2 587.789 289.27C585.929 310.9 583.989 340.31 581.989 352.78C570.085 349.53 558.404 345.512 547.019 340.75C541.019 338.25 535.126 335.553 529.339 332.66C530.439 325.46 531.589 317.39 532.769 309.02C533.689 302.53 534.639 295.86 535.609 289.27C537.109 279.09 588.069 169.16 600.079 165.31L600.379 165.23L600.589 165.32L621.039 159.04L624.029 158.12L626.039 157.5L633.119 152.11L636.969 149.18L640.579 146.43L647.639 141.06L691.349 143.75L699.859 164.24L718.919 171.21L719.249 171.06L719.539 170.94L719.839 171.02C731.845 174.869 742.176 182.706 749.119 193.23C750.059 194.64 751.199 196.5 752.489 198.75C753.589 200.66 754.789 202.84 756.089 205.25C757.939 208.68 759.959 212.55 762.099 216.74C762.569 217.66 763.049 218.6 763.529 219.55C764.419 221.31 765.322 223.107 766.239 224.94C768.369 229.19 770.569 233.63 772.769 238.14C774.679 242.05 776.609 250.09 778.509 260.32C780.079 268.82 781.639 278.84 783.149 289.27C785.129 302.79 783.019 318.98 784.809 331.42C784.919 332.21 785.039 332.98 785.149 333.75Z" fill="#3F3D56"/>
<path d="M656.954 133.705C685.03 133.705 707.791 110.944 707.791 82.8682C707.791 54.792 685.03 32.0317 656.954 32.0317C628.878 32.0317 606.118 54.792 606.118 82.8682C606.118 110.944 628.878 133.705 656.954 133.705Z" fill="#FFB6B6"/>
<path opacity="0.2" d="M575.659 260.276L584.156 227.484L591.659 255.78L575.659 260.276Z" fill="black"/>
<path d="M801.769 238.91C798.729 280.79 801.879 299.23 785.099 333.76C769.832 341.233 753.929 347.33 737.579 351.98C735.879 352.46 734.176 352.927 732.469 353.38C710.962 359.071 688.868 362.255 666.629 362.87C665.469 362.9 664.329 362.92 663.229 362.94C662.839 362.95 662.459 362.96 662.079 362.96C660.829 362.97 659.589 362.98 658.339 362.98C634.903 362.997 611.552 360.167 588.799 354.55C586.519 353.99 584.249 353.4 581.989 352.78C570.085 349.53 558.404 345.512 547.019 340.75C541.019 338.25 535.126 335.553 529.339 332.66C528.029 332 526.719 331.34 525.429 330.66C518.799 319 515.029 304.82 514.949 287.78C519.539 258.42 791.629 213.59 801.769 238.91Z" fill="#2F2E41"/>
<path opacity="0.2" d="M801.761 246.082C801.917 243.489 802.09 240.811 802.293 238.022C792.153 212.702 520.063 257.532 515.473 286.892C515.485 289.584 515.6 292.196 515.794 294.747C526.91 265.769 785.399 223.161 801.761 246.082Z" fill="black"/>
<path d="M508.183 240.885L530.516 229.718L511.905 179.468L507 154.126C506.363 150.833 504.872 147.766 502.678 145.23C500.484 142.694 497.663 140.778 494.496 139.674C491.33 138.57 487.929 138.316 484.634 138.938C481.338 139.56 478.264 141.036 475.718 143.218V143.218C471.945 146.452 469.576 151.026 469.111 155.974C468.645 160.921 470.121 165.856 473.225 169.737L491.432 192.496L508.183 240.885Z" fill="#FFB6B6"/>
<path d="M530.516 220.413L500.738 235.302L523.336 306.111C524.959 311.195 527.868 315.775 531.782 319.404C535.695 323.034 540.48 325.591 545.672 326.827C552.074 328.351 558.796 327.797 564.862 325.245C570.928 322.692 576.023 318.274 579.409 312.63L639.334 209.916C643.581 202.838 644.892 194.381 642.987 186.35C641.082 178.318 636.112 171.35 629.139 166.934V166.934C625.388 164.559 621.18 163 616.787 162.359C612.394 161.718 607.916 162.009 603.643 163.213C599.37 164.417 595.399 166.507 591.987 169.348C588.576 172.188 585.801 175.715 583.843 179.699L547.267 257.636L530.516 220.413Z" fill="#3F3D56"/>
<path d="M209.508 130.197C240.4 130.197 265.443 105.154 265.443 74.2617C265.443 43.3696 240.4 18.3267 209.508 18.3267C178.615 18.3267 153.573 43.3696 153.573 74.2617C153.573 105.154 178.615 130.197 209.508 130.197Z" fill="#A0616A"/>
<path d="M154.244 35.7159C158.792 29.5861 165.329 25.228 170.329 19.461C173.072 16.2967 175.35 12.7115 178.435 9.87875C184.165 4.61557 192.179 2.45897 199.955 2.19077C208.477 1.97183 216.931 3.76228 224.632 7.41724C232.334 11.0722 239.067 16.489 244.286 23.2292C248.351 20.8461 252.415 18.463 256.48 16.08C258.085 20.3064 259.691 24.5329 261.297 28.7595C262.615 27.614 264.296 26.9721 266.042 26.9476C267.788 26.9231 269.486 27.5175 270.835 28.6255C272.185 29.7336 273.098 31.2836 273.414 33.0009C273.73 34.7182 273.428 36.4918 272.561 38.0075C273.528 35.0185 277.96 34.3843 280.403 36.3589C282.847 38.3337 283.501 41.8469 283.102 44.9631C282.602 48.3817 281.091 51.5726 278.762 54.1255C276.434 56.6785 273.396 58.4767 270.037 59.2891C264.733 60.4707 258.56 59.2294 254.315 62.6216C250.911 65.3411 249.884 70.2932 246.411 72.9228C242.131 76.1631 236.081 74.6646 230.761 75.3806C221.453 76.6336 214.083 86.1536 215.201 95.4789C214.359 92.5364 213.474 89.5088 211.563 87.1185C209.651 84.7283 206.432 83.1118 203.5 83.9906C198.654 85.4431 197.862 92.0483 199.036 96.9688C202.151 110.019 213.955 131.113 213.955 131.113C198.628 137.159 180.367 131.442 168.54 119.969C156.714 108.496 150.555 92.25 147.872 75.9929C145.596 62.207 145.919 46.9373 154.244 35.7159Z" fill="#2F2E41"/>
<path d="M720.662 110.892C731.304 86.4942 725.275 64.0426 712.302 52.1323V52.1223C707.202 40.6923 700.422 31.8723 692.662 29.8023C688.912 27.3923 685.272 24.5623 681.232 23.1223C679.35 22.4178 677.345 22.1016 675.338 22.1927C673.33 22.2837 671.362 22.7803 669.552 23.6523L667.492 23.1023C665.742 18.6323 663.692 18.5423 661.412 21.4823C652.632 17.3923 644.722 15.5623 637.682 15.5623C614.722 15.5623 601.142 35.0023 597.542 58.5023L616.732 63.6123L623.402 52.9823L620.322 64.5723L630.912 67.3823C647.032 88.3723 627.742 136.792 603.292 163.732C609.112 162.122 614.909 160.762 620.682 159.652L641.662 128.892L628.662 156.892C635.412 155.902 644.022 156.852 653.432 158.762C656.602 154.622 658.272 149.102 656.632 144.182C659.313 149.371 661.163 154.949 662.112 160.712C681.972 165.562 709.062 168.052 723.662 169.892C735.458 166.042 735.49 122.552 720.662 110.892Z" fill="#2F2E41"/>
<path d="M727.585 27.9005C735.38 45.3537 719.652 52.8608 705.244 52.6488C692.225 52.4573 681.16 43.3109 680.496 30.3075C680.176 24.063 682.351 17.9475 686.541 13.3063C690.731 8.66506 696.593 5.87832 702.837 5.55914C715.84 4.89447 722.276 16.0118 727.585 27.9005Z" fill="#2F2E41"/>
<path d="M365.982 312.019L353.143 290.603L395.834 258.215L413.584 239.474C415.89 237.04 418.794 235.253 422.007 234.292C425.22 233.332 428.629 233.231 431.893 234.001C435.157 234.771 438.162 236.383 440.607 238.678C443.053 240.973 444.853 243.869 445.829 247.078V247.078C447.274 251.833 446.815 256.963 444.55 261.386C442.285 265.809 438.389 269.179 433.686 270.785L406.104 280.201L365.982 312.019Z" fill="#A0616A"/>
<path d="M375.262 311.312L355.272 327.972L349.882 332.462L349.252 332.982C347.862 333.672 346.462 334.352 345.052 335.022C340.832 337.032 336.559 338.942 332.232 340.752C320.848 345.514 309.166 349.532 297.262 352.782C295.002 353.402 292.732 353.992 290.452 354.552C289.062 354.892 287.662 355.232 286.262 355.552C285.382 355.762 284.492 355.962 283.602 356.152C282.522 356.392 281.442 356.632 280.362 356.852C279.232 357.092 278.102 357.322 276.972 357.542C273.931 354.649 271.511 351.168 269.857 347.31C268.203 343.453 267.351 339.299 267.352 335.102C267.352 334.832 267.352 334.552 267.362 334.272L270.572 251.942L271.992 215.452C272.211 207.2 275.648 199.361 281.57 193.61C287.491 187.858 295.427 184.651 303.682 184.672C304.642 184.672 305.592 184.722 306.532 184.812C307.212 185.692 307.842 186.602 308.452 187.522C310.112 189.982 312.352 193.872 314.992 198.752C316.082 200.762 317.232 202.942 318.442 205.252C319.172 206.642 325.472 226.302 331.602 246.382L328.902 267.352L324.022 305.152L344.042 292.012L358.142 282.752L359.812 285.542L364.162 292.802L372.562 306.802L375.262 311.312Z" fill="#3F3D56"/>
<path d="M364.302 287.782C364.292 289.482 364.252 291.152 364.162 292.802C363.954 297.354 363.426 301.885 362.582 306.362C361.202 313.881 358.739 321.16 355.272 327.972C354.812 328.882 354.322 329.782 353.822 330.662C352.532 331.342 351.222 332.002 349.912 332.662C349.692 332.772 349.472 332.882 349.252 332.982C343.682 335.752 338.009 338.342 332.232 340.752C320.848 345.514 309.166 349.532 297.262 352.782C295.002 353.402 292.732 353.992 290.452 354.552C286.002 355.652 281.509 356.649 276.972 357.542C258.506 361.17 239.731 362.992 220.912 362.982C219.662 362.982 218.422 362.972 217.172 362.962C216.792 362.962 216.412 362.952 216.022 362.942C214.922 362.922 213.782 362.902 212.622 362.872C190.383 362.257 168.289 359.073 146.782 353.382C145.072 352.932 143.369 352.466 141.672 351.982C125.322 347.332 109.419 341.235 94.1519 333.762C77.3719 299.232 80.5219 280.792 77.4819 238.912C83.7219 223.322 189.292 234.332 270.572 251.942C292.632 256.722 312.892 261.992 328.902 267.352C345.442 272.882 357.432 278.502 362.132 283.782C363.23 284.875 363.984 286.266 364.302 287.782V287.782Z" fill="#2F2E41"/>
<path opacity="0.2" d="M77.4879 246.082C77.3326 243.489 77.159 240.811 76.9565 238.022C87.0965 212.702 359.187 257.532 363.777 286.892C363.764 289.584 363.649 292.196 363.455 294.747C352.34 265.769 93.8505 223.161 77.4879 246.082Z" fill="black"/>
<ellipse cx="411.5" cy="66.9028" rx="19.1667" ry="19.1929" fill="#F25A1A"/>
<ellipse cx="449.833" cy="140.517" rx="19.1667" ry="19.1929" fill="#38A49D"/>
<ellipse cx="373.167" cy="140.517" rx="19.1667" ry="19.1929" fill="#FFC75D"/>
<path d="M379.244 122.47C379.327 122.734 379.607 122.881 379.87 122.799L384.164 121.461C384.428 121.379 384.575 121.099 384.493 120.835C384.41 120.571 384.13 120.424 383.867 120.506L380.05 121.695L378.86 117.874C378.777 117.61 378.497 117.463 378.234 117.545C377.97 117.627 377.823 117.907 377.905 118.171L379.244 122.47ZM400.188 82.2073L379.279 122.089L380.164 122.554L401.073 82.6726L400.188 82.2073Z" fill="#737373"/>
<path d="M424.797 81.9506C424.527 81.8932 424.261 82.0658 424.204 82.3361L423.268 86.7406C423.211 87.0109 423.383 87.2765 423.653 87.3339C423.923 87.3912 424.188 87.2186 424.246 86.9483L425.077 83.0332L428.988 83.8638C429.258 83.9212 429.523 83.7486 429.58 83.4783C429.638 83.208 429.466 82.9424 429.196 82.8851L424.797 81.9506ZM450.335 121.052L425.112 82.1673L424.273 82.7126L449.497 121.597L450.335 121.052Z" fill="#737373"/>
<path d="M431.028 142.94C431.219 142.741 431.212 142.424 431.012 142.233L427.762 139.121C427.563 138.93 427.246 138.937 427.055 139.136C426.864 139.336 426.871 139.652 427.071 139.843L429.96 142.61L427.193 145.499C427.002 145.698 427.009 146.015 427.208 146.206C427.408 146.396 427.724 146.39 427.915 146.19L431.028 142.94ZM392.344 143.925L430.677 143.094L430.656 142.094L392.322 142.925L392.344 143.925Z" fill="#737373"/>
<g clip-path="url(#clip0_192_3567)">
<path d="M480.259 110.045C482.04 108.385 482.139 105.595 480.478 103.814C478.818 102.032 476.028 101.934 474.247 103.594L461.345 115.619L449.321 102.718C447.66 100.936 444.87 100.838 443.089 102.498C441.308 104.159 441.21 106.948 442.87 108.73L454.894 121.631L441.993 133.656C440.212 135.316 440.113 138.106 441.774 139.888C443.434 141.669 446.224 141.767 448.005 140.107L460.907 128.082L472.931 140.984C474.592 142.765 477.382 142.863 479.163 141.203C480.944 139.543 481.042 136.753 479.382 134.971L467.358 122.07L480.259 110.045Z" fill="#FF9A70"/>
<path fill-rule="evenodd" clip-rule="evenodd" d="M412.626 121.851C412.626 95.065 434.34 73.3508 461.126 73.3508C487.912 73.3508 509.626 95.065 509.626 121.851C509.626 148.637 487.912 170.351 461.126 170.351C434.34 170.351 412.626 148.637 412.626 121.851ZM461.126 161.533C439.211 161.533 421.444 143.766 421.444 121.851C421.444 99.9352 439.211 82.169 461.126 82.169C483.042 82.169 500.808 99.9352 500.808 121.851C500.808 143.766 483.042 161.533 461.126 161.533Z" fill="#FF9A70"/>
</g>
<g clip-path="url(#clip1_192_3567)">
<path d="M415.55 64.5192C415.881 64.2111 415.899 63.6934 415.591 63.3629C415.283 63.0323 414.765 63.0141 414.435 63.3222L412.041 65.5536L409.809 63.1594C409.501 62.8289 408.983 62.8107 408.653 63.1188C408.322 63.4268 408.304 63.9446 408.612 64.2751L410.844 66.6692L408.449 68.9006C408.119 69.2087 408.101 69.7264 408.409 70.057C408.717 70.3875 409.235 70.4057 409.565 70.0977L411.959 67.8663L414.191 70.2604C414.499 70.5909 415.016 70.6092 415.347 70.3011C415.678 69.993 415.696 69.4753 415.388 69.1447L413.156 66.7506L415.55 64.5192Z" fill="#FF9A70"/>
<path fill-rule="evenodd" clip-rule="evenodd" d="M403 66.71C403 61.7394 407.029 57.71 412 57.71C416.971 57.71 421 61.7394 421 66.71C421 71.6805 416.971 75.71 412 75.71C407.029 75.71 403 71.6805 403 66.71ZM412 74.0736C407.933 74.0736 404.636 70.7768 404.636 66.71C404.636 62.6431 407.933 59.3463 412 59.3463C416.067 59.3463 419.364 62.6431 419.364 66.71C419.364 70.7768 416.067 74.0736 412 74.0736Z" fill="#FF9A70"/>
</g>
<path d="M382 138.607L379.831 130.71L377.532 132.952C373.325 130.367 367.699 130.861 364.035 134.435L365.746 136.104C368.459 133.458 372.554 132.982 375.764 134.677L373.904 136.491L382 138.607Z" fill="#BE8C2E"/>
<path d="M364 141.813L366.169 149.71L368.468 147.468C372.675 150.053 378.301 149.559 381.965 145.985L380.254 144.316C377.541 146.962 373.446 147.438 370.236 145.743L372.096 143.929L364 141.813Z" fill="#BE8C2E"/>
<g clip-path="url(#clip2_192_3567)">
<path d="M442 140.21L444.616 137.609L448.538 141.51L456.385 133.71L459 136.31L448.538 146.71L442 140.21Z" fill="#18D2C6"/>
</g>
<rect x="475" y="82.71" width="57" height="15" rx="7.5" fill="#F8F8F8"/>
<rect x="474" y="107.71" width="57" height="15" rx="7.5" fill="#F8F8F8"/>
<path d="M484.918 54.4912V68.71H481.998V54.4912H484.918ZM489.293 54.4912V56.7861H477.691V54.4912H489.293ZM495.328 68.71H492.232L492.252 66.4248H495.328C496.096 66.4248 496.744 66.2523 497.271 65.9072C497.799 65.5557 498.196 65.0446 498.463 64.374C498.736 63.7035 498.873 62.8929 498.873 61.9424V61.249C498.873 60.5199 498.795 59.8786 498.639 59.3252C498.489 58.7718 498.264 58.3063 497.965 57.9287C497.665 57.5511 497.298 57.2679 496.861 57.0791C496.425 56.8838 495.924 56.7861 495.357 56.7861H492.174V54.4912H495.357C496.308 54.4912 497.177 54.654 497.965 54.9795C498.759 55.2985 499.446 55.7575 500.025 56.3564C500.605 56.9554 501.051 57.6715 501.363 58.5049C501.682 59.3317 501.842 60.2529 501.842 61.2686V61.9424C501.842 62.9515 501.682 63.8727 501.363 64.7061C501.051 65.5394 500.605 66.2555 500.025 66.8545C499.452 67.4469 498.766 67.9059 497.965 68.2314C497.171 68.5505 496.292 68.71 495.328 68.71ZM493.893 54.4912V68.71H490.963V54.4912H493.893ZM508.336 68.71H505.24L505.26 66.4248H508.336C509.104 66.4248 509.752 66.2523 510.279 65.9072C510.807 65.5557 511.204 65.0446 511.471 64.374C511.744 63.7035 511.881 62.8929 511.881 61.9424V61.249C511.881 60.5199 511.803 59.8786 511.646 59.3252C511.497 58.7718 511.272 58.3063 510.973 57.9287C510.673 57.5511 510.305 57.2679 509.869 57.0791C509.433 56.8838 508.932 56.7861 508.365 56.7861H505.182V54.4912H508.365C509.316 54.4912 510.185 54.654 510.973 54.9795C511.767 55.2985 512.454 55.7575 513.033 56.3564C513.613 56.9554 514.059 57.6715 514.371 58.5049C514.69 59.3317 514.85 60.2529 514.85 61.2686V61.9424C514.85 62.9515 514.69 63.8727 514.371 64.7061C514.059 65.5394 513.613 66.2555 513.033 66.8545C512.46 67.4469 511.773 67.9059 510.973 68.2314C510.178 68.5505 509.299 68.71 508.336 68.71ZM506.9 54.4912V68.71H503.971V54.4912H506.9Z" fill="#0A073A"/>
<defs>
<clipPath id="clip0_192_3567">
<rect width="19.7475" height="19.7745" fill="white" transform="translate(401.626 56.3508)"/>
</clipPath>
<clipPath id="clip1_192_3567">
<rect width="18" height="18" fill="white" transform="translate(403 57.71)"/>
</clipPath>
<clipPath id="clip2_192_3567">
<rect width="32" height="13" fill="white" transform="translate(437 133.71)"/>
</clipPath>
</defs>
</svg>
